<svg xmlns="http://www.w3.org/2000/svg" width="758" height="541" fill="black"><rect width="100%" height="100%" fill="white" /><line x1="59" y1="492" x2="659" y2="492" stroke="black" stroke-width="1" /><line x1="59" y1="42" x2="59" y2="492" stroke="black" stroke-width="1" /><line x1="109" y1="42" x2="109" y2="492" stroke="#ccc" stroke-width="1" /><line x1="159" y1="42" x2="159" y2="492" stroke="#ccc" stroke-width="1" /><line x1="209" y1="42" x2="209" y2="492" stroke="#ccc" stroke-width="1" /><line x1="259" y1="42" x2="259" y2="492" stroke="#ccc" stroke-width="1" /><line x1="309" y1="42" x2="309" y2="492" stroke="#ccc" stroke-width="1" /><line x1="359" y1="42" x2="359" y2="492" stroke="#ccc" stroke-width="1" /><line x1="409" y1="42" x2="409" y2="492" stroke="#ccc" stroke-width="1" /><line x1="459" y1="42" x2="459" y2="492" stroke="#ccc" stroke-width="1" /><line x1="509" y1="42" x2="509" y2="492" stroke="#ccc" stroke-width="1" /><line x1="559" y1="42" x2="559" y2="492" stroke="#ccc" stroke-width="1" /><line x1="609" y1="42" x2="609" y2="492" stroke="#ccc" stroke-width="1" /><line x1="659" y1="42" x2="659" y2="492" stroke="#ccc" stroke-width="1" /><line x1="59" y1="454.5" x2="659" y2="454.5" stroke="#ccc" stroke-width="1" /><line x1="59" y1="417" x2="659" y2="417" stroke="#ccc" stroke-width="1" /><line x1="59" y1="379.5" x2="659" y2="379.5" stroke="#ccc" stroke-width="1" /><line x1="59" y1="342" x2="659" y2="342" stroke="#ccc" stroke-width="1" /><line x1="59" y1="304.5" x2="659" y2="304.5" stroke="#ccc" stroke-width="1" /><line x1="59" y1="267" x2="659" y2="267" stroke="#ccc" stroke-width="1" /><line x1="59" y1="229.5" x2="659" y2="229.5" stroke="#ccc" stroke-width="1" /><line x1="59" y1="192" x2="659" y2="192" stroke="#ccc" stroke-width="1" /><line x1="59" y1="154.5" x2="659" y2="154.5" stroke="#ccc" stroke-width="1" /><line x1="59" y1="117" x2="659" y2="117" stroke="#ccc" stroke-width="1" /><line x1="59" y1="79.5" x2="659" y2="79.5" stroke="#ccc" stroke-width="1" /><line x1="59" y1="42" x2="659" y2="42" stroke="#ccc" stroke-width="1" /><line x1="59" y1="492" x2="59" y2="497" stroke="black" stroke-width="1" /><text x="59" y="507" font-size="10" text-anchor="middle">0</text><line x1="109" y1="492" x2="109" y2="497" stroke="black" stroke-width="1" /><text x="109" y="507" font-size="10" text-anchor="middle">2.5</text><line x1="159" y1="492" x2="159" y2="497" stroke="black" stroke-width="1" /><text x="159" y="507" font-size="10" text-anchor="middle">5</text><line x1="209" y1="492" x2="209" y2="497" stroke="black" stroke-width="1" /><text x="209" y="507" font-size="10" text-anchor="middle">7.5</text><line x1="259" y1="492" x2="259" y2="497" stroke="black" stroke-width="1" /><text x="259" y="507" font-size="10" text-anchor="middle">10</text><line x1="309" y1="492" x2="309" y2="497" stroke="black" stroke-width="1" /><text x="309" y="507" font-size="10" text-anchor="middle">12.5</text><line x1="359" y1="492" x2="359" y2="497" stroke="black" stroke-width="1" /><text x="359" y="507" font-size="10" text-anchor="middle">15</text><line x1="409" y1="492" x2="409" y2="497" stroke="black" stroke-width="1" /><text x="409" y="507" font-size="10" text-anchor="middle">17.5</text><line x1="459" y1="492" x2="459" y2="497" stroke="black" stroke-width="1" /><text x="459" y="507" font-size="10" text-anchor="middle">20</text><line x1="509" y1="492" x2="509" y2="497" stroke="black" stroke-width="1" /><text x="509" y="507" font-size="10" text-anchor="middle">22.5</text><line x1="559" y1="492" x2="559" y2="497" stroke="black" stroke-width="1" /><text x="559" y="507" font-size="10" text-anchor="middle">25</text><line x1="609" y1="492" x2="609" y2="497" stroke="black" stroke-width="1" /><text x="609" y="507" font-size="10" text-anchor="middle">27.5</text><line x1="659" y1="492" x2="659" y2="497" stroke="black" stroke-width="1" /><text x="659" y="507" font-size="10" text-anchor="middle">30</text><line x1="54" y1="492" x2="59" y2="492" stroke="black" stroke-width="1" /><text x="51" y="495.5" font-size="10" text-anchor="end">0</text><line x1="54" y1="454.5" x2="59" y2="454.5" stroke="black" stroke-width="1" /><text x="51" y="458" font-size="10" text-anchor="end">2.5</text><line x1="54" y1="417" x2="59" y2="417" stroke="black" stroke-width="1" /><text x="51" y="420.5" font-size="10" text-anchor="end">5</text><line x1="54" y1="379.5" x2="59" y2="379.5" stroke="black" stroke-width="1" /><text x="51" y="383" font-size="10" text-anchor="end">7.5</text><line x1="54" y1="342" x2="59" y2="342" stroke="black" stroke-width="1" /><text x="51" y="345.5" font-size="10" text-anchor="end">10</text><line x1="54" y1="304.5" x2="59" y2="304.5" stroke="black" stroke-width="1" /><text x="51" y="308" font-size="10" text-anchor="end">12.5</text><line x1="54" y1="267" x2="59" y2="267" stroke="black" stroke-width="1" /><text x="51" y="270.5" font-size="10" text-anchor="end">15</text><line x1="54" y1="229.5" x2="59" y2="229.5" stroke="black" stroke-width="1" /><text x="51" y="233" font-size="10" text-anchor="end">17.5</text><line x1="54" y1="192" x2="59" y2="192" stroke="black" stroke-width="1" /><text x="51" y="195.5" font-size="10" text-anchor="end">20</text><line x1="54" y1="154.5" x2="59" y2="154.5" stroke="black" stroke-width="1" /><text x="51" y="158" font-size="10" text-anchor="end">22.5</text><line x1="54" y1="117" x2="59" y2="117" stroke="black" stroke-width="1" /><text x="51" y="120.5" font-size="10" text-anchor="end">25</text><line x1="54" y1="79.5" x2="59" y2="79.5" stroke="black" stroke-width="1" /><text x="51" y="83" font-size="10" text-anchor="end">27.5</text><line x1="54" y1="42" x2="59" y2="42" stroke="black" stroke-width="1" /><text x="51" y="45.5" font-size="10" text-anchor="end">30</text><text x="379" y="534" font-size="14" text-anchor="middle">X</text><text x="14" y="270.5" font-size="14" text-anchor="middle" transform="rotate(-90,14,270.5)">Y</text><text x="379" y="21" font-size="16" text-anchor="middle">2D Histogram — Viridis</text><rect x="379" y="432" width="20" height="15" fill="rgb(69,4,88)" /><rect x="299" y="417" width="20" height="15" fill="rgb(69,4,88)" /><rect x="359" y="417" width="20" height="15" fill="rgb(69,4,88)" /><rect x="399" y="417" width="20" height="15" fill="rgb(69,4,88)" /><rect x="339" y="402" width="20" height="15" fill="rgb(69,4,88)" /><rect x="359" y="402" width="20" height="15" fill="rgb(69,4,88)" /><rect x="399" y="402" width="20" height="15" fill="rgb(69,4,88)" /><rect x="239" y="387" width="20" height="15" fill="rgb(69,4,88)" /><rect x="319" y="387" width="20" height="15" fill="rgb(70,13,96)" /><rect x="339" y="387" width="20" height="15" fill="rgb(69,8,92)" /><rect x="359" y="387" width="20" height="15" fill="rgb(71,16,99)" /><rect x="379" y="387" width="20" height="15" fill="rgb(69,8,92)" /><rect x="399" y="387" width="20" height="15" fill="rgb(69,4,88)" /><rect x="439" y="387" width="20" height="15" fill="rgb(69,4,88)" /><rect x="479" y="387" width="19.999999999999943" height="15" fill="rgb(69,4,88)" /><rect x="239" y="372" width="20" height="15" fill="rgb(69,4,88)" /><rect x="259" y="372" width="20" height="15" fill="rgb(69,8,92)" /><rect x="299" y="372" width="20" height="15" fill="rgb(69,4,88)" /><rect x="319" y="372" width="20" height="15" fill="rgb(71,16,99)" /><rect x="339" y="372" width="20" height="15" fill="rgb(70,13,96)" /><rect x="359" y="372" width="20" height="15" fill="rgb(70,13,96)" /><rect x="379" y="372" width="20" height="15" fill="rgb(72,24,106)" /><rect x="419" y="372" width="20" height="15" fill="rgb(69,8,92)" /><rect x="439" y="372" width="20" height="15" fill="rgb(69,4,88)" /><rect x="459" y="372" width="20" height="15" fill="rgb(69,4,88)" /><rect x="519" y="372" width="20" height="15" fill="rgb(69,4,88)" /><rect x="199" y="357" width="20" height="15" fill="rgb(69,4,88)" /><rect x="219" y="357" width="20" height="15" fill="rgb(69,4,88)" /><rect x="239" y="357" width="20" height="15" fill="rgb(69,8,92)" /><rect x="259" y="357" width="20" height="15" fill="rgb(70,13,96)" /><rect x="279" y="357" width="20" height="15" fill="rgb(72,24,106)" /><rect x="299" y="357" width="20" height="15" fill="rgb(71,27,109)" /><rect x="319" y="357" width="20" height="15" fill="rgb(72,24,106)" /><rect x="339" y="357" width="20" height="15" fill="rgb(72,24,106)" /><rect x="359" y="357" width="20" height="15" fill="rgb(71,41,121)" /><rect x="379" y="357" width="20" height="15" fill="rgb(72,38,119)" /><rect x="399" y="357" width="20" height="15" fill="rgb(71,41,121)" /><rect x="419" y="357" width="20" height="15" fill="rgb(72,24,106)" /><rect x="459" y="357" width="20" height="15" fill="rgb(69,4,88)" /><rect x="239" y="342" width="20" height="15" fill="rgb(69,4,88)" /><rect x="259" y="342" width="20" height="15" fill="rgb(70,13,96)" /><rect x="279" y="342" width="20" height="15" fill="rgb(71,27,109)" /><rect x="299" y="342" width="20" height="15" fill="rgb(72,31,112)" /><rect x="319" y="342" width="20" height="15" fill="rgb(64,68,135)" /><rect x="339" y="342" width="20" height="15" fill="rgb(66,62,132)" /><rect x="359" y="342" width="20" height="15" fill="rgb(69,51,127)" /><rect x="379" y="342" width="20" height="15" fill="rgb(66,62,132)" /><rect x="399" y="342" width="20" height="15" fill="rgb(66,62,132)" /><rect x="419" y="342" width="20" height="15" fill="rgb(72,35,116)" /><rect x="439" y="342" width="20" height="15" fill="rgb(71,27,109)" /><rect x="459" y="342" width="20" height="15" fill="rgb(69,8,92)" /><rect x="479" y="342" width="19.999999999999943" height="15" fill="rgb(69,4,88)" /><rect x="498.99999999999994" y="342" width="20.000000000000057" height="15" fill="rgb(69,8,92)" /><rect x="159" y="327" width="20" height="15" fill="rgb(69,8,92)" /><rect x="199" y="327" width="20" height="15" fill="rgb(69,4,88)" /><rect x="219" y="327" width="20" height="15" fill="rgb(71,16,99)" /><rect x="239" y="327" width="20" height="15" fill="rgb(72,24,106)" /><rect x="259" y="327" width="20" height="15" fill="rgb(71,21,103)" /><rect x="279" y="327" width="20" height="15" fill="rgb(66,62,132)" /><rect x="299" y="327" width="20" height="15" fill="rgb(63,71,136)" /><rect x="319" y="327" width="20" height="15" fill="rgb(52,94,141)" /><rect x="339" y="327" width="20" height="15" fill="rgb(48,103,142)" /><rect x="359" y="327" width="20" height="15" fill="rgb(60,77,138)" /><rect x="379" y="327" width="20" height="15" fill="rgb(55,89,140)" /><rect x="399" y="327" width="20" height="15" fill="rgb(68,55,129)" /><rect x="419" y="327" width="20" height="15" fill="rgb(72,38,119)" /><rect x="439" y="327" width="20" height="15" fill="rgb(72,35,116)" /><rect x="459" y="327" width="20" height="15" fill="rgb(71,27,109)" /><rect x="479" y="327" width="19.999999999999943" height="15" fill="rgb(70,13,96)" /><rect x="498.99999999999994" y="327" width="20.000000000000057" height="15" fill="rgb(70,13,96)" /><rect x="519" y="327" width="20" height="15" fill="rgb(69,4,88)" /><rect x="199" y="312" width="20" height="15" fill="rgb(69,4,88)" /><rect x="219" y="312" width="20" height="15" fill="rgb(69,8,92)" /><rect x="239" y="312" width="20" height="15" fill="rgb(72,38,119)" /><rect x="259" y="312" width="20" height="15" fill="rgb(64,68,135)" /><rect x="279" y="312" width="20" height="15" fill="rgb(70,48,125)" /><rect x="299" y="312" width="20" height="15" fill="rgb(44,113,141)" /><rect x="319" y="312" width="20" height="15" fill="rgb(31,151,138)" /><rect x="339" y="312" width="20" height="15" fill="rgb(31,161,135)" /><rect x="359" y="312" width="20" height="15" fill="rgb(41,121,142)" /><rect x="379" y="312" width="20" height="15" fill="rgb(48,103,142)" /><rect x="399" y="312" width="20" height="15" fill="rgb(58,83,139)" /><rect x="419" y="312" width="20" height="15" fill="rgb(58,83,139)" /><rect x="439" y="312" width="20" height="15" fill="rgb(71,27,109)" /><rect x="459" y="312" width="20" height="15" fill="rgb(72,24,106)" /><rect x="479" y="312" width="19.999999999999943" height="15" fill="rgb(71,21,103)" /><rect x="498.99999999999994" y="312" width="20.000000000000057" height="15" fill="rgb(69,8,92)" /><rect x="519" y="312" width="20" height="15" fill="rgb(69,8,92)" /><rect x="539" y="312" width="20" height="15" fill="rgb(69,4,88)" /><rect x="179" y="297" width="20" height="15" fill="rgb(70,13,96)" /><rect x="199" y="297" width="20" height="15" fill="rgb(71,21,103)" /><rect x="219" y="297" width="20" height="15" fill="rgb(71,16,99)" /><rect x="239" y="297" width="20" height="15" fill="rgb(71,27,109)" /><rect x="259" y="297" width="20" height="15" fill="rgb(67,58,131)" /><rect x="279" y="297" width="20" height="15" fill="rgb(47,105,142)" /><rect x="299" y="297" width="20" height="15" fill="rgb(31,151,138)" /><rect x="319" y="297" width="20" height="15" fill="rgb(84,197,103)" /><rect x="339" y="297" width="20" height="15" fill="rgb(133,212,73)" /><rect x="359" y="297" width="20" height="15" fill="rgb(31,148,139)" /><rect x="379" y="297" width="20" height="15" fill="rgb(32,164,133)" /><rect x="399" y="297" width="20" height="15" fill="rgb(31,148,139)" /><rect x="419" y="297" width="20" height="15" fill="rgb(42,118,142)" /><rect x="439" y="297" width="20" height="15" fill="rgb(64,68,135)" /><rect x="459" y="297" width="20" height="15" fill="rgb(71,21,103)" /><rect x="479" y="297" width="19.999999999999943" height="15" fill="rgb(71,16,99)" /><rect x="498.99999999999994" y="297" width="20.000000000000057" height="15" fill="rgb(69,4,88)" /><rect x="519" y="297" width="20" height="15" fill="rgb(69,4,88)" /><rect x="539" y="297" width="20" height="15" fill="rgb(69,4,88)" /><rect x="179" y="282" width="20" height="15" fill="rgb(69,8,92)" /><rect x="199" y="282" width="20" height="15" fill="rgb(70,13,96)" /><rect x="219" y="282" width="20" height="15" fill="rgb(70,13,96)" /><rect x="239" y="282" width="20" height="15" fill="rgb(71,41,121)" /><rect x="259" y="282" width="20" height="15" fill="rgb(55,89,140)" /><rect x="279" y="282" width="20" height="15" fill="rgb(50,100,141)" /><rect x="299" y="282" width="20" height="15" fill="rgb(31,161,135)" /><rect x="319" y="282" width="20" height="15" fill="rgb(68,191,111)" /><rect x="339" y="282" width="20" height="15" fill="rgb(101,203,93)" /><rect x="359" y="282" width="20" height="15" fill="rgb(154,216,60)" /><rect x="379" y="282" width="20" height="15" fill="rgb(35,169,130)" /><rect x="399" y="282" width="20" height="15" fill="rgb(58,186,117)" /><rect x="419" y="282" width="20" height="15" fill="rgb(41,121,142)" /><rect x="439" y="282" width="20" height="15" fill="rgb(51,97,141)" /><rect x="459" y="282" width="20" height="15" fill="rgb(63,71,136)" /><rect x="479" y="282" width="19.999999999999943" height="15" fill="rgb(72,31,112)" /><rect x="519" y="282" width="20" height="15" fill="rgb(69,4,88)" /><rect x="559" y="282" width="20" height="15" fill="rgb(69,4,88)" /><rect x="179" y="267" width="20" height="15" fill="rgb(70,13,96)" /><rect x="219" y="267" width="20" height="15" fill="rgb(70,45,123)" /><rect x="239" y="267" width="20" height="15" fill="rgb(72,38,119)" /><rect x="259" y="267" width="20" height="15" fill="rgb(58,83,139)" /><rect x="279" y="267" width="20" height="15" fill="rgb(37,130,142)" /><rect x="299" y="267" width="20" height="15" fill="rgb(68,191,111)" /><rect x="319" y="267" width="20" height="15" fill="rgb(190,222,37)" /><rect x="339" y="267" width="20" height="15" fill="rgb(161,218,55)" /><rect x="359" y="267" width="20" height="15" fill="rgb(246,230,32)" /><rect x="379" y="267" width="20" height="15" fill="rgb(154,216,60)" /><rect x="399" y="267" width="20" height="15" fill="rgb(32,164,133)" /><rect x="419" y="267" width="20" height="15" fill="rgb(42,118,142)" /><rect x="439" y="267" width="20" height="15" fill="rgb(48,103,142)" /><rect x="459" y="267" width="20" height="15" fill="rgb(68,55,129)" /><rect x="479" y="267" width="19.999999999999943" height="15" fill="rgb(71,21,103)" /><rect x="498.99999999999994" y="267" width="20.000000000000057" height="15" fill="rgb(69,8,92)" /><rect x="519" y="267" width="20" height="15" fill="rgb(69,8,92)" /><rect x="179" y="252" width="20" height="15" fill="rgb(69,4,88)" /><rect x="199" y="252" width="20" height="15" fill="rgb(69,8,92)" /><rect x="219" y="252" width="20" height="15" fill="rgb(71,27,109)" /><rect x="239" y="252" width="20" height="15" fill="rgb(59,80,138)" /><rect x="259" y="252" width="20" height="15" fill="rgb(59,80,138)" /><rect x="279" y="252" width="20" height="15" fill="rgb(31,146,140)" /><rect x="299" y="252" width="20" height="15" fill="rgb(68,191,111)" /><rect x="319" y="252" width="20" height="15" fill="rgb(133,212,73)" /><rect x="339" y="252" width="20" height="15" fill="rgb(84,197,103)" /><rect x="359" y="252" width="20" height="15" fill="rgb(253,231,37)" /><rect x="379" y="252" width="20" height="15" fill="rgb(161,218,55)" /><rect x="399" y="252" width="20" height="15" fill="rgb(46,179,124)" /><rect x="419" y="252" width="20" height="15" fill="rgb(39,126,142)" /><rect x="439" y="252" width="20" height="15" fill="rgb(56,85,139)" /><rect x="459" y="252" width="20" height="15" fill="rgb(65,64,134)" /><rect x="479" y="252" width="19.999999999999943" height="15" fill="rgb(70,45,123)" /><rect x="498.99999999999994" y="252" width="20.000000000000057" height="15" fill="rgb(70,13,96)" /><rect x="519" y="252" width="20" height="15" fill="rgb(69,4,88)" /><rect x="539" y="252" width="20" height="15" fill="rgb(69,4,88)" /><rect x="579" y="252" width="20" height="15" fill="rgb(69,4,88)" /><rect x="99" y="237" width="20" height="15" fill="rgb(69,4,88)" /><rect x="179" y="237" width="20" height="15" fill="rgb(69,4,88)" /><rect x="199" y="237" width="20" height="15" fill="rgb(71,16,99)" /><rect x="219" y="237" width="20" height="15" fill="rgb(72,35,116)" /><rect x="239" y="237" width="20" height="15" fill="rgb(72,35,116)" /><rect x="259" y="237" width="20" height="15" fill="rgb(48,103,142)" /><rect x="279" y="237" width="20" height="15" fill="rgb(31,148,139)" /><rect x="299" y="237" width="20" height="15" fill="rgb(31,151,138)" /><rect x="319" y="237" width="20" height="15" fill="rgb(54,183,120)" /><rect x="339" y="237" width="20" height="15" fill="rgb(219,226,24)" /><rect x="359" y="237" width="20" height="15" fill="rgb(54,183,120)" /><rect x="379" y="237" width="20" height="15" fill="rgb(84,197,103)" /><rect x="399" y="237" width="20" height="15" fill="rgb(50,181,121)" /><rect x="419" y="237" width="20" height="15" fill="rgb(30,157,136)" /><rect x="439" y="237" width="20" height="15" fill="rgb(56,85,139)" /><rect x="459" y="237" width="20" height="15" fill="rgb(63,71,136)" /><rect x="479" y="237" width="19.999999999999943" height="15" fill="rgb(71,27,109)" /><rect x="498.99999999999994" y="237" width="20.000000000000057" height="15" fill="rgb(70,13,96)" /><rect x="519" y="237" width="20" height="15" fill="rgb(69,4,88)" /><rect x="539" y="237" width="20" height="15" fill="rgb(69,4,88)" /><rect x="179" y="222" width="20" height="15" fill="rgb(69,4,88)" /><rect x="199" y="222" width="20" height="15" fill="rgb(70,13,96)" /><rect x="219" y="222" width="20" height="15" fill="rgb(71,16,99)" /><rect x="239" y="222" width="20" height="15" fill="rgb(70,45,123)" /><rect x="259" y="222" width="20" height="15" fill="rgb(65,64,134)" /><rect x="279" y="222" width="20" height="15" fill="rgb(45,111,142)" /><rect x="299" y="222" width="20" height="15" fill="rgb(39,126,142)" /><rect x="319" y="222" width="20" height="15" fill="rgb(36,133,142)" /><rect x="339" y="222" width="20" height="15" fill="rgb(63,188,114)" /><rect x="359" y="222" width="20" height="15" fill="rgb(120,208,82)" /><rect x="379" y="222" width="20" height="15" fill="rgb(34,139,141)" /><rect x="399" y="222" width="20" height="15" fill="rgb(40,174,127)" /><rect x="419" y="222" width="20" height="15" fill="rgb(50,100,141)" /><rect x="439" y="222" width="20" height="15" fill="rgb(52,94,141)" /><rect x="459" y="222" width="20" height="15" fill="rgb(72,31,112)" /><rect x="479" y="222" width="19.999999999999943" height="15" fill="rgb(71,16,99)" /><rect x="498.99999999999994" y="222" width="20.000000000000057" height="15" fill="rgb(70,13,96)" /><rect x="519" y="222" width="20" height="15" fill="rgb(70,13,96)" /><rect x="539" y="222" width="20" height="15" fill="rgb(69,4,88)" /><rect x="179" y="207" width="20" height="15" fill="rgb(69,4,88)" /><rect x="199" y="207" width="20" height="15" fill="rgb(69,4,88)" /><rect x="219" y="207" width="20" height="15" fill="rgb(71,21,103)" /><rect x="239" y="207" width="20" height="15" fill="rgb(72,31,112)" /><rect x="259" y="207" width="20" height="15" fill="rgb(71,41,121)" /><rect x="279" y="207" width="20" height="15" fill="rgb(60,77,138)" /><rect x="299" y="207" width="20" height="15" fill="rgb(58,83,139)" /><rect x="319" y="207" width="20" height="15" fill="rgb(37,130,142)" /><rect x="339" y="207" width="20" height="15" fill="rgb(31,148,139)" /><rect x="359" y="207" width="20" height="15" fill="rgb(36,133,142)" /><rect x="379" y="207" width="20" height="15" fill="rgb(52,94,141)" /><rect x="399" y="207" width="20" height="15" fill="rgb(51,97,141)" /><rect x="419" y="207" width="20" height="15" fill="rgb(55,89,140)" /><rect x="439" y="207" width="20" height="15" fill="rgb(70,48,125)" /><rect x="459" y="207" width="20" height="15" fill="rgb(72,35,116)" /><rect x="479" y="207" width="19.999999999999943" height="15" fill="rgb(70,13,96)" /><rect x="498.99999999999994" y="207" width="20.000000000000057" height="15" fill="rgb(69,8,92)" /><rect x="539" y="207" width="20" height="15" fill="rgb(69,8,92)" /><rect x="219" y="192" width="20" height="15" fill="rgb(69,4,88)" /><rect x="239" y="192" width="20" height="15" fill="rgb(71,27,109)" /><rect x="259" y="192" width="20" height="15" fill="rgb(72,31,112)" /><rect x="279" y="192" width="20" height="15" fill="rgb(65,64,134)" /><rect x="299" y="192" width="20" height="15" fill="rgb(59,80,138)" /><rect x="319" y="192" width="20" height="15" fill="rgb(58,83,139)" /><rect x="339" y="192" width="20" height="15" fill="rgb(55,89,140)" /><rect x="359" y="192" width="20" height="15" fill="rgb(58,83,139)" /><rect x="379" y="192" width="20" height="15" fill="rgb(58,83,139)" /><rect x="399" y="192" width="20" height="15" fill="rgb(64,68,135)" /><rect x="419" y="192" width="20" height="15" fill="rgb(63,71,136)" /><rect x="439" y="192" width="20" height="15" fill="rgb(72,24,106)" /><rect x="459" y="192" width="20" height="15" fill="rgb(70,13,96)" /><rect x="479" y="192" width="19.999999999999943" height="15" fill="rgb(71,21,103)" /><rect x="498.99999999999994" y="192" width="20.000000000000057" height="15" fill="rgb(71,16,99)" /><rect x="199" y="177" width="20" height="15" fill="rgb(69,8,92)" /><rect x="219" y="177" width="20" height="15" fill="rgb(69,4,88)" /><rect x="239" y="177" width="20" height="15" fill="rgb(70,13,96)" /><rect x="259" y="177" width="20" height="15" fill="rgb(72,31,112)" /><rect x="279" y="177" width="20" height="15" fill="rgb(71,27,109)" /><rect x="299" y="177" width="20" height="15" fill="rgb(70,48,125)" /><rect x="319" y="177" width="20" height="15" fill="rgb(67,58,131)" /><rect x="339" y="177" width="20" height="15" fill="rgb(66,62,132)" /><rect x="359" y="177" width="20" height="15" fill="rgb(63,71,136)" /><rect x="379" y="177" width="20" height="15" fill="rgb(63,71,136)" /><rect x="399" y="177" width="20" height="15" fill="rgb(72,31,112)" /><rect x="419" y="177" width="20" height="15" fill="rgb(65,64,134)" /><rect x="439" y="177" width="20" height="15" fill="rgb(70,13,96)" /><rect x="459" y="177" width="20" height="15" fill="rgb(69,4,88)" /><rect x="498.99999999999994" y="177" width="20.000000000000057" height="15" fill="rgb(69,4,88)" /><rect x="219" y="162" width="20" height="15" fill="rgb(69,4,88)" /><rect x="239" y="162" width="20" height="15" fill="rgb(69,8,92)" /><rect x="259" y="162" width="20" height="15" fill="rgb(71,21,103)" /><rect x="279" y="162" width="20" height="15" fill="rgb(72,31,112)" /><rect x="299" y="162" width="20" height="15" fill="rgb(72,24,106)" /><rect x="319" y="162" width="20" height="15" fill="rgb(72,38,119)" /><rect x="339" y="162" width="20" height="15" fill="rgb(69,51,127)" /><rect x="359" y="162" width="20" height="15" fill="rgb(71,21,103)" /><rect x="379" y="162" width="20" height="15" fill="rgb(71,21,103)" /><rect x="399" y="162" width="20" height="15" fill="rgb(71,27,109)" /><rect x="419" y="162" width="20" height="15" fill="rgb(71,21,103)" /><rect x="439" y="162" width="20" height="15" fill="rgb(69,4,88)" /><rect x="559" y="162" width="20" height="15" fill="rgb(69,4,88)" /><rect x="239" y="147" width="20" height="15" fill="rgb(69,4,88)" /><rect x="259" y="147" width="20" height="15" fill="rgb(70,13,96)" /><rect x="279" y="147" width="20" height="15" fill="rgb(69,8,92)" /><rect x="299" y="147" width="20" height="15" fill="rgb(69,8,92)" /><rect x="319" y="147" width="20" height="15" fill="rgb(69,8,92)" /><rect x="339" y="147" width="20" height="15" fill="rgb(70,13,96)" /><rect x="359" y="147" width="20" height="15" fill="rgb(71,21,103)" /><rect x="379" y="147" width="20" height="15" fill="rgb(72,31,112)" /><rect x="399" y="147" width="20" height="15" fill="rgb(70,13,96)" /><rect x="419" y="147" width="20" height="15" fill="rgb(69,8,92)" /><rect x="439" y="147" width="20" height="15" fill="rgb(69,4,88)" /><rect x="459" y="147" width="20" height="15" fill="rgb(69,8,92)" /><rect x="479" y="147" width="19.999999999999943" height="15" fill="rgb(69,4,88)" /><rect x="239" y="132" width="20" height="15" fill="rgb(69,4,88)" /><rect x="299" y="132" width="20" height="15" fill="rgb(69,4,88)" /><rect x="319" y="132" width="20" height="15" fill="rgb(69,8,92)" /><rect x="339" y="132" width="20" height="15" fill="rgb(70,13,96)" /><rect x="359" y="132" width="20" height="15" fill="rgb(69,4,88)" /><rect x="399" y="132" width="20" height="15" fill="rgb(69,4,88)" /><rect x="419" y="132" width="20" height="15" fill="rgb(69,4,88)" /><rect x="439" y="132" width="20" height="15" fill="rgb(69,8,92)" /><rect x="459" y="132" width="20" height="15" fill="rgb(69,8,92)" /><rect x="299" y="117" width="20" height="15" fill="rgb(69,4,88)" /><rect x="359" y="117" width="20" height="15" fill="rgb(69,8,92)" /><rect x="379" y="117" width="20" height="15" fill="rgb(69,4,88)" /><rect x="399" y="117" width="20" height="15" fill="rgb(69,4,88)" /><rect x="319" y="102" width="20" height="15" fill="rgb(69,4,88)" /><rect x="419" y="102" width="20" height="15" fill="rgb(69,4,88)" /><rect x="688" y="87" width="20" height="7.7" fill="rgb(253,231,37)" /><rect x="688" y="94.2" width="20" height="7.7" fill="rgb(240,229,28)" /><rect x="688" y="101.4" width="20" height="7.7" fill="rgb(227,227,24)" /><rect x="688" y="108.6" width="20" height="7.7" fill="rgb(214,226,25)" /><rect x="688" y="115.8" width="20" height="7.7" fill="rgb(200,224,31)" /><rect x="688" y="123" width="20" height="7.7" fill="rgb(186,222,39)" /><rect x="688" y="130.2" width="20" height="7.7" fill="rgb(172,220,48)" /><rect x="688" y="137.4" width="20" height="7.7" fill="rgb(158,217,57)" /><rect x="688" y="144.6" width="20" height="7.7" fill="rgb(145,214,66)" /><rect x="688" y="151.8" width="20" height="7.7" fill="rgb(132,212,74)" /><rect x="688" y="159" width="20" height="7.7" fill="rgb(119,208,82)" /><rect x="688" y="166.2" width="20" height="7.7" fill="rgb(107,205,90)" /><rect x="688" y="173.4" width="20" height="7.7" fill="rgb(95,201,96)" /><rect x="688" y="180.60000000000002" width="20" height="7.7" fill="rgb(84,197,103)" /><rect x="688" y="187.8" width="20" height="7.7" fill="rgb(74,193,108)" /><rect x="688" y="195" width="20" height="7.7" fill="rgb(64,188,114)" /><rect x="688" y="202.2" width="20" height="7.7" fill="rgb(55,184,119)" /><rect x="688" y="209.4" width="20" height="7.7" fill="rgb(48,180,123)" /><rect x="688" y="216.6" width="20" height="7.7" fill="rgb(41,175,127)" /><rect x="688" y="223.8" width="20" height="7.7" fill="rgb(36,171,130)" /><rect x="688" y="231" width="20" height="7.7" fill="rgb(33,165,133)" /><rect x="688" y="238.20000000000002" width="20" height="7.7" fill="rgb(31,161,135)" /><rect x="688" y="245.4" width="20" height="7.7" fill="rgb(30,156,137)" /><rect x="688" y="252.6" width="20" height="7.7" fill="rgb(31,151,138)" /><rect x="688" y="259.8" width="20" height="7.7" fill="rgb(31,146,140)" /><rect x="688" y="267" width="20" height="7.7" fill="rgb(33,141,141)" /><rect x="688" y="274.20000000000005" width="20" height="7.7" fill="rgb(35,136,141)" /><rect x="688" y="281.4" width="20" height="7.7" fill="rgb(37,131,142)" /><rect x="688" y="288.6" width="20" height="7.7" fill="rgb(38,127,141)" /><rect x="688" y="295.8" width="20" height="7.7" fill="rgb(40,122,142)" /><rect x="688" y="303" width="20" height="7.7" fill="rgb(42,116,141)" /><rect x="688" y="310.20000000000005" width="20" height="7.7" fill="rgb(44,112,142)" /><rect x="688" y="317.4" width="20" height="7.7" fill="rgb(47,107,142)" /><rect x="688" y="324.6" width="20" height="7.7" fill="rgb(49,102,142)" /><rect x="688" y="331.8" width="20" height="7.7" fill="rgb(51,97,140)" /><rect x="688" y="339" width="20" height="7.7" fill="rgb(54,91,140)" /><rect x="688" y="346.2" width="20" height="7.7" fill="rgb(56,85,140)" /><rect x="688" y="353.40000000000003" width="20" height="7.7" fill="rgb(59,80,138)" /><rect x="688" y="360.6" width="20" height="7.7" fill="rgb(61,74,137)" /><rect x="688" y="367.8" width="20" height="7.7" fill="rgb(64,69,135)" /><rect x="688" y="375" width="20" height="7.7" fill="rgb(66,62,133)" /><rect x="688" y="382.2" width="20" height="7.7" fill="rgb(68,56,130)" /><rect x="688" y="389.40000000000003" width="20" height="7.7" fill="rgb(70,50,126)" /><rect x="688" y="396.6" width="20" height="7.7" fill="rgb(71,44,122)" /><rect x="688" y="403.8" width="20" height="7.7" fill="rgb(72,37,118)" /><rect x="688" y="411" width="20" height="7.7" fill="rgb(71,30,111)" /><rect x="688" y="418.2" width="20" height="7.7" fill="rgb(72,23,105)" /><rect x="688" y="425.40000000000003" width="20" height="7.7" fill="rgb(71,16,99)" /><rect x="688" y="432.6" width="20" height="7.7" fill="rgb(70,8,92)" /><rect x="688" y="439.8" width="20" height="7.7" fill="rgb(68,1,84)" /><rect x="688" y="87" width="20" height="360" fill="none" stroke="black" stroke-width="1" /><line x1="708" y1="447" x2="712" y2="447" stroke="black" stroke-width="1" /><text x="714" y="451" font-size="10" text-anchor="start">0.0</text><line x1="708" y1="370.40425531914894" x2="712" y2="370.40425531914894" stroke="black" stroke-width="1" /><text x="714" y="374.40425531914894" font-size="10" text-anchor="start">20.0</text><line x1="708" y1="293.8085106382979" x2="712" y2="293.8085106382979" stroke="black" stroke-width="1" /><text x="714" y="297.8085106382979" font-size="10" text-anchor="start">40.0</text><line x1="708" y1="217.2127659574468" x2="712" y2="217.2127659574468" stroke="black" stroke-width="1" /><text x="714" y="221.2127659574468" font-size="10" text-anchor="start">60.0</text><line x1="708" y1="140.61702127659572" x2="712" y2="140.61702127659572" stroke="black" stroke-width="1" /><text x="714" y="144.61702127659572" font-size="10" text-anchor="start">80.0</text><text x="698" y="81" font-size="10" text-anchor="middle">Count</text></svg>