<svg xmlns="http://www.w3.org/2000/svg" width="758" height="541" fill="black"><rect width="100%" height="100%" fill="white" /><line x1="59" y1="492" x2="659" y2="492" stroke="black" stroke-width="1" /><line x1="59" y1="42" x2="59" y2="492" stroke="black" stroke-width="1" /><line x1="109" y1="42" x2="109" y2="492" stroke="#ccc" stroke-width="1" /><line x1="159" y1="42" x2="159" y2="492" stroke="#ccc" stroke-width="1" /><line x1="209" y1="42" x2="209" y2="492" stroke="#ccc" stroke-width="1" /><line x1="259" y1="42" x2="259" y2="492" stroke="#ccc" stroke-width="1" /><line x1="309" y1="42" x2="309" y2="492" stroke="#ccc" stroke-width="1" /><line x1="359" y1="42" x2="359" y2="492" stroke="#ccc" stroke-width="1" /><line x1="409" y1="42" x2="409" y2="492" stroke="#ccc" stroke-width="1" /><line x1="459" y1="42" x2="459" y2="492" stroke="#ccc" stroke-width="1" /><line x1="509" y1="42" x2="509" y2="492" stroke="#ccc" stroke-width="1" /><line x1="559" y1="42" x2="559" y2="492" stroke="#ccc" stroke-width="1" /><line x1="609" y1="42" x2="609" y2="492" stroke="#ccc" stroke-width="1" /><line x1="659" y1="42" x2="659" y2="492" stroke="#ccc" stroke-width="1" /><line x1="59" y1="454.5" x2="659" y2="454.5" stroke="#ccc" stroke-width="1" /><line x1="59" y1="417" x2="659" y2="417" stroke="#ccc" stroke-width="1" /><line x1="59" y1="379.5" x2="659" y2="379.5" stroke="#ccc" stroke-width="1" /><line x1="59" y1="342" x2="659" y2="342" stroke="#ccc" stroke-width="1" /><line x1="59" y1="304.5" x2="659" y2="304.5" stroke="#ccc" stroke-width="1" /><line x1="59" y1="267" x2="659" y2="267" stroke="#ccc" stroke-width="1" /><line x1="59" y1="229.5" x2="659" y2="229.5" stroke="#ccc" stroke-width="1" /><line x1="59" y1="192" x2="659" y2="192" stroke="#ccc" stroke-width="1" /><line x1="59" y1="154.5" x2="659" y2="154.5" stroke="#ccc" stroke-width="1" /><line x1="59" y1="117" x2="659" y2="117" stroke="#ccc" stroke-width="1" /><line x1="59" y1="79.5" x2="659" y2="79.5" stroke="#ccc" stroke-width="1" /><line x1="59" y1="42" x2="659" y2="42" stroke="#ccc" stroke-width="1" /><line x1="59" y1="492" x2="59" y2="497" stroke="black" stroke-width="1" /><text x="59" y="507" font-size="10" text-anchor="middle">0</text><line x1="109" y1="492" x2="109" y2="497" stroke="black" stroke-width="1" /><text x="109" y="507" font-size="10" text-anchor="middle">2.5</text><line x1="159" y1="492" x2="159" y2="497" stroke="black" stroke-width="1" /><text x="159" y="507" font-size="10" text-anchor="middle">5</text><line x1="209" y1="492" x2="209" y2="497" stroke="black" stroke-width="1" /><text x="209" y="507" font-size="10" text-anchor="middle">7.5</text><line x1="259" y1="492" x2="259" y2="497" stroke="black" stroke-width="1" /><text x="259" y="507" font-size="10" text-anchor="middle">10</text><line x1="309" y1="492" x2="309" y2="497" stroke="black" stroke-width="1" /><text x="309" y="507" font-size="10" text-anchor="middle">12.5</text><line x1="359" y1="492" x2="359" y2="497" stroke="black" stroke-width="1" /><text x="359" y="507" font-size="10" text-anchor="middle">15</text><line x1="409" y1="492" x2="409" y2="497" stroke="black" stroke-width="1" /><text x="409" y="507" font-size="10" text-anchor="middle">17.5</text><line x1="459" y1="492" x2="459" y2="497" stroke="black" stroke-width="1" /><text x="459" y="507" font-size="10" text-anchor="middle">20</text><line x1="509" y1="492" x2="509" y2="497" stroke="black" stroke-width="1" /><text x="509" y="507" font-size="10" text-anchor="middle">22.5</text><line x1="559" y1="492" x2="559" y2="497" stroke="black" stroke-width="1" /><text x="559" y="507" font-size="10" text-anchor="middle">25</text><line x1="609" y1="492" x2="609" y2="497" stroke="black" stroke-width="1" /><text x="609" y="507" font-size="10" text-anchor="middle">27.5</text><line x1="659" y1="492" x2="659" y2="497" stroke="black" stroke-width="1" /><text x="659" y="507" font-size="10" text-anchor="middle">30</text><line x1="54" y1="492" x2="59" y2="492" stroke="black" stroke-width="1" /><text x="51" y="495.5" font-size="10" text-anchor="end">0</text><line x1="54" y1="454.5" x2="59" y2="454.5" stroke="black" stroke-width="1" /><text x="51" y="458" font-size="10" text-anchor="end">2.5</text><line x1="54" y1="417" x2="59" y2="417" stroke="black" stroke-width="1" /><text x="51" y="420.5" font-size="10" text-anchor="end">5</text><line x1="54" y1="379.5" x2="59" y2="379.5" stroke="black" stroke-width="1" /><text x="51" y="383" font-size="10" text-anchor="end">7.5</text><line x1="54" y1="342" x2="59" y2="342" stroke="black" stroke-width="1" /><text x="51" y="345.5" font-size="10" text-anchor="end">10</text><line x1="54" y1="304.5" x2="59" y2="304.5" stroke="black" stroke-width="1" /><text x="51" y="308" font-size="10" text-anchor="end">12.5</text><line x1="54" y1="267" x2="59" y2="267" stroke="black" stroke-width="1" /><text x="51" y="270.5" font-size="10" text-anchor="end">15</text><line x1="54" y1="229.5" x2="59" y2="229.5" stroke="black" stroke-width="1" /><text x="51" y="233" font-size="10" text-anchor="end">17.5</text><line x1="54" y1="192" x2="59" y2="192" stroke="black" stroke-width="1" /><text x="51" y="195.5" font-size="10" text-anchor="end">20</text><line x1="54" y1="154.5" x2="59" y2="154.5" stroke="black" stroke-width="1" /><text x="51" y="158" font-size="10" text-anchor="end">22.5</text><line x1="54" y1="117" x2="59" y2="117" stroke="black" stroke-width="1" /><text x="51" y="120.5" font-size="10" text-anchor="end">25</text><line x1="54" y1="79.5" x2="59" y2="79.5" stroke="black" stroke-width="1" /><text x="51" y="83" font-size="10" text-anchor="end">27.5</text><line x1="54" y1="42" x2="59" y2="42" stroke="black" stroke-width="1" /><text x="51" y="45.5" font-size="10" text-anchor="end">30</text><text x="379" y="534" font-size="14" text-anchor="middle">X</text><text x="14" y="270.5" font-size="14" text-anchor="middle" transform="rotate(-90,14,270.5)">Y</text><text x="379" y="21" font-size="16" text-anchor="middle">Bimodal — Inferno</text><rect x="279" y="477" width="20" height="15" fill="rgb(0,0,5)" /><rect x="119" y="447" width="20" height="15" fill="rgb(0,0,5)" /><rect x="159" y="447" width="20" height="15" fill="rgb(0,0,5)" /><rect x="239" y="447" width="20" height="15" fill="rgb(0,0,5)" /><rect x="259" y="447" width="20" height="15" fill="rgb(1,1,9)" /><rect x="159" y="432" width="20" height="15" fill="rgb(0,0,5)" /><rect x="179" y="432" width="20" height="15" fill="rgb(1,1,9)" /><rect x="199" y="432" width="20" height="15" fill="rgb(2,1,12)" /><rect x="219" y="432" width="20" height="15" fill="rgb(2,1,12)" /><rect x="239" y="432" width="20" height="15" fill="rgb(4,3,19)" /><rect x="259" y="432" width="20" height="15" fill="rgb(0,0,5)" /><rect x="299" y="432" width="20" height="15" fill="rgb(0,0,5)" /><rect x="339" y="432" width="20" height="15" fill="rgb(0,0,5)" /><rect x="139" y="417" width="20" height="15" fill="rgb(1,1,9)" /><rect x="159" y="417" width="20" height="15" fill="rgb(1,1,9)" /><rect x="179" y="417" width="20" height="15" fill="rgb(0,0,5)" /><rect x="199" y="417" width="20" height="15" fill="rgb(15,9,44)" /><rect x="219" y="417" width="20" height="15" fill="rgb(7,4,27)" /><rect x="239" y="417" width="20" height="15" fill="rgb(11,7,36)" /><rect x="259" y="417" width="20" height="15" fill="rgb(22,11,57)" /><rect x="279" y="417" width="20" height="15" fill="rgb(4,3,19)" /><rect x="319" y="417" width="20" height="15" fill="rgb(0,0,5)" /><rect x="119" y="402" width="20" height="15" fill="rgb(0,0,5)" /><rect x="139" y="402" width="20" height="15" fill="rgb(1,1,9)" /><rect x="159" y="402" width="20" height="15" fill="rgb(4,3,19)" /><rect x="179" y="402" width="20" height="15" fill="rgb(27,12,66)" /><rect x="199" y="402" width="20" height="15" fill="rgb(27,12,66)" /><rect x="219" y="402" width="20" height="15" fill="rgb(61,9,101)" /><rect x="239" y="402" width="20" height="15" fill="rgb(57,9,99)" /><rect x="259" y="402" width="20" height="15" fill="rgb(20,10,52)" /><rect x="279" y="402" width="20" height="15" fill="rgb(7,4,27)" /><rect x="299" y="402" width="20" height="15" fill="rgb(5,4,24)" /><rect x="339" y="402" width="20" height="15" fill="rgb(0,0,5)" /><rect x="359" y="402" width="20" height="15" fill="rgb(0,0,5)" /><rect x="119" y="387" width="20" height="15" fill="rgb(1,1,9)" /><rect x="139" y="387" width="20" height="15" fill="rgb(5,4,24)" /><rect x="159" y="387" width="20" height="15" fill="rgb(11,7,36)" /><rect x="179" y="387" width="20" height="15" fill="rgb(61,9,101)" /><rect x="199" y="387" width="20" height="15" fill="rgb(92,18,109)" /><rect x="219" y="387" width="20" height="15" fill="rgb(96,19,110)" /><rect x="239" y="387" width="20" height="15" fill="rgb(107,23,110)" /><rect x="259" y="387" width="20" height="15" fill="rgb(113,25,110)" /><rect x="279" y="387" width="20" height="15" fill="rgb(55,9,97)" /><rect x="299" y="387" width="20" height="15" fill="rgb(24,11,61)" /><rect x="319" y="387" width="20" height="15" fill="rgb(4,3,19)" /><rect x="339" y="387" width="20" height="15" fill="rgb(0,0,5)" /><rect x="119" y="372" width="20" height="15" fill="rgb(0,0,5)" /><rect x="139" y="372" width="20" height="15" fill="rgb(9,6,31)" /><rect x="159" y="372" width="20" height="15" fill="rgb(51,9,94)" /><rect x="179" y="372" width="20" height="15" fill="rgb(104,22,110)" /><rect x="199" y="372" width="20" height="15" fill="rgb(163,43,96)" /><rect x="219" y="372" width="20" height="15" fill="rgb(205,66,71)" /><rect x="239" y="372" width="20" height="15" fill="rgb(214,75,63)" /><rect x="259" y="372" width="20" height="15" fill="rgb(158,41,99)" /><rect x="279" y="372" width="20" height="15" fill="rgb(101,21,110)" /><rect x="299" y="372" width="20" height="15" fill="rgb(48,10,92)" /><rect x="319" y="372" width="20" height="15" fill="rgb(12,8,40)" /><rect x="339" y="372" width="20" height="15" fill="rgb(1,1,9)" /><rect x="359" y="372" width="20" height="15" fill="rgb(0,0,5)" /><rect x="119" y="357" width="20" height="15" fill="rgb(4,3,19)" /><rect x="139" y="357" width="20" height="15" fill="rgb(12,8,40)" /><rect x="159" y="357" width="20" height="15" fill="rgb(61,9,101)" /><rect x="179" y="357" width="20" height="15" fill="rgb(113,25,110)" /><rect x="199" y="357" width="20" height="15" fill="rgb(230,93,46)" /><rect x="219" y="357" width="20" height="15" fill="rgb(252,176,20)" /><rect x="239" y="357" width="20" height="15" fill="rgb(248,204,54)" /><rect x="259" y="357" width="20" height="15" fill="rgb(238,106,35)" /><rect x="279" y="357" width="20" height="15" fill="rgb(113,25,110)" /><rect x="299" y="357" width="20" height="15" fill="rgb(57,9,99)" /><rect x="319" y="357" width="20" height="15" fill="rgb(24,11,61)" /><rect x="339" y="357" width="20" height="15" fill="rgb(0,0,5)" /><rect x="359" y="357" width="20" height="15" fill="rgb(1,1,9)" /><rect x="99" y="342" width="20" height="15" fill="rgb(0,0,5)" /><rect x="119" y="342" width="20" height="15" fill="rgb(0,0,5)" /><rect x="139" y="342" width="20" height="15" fill="rgb(7,4,27)" /><rect x="159" y="342" width="20" height="15" fill="rgb(51,9,94)" /><rect x="179" y="342" width="20" height="15" fill="rgb(90,16,109)" /><rect x="199" y="342" width="20" height="15" fill="rgb(214,75,63)" /><rect x="219" y="342" width="20" height="15" fill="rgb(252,255,164)" /><rect x="239" y="342" width="20" height="15" fill="rgb(242,118,26)" /><rect x="259" y="342" width="20" height="15" fill="rgb(193,58,80)" /><rect x="279" y="342" width="20" height="15" fill="rgb(158,41,99)" /><rect x="299" y="342" width="20" height="15" fill="rgb(55,9,97)" /><rect x="319" y="342" width="20" height="15" fill="rgb(15,9,44)" /><rect x="339" y="342" width="20" height="15" fill="rgb(3,2,16)" /><rect x="359" y="342" width="20" height="15" fill="rgb(0,0,5)" /><rect x="79" y="327" width="20" height="15" fill="rgb(0,0,5)" /><rect x="119" y="327" width="20" height="15" fill="rgb(3,2,16)" /><rect x="139" y="327" width="20" height="15" fill="rgb(12,8,40)" /><rect x="159" y="327" width="20" height="15" fill="rgb(30,12,69)" /><rect x="179" y="327" width="20" height="15" fill="rgb(96,19,110)" /><rect x="199" y="327" width="20" height="15" fill="rgb(163,43,96)" /><rect x="219" y="327" width="20" height="15" fill="rgb(207,68,69)" /><rect x="239" y="327" width="20" height="15" fill="rgb(224,85,53)" /><rect x="259" y="327" width="20" height="15" fill="rgb(216,76,61)" /><rect x="279" y="327" width="20" height="15" fill="rgb(127,30,108)" /><rect x="299" y="327" width="20" height="15" fill="rgb(30,12,69)" /><rect x="319" y="327" width="20" height="15" fill="rgb(11,7,36)" /><rect x="339" y="327" width="20" height="15" fill="rgb(1,1,9)" /><rect x="139" y="312" width="20" height="15" fill="rgb(0,0,5)" /><rect x="159" y="312" width="20" height="15" fill="rgb(12,8,40)" /><rect x="179" y="312" width="20" height="15" fill="rgb(55,9,97)" /><rect x="199" y="312" width="20" height="15" fill="rgb(61,9,101)" /><rect x="219" y="312" width="20" height="15" fill="rgb(129,31,107)" /><rect x="239" y="312" width="20" height="15" fill="rgb(135,33,106)" /><rect x="259" y="312" width="20" height="15" fill="rgb(118,27,109)" /><rect x="279" y="312" width="20" height="15" fill="rgb(41,11,85)" /><rect x="299" y="312" width="20" height="15" fill="rgb(22,11,57)" /><rect x="319" y="312" width="20" height="15" fill="rgb(2,1,12)" /><rect x="119" y="297" width="20" height="15" fill="rgb(1,1,9)" /><rect x="139" y="297" width="20" height="15" fill="rgb(1,1,9)" /><rect x="159" y="297" width="20" height="15" fill="rgb(5,4,24)" /><rect x="179" y="297" width="20" height="15" fill="rgb(17,9,48)" /><rect x="199" y="297" width="20" height="15" fill="rgb(41,11,85)" /><rect x="219" y="297" width="20" height="15" fill="rgb(81,14,108)" /><rect x="239" y="297" width="20" height="15" fill="rgb(78,13,107)" /><rect x="259" y="297" width="20" height="15" fill="rgb(30,12,69)" /><rect x="279" y="297" width="20" height="15" fill="rgb(27,12,66)" /><rect x="299" y="297" width="20" height="15" fill="rgb(7,4,27)" /><rect x="319" y="297" width="20" height="15" fill="rgb(0,0,5)" /><rect x="539" y="297" width="20" height="15" fill="rgb(0,0,5)" /><rect x="159" y="282" width="20" height="15" fill="rgb(1,1,9)" /><rect x="179" y="282" width="20" height="15" fill="rgb(3,2,16)" /><rect x="199" y="282" width="20" height="15" fill="rgb(1,1,9)" /><rect x="219" y="282" width="20" height="15" fill="rgb(17,9,48)" /><rect x="239" y="282" width="20" height="15" fill="rgb(12,8,40)" /><rect x="259" y="282" width="20" height="15" fill="rgb(4,3,19)" /><rect x="279" y="282" width="20" height="15" fill="rgb(11,7,36)" /><rect x="299" y="282" width="20" height="15" fill="rgb(1,1,9)" /><rect x="319" y="282" width="20" height="15" fill="rgb(0,0,5)" /><rect x="498.99999999999994" y="282" width="20.000000000000057" height="15" fill="rgb(0,0,5)" /><rect x="119" y="267" width="20" height="15" fill="rgb(0,0,5)" /><rect x="139" y="267" width="20" height="15" fill="rgb(0,0,5)" /><rect x="159" y="267" width="20" height="15" fill="rgb(0,0,5)" /><rect x="179" y="267" width="20" height="15" fill="rgb(0,0,5)" /><rect x="199" y="267" width="20" height="15" fill="rgb(1,1,9)" /><rect x="219" y="267" width="20" height="15" fill="rgb(1,1,9)" /><rect x="239" y="267" width="20" height="15" fill="rgb(3,2,16)" /><rect x="259" y="267" width="20" height="15" fill="rgb(0,0,5)" /><rect x="279" y="267" width="20" height="15" fill="rgb(0,0,5)" /><rect x="319" y="267" width="20" height="15" fill="rgb(0,0,5)" /><rect x="239" y="252" width="20" height="15" fill="rgb(1,1,9)" /><rect x="359" y="252" width="20" height="15" fill="rgb(0,0,5)" /><rect x="439" y="252" width="20" height="15" fill="rgb(3,2,16)" /><rect x="459" y="252" width="20" height="15" fill="rgb(4,3,19)" /><rect x="479" y="252" width="19.999999999999943" height="15" fill="rgb(3,2,16)" /><rect x="498.99999999999994" y="252" width="20.000000000000057" height="15" fill="rgb(2,1,12)" /><rect x="519" y="252" width="20" height="15" fill="rgb(2,1,12)" /><rect x="399" y="237" width="20" height="15" fill="rgb(1,1,9)" /><rect x="419" y="237" width="20" height="15" fill="rgb(2,1,12)" /><rect x="439" y="237" width="20" height="15" fill="rgb(0,0,5)" /><rect x="459" y="237" width="20" height="15" fill="rgb(15,9,44)" /><rect x="479" y="237" width="19.999999999999943" height="15" fill="rgb(9,6,31)" /><rect x="498.99999999999994" y="237" width="20.000000000000057" height="15" fill="rgb(2,1,12)" /><rect x="519" y="237" width="20" height="15" fill="rgb(5,4,24)" /><rect x="539" y="237" width="20" height="15" fill="rgb(4,3,19)" /><rect x="359" y="222" width="20" height="15" fill="rgb(0,0,5)" /><rect x="379" y="222" width="20" height="15" fill="rgb(2,1,12)" /><rect x="399" y="222" width="20" height="15" fill="rgb(7,4,27)" /><rect x="419" y="222" width="20" height="15" fill="rgb(9,6,31)" /><rect x="439" y="222" width="20" height="15" fill="rgb(39,11,82)" /><rect x="459" y="222" width="20" height="15" fill="rgb(51,9,94)" /><rect x="479" y="222" width="19.999999999999943" height="15" fill="rgb(35,12,78)" /><rect x="498.99999999999994" y="222" width="20.000000000000057" height="15" fill="rgb(24,11,61)" /><rect x="519" y="222" width="20" height="15" fill="rgb(17,9,48)" /><rect x="539" y="222" width="20" height="15" fill="rgb(7,4,27)" /><rect x="559" y="222" width="20" height="15" fill="rgb(0,0,5)" /><rect x="359" y="207" width="20" height="15" fill="rgb(0,0,5)" /><rect x="379" y="207" width="20" height="15" fill="rgb(4,3,19)" /><rect x="399" y="207" width="20" height="15" fill="rgb(24,11,61)" /><rect x="419" y="207" width="20" height="15" fill="rgb(41,11,85)" /><rect x="439" y="207" width="20" height="15" fill="rgb(90,16,109)" /><rect x="459" y="207" width="20" height="15" fill="rgb(109,24,110)" /><rect x="479" y="207" width="19.999999999999943" height="15" fill="rgb(118,27,109)" /><rect x="498.99999999999994" y="207" width="20.000000000000057" height="15" fill="rgb(98,20,110)" /><rect x="519" y="207" width="20" height="15" fill="rgb(73,11,106)" /><rect x="539" y="207" width="20" height="15" fill="rgb(22,11,57)" /><rect x="559" y="207" width="20" height="15" fill="rgb(4,3,19)" /><rect x="579" y="207" width="20" height="15" fill="rgb(0,0,5)" /><rect x="599" y="207" width="20" height="15" fill="rgb(0,0,5)" /><rect x="359" y="192" width="20" height="15" fill="rgb(3,2,16)" /><rect x="379" y="192" width="20" height="15" fill="rgb(5,4,24)" /><rect x="399" y="192" width="20" height="15" fill="rgb(24,11,61)" /><rect x="419" y="192" width="20" height="15" fill="rgb(104,22,110)" /><rect x="439" y="192" width="20" height="15" fill="rgb(172,47,93)" /><rect x="459" y="192" width="20" height="15" fill="rgb(248,139,10)" /><rect x="479" y="192" width="19.999999999999943" height="15" fill="rgb(221,81,57)" /><rect x="498.99999999999994" y="192" width="20.000000000000057" height="15" fill="rgb(158,41,99)" /><rect x="519" y="192" width="20" height="15" fill="rgb(124,29,108)" /><rect x="539" y="192" width="20" height="15" fill="rgb(33,12,74)" /><rect x="559" y="192" width="20" height="15" fill="rgb(3,2,16)" /><rect x="579" y="192" width="20" height="15" fill="rgb(0,0,5)" /><rect x="599" y="192" width="20" height="15" fill="rgb(0,0,5)" /><rect x="339" y="177" width="20" height="15" fill="rgb(1,1,9)" /><rect x="359" y="177" width="20" height="15" fill="rgb(4,3,19)" /><rect x="379" y="177" width="20" height="15" fill="rgb(3,2,16)" /><rect x="399" y="177" width="20" height="15" fill="rgb(55,9,97)" /><rect x="419" y="177" width="20" height="15" fill="rgb(152,39,101)" /><rect x="439" y="177" width="20" height="15" fill="rgb(212,72,65)" /><rect x="459" y="177" width="20" height="15" fill="rgb(244,218,75)" /><rect x="479" y="177" width="19.999999999999943" height="15" fill="rgb(251,183,28)" /><rect x="498.99999999999994" y="177" width="20.000000000000057" height="15" fill="rgb(200,63,74)" /><rect x="519" y="177" width="20" height="15" fill="rgb(132,32,107)" /><rect x="539" y="177" width="20" height="15" fill="rgb(70,10,105)" /><rect x="559" y="177" width="20" height="15" fill="rgb(17,9,48)" /><rect x="579" y="177" width="20" height="15" fill="rgb(1,1,9)" /><rect x="619" y="177" width="20" height="15" fill="rgb(0,0,5)" /><rect x="339" y="162" width="20" height="15" fill="rgb(0,0,5)" /><rect x="359" y="162" width="20" height="15" fill="rgb(2,1,12)" /><rect x="379" y="162" width="20" height="15" fill="rgb(7,4,27)" /><rect x="399" y="162" width="20" height="15" fill="rgb(41,11,85)" /><rect x="419" y="162" width="20" height="15" fill="rgb(118,27,109)" /><rect x="439" y="162" width="20" height="15" fill="rgb(240,112,31)" /><rect x="459" y="162" width="20" height="15" fill="rgb(236,103,37)" /><rect x="479" y="162" width="19.999999999999943" height="15" fill="rgb(247,133,14)" /><rect x="498.99999999999994" y="162" width="20.000000000000057" height="15" fill="rgb(246,127,19)" /><rect x="519" y="162" width="20" height="15" fill="rgb(138,34,105)" /><rect x="539" y="162" width="20" height="15" fill="rgb(63,9,102)" /><rect x="559" y="162" width="20" height="15" fill="rgb(9,6,31)" /><rect x="579" y="162" width="20" height="15" fill="rgb(7,4,27)" /><rect x="599" y="162" width="20" height="15" fill="rgb(1,1,9)" /><rect x="359" y="147" width="20" height="15" fill="rgb(4,3,19)" /><rect x="379" y="147" width="20" height="15" fill="rgb(11,7,36)" /><rect x="399" y="147" width="20" height="15" fill="rgb(57,9,99)" /><rect x="419" y="147" width="20" height="15" fill="rgb(109,24,110)" /><rect x="439" y="147" width="20" height="15" fill="rgb(129,31,107)" /><rect x="459" y="147" width="20" height="15" fill="rgb(203,65,72)" /><rect x="479" y="147" width="19.999999999999943" height="15" fill="rgb(245,124,21)" /><rect x="498.99999999999994" y="147" width="20.000000000000057" height="15" fill="rgb(177,49,90)" /><rect x="519" y="147" width="20" height="15" fill="rgb(101,21,110)" /><rect x="539" y="147" width="20" height="15" fill="rgb(27,12,66)" /><rect x="559" y="147" width="20" height="15" fill="rgb(12,8,40)" /><rect x="579" y="147" width="20" height="15" fill="rgb(2,1,12)" /><rect x="379" y="132" width="20" height="15" fill="rgb(4,3,19)" /><rect x="399" y="132" width="20" height="15" fill="rgb(15,9,44)" /><rect x="419" y="132" width="20" height="15" fill="rgb(57,9,99)" /><rect x="439" y="132" width="20" height="15" fill="rgb(92,18,109)" /><rect x="459" y="132" width="20" height="15" fill="rgb(149,38,102)" /><rect x="479" y="132" width="19.999999999999943" height="15" fill="rgb(158,41,99)" /><rect x="498.99999999999994" y="132" width="20.000000000000057" height="15" fill="rgb(101,21,110)" /><rect x="519" y="132" width="20" height="15" fill="rgb(27,12,66)" /><rect x="539" y="132" width="20" height="15" fill="rgb(35,12,78)" /><rect x="559" y="132" width="20" height="15" fill="rgb(9,6,31)" /><rect x="579" y="132" width="20" height="15" fill="rgb(0,0,5)" /><rect x="599" y="132" width="20" height="15" fill="rgb(0,0,5)" /><rect x="379" y="117" width="20" height="15" fill="rgb(1,1,9)" /><rect x="399" y="117" width="20" height="15" fill="rgb(4,3,19)" /><rect x="419" y="117" width="20" height="15" fill="rgb(27,12,66)" /><rect x="439" y="117" width="20" height="15" fill="rgb(70,10,105)" /><rect x="459" y="117" width="20" height="15" fill="rgb(41,11,85)" /><rect x="479" y="117" width="19.999999999999943" height="15" fill="rgb(20,10,52)" /><rect x="498.99999999999994" y="117" width="20.000000000000057" height="15" fill="rgb(33,12,74)" /><rect x="519" y="117" width="20" height="15" fill="rgb(20,10,52)" /><rect x="539" y="117" width="20" height="15" fill="rgb(4,3,19)" /><rect x="579" y="117" width="20" height="15" fill="rgb(2,1,12)" /><rect x="619" y="117" width="20" height="15" fill="rgb(0,0,5)" /><rect x="399" y="102" width="20" height="15" fill="rgb(1,1,9)" /><rect x="419" y="102" width="20" height="15" fill="rgb(5,4,24)" /><rect x="439" y="102" width="20" height="15" fill="rgb(5,4,24)" /><rect x="459" y="102" width="20" height="15" fill="rgb(12,8,40)" /><rect x="479" y="102" width="19.999999999999943" height="15" fill="rgb(9,6,31)" /><rect x="498.99999999999994" y="102" width="20.000000000000057" height="15" fill="rgb(2,1,12)" /><rect x="519" y="102" width="20" height="15" fill="rgb(1,1,9)" /><rect x="539" y="102" width="20" height="15" fill="rgb(3,2,16)" /><rect x="559" y="102" width="20" height="15" fill="rgb(0,0,5)" /><rect x="439" y="87" width="20" height="15" fill="rgb(0,0,5)" /><rect x="459" y="87" width="20" height="15" fill="rgb(2,1,12)" /><rect x="479" y="87" width="19.999999999999943" height="15" fill="rgb(0,0,5)" /><rect x="498.99999999999994" y="87" width="20.000000000000057" height="15" fill="rgb(3,2,16)" /><rect x="419" y="72" width="20" height="15" fill="rgb(0,0,5)" /><rect x="479" y="72" width="19.999999999999943" height="15" fill="rgb(0,0,5)" /><rect x="519" y="72" width="20" height="15" fill="rgb(0,0,5)" /><rect x="439" y="57" width="20" height="15" fill="rgb(0,0,5)" /><rect x="498.99999999999994" y="57" width="20.000000000000057" height="15" fill="rgb(0,0,5)" /><rect x="688" y="87" width="20" height="7.7" fill="rgb(252,255,164)" /><rect x="688" y="94.2" width="20" height="7.7" fill="rgb(244,248,145)" /><rect x="688" y="101.4" width="20" height="7.7" fill="rgb(241,241,123)" /><rect x="688" y="108.6" width="20" height="7.7" fill="rgb(241,232,102)" /><rect x="688" y="115.8" width="20" height="7.7" fill="rgb(243,223,83)" /><rect x="688" y="123" width="20" height="7.7" fill="rgb(246,212,66)" /><rect x="688" y="130.2" width="20" height="7.7" fill="rgb(248,202,52)" /><rect x="688" y="137.4" width="20" height="7.7" fill="rgb(250,193,39)" /><rect x="688" y="144.6" width="20" height="7.7" fill="rgb(251,182,27)" /><rect x="688" y="151.8" width="20" height="7.7" fill="rgb(252,172,17)" /><rect x="688" y="159" width="20" height="7.7" fill="rgb(252,162,8)" /><rect x="688" y="166.2" width="20" height="7.7" fill="rgb(251,152,6)" /><rect x="688" y="173.4" width="20" height="7.7" fill="rgb(249,143,8)" /><rect x="688" y="180.60000000000002" width="20" height="7.7" fill="rgb(247,133,14)" /><rect x="688" y="187.8" width="20" height="7.7" fill="rgb(245,125,20)" /><rect x="688" y="195" width="20" height="7.7" fill="rgb(241,116,28)" /><rect x="688" y="202.2" width="20" height="7.7" fill="rgb(238,107,35)" /><rect x="688" y="209.4" width="20" height="7.7" fill="rgb(234,99,41)" /><rect x="688" y="216.6" width="20" height="7.7" fill="rgb(229,92,47)" /><rect x="688" y="223.8" width="20" height="7.7" fill="rgb(224,85,53)" /><rect x="688" y="231" width="20" height="7.7" fill="rgb(217,78,60)" /><rect x="688" y="238.20000000000002" width="20" height="7.7" fill="rgb(211,71,66)" /><rect x="688" y="245.4" width="20" height="7.7" fill="rgb(205,66,71)" /><rect x="688" y="252.6" width="20" height="7.7" fill="rgb(198,61,76)" /><rect x="688" y="259.8" width="20" height="7.7" fill="rgb(190,57,81)" /><rect x="688" y="267" width="20" height="7.7" fill="rgb(183,52,87)" /><rect x="688" y="274.20000000000005" width="20" height="7.7" fill="rgb(175,48,91)" /><rect x="688" y="281.4" width="20" height="7.7" fill="rgb(166,45,95)" /><rect x="688" y="288.6" width="20" height="7.7" fill="rgb(159,41,99)" /><rect x="688" y="295.8" width="20" height="7.7" fill="rgb(150,38,102)" /><rect x="688" y="303" width="20" height="7.7" fill="rgb(142,35,104)" /><rect x="688" y="310.20000000000005" width="20" height="7.7" fill="rgb(134,33,106)" /><rect x="688" y="317.4" width="20" height="7.7" fill="rgb(125,29,108)" /><rect x="688" y="324.6" width="20" height="7.7" fill="rgb(117,27,109)" /><rect x="688" y="331.8" width="20" height="7.7" fill="rgb(109,24,110)" /><rect x="688" y="339" width="20" height="7.7" fill="rgb(100,21,110)" /><rect x="688" y="346.2" width="20" height="7.7" fill="rgb(92,18,109)" /><rect x="688" y="353.40000000000003" width="20" height="7.7" fill="rgb(84,14,109)" /><rect x="688" y="360.6" width="20" height="7.7" fill="rgb(76,12,107)" /><rect x="688" y="367.8" width="20" height="7.7" fill="rgb(67,10,104)" /><rect x="688" y="375" width="20" height="7.7" fill="rgb(58,9,99)" /><rect x="688" y="382.2" width="20" height="7.7" fill="rgb(49,10,93)" /><rect x="688" y="389.40000000000003" width="20" height="7.7" fill="rgb(40,11,83)" /><rect x="688" y="396.6" width="20" height="7.7" fill="rgb(31,12,72)" /><rect x="688" y="403.8" width="20" height="7.7" fill="rgb(23,11,59)" /><rect x="688" y="411" width="20" height="7.7" fill="rgb(16,9,47)" /><rect x="688" y="418.2" width="20" height="7.7" fill="rgb(10,7,35)" /><rect x="688" y="425.40000000000003" width="20" height="7.7" fill="rgb(5,3,23)" /><rect x="688" y="432.6" width="20" height="7.7" fill="rgb(2,1,12)" /><rect x="688" y="439.8" width="20" height="7.7" fill="rgb(0,0,4)" /><rect x="688" y="87" width="20" height="360" fill="none" stroke="black" stroke-width="1" /><line x1="708" y1="447" x2="712" y2="447" stroke="black" stroke-width="1" /><text x="714" y="451" font-size="10" text-anchor="start">0.0</text><line x1="708" y1="384.06293706293707" x2="712" y2="384.06293706293707" stroke="black" stroke-width="1" /><text x="714" y="388.06293706293707" font-size="10" text-anchor="start">25.0</text><line x1="708" y1="321.12587412587413" x2="712" y2="321.12587412587413" stroke="black" stroke-width="1" /><text x="714" y="325.12587412587413" font-size="10" text-anchor="start">50.0</text><line x1="708" y1="258.1888111888112" x2="712" y2="258.1888111888112" stroke="black" stroke-width="1" /><text x="714" y="262.1888111888112" font-size="10" text-anchor="start">75.0</text><line x1="708" y1="195.25174825174827" x2="712" y2="195.25174825174827" stroke="black" stroke-width="1" /><text x="714" y="199.25174825174827" font-size="10" text-anchor="start">100.0</text><line x1="708" y1="132.31468531468528" x2="712" y2="132.31468531468528" stroke="black" stroke-width="1" /><text x="714" y="136.31468531468528" font-size="10" text-anchor="start">125.0</text><text x="698" y="81" font-size="10" text-anchor="middle">Count</text></svg>