<svg xmlns="http://www.w3.org/2000/svg" width="758" height="541" fill="black"><rect width="100%" height="100%" fill="white" /><line x1="59" y1="492" x2="659" y2="492" stroke="black" stroke-width="1" /><line x1="59" y1="42" x2="59" y2="492" stroke="black" stroke-width="1" /><line x1="109" y1="42" x2="109" y2="492" stroke="#ccc" stroke-width="1" /><line x1="159" y1="42" x2="159" y2="492" stroke="#ccc" stroke-width="1" /><line x1="209" y1="42" x2="209" y2="492" stroke="#ccc" stroke-width="1" /><line x1="259" y1="42" x2="259" y2="492" stroke="#ccc" stroke-width="1" /><line x1="309" y1="42" x2="309" y2="492" stroke="#ccc" stroke-width="1" /><line x1="359" y1="42" x2="359" y2="492" stroke="#ccc" stroke-width="1" /><line x1="409" y1="42" x2="409" y2="492" stroke="#ccc" stroke-width="1" /><line x1="459" y1="42" x2="459" y2="492" stroke="#ccc" stroke-width="1" /><line x1="509" y1="42" x2="509" y2="492" stroke="#ccc" stroke-width="1" /><line x1="559" y1="42" x2="559" y2="492" stroke="#ccc" stroke-width="1" /><line x1="609" y1="42" x2="609" y2="492" stroke="#ccc" stroke-width="1" /><line x1="659" y1="42" x2="659" y2="492" stroke="#ccc" stroke-width="1" /><line x1="59" y1="454.5" x2="659" y2="454.5" stroke="#ccc" stroke-width="1" /><line x1="59" y1="417" x2="659" y2="417" stroke="#ccc" stroke-width="1" /><line x1="59" y1="379.5" x2="659" y2="379.5" stroke="#ccc" stroke-width="1" /><line x1="59" y1="342" x2="659" y2="342" stroke="#ccc" stroke-width="1" /><line x1="59" y1="304.5" x2="659" y2="304.5" stroke="#ccc" stroke-width="1" /><line x1="59" y1="267" x2="659" y2="267" stroke="#ccc" stroke-width="1" /><line x1="59" y1="229.5" x2="659" y2="229.5" stroke="#ccc" stroke-width="1" /><line x1="59" y1="192" x2="659" y2="192" stroke="#ccc" stroke-width="1" /><line x1="59" y1="154.5" x2="659" y2="154.5" stroke="#ccc" stroke-width="1" /><line x1="59" y1="117" x2="659" y2="117" stroke="#ccc" stroke-width="1" /><line x1="59" y1="79.5" x2="659" y2="79.5" stroke="#ccc" stroke-width="1" /><line x1="59" y1="42" x2="659" y2="42" stroke="#ccc" stroke-width="1" /><line x1="59" y1="492" x2="59" y2="497" stroke="black" stroke-width="1" /><text x="59" y="507" font-size="10" text-anchor="middle">0</text><line x1="109" y1="492" x2="109" y2="497" stroke="black" stroke-width="1" /><text x="109" y="507" font-size="10" text-anchor="middle">2.5</text><line x1="159" y1="492" x2="159" y2="497" stroke="black" stroke-width="1" /><text x="159" y="507" font-size="10" text-anchor="middle">5</text><line x1="209" y1="492" x2="209" y2="497" stroke="black" stroke-width="1" /><text x="209" y="507" font-size="10" text-anchor="middle">7.5</text><line x1="259" y1="492" x2="259" y2="497" stroke="black" stroke-width="1" /><text x="259" y="507" font-size="10" text-anchor="middle">10</text><line x1="309" y1="492" x2="309" y2="497" stroke="black" stroke-width="1" /><text x="309" y="507" font-size="10" text-anchor="middle">12.5</text><line x1="359" y1="492" x2="359" y2="497" stroke="black" stroke-width="1" /><text x="359" y="507" font-size="10" text-anchor="middle">15</text><line x1="409" y1="492" x2="409" y2="497" stroke="black" stroke-width="1" /><text x="409" y="507" font-size="10" text-anchor="middle">17.5</text><line x1="459" y1="492" x2="459" y2="497" stroke="black" stroke-width="1" /><text x="459" y="507" font-size="10" text-anchor="middle">20</text><line x1="509" y1="492" x2="509" y2="497" stroke="black" stroke-width="1" /><text x="509" y="507" font-size="10" text-anchor="middle">22.5</text><line x1="559" y1="492" x2="559" y2="497" stroke="black" stroke-width="1" /><text x="559" y="507" font-size="10" text-anchor="middle">25</text><line x1="609" y1="492" x2="609" y2="497" stroke="black" stroke-width="1" /><text x="609" y="507" font-size="10" text-anchor="middle">27.5</text><line x1="659" y1="492" x2="659" y2="497" stroke="black" stroke-width="1" /><text x="659" y="507" font-size="10" text-anchor="middle">30</text><line x1="54" y1="492" x2="59" y2="492" stroke="black" stroke-width="1" /><text x="51" y="495.5" font-size="10" text-anchor="end">0</text><line x1="54" y1="454.5" x2="59" y2="454.5" stroke="black" stroke-width="1" /><text x="51" y="458" font-size="10" text-anchor="end">2.5</text><line x1="54" y1="417" x2="59" y2="417" stroke="black" stroke-width="1" /><text x="51" y="420.5" font-size="10" text-anchor="end">5</text><line x1="54" y1="379.5" x2="59" y2="379.5" stroke="black" stroke-width="1" /><text x="51" y="383" font-size="10" text-anchor="end">7.5</text><line x1="54" y1="342" x2="59" y2="342" stroke="black" stroke-width="1" /><text x="51" y="345.5" font-size="10" text-anchor="end">10</text><line x1="54" y1="304.5" x2="59" y2="304.5" stroke="black" stroke-width="1" /><text x="51" y="308" font-size="10" text-anchor="end">12.5</text><line x1="54" y1="267" x2="59" y2="267" stroke="black" stroke-width="1" /><text x="51" y="270.5" font-size="10" text-anchor="end">15</text><line x1="54" y1="229.5" x2="59" y2="229.5" stroke="black" stroke-width="1" /><text x="51" y="233" font-size="10" text-anchor="end">17.5</text><line x1="54" y1="192" x2="59" y2="192" stroke="black" stroke-width="1" /><text x="51" y="195.5" font-size="10" text-anchor="end">20</text><line x1="54" y1="154.5" x2="59" y2="154.5" stroke="black" stroke-width="1" /><text x="51" y="158" font-size="10" text-anchor="end">22.5</text><line x1="54" y1="117" x2="59" y2="117" stroke="black" stroke-width="1" /><text x="51" y="120.5" font-size="10" text-anchor="end">25</text><line x1="54" y1="79.5" x2="59" y2="79.5" stroke="black" stroke-width="1" /><text x="51" y="83" font-size="10" text-anchor="end">27.5</text><line x1="54" y1="42" x2="59" y2="42" stroke="black" stroke-width="1" /><text x="51" y="45.5" font-size="10" text-anchor="end">30</text><text x="379" y="534" font-size="14" text-anchor="middle">X</text><text x="14" y="270.5" font-size="14" text-anchor="middle" transform="rotate(-90,14,270.5)">Y</text><text x="379" y="21" font-size="16" text-anchor="middle">Grayscale — 10×10 bins</text><rect x="419" y="447" width="60" height="45" fill="rgb(254,254,254)" /><rect x="119" y="402" width="60" height="45" fill="rgb(254,254,254)" /><rect x="179" y="402" width="60" height="45" fill="rgb(254,254,254)" /><rect x="239" y="402" width="60" height="45" fill="rgb(254,254,254)" /><rect x="299" y="402" width="60" height="45" fill="rgb(253,253,253)" /><rect x="359" y="402" width="60" height="45" fill="rgb(253,253,253)" /><rect x="419" y="402" width="60" height="45" fill="rgb(254,254,254)" /><rect x="479" y="402" width="60" height="45" fill="rgb(254,254,254)" /><rect x="179" y="357" width="60" height="45" fill="rgb(253,253,253)" /><rect x="239" y="357" width="60" height="45" fill="rgb(245,245,245)" /><rect x="299" y="357" width="60" height="45" fill="rgb(236,236,236)" /><rect x="359" y="357" width="60" height="45" fill="rgb(240,240,240)" /><rect x="419" y="357" width="60" height="45" fill="rgb(247,247,247)" /><rect x="479" y="357" width="60" height="45" fill="rgb(252,252,252)" /><rect x="539" y="357" width="60" height="45" fill="rgb(254,254,254)" /><rect x="119" y="312" width="60" height="45" fill="rgb(254,254,254)" /><rect x="179" y="312" width="60" height="45" fill="rgb(247,247,247)" /><rect x="239" y="312" width="60" height="45" fill="rgb(224,224,224)" /><rect x="299" y="312" width="60" height="45" fill="rgb(151,151,151)" /><rect x="359" y="312" width="60" height="45" fill="rgb(158,158,158)" /><rect x="419" y="312" width="60" height="45" fill="rgb(220,220,220)" /><rect x="479" y="312" width="60" height="45" fill="rgb(247,247,247)" /><rect x="539" y="312" width="60" height="45" fill="rgb(253,253,253)" /><rect x="59" y="267" width="60" height="45" fill="rgb(254,254,254)" /><rect x="119" y="267" width="60" height="45" fill="rgb(252,252,252)" /><rect x="179" y="267" width="60" height="45" fill="rgb(238,238,238)" /><rect x="239" y="267" width="60" height="45" fill="rgb(144,144,144)" /><rect x="299" y="267" width="60" height="45" fill="rgb(25,25,25)" /><rect x="359" y="267" width="60" height="45" fill="rgb(0,0,0)" /><rect x="419" y="267" width="60" height="45" fill="rgb(150,150,150)" /><rect x="479" y="267" width="60" height="45" fill="rgb(235,235,235)" /><rect x="539" y="267" width="60" height="45" fill="rgb(252,252,252)" /><rect x="119" y="222" width="60" height="45" fill="rgb(252,252,252)" /><rect x="179" y="222" width="60" height="45" fill="rgb(237,237,237)" /><rect x="239" y="222" width="60" height="45" fill="rgb(148,148,148)" /><rect x="299" y="222" width="60" height="45" fill="rgb(7,7,7)" /><rect x="359" y="222" width="60" height="45" fill="rgb(11,11,11)" /><rect x="419" y="222" width="60" height="45" fill="rgb(142,142,142)" /><rect x="479" y="222" width="60" height="45" fill="rgb(240,240,240)" /><rect x="539" y="222" width="60" height="45" fill="rgb(252,252,252)" /><rect x="599" y="222" width="60" height="45" fill="rgb(254,254,254)" /><rect x="59" y="177" width="60" height="45" fill="rgb(254,254,254)" /><rect x="119" y="177" width="60" height="45" fill="rgb(253,253,253)" /><rect x="179" y="177" width="60" height="45" fill="rgb(246,246,246)" /><rect x="239" y="177" width="60" height="45" fill="rgb(213,213,213)" /><rect x="299" y="177" width="60" height="45" fill="rgb(136,136,136)" /><rect x="359" y="177" width="60" height="45" fill="rgb(156,156,156)" /><rect x="419" y="177" width="60" height="45" fill="rgb(225,225,225)" /><rect x="479" y="177" width="60" height="45" fill="rgb(247,247,247)" /><rect x="539" y="177" width="60" height="45" fill="rgb(254,254,254)" /><rect x="179" y="132" width="60" height="45" fill="rgb(252,252,252)" /><rect x="239" y="132" width="60" height="45" fill="rgb(246,246,246)" /><rect x="299" y="132" width="60" height="45" fill="rgb(237,237,237)" /><rect x="359" y="132" width="60" height="45" fill="rgb(234,234,234)" /><rect x="419" y="132" width="60" height="45" fill="rgb(246,246,246)" /><rect x="479" y="132" width="60" height="45" fill="rgb(252,252,252)" /><rect x="539" y="132" width="60" height="45" fill="rgb(254,254,254)" /><rect x="119" y="87" width="60" height="45" fill="rgb(254,254,254)" /><rect x="239" y="87" width="60" height="45" fill="rgb(254,254,254)" /><rect x="299" y="87" width="60" height="45" fill="rgb(253,253,253)" /><rect x="359" y="87" width="60" height="45" fill="rgb(253,253,253)" /><rect x="419" y="87" width="60" height="45" fill="rgb(254,254,254)" /><rect x="479" y="87" width="60" height="45" fill="rgb(254,254,254)" /><rect x="239" y="42" width="60" height="45" fill="rgb(254,254,254)" /><rect x="299" y="42" width="60" height="45" fill="rgb(254,254,254)" /><rect x="359" y="42" width="60" height="45" fill="rgb(254,254,254)" /><rect x="688" y="87" width="20" height="7.7" fill="rgb(0,0,0)" /><rect x="688" y="94.2" width="20" height="7.7" fill="rgb(6,6,6)" /><rect x="688" y="101.4" width="20" height="7.7" fill="rgb(12,12,12)" /><rect x="688" y="108.6" width="20" height="7.7" fill="rgb(18,18,18)" /><rect x="688" y="115.8" width="20" height="7.7" fill="rgb(24,24,24)" /><rect x="688" y="123" width="20" height="7.7" fill="rgb(30,30,30)" /><rect x="688" y="130.2" width="20" height="7.7" fill="rgb(37,37,37)" /><rect x="688" y="137.4" width="20" height="7.7" fill="rgb(44,44,44)" /><rect x="688" y="144.6" width="20" height="7.7" fill="rgb(51,51,51)" /><rect x="688" y="151.8" width="20" height="7.7" fill="rgb(58,58,58)" /><rect x="688" y="159" width="20" height="7.7" fill="rgb(65,65,65)" /><rect x="688" y="166.2" width="20" height="7.7" fill="rgb(71,71,71)" /><rect x="688" y="173.4" width="20" height="7.7" fill="rgb(78,78,78)" /><rect x="688" y="180.60000000000002" width="20" height="7.7" fill="rgb(84,84,84)" /><rect x="688" y="187.8" width="20" height="7.7" fill="rgb(90,90,90)" /><rect x="688" y="195" width="20" height="7.7" fill="rgb(96,96,96)" /><rect x="688" y="202.2" width="20" height="7.7" fill="rgb(102,102,102)" /><rect x="688" y="209.4" width="20" height="7.7" fill="rgb(107,107,107)" /><rect x="688" y="216.6" width="20" height="7.7" fill="rgb(113,113,113)" /><rect x="688" y="223.8" width="20" height="7.7" fill="rgb(118,118,118)" /><rect x="688" y="231" width="20" height="7.7" fill="rgb(124,124,124)" /><rect x="688" y="238.20000000000002" width="20" height="7.7" fill="rgb(130,130,130)" /><rect x="688" y="245.4" width="20" height="7.7" fill="rgb(135,135,135)" /><rect x="688" y="252.6" width="20" height="7.7" fill="rgb(141,141,141)" /><rect x="688" y="259.8" width="20" height="7.7" fill="rgb(147,147,147)" /><rect x="688" y="267" width="20" height="7.7" fill="rgb(153,153,153)" /><rect x="688" y="274.20000000000005" width="20" height="7.7" fill="rgb(159,159,159)" /><rect x="688" y="281.4" width="20" height="7.7" fill="rgb(165,165,165)" /><rect x="688" y="288.6" width="20" height="7.7" fill="rgb(171,171,171)" /><rect x="688" y="295.8" width="20" height="7.7" fill="rgb(177,177,177)" /><rect x="688" y="303" width="20" height="7.7" fill="rgb(183,183,183)" /><rect x="688" y="310.20000000000005" width="20" height="7.7" fill="rgb(189,189,189)" /><rect x="688" y="317.4" width="20" height="7.7" fill="rgb(194,194,194)" /><rect x="688" y="324.6" width="20" height="7.7" fill="rgb(199,199,199)" /><rect x="688" y="331.8" width="20" height="7.7" fill="rgb(204,204,204)" /><rect x="688" y="339" width="20" height="7.7" fill="rgb(208,208,208)" /><rect x="688" y="346.2" width="20" height="7.7" fill="rgb(213,213,213)" /><rect x="688" y="353.40000000000003" width="20" height="7.7" fill="rgb(217,217,217)" /><rect x="688" y="360.6" width="20" height="7.7" fill="rgb(221,221,221)" /><rect x="688" y="367.8" width="20" height="7.7" fill="rgb(225,225,225)" /><rect x="688" y="375" width="20" height="7.7" fill="rgb(228,228,228)" /><rect x="688" y="382.2" width="20" height="7.7" fill="rgb(232,232,232)" /><rect x="688" y="389.40000000000003" width="20" height="7.7" fill="rgb(235,235,235)" /><rect x="688" y="396.6" width="20" height="7.7" fill="rgb(239,239,239)" /><rect x="688" y="403.8" width="20" height="7.7" fill="rgb(242,242,242)" /><rect x="688" y="411" width="20" height="7.7" fill="rgb(244,244,244)" /><rect x="688" y="418.2" width="20" height="7.7" fill="rgb(247,247,247)" /><rect x="688" y="425.40000000000003" width="20" height="7.7" fill="rgb(250,250,250)" /><rect x="688" y="432.6" width="20" height="7.7" fill="rgb(252,252,252)" /><rect x="688" y="439.8" width="20" height="7.7" fill="rgb(255,255,255)" /><rect x="688" y="87" width="20" height="360" fill="none" stroke="black" stroke-width="1" /><line x1="708" y1="447" x2="712" y2="447" stroke="black" stroke-width="1" /><text x="714" y="451" font-size="10" text-anchor="start">0.0</text><line x1="708" y1="398.935914552737" x2="712" y2="398.935914552737" stroke="black" stroke-width="1" /><text x="714" y="402.935914552737" font-size="10" text-anchor="start">100.0</text><line x1="708" y1="350.871829105474" x2="712" y2="350.871829105474" stroke="black" stroke-width="1" /><text x="714" y="354.871829105474" font-size="10" text-anchor="start">200.0</text><line x1="708" y1="302.80774365821094" x2="712" y2="302.80774365821094" stroke="black" stroke-width="1" /><text x="714" y="306.80774365821094" font-size="10" text-anchor="start">300.0</text><line x1="708" y1="254.74365821094796" x2="712" y2="254.74365821094796" stroke="black" stroke-width="1" /><text x="714" y="258.74365821094796" font-size="10" text-anchor="start">400.0</text><line x1="708" y1="206.67957276368492" x2="712" y2="206.67957276368492" stroke="black" stroke-width="1" /><text x="714" y="210.67957276368492" font-size="10" text-anchor="start">500.0</text><line x1="708" y1="158.61548731642193" x2="712" y2="158.61548731642193" stroke="black" stroke-width="1" /><text x="714" y="162.61548731642193" font-size="10" text-anchor="start">600.0</text><line x1="708" y1="110.5514018691589" x2="712" y2="110.5514018691589" stroke="black" stroke-width="1" /><text x="714" y="114.5514018691589" font-size="10" text-anchor="start">700.0</text><text x="698" y="81" font-size="10" text-anchor="middle">Count</text></svg>