<svg xmlns="http://www.w3.org/2000/svg" width="758" height="541" fill="black"><rect width="100%" height="100%" fill="white" /><line x1="59" y1="492" x2="659" y2="492" stroke="black" stroke-width="1" /><line x1="59" y1="42" x2="59" y2="492" stroke="black" stroke-width="1" /><line x1="119" y1="42" x2="119" y2="492" stroke="#ccc" stroke-width="1" /><line x1="179" y1="42" x2="179" y2="492" stroke="#ccc" stroke-width="1" /><line x1="239" y1="42" x2="239" y2="492" stroke="#ccc" stroke-width="1" /><line x1="299" y1="42" x2="299" y2="492" stroke="#ccc" stroke-width="1" /><line x1="359" y1="42" x2="359" y2="492" stroke="#ccc" stroke-width="1" /><line x1="419" y1="42" x2="419" y2="492" stroke="#ccc" stroke-width="1" /><line x1="479" y1="42" x2="479" y2="492" stroke="#ccc" stroke-width="1" /><line x1="539" y1="42" x2="539" y2="492" stroke="#ccc" stroke-width="1" /><line x1="599" y1="42" x2="599" y2="492" stroke="#ccc" stroke-width="1" /><line x1="659" y1="42" x2="659" y2="492" stroke="#ccc" stroke-width="1" /><line x1="59" y1="447" x2="659" y2="447" stroke="#ccc" stroke-width="1" /><line x1="59" y1="402" x2="659" y2="402" stroke="#ccc" stroke-width="1" /><line x1="59" y1="357" x2="659" y2="357" stroke="#ccc" stroke-width="1" /><line x1="59" y1="312" x2="659" y2="312" stroke="#ccc" stroke-width="1" /><line x1="59" y1="267" x2="659" y2="267" stroke="#ccc" stroke-width="1" /><line x1="59" y1="222" x2="659" y2="222" stroke="#ccc" stroke-width="1" /><line x1="59" y1="177" x2="659" y2="177" stroke="#ccc" stroke-width="1" /><line x1="59" y1="132" x2="659" y2="132" stroke="#ccc" stroke-width="1" /><line x1="59" y1="87" x2="659" y2="87" stroke="#ccc" stroke-width="1" /><line x1="59" y1="42" x2="659" y2="42" stroke="#ccc" stroke-width="1" /><line x1="59" y1="492" x2="59" y2="497" stroke="black" stroke-width="1" /><text x="59" y="507" font-size="10" text-anchor="middle">0</text><line x1="119" y1="492" x2="119" y2="497" stroke="black" stroke-width="1" /><text x="119" y="507" font-size="10" text-anchor="middle">2</text><line x1="179" y1="492" x2="179" y2="497" stroke="black" stroke-width="1" /><text x="179" y="507" font-size="10" text-anchor="middle">4</text><line x1="239" y1="492" x2="239" y2="497" stroke="black" stroke-width="1" /><text x="239" y="507" font-size="10" text-anchor="middle">6</text><line x1="299" y1="492" x2="299" y2="497" stroke="black" stroke-width="1" /><text x="299" y="507" font-size="10" text-anchor="middle">8</text><line x1="359" y1="492" x2="359" y2="497" stroke="black" stroke-width="1" /><text x="359" y="507" font-size="10" text-anchor="middle">10</text><line x1="419" y1="492" x2="419" y2="497" stroke="black" stroke-width="1" /><text x="419" y="507" font-size="10" text-anchor="middle">12</text><line x1="479" y1="492" x2="479" y2="497" stroke="black" stroke-width="1" /><text x="479" y="507" font-size="10" text-anchor="middle">14</text><line x1="539" y1="492" x2="539" y2="497" stroke="black" stroke-width="1" /><text x="539" y="507" font-size="10" text-anchor="middle">16</text><line x1="599" y1="492" x2="599" y2="497" stroke="black" stroke-width="1" /><text x="599" y="507" font-size="10" text-anchor="middle">18</text><line x1="659" y1="492" x2="659" y2="497" stroke="black" stroke-width="1" /><text x="659" y="507" font-size="10" text-anchor="middle">20</text><line x1="54" y1="492" x2="59" y2="492" stroke="black" stroke-width="1" /><text x="51" y="495.5" font-size="10" text-anchor="end">0</text><line x1="54" y1="447" x2="59" y2="447" stroke="black" stroke-width="1" /><text x="51" y="450.5" font-size="10" text-anchor="end">2</text><line x1="54" y1="402" x2="59" y2="402" stroke="black" stroke-width="1" /><text x="51" y="405.5" font-size="10" text-anchor="end">4</text><line x1="54" y1="357" x2="59" y2="357" stroke="black" stroke-width="1" /><text x="51" y="360.5" font-size="10" text-anchor="end">6</text><line x1="54" y1="312" x2="59" y2="312" stroke="black" stroke-width="1" /><text x="51" y="315.5" font-size="10" text-anchor="end">8</text><line x1="54" y1="267" x2="59" y2="267" stroke="black" stroke-width="1" /><text x="51" y="270.5" font-size="10" text-anchor="end">10</text><line x1="54" y1="222" x2="59" y2="222" stroke="black" stroke-width="1" /><text x="51" y="225.5" font-size="10" text-anchor="end">12</text><line x1="54" y1="177" x2="59" y2="177" stroke="black" stroke-width="1" /><text x="51" y="180.5" font-size="10" text-anchor="end">14</text><line x1="54" y1="132" x2="59" y2="132" stroke="black" stroke-width="1" /><text x="51" y="135.5" font-size="10" text-anchor="end">16</text><line x1="54" y1="87" x2="59" y2="87" stroke="black" stroke-width="1" /><text x="51" y="90.5" font-size="10" text-anchor="end">18</text><line x1="54" y1="42" x2="59" y2="42" stroke="black" stroke-width="1" /><text x="51" y="45.5" font-size="10" text-anchor="end">20</text><text x="379" y="534" font-size="14" text-anchor="middle">X</text><text x="14" y="270.5" font-size="14" text-anchor="middle" transform="rotate(-90,14,270.5)">Y</text><text x="379" y="21" font-size="16" text-anchor="middle">Correlated Variables (r ≈ 0.85)</text><rect x="155" y="420" width="24" height="18" fill="rgb(69,5,88)" /><rect x="179" y="402" width="24" height="18" fill="rgb(68,2,86)" /><rect x="227.00000000000003" y="402" width="23.99999999999997" height="18" fill="rgb(69,5,88)" /><rect x="131" y="384" width="24" height="18" fill="rgb(68,2,86)" /><rect x="179" y="384" width="24" height="18" fill="rgb(69,7,90)" /><rect x="203.00000000000003" y="384" width="24" height="18" fill="rgb(68,2,86)" /><rect x="227.00000000000003" y="384" width="23.99999999999997" height="18" fill="rgb(68,2,86)" /><rect x="251" y="384" width="24" height="18" fill="rgb(70,9,92)" /><rect x="155" y="366" width="24" height="18" fill="rgb(69,5,88)" /><rect x="179" y="366" width="24" height="18" fill="rgb(69,5,88)" /><rect x="203.00000000000003" y="366" width="24" height="18" fill="rgb(71,20,103)" /><rect x="227.00000000000003" y="366" width="23.99999999999997" height="18" fill="rgb(72,26,108)" /><rect x="251" y="366" width="24" height="18" fill="rgb(71,20,103)" /><rect x="275" y="366" width="24" height="18" fill="rgb(68,2,86)" /><rect x="299" y="366" width="24.000000000000057" height="18" fill="rgb(69,5,88)" /><rect x="179" y="348" width="24" height="18" fill="rgb(69,5,88)" /><rect x="203.00000000000003" y="348" width="24" height="18" fill="rgb(72,24,106)" /><rect x="227.00000000000003" y="348" width="23.99999999999997" height="18" fill="rgb(69,54,129)" /><rect x="251" y="348" width="24" height="18" fill="rgb(59,79,138)" /><rect x="275" y="348" width="24" height="18" fill="rgb(72,39,119)" /><rect x="299" y="348" width="24.000000000000057" height="18" fill="rgb(70,11,94)" /><rect x="323.00000000000006" y="348" width="24" height="18" fill="rgb(69,5,88)" /><rect x="179" y="330" width="24" height="18" fill="rgb(69,5,88)" /><rect x="203.00000000000003" y="330" width="24" height="18" fill="rgb(70,13,96)" /><rect x="227.00000000000003" y="330" width="23.99999999999997" height="18" fill="rgb(71,41,121)" /><rect x="251" y="330" width="24" height="18" fill="rgb(59,79,138)" /><rect x="275" y="330" width="24" height="18" fill="rgb(56,87,139)" /><rect x="299" y="330" width="24.000000000000057" height="18" fill="rgb(69,52,128)" /><rect x="323.00000000000006" y="330" width="24" height="18" fill="rgb(72,26,108)" /><rect x="347.00000000000006" y="330" width="24" height="18" fill="rgb(70,9,92)" /><rect x="203.00000000000003" y="312" width="24" height="18" fill="rgb(69,5,88)" /><rect x="227.00000000000003" y="312" width="23.99999999999997" height="18" fill="rgb(72,30,111)" /><rect x="251" y="312" width="24" height="18" fill="rgb(54,92,141)" /><rect x="275" y="312" width="24" height="18" fill="rgb(31,160,135)" /><rect x="299" y="312" width="24.000000000000057" height="18" fill="rgb(38,172,129)" /><rect x="323.00000000000006" y="312" width="24" height="18" fill="rgb(48,105,142)" /><rect x="347.00000000000006" y="312" width="24" height="18" fill="rgb(71,28,110)" /><rect x="371" y="312" width="24.000000000000057" height="18" fill="rgb(70,9,92)" /><rect x="203.00000000000003" y="294" width="24" height="18" fill="rgb(69,5,88)" /><rect x="227.00000000000003" y="294" width="23.99999999999997" height="18" fill="rgb(71,18,100)" /><rect x="251" y="294" width="24" height="18" fill="rgb(57,85,140)" /><rect x="275" y="294" width="24" height="18" fill="rgb(32,164,133)" /><rect x="299" y="294" width="24.000000000000057" height="18" fill="rgb(39,173,128)" /><rect x="323.00000000000006" y="294" width="24" height="18" fill="rgb(64,189,113)" /><rect x="347.00000000000006" y="294" width="24" height="18" fill="rgb(41,119,142)" /><rect x="371" y="294" width="24.000000000000057" height="18" fill="rgb(70,48,125)" /><rect x="395.00000000000006" y="294" width="24" height="18" fill="rgb(71,18,100)" /><rect x="227.00000000000003" y="276" width="23.99999999999997" height="18" fill="rgb(69,7,90)" /><rect x="251" y="276" width="24" height="18" fill="rgb(72,39,119)" /><rect x="275" y="276" width="24" height="18" fill="rgb(57,85,140)" /><rect x="299" y="276" width="24.000000000000057" height="18" fill="rgb(100,203,93)" /><rect x="323.00000000000006" y="276" width="24" height="18" fill="rgb(154,216,60)" /><rect x="347.00000000000006" y="276" width="24" height="18" fill="rgb(76,194,107)" /><rect x="371" y="276" width="24.000000000000057" height="18" fill="rgb(41,120,142)" /><rect x="395.00000000000006" y="276" width="24" height="18" fill="rgb(70,50,126)" /><rect x="419" y="276" width="24" height="18" fill="rgb(69,5,88)" /><rect x="443" y="276" width="24.000000000000057" height="18" fill="rgb(68,2,86)" /><rect x="251" y="257.99999999999994" width="24" height="18.000000000000057" fill="rgb(69,7,90)" /><rect x="275" y="257.99999999999994" width="24" height="18.000000000000057" fill="rgb(70,46,124)" /><rect x="299" y="257.99999999999994" width="24.000000000000057" height="18.000000000000057" fill="rgb(50,99,141)" /><rect x="323.00000000000006" y="257.99999999999994" width="24" height="18.000000000000057" fill="rgb(146,215,65)" /><rect x="347.00000000000006" y="257.99999999999994" width="24" height="18.000000000000057" fill="rgb(253,231,37)" /><rect x="371" y="257.99999999999994" width="24.000000000000057" height="18.000000000000057" fill="rgb(146,215,65)" /><rect x="395.00000000000006" y="257.99999999999994" width="24" height="18.000000000000057" fill="rgb(52,95,141)" /><rect x="419" y="257.99999999999994" width="24" height="18.000000000000057" fill="rgb(71,28,110)" /><rect x="443" y="257.99999999999994" width="24.000000000000057" height="18.000000000000057" fill="rgb(69,5,88)" /><rect x="275" y="239.99999999999997" width="24" height="18.00000000000003" fill="rgb(70,9,92)" /><rect x="299" y="239.99999999999997" width="24.000000000000057" height="18.00000000000003" fill="rgb(69,54,129)" /><rect x="323.00000000000006" y="239.99999999999997" width="24" height="18.00000000000003" fill="rgb(40,122,142)" /><rect x="347.00000000000006" y="239.99999999999997" width="24" height="18.00000000000003" fill="rgb(100,203,93)" /><rect x="371" y="239.99999999999997" width="24.000000000000057" height="18.00000000000003" fill="rgb(231,228,25)" /><rect x="395.00000000000006" y="239.99999999999997" width="24" height="18.00000000000003" fill="rgb(57,185,118)" /><rect x="419" y="239.99999999999997" width="24" height="18.00000000000003" fill="rgb(49,101,142)" /><rect x="443" y="239.99999999999997" width="24.000000000000057" height="18.00000000000003" fill="rgb(72,24,106)" /><rect x="467.00000000000006" y="239.99999999999997" width="24" height="18.00000000000003" fill="rgb(68,2,86)" /><rect x="299" y="221.99999999999994" width="24.000000000000057" height="18.00000000000003" fill="rgb(70,13,96)" /><rect x="323.00000000000006" y="221.99999999999994" width="24" height="18.00000000000003" fill="rgb(72,30,111)" /><rect x="347.00000000000006" y="221.99999999999994" width="24" height="18.00000000000003" fill="rgb(41,119,142)" /><rect x="371" y="221.99999999999994" width="24.000000000000057" height="18.00000000000003" fill="rgb(67,190,112)" /><rect x="395.00000000000006" y="221.99999999999994" width="24" height="18.00000000000003" fill="rgb(158,217,58)" /><rect x="419" y="221.99999999999994" width="24" height="18.00000000000003" fill="rgb(33,140,140)" /><rect x="443" y="221.99999999999994" width="24.000000000000057" height="18.00000000000003" fill="rgb(71,45,123)" /><rect x="467.00000000000006" y="221.99999999999994" width="24" height="18.00000000000003" fill="rgb(72,24,106)" /><rect x="491" y="221.99999999999994" width="24" height="18.00000000000003" fill="rgb(68,2,86)" /><rect x="323.00000000000006" y="204" width="24" height="18" fill="rgb(69,7,90)" /><rect x="347.00000000000006" y="204" width="24" height="18" fill="rgb(71,41,121)" /><rect x="371" y="204" width="24.000000000000057" height="18" fill="rgb(53,93,141)" /><rect x="395.00000000000006" y="204" width="24" height="18" fill="rgb(38,129,142)" /><rect x="419" y="204" width="24" height="18" fill="rgb(34,138,141)" /><rect x="443" y="204" width="24.000000000000057" height="18" fill="rgb(52,95,141)" /><rect x="467.00000000000006" y="204" width="24" height="18" fill="rgb(72,31,113)" /><rect x="491" y="204" width="24" height="18" fill="rgb(70,11,94)" /><rect x="515" y="204" width="24" height="18" fill="rgb(68,2,86)" /><rect x="347.00000000000006" y="186" width="24" height="18" fill="rgb(69,5,88)" /><rect x="371" y="186" width="24.000000000000057" height="18" fill="rgb(72,24,106)" /><rect x="395.00000000000006" y="186" width="24" height="18" fill="rgb(67,59,131)" /><rect x="419" y="186" width="24" height="18" fill="rgb(63,71,136)" /><rect x="443" y="186" width="24.000000000000057" height="18" fill="rgb(57,85,140)" /><rect x="467.00000000000006" y="186" width="24" height="18" fill="rgb(66,62,133)" /><rect x="491" y="186" width="24" height="18" fill="rgb(70,9,92)" /><rect x="371" y="167.99999999999994" width="24.000000000000057" height="18.000000000000057" fill="rgb(70,9,92)" /><rect x="395.00000000000006" y="167.99999999999994" width="24" height="18.000000000000057" fill="rgb(70,9,92)" /><rect x="419" y="167.99999999999994" width="24" height="18.000000000000057" fill="rgb(72,30,111)" /><rect x="443" y="167.99999999999994" width="24.000000000000057" height="18.000000000000057" fill="rgb(70,48,125)" /><rect x="467.00000000000006" y="167.99999999999994" width="24" height="18.000000000000057" fill="rgb(72,33,115)" /><rect x="491" y="167.99999999999994" width="24" height="18.000000000000057" fill="rgb(71,22,104)" /><rect x="515" y="167.99999999999994" width="24" height="18.000000000000057" fill="rgb(69,5,88)" /><rect x="539" y="167.99999999999994" width="24" height="18.000000000000057" fill="rgb(68,2,86)" /><rect x="395.00000000000006" y="150" width="24" height="18" fill="rgb(69,5,88)" /><rect x="419" y="150" width="24" height="18" fill="rgb(69,5,88)" /><rect x="443" y="150" width="24.000000000000057" height="18" fill="rgb(71,18,100)" /><rect x="467.00000000000006" y="150" width="24" height="18" fill="rgb(72,26,108)" /><rect x="491" y="150" width="24" height="18" fill="rgb(70,9,92)" /><rect x="515" y="150" width="24" height="18" fill="rgb(69,7,90)" /><rect x="539" y="150" width="24" height="18" fill="rgb(69,5,88)" /><rect x="443" y="132" width="24.000000000000057" height="18" fill="rgb(70,9,92)" /><rect x="467.00000000000006" y="132" width="24" height="18" fill="rgb(69,5,88)" /><rect x="491" y="132" width="24" height="18" fill="rgb(70,9,92)" /><rect x="515" y="132" width="24" height="18" fill="rgb(68,2,86)" /><rect x="539" y="132" width="24" height="18" fill="rgb(68,2,86)" /><rect x="515" y="113.99999999999994" width="24" height="18.000000000000057" fill="rgb(69,5,88)" /><text x="638" y="62" font-size="12" text-anchor="end">r = 0.84</text><rect x="688" y="87" width="20" height="7.7" fill="rgb(253,231,37)" /><rect x="688" y="94.2" width="20" height="7.7" fill="rgb(240,229,28)" /><rect x="688" y="101.4" width="20" height="7.7" fill="rgb(227,227,24)" /><rect x="688" y="108.6" width="20" height="7.7" fill="rgb(214,226,25)" /><rect x="688" y="115.8" width="20" height="7.7" fill="rgb(200,224,31)" /><rect x="688" y="123" width="20" height="7.7" fill="rgb(186,222,39)" /><rect x="688" y="130.2" width="20" height="7.7" fill="rgb(172,220,48)" /><rect x="688" y="137.4" width="20" height="7.7" fill="rgb(158,217,57)" /><rect x="688" y="144.6" width="20" height="7.7" fill="rgb(145,214,66)" /><rect x="688" y="151.8" width="20" height="7.7" fill="rgb(132,212,74)" /><rect x="688" y="159" width="20" height="7.7" fill="rgb(119,208,82)" /><rect x="688" y="166.2" width="20" height="7.7" fill="rgb(107,205,90)" /><rect x="688" y="173.4" width="20" height="7.7" fill="rgb(95,201,96)" /><rect x="688" y="180.60000000000002" width="20" height="7.7" fill="rgb(84,197,103)" /><rect x="688" y="187.8" width="20" height="7.7" fill="rgb(74,193,108)" /><rect x="688" y="195" width="20" height="7.7" fill="rgb(64,188,114)" /><rect x="688" y="202.2" width="20" height="7.7" fill="rgb(55,184,119)" /><rect x="688" y="209.4" width="20" height="7.7" fill="rgb(48,180,123)" /><rect x="688" y="216.6" width="20" height="7.7" fill="rgb(41,175,127)" /><rect x="688" y="223.8" width="20" height="7.7" fill="rgb(36,171,130)" /><rect x="688" y="231" width="20" height="7.7" fill="rgb(33,165,133)" /><rect x="688" y="238.20000000000002" width="20" height="7.7" fill="rgb(31,161,135)" /><rect x="688" y="245.4" width="20" height="7.7" fill="rgb(30,156,137)" /><rect x="688" y="252.6" width="20" height="7.7" fill="rgb(31,151,138)" /><rect x="688" y="259.8" width="20" height="7.7" fill="rgb(31,146,140)" /><rect x="688" y="267" width="20" height="7.7" fill="rgb(33,141,141)" /><rect x="688" y="274.20000000000005" width="20" height="7.7" fill="rgb(35,136,141)" /><rect x="688" y="281.4" width="20" height="7.7" fill="rgb(37,131,142)" /><rect x="688" y="288.6" width="20" height="7.7" fill="rgb(38,127,141)" /><rect x="688" y="295.8" width="20" height="7.7" fill="rgb(40,122,142)" /><rect x="688" y="303" width="20" height="7.7" fill="rgb(42,116,141)" /><rect x="688" y="310.20000000000005" width="20" height="7.7" fill="rgb(44,112,142)" /><rect x="688" y="317.4" width="20" height="7.7" fill="rgb(47,107,142)" /><rect x="688" y="324.6" width="20" height="7.7" fill="rgb(49,102,142)" /><rect x="688" y="331.8" width="20" height="7.7" fill="rgb(51,97,140)" /><rect x="688" y="339" width="20" height="7.7" fill="rgb(54,91,140)" /><rect x="688" y="346.2" width="20" height="7.7" fill="rgb(56,85,140)" /><rect x="688" y="353.40000000000003" width="20" height="7.7" fill="rgb(59,80,138)" /><rect x="688" y="360.6" width="20" height="7.7" fill="rgb(61,74,137)" /><rect x="688" y="367.8" width="20" height="7.7" fill="rgb(64,69,135)" /><rect x="688" y="375" width="20" height="7.7" fill="rgb(66,62,133)" /><rect x="688" y="382.2" width="20" height="7.7" fill="rgb(68,56,130)" /><rect x="688" y="389.40000000000003" width="20" height="7.7" fill="rgb(70,50,126)" /><rect x="688" y="396.6" width="20" height="7.7" fill="rgb(71,44,122)" /><rect x="688" y="403.8" width="20" height="7.7" fill="rgb(72,37,118)" /><rect x="688" y="411" width="20" height="7.7" fill="rgb(71,30,111)" /><rect x="688" y="418.2" width="20" height="7.7" fill="rgb(72,23,105)" /><rect x="688" y="425.40000000000003" width="20" height="7.7" fill="rgb(71,16,99)" /><rect x="688" y="432.6" width="20" height="7.7" fill="rgb(70,8,92)" /><rect x="688" y="439.8" width="20" height="7.7" fill="rgb(68,1,84)" /><rect x="688" y="87" width="20" height="360" fill="none" stroke="black" stroke-width="1" /><line x1="708" y1="447" x2="712" y2="447" stroke="black" stroke-width="1" /><text x="714" y="451" font-size="10" text-anchor="start">0.0</text><line x1="708" y1="395.2758620689655" x2="712" y2="395.2758620689655" stroke="black" stroke-width="1" /><text x="714" y="399.2758620689655" font-size="10" text-anchor="start">25.0</text><line x1="708" y1="343.55172413793105" x2="712" y2="343.55172413793105" stroke="black" stroke-width="1" /><text x="714" y="347.55172413793105" font-size="10" text-anchor="start">50.0</text><line x1="708" y1="291.82758620689657" x2="712" y2="291.82758620689657" stroke="black" stroke-width="1" /><text x="714" y="295.82758620689657" font-size="10" text-anchor="start">75.0</text><line x1="708" y1="240.1034482758621" x2="712" y2="240.1034482758621" stroke="black" stroke-width="1" /><text x="714" y="244.1034482758621" font-size="10" text-anchor="start">100.0</text><line x1="708" y1="188.37931034482762" x2="712" y2="188.37931034482762" stroke="black" stroke-width="1" /><text x="714" y="192.37931034482762" font-size="10" text-anchor="start">125.0</text><line x1="708" y1="136.65517241379314" x2="712" y2="136.65517241379314" stroke="black" stroke-width="1" /><text x="714" y="140.65517241379314" font-size="10" text-anchor="start">150.0</text><text x="698" y="81" font-size="10" text-anchor="middle">Count</text></svg>