<svg xmlns="http://www.w3.org/2000/svg" width="673" height="541" fill="black"><rect width="100%" height="100%" fill="white" /><line x1="59" y1="492" x2="659" y2="492" stroke="black" stroke-width="1" /><line x1="59" y1="42" x2="59" y2="492" stroke="black" stroke-width="1" /><line x1="59" y1="442" x2="659" y2="442" stroke="#ccc" stroke-width="1" /><line x1="59" y1="392" x2="659" y2="392" stroke="#ccc" stroke-width="1" /><line x1="59" y1="342" x2="659" y2="342" stroke="#ccc" stroke-width="1" /><line x1="59" y1="292" x2="659" y2="292" stroke="#ccc" stroke-width="1" /><line x1="59" y1="242" x2="659" y2="242" stroke="#ccc" stroke-width="1" /><line x1="59" y1="192" x2="659" y2="192" stroke="#ccc" stroke-width="1" /><line x1="59" y1="142" x2="659" y2="142" stroke="#ccc" stroke-width="1" /><line x1="59" y1="92" x2="659" y2="92" stroke="#ccc" stroke-width="1" /><line x1="59" y1="42" x2="659" y2="42" stroke="#ccc" stroke-width="1" /><text x="101.85714285714286" y="507" font-size="10" text-anchor="middle">Revenue</text><line x1="101.85714285714286" y1="492" x2="101.85714285714286" y2="497" stroke="black" stroke-width="1" /><text x="187.57142857142856" y="507" font-size="10" text-anchor="middle">Cost of goods</text><line x1="187.57142857142856" y1="492" x2="187.57142857142856" y2="497" stroke="black" stroke-width="1" /><text x="273.2857142857143" y="507" font-size="10" text-anchor="middle">Personnel</text><line x1="273.2857142857143" y1="492" x2="273.2857142857143" y2="497" stroke="black" stroke-width="1" /><text x="359" y="507" font-size="10" text-anchor="middle">Operations</text><line x1="359" y1="492" x2="359" y2="497" stroke="black" stroke-width="1" /><text x="444.7142857142857" y="507" font-size="10" text-anchor="middle">Marketing</text><line x1="444.7142857142857" y1="492" x2="444.7142857142857" y2="497" stroke="black" stroke-width="1" /><text x="530.4285714285714" y="507" font-size="10" text-anchor="middle">Other income</text><line x1="530.4285714285714" y1="492" x2="530.4285714285714" y2="497" stroke="black" stroke-width="1" /><text x="616.1428571428571" y="507" font-size="10" text-anchor="middle">Tax</text><line x1="616.1428571428571" y1="492" x2="616.1428571428571" y2="497" stroke="black" stroke-width="1" /><line x1="54" y1="492" x2="59" y2="492" stroke="black" stroke-width="1" /><text x="51" y="495.5" font-size="10" text-anchor="end">0</text><line x1="54" y1="442" x2="59" y2="442" stroke="black" stroke-width="1" /><text x="51" y="445.5" font-size="10" text-anchor="end">100</text><line x1="54" y1="392" x2="59" y2="392" stroke="black" stroke-width="1" /><text x="51" y="395.5" font-size="10" text-anchor="end">200</text><line x1="54" y1="342" x2="59" y2="342" stroke="black" stroke-width="1" /><text x="51" y="345.5" font-size="10" text-anchor="end">300</text><line x1="54" y1="292" x2="59" y2="292" stroke="black" stroke-width="1" /><text x="51" y="295.5" font-size="10" text-anchor="end">400</text><line x1="54" y1="242" x2="59" y2="242" stroke="black" stroke-width="1" /><text x="51" y="245.5" font-size="10" text-anchor="end">500</text><line x1="54" y1="192" x2="59" y2="192" stroke="black" stroke-width="1" /><text x="51" y="195.5" font-size="10" text-anchor="end">600</text><line x1="54" y1="142" x2="59" y2="142" stroke="black" stroke-width="1" /><text x="51" y="145.5" font-size="10" text-anchor="end">700</text><line x1="54" y1="92" x2="59" y2="92" stroke="black" stroke-width="1" /><text x="51" y="95.5" font-size="10" text-anchor="end">800</text><line x1="54" y1="42" x2="59" y2="42" stroke="black" stroke-width="1" /><text x="51" y="45.5" font-size="10" text-anchor="end">900</text><text x="14" y="270.5" font-size="14" text-anchor="middle" transform="rotate(-90,14,270.5)">USD (thousands)</text><text x="336.5" y="21" font-size="16" text-anchor="middle">Revenue Breakdown</text><rect x="76.14285714285714" y="67" width="51.428571428571445" height="425" fill="rgb(68,170,68)" /><rect x="161.85714285714286" y="67" width="51.428571428571416" height="170" fill="rgb(204,68,68)" /><rect x="247.5714285714286" y="237" width="51.42857142857139" height="90" fill="rgb(204,68,68)" /><rect x="333.28571428571433" y="327" width="51.42857142857133" height="45" fill="rgb(204,68,68)" /><rect x="419" y="372" width="51.428571428571445" height="35" fill="rgb(204,68,68)" /><rect x="504.7142857142857" y="379.5" width="51.42857142857139" height="27.5" fill="rgb(68,170,68)" /><rect x="590.4285714285714" y="379.5" width="51.428571428571445" height="42.5" fill="rgb(204,68,68)" /></svg>