<svg xmlns="http://www.w3.org/2000/svg" width="673" height="541" fill="black"><rect width="100%" height="100%" fill="white" /><line x1="59" y1="492" x2="659" y2="492" stroke="black" stroke-width="1" /><line x1="59" y1="42" x2="59" y2="492" stroke="black" stroke-width="1" /><line x1="59" y1="435.75" x2="659" y2="435.75" stroke="#ccc" stroke-width="1" /><line x1="59" y1="379.5" x2="659" y2="379.5" stroke="#ccc" stroke-width="1" /><line x1="59" y1="323.25" x2="659" y2="323.25" stroke="#ccc" stroke-width="1" /><line x1="59" y1="267" x2="659" y2="267" stroke="#ccc" stroke-width="1" /><line x1="59" y1="210.75" x2="659" y2="210.75" stroke="#ccc" stroke-width="1" /><line x1="59" y1="154.5" x2="659" y2="154.5" stroke="#ccc" stroke-width="1" /><line x1="59" y1="98.25" x2="659" y2="98.25" stroke="#ccc" stroke-width="1" /><line x1="59" y1="42" x2="659" y2="42" stroke="#ccc" stroke-width="1" /><text x="113.54545454545455" y="507" font-size="10" text-anchor="middle">Q1 sales</text><line x1="113.54545454545455" y1="492" x2="113.54545454545455" y2="497" stroke="black" stroke-width="1" /><text x="168.0909090909091" y="507" font-size="10" text-anchor="middle">Q2 sales</text><line x1="168.0909090909091" y1="492" x2="168.0909090909091" y2="497" stroke="black" stroke-width="1" /><text x="222.63636363636363" y="507" font-size="10" text-anchor="middle">Returns</text><line x1="222.63636363636363" y1="492" x2="222.63636363636363" y2="497" stroke="black" stroke-width="1" /><text x="277.1818181818182" y="507" font-size="10" text-anchor="middle">Discounts</text><line x1="277.1818181818182" y1="492" x2="277.1818181818182" y2="497" stroke="black" stroke-width="1" /><text x="331.7272727272727" y="507" font-size="10" text-anchor="middle">H1 net</text><line x1="331.7272727272727" y1="492" x2="331.7272727272727" y2="497" stroke="black" stroke-width="1" /><text x="386.27272727272725" y="507" font-size="10" text-anchor="middle">Q3 sales</text><line x1="386.27272727272725" y1="492" x2="386.27272727272725" y2="497" stroke="black" stroke-width="1" /><text x="440.8181818181818" y="507" font-size="10" text-anchor="middle">Q4 sales</text><line x1="440.8181818181818" y1="492" x2="440.8181818181818" y2="497" stroke="black" stroke-width="1" /><text x="495.3636363636364" y="507" font-size="10" text-anchor="middle">Returns</text><line x1="495.3636363636364" y1="492" x2="495.3636363636364" y2="497" stroke="black" stroke-width="1" /><text x="549.909090909091" y="507" font-size="10" text-anchor="middle">Discounts</text><line x1="549.909090909091" y1="492" x2="549.909090909091" y2="497" stroke="black" stroke-width="1" /><text x="604.4545454545454" y="507" font-size="10" text-anchor="middle">H2 net</text><line x1="604.4545454545454" y1="492" x2="604.4545454545454" y2="497" stroke="black" stroke-width="1" /><line x1="54" y1="492" x2="59" y2="492" stroke="black" stroke-width="1" /><text x="51" y="495.5" font-size="10" text-anchor="end">0</text><line x1="54" y1="435.75" x2="59" y2="435.75" stroke="black" stroke-width="1" /><text x="51" y="439.25" font-size="10" text-anchor="end">200</text><line x1="54" y1="379.5" x2="59" y2="379.5" stroke="black" stroke-width="1" /><text x="51" y="383" font-size="10" text-anchor="end">400</text><line x1="54" y1="323.25" x2="59" y2="323.25" stroke="black" stroke-width="1" /><text x="51" y="326.75" font-size="10" text-anchor="end">600</text><line x1="54" y1="267" x2="59" y2="267" stroke="black" stroke-width="1" /><text x="51" y="270.5" font-size="10" text-anchor="end">800</text><line x1="54" y1="210.75" x2="59" y2="210.75" stroke="black" stroke-width="1" /><text x="51" y="214.25" font-size="10" text-anchor="end">1000</text><line x1="54" y1="154.5" x2="59" y2="154.5" stroke="black" stroke-width="1" /><text x="51" y="158" font-size="10" text-anchor="end">1200</text><line x1="54" y1="98.25" x2="59" y2="98.25" stroke="black" stroke-width="1" /><text x="51" y="101.75" font-size="10" text-anchor="end">1400</text><line x1="54" y1="42" x2="59" y2="42" stroke="black" stroke-width="1" /><text x="51" y="45.5" font-size="10" text-anchor="end">1600</text><text x="14" y="270.5" font-size="14" text-anchor="middle" transform="rotate(-90,14,270.5)">USD (thousands)</text><text x="336.5" y="21" font-size="16" text-anchor="middle">Sales – Connectors + Values</text><rect x="97.18181818181819" y="373.875" width="32.72727272727272" height="118.125" fill="rgb(68,170,68)" /><text x="113.54545454545455" y="368.875" font-size="12" text-anchor="middle">+420.00</text><line x1="129.9090909090909" y1="373.875" x2="151.72727272727272" y2="373.875" stroke="gray" stroke-width="1" stroke-dasharray="4,3" /><rect x="151.72727272727272" y="267" width="32.72727272727272" height="106.875" fill="rgb(68,170,68)" /><text x="168.09090909090907" y="262" font-size="12" text-anchor="middle">+380.00</text><line x1="184.45454545454544" y1="267" x2="206.27272727272728" y2="267" stroke="gray" stroke-width="1" stroke-dasharray="4,3" /><rect x="206.27272727272728" y="267" width="32.72727272727272" height="26.71875" fill="rgb(204,68,68)" /><text x="222.63636363636363" y="308.71875" font-size="12" text-anchor="middle">-95.00</text><line x1="239" y1="293.71875" x2="260.8181818181818" y2="293.71875" stroke="gray" stroke-width="1" stroke-dasharray="4,3" /><rect x="260.8181818181818" y="293.71875" width="32.72727272727269" height="16.875" fill="rgb(204,68,68)" /><text x="277.18181818181813" y="325.59375" font-size="12" text-anchor="middle">-60.00</text><line x1="293.5454545454545" y1="310.59375" x2="315.3636363636364" y2="310.59375" stroke="gray" stroke-width="1" stroke-dasharray="4,3" /><rect x="315.3636363636364" y="310.59375" width="32.72727272727269" height="181.40625" fill="steelblue" /><text x="331.72727272727275" y="305.59375" font-size="12" text-anchor="middle">645.00</text><line x1="348.09090909090907" y1="310.59375" x2="369.90909090909093" y2="310.59375" stroke="gray" stroke-width="1" stroke-dasharray="4,3" /><rect x="369.90909090909093" y="195.28125" width="32.72727272727269" height="115.3125" fill="rgb(68,170,68)" /><text x="386.27272727272725" y="190.28125" font-size="12" text-anchor="middle">+410.00</text><line x1="402.6363636363636" y1="195.28125" x2="424.4545454545455" y2="195.28125" stroke="gray" stroke-width="1" stroke-dasharray="4,3" /><rect x="424.4545454545455" y="67.3125" width="32.727272727272634" height="127.96875" fill="rgb(68,170,68)" /><text x="440.8181818181818" y="62.3125" font-size="12" text-anchor="middle">+455.00</text><line x1="457.18181818181813" y1="67.3125" x2="479.00000000000006" y2="67.3125" stroke="gray" stroke-width="1" stroke-dasharray="4,3" /><rect x="479.00000000000006" y="67.3125" width="32.72727272727275" height="29.53125" fill="rgb(204,68,68)" /><text x="495.36363636363643" y="111.84375" font-size="12" text-anchor="middle">-105.00</text><line x1="511.7272727272728" y1="96.84375" x2="533.5454545454545" y2="96.84375" stroke="gray" stroke-width="1" stroke-dasharray="4,3" /><rect x="533.5454545454545" y="96.84375" width="32.72727272727286" height="19.6875" fill="rgb(204,68,68)" /><text x="549.909090909091" y="131.53125" font-size="12" text-anchor="middle">-70.00</text><line x1="566.2727272727274" y1="116.53125" x2="588.090909090909" y2="116.53125" stroke="gray" stroke-width="1" stroke-dasharray="4,3" /><rect x="588.090909090909" y="116.53125" width="32.72727272727286" height="375.46875" fill="steelblue" /><text x="604.4545454545455" y="111.53125" font-size="12" text-anchor="middle">1335.00</text></svg>