<svg xmlns="http://www.w3.org/2000/svg" width="673" height="541" fill="black"><rect width="100%" height="100%" fill="white" /><line x1="59" y1="492" x2="659" y2="492" stroke="black" stroke-width="1" /><line x1="59" y1="42" x2="59" y2="492" stroke="black" stroke-width="1" /><line x1="59" y1="447" x2="659" y2="447" stroke="#ccc" stroke-width="1" /><line x1="59" y1="402" x2="659" y2="402" stroke="#ccc" stroke-width="1" /><line x1="59" y1="357" x2="659" y2="357" stroke="#ccc" stroke-width="1" /><line x1="59" y1="312" x2="659" y2="312" stroke="#ccc" stroke-width="1" /><line x1="59" y1="267" x2="659" y2="267" stroke="#ccc" stroke-width="1" /><line x1="59" y1="222" x2="659" y2="222" stroke="#ccc" stroke-width="1" /><line x1="59" y1="177" x2="659" y2="177" stroke="#ccc" stroke-width="1" /><line x1="59" y1="132" x2="659" y2="132" stroke="#ccc" stroke-width="1" /><line x1="59" y1="87" x2="659" y2="87" stroke="#ccc" stroke-width="1" /><line x1="59" y1="42" x2="659" y2="42" stroke="#ccc" stroke-width="1" /><text x="101.85714285714286" y="507" font-size="10" text-anchor="middle">Revenue</text><line x1="101.85714285714286" y1="492" x2="101.85714285714286" y2="497" stroke="black" stroke-width="1" /><text x="187.57142857142856" y="507" font-size="10" text-anchor="middle">Costs</text><line x1="187.57142857142856" y1="492" x2="187.57142857142856" y2="497" stroke="black" stroke-width="1" /><text x="273.2857142857143" y="507" font-size="10" text-anchor="middle">Period A</text><line x1="273.2857142857143" y1="492" x2="273.2857142857143" y2="497" stroke="black" stroke-width="1" /><text x="359" y="507" font-size="10" text-anchor="middle">Revenue</text><line x1="359" y1="492" x2="359" y2="497" stroke="black" stroke-width="1" /><text x="444.7142857142857" y="507" font-size="10" text-anchor="middle">Costs</text><line x1="444.7142857142857" y1="492" x2="444.7142857142857" y2="497" stroke="black" stroke-width="1" /><text x="530.4285714285714" y="507" font-size="10" text-anchor="middle">Period B</text><line x1="530.4285714285714" y1="492" x2="530.4285714285714" y2="497" stroke="black" stroke-width="1" /><text x="616.1428571428571" y="507" font-size="10" text-anchor="middle">Period A→B</text><line x1="616.1428571428571" y1="492" x2="616.1428571428571" y2="497" stroke="black" stroke-width="1" /><line x1="54" y1="492" x2="59" y2="492" stroke="black" stroke-width="1" /><text x="51" y="495.5" font-size="10" text-anchor="end">0</text><line x1="54" y1="447" x2="59" y2="447" stroke="black" stroke-width="1" /><text x="51" y="450.5" font-size="10" text-anchor="end">100</text><line x1="54" y1="402" x2="59" y2="402" stroke="black" stroke-width="1" /><text x="51" y="405.5" font-size="10" text-anchor="end">200</text><line x1="54" y1="357" x2="59" y2="357" stroke="black" stroke-width="1" /><text x="51" y="360.5" font-size="10" text-anchor="end">300</text><line x1="54" y1="312" x2="59" y2="312" stroke="black" stroke-width="1" /><text x="51" y="315.5" font-size="10" text-anchor="end">400</text><line x1="54" y1="267" x2="59" y2="267" stroke="black" stroke-width="1" /><text x="51" y="270.5" font-size="10" text-anchor="end">500</text><line x1="54" y1="222" x2="59" y2="222" stroke="black" stroke-width="1" /><text x="51" y="225.5" font-size="10" text-anchor="end">600</text><line x1="54" y1="177" x2="59" y2="177" stroke="black" stroke-width="1" /><text x="51" y="180.5" font-size="10" text-anchor="end">700</text><line x1="54" y1="132" x2="59" y2="132" stroke="black" stroke-width="1" /><text x="51" y="135.5" font-size="10" text-anchor="end">800</text><line x1="54" y1="87" x2="59" y2="87" stroke="black" stroke-width="1" /><text x="51" y="90.5" font-size="10" text-anchor="end">900</text><line x1="54" y1="42" x2="59" y2="42" stroke="black" stroke-width="1" /><text x="51" y="45.5" font-size="10" text-anchor="end">1000</text><text x="14" y="270.5" font-size="14" text-anchor="middle" transform="rotate(-90,14,270.5)">USD (thousands)</text><text x="336.5" y="21" font-size="16" text-anchor="middle">Period-over-Period Change</text><rect x="76.14285714285714" y="267" width="51.428571428571445" height="225" fill="rgb(68,170,68)" /><text x="101.85714285714286" y="262" font-size="12" text-anchor="middle">+500.00</text><rect x="161.85714285714286" y="267" width="51.428571428571416" height="81" fill="rgb(204,68,68)" /><text x="187.57142857142856" y="363" font-size="12" text-anchor="middle">-180.00</text><rect x="247.5714285714286" y="348" width="51.42857142857139" height="144" fill="steelblue" /><text x="273.28571428571433" y="343" font-size="12" text-anchor="middle">320.00</text><rect x="333.28571428571433" y="78" width="51.42857142857133" height="270" fill="rgb(68,170,68)" /><text x="359" y="73" font-size="12" text-anchor="middle">+600.00</text><rect x="419" y="78" width="51.428571428571445" height="85.5" fill="rgb(204,68,68)" /><text x="444.7142857142857" y="178.5" font-size="12" text-anchor="middle">-190.00</text><rect x="504.7142857142857" y="163.5" width="51.42857142857139" height="328.5" fill="steelblue" /><text x="530.4285714285714" y="158.5" font-size="12" text-anchor="middle">730.00</text><rect x="590.4285714285714" y="163.5" width="51.428571428571445" height="184.5" fill="rgb(68,170,68)" /><text x="616.1428571428571" y="158.5" font-size="12" text-anchor="middle">+410.00</text></svg>