<svg xmlns="http://www.w3.org/2000/svg" width="673" height="541" fill="black"><rect width="100%" height="100%" fill="white" /><line x1="59" y1="492" x2="659" y2="492" stroke="black" stroke-width="1" /><line x1="59" y1="42" x2="59" y2="492" stroke="black" stroke-width="1" /><line x1="59" y1="442" x2="659" y2="442" stroke="#ccc" stroke-width="1" /><line x1="59" y1="392" x2="659" y2="392" stroke="#ccc" stroke-width="1" /><line x1="59" y1="342" x2="659" y2="342" stroke="#ccc" stroke-width="1" /><line x1="59" y1="292" x2="659" y2="292" stroke="#ccc" stroke-width="1" /><line x1="59" y1="242" x2="659" y2="242" stroke="#ccc" stroke-width="1" /><line x1="59" y1="192" x2="659" y2="192" stroke="#ccc" stroke-width="1" /><line x1="59" y1="142" x2="659" y2="142" stroke="#ccc" stroke-width="1" /><line x1="59" y1="92" x2="659" y2="92" stroke="#ccc" stroke-width="1" /><line x1="59" y1="42" x2="659" y2="42" stroke="#ccc" stroke-width="1" /><text x="109" y="507" font-size="10" text-anchor="middle">Revenue</text><line x1="109" y1="492" x2="109" y2="497" stroke="black" stroke-width="1" /><text x="159" y="507" font-size="10" text-anchor="middle">Cost of goods</text><line x1="159" y1="492" x2="159" y2="497" stroke="black" stroke-width="1" /><text x="209" y="507" font-size="10" text-anchor="middle">Gross profit</text><line x1="209" y1="492" x2="209" y2="497" stroke="black" stroke-width="1" /><text x="259" y="507" font-size="10" text-anchor="middle">Personnel</text><line x1="259" y1="492" x2="259" y2="497" stroke="black" stroke-width="1" /><text x="309" y="507" font-size="10" text-anchor="middle">Operations</text><line x1="309" y1="492" x2="309" y2="497" stroke="black" stroke-width="1" /><text x="359" y="507" font-size="10" text-anchor="middle">Marketing</text><line x1="359" y1="492" x2="359" y2="497" stroke="black" stroke-width="1" /><text x="409" y="507" font-size="10" text-anchor="middle">EBITDA</text><line x1="409" y1="492" x2="409" y2="497" stroke="black" stroke-width="1" /><text x="459" y="507" font-size="10" text-anchor="middle">Depreciation</text><line x1="459" y1="492" x2="459" y2="497" stroke="black" stroke-width="1" /><text x="509" y="507" font-size="10" text-anchor="middle">Interest</text><line x1="509" y1="492" x2="509" y2="497" stroke="black" stroke-width="1" /><text x="559" y="507" font-size="10" text-anchor="middle">Tax</text><line x1="559" y1="492" x2="559" y2="497" stroke="black" stroke-width="1" /><text x="609" y="507" font-size="10" text-anchor="middle">Net income</text><line x1="609" y1="492" x2="609" y2="497" stroke="black" stroke-width="1" /><line x1="54" y1="492" x2="59" y2="492" stroke="black" stroke-width="1" /><text x="51" y="495.5" font-size="10" text-anchor="end">0</text><line x1="54" y1="442" x2="59" y2="442" stroke="black" stroke-width="1" /><text x="51" y="445.5" font-size="10" text-anchor="end">100</text><line x1="54" y1="392" x2="59" y2="392" stroke="black" stroke-width="1" /><text x="51" y="395.5" font-size="10" text-anchor="end">200</text><line x1="54" y1="342" x2="59" y2="342" stroke="black" stroke-width="1" /><text x="51" y="345.5" font-size="10" text-anchor="end">300</text><line x1="54" y1="292" x2="59" y2="292" stroke="black" stroke-width="1" /><text x="51" y="295.5" font-size="10" text-anchor="end">400</text><line x1="54" y1="242" x2="59" y2="242" stroke="black" stroke-width="1" /><text x="51" y="245.5" font-size="10" text-anchor="end">500</text><line x1="54" y1="192" x2="59" y2="192" stroke="black" stroke-width="1" /><text x="51" y="195.5" font-size="10" text-anchor="end">600</text><line x1="54" y1="142" x2="59" y2="142" stroke="black" stroke-width="1" /><text x="51" y="145.5" font-size="10" text-anchor="end">700</text><line x1="54" y1="92" x2="59" y2="92" stroke="black" stroke-width="1" /><text x="51" y="95.5" font-size="10" text-anchor="end">800</text><line x1="54" y1="42" x2="59" y2="42" stroke="black" stroke-width="1" /><text x="51" y="45.5" font-size="10" text-anchor="end">900</text><text x="14" y="270.5" font-size="14" text-anchor="middle" transform="rotate(-90,14,270.5)">USD (thousands)</text><text x="336.5" y="21" font-size="16" text-anchor="middle">Income Statement</text><rect x="94" y="67" width="30" height="425" fill="rgb(68,170,68)" /><rect x="144" y="67" width="30" height="170" fill="rgb(204,68,68)" /><rect x="194" y="237" width="29.99999999999997" height="255" fill="steelblue" /><rect x="244" y="237" width="30" height="90" fill="rgb(204,68,68)" /><rect x="294" y="327" width="30" height="45" fill="rgb(204,68,68)" /><rect x="344" y="372" width="30" height="35" fill="rgb(204,68,68)" /><rect x="394" y="407" width="29.999999999999943" height="85" fill="steelblue" /><rect x="444.00000000000006" y="407" width="30" height="20" fill="rgb(204,68,68)" /><rect x="494" y="427" width="30" height="10" fill="rgb(204,68,68)" /><rect x="544" y="437" width="30" height="32.5" fill="rgb(204,68,68)" /><rect x="594" y="469.5" width="30.000000000000114" height="22.5" fill="steelblue" /></svg>