<svg xmlns="http://www.w3.org/2000/svg" width="673" height="541" fill="black"><rect width="100%" height="100%" fill="white" /><line x1="59" y1="492" x2="659" y2="492" stroke="black" stroke-width="1" /><line x1="59" y1="42" x2="59" y2="492" stroke="black" stroke-width="1" /><line x1="101.85714285714286" y1="42" x2="101.85714285714286" y2="492" stroke="#ccc" stroke-width="1" /><line x1="144.71428571428572" y1="42" x2="144.71428571428572" y2="492" stroke="#ccc" stroke-width="1" /><line x1="187.57142857142856" y1="42" x2="187.57142857142856" y2="492" stroke="#ccc" stroke-width="1" /><line x1="230.42857142857142" y1="42" x2="230.42857142857142" y2="492" stroke="#ccc" stroke-width="1" /><line x1="273.2857142857143" y1="42" x2="273.2857142857143" y2="492" stroke="#ccc" stroke-width="1" /><line x1="316.1428571428571" y1="42" x2="316.1428571428571" y2="492" stroke="#ccc" stroke-width="1" /><line x1="359" y1="42" x2="359" y2="492" stroke="#ccc" stroke-width="1" /><line x1="401.85714285714283" y1="42" x2="401.85714285714283" y2="492" stroke="#ccc" stroke-width="1" /><line x1="444.7142857142857" y1="42" x2="444.7142857142857" y2="492" stroke="#ccc" stroke-width="1" /><line x1="487.57142857142856" y1="42" x2="487.57142857142856" y2="492" stroke="#ccc" stroke-width="1" /><line x1="530.4285714285714" y1="42" x2="530.4285714285714" y2="492" stroke="#ccc" stroke-width="1" /><line x1="573.2857142857142" y1="42" x2="573.2857142857142" y2="492" stroke="#ccc" stroke-width="1" /><line x1="616.1428571428571" y1="42" x2="616.1428571428571" y2="492" stroke="#ccc" stroke-width="1" /><line x1="659" y1="42" x2="659" y2="492" stroke="#ccc" stroke-width="1" /><line x1="59" y1="435.75" x2="659" y2="435.75" stroke="#ccc" stroke-width="1" /><line x1="59" y1="379.5" x2="659" y2="379.5" stroke="#ccc" stroke-width="1" /><line x1="59" y1="323.25" x2="659" y2="323.25" stroke="#ccc" stroke-width="1" /><line x1="59" y1="267" x2="659" y2="267" stroke="#ccc" stroke-width="1" /><line x1="59" y1="210.75" x2="659" y2="210.75" stroke="#ccc" stroke-width="1" /><line x1="59" y1="154.5" x2="659" y2="154.5" stroke="#ccc" stroke-width="1" /><line x1="59" y1="98.25" x2="659" y2="98.25" stroke="#ccc" stroke-width="1" /><line x1="59" y1="42" x2="659" y2="42" stroke="#ccc" stroke-width="1" /><line x1="59" y1="492" x2="59" y2="497" stroke="black" stroke-width="1" /><text x="59" y="507" font-size="10" text-anchor="middle">0</text><line x1="101.85714285714286" y1="492" x2="101.85714285714286" y2="497" stroke="black" stroke-width="1" /><text x="101.85714285714286" y="507" font-size="10" text-anchor="middle">0.5</text><line x1="144.71428571428572" y1="492" x2="144.71428571428572" y2="497" stroke="black" stroke-width="1" /><text x="144.71428571428572" y="507" font-size="10" text-anchor="middle">1</text><line x1="187.57142857142856" y1="492" x2="187.57142857142856" y2="497" stroke="black" stroke-width="1" /><text x="187.57142857142856" y="507" font-size="10" text-anchor="middle">1.5</text><line x1="230.42857142857142" y1="492" x2="230.42857142857142" y2="497" stroke="black" stroke-width="1" /><text x="230.42857142857142" y="507" font-size="10" text-anchor="middle">2</text><line x1="273.2857142857143" y1="492" x2="273.2857142857143" y2="497" stroke="black" stroke-width="1" /><text x="273.2857142857143" y="507" font-size="10" text-anchor="middle">2.5</text><line x1="316.1428571428571" y1="492" x2="316.1428571428571" y2="497" stroke="black" stroke-width="1" /><text x="316.1428571428571" y="507" font-size="10" text-anchor="middle">3</text><line x1="359" y1="492" x2="359" y2="497" stroke="black" stroke-width="1" /><text x="359" y="507" font-size="10" text-anchor="middle">3.5</text><line x1="401.85714285714283" y1="492" x2="401.85714285714283" y2="497" stroke="black" stroke-width="1" /><text x="401.85714285714283" y="507" font-size="10" text-anchor="middle">4</text><line x1="444.7142857142857" y1="492" x2="444.7142857142857" y2="497" stroke="black" stroke-width="1" /><text x="444.7142857142857" y="507" font-size="10" text-anchor="middle">4.5</text><line x1="487.57142857142856" y1="492" x2="487.57142857142856" y2="497" stroke="black" stroke-width="1" /><text x="487.57142857142856" y="507" font-size="10" text-anchor="middle">5</text><line x1="530.4285714285714" y1="492" x2="530.4285714285714" y2="497" stroke="black" stroke-width="1" /><text x="530.4285714285714" y="507" font-size="10" text-anchor="middle">5.5</text><line x1="573.2857142857142" y1="492" x2="573.2857142857142" y2="497" stroke="black" stroke-width="1" /><text x="573.2857142857142" y="507" font-size="10" text-anchor="middle">6</text><line x1="616.1428571428571" y1="492" x2="616.1428571428571" y2="497" stroke="black" stroke-width="1" /><text x="616.1428571428571" y="507" font-size="10" text-anchor="middle">6.5</text><line x1="659" y1="492" x2="659" y2="497" stroke="black" stroke-width="1" /><text x="659" y="507" font-size="10" text-anchor="middle">7</text><line x1="54" y1="492" x2="59" y2="492" stroke="black" stroke-width="1" /><text x="51" y="495.5" font-size="10" text-anchor="end">-2</text><line x1="54" y1="435.75" x2="59" y2="435.75" stroke="black" stroke-width="1" /><text x="51" y="439.25" font-size="10" text-anchor="end">-1.5</text><line x1="54" y1="379.5" x2="59" y2="379.5" stroke="black" stroke-width="1" /><text x="51" y="383" font-size="10" text-anchor="end">-1</text><line x1="54" y1="323.25" x2="59" y2="323.25" stroke="black" stroke-width="1" /><text x="51" y="326.75" font-size="10" text-anchor="end">-0.5</text><line x1="54" y1="267" x2="59" y2="267" stroke="black" stroke-width="1" /><text x="51" y="270.5" font-size="10" text-anchor="end">0</text><line x1="54" y1="210.75" x2="59" y2="210.75" stroke="black" stroke-width="1" /><text x="51" y="214.25" font-size="10" text-anchor="end">0.5</text><line x1="54" y1="154.5" x2="59" y2="154.5" stroke="black" stroke-width="1" /><text x="51" y="158" font-size="10" text-anchor="end">1</text><line x1="54" y1="98.25" x2="59" y2="98.25" stroke="black" stroke-width="1" /><text x="51" y="101.75" font-size="10" text-anchor="end">1.5</text><line x1="54" y1="42" x2="59" y2="42" stroke="black" stroke-width="1" /><text x="51" y="45.5" font-size="10" text-anchor="end">2</text><text x="336.5" y="534" font-size="14" text-anchor="middle">X</text><text x="14" y="270.5" font-size="14" text-anchor="middle" transform="rotate(-90,14,270.5)">Y</text><text x="336.5" y="21" font-size="16" text-anchor="middle">Annotations</text><rect x="59" y="143.25" width="600" height="123.75" fill="steelblue" fill-opacity="0.08" /><path d="M 59 267 L 67.57142857142857 255.76874062723186 L 76.14285714285714 244.6497002855556 L 84.71428571428572 233.7539767505993 L 93.28571428571429 223.19043649027685 L 101.85714285714286 213.06462690702716 L 110.42857142857144 203.4777217430585 L 119 194.52551018575974 L 127.57142857142858 186.29743977380372 L 136.14285714285717 178.87572266690813 L 144.71428571428572 172.3345142091116 L 153.2857142857143 166.73917199308852 L 161.8571428571429 162.14560282868706 L 170.42857142857144 158.5997041405658 L 179 156.13690537629822 L 187.57142857142856 154.78181400704386 L 196.14285714285717 154.54796965783066 L 204.71428571428572 155.43770882409729 L 213.2857142857143 157.44214152620305 L 221.8571428571429 160.54124013516588 L 230.42857142857142 164.70403948211077 L 239 169.8889462520017 L 247.5714285714286 176.0441545702961 L 256.14285714285717 183.108163630119 L 264.7142857142858 191.01039218799554 L 273.2857142857143 199.6718837883049 L 281.8571428571429 209.00609567008524 L 290.42857142857144 218.9197634736941 L 299 229.3138331074607 L 307.57142857142856 240.08445046342703 L 316.1428571428571 251.12399909326493 L 324.7142857142857 262.3221754762548 L 333.28571428571433 273.56709113560277 L 341.8571428571429 284.74639059111547 L 350.42857142857144 295.74837397801855 L 359 306.46311311508225 L 367.5714285714286 316.78354987067087 L 376.14285714285717 326.6065658522055 L 384.7142857142858 335.8340127310559 L 393.2857142857143 344.3736929081971 L 401.85714285714283 352.14028072214194 L 410.42857142857144 359.05617499474624 L 419 365.0522743965287 L 427.57142857142856 370.06866788431364 L 436.1428571428572 374.0552333125706 L 444.7142857142857 376.9721382373234 L 453.28571428571433 378.79023790876477 L 461.8571428571429 379.49136647596134 L 470.4285714285715 379.0685184940321 L 479.00000000000006 377.5259189202374 L 487.57142857142856 374.8789808996031 L 496.14285714285717 371.15415176186985 L 504.7142857142857 366.3886487685172 L 513.2857142857143 360.63008725018886 L 521.8571428571429 353.93600485004856 L 530.4285714285714 346.37328662666914 L 539 338.0174967606361 L 547.5714285714286 328.95212354223423 L 556.1428571428571 319.2677451840476 L 564.7142857142858 309.0611247934015 L 573.2857142857142 298.4342435473792 " stroke="steelblue" stroke-width="2" fill="none" /><line x1="59" y1="267" x2="659" y2="267" stroke="black" stroke-width="1" stroke-dasharray="6 4" /><text x="655" y="263" font-size="10" text-anchor="end">y = 0</text><line x1="193.57142857142858" y1="42" x2="193.57142857142858" y2="492" stroke="crimson" stroke-width="1" stroke-dasharray="6 4" /><text x="197.57142857142858" y="54" font-size="10" text-anchor="start">π/2</text><line x1="144.71428571428572" y1="137.625" x2="187.9001826648293" y2="152.54118151252328" stroke="crimson" stroke-width="1" /><path d="M187.9001826648293,152.54118151252328 L179.03264246437905,153.7102541336205 L181.64440044768136,146.14859292482143 Z" stroke="crimson" stroke-width="1" fill="crimson" /><text x="144.71428571428572" y="131.625" font-size="12" text-anchor="middle">peak</text></svg>