<svg xmlns="http://www.w3.org/2000/svg" width="673" height="541" fill="black"><rect width="100%" height="100%" fill="white" /><line x1="59" y1="492" x2="659" y2="492" stroke="black" stroke-width="1" /><line x1="59" y1="42" x2="59" y2="492" stroke="black" stroke-width="1" /><line x1="105.15384615384616" y1="42" x2="105.15384615384616" y2="492" stroke="#ccc" stroke-width="1" /><line x1="151.30769230769232" y1="42" x2="151.30769230769232" y2="492" stroke="#ccc" stroke-width="1" /><line x1="197.46153846153848" y1="42" x2="197.46153846153848" y2="492" stroke="#ccc" stroke-width="1" /><line x1="243.6153846153846" y1="42" x2="243.6153846153846" y2="492" stroke="#ccc" stroke-width="1" /><line x1="289.7692307692308" y1="42" x2="289.7692307692308" y2="492" stroke="#ccc" stroke-width="1" /><line x1="335.92307692307696" y1="42" x2="335.92307692307696" y2="492" stroke="#ccc" stroke-width="1" /><line x1="382.07692307692304" y1="42" x2="382.07692307692304" y2="492" stroke="#ccc" stroke-width="1" /><line x1="428.2307692307692" y1="42" x2="428.2307692307692" y2="492" stroke="#ccc" stroke-width="1" /><line x1="474.38461538461536" y1="42" x2="474.38461538461536" y2="492" stroke="#ccc" stroke-width="1" /><line x1="520.5384615384615" y1="42" x2="520.5384615384615" y2="492" stroke="#ccc" stroke-width="1" /><line x1="566.6923076923076" y1="42" x2="566.6923076923076" y2="492" stroke="#ccc" stroke-width="1" /><line x1="612.8461538461539" y1="42" x2="612.8461538461539" y2="492" stroke="#ccc" stroke-width="1" /><line x1="659" y1="42" x2="659" y2="492" stroke="#ccc" stroke-width="1" /><line x1="59" y1="407.625" x2="659" y2="407.625" stroke="#ccc" stroke-width="1" /><line x1="59" y1="360.75" x2="659" y2="360.75" stroke="#ccc" stroke-width="1" /><line x1="59" y1="313.875" x2="659" y2="313.875" stroke="#ccc" stroke-width="1" /><line x1="59" y1="267" x2="659" y2="267" stroke="#ccc" stroke-width="1" /><line x1="59" y1="220.125" x2="659" y2="220.125" stroke="#ccc" stroke-width="1" /><line x1="59" y1="173.25000000000006" x2="659" y2="173.25000000000006" stroke="#ccc" stroke-width="1" /><line x1="59" y1="126.375" x2="659" y2="126.375" stroke="#ccc" stroke-width="1" /><line x1="59" y1="79.5" x2="659" y2="79.5" stroke="#ccc" stroke-width="1" /><line x1="59" y1="492" x2="59" y2="497" stroke="black" stroke-width="1" /><text x="59" y="507" font-size="10" text-anchor="middle">0</text><line x1="105.15384615384616" y1="492" x2="105.15384615384616" y2="497" stroke="black" stroke-width="1" /><text x="105.15384615384616" y="507" font-size="10" text-anchor="middle">0.5</text><line x1="151.30769230769232" y1="492" x2="151.30769230769232" y2="497" stroke="black" stroke-width="1" /><text x="151.30769230769232" y="507" font-size="10" text-anchor="middle">1</text><line x1="197.46153846153848" y1="492" x2="197.46153846153848" y2="497" stroke="black" stroke-width="1" /><text x="197.46153846153848" y="507" font-size="10" text-anchor="middle">1.5</text><line x1="243.6153846153846" y1="492" x2="243.6153846153846" y2="497" stroke="black" stroke-width="1" /><text x="243.6153846153846" y="507" font-size="10" text-anchor="middle">2</text><line x1="289.7692307692308" y1="492" x2="289.7692307692308" y2="497" stroke="black" stroke-width="1" /><text x="289.7692307692308" y="507" font-size="10" text-anchor="middle">2.5</text><line x1="335.92307692307696" y1="492" x2="335.92307692307696" y2="497" stroke="black" stroke-width="1" /><text x="335.92307692307696" y="507" font-size="10" text-anchor="middle">3</text><line x1="382.07692307692304" y1="492" x2="382.07692307692304" y2="497" stroke="black" stroke-width="1" /><text x="382.07692307692304" y="507" font-size="10" text-anchor="middle">3.5</text><line x1="428.2307692307692" y1="492" x2="428.2307692307692" y2="497" stroke="black" stroke-width="1" /><text x="428.2307692307692" y="507" font-size="10" text-anchor="middle">4</text><line x1="474.38461538461536" y1="492" x2="474.38461538461536" y2="497" stroke="black" stroke-width="1" /><text x="474.38461538461536" y="507" font-size="10" text-anchor="middle">4.5</text><line x1="520.5384615384615" y1="492" x2="520.5384615384615" y2="497" stroke="black" stroke-width="1" /><text x="520.5384615384615" y="507" font-size="10" text-anchor="middle">5</text><line x1="566.6923076923076" y1="492" x2="566.6923076923076" y2="497" stroke="black" stroke-width="1" /><text x="566.6923076923076" y="507" font-size="10" text-anchor="middle">5.5</text><line x1="612.8461538461539" y1="492" x2="612.8461538461539" y2="497" stroke="black" stroke-width="1" /><text x="612.8461538461539" y="507" font-size="10" text-anchor="middle">6</text><line x1="659" y1="492" x2="659" y2="497" stroke="black" stroke-width="1" /><text x="659" y="507" font-size="10" text-anchor="middle">6.5</text><line x1="54" y1="454.5" x2="59" y2="454.5" stroke="black" stroke-width="1" /><text x="51" y="458" font-size="10" text-anchor="end">-1</text><line x1="54" y1="407.625" x2="59" y2="407.625" stroke="black" stroke-width="1" /><text x="51" y="411.125" font-size="10" text-anchor="end">-0.75</text><line x1="54" y1="360.75" x2="59" y2="360.75" stroke="black" stroke-width="1" /><text x="51" y="364.25" font-size="10" text-anchor="end">-0.5</text><line x1="54" y1="313.875" x2="59" y2="313.875" stroke="black" stroke-width="1" /><text x="51" y="317.375" font-size="10" text-anchor="end">-0.25</text><line x1="54" y1="267" x2="59" y2="267" stroke="black" stroke-width="1" /><text x="51" y="270.5" font-size="10" text-anchor="end">0</text><line x1="54" y1="220.125" x2="59" y2="220.125" stroke="black" stroke-width="1" /><text x="51" y="223.625" font-size="10" text-anchor="end">0.25</text><line x1="54" y1="173.25000000000006" x2="59" y2="173.25000000000006" stroke="black" stroke-width="1" /><text x="51" y="176.75000000000006" font-size="10" text-anchor="end">0.5</text><line x1="54" y1="126.375" x2="59" y2="126.375" stroke="black" stroke-width="1" /><text x="51" y="129.875" font-size="10" text-anchor="end">0.75</text><line x1="54" y1="79.5" x2="59" y2="79.5" stroke="black" stroke-width="1" /><text x="51" y="83" font-size="10" text-anchor="end">1</text><text x="336.5" y="534" font-size="14" text-anchor="middle">X</text><text x="14" y="270.5" font-size="14" text-anchor="middle" transform="rotate(-90,14,270.5)">Y</text><text x="336.5" y="21" font-size="16" text-anchor="middle">Annotations</text><rect x="59" y="60.75000000000006" width="600" height="206.24999999999994" fill="steelblue" fill-opacity="0.08" /><path d="M 59 267 L 68.23076923076923 248.28123437871972 L 77.46153846153847 229.74950047592603 L 86.6923076923077 211.58996125099884 L 95.92307692307693 193.984060817128 L 105.15384615384616 177.10771151171195 L 114.38461538461539 161.1295362384309 L 123.61538461538461 146.20918364293294 L 132.84615384615387 132.4957329563395 L 142.0769230769231 120.1262044448469 L 151.30769230769232 109.22419034851941 L 160.53846153846155 99.89861998848085 L 169.76923076923077 92.2426713811451 L 179 86.33284023427632 L 188.23076923076923 82.2281756271637 L 197.46153846153848 79.96969001173977 L 206.6923076923077 79.57994942971783 L 215.92307692307693 81.06284804016212 L 225.15384615384616 84.40356921033845 L 234.3846153846154 89.56873355860978 L 243.6153846153846 96.50673247018466 L 252.84615384615387 105.1482437533362 L 262.0769230769231 115.40692428382687 L 271.3076923076923 127.18027271686503 L 280.53846153846155 140.35065364665928 L 289.7692307692308 154.78647298050817 L 299 170.34349278347543 L 308.2307692307693 186.86627245615693 L 317.46153846153845 204.1897218457679 L 326.69230769230774 222.1407507723784 L 335.92307692307696 240.53999848877493 L 345.1538461538462 259.2036257937581 L 354.3846153846154 277.9451518926713 L 363.61538461538464 296.5773176518591 L 372.84615384615387 314.91395663003095 L 382.07692307692304 332.77185519180375 L 391.3076923076923 349.9725831177848 L 400.53846153846155 366.3442764203425 L 409.7692307692308 381.7233545517598 L 419.00000000000006 395.9561548469951 L 428.2307692307692 408.9004678702365 L 437.4615384615385 420.426958324577 L 446.69230769230774 430.42045732754775 L 455.9230769230769 438.7811131405228 L 465.1538461538462 445.4253888542842 L 474.38461538461536 450.28689706220564 L 483.61538461538464 453.3170631812746 L 492.8461538461538 454.48561079326885 L 502.07692307692315 453.7808641567201 L 511.3076923076924 451.2098648670623 L 520.5384615384615 446.79830149933844 L 529.7692307692308 440.59025293644976 L 539 432.64774794752867 L 548.2307692307693 423.05014541698137 L 557.4615384615386 411.8933414167476 L 566.6923076923076 399.2888110444485 L 575.9230769230769 385.3624946010601 L 585.1538461538462 370.253539237057 L 594.3846153846155 354.11290864007935 L 603.6153846153846 337.10187465566923 L 612.8461538461539 319.3904059122986 " stroke="steelblue" stroke-width="2" fill="none" /><line x1="59" y1="267" x2="659" y2="267" stroke="black" stroke-width="1" stroke-dasharray="6 4" /><text x="655" y="263" font-size="10" text-anchor="end">y = 0</text><line x1="203.92307692307693" y1="42" x2="203.92307692307693" y2="492" stroke="crimson" stroke-width="1" stroke-dasharray="6 4" /><text x="207.92307692307693" y="54" font-size="10" text-anchor="start">π/2</text><line x1="151.30769230769232" y1="51.37500000000006" x2="198.63161167692945" y2="76.67150295230604" stroke="crimson" stroke-width="1" /><path d="M198.63161167692945,76.67150295230604 L189.6906599836035,76.42781705281241 L193.4619893805288,69.3725300579491 Z" stroke="crimson" stroke-width="1" fill="crimson" /><text x="151.30769230769232" y="45.37500000000006" font-size="12" text-anchor="middle">peak</text></svg>