<svg xmlns="http://www.w3.org/2000/svg" width="673" height="541" fill="black"><rect width="100%" height="100%" fill="white" /><line x1="59" y1="492" x2="659" y2="492" stroke="black" stroke-width="1" /><line x1="59" y1="42" x2="59" y2="492" stroke="black" stroke-width="1" /><line x1="113.54545454545455" y1="42" x2="113.54545454545455" y2="492" stroke="#ccc" stroke-width="1" /><line x1="168.0909090909091" y1="42" x2="168.0909090909091" y2="492" stroke="#ccc" stroke-width="1" /><line x1="222.63636363636363" y1="42" x2="222.63636363636363" y2="492" stroke="#ccc" stroke-width="1" /><line x1="277.1818181818182" y1="42" x2="277.1818181818182" y2="492" stroke="#ccc" stroke-width="1" /><line x1="331.7272727272727" y1="42" x2="331.7272727272727" y2="492" stroke="#ccc" stroke-width="1" /><line x1="386.27272727272725" y1="42" x2="386.27272727272725" y2="492" stroke="#ccc" stroke-width="1" /><line x1="440.81818181818176" y1="42" x2="440.81818181818176" y2="492" stroke="#ccc" stroke-width="1" /><line x1="495.3636363636364" y1="42" x2="495.3636363636364" y2="492" stroke="#ccc" stroke-width="1" /><line x1="549.9090909090909" y1="42" x2="549.9090909090909" y2="492" stroke="#ccc" stroke-width="1" /><line x1="604.4545454545454" y1="42" x2="604.4545454545454" y2="492" stroke="#ccc" stroke-width="1" /><line x1="659" y1="42" x2="659" y2="492" stroke="#ccc" stroke-width="1" /><line x1="59" y1="451.09090909090907" x2="659" y2="451.09090909090907" stroke="#ccc" stroke-width="1" /><line x1="59" y1="410.1818181818182" x2="659" y2="410.1818181818182" stroke="#ccc" stroke-width="1" /><line x1="59" y1="369.27272727272725" x2="659" y2="369.27272727272725" stroke="#ccc" stroke-width="1" /><line x1="59" y1="328.3636363636364" x2="659" y2="328.3636363636364" stroke="#ccc" stroke-width="1" /><line x1="59" y1="287.4545454545455" x2="659" y2="287.4545454545455" stroke="#ccc" stroke-width="1" /><line x1="59" y1="246.54545454545456" x2="659" y2="246.54545454545456" stroke="#ccc" stroke-width="1" /><line x1="59" y1="205.63636363636368" x2="659" y2="205.63636363636368" stroke="#ccc" stroke-width="1" /><line x1="59" y1="164.7272727272727" x2="659" y2="164.7272727272727" stroke="#ccc" stroke-width="1" /><line x1="59" y1="123.81818181818187" x2="659" y2="123.81818181818187" stroke="#ccc" stroke-width="1" /><line x1="59" y1="82.90909090909093" x2="659" y2="82.90909090909093" stroke="#ccc" stroke-width="1" /><line x1="59" y1="42" x2="659" y2="42" stroke="#ccc" stroke-width="1" /><line x1="59" y1="492" x2="59" y2="497" stroke="black" stroke-width="1" /><text x="59" y="507" font-size="10" text-anchor="middle">0.0%</text><line x1="113.54545454545455" y1="492" x2="113.54545454545455" y2="497" stroke="black" stroke-width="1" /><text x="113.54545454545455" y="507" font-size="10" text-anchor="middle">10.0%</text><line x1="168.0909090909091" y1="492" x2="168.0909090909091" y2="497" stroke="black" stroke-width="1" /><text x="168.0909090909091" y="507" font-size="10" text-anchor="middle">20.0%</text><line x1="222.63636363636363" y1="492" x2="222.63636363636363" y2="497" stroke="black" stroke-width="1" /><text x="222.63636363636363" y="507" font-size="10" text-anchor="middle">30.0%</text><line x1="277.1818181818182" y1="492" x2="277.1818181818182" y2="497" stroke="black" stroke-width="1" /><text x="277.1818181818182" y="507" font-size="10" text-anchor="middle">40.0%</text><line x1="331.7272727272727" y1="492" x2="331.7272727272727" y2="497" stroke="black" stroke-width="1" /><text x="331.7272727272727" y="507" font-size="10" text-anchor="middle">50.0%</text><line x1="386.27272727272725" y1="492" x2="386.27272727272725" y2="497" stroke="black" stroke-width="1" /><text x="386.27272727272725" y="507" font-size="10" text-anchor="middle">60.0%</text><line x1="440.81818181818176" y1="492" x2="440.81818181818176" y2="497" stroke="black" stroke-width="1" /><text x="440.81818181818176" y="507" font-size="10" text-anchor="middle">70.0%</text><line x1="495.3636363636364" y1="492" x2="495.3636363636364" y2="497" stroke="black" stroke-width="1" /><text x="495.3636363636364" y="507" font-size="10" text-anchor="middle">80.0%</text><line x1="549.9090909090909" y1="492" x2="549.9090909090909" y2="497" stroke="black" stroke-width="1" /><text x="549.9090909090909" y="507" font-size="10" text-anchor="middle">90.0%</text><line x1="604.4545454545454" y1="492" x2="604.4545454545454" y2="497" stroke="black" stroke-width="1" /><text x="604.4545454545454" y="507" font-size="10" text-anchor="middle">100.0%</text><line x1="659" y1="492" x2="659" y2="497" stroke="black" stroke-width="1" /><text x="659" y="507" font-size="10" text-anchor="middle">110.0%</text><line x1="54" y1="492" x2="59" y2="492" stroke="black" stroke-width="1" /><text x="51" y="495.5" font-size="10" text-anchor="end">0.0%</text><line x1="54" y1="451.09090909090907" x2="59" y2="451.09090909090907" stroke="black" stroke-width="1" /><text x="51" y="454.59090909090907" font-size="10" text-anchor="end">10.0%</text><line x1="54" y1="410.1818181818182" x2="59" y2="410.1818181818182" stroke="black" stroke-width="1" /><text x="51" y="413.6818181818182" font-size="10" text-anchor="end">20.0%</text><line x1="54" y1="369.27272727272725" x2="59" y2="369.27272727272725" stroke="black" stroke-width="1" /><text x="51" y="372.77272727272725" font-size="10" text-anchor="end">30.0%</text><line x1="54" y1="328.3636363636364" x2="59" y2="328.3636363636364" stroke="black" stroke-width="1" /><text x="51" y="331.8636363636364" font-size="10" text-anchor="end">40.0%</text><line x1="54" y1="287.4545454545455" x2="59" y2="287.4545454545455" stroke="black" stroke-width="1" /><text x="51" y="290.9545454545455" font-size="10" text-anchor="end">50.0%</text><line x1="54" y1="246.54545454545456" x2="59" y2="246.54545454545456" stroke="black" stroke-width="1" /><text x="51" y="250.04545454545456" font-size="10" text-anchor="end">60.0%</text><line x1="54" y1="205.63636363636368" x2="59" y2="205.63636363636368" stroke="black" stroke-width="1" /><text x="51" y="209.13636363636368" font-size="10" text-anchor="end">70.0%</text><line x1="54" y1="164.7272727272727" x2="59" y2="164.7272727272727" stroke="black" stroke-width="1" /><text x="51" y="168.2272727272727" font-size="10" text-anchor="end">80.0%</text><line x1="54" y1="123.81818181818187" x2="59" y2="123.81818181818187" stroke="black" stroke-width="1" /><text x="51" y="127.31818181818187" font-size="10" text-anchor="end">90.0%</text><line x1="54" y1="82.90909090909093" x2="59" y2="82.90909090909093" stroke="black" stroke-width="1" /><text x="51" y="86.40909090909093" font-size="10" text-anchor="end">100.0%</text><line x1="54" y1="42" x2="59" y2="42" stroke="black" stroke-width="1" /><text x="51" y="45.5" font-size="10" text-anchor="end">110.0%</text><text x="336.5" y="21" font-size="16" text-anchor="middle">Percent</text><circle cx="59" cy="492" r="5" fill="steelblue" /><circle cx="195.36363636363635" cy="389.72727272727275" r="5" fill="steelblue" /><circle cx="331.7272727272727" cy="287.4545454545455" r="5" fill="steelblue" /><circle cx="468.09090909090907" cy="185.1818181818182" r="5" fill="steelblue" /><circle cx="604.4545454545454" cy="82.90909090909093" r="5" fill="steelblue" /></svg>