<svg xmlns="http://www.w3.org/2000/svg" width="560" height="320" font-family="DejaVu Sans, Verdana, Liberation Sans, Arial, sans-serif" fill="black"><!-- Generated by kuva 0.5.0 --><rect width="100%" height="100%" fill="white" /><defs><clipPath id="kuva-clip-7"><rect x="61.300000000000004" y="46.95" width="484.7" height="199.07"/></clipPath></defs><line x1="61.300000000000004" y1="217.58" x2="546" y2="217.58" stroke="#cccccc" stroke-width="1" /><line x1="61.300000000000004" y1="189.15" x2="546" y2="189.15" stroke="#cccccc" stroke-width="1" /><line x1="61.300000000000004" y1="160.71" x2="546" y2="160.71" stroke="#cccccc" stroke-width="1" /><line x1="61.300000000000004" y1="132.27" x2="546" y2="132.27" stroke="#cccccc" stroke-width="1" /><line x1="61.300000000000004" y1="103.83" x2="546" y2="103.83" stroke="#cccccc" stroke-width="1" /><line x1="61.300000000000004" y1="75.39" x2="546" y2="75.39" stroke="#cccccc" stroke-width="1" /><line x1="61.300000000000004" y1="46.95" x2="546" y2="46.95" stroke="#cccccc" stroke-width="1" /><line x1="61.300000000000004" y1="246.02" x2="546" y2="246.02" stroke="#000000" stroke-width="1" /><line x1="61.300000000000004" y1="46.95" x2="61.300000000000004" y2="246.02" stroke="#000000" stroke-width="1" /><g font-family="monospace"><text x="76.44" y="262.16" font-size="12" text-anchor="end" transform="rotate(-90,76.44,262.16)">ACA</text><line x1="76.44" y1="246.02" x2="76.44" y2="251.02" stroke="#000000" stroke-width="1" /><text x="106.74000000000001" y="262.16" font-size="12" text-anchor="end" transform="rotate(-90,106.74000000000001,262.16)">ACC</text><line x1="106.74000000000001" y1="246.02" x2="106.74000000000001" y2="251.02" stroke="#000000" stroke-width="1" /><text x="137.03" y="262.16" font-size="12" text-anchor="end" transform="rotate(-90,137.03,262.16)">ACG</text><line x1="137.03" y1="246.02" x2="137.03" y2="251.02" stroke="#000000" stroke-width="1" /><text x="167.33" y="262.16" font-size="12" text-anchor="end" transform="rotate(-90,167.33,262.16)">ACT</text><line x1="167.33" y1="246.02" x2="167.33" y2="251.02" stroke="#000000" stroke-width="1" /><text x="197.62" y="262.16" font-size="12" text-anchor="end" transform="rotate(-90,197.62,262.16)">CCA</text><line x1="197.62" y1="246.02" x2="197.62" y2="251.02" stroke="#000000" stroke-width="1" /><text x="227.91" y="262.16" font-size="12" text-anchor="end" transform="rotate(-90,227.91,262.16)">CCC</text><line x1="227.91" y1="246.02" x2="227.91" y2="251.02" stroke="#000000" stroke-width="1" /><text x="258.21" y="262.16" font-size="12" text-anchor="end" transform="rotate(-90,258.21,262.16)">CCG</text><line x1="258.21" y1="246.02" x2="258.21" y2="251.02" stroke="#000000" stroke-width="1" /><text x="288.5" y="262.16" font-size="12" text-anchor="end" transform="rotate(-90,288.5,262.16)">CCT</text><line x1="288.5" y1="246.02" x2="288.5" y2="251.02" stroke="#000000" stroke-width="1" /><text x="318.8" y="262.16" font-size="12" text-anchor="end" transform="rotate(-90,318.8,262.16)">GCA</text><line x1="318.8" y1="246.02" x2="318.8" y2="251.02" stroke="#000000" stroke-width="1" /><text x="349.09000000000003" y="262.16" font-size="12" text-anchor="end" transform="rotate(-90,349.09000000000003,262.16)">GCC</text><line x1="349.09000000000003" y1="246.02" x2="349.09000000000003" y2="251.02" stroke="#000000" stroke-width="1" /><text x="379.38" y="262.16" font-size="12" text-anchor="end" transform="rotate(-90,379.38,262.16)">GCG</text><line x1="379.38" y1="246.02" x2="379.38" y2="251.02" stroke="#000000" stroke-width="1" /><text x="409.68" y="262.16" font-size="12" text-anchor="end" transform="rotate(-90,409.68,262.16)">GCT</text><line x1="409.68" y1="246.02" x2="409.68" y2="251.02" stroke="#000000" stroke-width="1" /><text x="439.97" y="262.16" font-size="12" text-anchor="end" transform="rotate(-90,439.97,262.16)">TCA</text><line x1="439.97" y1="246.02" x2="439.97" y2="251.02" stroke="#000000" stroke-width="1" /><text x="470.27" y="262.16" font-size="12" text-anchor="end" transform="rotate(-90,470.27,262.16)">TCC</text><line x1="470.27" y1="246.02" x2="470.27" y2="251.02" stroke="#000000" stroke-width="1" /><text x="500.56" y="262.16" font-size="12" text-anchor="end" transform="rotate(-90,500.56,262.16)">TCG</text><line x1="500.56" y1="246.02" x2="500.56" y2="251.02" stroke="#000000" stroke-width="1" /><text x="530.85" y="262.16" font-size="12" text-anchor="end" transform="rotate(-90,530.85,262.16)">TCT</text><line x1="530.85" y1="246.02" x2="530.85" y2="251.02" stroke="#000000" stroke-width="1" /><line x1="56.300000000000004" y1="246.02" x2="61.300000000000004" y2="246.02" stroke="#000000" stroke-width="1" /><text x="53.300000000000004" y="250.4" font-size="12" text-anchor="end">0</text><line x1="56.300000000000004" y1="217.58" x2="61.300000000000004" y2="217.58" stroke="#000000" stroke-width="1" /><text x="53.300000000000004" y="221.96" font-size="12" text-anchor="end">5</text><line x1="56.300000000000004" y1="189.15" x2="61.300000000000004" y2="189.15" stroke="#000000" stroke-width="1" /><text x="53.300000000000004" y="193.52" font-size="12" text-anchor="end">10</text><line x1="56.300000000000004" y1="160.71" x2="61.300000000000004" y2="160.71" stroke="#000000" stroke-width="1" /><text x="53.300000000000004" y="165.08" font-size="12" text-anchor="end">15</text><line x1="56.300000000000004" y1="132.27" x2="61.300000000000004" y2="132.27" stroke="#000000" stroke-width="1" /><text x="53.300000000000004" y="136.64000000000001" font-size="12" text-anchor="end">20</text><line x1="56.300000000000004" y1="103.83" x2="61.300000000000004" y2="103.83" stroke="#000000" stroke-width="1" /><text x="53.300000000000004" y="108.2" font-size="12" text-anchor="end">25</text><line x1="56.300000000000004" y1="75.39" x2="61.300000000000004" y2="75.39" stroke="#000000" stroke-width="1" /><text x="53.300000000000004" y="79.77" font-size="12" text-anchor="end">30</text><line x1="56.300000000000004" y1="46.95" x2="61.300000000000004" y2="46.95" stroke="#000000" stroke-width="1" /><text x="53.300000000000004" y="51.33" font-size="12" text-anchor="end">35</text></g><text x="303.65000000000003" y="313" font-size="14" text-anchor="middle">Context</text><text x="17.3" y="146.49" font-size="14" text-anchor="middle" transform="rotate(-90,17.3,146.49)">Count</text><text x="303.65000000000003" y="29.71" font-size="18" text-anchor="middle">C&gt;T by trinucleotide context</text><g clip-path="url(#kuva-clip-7)"><rect x="64.33" y="194.83" width="24.240000000000002" height="51.19" fill="#e32926" /><rect x="94.62" y="223.27" width="24.240000000000002" height="22.75" fill="#e32926" /><rect x="124.91" y="69.7" width="24.240000000000002" height="176.32" fill="#e32926" /><rect x="155.21" y="206.21" width="24.240000000000002" height="39.81" fill="#e32926" /><rect x="185.5" y="211.9" width="24.240000000000002" height="34.13" fill="#e32926" /><rect x="215.8" y="217.58" width="24.240000000000002" height="28.44" fill="#e32926" /><rect x="246.09" y="109.52" width="24.240000000000002" height="136.51" fill="#e32926" /><rect x="276.38" y="211.9" width="24.240000000000002" height="34.13" fill="#e32926" /><rect x="306.68" y="200.52" width="24.240000000000002" height="45.5" fill="#e32926" /><rect x="336.97" y="217.58" width="24.240000000000002" height="28.44" fill="#e32926" /><rect x="367.27" y="92.45" width="24.240000000000002" height="153.57" fill="#e32926" /><rect x="397.56" y="211.9" width="24.240000000000002" height="34.13" fill="#e32926" /><rect x="427.85" y="206.21" width="24.240000000000002" height="39.81" fill="#e32926" /><rect x="458.15000000000003" y="211.9" width="24.240000000000002" height="34.13" fill="#e32926" /><rect x="488.44" y="120.89" width="24.240000000000002" height="125.13000000000001" fill="#e32926" /><rect x="518.74" y="200.52" width="24.240000000000002" height="45.5" fill="#e32926" /></g></svg>