<svg xmlns="http://www.w3.org/2000/svg" width="673" height="541" fill="black"><rect width="100%" height="100%" fill="white" /><line x1="59" y1="492" x2="659" y2="492" stroke="black" stroke-width="1" /><line x1="59" y1="42" x2="59" y2="492" stroke="black" stroke-width="1" /><line x1="109" y1="42" x2="109" y2="492" stroke="#ccc" stroke-width="1" /><line x1="159" y1="42" x2="159" y2="492" stroke="#ccc" stroke-width="1" /><line x1="209" y1="42" x2="209" y2="492" stroke="#ccc" stroke-width="1" /><line x1="259" y1="42" x2="259" y2="492" stroke="#ccc" stroke-width="1" /><line x1="309" y1="42" x2="309" y2="492" stroke="#ccc" stroke-width="1" /><line x1="359" y1="42" x2="359" y2="492" stroke="#ccc" stroke-width="1" /><line x1="409" y1="42" x2="409" y2="492" stroke="#ccc" stroke-width="1" /><line x1="459" y1="42" x2="459" y2="492" stroke="#ccc" stroke-width="1" /><line x1="509" y1="42" x2="509" y2="492" stroke="#ccc" stroke-width="1" /><line x1="559" y1="42" x2="559" y2="492" stroke="#ccc" stroke-width="1" /><line x1="609" y1="42" x2="609" y2="492" stroke="#ccc" stroke-width="1" /><line x1="659" y1="42" x2="659" y2="492" stroke="#ccc" stroke-width="1" /><line x1="59" y1="447" x2="659" y2="447" stroke="#ccc" stroke-width="1" /><line x1="59" y1="402" x2="659" y2="402" stroke="#ccc" stroke-width="1" /><line x1="59" y1="357" x2="659" y2="357" stroke="#ccc" stroke-width="1" /><line x1="59" y1="312" x2="659" y2="312" stroke="#ccc" stroke-width="1" /><line x1="59" y1="267" x2="659" y2="267" stroke="#ccc" stroke-width="1" /><line x1="59" y1="222" x2="659" y2="222" stroke="#ccc" stroke-width="1" /><line x1="59" y1="177" x2="659" y2="177" stroke="#ccc" stroke-width="1" /><line x1="59" y1="132" x2="659" y2="132" stroke="#ccc" stroke-width="1" /><line x1="59" y1="87" x2="659" y2="87" stroke="#ccc" stroke-width="1" /><line x1="59" y1="42" x2="659" y2="42" stroke="#ccc" stroke-width="1" /><line x1="59" y1="492" x2="59" y2="497" stroke="black" stroke-width="1" /><text x="59" y="507" font-size="10" text-anchor="middle">0</text><line x1="109" y1="492" x2="109" y2="497" stroke="black" stroke-width="1" /><text x="109" y="507" font-size="10" text-anchor="middle">2.5</text><line x1="159" y1="492" x2="159" y2="497" stroke="black" stroke-width="1" /><text x="159" y="507" font-size="10" text-anchor="middle">5</text><line x1="209" y1="492" x2="209" y2="497" stroke="black" stroke-width="1" /><text x="209" y="507" font-size="10" text-anchor="middle">7.5</text><line x1="259" y1="492" x2="259" y2="497" stroke="black" stroke-width="1" /><text x="259" y="507" font-size="10" text-anchor="middle">10</text><line x1="309" y1="492" x2="309" y2="497" stroke="black" stroke-width="1" /><text x="309" y="507" font-size="10" text-anchor="middle">12.5</text><line x1="359" y1="492" x2="359" y2="497" stroke="black" stroke-width="1" /><text x="359" y="507" font-size="10" text-anchor="middle">15</text><line x1="409" y1="492" x2="409" y2="497" stroke="black" stroke-width="1" /><text x="409" y="507" font-size="10" text-anchor="middle">17.5</text><line x1="459" y1="492" x2="459" y2="497" stroke="black" stroke-width="1" /><text x="459" y="507" font-size="10" text-anchor="middle">20</text><line x1="509" y1="492" x2="509" y2="497" stroke="black" stroke-width="1" /><text x="509" y="507" font-size="10" text-anchor="middle">22.5</text><line x1="559" y1="492" x2="559" y2="497" stroke="black" stroke-width="1" /><text x="559" y="507" font-size="10" text-anchor="middle">25</text><line x1="609" y1="492" x2="609" y2="497" stroke="black" stroke-width="1" /><text x="609" y="507" font-size="10" text-anchor="middle">27.5</text><line x1="659" y1="492" x2="659" y2="497" stroke="black" stroke-width="1" /><text x="659" y="507" font-size="10" text-anchor="middle">30</text><line x1="54" y1="492" x2="59" y2="492" stroke="black" stroke-width="1" /><text x="51" y="495.5" font-size="10" text-anchor="end">-2</text><line x1="54" y1="447" x2="59" y2="447" stroke="black" stroke-width="1" /><text x="51" y="450.5" font-size="10" text-anchor="end">0</text><line x1="54" y1="402" x2="59" y2="402" stroke="black" stroke-width="1" /><text x="51" y="405.5" font-size="10" text-anchor="end">2</text><line x1="54" y1="357" x2="59" y2="357" stroke="black" stroke-width="1" /><text x="51" y="360.5" font-size="10" text-anchor="end">4</text><line x1="54" y1="312" x2="59" y2="312" stroke="black" stroke-width="1" /><text x="51" y="315.5" font-size="10" text-anchor="end">6</text><line x1="54" y1="267" x2="59" y2="267" stroke="black" stroke-width="1" /><text x="51" y="270.5" font-size="10" text-anchor="end">8</text><line x1="54" y1="222" x2="59" y2="222" stroke="black" stroke-width="1" /><text x="51" y="225.5" font-size="10" text-anchor="end">10</text><line x1="54" y1="177" x2="59" y2="177" stroke="black" stroke-width="1" /><text x="51" y="180.5" font-size="10" text-anchor="end">12</text><line x1="54" y1="132" x2="59" y2="132" stroke="black" stroke-width="1" /><text x="51" y="135.5" font-size="10" text-anchor="end">14</text><line x1="54" y1="87" x2="59" y2="87" stroke="black" stroke-width="1" /><text x="51" y="90.5" font-size="10" text-anchor="end">16</text><line x1="54" y1="42" x2="59" y2="42" stroke="black" stroke-width="1" /><text x="51" y="45.5" font-size="10" text-anchor="end">18</text><text x="336.5" y="534" font-size="14" text-anchor="middle">x</text><text x="14" y="270.5" font-size="14" text-anchor="middle" transform="rotate(-90,14,270.5)">y</text><text x="336.5" y="21" font-size="16" text-anchor="middle">Band Attached to Scatter</text><path d="M 59 345.75 L 79 336.75 L 99 327.75 L 119 318.75 L 139 309.75 L 159 300.75 L 179 291.75 L 199 282.75 L 219 273.75 L 239 264.75 L 259 255.75 L 279 246.74999999999997 L 299 237.74999999999997 L 319 228.75 L 339 219.74999999999994 L 359 210.75 L 379 201.75 L 399 192.75 L 419 183.75 L 439 174.74999999999994 L 459 165.75 L 479 156.75 L 498.99999999999994 147.75 L 519 138.75 L 539 129.75 L 559 120.75 L 579 111.75 L 599 102.75 L 619 93.74999999999994 L 639 84.75 L 639 197.25 L 619 206.25 L 599 215.25 L 579 224.25 L 559 233.25 L 539 242.24999999999997 L 519 251.25 L 498.99999999999994 260.25 L 479 269.25 L 459 278.25 L 439 287.25 L 419 296.25 L 399 305.25 L 379 314.25 L 359 323.25 L 339 332.25 L 319 341.25 L 299 350.25 L 279 359.25 L 259 368.25 L 239 377.25 L 219 386.25 L 199 395.25 L 179 404.25 L 159 413.25 L 139 422.25 L 119 431.25 L 99 440.25 L 79 449.25 L 59 458.25 Z" stroke="none" stroke-width="0" fill="seagreen" fill-opacity="0.2" /><circle cx="59" cy="402" r="3" fill="seagreen" /><circle cx="79" cy="393" r="3" fill="seagreen" /><circle cx="99" cy="384" r="3" fill="seagreen" /><circle cx="119" cy="375" r="3" fill="seagreen" /><circle cx="139" cy="366" r="3" fill="seagreen" /><circle cx="159" cy="357" r="3" fill="seagreen" /><circle cx="179" cy="348" r="3" fill="seagreen" /><circle cx="199" cy="339" r="3" fill="seagreen" /><circle cx="219" cy="330" r="3" fill="seagreen" /><circle cx="239" cy="321" r="3" fill="seagreen" /><circle cx="259" cy="312" r="3" fill="seagreen" /><circle cx="279" cy="303" r="3" fill="seagreen" /><circle cx="299" cy="294" r="3" fill="seagreen" /><circle cx="319" cy="285" r="3" fill="seagreen" /><circle cx="339" cy="276" r="3" fill="seagreen" /><circle cx="359" cy="267" r="3" fill="seagreen" /><circle cx="379" cy="258" r="3" fill="seagreen" /><circle cx="399" cy="248.99999999999997" r="3" fill="seagreen" /><circle cx="419" cy="240.00000000000003" r="3" fill="seagreen" /><circle cx="439" cy="230.99999999999994" r="3" fill="seagreen" /><circle cx="459" cy="222" r="3" fill="seagreen" /><circle cx="479" cy="213" r="3" fill="seagreen" /><circle cx="498.99999999999994" cy="204" r="3" fill="seagreen" /><circle cx="519" cy="195" r="3" fill="seagreen" /><circle cx="539" cy="186" r="3" fill="seagreen" /><circle cx="559" cy="177" r="3" fill="seagreen" /><circle cx="579" cy="168" r="3" fill="seagreen" /><circle cx="599" cy="159" r="3" fill="seagreen" /><circle cx="619" cy="150" r="3" fill="seagreen" /><circle cx="639" cy="141" r="3" fill="seagreen" /></svg>