<svg xmlns="http://www.w3.org/2000/svg" width="673" height="541" fill="black"><rect width="100%" height="100%" fill="white" /><line x1="59" y1="492" x2="659" y2="492" stroke="black" stroke-width="1" /><line x1="59" y1="42" x2="59" y2="492" stroke="black" stroke-width="1" /><line x1="105.15384615384616" y1="42" x2="105.15384615384616" y2="492" stroke="#ccc" stroke-width="1" /><line x1="151.30769230769232" y1="42" x2="151.30769230769232" y2="492" stroke="#ccc" stroke-width="1" /><line x1="197.46153846153848" y1="42" x2="197.46153846153848" y2="492" stroke="#ccc" stroke-width="1" /><line x1="243.6153846153846" y1="42" x2="243.6153846153846" y2="492" stroke="#ccc" stroke-width="1" /><line x1="289.7692307692308" y1="42" x2="289.7692307692308" y2="492" stroke="#ccc" stroke-width="1" /><line x1="335.92307692307696" y1="42" x2="335.92307692307696" y2="492" stroke="#ccc" stroke-width="1" /><line x1="382.07692307692304" y1="42" x2="382.07692307692304" y2="492" stroke="#ccc" stroke-width="1" /><line x1="428.2307692307692" y1="42" x2="428.2307692307692" y2="492" stroke="#ccc" stroke-width="1" /><line x1="474.38461538461536" y1="42" x2="474.38461538461536" y2="492" stroke="#ccc" stroke-width="1" /><line x1="520.5384615384615" y1="42" x2="520.5384615384615" y2="492" stroke="#ccc" stroke-width="1" /><line x1="566.6923076923076" y1="42" x2="566.6923076923076" y2="492" stroke="#ccc" stroke-width="1" /><line x1="612.8461538461539" y1="42" x2="612.8461538461539" y2="492" stroke="#ccc" stroke-width="1" /><line x1="659" y1="42" x2="659" y2="492" stroke="#ccc" stroke-width="1" /><line x1="59" y1="445.125" x2="659" y2="445.125" stroke="#ccc" stroke-width="1" /><line x1="59" y1="398.25" x2="659" y2="398.25" stroke="#ccc" stroke-width="1" /><line x1="59" y1="351.375" x2="659" y2="351.375" stroke="#ccc" stroke-width="1" /><line x1="59" y1="304.5" x2="659" y2="304.5" stroke="#ccc" stroke-width="1" /><line x1="59" y1="257.625" x2="659" y2="257.625" stroke="#ccc" stroke-width="1" /><line x1="59" y1="210.75000000000006" x2="659" y2="210.75000000000006" stroke="#ccc" stroke-width="1" /><line x1="59" y1="163.87500000000006" x2="659" y2="163.87500000000006" stroke="#ccc" stroke-width="1" /><line x1="59" y1="117.00000000000006" x2="659" y2="117.00000000000006" stroke="#ccc" stroke-width="1" /><line x1="59" y1="70.12500000000006" x2="659" y2="70.12500000000006" stroke="#ccc" stroke-width="1" /><line x1="59" y1="492" x2="59" y2="497" stroke="black" stroke-width="1" /><text x="59" y="507" font-size="10" text-anchor="middle">0</text><line x1="105.15384615384616" y1="492" x2="105.15384615384616" y2="497" stroke="black" stroke-width="1" /><text x="105.15384615384616" y="507" font-size="10" text-anchor="middle">1</text><line x1="151.30769230769232" y1="492" x2="151.30769230769232" y2="497" stroke="black" stroke-width="1" /><text x="151.30769230769232" y="507" font-size="10" text-anchor="middle">2</text><line x1="197.46153846153848" y1="492" x2="197.46153846153848" y2="497" stroke="black" stroke-width="1" /><text x="197.46153846153848" y="507" font-size="10" text-anchor="middle">3</text><line x1="243.6153846153846" y1="492" x2="243.6153846153846" y2="497" stroke="black" stroke-width="1" /><text x="243.6153846153846" y="507" font-size="10" text-anchor="middle">4</text><line x1="289.7692307692308" y1="492" x2="289.7692307692308" y2="497" stroke="black" stroke-width="1" /><text x="289.7692307692308" y="507" font-size="10" text-anchor="middle">5</text><line x1="335.92307692307696" y1="492" x2="335.92307692307696" y2="497" stroke="black" stroke-width="1" /><text x="335.92307692307696" y="507" font-size="10" text-anchor="middle">6</text><line x1="382.07692307692304" y1="492" x2="382.07692307692304" y2="497" stroke="black" stroke-width="1" /><text x="382.07692307692304" y="507" font-size="10" text-anchor="middle">7</text><line x1="428.2307692307692" y1="492" x2="428.2307692307692" y2="497" stroke="black" stroke-width="1" /><text x="428.2307692307692" y="507" font-size="10" text-anchor="middle">8</text><line x1="474.38461538461536" y1="492" x2="474.38461538461536" y2="497" stroke="black" stroke-width="1" /><text x="474.38461538461536" y="507" font-size="10" text-anchor="middle">9</text><line x1="520.5384615384615" y1="492" x2="520.5384615384615" y2="497" stroke="black" stroke-width="1" /><text x="520.5384615384615" y="507" font-size="10" text-anchor="middle">10</text><line x1="566.6923076923076" y1="492" x2="566.6923076923076" y2="497" stroke="black" stroke-width="1" /><text x="566.6923076923076" y="507" font-size="10" text-anchor="middle">11</text><line x1="612.8461538461539" y1="492" x2="612.8461538461539" y2="497" stroke="black" stroke-width="1" /><text x="612.8461538461539" y="507" font-size="10" text-anchor="middle">12</text><line x1="659" y1="492" x2="659" y2="497" stroke="black" stroke-width="1" /><text x="659" y="507" font-size="10" text-anchor="middle">13</text><line x1="54" y1="492" x2="59" y2="492" stroke="black" stroke-width="1" /><text x="51" y="495.5" font-size="10" text-anchor="end">-1</text><line x1="54" y1="445.125" x2="59" y2="445.125" stroke="black" stroke-width="1" /><text x="51" y="448.625" font-size="10" text-anchor="end">-0.75</text><line x1="54" y1="398.25" x2="59" y2="398.25" stroke="black" stroke-width="1" /><text x="51" y="401.75" font-size="10" text-anchor="end">-0.5</text><line x1="54" y1="351.375" x2="59" y2="351.375" stroke="black" stroke-width="1" /><text x="51" y="354.875" font-size="10" text-anchor="end">-0.25</text><line x1="54" y1="304.5" x2="59" y2="304.5" stroke="black" stroke-width="1" /><text x="51" y="308" font-size="10" text-anchor="end">0</text><line x1="54" y1="257.625" x2="59" y2="257.625" stroke="black" stroke-width="1" /><text x="51" y="261.125" font-size="10" text-anchor="end">0.25</text><line x1="54" y1="210.75000000000006" x2="59" y2="210.75000000000006" stroke="black" stroke-width="1" /><text x="51" y="214.25000000000006" font-size="10" text-anchor="end">0.5</text><line x1="54" y1="163.87500000000006" x2="59" y2="163.87500000000006" stroke="black" stroke-width="1" /><text x="51" y="167.37500000000006" font-size="10" text-anchor="end">0.75</text><line x1="54" y1="117.00000000000006" x2="59" y2="117.00000000000006" stroke="black" stroke-width="1" /><text x="51" y="120.50000000000006" font-size="10" text-anchor="end">1</text><line x1="54" y1="70.12500000000006" x2="59" y2="70.12500000000006" stroke="black" stroke-width="1" /><text x="51" y="73.62500000000006" font-size="10" text-anchor="end">1.25</text><text x="336.5" y="534" font-size="14" text-anchor="middle">x</text><text x="14" y="270.5" font-size="14" text-anchor="middle" transform="rotate(-90,14,270.5)">e^(−0.15x) · cos(x)</text><text x="336.5" y="21" font-size="16" text-anchor="middle">Band Attached to Line</text><path d="M 59 79.5 L 66.24982920059183 86.12090497661774 L 73.49965840118367 96.88525742639769 L 80.74948760177548 111.33761216402274 L 87.99931680236732 128.95279245733587 L 95.24914600295915 149.1520150717874 L 102.49897520355097 171.3195913675118 L 109.74880440414282 194.8197672163236 L 116.99863360473464 219.01328121821064 L 124.24846280532647 243.27324698142226 L 131.4982920059183 267 L 138.74812120651012 289.6345916719292 L 145.99795040710194 310.67066088365164 L 153.2477796076938 329.66446589459605 L 160.49760880828563 346.24291449857583 L 167.74743800887745 360.1094871237115 L 174.99726720946927 371.0480041986025 L 182.24709641006112 378.924244367104 L 189.49692561065294 383.68547268341854 L 196.74675481124478 385.3579865954871 L 203.9965840118366 384.0428313091069 L 211.24641321242842 379.9098741662167 L 218.49624241302024 373.1904592972495 L 225.7460716136121 364.16888853684827 L 232.9959008142039 353.1729921339163 L 240.24573001479578 340.56406304037847 L 247.49555921538757 326.7264316115133 L 254.7453884159794 312.05695365094357 L 261.99521761657127 296.9546743010908 L 269.2450468171631 281.81091387235335 L 276.4948760177549 267.00000000000006 L 283.7447052183468 252.8708442943567 L 290.99453441893854 239.73953176020035 L 298.2443636195304 227.88305860919212 L 305.49419282012224 217.53431960480663 L 312.74402202071406 208.8784106949439 L 319.9938512213059 202.05027731484665 L 327.2436804218977 197.133704251423 L 334.49350962248957 194.16161015728676 L 341.7433388230814 193.1175794177007 L 348.9931680236732 193.9385367421225 L 356.242997224265 196.51844610576546 L 363.49282642485684 200.71289592445584 L 370.7426556254487 206.34441690927082 L 377.9924848260405 213.2083680974349 L 385.24231402663236 221.07922015547996 L 392.4921432272242 229.71706314772672 L 399.74197242781605 238.8741683974954 L 406.9918016284078 248.30144058057707 L 414.24163082899963 257.754606432557 L 421.49146002959156 267 L 428.7412892301833 275.8198207349104 L 435.99111843077515 284.0167593898568 L 443.240947631367 291.41790705350695 L 450.4907768319588 297.8778841924524 L 457.7406060325507 303.28114865306065 L 464.99043523314253 307.5434636576623 L 472.2402644337343 310.61252835996197 L 479.4900936343262 312.4677940010008 L 486.73992283491793 313.11950767425355 L 493.98975203550987 312.60704276953743 L 501.2395812361017 310.9965899885153 L 508.4894104366935 308.37829514817673 L 515.7392396372853 304.86293962476657 L 522.9890688378771 300.5782661259386 L 530.238898038469 295.66505647426567 L 537.4887272390608 290.27306927311315 L 544.7385564396526 284.556943806295 L 551.9883856402445 278.67217245787117 L 559.2382148408362 272.77123754506954 L 566.4880440414281 267.00000000000006 L 573.73787324202 261.49441711758567 L 580.9877024426117 256.3776549402952 L 588.2375316432036 251.7576481270131 L 595.4873608437954 247.72514671616355 L 602.7371900443873 244.3522754053291 L 609.9870192449791 241.6916171862898 L 617.236848445571 239.77581973440715 L 624.4866776461628 238.61771016929947 L 631.7365068467547 238.21089196385756 L 631.7365068467547 313.21089196385753 L 624.4866776461628 313.61771016929947 L 617.236848445571 314.77581973440715 L 609.9870192449791 316.6916171862898 L 602.7371900443873 319.3522754053291 L 595.4873608437954 322.7251467161635 L 588.2375316432036 326.7576481270131 L 580.9877024426117 331.3776549402952 L 573.73787324202 336.49441711758567 L 566.4880440414281 342 L 559.2382148408362 347.7712375450695 L 551.9883856402445 353.67217245787117 L 544.7385564396526 359.55694380629495 L 537.4887272390608 365.27306927311315 L 530.238898038469 370.6650564742656 L 522.9890688378771 375.5782661259387 L 515.7392396372853 379.8629396247666 L 508.4894104366935 383.37829514817673 L 501.2395812361017 385.9965899885153 L 493.98975203550987 387.60704276953743 L 486.73992283491793 388.11950767425355 L 479.4900936343262 387.4677940010008 L 472.2402644337343 385.61252835996197 L 464.99043523314253 382.5434636576623 L 457.7406060325507 378.28114865306065 L 450.4907768319588 372.8778841924524 L 443.240947631367 366.41790705350695 L 435.99111843077515 359.01675938985676 L 428.7412892301833 350.8198207349104 L 421.49146002959156 342 L 414.24163082899963 332.754606432557 L 406.9918016284078 323.30144058057704 L 399.74197242781605 313.8741683974954 L 392.4921432272242 304.71706314772666 L 385.24231402663236 296.07922015547996 L 377.9924848260405 288.2083680974349 L 370.7426556254487 281.34441690927076 L 363.49282642485684 275.7128959244558 L 356.242997224265 271.5184461057654 L 348.9931680236732 268.93853674212255 L 341.7433388230814 268.11757941770077 L 334.49350962248957 269.16161015728676 L 327.2436804218977 272.13370425142296 L 319.9938512213059 277.05027731484665 L 312.74402202071406 283.8784106949439 L 305.49419282012224 292.53431960480657 L 298.2443636195304 302.8830586091921 L 290.99453441893854 314.73953176020035 L 283.7447052183468 327.87084429435674 L 276.4948760177549 342 L 269.2450468171631 356.81091387235335 L 261.99521761657127 371.9546743010908 L 254.7453884159794 387.0569536509435 L 247.49555921538757 401.72643161151325 L 240.24573001479578 415.56406304037847 L 232.9959008142039 428.1729921339163 L 225.7460716136121 439.16888853684827 L 218.49624241302024 448.19045929724956 L 211.24641321242842 454.90987416621675 L 203.9965840118366 459.0428313091068 L 196.74675481124478 460.3579865954871 L 189.49692561065294 458.6854726834185 L 182.24709641006112 453.92424436710394 L 174.99726720946927 446.0480041986025 L 167.74743800887745 435.1094871237115 L 160.49760880828563 421.2429144985758 L 153.2477796076938 404.66446589459605 L 145.99795040710194 385.6706608836516 L 138.74812120651012 364.6345916719292 L 131.4982920059183 342 L 124.24846280532647 318.2732469814223 L 116.99863360473464 294.01328121821064 L 109.74880440414282 269.8197672163236 L 102.49897520355097 246.31959136751178 L 95.24914600295915 224.1520150717874 L 87.99931680236732 203.95279245733582 L 80.74948760177548 186.33761216402274 L 73.49965840118367 171.88525742639763 L 66.24982920059183 161.1209049766178 L 59 154.50000000000006 Z" stroke="none" stroke-width="0" fill="firebrick" fill-opacity="0.2" /><path d="M 59 117.00000000000006 L 66.24982920059183 123.6209049766178 L 73.49965840118367 134.3852574263977 L 80.74948760177548 148.8376121640228 L 87.99931680236732 166.45279245733582 L 95.24914600295915 186.6520150717874 L 102.49897520355097 208.8195913675118 L 109.74880440414282 232.3197672163236 L 116.99863360473464 256.51328121821075 L 124.24846280532647 280.7732469814223 L 131.4982920059183 304.5 L 138.74812120651012 327.1345916719292 L 145.99795040710194 348.17066088365164 L 153.2477796076938 367.16446589459605 L 160.49760880828563 383.7429144985758 L 167.74743800887745 397.6094871237115 L 174.99726720946927 408.5480041986025 L 182.24709641006112 416.42424436710394 L 189.49692561065294 421.1854726834185 L 196.74675481124478 422.8579865954871 L 203.9965840118366 421.5428313091068 L 211.24641321242842 417.4098741662167 L 218.49624241302024 410.69045929724956 L 225.7460716136121 401.66888853684827 L 232.9959008142039 390.6729921339163 L 240.24573001479578 378.06406304037847 L 247.49555921538757 364.22643161151325 L 254.7453884159794 349.55695365094357 L 261.99521761657127 334.4546743010908 L 269.2450468171631 319.3109138723533 L 276.4948760177549 304.5 L 283.7447052183468 290.37084429435674 L 290.99453441893854 277.2395317602004 L 298.2443636195304 265.3830586091922 L 305.49419282012224 255.03431960480657 L 312.74402202071406 246.3784106949439 L 319.9938512213059 239.55027731484662 L 327.2436804218977 234.633704251423 L 334.49350962248957 231.66161015728676 L 341.7433388230814 230.6175794177007 L 348.9931680236732 231.4385367421225 L 356.242997224265 234.0184461057654 L 363.49282642485684 238.21289592445578 L 370.7426556254487 243.8444169092708 L 377.9924848260405 250.7083680974349 L 385.24231402663236 258.57922015548 L 392.4921432272242 267.21706314772666 L 399.74197242781605 276.3741683974954 L 406.9918016284078 285.80144058057704 L 414.24163082899963 295.254606432557 L 421.49146002959156 304.5 L 428.7412892301833 313.3198207349104 L 435.99111843077515 321.51675938985676 L 443.240947631367 328.91790705350695 L 450.4907768319588 335.3778841924524 L 457.7406060325507 340.78114865306065 L 464.99043523314253 345.0434636576623 L 472.2402644337343 348.11252835996197 L 479.4900936343262 349.9677940010008 L 486.73992283491793 350.61950767425355 L 493.98975203550987 350.10704276953743 L 501.2395812361017 348.4965899885153 L 508.4894104366935 345.87829514817673 L 515.7392396372853 342.36293962476657 L 522.9890688378771 338.0782661259387 L 530.238898038469 333.1650564742656 L 537.4887272390608 327.77306927311315 L 544.7385564396526 322.056943806295 L 551.9883856402445 316.1721724578711 L 559.2382148408362 310.2712375450695 L 566.4880440414281 304.5 L 573.73787324202 298.9944171175857 L 580.9877024426117 293.8776549402952 L 588.2375316432036 289.2576481270131 L 595.4873608437954 285.2251467161635 L 602.7371900443873 281.8522754053291 L 609.9870192449791 279.1916171862898 L 617.236848445571 277.27581973440715 L 624.4866776461628 276.11771016929947 L 631.7365068467547 275.71089196385753 " stroke="firebrick" stroke-width="2" fill="none" /></svg>