<svg xmlns="http://www.w3.org/2000/svg" width="673" height="541" fill="black"><rect width="100%" height="100%" fill="white" /><line x1="59" y1="492" x2="659" y2="492" stroke="black" stroke-width="1" /><line x1="59" y1="42" x2="59" y2="492" stroke="black" stroke-width="1" /><line x1="105.15384615384616" y1="42" x2="105.15384615384616" y2="492" stroke="#ccc" stroke-width="1" /><line x1="151.30769230769232" y1="42" x2="151.30769230769232" y2="492" stroke="#ccc" stroke-width="1" /><line x1="197.46153846153848" y1="42" x2="197.46153846153848" y2="492" stroke="#ccc" stroke-width="1" /><line x1="243.6153846153846" y1="42" x2="243.6153846153846" y2="492" stroke="#ccc" stroke-width="1" /><line x1="289.7692307692308" y1="42" x2="289.7692307692308" y2="492" stroke="#ccc" stroke-width="1" /><line x1="335.92307692307696" y1="42" x2="335.92307692307696" y2="492" stroke="#ccc" stroke-width="1" /><line x1="382.07692307692304" y1="42" x2="382.07692307692304" y2="492" stroke="#ccc" stroke-width="1" /><line x1="428.2307692307692" y1="42" x2="428.2307692307692" y2="492" stroke="#ccc" stroke-width="1" /><line x1="474.38461538461536" y1="42" x2="474.38461538461536" y2="492" stroke="#ccc" stroke-width="1" /><line x1="520.5384615384615" y1="42" x2="520.5384615384615" y2="492" stroke="#ccc" stroke-width="1" /><line x1="566.6923076923076" y1="42" x2="566.6923076923076" y2="492" stroke="#ccc" stroke-width="1" /><line x1="612.8461538461539" y1="42" x2="612.8461538461539" y2="492" stroke="#ccc" stroke-width="1" /><line x1="659" y1="42" x2="659" y2="492" stroke="#ccc" stroke-width="1" /><line x1="59" y1="447" x2="659" y2="447" stroke="#ccc" stroke-width="1" /><line x1="59" y1="402" x2="659" y2="402" stroke="#ccc" stroke-width="1" /><line x1="59" y1="357" x2="659" y2="357" stroke="#ccc" stroke-width="1" /><line x1="59" y1="312" x2="659" y2="312" stroke="#ccc" stroke-width="1" /><line x1="59" y1="267" x2="659" y2="267" stroke="#ccc" stroke-width="1" /><line x1="59" y1="222" x2="659" y2="222" stroke="#ccc" stroke-width="1" /><line x1="59" y1="177" x2="659" y2="177" stroke="#ccc" stroke-width="1" /><line x1="59" y1="132" x2="659" y2="132" stroke="#ccc" stroke-width="1" /><line x1="59" y1="87" x2="659" y2="87" stroke="#ccc" stroke-width="1" /><line x1="59" y1="42" x2="659" y2="42" stroke="#ccc" stroke-width="1" /><line x1="59" y1="492" x2="59" y2="497" stroke="black" stroke-width="1" /><text x="59" y="507" font-size="10" text-anchor="middle">0</text><line x1="105.15384615384616" y1="492" x2="105.15384615384616" y2="497" stroke="black" stroke-width="1" /><text x="105.15384615384616" y="507" font-size="10" text-anchor="middle">2.5</text><line x1="151.30769230769232" y1="492" x2="151.30769230769232" y2="497" stroke="black" stroke-width="1" /><text x="151.30769230769232" y="507" font-size="10" text-anchor="middle">5</text><line x1="197.46153846153848" y1="492" x2="197.46153846153848" y2="497" stroke="black" stroke-width="1" /><text x="197.46153846153848" y="507" font-size="10" text-anchor="middle">7.5</text><line x1="243.6153846153846" y1="492" x2="243.6153846153846" y2="497" stroke="black" stroke-width="1" /><text x="243.6153846153846" y="507" font-size="10" text-anchor="middle">10</text><line x1="289.7692307692308" y1="492" x2="289.7692307692308" y2="497" stroke="black" stroke-width="1" /><text x="289.7692307692308" y="507" font-size="10" text-anchor="middle">12.5</text><line x1="335.92307692307696" y1="492" x2="335.92307692307696" y2="497" stroke="black" stroke-width="1" /><text x="335.92307692307696" y="507" font-size="10" text-anchor="middle">15</text><line x1="382.07692307692304" y1="492" x2="382.07692307692304" y2="497" stroke="black" stroke-width="1" /><text x="382.07692307692304" y="507" font-size="10" text-anchor="middle">17.5</text><line x1="428.2307692307692" y1="492" x2="428.2307692307692" y2="497" stroke="black" stroke-width="1" /><text x="428.2307692307692" y="507" font-size="10" text-anchor="middle">20</text><line x1="474.38461538461536" y1="492" x2="474.38461538461536" y2="497" stroke="black" stroke-width="1" /><text x="474.38461538461536" y="507" font-size="10" text-anchor="middle">22.5</text><line x1="520.5384615384615" y1="492" x2="520.5384615384615" y2="497" stroke="black" stroke-width="1" /><text x="520.5384615384615" y="507" font-size="10" text-anchor="middle">25</text><line x1="566.6923076923076" y1="492" x2="566.6923076923076" y2="497" stroke="black" stroke-width="1" /><text x="566.6923076923076" y="507" font-size="10" text-anchor="middle">27.5</text><line x1="612.8461538461539" y1="492" x2="612.8461538461539" y2="497" stroke="black" stroke-width="1" /><text x="612.8461538461539" y="507" font-size="10" text-anchor="middle">30</text><line x1="659" y1="492" x2="659" y2="497" stroke="black" stroke-width="1" /><text x="659" y="507" font-size="10" text-anchor="middle">32.5</text><line x1="54" y1="492" x2="59" y2="492" stroke="black" stroke-width="1" /><text x="51" y="495.5" font-size="10" text-anchor="end">-2</text><line x1="54" y1="447" x2="59" y2="447" stroke="black" stroke-width="1" /><text x="51" y="450.5" font-size="10" text-anchor="end">0</text><line x1="54" y1="402" x2="59" y2="402" stroke="black" stroke-width="1" /><text x="51" y="405.5" font-size="10" text-anchor="end">2</text><line x1="54" y1="357" x2="59" y2="357" stroke="black" stroke-width="1" /><text x="51" y="360.5" font-size="10" text-anchor="end">4</text><line x1="54" y1="312" x2="59" y2="312" stroke="black" stroke-width="1" /><text x="51" y="315.5" font-size="10" text-anchor="end">6</text><line x1="54" y1="267" x2="59" y2="267" stroke="black" stroke-width="1" /><text x="51" y="270.5" font-size="10" text-anchor="end">8</text><line x1="54" y1="222" x2="59" y2="222" stroke="black" stroke-width="1" /><text x="51" y="225.5" font-size="10" text-anchor="end">10</text><line x1="54" y1="177" x2="59" y2="177" stroke="black" stroke-width="1" /><text x="51" y="180.5" font-size="10" text-anchor="end">12</text><line x1="54" y1="132" x2="59" y2="132" stroke="black" stroke-width="1" /><text x="51" y="135.5" font-size="10" text-anchor="end">14</text><line x1="54" y1="87" x2="59" y2="87" stroke="black" stroke-width="1" /><text x="51" y="90.5" font-size="10" text-anchor="end">16</text><line x1="54" y1="42" x2="59" y2="42" stroke="black" stroke-width="1" /><text x="51" y="45.5" font-size="10" text-anchor="end">18</text><text x="336.5" y="534" font-size="14" text-anchor="middle">x</text><text x="14" y="270.5" font-size="14" text-anchor="middle" transform="rotate(-90,14,270.5)">y</text><text x="336.5" y="21" font-size="16" text-anchor="middle">Band Attached to Scatter</text><path d="M 59 345.75 L 77.46153846153847 336.75 L 95.92307692307693 327.75 L 114.38461538461539 318.75 L 132.84615384615387 309.75 L 151.30769230769232 300.75 L 169.76923076923077 291.75 L 188.23076923076923 282.75 L 206.6923076923077 273.75 L 225.15384615384616 264.75 L 243.6153846153846 255.75 L 262.0769230769231 246.74999999999997 L 280.53846153846155 237.74999999999997 L 299 228.75 L 317.46153846153845 219.74999999999994 L 335.92307692307696 210.75 L 354.3846153846154 201.75 L 372.84615384615387 192.75 L 391.3076923076923 183.75 L 409.7692307692308 174.74999999999994 L 428.2307692307692 165.75 L 446.69230769230774 156.75 L 465.1538461538462 147.75 L 483.61538461538464 138.75 L 502.0769230769231 129.75 L 520.5384615384615 120.75 L 539 111.75 L 557.4615384615386 102.75 L 575.9230769230769 93.74999999999994 L 594.3846153846154 84.75 L 594.3846153846154 197.25 L 575.9230769230769 206.25 L 557.4615384615386 215.25 L 539 224.25 L 520.5384615384615 233.25 L 502.0769230769231 242.24999999999997 L 483.61538461538464 251.25 L 465.1538461538462 260.25 L 446.69230769230774 269.25 L 428.2307692307692 278.25 L 409.7692307692308 287.25 L 391.3076923076923 296.25 L 372.84615384615387 305.25 L 354.3846153846154 314.25 L 335.92307692307696 323.25 L 317.46153846153845 332.25 L 299 341.25 L 280.53846153846155 350.25 L 262.0769230769231 359.25 L 243.6153846153846 368.25 L 225.15384615384616 377.25 L 206.6923076923077 386.25 L 188.23076923076923 395.25 L 169.76923076923077 404.25 L 151.30769230769232 413.25 L 132.84615384615387 422.25 L 114.38461538461539 431.25 L 95.92307692307693 440.25 L 77.46153846153847 449.25 L 59 458.25 Z" stroke="none" stroke-width="0" fill="seagreen" fill-opacity="0.2" /><circle cx="59" cy="402" r="3" fill="seagreen" /><circle cx="77.46153846153847" cy="393" r="3" fill="seagreen" /><circle cx="95.92307692307693" cy="384" r="3" fill="seagreen" /><circle cx="114.38461538461539" cy="375" r="3" fill="seagreen" /><circle cx="132.84615384615387" cy="366" r="3" fill="seagreen" /><circle cx="151.30769230769232" cy="357" r="3" fill="seagreen" /><circle cx="169.76923076923077" cy="348" r="3" fill="seagreen" /><circle cx="188.23076923076923" cy="339" r="3" fill="seagreen" /><circle cx="206.6923076923077" cy="330" r="3" fill="seagreen" /><circle cx="225.15384615384616" cy="321" r="3" fill="seagreen" /><circle cx="243.6153846153846" cy="312" r="3" fill="seagreen" /><circle cx="262.0769230769231" cy="303" r="3" fill="seagreen" /><circle cx="280.53846153846155" cy="294" r="3" fill="seagreen" /><circle cx="299" cy="285" r="3" fill="seagreen" /><circle cx="317.46153846153845" cy="276" r="3" fill="seagreen" /><circle cx="335.92307692307696" cy="267" r="3" fill="seagreen" /><circle cx="354.3846153846154" cy="258" r="3" fill="seagreen" /><circle cx="372.84615384615387" cy="248.99999999999997" r="3" fill="seagreen" /><circle cx="391.3076923076923" cy="240.00000000000003" r="3" fill="seagreen" /><circle cx="409.7692307692308" cy="230.99999999999994" r="3" fill="seagreen" /><circle cx="428.2307692307692" cy="222" r="3" fill="seagreen" /><circle cx="446.69230769230774" cy="213" r="3" fill="seagreen" /><circle cx="465.1538461538462" cy="204" r="3" fill="seagreen" /><circle cx="483.61538461538464" cy="195" r="3" fill="seagreen" /><circle cx="502.0769230769231" cy="186" r="3" fill="seagreen" /><circle cx="520.5384615384615" cy="177" r="3" fill="seagreen" /><circle cx="539" cy="168" r="3" fill="seagreen" /><circle cx="557.4615384615386" cy="159" r="3" fill="seagreen" /><circle cx="575.9230769230769" cy="150" r="3" fill="seagreen" /><circle cx="594.3846153846154" cy="141" r="3" fill="seagreen" /></svg>