<svg xmlns="http://www.w3.org/2000/svg" width="673" height="541" fill="black"><rect width="100%" height="100%" fill="white" /><line x1="59" y1="492" x2="659" y2="492" stroke="black" stroke-width="1" /><line x1="59" y1="42" x2="59" y2="492" stroke="black" stroke-width="1" /><line x1="101.85714285714286" y1="42" x2="101.85714285714286" y2="492" stroke="#ccc" stroke-width="1" /><line x1="144.71428571428572" y1="42" x2="144.71428571428572" y2="492" stroke="#ccc" stroke-width="1" /><line x1="187.57142857142856" y1="42" x2="187.57142857142856" y2="492" stroke="#ccc" stroke-width="1" /><line x1="230.42857142857142" y1="42" x2="230.42857142857142" y2="492" stroke="#ccc" stroke-width="1" /><line x1="273.2857142857143" y1="42" x2="273.2857142857143" y2="492" stroke="#ccc" stroke-width="1" /><line x1="316.1428571428571" y1="42" x2="316.1428571428571" y2="492" stroke="#ccc" stroke-width="1" /><line x1="359" y1="42" x2="359" y2="492" stroke="#ccc" stroke-width="1" /><line x1="401.85714285714283" y1="42" x2="401.85714285714283" y2="492" stroke="#ccc" stroke-width="1" /><line x1="444.7142857142857" y1="42" x2="444.7142857142857" y2="492" stroke="#ccc" stroke-width="1" /><line x1="487.57142857142856" y1="42" x2="487.57142857142856" y2="492" stroke="#ccc" stroke-width="1" /><line x1="530.4285714285714" y1="42" x2="530.4285714285714" y2="492" stroke="#ccc" stroke-width="1" /><line x1="573.2857142857142" y1="42" x2="573.2857142857142" y2="492" stroke="#ccc" stroke-width="1" /><line x1="616.1428571428571" y1="42" x2="616.1428571428571" y2="492" stroke="#ccc" stroke-width="1" /><line x1="659" y1="42" x2="659" y2="492" stroke="#ccc" stroke-width="1" /><line x1="59" y1="442" x2="659" y2="442" stroke="#ccc" stroke-width="1" /><line x1="59" y1="392" x2="659" y2="392" stroke="#ccc" stroke-width="1" /><line x1="59" y1="342" x2="659" y2="342" stroke="#ccc" stroke-width="1" /><line x1="59" y1="292" x2="659" y2="292" stroke="#ccc" stroke-width="1" /><line x1="59" y1="242" x2="659" y2="242" stroke="#ccc" stroke-width="1" /><line x1="59" y1="192" x2="659" y2="192" stroke="#ccc" stroke-width="1" /><line x1="59" y1="142" x2="659" y2="142" stroke="#ccc" stroke-width="1" /><line x1="59" y1="92" x2="659" y2="92" stroke="#ccc" stroke-width="1" /><line x1="59" y1="42" x2="659" y2="42" stroke="#ccc" stroke-width="1" /><line x1="59" y1="492" x2="59" y2="497" stroke="black" stroke-width="1" /><text x="59" y="507" font-size="10" text-anchor="middle">0</text><line x1="101.85714285714286" y1="492" x2="101.85714285714286" y2="497" stroke="black" stroke-width="1" /><text x="101.85714285714286" y="507" font-size="10" text-anchor="middle">1</text><line x1="144.71428571428572" y1="492" x2="144.71428571428572" y2="497" stroke="black" stroke-width="1" /><text x="144.71428571428572" y="507" font-size="10" text-anchor="middle">2</text><line x1="187.57142857142856" y1="492" x2="187.57142857142856" y2="497" stroke="black" stroke-width="1" /><text x="187.57142857142856" y="507" font-size="10" text-anchor="middle">3</text><line x1="230.42857142857142" y1="492" x2="230.42857142857142" y2="497" stroke="black" stroke-width="1" /><text x="230.42857142857142" y="507" font-size="10" text-anchor="middle">4</text><line x1="273.2857142857143" y1="492" x2="273.2857142857143" y2="497" stroke="black" stroke-width="1" /><text x="273.2857142857143" y="507" font-size="10" text-anchor="middle">5</text><line x1="316.1428571428571" y1="492" x2="316.1428571428571" y2="497" stroke="black" stroke-width="1" /><text x="316.1428571428571" y="507" font-size="10" text-anchor="middle">6</text><line x1="359" y1="492" x2="359" y2="497" stroke="black" stroke-width="1" /><text x="359" y="507" font-size="10" text-anchor="middle">7</text><line x1="401.85714285714283" y1="492" x2="401.85714285714283" y2="497" stroke="black" stroke-width="1" /><text x="401.85714285714283" y="507" font-size="10" text-anchor="middle">8</text><line x1="444.7142857142857" y1="492" x2="444.7142857142857" y2="497" stroke="black" stroke-width="1" /><text x="444.7142857142857" y="507" font-size="10" text-anchor="middle">9</text><line x1="487.57142857142856" y1="492" x2="487.57142857142856" y2="497" stroke="black" stroke-width="1" /><text x="487.57142857142856" y="507" font-size="10" text-anchor="middle">10</text><line x1="530.4285714285714" y1="492" x2="530.4285714285714" y2="497" stroke="black" stroke-width="1" /><text x="530.4285714285714" y="507" font-size="10" text-anchor="middle">11</text><line x1="573.2857142857142" y1="492" x2="573.2857142857142" y2="497" stroke="black" stroke-width="1" /><text x="573.2857142857142" y="507" font-size="10" text-anchor="middle">12</text><line x1="616.1428571428571" y1="492" x2="616.1428571428571" y2="497" stroke="black" stroke-width="1" /><text x="616.1428571428571" y="507" font-size="10" text-anchor="middle">13</text><line x1="659" y1="492" x2="659" y2="497" stroke="black" stroke-width="1" /><text x="659" y="507" font-size="10" text-anchor="middle">14</text><line x1="54" y1="492" x2="59" y2="492" stroke="black" stroke-width="1" /><text x="51" y="495.5" font-size="10" text-anchor="end">-2</text><line x1="54" y1="442" x2="59" y2="442" stroke="black" stroke-width="1" /><text x="51" y="445.5" font-size="10" text-anchor="end">-1.5</text><line x1="54" y1="392" x2="59" y2="392" stroke="black" stroke-width="1" /><text x="51" y="395.5" font-size="10" text-anchor="end">-1</text><line x1="54" y1="342" x2="59" y2="342" stroke="black" stroke-width="1" /><text x="51" y="345.5" font-size="10" text-anchor="end">-0.5</text><line x1="54" y1="292" x2="59" y2="292" stroke="black" stroke-width="1" /><text x="51" y="295.5" font-size="10" text-anchor="end">0</text><line x1="54" y1="242" x2="59" y2="242" stroke="black" stroke-width="1" /><text x="51" y="245.5" font-size="10" text-anchor="end">0.5</text><line x1="54" y1="192" x2="59" y2="192" stroke="black" stroke-width="1" /><text x="51" y="195.5" font-size="10" text-anchor="end">1</text><line x1="54" y1="142" x2="59" y2="142" stroke="black" stroke-width="1" /><text x="51" y="145.5" font-size="10" text-anchor="end">1.5</text><line x1="54" y1="92" x2="59" y2="92" stroke="black" stroke-width="1" /><text x="51" y="95.5" font-size="10" text-anchor="end">2</text><line x1="54" y1="42" x2="59" y2="42" stroke="black" stroke-width="1" /><text x="51" y="45.5" font-size="10" text-anchor="end">2.5</text><text x="336.5" y="534" font-size="14" text-anchor="middle">x</text><text x="14" y="270.5" font-size="14" text-anchor="middle" transform="rotate(-90,14,270.5)">e^(−0.15x) · cos(x)</text><text x="336.5" y="21" font-size="16" text-anchor="middle">Band Attached to Line</text><path d="M 59 172 L 65.73198425769242 175.53114932086277 L 72.46396851538483 181.27213729407873 L 79.19595277307724 188.98005982081213 L 85.92793703076966 198.37482264391247 L 92.65992128846207 209.14774137161993 L 99.39190554615448 220.97044872933958 L 106.1238898038469 233.5038758487059 L 112.85587406153931 246.407083316379 L 119.58785831923173 259.34573172342516 L 126.31984257692415 272 L 133.05182683461655 284.07178222502887 L 139.78381109230895 295.2910191379475 L 146.51579535000138 305.4210484771179 L 153.2477796076938 314.26288773257374 L 159.9797638653862 321.6583931326461 L 166.71174812307862 327.4922689059213 L 173.44373238077105 331.6929303291221 L 180.17571663846346 334.2322520978232 L 186.90770089615586 335.12425951759315 L 193.6396851538483 334.422843364857 L 200.3716694115407 332.21859955531556 L 207.1036536692331 328.6349116251997 L 213.83563792692553 323.82340721965244 L 220.56762218461793 317.9589291380887 L 227.29960644231033 311.2341669548685 L 234.03159070000277 303.85409685947377 L 240.76357495769517 296.0303752805032 L 247.49555921538757 287.9758262939151 L 254.22754347308 279.89915406525506 L 260.9595277307724 272 L 267.69151198846487 264.46445029032355 L 274.42349624615724 257.4610836054402 L 281.1554805038496 251.13763125823579 L 287.8874647615421 245.61830378923017 L 294.6194490192345 241.00181903730336 L 301.3514332769269 237.3601479012515 L 308.08341753461934 234.7379756007589 L 314.8154017923117 233.15285875055292 L 321.54738605000415 232.59604235610698 L 328.2793703076966 233.03388626246533 L 335.01135456538896 234.40983792307492 L 341.7433388230814 236.64687782637637 L 348.4753230807738 239.65035568494437 L 355.2073073384662 243.31112965196525 L 361.9392915961586 247.50891741625597 L 368.67127585385106 252.11576701212087 L 375.4032601115435 256.9995564786642 L 382.13524436923586 262.02743497630775 L 388.86722862692824 267.069123430697 L 395.59921288462067 272 L 402.33119714231304 276.7039043919523 L 409.06318140000553 281.0756050079236 L 415.795165657698 285.0228837618704 L 422.52714991539034 288.4682049026412 L 429.2591341730828 291.349945948299 L 435.99111843077515 293.62318061741985 L 442.7231026884675 295.26001512531303 L 449.45508694616 296.2494901338671 L 456.1870712038523 296.59707075960193 L 462.9190554615448 296.32375614375326 L 469.6510397192373 295.46484799387486 L 476.3830239769297 294.0684240790276 L 483.1150082346221 292.1935677998755 L 489.8469924923145 289.9084086005006 L 496.57897675000686 287.2880301196083 L 503.3109610076993 284.412303612327 L 510.04294526539167 281.36370336335733 L 516.7749295230842 278.2251586441979 L 523.5069137807766 275.07799335737036 L 530.238898038469 272 L 536.9708822961614 269.063689129379 L 543.7028665538538 266.3347493014908 L 550.4348508115461 263.87074566774027 L 557.1668350692387 261.72007824862055 L 563.898819326931 259.9212135495088 L 570.6308035846234 258.50219583268785 L 577.3627878423159 257.4804371916838 L 584.0947721000083 256.8627787569597 L 590.8267563577008 256.6458090473906 L 590.8267563577008 296.6458090473907 L 584.0947721000083 296.86277875695964 L 577.3627878423159 297.4804371916838 L 570.6308035846234 298.5021958326879 L 563.898819326931 299.9212135495088 L 557.1668350692387 301.72007824862055 L 550.4348508115461 303.87074566774027 L 543.7028665538538 306.3347493014908 L 536.9708822961614 309.063689129379 L 530.238898038469 312 L 523.5069137807766 315.07799335737036 L 516.7749295230842 318.2251586441979 L 510.04294526539167 321.36370336335733 L 503.3109610076993 324.41230361232704 L 496.57897675000686 327.2880301196083 L 489.8469924923145 329.9084086005006 L 483.1150082346221 332.1935677998755 L 476.3830239769297 334.0684240790276 L 469.6510397192373 335.46484799387486 L 462.9190554615448 336.32375614375326 L 456.1870712038523 336.5970707596019 L 449.45508694616 336.2494901338671 L 442.7231026884675 335.26001512531303 L 435.99111843077515 333.62318061741985 L 429.2591341730828 331.349945948299 L 422.52714991539034 328.46820490264133 L 415.795165657698 325.0228837618704 L 409.06318140000553 321.0756050079236 L 402.33119714231304 316.7039043919522 L 395.59921288462067 312 L 388.86722862692824 307.06912343069706 L 382.13524436923586 302.02743497630775 L 375.4032601115435 296.9995564786642 L 368.67127585385106 292.11576701212084 L 361.9392915961586 287.50891741625594 L 355.2073073384662 283.31112965196525 L 348.4753230807738 279.6503556849444 L 341.7433388230814 276.64687782637634 L 335.01135456538896 274.40983792307486 L 328.2793703076966 273.03388626246533 L 321.54738605000415 272.59604235610703 L 314.8154017923117 273.1528587505529 L 308.08341753461934 274.7379756007589 L 301.3514332769269 277.3601479012515 L 294.6194490192345 281.00181903730345 L 287.8874647615421 285.61830378923014 L 281.1554805038496 291.13763125823584 L 274.42349624615724 297.4610836054402 L 267.69151198846487 304.46445029032355 L 260.9595277307724 312 L 254.22754347308 319.89915406525506 L 247.49555921538757 327.97582629391513 L 240.76357495769517 336.0303752805032 L 234.03159070000277 343.85409685947377 L 227.29960644231033 351.2341669548685 L 220.56762218461793 357.9589291380887 L 213.83563792692553 363.8234072196524 L 207.1036536692331 368.6349116251998 L 200.3716694115407 372.21859955531556 L 193.6396851538483 374.42284336485693 L 186.90770089615586 375.1242595175931 L 180.17571663846346 374.23225209782316 L 173.44373238077105 371.6929303291221 L 166.71174812307862 367.4922689059213 L 159.9797638653862 361.65839313264615 L 153.2477796076938 354.26288773257374 L 146.51579535000138 345.4210484771179 L 139.78381109230895 335.2910191379475 L 133.05182683461655 324.07178222502887 L 126.31984257692415 312 L 119.58785831923173 299.34573172342516 L 112.85587406153931 286.407083316379 L 106.1238898038469 273.5038758487059 L 99.39190554615448 260.9704487293395 L 92.65992128846207 249.14774137161993 L 85.92793703076966 238.3748226439124 L 79.19595277307724 228.98005982081207 L 72.46396851538483 221.27213729407868 L 65.73198425769242 215.53114932086282 L 59 212 Z" stroke="none" stroke-width="0" fill="firebrick" fill-opacity="0.2" /><path d="M 59 192 L 65.73198425769242 195.53114932086277 L 72.46396851538483 201.27213729407873 L 79.19595277307724 208.98005982081207 L 85.92793703076966 218.37482264391235 L 92.65992128846207 229.14774137161993 L 99.39190554615448 240.9704487293396 L 106.1238898038469 253.50387584870586 L 112.85587406153931 266.40708331637904 L 119.58785831923173 279.34573172342516 L 126.31984257692415 292 L 133.05182683461655 304.07178222502887 L 139.78381109230895 315.2910191379475 L 146.51579535000138 325.4210484771179 L 153.2477796076938 334.26288773257374 L 159.9797638653862 341.65839313264615 L 166.71174812307862 347.4922689059213 L 173.44373238077105 351.6929303291221 L 180.17571663846346 354.2322520978232 L 186.90770089615586 355.1242595175931 L 193.6396851538483 354.422843364857 L 200.3716694115407 352.21859955531556 L 207.1036536692331 348.6349116251997 L 213.83563792692553 343.8234072196524 L 220.56762218461793 337.9589291380887 L 227.29960644231033 331.2341669548685 L 234.03159070000277 323.8540968594737 L 240.76357495769517 316.0303752805032 L 247.49555921538757 307.9758262939151 L 254.22754347308 299.8991540652551 L 260.9595277307724 292 L 267.69151198846487 284.4644502903236 L 274.42349624615724 277.4610836054402 L 281.1554805038496 271.1376312582358 L 287.8874647615421 265.61830378923014 L 294.6194490192345 261.0018190373034 L 301.3514332769269 257.3601479012515 L 308.08341753461934 254.7379756007589 L 314.8154017923117 253.15285875055287 L 321.54738605000415 252.59604235610703 L 328.2793703076966 253.0338862624653 L 335.01135456538896 254.40983792307492 L 341.7433388230814 256.6468778263764 L 348.4753230807738 259.6503556849443 L 355.2073073384662 263.3111296519652 L 361.9392915961586 267.50891741625594 L 368.67127585385106 272.11576701212084 L 375.4032601115435 276.9995564786642 L 382.13524436923586 282.02743497630775 L 388.86722862692824 287.06912343069706 L 395.59921288462067 292 L 402.33119714231304 296.7039043919522 L 409.06318140000553 301.0756050079236 L 415.795165657698 305.0228837618704 L 422.52714991539034 308.4682049026413 L 429.2591341730828 311.349945948299 L 435.99111843077515 313.62318061741985 L 442.7231026884675 315.26001512531303 L 449.45508694616 316.2494901338671 L 456.1870712038523 316.5970707596019 L 462.9190554615448 316.32375614375326 L 469.6510397192373 315.46484799387486 L 476.3830239769297 314.0684240790276 L 483.1150082346221 312.1935677998755 L 489.8469924923145 309.9084086005006 L 496.57897675000686 307.2880301196083 L 503.3109610076993 304.41230361232704 L 510.04294526539167 301.36370336335733 L 516.7749295230842 298.2251586441979 L 523.5069137807766 295.07799335737036 L 530.238898038469 292 L 536.9708822961614 289.063689129379 L 543.7028665538538 286.3347493014907 L 550.4348508115461 283.87074566774027 L 557.1668350692387 281.72007824862055 L 563.898819326931 279.9212135495088 L 570.6308035846234 278.5021958326879 L 577.3627878423159 277.4804371916838 L 584.0947721000083 276.8627787569597 L 590.8267563577008 276.6458090473907 " stroke="firebrick" stroke-width="2" fill="none" /></svg>