<svg xmlns="http://www.w3.org/2000/svg" width="820" height="541" fill="black"><rect width="100%" height="100%" fill="white" /><line x1="59" y1="492" x2="659" y2="492" stroke="black" stroke-width="1" /><line x1="59" y1="42" x2="59" y2="492" stroke="black" stroke-width="1" /><line x1="109" y1="42" x2="109" y2="492" stroke="#ccc" stroke-width="1" /><line x1="159" y1="42" x2="159" y2="492" stroke="#ccc" stroke-width="1" /><line x1="209" y1="42" x2="209" y2="492" stroke="#ccc" stroke-width="1" /><line x1="259" y1="42" x2="259" y2="492" stroke="#ccc" stroke-width="1" /><line x1="309" y1="42" x2="309" y2="492" stroke="#ccc" stroke-width="1" /><line x1="359" y1="42" x2="359" y2="492" stroke="#ccc" stroke-width="1" /><line x1="409" y1="42" x2="409" y2="492" stroke="#ccc" stroke-width="1" /><line x1="459" y1="42" x2="459" y2="492" stroke="#ccc" stroke-width="1" /><line x1="509" y1="42" x2="509" y2="492" stroke="#ccc" stroke-width="1" /><line x1="559" y1="42" x2="559" y2="492" stroke="#ccc" stroke-width="1" /><line x1="609" y1="42" x2="609" y2="492" stroke="#ccc" stroke-width="1" /><line x1="659" y1="42" x2="659" y2="492" stroke="#ccc" stroke-width="1" /><line x1="59" y1="454.5" x2="659" y2="454.5" stroke="#ccc" stroke-width="1" /><line x1="59" y1="417" x2="659" y2="417" stroke="#ccc" stroke-width="1" /><line x1="59" y1="379.5" x2="659" y2="379.5" stroke="#ccc" stroke-width="1" /><line x1="59" y1="342" x2="659" y2="342" stroke="#ccc" stroke-width="1" /><line x1="59" y1="304.5" x2="659" y2="304.5" stroke="#ccc" stroke-width="1" /><line x1="59" y1="267" x2="659" y2="267" stroke="#ccc" stroke-width="1" /><line x1="59" y1="229.5" x2="659" y2="229.5" stroke="#ccc" stroke-width="1" /><line x1="59" y1="192" x2="659" y2="192" stroke="#ccc" stroke-width="1" /><line x1="59" y1="154.5" x2="659" y2="154.5" stroke="#ccc" stroke-width="1" /><line x1="59" y1="117" x2="659" y2="117" stroke="#ccc" stroke-width="1" /><line x1="59" y1="79.5" x2="659" y2="79.5" stroke="#ccc" stroke-width="1" /><line x1="59" y1="42" x2="659" y2="42" stroke="#ccc" stroke-width="1" /><line x1="59" y1="492" x2="59" y2="497" stroke="black" stroke-width="1" /><text x="59" y="507" font-size="10" text-anchor="middle">0</text><line x1="109" y1="492" x2="109" y2="497" stroke="black" stroke-width="1" /><text x="109" y="507" font-size="10" text-anchor="middle">1</text><line x1="159" y1="492" x2="159" y2="497" stroke="black" stroke-width="1" /><text x="159" y="507" font-size="10" text-anchor="middle">2</text><line x1="209" y1="492" x2="209" y2="497" stroke="black" stroke-width="1" /><text x="209" y="507" font-size="10" text-anchor="middle">3</text><line x1="259" y1="492" x2="259" y2="497" stroke="black" stroke-width="1" /><text x="259" y="507" font-size="10" text-anchor="middle">4</text><line x1="309" y1="492" x2="309" y2="497" stroke="black" stroke-width="1" /><text x="309" y="507" font-size="10" text-anchor="middle">5</text><line x1="359" y1="492" x2="359" y2="497" stroke="black" stroke-width="1" /><text x="359" y="507" font-size="10" text-anchor="middle">6</text><line x1="409" y1="492" x2="409" y2="497" stroke="black" stroke-width="1" /><text x="409" y="507" font-size="10" text-anchor="middle">7</text><line x1="459" y1="492" x2="459" y2="497" stroke="black" stroke-width="1" /><text x="459" y="507" font-size="10" text-anchor="middle">8</text><line x1="509" y1="492" x2="509" y2="497" stroke="black" stroke-width="1" /><text x="509" y="507" font-size="10" text-anchor="middle">9</text><line x1="559" y1="492" x2="559" y2="497" stroke="black" stroke-width="1" /><text x="559" y="507" font-size="10" text-anchor="middle">10</text><line x1="609" y1="492" x2="609" y2="497" stroke="black" stroke-width="1" /><text x="609" y="507" font-size="10" text-anchor="middle">11</text><line x1="659" y1="492" x2="659" y2="497" stroke="black" stroke-width="1" /><text x="659" y="507" font-size="10" text-anchor="middle">12</text><line x1="54" y1="492" x2="59" y2="492" stroke="black" stroke-width="1" /><text x="51" y="495.5" font-size="10" text-anchor="end">-1.5</text><line x1="54" y1="454.5" x2="59" y2="454.5" stroke="black" stroke-width="1" /><text x="51" y="458" font-size="10" text-anchor="end">-1.25</text><line x1="54" y1="417" x2="59" y2="417" stroke="black" stroke-width="1" /><text x="51" y="420.5" font-size="10" text-anchor="end">-1</text><line x1="54" y1="379.5" x2="59" y2="379.5" stroke="black" stroke-width="1" /><text x="51" y="383" font-size="10" text-anchor="end">-0.75</text><line x1="54" y1="342" x2="59" y2="342" stroke="black" stroke-width="1" /><text x="51" y="345.5" font-size="10" text-anchor="end">-0.5</text><line x1="54" y1="304.5" x2="59" y2="304.5" stroke="black" stroke-width="1" /><text x="51" y="308" font-size="10" text-anchor="end">-0.25</text><line x1="54" y1="267" x2="59" y2="267" stroke="black" stroke-width="1" /><text x="51" y="270.5" font-size="10" text-anchor="end">0</text><line x1="54" y1="229.5" x2="59" y2="229.5" stroke="black" stroke-width="1" /><text x="51" y="233" font-size="10" text-anchor="end">0.25</text><line x1="54" y1="192" x2="59" y2="192" stroke="black" stroke-width="1" /><text x="51" y="195.5" font-size="10" text-anchor="end">0.5</text><line x1="54" y1="154.5" x2="59" y2="154.5" stroke="black" stroke-width="1" /><text x="51" y="158" font-size="10" text-anchor="end">0.75</text><line x1="54" y1="117" x2="59" y2="117" stroke="black" stroke-width="1" /><text x="51" y="120.5" font-size="10" text-anchor="end">1</text><line x1="54" y1="79.5" x2="59" y2="79.5" stroke="black" stroke-width="1" /><text x="51" y="83" font-size="10" text-anchor="end">1.25</text><line x1="54" y1="42" x2="59" y2="42" stroke="black" stroke-width="1" /><text x="51" y="45.5" font-size="10" text-anchor="end">1.5</text><text x="410" y="534" font-size="14" text-anchor="middle">x</text><text x="14" y="270.5" font-size="14" text-anchor="middle" transform="rotate(-90,14,270.5)">y</text><text x="410" y="21" font-size="16" text-anchor="middle">Multiple Series with Bands</text><path d="M 59 229.5 L 69 199.69960038074083 L 79 171.08724865370237 L 89 144.8036289907447 L 99 121.89658636507158 L 109 103.27935227881551 L 119.00000000000001 89.69413710491608 L 129 81.68254050173095 L 139 79.56395954377427 L 149 83.42285536827075 L 159 93.10538597614772 L 169 108.22553942706145 L 179.00000000000003 128.18052291732744 L 189 152.17479422678036 L 199.00000000000003 179.25177747661434 L 209 208.33199879101988 L 219 238.25612151413705 L 229.00000000000003 267.83116530402475 L 239 295.8780664942278 L 249.00000000000003 321.27868364140784 L 259 343.02037429618923 L 269 360.23636586203827 L 279 372.2403110834274 L 289 378.55365054501965 L 299.00000000000006 378.9246913253761 L 309 373.33864119947077 L 319 362.01819835802297 L 329 345.4146731333981 L 339.00000000000006 324.18999568084814 L 349.00000000000006 299.1903269120635 L 359 271.4123247298389 L 369.00000000000006 241.9634104226245 L 379 212.01761927242592 L 389 182.7687954729932 L 399.00000000000006 155.38299732920865 L 409 130.95201019218166 L 419 110.449820422627 L 429 94.69378562825591 L 439.00000000000006 84.31204919527704 L 449 79.71849819380924 L 459 81.09626300649273 L 469.00000000000006 88.39041649803409 L 479.00000000000006 101.31016378675798 L 489 119.34043531888301 L 499.00000000000006 141.7624210662358 L 509 167.6822272137365 L 519 196.06651288496306 L 529 225.78368618199636 L 539.0000000000001 255.6490171834472 L 549 284.47186938778924 L 559 311.10316663340546 L 569 334.48120313903155 L 579 353.6739703628481 L 589 367.9163132419211 L 599 376.6404345099737 L 609 379.49853098260553 L 619.0000000000001 376.37665937269753 L 629 367.3992788497014 L 639.0000000000001 352.9242892453062 L 649 333.5287627165684 L 649 408.5287627165684 L 639.0000000000001 427.9242892453062 L 629 442.3992788497014 L 619.0000000000001 451.37665937269753 L 609 454.49853098260553 L 599 451.6404345099737 L 589 442.9163132419211 L 579 428.6739703628481 L 569 409.48120313903155 L 559 386.10316663340546 L 549 359.4718693877893 L 539.0000000000001 330.6490171834472 L 529 300.78368618199636 L 519 271.0665128849631 L 509 242.68222721373652 L 499.00000000000006 216.76242106623573 L 489 194.340435318883 L 479.00000000000006 176.31016378675793 L 469.00000000000006 163.39041649803409 L 459 156.09626300649268 L 449 154.71849819380924 L 439.00000000000006 159.31204919527698 L 429 169.6937856282559 L 419 185.449820422627 L 409 205.95201019218166 L 399.00000000000006 230.3829973292087 L 389 257.7687954729932 L 379 287.0176192724259 L 369.00000000000006 316.96341042262446 L 359 346.4123247298389 L 349.00000000000006 374.1903269120635 L 339.00000000000006 399.18999568084814 L 329 420.4146731333981 L 319 437.01819835802297 L 309 448.33864119947077 L 299.00000000000006 453.9246913253761 L 289 453.55365054501965 L 279 447.2403110834274 L 269 435.2363658620382 L 259 418.02037429618923 L 249.00000000000003 396.2786836414079 L 239 370.8780664942279 L 229.00000000000003 342.83116530402475 L 219 313.256121514137 L 209 283.33199879101994 L 199.00000000000003 254.2517774766143 L 189 227.17479422678036 L 179.00000000000003 203.18052291732738 L 169 183.2255394270615 L 159 168.10538597614772 L 149 158.42285536827075 L 139 154.56395954377427 L 129 156.68254050173095 L 119.00000000000001 164.69413710491608 L 109 178.27935227881545 L 99 196.89658636507164 L 89 219.8036289907447 L 79 246.0872486537024 L 69 274.6996003807408 L 59 304.5 Z" stroke="none" stroke-width="0" fill="steelblue" fill-opacity="0.2" /><path d="M 59 267 L 69 237.19960038074078 L 79 208.58724865370237 L 89 182.30362899074476 L 99 159.39658636507158 L 109 140.7793522788155 L 119.00000000000001 127.19413710491602 L 129 119.18254050173095 L 139 117.06395954377422 L 149 120.92285536827069 L 159 130.60538597614772 L 169 145.7255394270615 L 179.00000000000003 165.68052291732738 L 189 189.67479422678036 L 199.00000000000003 216.75177747661428 L 209 245.83199879101994 L 219 275.756121514137 L 229.00000000000003 305.33116530402475 L 239 333.3780664942278 L 249.00000000000003 358.7786836414079 L 259 380.52037429618923 L 269 397.7363658620382 L 279 409.7403110834274 L 289 416.05365054501965 L 299.00000000000006 416.4246913253761 L 309 410.83864119947077 L 319 399.51819835802297 L 329 382.9146731333981 L 339.00000000000006 361.68999568084814 L 349.00000000000006 336.6903269120635 L 359 308.91232472983893 L 369.00000000000006 279.46341042262446 L 379 249.51761927242597 L 389 220.26879547299325 L 399.00000000000006 192.88299732920865 L 409 168.4520101921816 L 419 147.94982042262706 L 429 132.19378562825597 L 439.00000000000006 121.81204919527698 L 449 117.21849819380924 L 459 118.59626300649273 L 469.00000000000006 125.89041649803409 L 479.00000000000006 138.81016378675793 L 489 156.840435318883 L 499.00000000000006 179.2624210662358 L 509 205.1822272137365 L 519 233.56651288496312 L 529 263.2836861819963 L 539.0000000000001 293.1490171834472 L 549 321.97186938778924 L 559 348.60316663340546 L 569 371.98120313903155 L 579 391.1739703628481 L 589 405.4163132419211 L 599 414.1404345099737 L 609 416.99853098260553 L 619.0000000000001 413.87665937269753 L 629 404.8992788497014 L 639.0000000000001 390.42428924530617 L 649 371.02876271656834 " stroke="steelblue" stroke-width="2" fill="none" /><path d="M 59 109.5 L 69 110.09950016663686 L 79 111.89201065905104 L 89 114.85962130492726 L 99 118.97268071965374 L 109 124.19009257315525 L 119.00000000000001 130.45972621083865 L 129 137.71893752586135 L 139 145.89519487834008 L 149 154.90680380752025 L 159 164.66372329582322 L 169 175.06846542893072 L 179.00000000000003 186.0170694627992 L 189 197.40014056504953 L 199.00000000000003 209.1039428519711 L 209 221.01153579987562 L 219 233.00394267615468 L 229.00000000000003 244.961339315463 L 239 256.7642513631705 L 249.00000000000003 268.2947480236204 L 259 279.43762038565706 L 269 290.08153255198295 L 279 300.1201340706415 L 289 309.45312255357896 L 299.00000000000006 317.9872458649495 L 309 325.637233865632 L 319 332.32665040427366 L 329 337.9886570420473 L 339.00000000000006 342.566680880239 L 349.00000000000006 346.0149798179509 L 359 348.2990995920535 L 369.00000000000006 349.3962180327935 L 379 349.2953730953704 L 389 347.9975723890638 L 399.00000000000006 345.51578310953533 L 409 341.87480247489555 L 419 337.1110099600976 L 429 331.272003805249 L 439.00000000000006 324.41612542972996 L 449 316.6118765040168 L 459 307.9372345036335 L 469.00000000000006 298.47887358399225 L 479.00000000000006 288.33129856088397 L 489 277.59590064959707 L 499.00000000000006 266.3799443974103 L 509 254.79549593169355 L 519 242.95830323220648 L 529 230.98663961554684 L 539.0000000000001 219.0001219872663 L 549 207.1185156692909 L 559 195.46053774441287 L 569 184.14267087444227 L 579 173.27799944395468 L 589 162.9750796585006 L 599 153.33685488688383 L 609 144.4596270850488 L 619.0000000000001 136.43209457876998 L 629 129.33446581930076 L 639.0000000000001 123.23765796704168 L 649 118.20258831071573 L 649 193.20258831071567 L 639.0000000000001 198.23765796704168 L 629 204.33446581930082 L 619.0000000000001 211.43209457876992 L 609 219.4596270850488 L 599 228.33685488688383 L 589 237.97507965850065 L 579 248.27799944395474 L 569 259.1426708744423 L 559 270.4605377444128 L 549 282.1185156692909 L 539.0000000000001 294.0001219872663 L 529 305.9866396155469 L 519 317.9583032322065 L 509 329.79549593169355 L 499.00000000000006 341.3799443974103 L 489 352.59590064959707 L 479.00000000000006 363.33129856088397 L 469.00000000000006 373.47887358399225 L 459 382.9372345036334 L 449 391.6118765040168 L 439.00000000000006 399.41612542972996 L 429 406.27200380524897 L 419 412.11100996009765 L 409 416.87480247489555 L 399.00000000000006 420.51578310953533 L 389 422.9975723890638 L 379 424.29537309537034 L 369.00000000000006 424.3962180327935 L 359 423.29909959205344 L 349.00000000000006 421.0149798179509 L 339.00000000000006 417.566680880239 L 329 412.98865704204735 L 319 407.32665040427366 L 309 400.637233865632 L 299.00000000000006 392.9872458649495 L 289 384.45312255357896 L 279 375.1201340706415 L 269 365.0815325519829 L 259 354.43762038565706 L 249.00000000000003 343.2947480236204 L 239 331.7642513631704 L 229.00000000000003 319.96133931546296 L 219 308.0039426761547 L 209 296.0115357998757 L 199.00000000000003 284.1039428519711 L 189 272.40014056504947 L 179.00000000000003 261.0170694627992 L 169 250.06846542893072 L 159 239.66372329582325 L 149 229.9068038075203 L 139 220.89519487834013 L 129 212.7189375258614 L 119.00000000000001 205.4597262108386 L 109 199.1900925731553 L 99 193.9726807196538 L 89 189.85962130492726 L 79 186.89201065905104 L 69 185.09950016663686 L 59 184.50000000000006 Z" stroke="none" stroke-width="0" fill="darkorange" fill-opacity="0.2" /><path d="M 59 147 L 69 147.59950016663686 L 79 149.39201065905098 L 89 152.35962130492726 L 99 156.4726807196538 L 109 161.69009257315525 L 119.00000000000001 167.95972621083865 L 129 175.2189375258614 L 139 183.39519487834013 L 149 192.40680380752025 L 159 202.16372329582322 L 169 212.56846542893072 L 179.00000000000003 223.51706946279916 L 189 234.90014056504947 L 199.00000000000003 246.6039428519711 L 209 258.5115357998757 L 219 270.5039426761547 L 229.00000000000003 282.46133931546296 L 239 294.26425136317044 L 249.00000000000003 305.7947480236204 L 259 316.93762038565706 L 269 327.58153255198295 L 279 337.6201340706415 L 289 346.95312255357896 L 299.00000000000006 355.4872458649495 L 309 363.1372338656321 L 319 369.82665040427366 L 329 375.48865704204735 L 339.00000000000006 380.066680880239 L 349.00000000000006 383.5149798179509 L 359 385.79909959205344 L 369.00000000000006 386.89621803279357 L 379 386.7953730953704 L 389 385.4975723890638 L 399.00000000000006 383.01578310953533 L 409 379.3748024748956 L 419 374.61100996009765 L 429 368.77200380524897 L 439.00000000000006 361.91612542972996 L 449 354.1118765040168 L 459 345.4372345036334 L 469.00000000000006 335.97887358399225 L 479.00000000000006 325.83129856088397 L 489 315.09590064959707 L 499.00000000000006 303.8799443974103 L 509 292.29549593169355 L 519 280.4583032322065 L 529 268.4866396155469 L 539.0000000000001 256.5001219872663 L 549 244.61851566929093 L 559 232.96053774441287 L 569 221.64267087444227 L 579 210.77799944395474 L 589 200.47507965850065 L 599 190.83685488688388 L 609 181.9596270850488 L 619.0000000000001 173.93209457876998 L 629 166.83446581930082 L 639.0000000000001 160.73765796704168 L 649 155.70258831071567 " stroke="darkorange" stroke-width="2" fill="none" /><rect x="664" y="32" width="147" height="56" fill="white" /><rect x="664" y="32" width="147" height="56" fill="none" stroke="black" stroke-width="1" /><text x="694" y="47" font-size="12" text-anchor="start">sin(x)</text><line x1="674" y1="44" x2="686" y2="44" stroke="steelblue" stroke-width="2" /><text x="694" y="65" font-size="12" text-anchor="start">0.8 · cos(0.5x)</text><line x1="674" y1="62" x2="686" y2="62" stroke="darkorange" stroke-width="2" /></svg>