<svg xmlns="http://www.w3.org/2000/svg" width="820" height="541" fill="black"><rect width="100%" height="100%" fill="white" /><line x1="59" y1="492" x2="659" y2="492" stroke="black" stroke-width="1" /><line x1="59" y1="42" x2="59" y2="492" stroke="black" stroke-width="1" /><line x1="105.15384615384616" y1="42" x2="105.15384615384616" y2="492" stroke="#ccc" stroke-width="1" /><line x1="151.30769230769232" y1="42" x2="151.30769230769232" y2="492" stroke="#ccc" stroke-width="1" /><line x1="197.46153846153848" y1="42" x2="197.46153846153848" y2="492" stroke="#ccc" stroke-width="1" /><line x1="243.6153846153846" y1="42" x2="243.6153846153846" y2="492" stroke="#ccc" stroke-width="1" /><line x1="289.7692307692308" y1="42" x2="289.7692307692308" y2="492" stroke="#ccc" stroke-width="1" /><line x1="335.92307692307696" y1="42" x2="335.92307692307696" y2="492" stroke="#ccc" stroke-width="1" /><line x1="382.07692307692304" y1="42" x2="382.07692307692304" y2="492" stroke="#ccc" stroke-width="1" /><line x1="428.2307692307692" y1="42" x2="428.2307692307692" y2="492" stroke="#ccc" stroke-width="1" /><line x1="474.38461538461536" y1="42" x2="474.38461538461536" y2="492" stroke="#ccc" stroke-width="1" /><line x1="520.5384615384615" y1="42" x2="520.5384615384615" y2="492" stroke="#ccc" stroke-width="1" /><line x1="566.6923076923076" y1="42" x2="566.6923076923076" y2="492" stroke="#ccc" stroke-width="1" /><line x1="612.8461538461539" y1="42" x2="612.8461538461539" y2="492" stroke="#ccc" stroke-width="1" /><line x1="659" y1="42" x2="659" y2="492" stroke="#ccc" stroke-width="1" /><line x1="59" y1="447" x2="659" y2="447" stroke="#ccc" stroke-width="1" /><line x1="59" y1="402" x2="659" y2="402" stroke="#ccc" stroke-width="1" /><line x1="59" y1="357" x2="659" y2="357" stroke="#ccc" stroke-width="1" /><line x1="59" y1="312" x2="659" y2="312" stroke="#ccc" stroke-width="1" /><line x1="59" y1="267" x2="659" y2="267" stroke="#ccc" stroke-width="1" /><line x1="59" y1="222" x2="659" y2="222" stroke="#ccc" stroke-width="1" /><line x1="59" y1="177" x2="659" y2="177" stroke="#ccc" stroke-width="1" /><line x1="59" y1="132" x2="659" y2="132" stroke="#ccc" stroke-width="1" /><line x1="59" y1="87" x2="659" y2="87" stroke="#ccc" stroke-width="1" /><line x1="59" y1="42" x2="659" y2="42" stroke="#ccc" stroke-width="1" /><line x1="59" y1="492" x2="59" y2="497" stroke="black" stroke-width="1" /><text x="59" y="507" font-size="10" text-anchor="middle">0</text><line x1="105.15384615384616" y1="492" x2="105.15384615384616" y2="497" stroke="black" stroke-width="1" /><text x="105.15384615384616" y="507" font-size="10" text-anchor="middle">1</text><line x1="151.30769230769232" y1="492" x2="151.30769230769232" y2="497" stroke="black" stroke-width="1" /><text x="151.30769230769232" y="507" font-size="10" text-anchor="middle">2</text><line x1="197.46153846153848" y1="492" x2="197.46153846153848" y2="497" stroke="black" stroke-width="1" /><text x="197.46153846153848" y="507" font-size="10" text-anchor="middle">3</text><line x1="243.6153846153846" y1="492" x2="243.6153846153846" y2="497" stroke="black" stroke-width="1" /><text x="243.6153846153846" y="507" font-size="10" text-anchor="middle">4</text><line x1="289.7692307692308" y1="492" x2="289.7692307692308" y2="497" stroke="black" stroke-width="1" /><text x="289.7692307692308" y="507" font-size="10" text-anchor="middle">5</text><line x1="335.92307692307696" y1="492" x2="335.92307692307696" y2="497" stroke="black" stroke-width="1" /><text x="335.92307692307696" y="507" font-size="10" text-anchor="middle">6</text><line x1="382.07692307692304" y1="492" x2="382.07692307692304" y2="497" stroke="black" stroke-width="1" /><text x="382.07692307692304" y="507" font-size="10" text-anchor="middle">7</text><line x1="428.2307692307692" y1="492" x2="428.2307692307692" y2="497" stroke="black" stroke-width="1" /><text x="428.2307692307692" y="507" font-size="10" text-anchor="middle">8</text><line x1="474.38461538461536" y1="492" x2="474.38461538461536" y2="497" stroke="black" stroke-width="1" /><text x="474.38461538461536" y="507" font-size="10" text-anchor="middle">9</text><line x1="520.5384615384615" y1="492" x2="520.5384615384615" y2="497" stroke="black" stroke-width="1" /><text x="520.5384615384615" y="507" font-size="10" text-anchor="middle">10</text><line x1="566.6923076923076" y1="492" x2="566.6923076923076" y2="497" stroke="black" stroke-width="1" /><text x="566.6923076923076" y="507" font-size="10" text-anchor="middle">11</text><line x1="612.8461538461539" y1="492" x2="612.8461538461539" y2="497" stroke="black" stroke-width="1" /><text x="612.8461538461539" y="507" font-size="10" text-anchor="middle">12</text><line x1="659" y1="492" x2="659" y2="497" stroke="black" stroke-width="1" /><text x="659" y="507" font-size="10" text-anchor="middle">13</text><line x1="54" y1="492" x2="59" y2="492" stroke="black" stroke-width="1" /><text x="51" y="495.5" font-size="10" text-anchor="end">-2.5</text><line x1="54" y1="447" x2="59" y2="447" stroke="black" stroke-width="1" /><text x="51" y="450.5" font-size="10" text-anchor="end">-2</text><line x1="54" y1="402" x2="59" y2="402" stroke="black" stroke-width="1" /><text x="51" y="405.5" font-size="10" text-anchor="end">-1.5</text><line x1="54" y1="357" x2="59" y2="357" stroke="black" stroke-width="1" /><text x="51" y="360.5" font-size="10" text-anchor="end">-1</text><line x1="54" y1="312" x2="59" y2="312" stroke="black" stroke-width="1" /><text x="51" y="315.5" font-size="10" text-anchor="end">-0.5</text><line x1="54" y1="267" x2="59" y2="267" stroke="black" stroke-width="1" /><text x="51" y="270.5" font-size="10" text-anchor="end">0</text><line x1="54" y1="222" x2="59" y2="222" stroke="black" stroke-width="1" /><text x="51" y="225.5" font-size="10" text-anchor="end">0.5</text><line x1="54" y1="177" x2="59" y2="177" stroke="black" stroke-width="1" /><text x="51" y="180.5" font-size="10" text-anchor="end">1</text><line x1="54" y1="132" x2="59" y2="132" stroke="black" stroke-width="1" /><text x="51" y="135.5" font-size="10" text-anchor="end">1.5</text><line x1="54" y1="87" x2="59" y2="87" stroke="black" stroke-width="1" /><text x="51" y="90.5" font-size="10" text-anchor="end">2</text><line x1="54" y1="42" x2="59" y2="42" stroke="black" stroke-width="1" /><text x="51" y="45.5" font-size="10" text-anchor="end">2.5</text><text x="410" y="534" font-size="14" text-anchor="middle">x</text><text x="14" y="270.5" font-size="14" text-anchor="middle" transform="rotate(-90,14,270.5)">y</text><text x="410" y="21" font-size="16" text-anchor="middle">Multiple Series with Bands</text><path d="M 59 244.49999999999997 L 68.23076923076923 226.61976022844448 L 77.46153846153847 209.45234919222145 L 86.6923076923077 193.68217739444685 L 95.92307692307693 179.93795181904295 L 105.15384615384616 168.7676113672893 L 114.38461538461539 160.6164822629496 L 123.61538461538461 155.80952430103855 L 132.84615384615387 154.53837572626458 L 142.0769230769231 156.8537132209624 L 151.30769230769232 162.66323158568866 L 160.53846153846155 171.73532365623691 L 169.76923076923077 183.70831375039648 L 179 198.10487653606822 L 188.23076923076923 214.3510664859686 L 197.46153846153848 231.7991992746119 L 206.6923076923077 249.7536729084822 L 215.92307692307693 267.49869918241484 L 225.15384615384616 284.32683989653674 L 234.3846153846154 299.5672101848447 L 243.6153846153846 312.6122245777135 L 252.84615384615387 322.94181951722294 L 262.0769230769231 330.14418665005644 L 271.3076923076923 333.9321903270118 L 280.53846153846155 334.15481479522566 L 289.7692307692308 330.80318471968246 L 299 324.0109190148138 L 308.2307692307693 314.04880388003886 L 317.46153846153845 301.31399740850884 L 326.69230769230774 286.3141961472381 L 335.92307692307696 269.64739483790333 L 345.1538461538462 251.9780462535747 L 354.3846153846154 234.01057156345558 L 363.61538461538464 216.46127728379594 L 372.84615384615387 200.0297983975252 L 382.07692307692304 185.37120611530895 L 391.3076923076923 173.0698922535762 L 400.53846153846155 163.6162713769536 L 409.7692307692308 157.3872295171662 L 419.00000000000006 154.6310989162855 L 428.2307692307692 155.45775780389562 L 437.4615384615385 159.83424989882047 L 446.69230769230774 167.5860982720548 L 455.9230769230769 178.4042611913298 L 465.1538461538462 191.8574526397415 L 474.38461538461536 207.40933632824192 L 483.61538461538464 224.43990773097784 L 492.8461538461538 242.27021170919778 L 502.07692307692315 260.1894103100683 L 511.3076923076924 277.48312163267354 L 520.5384615384615 293.46189998004326 L 529.7692307692308 307.488721883419 L 539 319.00438221770884 L 548.2307692307693 327.5497879451527 L 557.4615384615386 332.78426070598425 L 566.6923076923076 334.4991185895633 L 575.9230769230769 332.62599562361856 L 585.1538461538462 327.2395673098208 L 594.3846153846155 318.55457354718374 L 603.6153846153846 306.917257629941 L 603.6153846153846 351.917257629941 L 594.3846153846155 363.55457354718374 L 585.1538461538462 372.2395673098208 L 575.9230769230769 377.62599562361856 L 566.6923076923076 379.4991185895633 L 557.4615384615386 377.78426070598425 L 548.2307692307693 372.5497879451527 L 539 364.00438221770884 L 529.7692307692308 352.488721883419 L 520.5384615384615 338.46189998004326 L 511.3076923076924 322.48312163267354 L 502.07692307692315 305.1894103100683 L 492.8461538461538 287.27021170919784 L 483.61538461538464 269.43990773097784 L 474.38461538461536 252.4093363282419 L 465.1538461538462 236.85745263974147 L 455.9230769230769 223.40426119132985 L 446.69230769230774 212.58609827205476 L 437.4615384615385 204.83424989882047 L 428.2307692307692 200.45775780389567 L 419.00000000000006 199.63109891628557 L 409.7692307692308 202.3872295171662 L 400.53846153846155 208.6162713769536 L 391.3076923076923 218.0698922535762 L 382.07692307692304 230.37120611530895 L 372.84615384615387 245.02979839752518 L 363.61538461538464 261.4612772837959 L 354.3846153846154 279.0105715634556 L 345.1538461538462 296.9780462535747 L 335.92307692307696 314.64739483790333 L 326.69230769230774 331.3141961472381 L 317.46153846153845 346.31399740850884 L 308.2307692307693 359.0488038800388 L 299 369.0109190148138 L 289.7692307692308 375.80318471968246 L 280.53846153846155 379.15481479522566 L 271.3076923076923 378.93219032701177 L 262.0769230769231 375.14418665005644 L 252.84615384615387 367.94181951722294 L 243.6153846153846 357.6122245777135 L 234.3846153846154 344.5672101848447 L 225.15384615384616 329.32683989653674 L 215.92307692307693 312.49869918241484 L 206.6923076923077 294.75367290848226 L 197.46153846153848 276.79919927461196 L 188.23076923076923 259.35106648596854 L 179 243.10487653606822 L 169.76923076923077 228.70831375039643 L 160.53846153846155 216.73532365623691 L 151.30769230769232 207.66323158568866 L 142.0769230769231 201.85371322096245 L 132.84615384615387 199.53837572626452 L 123.61538461538461 200.80952430103855 L 114.38461538461539 205.6164822629496 L 105.15384615384616 213.76761136728925 L 95.92307692307693 224.93795181904295 L 86.6923076923077 238.68217739444682 L 77.46153846153847 254.45234919222148 L 68.23076923076923 271.6197602284445 L 59 289.5 Z" stroke="none" stroke-width="0" fill="steelblue" fill-opacity="0.2" /><path d="M 59 267 L 68.23076923076923 249.11976022844445 L 77.46153846153847 231.95234919222145 L 86.6923076923077 216.18217739444685 L 95.92307692307693 202.43795181904295 L 105.15384615384616 191.2676113672893 L 114.38461538461539 183.11648226294966 L 123.61538461538461 178.3095243010386 L 132.84615384615387 177.03837572626458 L 142.0769230769231 179.35371322096245 L 151.30769230769232 185.1632315856886 L 160.53846153846155 194.23532365623686 L 169.76923076923077 206.20831375039643 L 179 220.60487653606822 L 188.23076923076923 236.85106648596857 L 197.46153846153848 254.29919927461194 L 206.6923076923077 272.25367290848226 L 215.92307692307693 289.99869918241484 L 225.15384615384616 306.82683989653674 L 234.3846153846154 322.0672101848447 L 243.6153846153846 335.11222457771356 L 252.84615384615387 345.44181951722294 L 262.0769230769231 352.64418665005644 L 271.3076923076923 356.43219032701177 L 280.53846153846155 356.65481479522566 L 289.7692307692308 353.30318471968246 L 299 346.5109190148138 L 308.2307692307693 336.54880388003886 L 317.46153846153845 323.81399740850884 L 326.69230769230774 308.8141961472381 L 335.92307692307696 292.14739483790333 L 345.1538461538462 274.4780462535747 L 354.3846153846154 256.5105715634556 L 363.61538461538464 238.96127728379594 L 372.84615384615387 222.5297983975252 L 382.07692307692304 207.871206115309 L 391.3076923076923 195.5698922535762 L 400.53846153846155 186.11627137695353 L 409.7692307692308 179.88722951716625 L 419.00000000000006 177.13109891628557 L 428.2307692307692 177.95775780389562 L 437.4615384615385 182.33424989882042 L 446.69230769230774 190.08609827205476 L 455.9230769230769 200.9042611913298 L 465.1538461538462 214.35745263974144 L 474.38461538461536 229.90933632824192 L 483.61538461538464 246.93990773097786 L 492.8461538461538 264.77021170919784 L 502.07692307692315 282.6894103100683 L 511.3076923076924 299.98312163267354 L 520.5384615384615 315.9618999800433 L 529.7692307692308 329.988721883419 L 539 341.50438221770884 L 548.2307692307693 350.0497879451527 L 557.4615384615386 355.28426070598425 L 566.6923076923076 356.9991185895633 L 575.9230769230769 355.12599562361856 L 585.1538461538462 349.7395673098208 L 594.3846153846155 341.05457354718374 L 603.6153846153846 329.417257629941 " stroke="steelblue" stroke-width="2" fill="none" /><path d="M 59 172.5 L 68.23076923076923 172.8597000999821 L 77.46153846153847 173.9352063954306 L 86.6923076923077 175.71577278295638 L 95.92307692307693 178.18360843179227 L 105.15384615384616 181.31405554389318 L 114.38461538461539 185.07583572650316 L 123.61538461538461 189.4313625155168 L 132.84615384615387 194.33711692700405 L 142.0769230769231 199.74408228451216 L 151.30769230769232 205.59823397749392 L 160.53846153846155 211.84107925735844 L 169.76923076923077 218.41024167767955 L 179 225.2400843390297 L 188.23076923076923 232.26236571118267 L 197.46153846153848 239.4069214799254 L 206.6923076923077 246.6023656056928 L 215.92307692307693 253.77680358927776 L 225.15384615384616 260.85855081790226 L 234.3846153846154 267.7768488141723 L 243.6153846153846 274.46257223139423 L 252.84615384615387 280.8489195311897 L 262.0769230769231 286.8720804423849 L 271.3076923076923 292.47187353214736 L 280.53846153846155 297.5923475189697 L 289.7692307692308 302.18234031937925 L 299 306.1959902425642 L 308.2307692307693 309.59319422522844 L 317.46153846153845 312.3400085281434 L 326.69230769230774 314.4089878907705 L 335.92307692307696 315.77945975523204 L 345.1538461538462 316.4377308196761 L 354.3846153846154 316.37722385722225 L 363.61538461538464 315.5985434334383 L 372.84615384615387 314.10946986572117 L 382.07692307692304 311.9248814849374 L 391.3076923076923 309.06660597605855 L 400.53846153846155 305.5632022831494 L 409.7692307692308 301.44967525783795 L 419.00000000000006 296.76712590241004 L 428.2307692307692 291.56234070218005 L 437.4615384615385 285.88732415039533 L 446.69230769230774 279.79877913653036 L 455.9230769230769 273.35754038975824 L 465.1538461538462 266.6279666384462 L 474.38461538461536 259.6772975590161 L 483.61538461538464 252.57498193932392 L 492.8461538461538 245.39198376932814 L 502.07692307692315 238.2000731923598 L 511.3076923076924 231.07110940157452 L 520.5384615384615 224.07632264664772 L 529.7692307692308 217.28560252466536 L 539 210.76679966637283 L 548.2307692307693 204.58504779510037 L 557.4615384615386 198.80211293213029 L 566.6923076923076 193.4757762510293 L 575.9230769230769 188.65925674726196 L 585.1538461538462 184.4006794915805 L 594.3846153846155 180.74259478022503 L 603.6153846153846 177.7215529864294 L 603.6153846153846 222.72155298642946 L 594.3846153846155 225.74259478022503 L 585.1538461538462 229.4006794915805 L 575.9230769230769 233.65925674726196 L 566.6923076923076 238.4757762510293 L 557.4615384615386 243.8021129321303 L 548.2307692307693 249.5850477951004 L 539 255.7667996663728 L 529.7692307692308 262.28560252466536 L 520.5384615384615 269.0763226466477 L 511.3076923076924 276.0711094015745 L 502.07692307692315 283.2000731923598 L 492.8461538461538 290.39198376932814 L 483.61538461538464 297.57498193932395 L 474.38461538461536 304.6772975590161 L 465.1538461538462 311.6279666384462 L 455.9230769230769 318.35754038975824 L 446.69230769230774 324.79877913653036 L 437.4615384615385 330.88732415039533 L 428.2307692307692 336.5623407021801 L 419.00000000000006 341.76712590241004 L 409.7692307692308 346.449675257838 L 400.53846153846155 350.5632022831494 L 391.3076923076923 354.06660597605855 L 382.07692307692304 356.9248814849374 L 372.84615384615387 359.10946986572117 L 363.61538461538464 360.5985434334383 L 354.3846153846154 361.37722385722225 L 345.1538461538462 361.4377308196761 L 335.92307692307696 360.7794597552321 L 326.69230769230774 359.4089878907705 L 317.46153846153845 357.3400085281434 L 308.2307692307693 354.5931942252284 L 299 351.1959902425642 L 289.7692307692308 347.18234031937925 L 280.53846153846155 342.5923475189697 L 271.3076923076923 337.47187353214736 L 262.0769230769231 331.8720804423849 L 252.84615384615387 325.8489195311897 L 243.6153846153846 319.46257223139423 L 234.3846153846154 312.77684881417224 L 225.15384615384616 305.85855081790226 L 215.92307692307693 298.7768035892778 L 206.6923076923077 291.60236560569274 L 197.46153846153848 284.4069214799254 L 188.23076923076923 277.26236571118267 L 179 270.24008433902975 L 169.76923076923077 263.41024167767955 L 160.53846153846155 256.8410792573584 L 151.30769230769232 250.59823397749395 L 142.0769230769231 244.7440822845122 L 132.84615384615387 239.33711692700405 L 123.61538461538461 234.4313625155168 L 114.38461538461539 230.07583572650321 L 105.15384615384616 226.31405554389318 L 95.92307692307693 223.18360843179227 L 86.6923076923077 220.71577278295638 L 77.46153846153847 218.9352063954306 L 68.23076923076923 217.8597000999821 L 59 217.5 Z" stroke="none" stroke-width="0" fill="darkorange" fill-opacity="0.2" /><path d="M 59 195.00000000000006 L 68.23076923076923 195.35970009998215 L 77.46153846153847 196.4352063954306 L 86.6923076923077 198.21577278295632 L 95.92307692307693 200.68360843179227 L 105.15384615384616 203.81405554389318 L 114.38461538461539 207.57583572650316 L 123.61538461538461 211.93136251551687 L 132.84615384615387 216.8371169270041 L 142.0769230769231 222.24408228451216 L 151.30769230769232 228.09823397749392 L 160.53846153846155 234.34107925735844 L 169.76923076923077 240.91024167767952 L 179 247.74008433902972 L 188.23076923076923 254.76236571118264 L 197.46153846153848 261.9069214799254 L 206.6923076923077 269.10236560569274 L 215.92307692307693 276.2768035892778 L 225.15384615384616 283.35855081790226 L 234.3846153846154 290.27684881417224 L 243.6153846153846 296.96257223139423 L 252.84615384615387 303.3489195311897 L 262.0769230769231 309.3720804423849 L 271.3076923076923 314.97187353214736 L 280.53846153846155 320.0923475189697 L 289.7692307692308 324.68234031937925 L 299 328.6959902425642 L 308.2307692307693 332.09319422522844 L 317.46153846153845 334.8400085281434 L 326.69230769230774 336.9089878907705 L 335.92307692307696 338.2794597552321 L 345.1538461538462 338.9377308196761 L 354.3846153846154 338.87722385722225 L 363.61538461538464 338.0985434334383 L 372.84615384615387 336.60946986572117 L 382.07692307692304 334.4248814849374 L 391.3076923076923 331.56660597605855 L 400.53846153846155 328.0632022831494 L 409.7692307692308 323.94967525783795 L 419.00000000000006 319.26712590241004 L 428.2307692307692 314.0623407021801 L 437.4615384615385 308.38732415039533 L 446.69230769230774 302.29877913653036 L 455.9230769230769 295.85754038975824 L 465.1538461538462 289.1279666384462 L 474.38461538461536 282.1772975590161 L 483.61538461538464 275.07498193932383 L 492.8461538461538 267.89198376932814 L 502.07692307692315 260.7000731923598 L 511.3076923076924 253.57110940157455 L 520.5384615384615 246.57632264664775 L 529.7692307692308 239.78560252466536 L 539 233.26679966637283 L 548.2307692307693 227.08504779510037 L 557.4615384615386 221.30211293213034 L 566.6923076923076 215.9757762510293 L 575.9230769230769 211.15925674726196 L 585.1538461538462 206.90067949158043 L 594.3846153846155 203.24259478022498 L 603.6153846153846 200.2215529864294 " stroke="darkorange" stroke-width="2" fill="none" /><rect x="664" y="32" width="147" height="56" fill="white" /><rect x="664" y="32" width="147" height="56" fill="none" stroke="black" stroke-width="1" /><text x="694" y="47" font-size="12" text-anchor="start">sin(x)</text><line x1="674" y1="44" x2="686" y2="44" stroke="steelblue" stroke-width="2" /><text x="694" y="65" font-size="12" text-anchor="start">0.8 · cos(0.5x)</text><line x1="674" y1="62" x2="686" y2="62" stroke="darkorange" stroke-width="2" /></svg>