<svg xmlns="http://www.w3.org/2000/svg" width="673" height="541" fill="black"><rect width="100%" height="100%" fill="white" /><line x1="59" y1="492" x2="659" y2="492" stroke="black" stroke-width="1" /><line x1="59" y1="42" x2="59" y2="492" stroke="black" stroke-width="1" /><line x1="105.15384615384616" y1="42" x2="105.15384615384616" y2="492" stroke="#ccc" stroke-width="1" /><line x1="151.30769230769232" y1="42" x2="151.30769230769232" y2="492" stroke="#ccc" stroke-width="1" /><line x1="197.46153846153848" y1="42" x2="197.46153846153848" y2="492" stroke="#ccc" stroke-width="1" /><line x1="243.6153846153846" y1="42" x2="243.6153846153846" y2="492" stroke="#ccc" stroke-width="1" /><line x1="289.7692307692308" y1="42" x2="289.7692307692308" y2="492" stroke="#ccc" stroke-width="1" /><line x1="335.92307692307696" y1="42" x2="335.92307692307696" y2="492" stroke="#ccc" stroke-width="1" /><line x1="382.07692307692304" y1="42" x2="382.07692307692304" y2="492" stroke="#ccc" stroke-width="1" /><line x1="428.2307692307692" y1="42" x2="428.2307692307692" y2="492" stroke="#ccc" stroke-width="1" /><line x1="474.38461538461536" y1="42" x2="474.38461538461536" y2="492" stroke="#ccc" stroke-width="1" /><line x1="520.5384615384615" y1="42" x2="520.5384615384615" y2="492" stroke="#ccc" stroke-width="1" /><line x1="566.6923076923076" y1="42" x2="566.6923076923076" y2="492" stroke="#ccc" stroke-width="1" /><line x1="612.8461538461539" y1="42" x2="612.8461538461539" y2="492" stroke="#ccc" stroke-width="1" /><line x1="659" y1="42" x2="659" y2="492" stroke="#ccc" stroke-width="1" /><line x1="59" y1="447" x2="659" y2="447" stroke="#ccc" stroke-width="1" /><line x1="59" y1="402" x2="659" y2="402" stroke="#ccc" stroke-width="1" /><line x1="59" y1="357" x2="659" y2="357" stroke="#ccc" stroke-width="1" /><line x1="59" y1="312" x2="659" y2="312" stroke="#ccc" stroke-width="1" /><line x1="59" y1="267" x2="659" y2="267" stroke="#ccc" stroke-width="1" /><line x1="59" y1="222" x2="659" y2="222" stroke="#ccc" stroke-width="1" /><line x1="59" y1="177" x2="659" y2="177" stroke="#ccc" stroke-width="1" /><line x1="59" y1="132" x2="659" y2="132" stroke="#ccc" stroke-width="1" /><line x1="59" y1="87" x2="659" y2="87" stroke="#ccc" stroke-width="1" /><line x1="59" y1="42" x2="659" y2="42" stroke="#ccc" stroke-width="1" /><line x1="59" y1="492" x2="59" y2="497" stroke="black" stroke-width="1" /><text x="59" y="507" font-size="10" text-anchor="middle">0</text><line x1="105.15384615384616" y1="492" x2="105.15384615384616" y2="497" stroke="black" stroke-width="1" /><text x="105.15384615384616" y="507" font-size="10" text-anchor="middle">1</text><line x1="151.30769230769232" y1="492" x2="151.30769230769232" y2="497" stroke="black" stroke-width="1" /><text x="151.30769230769232" y="507" font-size="10" text-anchor="middle">2</text><line x1="197.46153846153848" y1="492" x2="197.46153846153848" y2="497" stroke="black" stroke-width="1" /><text x="197.46153846153848" y="507" font-size="10" text-anchor="middle">3</text><line x1="243.6153846153846" y1="492" x2="243.6153846153846" y2="497" stroke="black" stroke-width="1" /><text x="243.6153846153846" y="507" font-size="10" text-anchor="middle">4</text><line x1="289.7692307692308" y1="492" x2="289.7692307692308" y2="497" stroke="black" stroke-width="1" /><text x="289.7692307692308" y="507" font-size="10" text-anchor="middle">5</text><line x1="335.92307692307696" y1="492" x2="335.92307692307696" y2="497" stroke="black" stroke-width="1" /><text x="335.92307692307696" y="507" font-size="10" text-anchor="middle">6</text><line x1="382.07692307692304" y1="492" x2="382.07692307692304" y2="497" stroke="black" stroke-width="1" /><text x="382.07692307692304" y="507" font-size="10" text-anchor="middle">7</text><line x1="428.2307692307692" y1="492" x2="428.2307692307692" y2="497" stroke="black" stroke-width="1" /><text x="428.2307692307692" y="507" font-size="10" text-anchor="middle">8</text><line x1="474.38461538461536" y1="492" x2="474.38461538461536" y2="497" stroke="black" stroke-width="1" /><text x="474.38461538461536" y="507" font-size="10" text-anchor="middle">9</text><line x1="520.5384615384615" y1="492" x2="520.5384615384615" y2="497" stroke="black" stroke-width="1" /><text x="520.5384615384615" y="507" font-size="10" text-anchor="middle">10</text><line x1="566.6923076923076" y1="492" x2="566.6923076923076" y2="497" stroke="black" stroke-width="1" /><text x="566.6923076923076" y="507" font-size="10" text-anchor="middle">11</text><line x1="612.8461538461539" y1="492" x2="612.8461538461539" y2="497" stroke="black" stroke-width="1" /><text x="612.8461538461539" y="507" font-size="10" text-anchor="middle">12</text><line x1="659" y1="492" x2="659" y2="497" stroke="black" stroke-width="1" /><text x="659" y="507" font-size="10" text-anchor="middle">13</text><line x1="54" y1="492" x2="59" y2="492" stroke="black" stroke-width="1" /><text x="51" y="495.5" font-size="10" text-anchor="end">-2.5</text><line x1="54" y1="447" x2="59" y2="447" stroke="black" stroke-width="1" /><text x="51" y="450.5" font-size="10" text-anchor="end">-2</text><line x1="54" y1="402" x2="59" y2="402" stroke="black" stroke-width="1" /><text x="51" y="405.5" font-size="10" text-anchor="end">-1.5</text><line x1="54" y1="357" x2="59" y2="357" stroke="black" stroke-width="1" /><text x="51" y="360.5" font-size="10" text-anchor="end">-1</text><line x1="54" y1="312" x2="59" y2="312" stroke="black" stroke-width="1" /><text x="51" y="315.5" font-size="10" text-anchor="end">-0.5</text><line x1="54" y1="267" x2="59" y2="267" stroke="black" stroke-width="1" /><text x="51" y="270.5" font-size="10" text-anchor="end">0</text><line x1="54" y1="222" x2="59" y2="222" stroke="black" stroke-width="1" /><text x="51" y="225.5" font-size="10" text-anchor="end">0.5</text><line x1="54" y1="177" x2="59" y2="177" stroke="black" stroke-width="1" /><text x="51" y="180.5" font-size="10" text-anchor="end">1</text><line x1="54" y1="132" x2="59" y2="132" stroke="black" stroke-width="1" /><text x="51" y="135.5" font-size="10" text-anchor="end">1.5</text><line x1="54" y1="87" x2="59" y2="87" stroke="black" stroke-width="1" /><text x="51" y="90.5" font-size="10" text-anchor="end">2</text><line x1="54" y1="42" x2="59" y2="42" stroke="black" stroke-width="1" /><text x="51" y="45.5" font-size="10" text-anchor="end">2.5</text><text x="336.5" y="534" font-size="14" text-anchor="middle">x</text><text x="14" y="270.5" font-size="14" text-anchor="middle" transform="rotate(-90,14,270.5)">y</text><text x="336.5" y="21" font-size="16" text-anchor="middle">Band Plot — Standalone</text><path d="M 59 235.5 L 68.23076923076923 217.61976022844453 L 77.46153846153847 200.45234919222145 L 86.6923076923077 184.6821773944468 L 95.92307692307693 170.93795181904295 L 105.15384615384616 159.7676113672893 L 114.38461538461539 151.6164822629496 L 123.61538461538461 146.80952430103855 L 132.84615384615387 145.53837572626452 L 142.0769230769231 147.8537132209624 L 151.30769230769232 153.66323158568866 L 160.53846153846155 162.73532365623691 L 169.76923076923077 174.70831375039643 L 179 189.10487653606822 L 188.23076923076923 205.3510664859686 L 197.46153846153848 222.79919927461196 L 206.6923076923077 240.7536729084822 L 215.92307692307693 258.49869918241484 L 225.15384615384616 275.32683989653674 L 234.3846153846154 290.5672101848447 L 243.6153846153846 303.6122245777135 L 252.84615384615387 313.94181951722294 L 262.0769230769231 321.14418665005644 L 271.3076923076923 324.9321903270118 L 280.53846153846155 325.15481479522566 L 289.7692307692308 321.80318471968246 L 299 315.0109190148138 L 308.2307692307693 305.0488038800388 L 317.46153846153845 292.31399740850884 L 326.69230769230774 277.3141961472381 L 335.92307692307696 260.64739483790333 L 345.1538461538462 242.97804625357466 L 354.3846153846154 225.01057156345558 L 363.61538461538464 207.46127728379594 L 372.84615384615387 191.0297983975252 L 382.07692307692304 176.37120611530895 L 391.3076923076923 164.06989225357626 L 400.53846153846155 154.6162713769536 L 409.7692307692308 148.38722951716625 L 419.00000000000006 145.63109891628557 L 428.2307692307692 146.45775780389562 L 437.4615384615385 150.83424989882047 L 446.69230769230774 158.58609827205476 L 455.9230769230769 169.4042611913298 L 465.1538461538462 182.85745263974144 L 474.38461538461536 198.40933632824192 L 483.61538461538464 215.43990773097784 L 492.8461538461538 233.27021170919784 L 502.07692307692315 251.18941031006835 L 511.3076923076924 268.4831216326736 L 520.5384615384615 284.4618999800433 L 529.7692307692308 298.488721883419 L 539 310.00438221770884 L 548.2307692307693 318.5497879451526 L 557.4615384615386 323.78426070598425 L 566.6923076923076 325.4991185895633 L 575.9230769230769 323.62599562361856 L 585.1538461538462 318.2395673098208 L 594.3846153846155 309.55457354718374 L 603.6153846153846 297.917257629941 L 603.6153846153846 360.917257629941 L 594.3846153846155 372.55457354718374 L 585.1538461538462 381.2395673098208 L 575.9230769230769 386.6259956236185 L 566.6923076923076 388.4991185895633 L 557.4615384615386 386.78426070598425 L 548.2307692307693 381.5497879451527 L 539 373.00438221770884 L 529.7692307692308 361.4887218834189 L 520.5384615384615 347.4618999800433 L 511.3076923076924 331.4831216326736 L 502.07692307692315 314.1894103100683 L 492.8461538461538 296.27021170919784 L 483.61538461538464 278.4399077309779 L 474.38461538461536 261.4093363282419 L 465.1538461538462 245.85745263974147 L 455.9230769230769 232.40426119132985 L 446.69230769230774 221.58609827205476 L 437.4615384615385 213.83424989882047 L 428.2307692307692 209.45775780389567 L 419.00000000000006 208.63109891628557 L 409.7692307692308 211.3872295171662 L 400.53846153846155 217.6162713769536 L 391.3076923076923 227.0698922535762 L 382.07692307692304 239.37120611530898 L 372.84615384615387 254.0297983975252 L 363.61538461538464 270.4612772837959 L 354.3846153846154 288.0105715634555 L 345.1538461538462 305.9780462535747 L 335.92307692307696 323.64739483790333 L 326.69230769230774 340.3141961472381 L 317.46153846153845 355.31399740850884 L 308.2307692307693 368.04880388003886 L 299 378.0109190148138 L 289.7692307692308 384.80318471968246 L 280.53846153846155 388.15481479522566 L 271.3076923076923 387.93219032701177 L 262.0769230769231 384.14418665005644 L 252.84615384615387 376.94181951722294 L 243.6153846153846 366.6122245777135 L 234.3846153846154 353.5672101848447 L 225.15384615384616 338.32683989653674 L 215.92307692307693 321.49869918241484 L 206.6923076923077 303.75367290848226 L 197.46153846153848 285.79919927461196 L 188.23076923076923 268.3510664859686 L 179 252.10487653606822 L 169.76923076923077 237.70831375039646 L 160.53846153846155 225.73532365623691 L 151.30769230769232 216.66323158568866 L 142.0769230769231 210.85371322096245 L 132.84615384615387 208.53837572626458 L 123.61538461538461 209.80952430103855 L 114.38461538461539 214.6164822629496 L 105.15384615384616 222.7676113672893 L 95.92307692307693 233.93795181904295 L 86.6923076923077 247.68217739444677 L 77.46153846153847 263.4523491922214 L 68.23076923076923 280.6197602284445 L 59 298.5 Z" stroke="none" stroke-width="0" fill="steelblue" fill-opacity="0.25" /><path d="M 59 267 L 68.23076923076923 249.11976022844445 L 77.46153846153847 231.95234919222145 L 86.6923076923077 216.18217739444685 L 95.92307692307693 202.43795181904295 L 105.15384615384616 191.2676113672893 L 114.38461538461539 183.11648226294966 L 123.61538461538461 178.3095243010386 L 132.84615384615387 177.03837572626458 L 142.0769230769231 179.35371322096245 L 151.30769230769232 185.1632315856886 L 160.53846153846155 194.23532365623686 L 169.76923076923077 206.20831375039643 L 179 220.60487653606822 L 188.23076923076923 236.85106648596857 L 197.46153846153848 254.29919927461194 L 206.6923076923077 272.25367290848226 L 215.92307692307693 289.99869918241484 L 225.15384615384616 306.82683989653674 L 234.3846153846154 322.0672101848447 L 243.6153846153846 335.11222457771356 L 252.84615384615387 345.44181951722294 L 262.0769230769231 352.64418665005644 L 271.3076923076923 356.43219032701177 L 280.53846153846155 356.65481479522566 L 289.7692307692308 353.30318471968246 L 299 346.5109190148138 L 308.2307692307693 336.54880388003886 L 317.46153846153845 323.81399740850884 L 326.69230769230774 308.8141961472381 L 335.92307692307696 292.14739483790333 L 345.1538461538462 274.4780462535747 L 354.3846153846154 256.5105715634556 L 363.61538461538464 238.96127728379594 L 372.84615384615387 222.5297983975252 L 382.07692307692304 207.871206115309 L 391.3076923076923 195.5698922535762 L 400.53846153846155 186.11627137695353 L 409.7692307692308 179.88722951716625 L 419.00000000000006 177.13109891628557 L 428.2307692307692 177.95775780389562 L 437.4615384615385 182.33424989882042 L 446.69230769230774 190.08609827205476 L 455.9230769230769 200.9042611913298 L 465.1538461538462 214.35745263974144 L 474.38461538461536 229.90933632824192 L 483.61538461538464 246.93990773097786 L 492.8461538461538 264.77021170919784 L 502.07692307692315 282.6894103100683 L 511.3076923076924 299.98312163267354 L 520.5384615384615 315.9618999800433 L 529.7692307692308 329.988721883419 L 539 341.50438221770884 L 548.2307692307693 350.0497879451527 L 557.4615384615386 355.28426070598425 L 566.6923076923076 356.9991185895633 L 575.9230769230769 355.12599562361856 L 585.1538461538462 349.7395673098208 L 594.3846153846155 341.05457354718374 L 603.6153846153846 329.417257629941 " stroke="steelblue" stroke-width="2" fill="none" /></svg>