<svg xmlns="http://www.w3.org/2000/svg" width="673" height="541" fill="black"><rect width="100%" height="100%" fill="white" /><line x1="59" y1="492" x2="659" y2="492" stroke="black" stroke-width="1" /><line x1="59" y1="42" x2="59" y2="492" stroke="black" stroke-width="1" /><line x1="109" y1="42" x2="109" y2="492" stroke="#ccc" stroke-width="1" /><line x1="159" y1="42" x2="159" y2="492" stroke="#ccc" stroke-width="1" /><line x1="209" y1="42" x2="209" y2="492" stroke="#ccc" stroke-width="1" /><line x1="259" y1="42" x2="259" y2="492" stroke="#ccc" stroke-width="1" /><line x1="309" y1="42" x2="309" y2="492" stroke="#ccc" stroke-width="1" /><line x1="359" y1="42" x2="359" y2="492" stroke="#ccc" stroke-width="1" /><line x1="409" y1="42" x2="409" y2="492" stroke="#ccc" stroke-width="1" /><line x1="459" y1="42" x2="459" y2="492" stroke="#ccc" stroke-width="1" /><line x1="509" y1="42" x2="509" y2="492" stroke="#ccc" stroke-width="1" /><line x1="559" y1="42" x2="559" y2="492" stroke="#ccc" stroke-width="1" /><line x1="609" y1="42" x2="609" y2="492" stroke="#ccc" stroke-width="1" /><line x1="659" y1="42" x2="659" y2="492" stroke="#ccc" stroke-width="1" /><line x1="59" y1="454.5" x2="659" y2="454.5" stroke="#ccc" stroke-width="1" /><line x1="59" y1="417" x2="659" y2="417" stroke="#ccc" stroke-width="1" /><line x1="59" y1="379.5" x2="659" y2="379.5" stroke="#ccc" stroke-width="1" /><line x1="59" y1="342" x2="659" y2="342" stroke="#ccc" stroke-width="1" /><line x1="59" y1="304.5" x2="659" y2="304.5" stroke="#ccc" stroke-width="1" /><line x1="59" y1="267" x2="659" y2="267" stroke="#ccc" stroke-width="1" /><line x1="59" y1="229.5" x2="659" y2="229.5" stroke="#ccc" stroke-width="1" /><line x1="59" y1="192" x2="659" y2="192" stroke="#ccc" stroke-width="1" /><line x1="59" y1="154.5" x2="659" y2="154.5" stroke="#ccc" stroke-width="1" /><line x1="59" y1="117" x2="659" y2="117" stroke="#ccc" stroke-width="1" /><line x1="59" y1="79.5" x2="659" y2="79.5" stroke="#ccc" stroke-width="1" /><line x1="59" y1="42" x2="659" y2="42" stroke="#ccc" stroke-width="1" /><line x1="59" y1="492" x2="59" y2="497" stroke="black" stroke-width="1" /><text x="59" y="507" font-size="10" text-anchor="middle">0</text><line x1="109" y1="492" x2="109" y2="497" stroke="black" stroke-width="1" /><text x="109" y="507" font-size="10" text-anchor="middle">1</text><line x1="159" y1="492" x2="159" y2="497" stroke="black" stroke-width="1" /><text x="159" y="507" font-size="10" text-anchor="middle">2</text><line x1="209" y1="492" x2="209" y2="497" stroke="black" stroke-width="1" /><text x="209" y="507" font-size="10" text-anchor="middle">3</text><line x1="259" y1="492" x2="259" y2="497" stroke="black" stroke-width="1" /><text x="259" y="507" font-size="10" text-anchor="middle">4</text><line x1="309" y1="492" x2="309" y2="497" stroke="black" stroke-width="1" /><text x="309" y="507" font-size="10" text-anchor="middle">5</text><line x1="359" y1="492" x2="359" y2="497" stroke="black" stroke-width="1" /><text x="359" y="507" font-size="10" text-anchor="middle">6</text><line x1="409" y1="492" x2="409" y2="497" stroke="black" stroke-width="1" /><text x="409" y="507" font-size="10" text-anchor="middle">7</text><line x1="459" y1="492" x2="459" y2="497" stroke="black" stroke-width="1" /><text x="459" y="507" font-size="10" text-anchor="middle">8</text><line x1="509" y1="492" x2="509" y2="497" stroke="black" stroke-width="1" /><text x="509" y="507" font-size="10" text-anchor="middle">9</text><line x1="559" y1="492" x2="559" y2="497" stroke="black" stroke-width="1" /><text x="559" y="507" font-size="10" text-anchor="middle">10</text><line x1="609" y1="492" x2="609" y2="497" stroke="black" stroke-width="1" /><text x="609" y="507" font-size="10" text-anchor="middle">11</text><line x1="659" y1="492" x2="659" y2="497" stroke="black" stroke-width="1" /><text x="659" y="507" font-size="10" text-anchor="middle">12</text><line x1="54" y1="492" x2="59" y2="492" stroke="black" stroke-width="1" /><text x="51" y="495.5" font-size="10" text-anchor="end">-1.5</text><line x1="54" y1="454.5" x2="59" y2="454.5" stroke="black" stroke-width="1" /><text x="51" y="458" font-size="10" text-anchor="end">-1.25</text><line x1="54" y1="417" x2="59" y2="417" stroke="black" stroke-width="1" /><text x="51" y="420.5" font-size="10" text-anchor="end">-1</text><line x1="54" y1="379.5" x2="59" y2="379.5" stroke="black" stroke-width="1" /><text x="51" y="383" font-size="10" text-anchor="end">-0.75</text><line x1="54" y1="342" x2="59" y2="342" stroke="black" stroke-width="1" /><text x="51" y="345.5" font-size="10" text-anchor="end">-0.5</text><line x1="54" y1="304.5" x2="59" y2="304.5" stroke="black" stroke-width="1" /><text x="51" y="308" font-size="10" text-anchor="end">-0.25</text><line x1="54" y1="267" x2="59" y2="267" stroke="black" stroke-width="1" /><text x="51" y="270.5" font-size="10" text-anchor="end">0</text><line x1="54" y1="229.5" x2="59" y2="229.5" stroke="black" stroke-width="1" /><text x="51" y="233" font-size="10" text-anchor="end">0.25</text><line x1="54" y1="192" x2="59" y2="192" stroke="black" stroke-width="1" /><text x="51" y="195.5" font-size="10" text-anchor="end">0.5</text><line x1="54" y1="154.5" x2="59" y2="154.5" stroke="black" stroke-width="1" /><text x="51" y="158" font-size="10" text-anchor="end">0.75</text><line x1="54" y1="117" x2="59" y2="117" stroke="black" stroke-width="1" /><text x="51" y="120.5" font-size="10" text-anchor="end">1</text><line x1="54" y1="79.5" x2="59" y2="79.5" stroke="black" stroke-width="1" /><text x="51" y="83" font-size="10" text-anchor="end">1.25</text><line x1="54" y1="42" x2="59" y2="42" stroke="black" stroke-width="1" /><text x="51" y="45.5" font-size="10" text-anchor="end">1.5</text><text x="336.5" y="534" font-size="14" text-anchor="middle">x</text><text x="14" y="270.5" font-size="14" text-anchor="middle" transform="rotate(-90,14,270.5)">y</text><text x="336.5" y="21" font-size="16" text-anchor="middle">Band Plot — Standalone</text><path d="M 59 214.5 L 69 184.6996003807409 L 79 156.08724865370243 L 89 129.8036289907447 L 99 106.89658636507158 L 109 88.27935227881557 L 119.00000000000001 74.69413710491602 L 129 66.68254050173095 L 139 64.56395954377422 L 149 68.42285536827069 L 159 78.10538597614777 L 169 93.22553942706145 L 179.00000000000003 113.18052291732738 L 189 137.17479422678036 L 199.00000000000003 164.25177747661428 L 209 193.33199879101994 L 219 223.25612151413702 L 229.00000000000003 252.83116530402478 L 239 280.8780664942279 L 249.00000000000003 306.2786836414079 L 259 328.02037429618923 L 269 345.23636586203827 L 279 357.2403110834274 L 289 363.55365054501965 L 299.00000000000006 363.9246913253761 L 309 358.33864119947077 L 319 347.01819835802297 L 329 330.4146731333981 L 339.00000000000006 309.18999568084814 L 349.00000000000006 284.1903269120635 L 359 256.4123247298388 L 369.00000000000006 226.96341042262446 L 379 197.01761927242597 L 389 167.7687954729932 L 399.00000000000006 140.38299732920865 L 409 115.9520101921816 L 419 95.44982042262706 L 429 79.69378562825597 L 439.00000000000006 69.3120491952771 L 449 64.7184981938093 L 459 66.09626300649273 L 469.00000000000006 73.39041649803414 L 479.00000000000006 86.31016378675793 L 489 104.34043531888301 L 499.00000000000006 126.76242106623579 L 509 152.6822272137365 L 519 181.06651288496306 L 529 210.78368618199636 L 539.0000000000001 240.64901718344726 L 549 269.4718693877893 L 559 296.1031666334055 L 569 319.48120313903155 L 579 338.6739703628481 L 589 352.9163132419211 L 599 361.6404345099737 L 609 364.49853098260553 L 619.0000000000001 361.37665937269753 L 629 352.3992788497014 L 639.0000000000001 337.9242892453062 L 649 318.52876271656834 L 649 423.5287627165684 L 639.0000000000001 442.92428924530617 L 629 457.3992788497013 L 619.0000000000001 466.37665937269753 L 609 469.49853098260553 L 599 466.6404345099737 L 589 457.9163132419211 L 579 443.6739703628481 L 569 424.48120313903155 L 559 401.10316663340546 L 549 374.4718693877893 L 539.0000000000001 345.6490171834472 L 529 315.78368618199636 L 519 286.0665128849631 L 509 257.6822272137365 L 499.00000000000006 231.76242106623573 L 489 209.340435318883 L 479.00000000000006 191.31016378675793 L 469.00000000000006 178.39041649803409 L 459 171.09626300649273 L 449 169.71849819380924 L 439.00000000000006 174.31204919527698 L 429 184.69378562825597 L 419 200.44982042262706 L 409 220.95201019218166 L 399.00000000000006 245.38299732920862 L 389 272.7687954729932 L 379 302.0176192724259 L 369.00000000000006 331.9634104226244 L 359 361.4123247298389 L 349.00000000000006 389.1903269120635 L 339.00000000000006 414.18999568084814 L 329 435.4146731333981 L 319 452.01819835802297 L 309 463.33864119947077 L 299.00000000000006 468.9246913253761 L 289 468.55365054501965 L 279 462.2403110834274 L 269 450.23636586203827 L 259 433.0203742961892 L 249.00000000000003 411.2786836414079 L 239 385.8780664942279 L 229.00000000000003 357.83116530402475 L 219 328.256121514137 L 209 298.33199879101994 L 199.00000000000003 269.25177747661434 L 189 242.17479422678036 L 179.00000000000003 218.18052291732738 L 169 198.2255394270615 L 159 183.10538597614772 L 149 173.42285536827075 L 139 169.56395954377427 L 129 171.68254050173095 L 119.00000000000001 179.69413710491608 L 109 193.2793522788155 L 99 211.89658636507158 L 89 234.80362899074464 L 79 261.08724865370243 L 69 289.69960038074083 L 59 319.5 Z" stroke="none" stroke-width="0" fill="steelblue" fill-opacity="0.25" /><path d="M 59 267 L 69 237.19960038074078 L 79 208.58724865370237 L 89 182.30362899074476 L 99 159.39658636507158 L 109 140.7793522788155 L 119.00000000000001 127.19413710491602 L 129 119.18254050173095 L 139 117.06395954377422 L 149 120.92285536827069 L 159 130.60538597614772 L 169 145.7255394270615 L 179.00000000000003 165.68052291732738 L 189 189.67479422678036 L 199.00000000000003 216.75177747661428 L 209 245.83199879101994 L 219 275.756121514137 L 229.00000000000003 305.33116530402475 L 239 333.3780664942278 L 249.00000000000003 358.7786836414079 L 259 380.52037429618923 L 269 397.7363658620382 L 279 409.7403110834274 L 289 416.05365054501965 L 299.00000000000006 416.4246913253761 L 309 410.83864119947077 L 319 399.51819835802297 L 329 382.9146731333981 L 339.00000000000006 361.68999568084814 L 349.00000000000006 336.6903269120635 L 359 308.91232472983893 L 369.00000000000006 279.46341042262446 L 379 249.51761927242597 L 389 220.26879547299325 L 399.00000000000006 192.88299732920865 L 409 168.4520101921816 L 419 147.94982042262706 L 429 132.19378562825597 L 439.00000000000006 121.81204919527698 L 449 117.21849819380924 L 459 118.59626300649273 L 469.00000000000006 125.89041649803409 L 479.00000000000006 138.81016378675793 L 489 156.840435318883 L 499.00000000000006 179.2624210662358 L 509 205.1822272137365 L 519 233.56651288496312 L 529 263.2836861819963 L 539.0000000000001 293.1490171834472 L 549 321.97186938778924 L 559 348.60316663340546 L 569 371.98120313903155 L 579 391.1739703628481 L 589 405.4163132419211 L 599 414.1404345099737 L 609 416.99853098260553 L 619.0000000000001 413.87665937269753 L 629 404.8992788497014 L 639.0000000000001 390.42428924530617 L 649 371.02876271656834 " stroke="steelblue" stroke-width="2" fill="none" /></svg>