<svg xmlns="http://www.w3.org/2000/svg" width="758" height="541" fill="black"><rect width="100%" height="100%" fill="white" /><line x1="59" y1="492" x2="659" y2="492" stroke="black" stroke-width="1" /><line x1="59" y1="42" x2="59" y2="492" stroke="black" stroke-width="1" /><line x1="134" y1="42" x2="134" y2="492" stroke="#ccc" stroke-width="1" /><line x1="209" y1="42" x2="209" y2="492" stroke="#ccc" stroke-width="1" /><line x1="284" y1="42" x2="284" y2="492" stroke="#ccc" stroke-width="1" /><line x1="359" y1="42" x2="359" y2="492" stroke="#ccc" stroke-width="1" /><line x1="434" y1="42" x2="434" y2="492" stroke="#ccc" stroke-width="1" /><line x1="509" y1="42" x2="509" y2="492" stroke="#ccc" stroke-width="1" /><line x1="584" y1="42" x2="584" y2="492" stroke="#ccc" stroke-width="1" /><line x1="659" y1="42" x2="659" y2="492" stroke="#ccc" stroke-width="1" /><line x1="59" y1="435.75" x2="659" y2="435.75" stroke="#ccc" stroke-width="1" /><line x1="59" y1="379.5" x2="659" y2="379.5" stroke="#ccc" stroke-width="1" /><line x1="59" y1="323.25" x2="659" y2="323.25" stroke="#ccc" stroke-width="1" /><line x1="59" y1="267" x2="659" y2="267" stroke="#ccc" stroke-width="1" /><line x1="59" y1="210.75" x2="659" y2="210.75" stroke="#ccc" stroke-width="1" /><line x1="59" y1="154.5" x2="659" y2="154.5" stroke="#ccc" stroke-width="1" /><line x1="59" y1="98.25" x2="659" y2="98.25" stroke="#ccc" stroke-width="1" /><line x1="59" y1="42" x2="659" y2="42" stroke="#ccc" stroke-width="1" /><line x1="59" y1="492" x2="59" y2="497" stroke="black" stroke-width="1" /><text x="59" y="507" font-size="10" text-anchor="middle">0</text><line x1="134" y1="492" x2="134" y2="497" stroke="black" stroke-width="1" /><text x="134" y="507" font-size="10" text-anchor="middle">0.5</text><line x1="209" y1="492" x2="209" y2="497" stroke="black" stroke-width="1" /><text x="209" y="507" font-size="10" text-anchor="middle">1</text><line x1="284" y1="492" x2="284" y2="497" stroke="black" stroke-width="1" /><text x="284" y="507" font-size="10" text-anchor="middle">1.5</text><line x1="359" y1="492" x2="359" y2="497" stroke="black" stroke-width="1" /><text x="359" y="507" font-size="10" text-anchor="middle">2</text><line x1="434" y1="492" x2="434" y2="497" stroke="black" stroke-width="1" /><text x="434" y="507" font-size="10" text-anchor="middle">2.5</text><line x1="509" y1="492" x2="509" y2="497" stroke="black" stroke-width="1" /><text x="509" y="507" font-size="10" text-anchor="middle">3</text><line x1="584" y1="492" x2="584" y2="497" stroke="black" stroke-width="1" /><text x="584" y="507" font-size="10" text-anchor="middle">3.5</text><line x1="659" y1="492" x2="659" y2="497" stroke="black" stroke-width="1" /><text x="659" y="507" font-size="10" text-anchor="middle">4</text><line x1="54" y1="492" x2="59" y2="492" stroke="black" stroke-width="1" /><text x="51" y="495.5" font-size="10" text-anchor="end">0</text><line x1="54" y1="435.75" x2="59" y2="435.75" stroke="black" stroke-width="1" /><text x="51" y="439.25" font-size="10" text-anchor="end">0.5</text><line x1="54" y1="379.5" x2="59" y2="379.5" stroke="black" stroke-width="1" /><text x="51" y="383" font-size="10" text-anchor="end">1</text><line x1="54" y1="323.25" x2="59" y2="323.25" stroke="black" stroke-width="1" /><text x="51" y="326.75" font-size="10" text-anchor="end">1.5</text><line x1="54" y1="267" x2="59" y2="267" stroke="black" stroke-width="1" /><text x="51" y="270.5" font-size="10" text-anchor="end">2</text><line x1="54" y1="210.75" x2="59" y2="210.75" stroke="black" stroke-width="1" /><text x="51" y="214.25" font-size="10" text-anchor="end">2.5</text><line x1="54" y1="154.5" x2="59" y2="154.5" stroke="black" stroke-width="1" /><text x="51" y="158" font-size="10" text-anchor="end">3</text><line x1="54" y1="98.25" x2="59" y2="98.25" stroke="black" stroke-width="1" /><text x="51" y="101.75" font-size="10" text-anchor="end">3.5</text><line x1="54" y1="42" x2="59" y2="42" stroke="black" stroke-width="1" /><text x="51" y="45.5" font-size="10" text-anchor="end">4</text><text x="379" y="21" font-size="16" text-anchor="middle">Greyscale</text><rect x="59" y="379.5" width="148.5" height="111.375" fill="rgb(255,255,255)" /><rect x="209" y="379.5" width="148.5" height="111.375" fill="rgb(238,238,238)" /><rect x="359" y="379.5" width="148.5" height="111.375" fill="rgb(216,216,216)" /><rect x="509" y="379.5" width="148.5" height="111.375" fill="rgb(187,187,187)" /><rect x="59" y="267" width="148.5" height="111.375" fill="rgb(150,150,150)" /><rect x="209" y="267" width="148.5" height="111.375" fill="rgb(115,115,115)" /><rect x="359" y="267" width="148.5" height="111.375" fill="rgb(80,80,80)" /><rect x="509" y="267" width="148.5" height="111.375" fill="rgb(38,38,38)" /><rect x="59" y="154.5" width="148.5" height="111.375" fill="rgb(0,0,0)" /><rect x="209" y="154.5" width="148.5" height="111.375" fill="rgb(59,59,59)" /><rect x="359" y="154.5" width="148.5" height="111.375" fill="rgb(132,132,132)" /><rect x="509" y="154.5" width="148.5" height="111.375" fill="rgb(202,202,202)" /><rect x="59" y="42" width="148.5" height="111.375" fill="rgb(247,247,247)" /><rect x="209" y="42" width="148.5" height="111.375" fill="rgb(187,187,187)" /><rect x="359" y="42" width="148.5" height="111.375" fill="rgb(98,98,98)" /><rect x="509" y="42" width="148.5" height="111.375" fill="rgb(18,18,18)" /><rect x="688" y="87" width="20" height="7.7" fill="rgb(0,0,0)" /><rect x="688" y="94.2" width="20" height="7.7" fill="rgb(6,6,6)" /><rect x="688" y="101.4" width="20" height="7.7" fill="rgb(12,12,12)" /><rect x="688" y="108.6" width="20" height="7.7" fill="rgb(18,18,18)" /><rect x="688" y="115.8" width="20" height="7.7" fill="rgb(24,24,24)" /><rect x="688" y="123" width="20" height="7.7" fill="rgb(30,30,30)" /><rect x="688" y="130.2" width="20" height="7.7" fill="rgb(37,37,37)" /><rect x="688" y="137.4" width="20" height="7.7" fill="rgb(44,44,44)" /><rect x="688" y="144.6" width="20" height="7.7" fill="rgb(51,51,51)" /><rect x="688" y="151.8" width="20" height="7.7" fill="rgb(58,58,58)" /><rect x="688" y="159" width="20" height="7.7" fill="rgb(65,65,65)" /><rect x="688" y="166.2" width="20" height="7.7" fill="rgb(71,71,71)" /><rect x="688" y="173.4" width="20" height="7.7" fill="rgb(78,78,78)" /><rect x="688" y="180.60000000000002" width="20" height="7.7" fill="rgb(84,84,84)" /><rect x="688" y="187.8" width="20" height="7.7" fill="rgb(90,90,90)" /><rect x="688" y="195" width="20" height="7.7" fill="rgb(96,96,96)" /><rect x="688" y="202.2" width="20" height="7.7" fill="rgb(102,102,102)" /><rect x="688" y="209.4" width="20" height="7.7" fill="rgb(107,107,107)" /><rect x="688" y="216.6" width="20" height="7.7" fill="rgb(113,113,113)" /><rect x="688" y="223.8" width="20" height="7.7" fill="rgb(118,118,118)" /><rect x="688" y="231" width="20" height="7.7" fill="rgb(124,124,124)" /><rect x="688" y="238.20000000000002" width="20" height="7.7" fill="rgb(130,130,130)" /><rect x="688" y="245.4" width="20" height="7.7" fill="rgb(135,135,135)" /><rect x="688" y="252.6" width="20" height="7.7" fill="rgb(141,141,141)" /><rect x="688" y="259.8" width="20" height="7.7" fill="rgb(147,147,147)" /><rect x="688" y="267" width="20" height="7.7" fill="rgb(153,153,153)" /><rect x="688" y="274.20000000000005" width="20" height="7.7" fill="rgb(159,159,159)" /><rect x="688" y="281.4" width="20" height="7.7" fill="rgb(165,165,165)" /><rect x="688" y="288.6" width="20" height="7.7" fill="rgb(171,171,171)" /><rect x="688" y="295.8" width="20" height="7.7" fill="rgb(177,177,177)" /><rect x="688" y="303" width="20" height="7.7" fill="rgb(183,183,183)" /><rect x="688" y="310.20000000000005" width="20" height="7.7" fill="rgb(189,189,189)" /><rect x="688" y="317.4" width="20" height="7.7" fill="rgb(194,194,194)" /><rect x="688" y="324.6" width="20" height="7.7" fill="rgb(199,199,199)" /><rect x="688" y="331.8" width="20" height="7.7" fill="rgb(204,204,204)" /><rect x="688" y="339" width="20" height="7.7" fill="rgb(208,208,208)" /><rect x="688" y="346.2" width="20" height="7.7" fill="rgb(213,213,213)" /><rect x="688" y="353.40000000000003" width="20" height="7.7" fill="rgb(217,217,217)" /><rect x="688" y="360.6" width="20" height="7.7" fill="rgb(221,221,221)" /><rect x="688" y="367.8" width="20" height="7.7" fill="rgb(225,225,225)" /><rect x="688" y="375" width="20" height="7.7" fill="rgb(228,228,228)" /><rect x="688" y="382.2" width="20" height="7.7" fill="rgb(232,232,232)" /><rect x="688" y="389.40000000000003" width="20" height="7.7" fill="rgb(235,235,235)" /><rect x="688" y="396.6" width="20" height="7.7" fill="rgb(239,239,239)" /><rect x="688" y="403.8" width="20" height="7.7" fill="rgb(242,242,242)" /><rect x="688" y="411" width="20" height="7.7" fill="rgb(244,244,244)" /><rect x="688" y="418.2" width="20" height="7.7" fill="rgb(247,247,247)" /><rect x="688" y="425.40000000000003" width="20" height="7.7" fill="rgb(250,250,250)" /><rect x="688" y="432.6" width="20" height="7.7" fill="rgb(252,252,252)" /><rect x="688" y="439.8" width="20" height="7.7" fill="rgb(255,255,255)" /><rect x="688" y="87" width="20" height="360" fill="none" stroke="black" stroke-width="1" /><line x1="708" y1="402" x2="712" y2="402" stroke="black" stroke-width="1" /><text x="714" y="406" font-size="10" text-anchor="start">20.0</text><line x1="708" y1="312" x2="712" y2="312" stroke="black" stroke-width="1" /><text x="714" y="316" font-size="10" text-anchor="start">40.0</text><line x1="708" y1="222" x2="712" y2="222" stroke="black" stroke-width="1" /><text x="714" y="226" font-size="10" text-anchor="start">60.0</text><line x1="708" y1="132" x2="712" y2="132" stroke="black" stroke-width="1" /><text x="714" y="136" font-size="10" text-anchor="start">80.0</text></svg>