<svg xmlns="http://www.w3.org/2000/svg" width="758" height="541" fill="black"><rect width="100%" height="100%" fill="white" /><line x1="59" y1="492" x2="659" y2="492" stroke="black" stroke-width="1" /><line x1="59" y1="42" x2="59" y2="492" stroke="black" stroke-width="1" /><line x1="134" y1="42" x2="134" y2="492" stroke="#ccc" stroke-width="1" /><line x1="209" y1="42" x2="209" y2="492" stroke="#ccc" stroke-width="1" /><line x1="284" y1="42" x2="284" y2="492" stroke="#ccc" stroke-width="1" /><line x1="359" y1="42" x2="359" y2="492" stroke="#ccc" stroke-width="1" /><line x1="434" y1="42" x2="434" y2="492" stroke="#ccc" stroke-width="1" /><line x1="509" y1="42" x2="509" y2="492" stroke="#ccc" stroke-width="1" /><line x1="584" y1="42" x2="584" y2="492" stroke="#ccc" stroke-width="1" /><line x1="659" y1="42" x2="659" y2="492" stroke="#ccc" stroke-width="1" /><line x1="59" y1="435.75" x2="659" y2="435.75" stroke="#ccc" stroke-width="1" /><line x1="59" y1="379.5" x2="659" y2="379.5" stroke="#ccc" stroke-width="1" /><line x1="59" y1="323.25" x2="659" y2="323.25" stroke="#ccc" stroke-width="1" /><line x1="59" y1="267" x2="659" y2="267" stroke="#ccc" stroke-width="1" /><line x1="59" y1="210.75" x2="659" y2="210.75" stroke="#ccc" stroke-width="1" /><line x1="59" y1="154.5" x2="659" y2="154.5" stroke="#ccc" stroke-width="1" /><line x1="59" y1="98.25" x2="659" y2="98.25" stroke="#ccc" stroke-width="1" /><line x1="59" y1="42" x2="659" y2="42" stroke="#ccc" stroke-width="1" /><line x1="59" y1="492" x2="59" y2="497" stroke="black" stroke-width="1" /><text x="59" y="507" font-size="10" text-anchor="middle">0</text><line x1="134" y1="492" x2="134" y2="497" stroke="black" stroke-width="1" /><text x="134" y="507" font-size="10" text-anchor="middle">0.5</text><line x1="209" y1="492" x2="209" y2="497" stroke="black" stroke-width="1" /><text x="209" y="507" font-size="10" text-anchor="middle">1</text><line x1="284" y1="492" x2="284" y2="497" stroke="black" stroke-width="1" /><text x="284" y="507" font-size="10" text-anchor="middle">1.5</text><line x1="359" y1="492" x2="359" y2="497" stroke="black" stroke-width="1" /><text x="359" y="507" font-size="10" text-anchor="middle">2</text><line x1="434" y1="492" x2="434" y2="497" stroke="black" stroke-width="1" /><text x="434" y="507" font-size="10" text-anchor="middle">2.5</text><line x1="509" y1="492" x2="509" y2="497" stroke="black" stroke-width="1" /><text x="509" y="507" font-size="10" text-anchor="middle">3</text><line x1="584" y1="492" x2="584" y2="497" stroke="black" stroke-width="1" /><text x="584" y="507" font-size="10" text-anchor="middle">3.5</text><line x1="659" y1="492" x2="659" y2="497" stroke="black" stroke-width="1" /><text x="659" y="507" font-size="10" text-anchor="middle">4</text><line x1="54" y1="492" x2="59" y2="492" stroke="black" stroke-width="1" /><text x="51" y="495.5" font-size="10" text-anchor="end">0</text><line x1="54" y1="435.75" x2="59" y2="435.75" stroke="black" stroke-width="1" /><text x="51" y="439.25" font-size="10" text-anchor="end">0.5</text><line x1="54" y1="379.5" x2="59" y2="379.5" stroke="black" stroke-width="1" /><text x="51" y="383" font-size="10" text-anchor="end">1</text><line x1="54" y1="323.25" x2="59" y2="323.25" stroke="black" stroke-width="1" /><text x="51" y="326.75" font-size="10" text-anchor="end">1.5</text><line x1="54" y1="267" x2="59" y2="267" stroke="black" stroke-width="1" /><text x="51" y="270.5" font-size="10" text-anchor="end">2</text><line x1="54" y1="210.75" x2="59" y2="210.75" stroke="black" stroke-width="1" /><text x="51" y="214.25" font-size="10" text-anchor="end">2.5</text><line x1="54" y1="154.5" x2="59" y2="154.5" stroke="black" stroke-width="1" /><text x="51" y="158" font-size="10" text-anchor="end">3</text><line x1="54" y1="98.25" x2="59" y2="98.25" stroke="black" stroke-width="1" /><text x="51" y="101.75" font-size="10" text-anchor="end">3.5</text><line x1="54" y1="42" x2="59" y2="42" stroke="black" stroke-width="1" /><text x="51" y="45.5" font-size="10" text-anchor="end">4</text><text x="379" y="21" font-size="16" text-anchor="middle">Inferno</text><rect x="59" y="379.5" width="148.5" height="111.375" fill="rgb(0,0,4)" /><rect x="209" y="379.5" width="148.5" height="111.375" fill="rgb(32,12,73)" /><rect x="359" y="379.5" width="148.5" height="111.375" fill="rgb(86,15,109)" /><rect x="509" y="379.5" width="148.5" height="111.375" fill="rgb(137,34,105)" /><rect x="59" y="267" width="148.5" height="111.375" fill="rgb(187,54,84)" /><rect x="209" y="267" width="148.5" height="111.375" fill="rgb(227,89,50)" /><rect x="359" y="267" width="148.5" height="111.375" fill="rgb(249,140,9)" /><rect x="509" y="267" width="148.5" height="111.375" fill="rgb(248,201,50)" /><rect x="59" y="154.5" width="148.5" height="111.375" fill="rgb(252,255,164)" /><rect x="209" y="154.5" width="148.5" height="111.375" fill="rgb(251,170,15)" /><rect x="359" y="154.5" width="148.5" height="111.375" fill="rgb(208,69,68)" /><rect x="509" y="154.5" width="148.5" height="111.375" fill="rgb(112,25,110)" /><rect x="59" y="42" width="148.5" height="111.375" fill="rgb(10,7,35)" /><rect x="209" y="42" width="148.5" height="111.375" fill="rgb(137,34,105)" /><rect x="359" y="42" width="148.5" height="111.375" fill="rgb(240,113,30)" /><rect x="509" y="42" width="148.5" height="111.375" fill="rgb(241,232,101)" /><rect x="688" y="87" width="20" height="7.7" fill="rgb(252,255,164)" /><rect x="688" y="94.2" width="20" height="7.7" fill="rgb(244,248,145)" /><rect x="688" y="101.4" width="20" height="7.7" fill="rgb(241,241,123)" /><rect x="688" y="108.6" width="20" height="7.7" fill="rgb(241,232,102)" /><rect x="688" y="115.8" width="20" height="7.7" fill="rgb(243,223,83)" /><rect x="688" y="123" width="20" height="7.7" fill="rgb(246,212,66)" /><rect x="688" y="130.2" width="20" height="7.7" fill="rgb(248,202,52)" /><rect x="688" y="137.4" width="20" height="7.7" fill="rgb(250,193,39)" /><rect x="688" y="144.6" width="20" height="7.7" fill="rgb(251,182,27)" /><rect x="688" y="151.8" width="20" height="7.7" fill="rgb(252,172,17)" /><rect x="688" y="159" width="20" height="7.7" fill="rgb(252,162,8)" /><rect x="688" y="166.2" width="20" height="7.7" fill="rgb(251,152,6)" /><rect x="688" y="173.4" width="20" height="7.7" fill="rgb(249,143,8)" /><rect x="688" y="180.60000000000002" width="20" height="7.7" fill="rgb(247,133,14)" /><rect x="688" y="187.8" width="20" height="7.7" fill="rgb(245,125,20)" /><rect x="688" y="195" width="20" height="7.7" fill="rgb(241,116,28)" /><rect x="688" y="202.2" width="20" height="7.7" fill="rgb(238,107,35)" /><rect x="688" y="209.4" width="20" height="7.7" fill="rgb(234,99,41)" /><rect x="688" y="216.6" width="20" height="7.7" fill="rgb(229,92,47)" /><rect x="688" y="223.8" width="20" height="7.7" fill="rgb(224,85,53)" /><rect x="688" y="231" width="20" height="7.7" fill="rgb(217,78,60)" /><rect x="688" y="238.20000000000002" width="20" height="7.7" fill="rgb(211,71,66)" /><rect x="688" y="245.4" width="20" height="7.7" fill="rgb(205,66,71)" /><rect x="688" y="252.6" width="20" height="7.7" fill="rgb(198,61,76)" /><rect x="688" y="259.8" width="20" height="7.7" fill="rgb(190,57,81)" /><rect x="688" y="267" width="20" height="7.7" fill="rgb(183,52,87)" /><rect x="688" y="274.20000000000005" width="20" height="7.7" fill="rgb(175,48,91)" /><rect x="688" y="281.4" width="20" height="7.7" fill="rgb(166,45,95)" /><rect x="688" y="288.6" width="20" height="7.7" fill="rgb(159,41,99)" /><rect x="688" y="295.8" width="20" height="7.7" fill="rgb(150,38,102)" /><rect x="688" y="303" width="20" height="7.7" fill="rgb(142,35,104)" /><rect x="688" y="310.20000000000005" width="20" height="7.7" fill="rgb(134,33,106)" /><rect x="688" y="317.4" width="20" height="7.7" fill="rgb(125,29,108)" /><rect x="688" y="324.6" width="20" height="7.7" fill="rgb(117,27,109)" /><rect x="688" y="331.8" width="20" height="7.7" fill="rgb(109,24,110)" /><rect x="688" y="339" width="20" height="7.7" fill="rgb(100,21,110)" /><rect x="688" y="346.2" width="20" height="7.7" fill="rgb(92,18,109)" /><rect x="688" y="353.40000000000003" width="20" height="7.7" fill="rgb(84,14,109)" /><rect x="688" y="360.6" width="20" height="7.7" fill="rgb(76,12,107)" /><rect x="688" y="367.8" width="20" height="7.7" fill="rgb(67,10,104)" /><rect x="688" y="375" width="20" height="7.7" fill="rgb(58,9,99)" /><rect x="688" y="382.2" width="20" height="7.7" fill="rgb(49,10,93)" /><rect x="688" y="389.40000000000003" width="20" height="7.7" fill="rgb(40,11,83)" /><rect x="688" y="396.6" width="20" height="7.7" fill="rgb(31,12,72)" /><rect x="688" y="403.8" width="20" height="7.7" fill="rgb(23,11,59)" /><rect x="688" y="411" width="20" height="7.7" fill="rgb(16,9,47)" /><rect x="688" y="418.2" width="20" height="7.7" fill="rgb(10,7,35)" /><rect x="688" y="425.40000000000003" width="20" height="7.7" fill="rgb(5,3,23)" /><rect x="688" y="432.6" width="20" height="7.7" fill="rgb(2,1,12)" /><rect x="688" y="439.8" width="20" height="7.7" fill="rgb(0,0,4)" /><rect x="688" y="87" width="20" height="360" fill="none" stroke="black" stroke-width="1" /><line x1="708" y1="402" x2="712" y2="402" stroke="black" stroke-width="1" /><text x="714" y="406" font-size="10" text-anchor="start">20.0</text><line x1="708" y1="312" x2="712" y2="312" stroke="black" stroke-width="1" /><text x="714" y="316" font-size="10" text-anchor="start">40.0</text><line x1="708" y1="222" x2="712" y2="222" stroke="black" stroke-width="1" /><text x="714" y="226" font-size="10" text-anchor="start">60.0</text><line x1="708" y1="132" x2="712" y2="132" stroke="black" stroke-width="1" /><text x="714" y="136" font-size="10" text-anchor="start">80.0</text></svg>