<svg xmlns="http://www.w3.org/2000/svg" width="673" height="541" fill="black"><rect width="100%" height="100%" fill="white" /><text x="336.5" y="21" font-size="16" text-anchor="middle">Human chr1 vs Mouse chr1</text><path d="M 164 80 C 164 267 164 267 164 454 L 273.35071606762483 454 C 273.35071606762483 267 259.39822194263377 267 259.39822194263377 80 Z" stroke="#1f77b4" stroke-width="0.3" fill="#1f77b4" fill-opacity="0.65" /><path d="M 278.47786633116056 80 C 278.47786633116056 267 297.6508751937637 267 297.6508751937637 454 L 407.0015912613886 454 C 407.0015912613886 267 392.9557326623211 267 392.9557326623211 80 Z" stroke="#ff7f0e" stroke-width="0.3" fill="#ff7f0e" fill-opacity="0.65" /><path d="M 412.0353770508479 80 C 412.0353770508479 267 431.3017503875274 267 431.3017503875274 454 L 577.1027051443606 454 C 577.1027051443606 267 545.5928877705352 267 545.5928877705352 80 Z" stroke="#2ca02c" stroke-width="0.3" fill="#2ca02c" fill-opacity="0.65" /><rect x="164" y="62" width="475" height="18" fill="#555555" /><rect x="164" y="454" width="475" height="18" fill="#555555" /><text x="158" y="75" font-size="12" text-anchor="end">Human chr1</text><text x="158" y="467" font-size="12" text-anchor="end">Mouse chr1</text></svg>