<svg xmlns="http://www.w3.org/2000/svg" width="753" height="541" fill="black"><rect width="100%" height="100%" fill="white" /><text x="376.5" y="21" font-size="16" text-anchor="middle">Custom Colors &amp; Legend</text><path d="M 139 80 C 139 267 139 267 139 454 L 289 454 C 289 267 289 267 289 80 Z" stroke="#2ca02c" stroke-width="0.3" fill="#2ca02c" fill-opacity="0.65" /><path d="M 339 80 C 339 267 339 267 339 454 L 479 454 C 479 267 489 267 489 80 Z" stroke="#9467bd" stroke-width="0.3" fill="#9467bd" fill-opacity="0.65" /><path d="M 519 80 C 519 267 609 267 609 454 L 509 454 C 509 267 619 267 619 80 Z" stroke="#ff7f0e" stroke-width="0.3" fill="#ff7f0e" fill-opacity="0.65" /><rect x="139" y="62" width="500" height="18" fill="#4393c3" /><rect x="139" y="454" width="500" height="18" fill="#d6604d" /><text x="133" y="75" font-size="12" text-anchor="end">Seq 1</text><text x="133" y="467" font-size="12" text-anchor="end">Seq 2</text><rect x="664" y="32" width="80" height="56" fill="white" /><rect x="664" y="32" width="80" height="56" fill="none" stroke="black" stroke-width="1" /><text x="694" y="47" font-size="12" text-anchor="start">Seq 1</text><rect x="674" y="37" width="12" height="12" fill="#4393c3" /><text x="694" y="65" font-size="12" text-anchor="start">Seq 2</text><rect x="674" y="55" width="12" height="12" fill="#d6604d" /></svg>