<svg xmlns="http://www.w3.org/2000/svg" width="673" height="541" fill="black"><rect width="100%" height="100%" fill="white" /><text x="336.5" y="21" font-size="16" text-anchor="middle">Forward and Inverted Blocks</text><path d="M 139 80 C 139 267 139 267 139 454 L 239 454 C 239 267 239 267 239 80 Z" stroke="#1f77b4" stroke-width="0.3" fill="#1f77b4" fill-opacity="0.65" /><path d="M 264 80 C 264 267 389 267 389 454 L 264 454 C 264 267 389 267 389 80 Z" stroke="#ff7f0e" stroke-width="0.3" fill="#ff7f0e" fill-opacity="0.65" /><path d="M 439 80 C 439 267 439 267 439 454 L 589 454 C 589 267 589 267 589 80 Z" stroke="#2ca02c" stroke-width="0.3" fill="#2ca02c" fill-opacity="0.65" /><rect x="139" y="62" width="500" height="18" fill="#555555" /><rect x="139" y="454" width="500" height="18" fill="#555555" /><text x="133" y="75" font-size="12" text-anchor="end">Seq A</text><text x="133" y="467" font-size="12" text-anchor="end">Seq B</text></svg>