<svg xmlns="http://www.w3.org/2000/svg" width="673" height="541" fill="black"><rect width="100%" height="100%" fill="white" /><text x="336.5" y="21" font-size="16" text-anchor="middle">Three-way Synteny</text><path d="M 150 80 C 150 169 150 169 150 258 L 246.78125 258 C 246.78125 169 247.8 169 247.8 80 Z" stroke="#1f77b4" stroke-width="0.3" fill="#1f77b4" fill-opacity="0.65" /><path d="M 296.7 80 C 296.7 169 292.625 169 292.625 258 L 435.25 258 C 435.25 169 443.4 169 443.4 80 Z" stroke="#ff7f0e" stroke-width="0.3" fill="#ff7f0e" fill-opacity="0.65" /><path d="M 150 276 C 150 365 155.43333333333334 365 155.43333333333334 454 L 264.1 454 C 264.1 365 251.875 365 251.875 276 Z" stroke="#2ca02c" stroke-width="0.3" fill="#2ca02c" fill-opacity="0.65" /><path d="M 353.75 276 C 353.75 365 519.4666666666667 365 519.4666666666667 454 L 356.4666666666667 454 C 356.4666666666667 365 506.5625 365 506.5625 276 Z" stroke="#d62728" stroke-width="0.3" fill="#d62728" fill-opacity="0.65" /><rect x="150" y="62" width="489" height="18" fill="#555555" /><rect x="150" y="258" width="489" height="18" fill="#555555" /><rect x="150" y="454" width="489" height="18" fill="#555555" /><text x="144" y="75" font-size="12" text-anchor="end">Genome A</text><text x="144" y="271" font-size="12" text-anchor="end">Genome B</text><text x="144" y="467" font-size="12" text-anchor="end">Genome C</text></svg>