<svg xmlns="http://www.w3.org/2000/svg" width="753" height="541" fill="black"><rect width="100%" height="100%" fill="white" /><line x1="59" y1="492" x2="659" y2="492" stroke="black" stroke-width="1" /><line x1="59" y1="42" x2="59" y2="492" stroke="black" stroke-width="1" /><text x="49" y="439.25" font-size="10" text-anchor="end">CD14</text><line x1="54" y1="435.75" x2="59" y2="435.75" stroke="black" stroke-width="1" /><text x="49" y="326.75" font-size="10" text-anchor="end">CD8A</text><line x1="54" y1="323.25" x2="59" y2="323.25" stroke="black" stroke-width="1" /><text x="49" y="214.25" font-size="10" text-anchor="end">CD4</text><line x1="54" y1="210.75" x2="59" y2="210.75" stroke="black" stroke-width="1" /><text x="49" y="101.75" font-size="10" text-anchor="end">CD3E</text><line x1="54" y1="98.25" x2="59" y2="98.25" stroke="black" stroke-width="1" /><text x="134" y="507" font-size="10" text-anchor="middle">CD4 T</text><line x1="134" y1="492" x2="134" y2="497" stroke="black" stroke-width="1" /><text x="284" y="507" font-size="10" text-anchor="middle">CD8 T</text><line x1="284" y1="492" x2="284" y2="497" stroke="black" stroke-width="1" /><text x="434" y="507" font-size="10" text-anchor="middle">NK</text><line x1="434" y1="492" x2="434" y2="497" stroke="black" stroke-width="1" /><text x="584" y="507" font-size="10" text-anchor="middle">Mono</text><line x1="584" y1="492" x2="584" y2="497" stroke="black" stroke-width="1" /><text x="376.5" y="534" font-size="14" text-anchor="middle">Cell type</text><text x="14" y="270.5" font-size="14" text-anchor="middle" transform="rotate(-90,14,270.5)">Gene</text><text x="376.5" y="21" font-size="16" text-anchor="middle">Size Legend Only</text><circle cx="134" cy="98.25" r="11.629213483146067" fill="rgb(68,1,84)" /><circle cx="284" cy="98.25" r="12" fill="rgb(68,1,84)" /><circle cx="434" cy="98.25" r="2.235955056179775" fill="rgb(68,1,84)" /><circle cx="584" cy="98.25" r="1.1235955056179776" fill="rgb(68,1,84)" /><circle cx="134" cy="210.75" r="11.258426966292134" fill="rgb(68,1,84)" /><circle cx="284" cy="210.75" r="1.7415730337078652" fill="rgb(68,1,84)" /><circle cx="434" cy="210.75" r="1.247191011235955" fill="rgb(68,1,84)" /><circle cx="584" cy="210.75" r="2.9775280898876404" fill="rgb(68,1,84)" /><circle cx="134" cy="323.25" r="1.3707865168539326" fill="rgb(68,1,84)" /><circle cx="284" cy="323.25" r="10.887640449438202" fill="rgb(68,1,84)" /><circle cx="434" cy="323.25" r="2.606741573033708" fill="rgb(68,1,84)" /><circle cx="584" cy="323.25" r="1" fill="rgb(68,1,84)" /><circle cx="134" cy="435.75" r="1.1235955056179776" fill="rgb(68,1,84)" /><circle cx="284" cy="435.75" r="1" fill="rgb(68,1,84)" /><circle cx="434" cy="435.75" r="1.247191011235955" fill="rgb(68,1,84)" /><circle cx="584" cy="435.75" r="11.258426966292134" fill="rgb(68,1,84)" /><rect x="664" y="32" width="80" height="92" fill="white" /><rect x="664" y="32" width="80" height="92" fill="none" stroke="black" stroke-width="1" /><text x="694" y="47" font-size="12" text-anchor="start">24.2</text><circle cx="680" cy="43" r="3" fill="#444444" /><text x="694" y="65" font-size="12" text-anchor="start">46.5</text><circle cx="680" cy="61" r="6" fill="#444444" /><text x="694" y="83" font-size="12" text-anchor="start">68.8</text><circle cx="680" cy="79" r="8" fill="#444444" /><text x="694" y="101" font-size="12" text-anchor="start">91.0</text><circle cx="680" cy="97" r="8" fill="#444444" /></svg>