<svg xmlns="http://www.w3.org/2000/svg" width="753" height="541" fill="black"><rect width="100%" height="100%" fill="white" /><line x1="59" y1="492" x2="659" y2="492" stroke="black" stroke-width="1" /><line x1="59" y1="42" x2="59" y2="492" stroke="black" stroke-width="1" /><line x1="105.15384615384616" y1="42" x2="105.15384615384616" y2="492" stroke="#ccc" stroke-width="1" /><line x1="151.30769230769232" y1="42" x2="151.30769230769232" y2="492" stroke="#ccc" stroke-width="1" /><line x1="197.46153846153848" y1="42" x2="197.46153846153848" y2="492" stroke="#ccc" stroke-width="1" /><line x1="243.6153846153846" y1="42" x2="243.6153846153846" y2="492" stroke="#ccc" stroke-width="1" /><line x1="289.7692307692308" y1="42" x2="289.7692307692308" y2="492" stroke="#ccc" stroke-width="1" /><line x1="335.92307692307696" y1="42" x2="335.92307692307696" y2="492" stroke="#ccc" stroke-width="1" /><line x1="382.07692307692304" y1="42" x2="382.07692307692304" y2="492" stroke="#ccc" stroke-width="1" /><line x1="428.2307692307692" y1="42" x2="428.2307692307692" y2="492" stroke="#ccc" stroke-width="1" /><line x1="474.38461538461536" y1="42" x2="474.38461538461536" y2="492" stroke="#ccc" stroke-width="1" /><line x1="520.5384615384615" y1="42" x2="520.5384615384615" y2="492" stroke="#ccc" stroke-width="1" /><line x1="566.6923076923076" y1="42" x2="566.6923076923076" y2="492" stroke="#ccc" stroke-width="1" /><line x1="612.8461538461539" y1="42" x2="612.8461538461539" y2="492" stroke="#ccc" stroke-width="1" /><line x1="659" y1="42" x2="659" y2="492" stroke="#ccc" stroke-width="1" /><line x1="59" y1="435.75" x2="659" y2="435.75" stroke="#ccc" stroke-width="1" /><line x1="59" y1="379.5" x2="659" y2="379.5" stroke="#ccc" stroke-width="1" /><line x1="59" y1="323.25" x2="659" y2="323.25" stroke="#ccc" stroke-width="1" /><line x1="59" y1="267" x2="659" y2="267" stroke="#ccc" stroke-width="1" /><line x1="59" y1="210.75" x2="659" y2="210.75" stroke="#ccc" stroke-width="1" /><line x1="59" y1="154.5" x2="659" y2="154.5" stroke="#ccc" stroke-width="1" /><line x1="59" y1="98.25" x2="659" y2="98.25" stroke="#ccc" stroke-width="1" /><line x1="59" y1="42" x2="659" y2="42" stroke="#ccc" stroke-width="1" /><line x1="59" y1="492" x2="59" y2="497" stroke="black" stroke-width="1" /><text x="59" y="507" font-size="10" text-anchor="middle">0</text><line x1="105.15384615384616" y1="492" x2="105.15384615384616" y2="497" stroke="black" stroke-width="1" /><text x="105.15384615384616" y="507" font-size="10" text-anchor="middle">1</text><line x1="151.30769230769232" y1="492" x2="151.30769230769232" y2="497" stroke="black" stroke-width="1" /><text x="151.30769230769232" y="507" font-size="10" text-anchor="middle">2</text><line x1="197.46153846153848" y1="492" x2="197.46153846153848" y2="497" stroke="black" stroke-width="1" /><text x="197.46153846153848" y="507" font-size="10" text-anchor="middle">3</text><line x1="243.6153846153846" y1="492" x2="243.6153846153846" y2="497" stroke="black" stroke-width="1" /><text x="243.6153846153846" y="507" font-size="10" text-anchor="middle">4</text><line x1="289.7692307692308" y1="492" x2="289.7692307692308" y2="497" stroke="black" stroke-width="1" /><text x="289.7692307692308" y="507" font-size="10" text-anchor="middle">5</text><line x1="335.92307692307696" y1="492" x2="335.92307692307696" y2="497" stroke="black" stroke-width="1" /><text x="335.92307692307696" y="507" font-size="10" text-anchor="middle">6</text><line x1="382.07692307692304" y1="492" x2="382.07692307692304" y2="497" stroke="black" stroke-width="1" /><text x="382.07692307692304" y="507" font-size="10" text-anchor="middle">7</text><line x1="428.2307692307692" y1="492" x2="428.2307692307692" y2="497" stroke="black" stroke-width="1" /><text x="428.2307692307692" y="507" font-size="10" text-anchor="middle">8</text><line x1="474.38461538461536" y1="492" x2="474.38461538461536" y2="497" stroke="black" stroke-width="1" /><text x="474.38461538461536" y="507" font-size="10" text-anchor="middle">9</text><line x1="520.5384615384615" y1="492" x2="520.5384615384615" y2="497" stroke="black" stroke-width="1" /><text x="520.5384615384615" y="507" font-size="10" text-anchor="middle">10</text><line x1="566.6923076923076" y1="492" x2="566.6923076923076" y2="497" stroke="black" stroke-width="1" /><text x="566.6923076923076" y="507" font-size="10" text-anchor="middle">11</text><line x1="612.8461538461539" y1="492" x2="612.8461538461539" y2="497" stroke="black" stroke-width="1" /><text x="612.8461538461539" y="507" font-size="10" text-anchor="middle">12</text><line x1="659" y1="492" x2="659" y2="497" stroke="black" stroke-width="1" /><text x="659" y="507" font-size="10" text-anchor="middle">13</text><line x1="54" y1="492" x2="59" y2="492" stroke="black" stroke-width="1" /><text x="51" y="495.5" font-size="10" text-anchor="end">0</text><line x1="54" y1="435.75" x2="59" y2="435.75" stroke="black" stroke-width="1" /><text x="51" y="439.25" font-size="10" text-anchor="end">100</text><line x1="54" y1="379.5" x2="59" y2="379.5" stroke="black" stroke-width="1" /><text x="51" y="383" font-size="10" text-anchor="end">200</text><line x1="54" y1="323.25" x2="59" y2="323.25" stroke="black" stroke-width="1" /><text x="51" y="326.75" font-size="10" text-anchor="end">300</text><line x1="54" y1="267" x2="59" y2="267" stroke="black" stroke-width="1" /><text x="51" y="270.5" font-size="10" text-anchor="end">400</text><line x1="54" y1="210.75" x2="59" y2="210.75" stroke="black" stroke-width="1" /><text x="51" y="214.25" font-size="10" text-anchor="end">500</text><line x1="54" y1="154.5" x2="59" y2="154.5" stroke="black" stroke-width="1" /><text x="51" y="158" font-size="10" text-anchor="end">600</text><line x1="54" y1="98.25" x2="59" y2="98.25" stroke="black" stroke-width="1" /><text x="51" y="101.75" font-size="10" text-anchor="end">700</text><line x1="54" y1="42" x2="59" y2="42" stroke="black" stroke-width="1" /><text x="51" y="45.5" font-size="10" text-anchor="end">800</text><text x="376.5" y="534" font-size="14" text-anchor="middle">Month</text><text x="14" y="270.5" font-size="14" text-anchor="middle" transform="rotate(-90,14,270.5)">Variant count</text><text x="376.5" y="21" font-size="16" text-anchor="middle">Without Stroke Lines</text><path d="M 105.15384615384616 255.75 L 151.30769230769232 241.6875 L 197.46153846153848 268.125 L 243.6153846153846 205.125 L 289.7692307692308 217.5 L 335.92307692307696 210.1875 L 382.07692307692304 229.3125 L 428.2307692307692 197.8125 L 474.38461538461536 213.5625 L 520.5384615384615 188.25 L 566.6923076923076 200.625 L 612.8461538461539 179.8125 L 612.8461538461539 492 L 566.6923076923076 492 L 520.5384615384615 492 L 474.38461538461536 492 L 428.2307692307692 492 L 382.07692307692304 492 L 335.92307692307696 492 L 289.7692307692308 492 L 243.6153846153846 492 L 197.46153846153848 492 L 151.30769230769232 492 L 105.15384615384616 492 Z" stroke="none" stroke-width="0" fill="steelblue" fill-opacity="0.7" /><path d="M 105.15384615384616 202.3125 L 151.30769230769232 184.3125 L 197.46153846153848 218.625 L 243.6153846153846 140.4375 L 289.7692307692308 156.75 L 335.92307692307696 147.1875 L 382.07692307692304 174.1875 L 428.2307692307692 127.5 L 474.38461538461536 147.1875 L 520.5384615384615 115.125 L 566.6923076923076 132 L 612.8461538461539 101.0625 L 612.8461538461539 179.8125 L 566.6923076923076 200.625 L 520.5384615384615 188.25 L 474.38461538461536 213.5625 L 428.2307692307692 197.8125 L 382.07692307692304 229.3125 L 335.92307692307696 210.1875 L 289.7692307692308 217.5 L 243.6153846153846 205.125 L 197.46153846153848 268.125 L 151.30769230769232 241.6875 L 105.15384615384616 255.75 Z" stroke="none" stroke-width="0" fill="orange" fill-opacity="0.7" /><path d="M 105.15384615384616 189.9375 L 151.30769230769232 170.25 L 197.46153846153848 207.375 L 243.6153846153846 124.6875 L 289.7692307692308 142.125 L 335.92307692307696 132 L 382.07692307692304 160.6875 L 428.2307692307692 110.0625 L 474.38461538461536 131.4375 L 520.5384615384615 96.5625 L 566.6923076923076 115.125 L 612.8461538461539 81.375 L 612.8461538461539 101.0625 L 566.6923076923076 132 L 520.5384615384615 115.125 L 474.38461538461536 147.1875 L 428.2307692307692 127.5 L 382.07692307692304 174.1875 L 335.92307692307696 147.1875 L 289.7692307692308 156.75 L 243.6153846153846 140.4375 L 197.46153846153848 218.625 L 151.30769230769232 184.3125 L 105.15384615384616 202.3125 Z" stroke="none" stroke-width="0" fill="mediumseagreen" fill-opacity="0.7" /><path d="M 105.15384615384616 181.5 L 151.30769230769232 160.6875 L 197.46153846153848 199.5 L 243.6153846153846 114 L 289.7692307692308 132 L 335.92307692307696 121.875 L 382.07692307692304 151.6875 L 428.2307692307692 98.25 L 474.38461538461536 120.75 L 520.5384615384615 83.625 L 566.6923076923076 103.3125 L 612.8461538461539 67.875 L 612.8461538461539 81.375 L 566.6923076923076 115.125 L 520.5384615384615 96.5625 L 474.38461538461536 131.4375 L 428.2307692307692 110.0625 L 382.07692307692304 160.6875 L 335.92307692307696 132 L 289.7692307692308 142.125 L 243.6153846153846 124.6875 L 197.46153846153848 207.375 L 151.30769230769232 170.25 L 105.15384615384616 189.9375 Z" stroke="none" stroke-width="0" fill="tomato" fill-opacity="0.7" /><rect x="664" y="32" width="80" height="92" fill="white" /><rect x="664" y="32" width="80" height="92" fill="none" stroke="black" stroke-width="1" /><text x="694" y="47" font-size="12" text-anchor="start">SNVs</text><rect x="674" y="37" width="12" height="12" fill="steelblue" /><text x="694" y="65" font-size="12" text-anchor="start">Indels</text><rect x="674" y="55" width="12" height="12" fill="orange" /><text x="694" y="83" font-size="12" text-anchor="start">SVs</text><rect x="674" y="73" width="12" height="12" fill="mediumseagreen" /><text x="694" y="101" font-size="12" text-anchor="start">CNVs</text><rect x="674" y="91" width="12" height="12" fill="tomato" /></svg>