<svg xmlns="http://www.w3.org/2000/svg" width="753" height="541" fill="black"><rect width="100%" height="100%" fill="white" /><line x1="59" y1="492" x2="659" y2="492" stroke="black" stroke-width="1" /><line x1="59" y1="42" x2="59" y2="492" stroke="black" stroke-width="1" /><line x1="105.15384615384616" y1="42" x2="105.15384615384616" y2="492" stroke="#ccc" stroke-width="1" /><line x1="151.30769230769232" y1="42" x2="151.30769230769232" y2="492" stroke="#ccc" stroke-width="1" /><line x1="197.46153846153848" y1="42" x2="197.46153846153848" y2="492" stroke="#ccc" stroke-width="1" /><line x1="243.6153846153846" y1="42" x2="243.6153846153846" y2="492" stroke="#ccc" stroke-width="1" /><line x1="289.7692307692308" y1="42" x2="289.7692307692308" y2="492" stroke="#ccc" stroke-width="1" /><line x1="335.92307692307696" y1="42" x2="335.92307692307696" y2="492" stroke="#ccc" stroke-width="1" /><line x1="382.07692307692304" y1="42" x2="382.07692307692304" y2="492" stroke="#ccc" stroke-width="1" /><line x1="428.2307692307692" y1="42" x2="428.2307692307692" y2="492" stroke="#ccc" stroke-width="1" /><line x1="474.38461538461536" y1="42" x2="474.38461538461536" y2="492" stroke="#ccc" stroke-width="1" /><line x1="520.5384615384615" y1="42" x2="520.5384615384615" y2="492" stroke="#ccc" stroke-width="1" /><line x1="566.6923076923076" y1="42" x2="566.6923076923076" y2="492" stroke="#ccc" stroke-width="1" /><line x1="612.8461538461539" y1="42" x2="612.8461538461539" y2="492" stroke="#ccc" stroke-width="1" /><line x1="659" y1="42" x2="659" y2="492" stroke="#ccc" stroke-width="1" /><line x1="59" y1="451.09090909090907" x2="659" y2="451.09090909090907" stroke="#ccc" stroke-width="1" /><line x1="59" y1="410.1818181818182" x2="659" y2="410.1818181818182" stroke="#ccc" stroke-width="1" /><line x1="59" y1="369.27272727272725" x2="659" y2="369.27272727272725" stroke="#ccc" stroke-width="1" /><line x1="59" y1="328.3636363636364" x2="659" y2="328.3636363636364" stroke="#ccc" stroke-width="1" /><line x1="59" y1="287.4545454545455" x2="659" y2="287.4545454545455" stroke="#ccc" stroke-width="1" /><line x1="59" y1="246.54545454545456" x2="659" y2="246.54545454545456" stroke="#ccc" stroke-width="1" /><line x1="59" y1="205.63636363636363" x2="659" y2="205.63636363636363" stroke="#ccc" stroke-width="1" /><line x1="59" y1="164.7272727272727" x2="659" y2="164.7272727272727" stroke="#ccc" stroke-width="1" /><line x1="59" y1="123.81818181818181" x2="659" y2="123.81818181818181" stroke="#ccc" stroke-width="1" /><line x1="59" y1="82.90909090909093" x2="659" y2="82.90909090909093" stroke="#ccc" stroke-width="1" /><line x1="59" y1="42" x2="659" y2="42" stroke="#ccc" stroke-width="1" /><line x1="59" y1="492" x2="59" y2="497" stroke="black" stroke-width="1" /><text x="59" y="507" font-size="10" text-anchor="middle">0</text><line x1="105.15384615384616" y1="492" x2="105.15384615384616" y2="497" stroke="black" stroke-width="1" /><text x="105.15384615384616" y="507" font-size="10" text-anchor="middle">1</text><line x1="151.30769230769232" y1="492" x2="151.30769230769232" y2="497" stroke="black" stroke-width="1" /><text x="151.30769230769232" y="507" font-size="10" text-anchor="middle">2</text><line x1="197.46153846153848" y1="492" x2="197.46153846153848" y2="497" stroke="black" stroke-width="1" /><text x="197.46153846153848" y="507" font-size="10" text-anchor="middle">3</text><line x1="243.6153846153846" y1="492" x2="243.6153846153846" y2="497" stroke="black" stroke-width="1" /><text x="243.6153846153846" y="507" font-size="10" text-anchor="middle">4</text><line x1="289.7692307692308" y1="492" x2="289.7692307692308" y2="497" stroke="black" stroke-width="1" /><text x="289.7692307692308" y="507" font-size="10" text-anchor="middle">5</text><line x1="335.92307692307696" y1="492" x2="335.92307692307696" y2="497" stroke="black" stroke-width="1" /><text x="335.92307692307696" y="507" font-size="10" text-anchor="middle">6</text><line x1="382.07692307692304" y1="492" x2="382.07692307692304" y2="497" stroke="black" stroke-width="1" /><text x="382.07692307692304" y="507" font-size="10" text-anchor="middle">7</text><line x1="428.2307692307692" y1="492" x2="428.2307692307692" y2="497" stroke="black" stroke-width="1" /><text x="428.2307692307692" y="507" font-size="10" text-anchor="middle">8</text><line x1="474.38461538461536" y1="492" x2="474.38461538461536" y2="497" stroke="black" stroke-width="1" /><text x="474.38461538461536" y="507" font-size="10" text-anchor="middle">9</text><line x1="520.5384615384615" y1="492" x2="520.5384615384615" y2="497" stroke="black" stroke-width="1" /><text x="520.5384615384615" y="507" font-size="10" text-anchor="middle">10</text><line x1="566.6923076923076" y1="492" x2="566.6923076923076" y2="497" stroke="black" stroke-width="1" /><text x="566.6923076923076" y="507" font-size="10" text-anchor="middle">11</text><line x1="612.8461538461539" y1="492" x2="612.8461538461539" y2="497" stroke="black" stroke-width="1" /><text x="612.8461538461539" y="507" font-size="10" text-anchor="middle">12</text><line x1="659" y1="492" x2="659" y2="497" stroke="black" stroke-width="1" /><text x="659" y="507" font-size="10" text-anchor="middle">13</text><line x1="54" y1="492" x2="59" y2="492" stroke="black" stroke-width="1" /><text x="51" y="495.5" font-size="10" text-anchor="end">0</text><line x1="54" y1="451.09090909090907" x2="59" y2="451.09090909090907" stroke="black" stroke-width="1" /><text x="51" y="454.59090909090907" font-size="10" text-anchor="end">10</text><line x1="54" y1="410.1818181818182" x2="59" y2="410.1818181818182" stroke="black" stroke-width="1" /><text x="51" y="413.6818181818182" font-size="10" text-anchor="end">20</text><line x1="54" y1="369.27272727272725" x2="59" y2="369.27272727272725" stroke="black" stroke-width="1" /><text x="51" y="372.77272727272725" font-size="10" text-anchor="end">30</text><line x1="54" y1="328.3636363636364" x2="59" y2="328.3636363636364" stroke="black" stroke-width="1" /><text x="51" y="331.8636363636364" font-size="10" text-anchor="end">40</text><line x1="54" y1="287.4545454545455" x2="59" y2="287.4545454545455" stroke="black" stroke-width="1" /><text x="51" y="290.9545454545455" font-size="10" text-anchor="end">50</text><line x1="54" y1="246.54545454545456" x2="59" y2="246.54545454545456" stroke="black" stroke-width="1" /><text x="51" y="250.04545454545456" font-size="10" text-anchor="end">60</text><line x1="54" y1="205.63636363636363" x2="59" y2="205.63636363636363" stroke="black" stroke-width="1" /><text x="51" y="209.13636363636363" font-size="10" text-anchor="end">70</text><line x1="54" y1="164.7272727272727" x2="59" y2="164.7272727272727" stroke="black" stroke-width="1" /><text x="51" y="168.2272727272727" font-size="10" text-anchor="end">80</text><line x1="54" y1="123.81818181818181" x2="59" y2="123.81818181818181" stroke="black" stroke-width="1" /><text x="51" y="127.31818181818181" font-size="10" text-anchor="end">90</text><line x1="54" y1="82.90909090909093" x2="59" y2="82.90909090909093" stroke="black" stroke-width="1" /><text x="51" y="86.40909090909093" font-size="10" text-anchor="end">100</text><line x1="54" y1="42" x2="59" y2="42" stroke="black" stroke-width="1" /><text x="51" y="45.5" font-size="10" text-anchor="end">110</text><text x="376.5" y="534" font-size="14" text-anchor="middle">Month</text><text x="14" y="270.5" font-size="14" text-anchor="middle" transform="rotate(-90,14,270.5)">Proportion (%)</text><text x="376.5" y="21" font-size="16" text-anchor="middle">Variant Type Composition (Normalized)</text><path d="M 105.15384615384616 180.73517786561257 L 151.30769230769232 182.92452538972066 L 197.46153846153848 178.88811188811195 L 243.6153846153846 181.5292207792208 L 289.7692307692308 180.0681818181818 L 335.92307692307696 180.51892788063003 L 382.07692307692304 176.22238918106683 L 428.2307692307692 186.35064935064935 L 474.38461538461536 185.1818181818182 L 520.5384615384615 187.71750563486103 L 566.6923076923076 185.32982502302326 L 612.8461538461539 190.87870749939714 L 612.8461538461539 492 L 566.6923076923076 492 L 520.5384615384615 492 L 474.38461538461536 492 L 428.2307692307692 492 L 382.07692307692304 492 L 335.92307692307696 492 L 289.7692307692308 492 L 243.6153846153846 492 L 197.46153846153848 492 L 151.30769230769232 492 L 105.15384615384616 492 Z" stroke="none" stroke-width="0" fill="steelblue" fill-opacity="0.7" /><path d="M 105.15384615384616 180.73517786561257 L 151.30769230769232 182.92452538972066 L 197.46153846153848 178.88811188811195 L 243.6153846153846 181.5292207792208 L 289.7692307692308 180.0681818181818 L 335.92307692307696 180.51892788063003 L 382.07692307692304 176.22238918106683 L 428.2307692307692 186.35064935064935 L 474.38461538461536 185.1818181818182 L 520.5384615384615 187.71750563486103 L 566.6923076923076 185.32982502302326 L 612.8461538461539 190.87870749939714 " stroke="steelblue" stroke-width="1.5" fill="none" /><path d="M 105.15384615384616 110.33003952569169 L 151.30769230769232 112.08025929927453 L 197.46153846153848 109.65734265734267 L 243.6153846153846 111.52110389610385 L 289.7692307692308 111.03409090909093 L 335.92307692307696 110.88643271621993 L 382.07692307692304 109.95642374154772 L 428.2307692307692 113.2987012987013 L 474.38461538461536 112.04132231404964 L 520.5384615384615 114.46431254695716 L 566.6923076923076 113.1024865149322 L 612.8461538461539 114.92018326501079 L 612.8461538461539 190.87870749939714 L 566.6923076923076 185.32982502302326 L 520.5384615384615 187.71750563486103 L 474.38461538461536 185.1818181818182 L 428.2307692307692 186.35064935064935 L 382.07692307692304 176.22238918106683 L 335.92307692307696 180.51892788063003 L 289.7692307692308 180.0681818181818 L 243.6153846153846 181.5292207792208 L 197.46153846153848 178.88811188811195 L 151.30769230769232 182.92452538972066 L 105.15384615384616 180.73517786561257 Z" stroke="none" stroke-width="0" fill="orange" fill-opacity="0.7" /><path d="M 105.15384615384616 110.33003952569169 L 151.30769230769232 112.08025929927453 L 197.46153846153848 109.65734265734267 L 243.6153846153846 111.52110389610385 L 289.7692307692308 111.03409090909093 L 335.92307692307696 110.88643271621993 L 382.07692307692304 109.95642374154772 L 428.2307692307692 113.2987012987013 L 474.38461538461536 112.04132231404964 L 520.5384615384615 114.46431254695716 L 566.6923076923076 113.1024865149322 L 612.8461538461539 114.92018326501079 " stroke="orange" stroke-width="1.5" fill="none" /><path d="M 105.15384615384616 94.02569169960469 L 151.30769230769232 94.71646859083188 L 197.46153846153848 93.92307692307696 L 243.6153846153846 94.47564935064935 L 289.7692307692308 94.41477272727269 L 335.92307692307696 94.10002763194245 L 382.07692307692304 93.72802404207363 L 428.2307692307692 95.18181818181819 L 474.38461538461536 94.68595041322317 L 520.5384615384615 95.86927122464306 L 566.6923076923076 95.34166557031966 L 612.8461538461539 95.93055220641423 L 612.8461538461539 114.92018326501079 L 566.6923076923076 113.1024865149322 L 520.5384615384615 114.46431254695716 L 474.38461538461536 112.04132231404964 L 428.2307692307692 113.2987012987013 L 382.07692307692304 109.95642374154772 L 335.92307692307696 110.88643271621993 L 289.7692307692308 111.03409090909093 L 243.6153846153846 111.52110389610385 L 197.46153846153848 109.65734265734267 L 151.30769230769232 112.08025929927453 L 105.15384615384616 110.33003952569169 Z" stroke="none" stroke-width="0" fill="mediumseagreen" fill-opacity="0.7" /><path d="M 105.15384615384616 94.02569169960469 L 151.30769230769232 94.71646859083188 L 197.46153846153848 93.92307692307696 L 243.6153846153846 94.47564935064935 L 289.7692307692308 94.41477272727269 L 335.92307692307696 94.10002763194245 L 382.07692307692304 93.72802404207363 L 428.2307692307692 95.18181818181819 L 474.38461538461536 94.68595041322317 L 520.5384615384615 95.86927122464306 L 566.6923076923076 95.34166557031966 L 612.8461538461539 95.93055220641423 " stroke="mediumseagreen" stroke-width="1.5" fill="none" /><path d="M 105.15384615384616 82.90909090909088 L 151.30769230769232 82.90909090909088 L 197.46153846153848 82.90909090909099 L 243.6153846153846 82.90909090909093 L 289.7692307692308 82.90909090909093 L 335.92307692307696 82.90909090909093 L 382.07692307692304 82.90909090909093 L 428.2307692307692 82.90909090909093 L 474.38461538461536 82.90909090909093 L 520.5384615384615 82.90909090909093 L 566.6923076923076 82.90909090909088 L 612.8461538461539 82.90909090909088 L 612.8461538461539 95.93055220641423 L 566.6923076923076 95.34166557031966 L 520.5384615384615 95.86927122464306 L 474.38461538461536 94.68595041322317 L 428.2307692307692 95.18181818181819 L 382.07692307692304 93.72802404207363 L 335.92307692307696 94.10002763194245 L 289.7692307692308 94.41477272727269 L 243.6153846153846 94.47564935064935 L 197.46153846153848 93.92307692307696 L 151.30769230769232 94.71646859083188 L 105.15384615384616 94.02569169960469 Z" stroke="none" stroke-width="0" fill="tomato" fill-opacity="0.7" /><path d="M 105.15384615384616 82.90909090909088 L 151.30769230769232 82.90909090909088 L 197.46153846153848 82.90909090909099 L 243.6153846153846 82.90909090909093 L 289.7692307692308 82.90909090909093 L 335.92307692307696 82.90909090909093 L 382.07692307692304 82.90909090909093 L 428.2307692307692 82.90909090909093 L 474.38461538461536 82.90909090909093 L 520.5384615384615 82.90909090909093 L 566.6923076923076 82.90909090909088 L 612.8461538461539 82.90909090909088 " stroke="tomato" stroke-width="1.5" fill="none" /><rect x="664" y="32" width="80" height="92" fill="white" /><rect x="664" y="32" width="80" height="92" fill="none" stroke="black" stroke-width="1" /><text x="694" y="47" font-size="12" text-anchor="start">SNVs</text><rect x="674" y="37" width="12" height="12" fill="steelblue" /><text x="694" y="65" font-size="12" text-anchor="start">Indels</text><rect x="674" y="55" width="12" height="12" fill="orange" /><text x="694" y="83" font-size="12" text-anchor="start">SVs</text><rect x="674" y="73" width="12" height="12" fill="mediumseagreen" /><text x="694" y="101" font-size="12" text-anchor="start">CNVs</text><rect x="674" y="91" width="12" height="12" fill="tomato" /></svg>