<svg xmlns="http://www.w3.org/2000/svg" width="673" height="541" fill="black"><rect width="100%" height="100%" fill="white" /><text x="336.5" y="21" font-size="16" text-anchor="middle">Donut Chart</text><path d="M579,267 A220,220 0 0,1 181.01626123751157,396.3127555043441 L310.45898033750314,302.2671151375484 A60,60 0 0,0 419,267 Z" stroke="steelblue" stroke-width="1" fill="steelblue" /><text x="402.26237921249265" y="400.1479122813215" font-size="12" text-anchor="middle">Rust</text><path d="M181.01626123751157,396.3127555043441 A220,220 0 0,1 291.01626123751157,57.76756641506623 L340.45898033750314,209.93660902229078 A60,60 0 0,0 310.45898033750314,302.2671151375484 Z" stroke="tomato" stroke-width="1" fill="tomato" /><text x="225.8520877186785" y="223.73762078750738" font-size="12" text-anchor="middle">Python</text><path d="M291.01626123751157,57.76756641506623 A220,220 0 0,1 536.9837387624884,137.68724449565588 L407.54101966249686,231.7328848624516 A60,60 0 0,0 340.45898033750314,209.93660902229078 Z" stroke="seagreen" stroke-width="1" fill="seagreen" /><text x="402.2623792124926" y="133.8520877186785" font-size="12" text-anchor="middle">R</text><path d="M536.9837387624884,137.68724449565588 A220,220 0 0,1 579,266.99999999999994 L419,267 A60,60 0 0,0 407.54101966249686,231.7328848624516 Z" stroke="gold" stroke-width="1" fill="gold" /><text x="492.1479122813215" y="223.73762078750732" font-size="12" text-anchor="middle">Other</text></svg>