<svg xmlns="http://www.w3.org/2000/svg" width="683.8" height="541" fill="black"><rect width="100%" height="100%" fill="white" /><text x="341.9" y="21" font-size="16" text-anchor="middle">Outside Labels</text><path d="M364.4,267 L584.4,267 A220,220 0 0,1 296.41626123751155,476.2324335849338 Z" stroke="seagreen" stroke-width="1" fill="seagreen" /><path d="M364.4,267 L296.41626123751155,476.2324335849338 A220,220 0 0,1 155.16756641506618,199.0162612375116 Z" stroke="darkorange" stroke-width="1" fill="darkorange" /><path d="M364.4,267 L155.16756641506618,199.0162612375116 A220,220 0 0,1 364.3999999999999,47 Z" stroke="gold" stroke-width="1" fill="gold" /><path d="M364.4,267 L364.3999999999999,47 A220,220 0 0,1 515.0003633043115,106.62690196728946 Z" stroke="mediumpurple" stroke-width="1" fill="mediumpurple" /><path d="M364.4,267 L515.0003633043115,106.62690196728946 A220,220 0 0,1 573.6324335849338,199.01626123751151 Z" stroke="coral" stroke-width="1" fill="coral" /><path d="M364.4,267 L573.6324335849338,199.01626123751151 A220,220 0 0,1 584.4,266.99999999999994 Z" stroke="olivedrab" stroke-width="1" fill="olivedrab" /><line x1="496.6516817658064" y1="449.0288237343632" x2="505.4684605501935" y2="461.1640786499874" stroke="#666" stroke-width="1" /><line x1="505.4684605501935" y1="461.1640786499874" x2="614.4" y2="461.1640786499874" stroke="#666" stroke-width="1" /><text x="614.4" y="461.1640786499874" font-size="12" text-anchor="start">Apples</text><line x1="163.92353205761722" y1="369.14786244139805" x2="150.55843419479172" y2="375.9577199374912" stroke="#666" stroke-width="1" /><line x1="150.55843419479172" y1="375.9577199374912" x2="114.39999999999998" y2="375.9577199374912" stroke="#666" stroke-width="1" /><text x="114.39999999999998" y="375.9577199374912" font-size="12" text-anchor="end">Oranges</text><line x1="232.1483182341935" y1="84.97117626563684" x2="223.3315394498064" y2="72.83592135001263" stroke="#666" stroke-width="1" /><line x1="223.3315394498064" y1="72.83592135001263" x2="114.39999999999998" y2="72.83592135001263" stroke="#666" stroke-width="1" /><text x="114.39999999999998" y="72.83592135001263" font-size="12" text-anchor="end">Bananas</text><line x1="447.2280243540524" y1="57.8002906751434" x2="452.7498926443226" y2="43.85364338681961" stroke="#666" stroke-width="1" /><line x1="452.7498926443226" y1="43.85364338681961" x2="614.4" y2="43.85364338681961" stroke="#666" stroke-width="1" /><text x="614.4" y="43.85364338681961" font-size="12" text-anchor="start">Grapes</text><line x1="554.3737832379534" y1="146.43897112972581" x2="567.0387021204837" y2="138.4015692050409" stroke="#666" stroke-width="1" /><line x1="567.0387021204837" y1="138.4015692050409" x2="614.4" y2="138.4015692050409" stroke="#666" stroke-width="1" /><text x="614.4" y="138.4015692050409" font-size="12" text-anchor="start">Mango</text><line x1="586.629876633906" y1="231.802245365948" x2="601.445201742833" y2="229.45572839034452" stroke="#666" stroke-width="1" /><line x1="601.445201742833" y1="229.45572839034452" x2="614.4" y2="229.45572839034452" stroke="#666" stroke-width="1" /><text x="614.4" y="229.45572839034452" font-size="12" text-anchor="start">Kiwi</text></svg>