<svg xmlns="http://www.w3.org/2000/svg" width="753" height="541" fill="black"><rect width="100%" height="100%" fill="white" /><text x="376.5" y="21" font-size="16" text-anchor="middle">Gene Regulatory Network</text><path d="M 359 72 A 195 195 0 0 1 551.8155936607869 237.89421292529119 L 522.8932546116689 242.26008098649748 A 165.75 165.75 0 0 0 359 101.25 Z" stroke="none" stroke-width="0" fill="#e6194b" /><path d="M 553.074625789657 248.02528986770602 A 195 195 0 0 1 472.34738877527747 425.6737831458811 L 455.3452804589858 401.872715673999 A 165.75 165.75 0 0 0 523.9634319212084 250.87149638755014 Z" stroke="none" stroke-width="0" fill="#3cb44b" /><path d="M 463.88770594667596 431.38847021991427 A 195 195 0 0 1 234.39625192375667 416.99635317350914 L 253.08681413519315 394.4969001974828 A 165.75 165.75 0 0 0 448.15455005467453 406.7301996869271 Z" stroke="none" stroke-width="0" fill="#4363d8" /><path d="M 226.71681445365502 410.2695320775191 A 195 195 0 0 1 191.10473235505458 167.82248691143673 L 216.28902250179638 182.6991138747212 A 165.75 165.75 0 0 0 246.55929228560677 388.7791022658912 Z" stroke="none" stroke-width="0" fill="#f58231" /><path d="M 196.52537696952052 159.1714468653892 A 195 195 0 0 1 348.794488532626 72.26724072285808 L 350.32531525273214 101.47715461442937 A 165.75 165.75 0 0 0 220.89657042409243 175.3457298355808 Z" stroke="none" stroke-width="0" fill="#911eb4" /><text x="498.70205067527024" y="108.82704339353732" font-size="12" text-anchor="start">TF1</text><text x="554.0096283437643" y="359.81650440649804" font-size="12" text-anchor="start">TF2</text><text x="345.59319535622984" y="484.9800214922895" font-size="12" text-anchor="end">TF3</text><text x="147.07400478855197" y="302.3289664723598" font-size="12" text-anchor="end">TF4</text><text x="252.82533924905835" y="85.16618206782282" font-size="12" text-anchor="end">TF5</text><path d="M 523.9634319212084 250.87149638755014 A 165.75 165.75 0 0 1 524.6440558186421 272.92530775155217 C 359 267 359 267 359 101.25 A 165.75 165.75 0 0 1 472.57374227026287 146.27689712930706 C 359 267 359 267 523.9634319212084 250.87149638755014 Z" stroke="none" stroke-width="0" fill="#3cb44b" fill-opacity="0.7" /><path d="M 448.15455005467453 406.7301996869271 A 165.75 165.75 0 0 1 408.2189969550289 425.27366438779654 C 359 267 359 267 472.57374227026287 146.27689712930706 A 165.75 165.75 0 0 1 492.11734975259566 168.24356378015094 C 359 267 359 267 448.15455005467453 406.7301996869271 Z" stroke="none" stroke-width="0" fill="#4363d8" fill-opacity="0.7" /><path d="M 408.2189969550289 425.27366438779654 A 165.75 165.75 0 0 1 391.1039313141881 429.61119301626775 C 359 267 359 267 524.6440558186421 272.92530775155217 A 165.75 165.75 0 0 1 494.5685583659117 362.3636643726969 C 359 267 359 267 408.2189969550289 425.27366438779654 Z" stroke="none" stroke-width="0" fill="#4363d8" fill-opacity="0.7" /><path d="M 246.55929228560677 388.7791022658912 A 165.75 165.75 0 0 1 241.26424706506242 383.66771181798043 C 359 267 359 267 492.11734975259566 168.24356378015094 A 165.75 165.75 0 0 1 520.053044195912 227.82118614315092 C 359 267 359 267 246.55929228560677 388.7791022658912 Z" stroke="none" stroke-width="0" fill="#f58231" fill-opacity="0.7" /><path d="M 241.26424706506242 383.66771181798043 A 165.75 165.75 0 0 1 208.0362096028977 335.4324227902225 C 359 267 359 267 494.5685583659117 362.3636643726969 A 165.75 165.75 0 0 1 464.67669533386373 394.6929855681734 C 359 267 359 267 241.26424706506242 383.66771181798043 Z" stroke="none" stroke-width="0" fill="#f58231" fill-opacity="0.7" /><path d="M 208.0362096028977 335.4324227902225 A 165.75 165.75 0 0 1 199.06799757071227 310.5294968838178 C 359 267 359 267 391.1039313141881 429.61119301626775 A 165.75 165.75 0 0 1 283.762480104216 414.6901421894214 C 359 267 359 267 208.0362096028977 335.4324227902225 Z" stroke="none" stroke-width="0" fill="#f58231" fill-opacity="0.7" /><path d="M 220.89657042409243 175.3457298355808 A 165.75 165.75 0 0 1 273.6653575458839 124.90474569068758 C 359 267 359 267 520.053044195912 227.82118614315092 A 165.75 165.75 0 0 1 522.8932546116689 242.2600809864975 C 359 267 359 267 220.89657042409243 175.3457298355808 Z" stroke="none" stroke-width="0" fill="#911eb4" fill-opacity="0.7" /><path d="M 273.6653575458839 124.90474569068758 A 165.75 165.75 0 0 1 283.9678546176892 119.20541397152675 C 359 267 359 267 464.67669533386373 394.6929855681734 A 165.75 165.75 0 0 1 455.3452804589858 401.872715673999 C 359 267 359 267 273.6653575458839 124.90474569068758 Z" stroke="none" stroke-width="0" fill="#911eb4" fill-opacity="0.7" /><path d="M 283.9678546176892 119.20541397152675 A 165.75 165.75 0 0 1 332.76760554127804 103.33899676171475 C 359 267 359 267 283.762480104216 414.6901421894214 A 165.75 165.75 0 0 1 253.08681413519315 394.4969001974828 C 359 267 359 267 283.9678546176892 119.20541397152675 Z" stroke="none" stroke-width="0" fill="#911eb4" fill-opacity="0.7" /><path d="M 332.76760554127804 103.33899676171475 A 165.75 165.75 0 0 1 350.32531525273214 101.47715461442937 C 359 267 359 267 199.06799757071227 310.5294968838178 A 165.75 165.75 0 0 1 216.28902250179638 182.6991138747212 C 359 267 359 267 332.76760554127804 103.33899676171475 Z" stroke="none" stroke-width="0" fill="#911eb4" fill-opacity="0.7" /><rect x="664" y="32" width="80" height="110" fill="white" /><rect x="664" y="32" width="80" height="110" fill="none" stroke="black" stroke-width="1" /><text x="694" y="47" font-size="12" text-anchor="start">TF1</text><rect x="674" y="37" width="12" height="12" fill="#e6194b" /><text x="694" y="65" font-size="12" text-anchor="start">TF2</text><rect x="674" y="55" width="12" height="12" fill="#3cb44b" /><text x="694" y="83" font-size="12" text-anchor="start">TF3</text><rect x="674" y="73" width="12" height="12" fill="#4363d8" /><text x="694" y="101" font-size="12" text-anchor="start">TF4</text><rect x="674" y="91" width="12" height="12" fill="#f58231" /><text x="694" y="119" font-size="12" text-anchor="start">TF5</text><rect x="674" y="109" width="12" height="12" fill="#911eb4" /></svg>