<svg xmlns="http://www.w3.org/2000/svg" width="673" height="541" fill="black"><rect width="100%" height="100%" fill="white" /><text x="336.5" y="21" font-size="16" text-anchor="middle">PBMC Cell Type Co-clustering</text><path d="M 359 72 A 195 195 0 0 1 551.8530932380373 295.856271909602 L 522.9251292523318 291.5278311231617 A 165.75 165.75 0 0 0 359 101.25 Z" stroke="none" stroke-width="0" fill="#1f77b4" /><path d="M 550.7285429779972 302.5691693399531 A 195 195 0 0 1 291.73454448154246 450.0310315053008 L 301.8243628093111 422.57637677950567 A 165.75 165.75 0 0 0 521.9692615312977 297.2337939389601 Z" stroke="none" stroke-width="0" fill="#ff7f0e" /><path d="M 285.38782989911795 447.57200340318207 A 195 195 0 0 1 168.64588694682163 224.68792555619868 L 197.1990039047984 231.03473672276886 A 165.75 165.75 0 0 0 296.42965541425025 420.4862028927048 Z" stroke="none" stroke-width="0" fill="#2ca02c" /><path d="M 170.23851563182504 218.07043818790893 A 195 195 0 0 1 238.9578533280722 113.32865256530295 L 256.96417532886136 136.3793546805075 A 165.75 165.75 0 0 0 198.55273828705128 225.4098724597226 Z" stroke="none" stroke-width="0" fill="#d62728" /><path d="M 244.39403244346062 109.23285449616117 A 195 195 0 0 1 352.19459814301234 72.11878873127634 L 353.2154084215605 101.35097042158489 A 165.75 165.75 0 0 0 261.58492757694154 132.897926321737 Z" stroke="none" stroke-width="0" fill="#9467bd" /><text x="521.2825399355852" y="131.39292853344222" font-size="12" text-anchor="start">CD4 T</text><text x="464.98312615365177" y="457.3430014013396" font-size="12" text-anchor="start">CD8 T</text><text x="169.25248481995808" y="370.5857156889246" font-size="12" text-anchor="end">NK</text><text x="179.9048451084117" y="153.69865747848667" font-size="12" text-anchor="end">B cell</text><text x="289.27110449443205" y="68.66723442471444" font-size="12" text-anchor="end">Monocyte</text><path d="M 521.9692615312977 297.2337939389601 A 165.75 165.75 0 0 1 449.595026376837 405.8005896809527 C 359 267 359 267 359 101.25 A 165.75 165.75 0 0 1 478.9468973818497 152.60679955317266 C 359 267 359 267 521.9692615312977 297.2337939389601 Z" stroke="none" stroke-width="0" fill="#ff7f0e" fill-opacity="0.7" /><path d="M 296.42965541425025 420.4862028927048 A 165.75 165.75 0 0 1 233.48885361972296 375.25901641114547 C 359 267 359 267 478.9468973818497 152.60679955317266 A 165.75 165.75 0 0 1 517.8416018285143 219.6459291237624 C 359 267 359 267 296.42965541425025 420.4862028927048 Z" stroke="none" stroke-width="0" fill="#2ca02c" fill-opacity="0.7" /><path d="M 233.48885361972296 375.25901641114547 A 165.75 165.75 0 0 1 194.4103783266012 286.5785325652219 C 359 267 359 267 449.595026376837 405.8005896809527 A 165.75 165.75 0 0 1 356.5031466606306 432.73119266873596 C 359 267 359 267 233.48885361972296 375.25901641114547 Z" stroke="none" stroke-width="0" fill="#2ca02c" fill-opacity="0.7" /><path d="M 198.55273828705128 225.4098724597226 A 165.75 165.75 0 0 1 215.43394334848418 184.1637164188678 C 359 267 359 267 517.8416018285143 219.6459291237624 A 165.75 165.75 0 0 1 524.7167360336194 263.67947317979406 C 359 267 359 267 198.55273828705128 225.4098724597226 Z" stroke="none" stroke-width="0" fill="#d62728" fill-opacity="0.7" /><path d="M 215.43394334848418 184.1637164188678 A 165.75 165.75 0 0 1 236.4968721002725 155.34855059255608 C 359 267 359 267 356.5031466606306 432.73119266873596 A 165.75 165.75 0 0 1 321.07996938045045 428.3540634065731 C 359 267 359 267 215.43394334848418 184.1637164188678 Z" stroke="none" stroke-width="0" fill="#d62728" fill-opacity="0.7" /><path d="M 236.4968721002725 155.34855059255608 A 165.75 165.75 0 0 1 248.39566777323978 143.55064118160658 C 359 267 359 267 194.4103783266012 286.5785325652219 A 165.75 165.75 0 0 1 193.27469034270808 269.86081089810364 C 359 267 359 267 236.4968721002725 155.34855059255608 Z" stroke="none" stroke-width="0" fill="#d62728" fill-opacity="0.7" /><path d="M 261.58492757694154 132.897926321737 A 165.75 165.75 0 0 1 285.46306835640945 118.45579047150343 C 359 267 359 267 524.7167360336194 263.67947317979406 A 165.75 165.75 0 0 1 522.9251292523318 291.5278311231618 C 359 267 359 267 261.58492757694154 132.897926321737 Z" stroke="none" stroke-width="0" fill="#9467bd" fill-opacity="0.7" /><path d="M 285.46306835640945 118.45579047150343 A 165.75 165.75 0 0 1 303.98766350961057 110.64557782439229 C 359 267 359 267 321.07996938045045 428.3540634065731 A 165.75 165.75 0 0 1 301.8243628093111 422.57637677950567 C 359 267 359 267 285.46306835640945 118.45579047150343 Z" stroke="none" stroke-width="0" fill="#9467bd" fill-opacity="0.7" /><path d="M 303.98766350961057 110.64557782439229 A 165.75 165.75 0 0 1 342.06822274790875 102.11707966230836 C 359 267 359 267 193.27469034270808 269.86081089810364 A 165.75 165.75 0 0 1 197.1990039047984 231.03473672276886 C 359 267 359 267 303.98766350961057 110.64557782439229 Z" stroke="none" stroke-width="0" fill="#9467bd" fill-opacity="0.7" /><path d="M 342.06822274790875 102.11707966230836 A 165.75 165.75 0 0 1 353.21540842156065 101.35097042158489 C 359 267 359 267 248.39566777323978 143.55064118160658 A 165.75 165.75 0 0 1 256.96417532886136 136.3793546805075 C 359 267 359 267 342.06822274790875 102.11707966230836 Z" stroke="none" stroke-width="0" fill="#9467bd" fill-opacity="0.7" /></svg>