<svg xmlns="http://www.w3.org/2000/svg" width="673" height="541" fill="black"><rect width="100%" height="100%" fill="white" /><text x="336.5" y="21" font-size="16" text-anchor="middle">DEG Overlap — Sorted by Degree</text><line x1="167" y1="289.5" x2="167" y2="492" stroke="black" stroke-width="1" /><line x1="59" y1="492" x2="167" y2="492" stroke="black" stroke-width="1" /><rect x="59" y="302.8125" width="108" height="24" fill="#1d4ed8" /><text x="170" y="318.3125" font-size="10" text-anchor="start">40</text><rect x="72.5" y="353.4375" width="94.5" height="24" fill="#1d4ed8" /><text x="170" y="368.9375" font-size="10" text-anchor="start">35</text><rect x="91.4" y="404.0625" width="75.6" height="24" fill="#1d4ed8" /><text x="170" y="419.5625" font-size="10" text-anchor="start">28</text><rect x="96.8" y="454.6875" width="70.2" height="24" fill="#1d4ed8" /><text x="170" y="470.1875" font-size="10" text-anchor="start">26</text><text x="113" y="275.5" font-size="14" text-anchor="middle">Set size</text><text x="266" y="318.3125" font-size="10" text-anchor="end">Condition A</text><text x="266" y="368.9375" font-size="10" text-anchor="end">Condition B</text><text x="266" y="419.5625" font-size="10" text-anchor="end">Condition C</text><text x="266" y="470.1875" font-size="10" text-anchor="end">Condition D</text><line x1="271" y1="54" x2="271" y2="284.5" stroke="black" stroke-width="1" /><line x1="271" y1="284.5" x2="659" y2="284.5" stroke="black" stroke-width="1" /><line x1="267" y1="284.5" x2="271" y2="284.5" stroke="black" stroke-width="1" /><text x="264" y="288" font-size="10" text-anchor="end">0</text><line x1="267" y1="226.875" x2="271" y2="226.875" stroke="black" stroke-width="1" /><text x="264" y="230.375" font-size="10" text-anchor="end">3</text><line x1="267" y1="169.25" x2="271" y2="169.25" stroke="black" stroke-width="1" /><text x="264" y="172.75" font-size="10" text-anchor="end">6</text><line x1="267" y1="111.625" x2="271" y2="111.625" stroke="black" stroke-width="1" /><text x="264" y="115.125" font-size="10" text-anchor="end">8</text><line x1="267" y1="54" x2="271" y2="54" stroke="black" stroke-width="1" /><text x="264" y="57.5" font-size="10" text-anchor="end">11</text><text x="232" y="169.25" font-size="14" text-anchor="middle" transform="rotate(-90,232,169.25)">Intersection size</text><rect x="280.7" y="54" width="29.099999999999998" height="230.5" fill="#1d4ed8" /><text x="295.25" y="52" font-size="10" text-anchor="middle">11</text><rect x="329.2" y="74.95454545454547" width="29.099999999999998" height="209.54545454545453" fill="#1d4ed8" /><text x="343.75" y="72.95454545454547" font-size="10" text-anchor="middle">10</text><rect x="377.7" y="74.95454545454547" width="29.099999999999998" height="209.54545454545453" fill="#1d4ed8" /><text x="392.25" y="72.95454545454547" font-size="10" text-anchor="middle">10</text><rect x="426.2" y="74.95454545454547" width="29.099999999999998" height="209.54545454545453" fill="#1d4ed8" /><text x="440.75" y="72.95454545454547" font-size="10" text-anchor="middle">10</text><rect x="474.7" y="200.6818181818182" width="29.099999999999998" height="83.81818181818183" fill="#1d4ed8" /><text x="489.25" y="198.6818181818182" font-size="10" text-anchor="middle">4</text><rect x="523.2" y="221.63636363636363" width="29.099999999999998" height="62.86363636363636" fill="#1d4ed8" /><text x="537.75" y="219.63636363636363" font-size="10" text-anchor="middle">3</text><rect x="571.7" y="74.95454545454547" width="29.099999999999998" height="209.54545454545453" fill="#1d4ed8" /><text x="586.25" y="72.95454545454547" font-size="10" text-anchor="middle">10</text><rect x="620.2" y="242.5909090909091" width="29.099999999999998" height="41.909090909090914" fill="#1d4ed8" /><text x="634.75" y="240.5909090909091" font-size="10" text-anchor="middle">2</text><line x1="271" y1="289.5" x2="659" y2="289.5" stroke="#ccc" stroke-width="0.5" /><line x1="271" y1="340.125" x2="659" y2="340.125" stroke="#ccc" stroke-width="0.5" /><line x1="271" y1="390.75" x2="659" y2="390.75" stroke="#ccc" stroke-width="0.5" /><line x1="271" y1="441.375" x2="659" y2="441.375" stroke="#ccc" stroke-width="0.5" /><line x1="271" y1="492" x2="659" y2="492" stroke="#ccc" stroke-width="0.5" /><line x1="295.25" y1="365.4375" x2="295.25" y2="466.6875" stroke="#1e3a8a" stroke-width="6" /><circle cx="295.25" cy="314.8125" r="12" fill="#dddddd" /><circle cx="295.25" cy="365.4375" r="12" fill="#1e3a8a" /><circle cx="295.25" cy="416.0625" r="12" fill="#1e3a8a" /><circle cx="295.25" cy="466.6875" r="12" fill="#1e3a8a" /><line x1="343.75" y1="314.8125" x2="343.75" y2="416.0625" stroke="#1e3a8a" stroke-width="6" /><circle cx="343.75" cy="314.8125" r="12" fill="#1e3a8a" /><circle cx="343.75" cy="365.4375" r="12" fill="#1e3a8a" /><circle cx="343.75" cy="416.0625" r="12" fill="#1e3a8a" /><circle cx="343.75" cy="466.6875" r="12" fill="#dddddd" /><line x1="392.25" y1="314.8125" x2="392.25" y2="365.4375" stroke="#1e3a8a" stroke-width="6" /><circle cx="392.25" cy="314.8125" r="12" fill="#1e3a8a" /><circle cx="392.25" cy="365.4375" r="12" fill="#1e3a8a" /><circle cx="392.25" cy="416.0625" r="12" fill="#dddddd" /><circle cx="392.25" cy="466.6875" r="12" fill="#dddddd" /><line x1="440.75" y1="314.8125" x2="440.75" y2="466.6875" stroke="#1e3a8a" stroke-width="6" /><circle cx="440.75" cy="314.8125" r="12" fill="#1e3a8a" /><circle cx="440.75" cy="365.4375" r="12" fill="#dddddd" /><circle cx="440.75" cy="416.0625" r="12" fill="#dddddd" /><circle cx="440.75" cy="466.6875" r="12" fill="#1e3a8a" /><line x1="489.25" y1="365.4375" x2="489.25" y2="416.0625" stroke="#1e3a8a" stroke-width="6" /><circle cx="489.25" cy="314.8125" r="12" fill="#dddddd" /><circle cx="489.25" cy="365.4375" r="12" fill="#1e3a8a" /><circle cx="489.25" cy="416.0625" r="12" fill="#1e3a8a" /><circle cx="489.25" cy="466.6875" r="12" fill="#dddddd" /><line x1="537.75" y1="416.0625" x2="537.75" y2="466.6875" stroke="#1e3a8a" stroke-width="6" /><circle cx="537.75" cy="314.8125" r="12" fill="#dddddd" /><circle cx="537.75" cy="365.4375" r="12" fill="#dddddd" /><circle cx="537.75" cy="416.0625" r="12" fill="#1e3a8a" /><circle cx="537.75" cy="466.6875" r="12" fill="#1e3a8a" /><circle cx="586.25" cy="314.8125" r="12" fill="#1e3a8a" /><circle cx="586.25" cy="365.4375" r="12" fill="#dddddd" /><circle cx="586.25" cy="416.0625" r="12" fill="#dddddd" /><circle cx="586.25" cy="466.6875" r="12" fill="#dddddd" /><circle cx="634.75" cy="314.8125" r="12" fill="#dddddd" /><circle cx="634.75" cy="365.4375" r="12" fill="#dddddd" /><circle cx="634.75" cy="416.0625" r="12" fill="#dddddd" /><circle cx="634.75" cy="466.6875" r="12" fill="#1e3a8a" /></svg>