<svg xmlns="http://www.w3.org/2000/svg" width="960" height="500" font-family="DejaVu Sans, Liberation Sans, Arial, sans-serif" fill="black"><rect width="100%" height="100%" fill="white" /><defs><clipPath id="kuva-clip-1"><rect x="59" y="44" width="650.4" height="405"/></clipPath></defs><line x1="59" y1="364.63" x2="709.4" y2="364.63" stroke="#cccccc" stroke-width="1" /><line x1="59" y1="280.25" x2="709.4" y2="280.25" stroke="#cccccc" stroke-width="1" /><line x1="59" y1="195.88" x2="709.4" y2="195.88" stroke="#cccccc" stroke-width="1" /><line x1="59" y1="111.5" x2="709.4" y2="111.5" stroke="#cccccc" stroke-width="1" /><line x1="59" y1="449" x2="709.4" y2="449" stroke="#000000" stroke-width="1" /><line x1="59" y1="44" x2="59" y2="449" stroke="#000000" stroke-width="1" /><text x="189.08" y="466" font-size="12" text-anchor="middle">2k</text><line x1="189.08" y1="449" x2="189.08" y2="454" stroke="#000000" stroke-width="1" /><text x="319.16" y="466" font-size="12" text-anchor="middle">10k</text><line x1="319.16" y1="449" x2="319.16" y2="454" stroke="#000000" stroke-width="1" /><text x="449.24" y="466" font-size="12" text-anchor="middle">1m</text><line x1="449.24" y1="449" x2="449.24" y2="454" stroke="#000000" stroke-width="1" /><text x="579.32" y="466" font-size="12" text-anchor="middle">10m</text><line x1="579.32" y1="449" x2="579.32" y2="454" stroke="#000000" stroke-width="1" /><line x1="54" y1="449" x2="59" y2="449" stroke="#000000" stroke-width="1" /><text x="51" y="453.2" font-size="12" text-anchor="end">0</text><line x1="54" y1="364.63" x2="59" y2="364.63" stroke="#000000" stroke-width="1" /><text x="51" y="368.83" font-size="12" text-anchor="end">0.25</text><line x1="54" y1="280.25" x2="59" y2="280.25" stroke="#000000" stroke-width="1" /><text x="51" y="284.45" font-size="12" text-anchor="end">0.5</text><line x1="54" y1="195.88" x2="59" y2="195.88" stroke="#000000" stroke-width="1" /><text x="51" y="200.08" font-size="12" text-anchor="end">0.75</text><line x1="54" y1="111.5" x2="59" y2="111.5" stroke="#000000" stroke-width="1" /><text x="51" y="115.7" font-size="12" text-anchor="end">1</text><text x="15" y="250" font-size="14" text-anchor="middle" transform="rotate(-90,15,250)">seconds</text><text x="480" y="27.400000000000002" font-size="18" text-anchor="middle">Histogram — render time by dataset size</text><g clip-path="url(#kuva-clip-1)"><rect x="137.05" y="446.64" width="20.81" height="2.36" fill="#4682b4" /><rect x="157.86" y="447.12" width="20.81" height="1.8800000000000001" fill="#ff6347" /><rect x="178.67000000000002" y="447.07" width="20.81" height="1.93" fill="#2e8b57" /><rect x="199.49" y="445.96000000000004" width="20.81" height="3.04" fill="#ff8c00" /><rect x="220.3" y="447.65000000000003" width="20.81" height="1.35" fill="#9370db" /><rect x="267.13" y="446.3" width="20.81" height="2.7" fill="#4682b4" /><rect x="287.94" y="447.14" width="20.81" height="1.86" fill="#ff6347" /><rect x="308.75" y="447.02" width="20.81" height="1.98" fill="#2e8b57" /><rect x="329.57" y="446.16" width="20.81" height="2.84" fill="#ff8c00" /><rect x="350.38" y="447.68" width="20.81" height="1.32" fill="#9370db" /><rect x="397.21000000000004" y="441.24" width="20.81" height="7.76" fill="#4682b4" /><rect x="418.02" y="442.47" width="20.81" height="6.53" fill="#ff6347" /><rect x="438.83" y="442.39" width="20.81" height="6.61" fill="#2e8b57" /><rect x="459.65000000000003" y="411.71000000000004" width="20.81" height="37.29" fill="#ff8c00" /><rect x="480.46000000000004" y="447.57" width="20.81" height="1.43" fill="#9370db" /><rect x="527.29" y="387.24" width="20.81" height="61.76" fill="#4682b4" /><rect x="548.1" y="383.71000000000004" width="20.81" height="65.29" fill="#ff6347" /><rect x="568.91" y="385.53000000000003" width="20.81" height="63.47" fill="#2e8b57" /><rect x="589.73" y="108.83" width="20.81" height="340.17" fill="#ff8c00" /><rect x="610.54" y="447.41" width="20.81" height="1.59" fill="#9370db" /></g><rect x="714.4" y="34" width="236.6" height="110" fill="#ffffff" /><rect x="714.4" y="34" width="236.6" height="110" fill="none" stroke="#000000" stroke-width="1" /><text x="744.4" y="53.2" font-size="12" text-anchor="start">kuva — v0.2.0 baseline</text><rect x="724.4" y="43" width="12" height="12" fill="#4682b4" /><text x="744.4" y="71.2" font-size="12" text-anchor="start">kuva — v0.2.0 new-raster</text><rect x="724.4" y="61" width="12" height="12" fill="#ff6347" /><text x="744.4" y="89.2" font-size="12" text-anchor="start">kuva — v0.2.0 polyline-opt</text><rect x="724.4" y="79" width="12" height="12" fill="#2e8b57" /><text x="744.4" y="107.2" font-size="12" text-anchor="start">charton</text><rect x="724.4" y="97" width="12" height="12" fill="#ff8c00" /><text x="744.4" y="125.2" font-size="12" text-anchor="start">plotters</text><rect x="724.4" y="115" width="12" height="12" fill="#9370db" /></svg>