<svg xmlns="http://www.w3.org/2000/svg" width="960" height="500" font-family="DejaVu Sans, Liberation Sans, Arial, sans-serif" fill="black"><rect width="100%" height="100%" fill="white" /><defs><clipPath id="kuva-clip-2"><rect x="63.800000000000004" y="44" width="645.6" height="405"/></clipPath></defs><line x1="63.800000000000004" y1="333.29" x2="709.4" y2="333.29" stroke="#cccccc" stroke-width="1" /><line x1="63.800000000000004" y1="217.57" x2="709.4" y2="217.57" stroke="#cccccc" stroke-width="1" /><line x1="63.800000000000004" y1="101.86" x2="709.4" y2="101.86" stroke="#cccccc" stroke-width="1" /><line x1="63.800000000000004" y1="449" x2="709.4" y2="449" stroke="#000000" stroke-width="1" /><line x1="63.800000000000004" y1="44" x2="63.800000000000004" y2="449" stroke="#000000" stroke-width="1" /><text x="192.92000000000002" y="466" font-size="12" text-anchor="middle">1k</text><line x1="192.92000000000002" y1="449" x2="192.92000000000002" y2="454" stroke="#000000" stroke-width="1" /><text x="322.04" y="466" font-size="12" text-anchor="middle">5k</text><line x1="322.04" y1="449" x2="322.04" y2="454" stroke="#000000" stroke-width="1" /><text x="451.16" y="466" font-size="12" text-anchor="middle">500k</text><line x1="451.16" y1="449" x2="451.16" y2="454" stroke="#000000" stroke-width="1" /><text x="580.28" y="466" font-size="12" text-anchor="middle">5m</text><line x1="580.28" y1="449" x2="580.28" y2="454" stroke="#000000" stroke-width="1" /><line x1="58.800000000000004" y1="449" x2="63.800000000000004" y2="449" stroke="#000000" stroke-width="1" /><text x="55.800000000000004" y="453.2" font-size="12" text-anchor="end">0</text><line x1="58.800000000000004" y1="333.29" x2="63.800000000000004" y2="333.29" stroke="#000000" stroke-width="1" /><text x="55.800000000000004" y="337.49" font-size="12" text-anchor="end">5</text><line x1="58.800000000000004" y1="217.57" x2="63.800000000000004" y2="217.57" stroke="#000000" stroke-width="1" /><text x="55.800000000000004" y="221.77" font-size="12" text-anchor="end">10</text><line x1="58.800000000000004" y1="101.86" x2="63.800000000000004" y2="101.86" stroke="#000000" stroke-width="1" /><text x="55.800000000000004" y="106.06" font-size="12" text-anchor="end">15</text><text x="15" y="250" font-size="14" text-anchor="middle" transform="rotate(-90,15,250)">seconds</text><text x="480" y="27.400000000000002" font-size="18" text-anchor="middle">Scatter plot — render time by dataset size</text><g clip-path="url(#kuva-clip-2)"><rect x="141.27" y="448.81" width="20.66" height="0.19" fill="#4682b4" /><rect x="161.93" y="448.8" width="20.66" height="0.2" fill="#ff6347" /><rect x="182.59" y="448.81" width="20.66" height="0.19" fill="#2e8b57" /><rect x="203.25" y="448.72" width="20.66" height="0.28" fill="#ff8c00" /><rect x="223.91" y="448.91" width="20.66" height="0.09" fill="#9370db" /><rect x="270.39" y="448.63" width="20.66" height="0.37" fill="#4682b4" /><rect x="291.05" y="448.75" width="20.66" height="0.25" fill="#ff6347" /><rect x="311.71" y="448.75" width="20.66" height="0.25" fill="#2e8b57" /><rect x="332.37" y="448.43" width="20.66" height="0.5700000000000001" fill="#ff8c00" /><rect x="353.03000000000003" y="448.89" width="20.66" height="0.11" fill="#9370db" /><rect x="399.51" y="423.01" width="20.66" height="25.990000000000002" fill="#4682b4" /><rect x="420.17" y="446.32" width="20.66" height="2.68" fill="#ff6347" /><rect x="440.83" y="446.47" width="20.66" height="2.5300000000000002" fill="#2e8b57" /><rect x="461.49" y="407.35" width="20.66" height="41.65" fill="#ff8c00" /><rect x="482.15000000000003" y="447.62" width="20.66" height="1.3800000000000001" fill="#9370db" /><rect x="528.63" y="190.36" width="20.66" height="258.64" fill="#4682b4" /><rect x="549.29" y="428.28000000000003" width="20.66" height="20.72" fill="#ff6347" /><rect x="569.95" y="428.03000000000003" width="20.66" height="20.97" fill="#2e8b57" /><rect x="590.61" y="54.33" width="20.66" height="394.67" fill="#ff8c00" /><rect x="611.27" y="435.96000000000004" width="20.66" height="13.040000000000001" fill="#9370db" /></g><rect x="714.4" y="34" width="236.6" height="110" fill="#ffffff" /><rect x="714.4" y="34" width="236.6" height="110" fill="none" stroke="#000000" stroke-width="1" /><text x="744.4" y="53.2" font-size="12" text-anchor="start">kuva — v0.2.0 baseline</text><rect x="724.4" y="43" width="12" height="12" fill="#4682b4" /><text x="744.4" y="71.2" font-size="12" text-anchor="start">kuva — v0.2.0 new-raster</text><rect x="724.4" y="61" width="12" height="12" fill="#ff6347" /><text x="744.4" y="89.2" font-size="12" text-anchor="start">kuva — v0.2.0 polyline-opt</text><rect x="724.4" y="79" width="12" height="12" fill="#2e8b57" /><text x="744.4" y="107.2" font-size="12" text-anchor="start">charton</text><rect x="724.4" y="97" width="12" height="12" fill="#ff8c00" /><text x="744.4" y="125.2" font-size="12" text-anchor="start">plotters</text><rect x="724.4" y="115" width="12" height="12" fill="#9370db" /></svg>