<svg xmlns="http://www.w3.org/2000/svg" width="960" height="500" font-family="DejaVu Sans, Liberation Sans, Arial, sans-serif" fill="black"><rect width="100%" height="100%" fill="white" /><defs><clipPath id="kuva-clip-2"><rect x="63.800000000000004" y="44" width="577.7" height="405"/></clipPath></defs><line x1="63.800000000000004" y1="333.29" x2="641.5" y2="333.29" stroke="#cccccc" stroke-width="1" /><line x1="63.800000000000004" y1="217.57" x2="641.5" y2="217.57" stroke="#cccccc" stroke-width="1" /><line x1="63.800000000000004" y1="101.86" x2="641.5" y2="101.86" stroke="#cccccc" stroke-width="1" /><line x1="63.800000000000004" y1="449" x2="641.5" y2="449" stroke="#000000" stroke-width="1" /><line x1="63.800000000000004" y1="44" x2="63.800000000000004" y2="449" stroke="#000000" stroke-width="1" /><text x="179.34" y="466" font-size="12" text-anchor="middle">1k</text><line x1="179.34" y1="449" x2="179.34" y2="454" stroke="#000000" stroke-width="1" /><text x="294.88" y="466" font-size="12" text-anchor="middle">5k</text><line x1="294.88" y1="449" x2="294.88" y2="454" stroke="#000000" stroke-width="1" /><text x="410.42" y="466" font-size="12" text-anchor="middle">500k</text><line x1="410.42" y1="449" x2="410.42" y2="454" stroke="#000000" stroke-width="1" /><text x="525.96" y="466" font-size="12" text-anchor="middle">5m</text><line x1="525.96" y1="449" x2="525.96" y2="454" stroke="#000000" stroke-width="1" /><line x1="58.800000000000004" y1="449" x2="63.800000000000004" y2="449" stroke="#000000" stroke-width="1" /><text x="55.800000000000004" y="453.2" font-size="12" text-anchor="end">0</text><line x1="58.800000000000004" y1="333.29" x2="63.800000000000004" y2="333.29" stroke="#000000" stroke-width="1" /><text x="55.800000000000004" y="337.49" font-size="12" text-anchor="end">5</text><line x1="58.800000000000004" y1="217.57" x2="63.800000000000004" y2="217.57" stroke="#000000" stroke-width="1" /><text x="55.800000000000004" y="221.77" font-size="12" text-anchor="end">10</text><line x1="58.800000000000004" y1="101.86" x2="63.800000000000004" y2="101.86" stroke="#000000" stroke-width="1" /><text x="55.800000000000004" y="106.06" font-size="12" text-anchor="end">15</text><text x="15" y="246.5" font-size="14" text-anchor="middle" transform="rotate(-90,15,246.5)">seconds</text><text x="352.65000000000003" y="27.400000000000002" font-size="18" text-anchor="middle">Scatter plot — render time by dataset size</text><g clip-path="url(#kuva-clip-2)"><rect x="133.12" y="448.81" width="9.24" height="0.19" fill="#4682b4" /><rect x="142.37" y="448.8" width="9.24" height="0.2" fill="#ff6347" /><rect x="151.61" y="448.81" width="9.24" height="0.19" fill="#2e8b57" /><rect x="160.85" y="448.8" width="9.24" height="0.2" fill="#ff8c00" /><rect x="170.1" y="448.83" width="9.24" height="0.17" fill="#9370db" /><rect x="179.34" y="448.81" width="9.24" height="0.19" fill="#ff1493" /><rect x="188.58" y="448.82" width="9.24" height="0.18" fill="#daa520" /><rect x="197.83" y="448.78000000000003" width="9.24" height="0.22" fill="#008080" /><rect x="207.07" y="448.73" width="9.24" height="0.27" fill="#4682b4" /><rect x="216.31" y="448.91" width="9.24" height="0.09" fill="#ff6347" /><rect x="248.66" y="448.74" width="9.24" height="0.26" fill="#4682b4" /><rect x="257.91" y="448.73" width="9.24" height="0.27" fill="#ff6347" /><rect x="267.15" y="448.63" width="9.24" height="0.37" fill="#2e8b57" /><rect x="276.39" y="448.75" width="9.24" height="0.25" fill="#ff8c00" /><rect x="285.64" y="448.77" width="9.24" height="0.23" fill="#9370db" /><rect x="294.88" y="448.75" width="9.24" height="0.25" fill="#ff1493" /><rect x="304.12" y="448.75" width="9.24" height="0.25" fill="#daa520" /><rect x="313.37" y="448.72" width="9.24" height="0.28" fill="#008080" /><rect x="322.61" y="448.42" width="9.24" height="0.58" fill="#4682b4" /><rect x="331.85" y="448.89" width="9.24" height="0.11" fill="#ff6347" /><rect x="364.2" y="446.54" width="9.24" height="2.46" fill="#4682b4" /><rect x="373.45" y="446.26" width="9.24" height="2.74" fill="#ff6347" /><rect x="382.69" y="423.01" width="9.24" height="25.990000000000002" fill="#2e8b57" /><rect x="391.93" y="446.32" width="9.24" height="2.68" fill="#ff8c00" /><rect x="401.18" y="446.68" width="9.24" height="2.32" fill="#9370db" /><rect x="410.42" y="446.47" width="9.24" height="2.5300000000000002" fill="#ff1493" /><rect x="419.66" y="446.54" width="9.24" height="2.46" fill="#daa520" /><rect x="428.91" y="446.31" width="9.24" height="2.69" fill="#008080" /><rect x="438.15000000000003" y="408.01" width="9.24" height="40.99" fill="#4682b4" /><rect x="447.39" y="447.6" width="9.24" height="1.4000000000000001" fill="#ff6347" /><rect x="479.74" y="429.61" width="9.24" height="19.39" fill="#4682b4" /><rect x="488.99" y="427.88" width="9.24" height="21.12" fill="#ff6347" /><rect x="498.23" y="190.36" width="9.24" height="258.64" fill="#2e8b57" /><rect x="507.47" y="428.28000000000003" width="9.24" height="20.72" fill="#ff8c00" /><rect x="516.72" y="429.73" width="9.24" height="19.27" fill="#9370db" /><rect x="525.96" y="428.03000000000003" width="9.24" height="20.97" fill="#ff1493" /><rect x="535.2" y="429.43" width="9.24" height="19.57" fill="#daa520" /><rect x="544.45" y="427.6" width="9.24" height="21.400000000000002" fill="#008080" /><rect x="553.69" y="53.78" width="9.24" height="395.22" fill="#4682b4" /><rect x="562.9300000000001" y="436.23" width="9.24" height="12.77" fill="#ff6347" /></g><rect x="646.5" y="34" width="304.5" height="200" fill="#ffffff" /><rect x="646.5" y="34" width="304.5" height="200" fill="none" stroke="#000000" stroke-width="1" /><text x="676.5" y="53.2" font-size="12" text-anchor="start">kuva — adhoc</text><rect x="656.5" y="43" width="12" height="12" fill="#4682b4" /><text x="676.5" y="71.2" font-size="12" text-anchor="start">kuva — v0.2.0 aet</text><rect x="656.5" y="61" width="12" height="12" fill="#ff6347" /><text x="676.5" y="89.2" font-size="12" text-anchor="start">kuva — v0.2.0 baseline</text><rect x="656.5" y="79" width="12" height="12" fill="#2e8b57" /><text x="676.5" y="107.2" font-size="12" text-anchor="start">kuva — v0.2.0 new-raster</text><rect x="656.5" y="97" width="12" height="12" fill="#ff8c00" /><text x="676.5" y="125.2" font-size="12" text-anchor="start">kuva — v0.2.0 nonzero-winding</text><rect x="656.5" y="115" width="12" height="12" fill="#9370db" /><text x="676.5" y="143.20000000000002" font-size="12" text-anchor="start">kuva — v0.2.0 polyline-opt</text><rect x="656.5" y="133" width="12" height="12" fill="#ff1493" /><text x="676.5" y="161.20000000000002" font-size="12" text-anchor="start">kuva — v0.2.0 round-join</text><rect x="656.5" y="151" width="12" height="12" fill="#daa520" /><text x="676.5" y="179.20000000000002" font-size="12" text-anchor="start">kuva — v0.2.0 stadium</text><rect x="656.5" y="169" width="12" height="12" fill="#008080" /><text x="676.5" y="197.20000000000002" font-size="12" text-anchor="start">charton</text><rect x="656.5" y="187" width="12" height="12" fill="#4682b4" /><text x="676.5" y="215.20000000000002" font-size="12" text-anchor="start">plotters</text><rect x="656.5" y="205" width="12" height="12" fill="#ff6347" /></svg>