<svg xmlns="http://www.w3.org/2000/svg" width="960" height="500" font-family="DejaVu Sans, Liberation Sans, Arial, sans-serif" fill="black"><rect width="100%" height="100%" fill="white" /><defs><clipPath id="kuva-clip-0"><rect x="59" y="44" width="650.4" height="405"/></clipPath></defs><line x1="59" y1="368" x2="709.4" y2="368" stroke="#cccccc" stroke-width="1" /><line x1="59" y1="287" x2="709.4" y2="287" stroke="#cccccc" stroke-width="1" /><line x1="59" y1="206" x2="709.4" y2="206" stroke="#cccccc" stroke-width="1" /><line x1="59" y1="125" x2="709.4" y2="125" stroke="#cccccc" stroke-width="1" /><line x1="59" y1="44" x2="709.4" y2="44" stroke="#cccccc" stroke-width="1" /><line x1="59" y1="449" x2="709.4" y2="449" stroke="#000000" stroke-width="1" /><line x1="59" y1="44" x2="59" y2="449" stroke="#000000" stroke-width="1" /><text x="167.4" y="466" font-size="12" text-anchor="middle">1k</text><line x1="167.4" y1="449" x2="167.4" y2="454" stroke="#000000" stroke-width="1" /><text x="275.8" y="466" font-size="12" text-anchor="middle">5k</text><line x1="275.8" y1="449" x2="275.8" y2="454" stroke="#000000" stroke-width="1" /><text x="384.2" y="466" font-size="12" text-anchor="middle">85k</text><line x1="384.2" y1="449" x2="384.2" y2="454" stroke="#000000" stroke-width="1" /><text x="492.6" y="466" font-size="12" text-anchor="middle">170k</text><line x1="492.6" y1="449" x2="492.6" y2="454" stroke="#000000" stroke-width="1" /><text x="601" y="466" font-size="12" text-anchor="middle">850k</text><line x1="601" y1="449" x2="601" y2="454" stroke="#000000" stroke-width="1" /><line x1="54" y1="449" x2="59" y2="449" stroke="#000000" stroke-width="1" /><text x="51" y="453.2" font-size="12" text-anchor="end">0</text><line x1="54" y1="368" x2="59" y2="368" stroke="#000000" stroke-width="1" /><text x="51" y="372.2" font-size="12" text-anchor="end">5</text><line x1="54" y1="287" x2="59" y2="287" stroke="#000000" stroke-width="1" /><text x="51" y="291.2" font-size="12" text-anchor="end">10</text><line x1="54" y1="206" x2="59" y2="206" stroke="#000000" stroke-width="1" /><text x="51" y="210.20000000000002" font-size="12" text-anchor="end">15</text><line x1="54" y1="125" x2="59" y2="125" stroke="#000000" stroke-width="1" /><text x="51" y="129.2" font-size="12" text-anchor="end">20</text><line x1="54" y1="44" x2="59" y2="44" stroke="#000000" stroke-width="1" /><text x="51" y="48.2" font-size="12" text-anchor="end">25</text><text x="15" y="250" font-size="14" text-anchor="middle" transform="rotate(-90,15,250)">seconds</text><text x="480" y="27.400000000000002" font-size="18" text-anchor="middle">Line chart — render time by dataset size</text><g clip-path="url(#kuva-clip-0)"><rect x="124.04" y="448.51" width="17.34" height="0.49" fill="#4682b4" /><rect x="141.38" y="448.33" width="17.34" height="0.67" fill="#ff6347" /><rect x="158.73" y="448.35" width="17.34" height="0.65" fill="#2e8b57" /><rect x="176.07" y="448.56" width="17.34" height="0.44" fill="#ff8c00" /><rect x="193.42000000000002" y="448.6" width="17.34" height="0.4" fill="#9370db" /><rect x="232.44" y="448.55" width="17.34" height="0.45" fill="#4682b4" /><rect x="249.78" y="448.59000000000003" width="17.34" height="0.41000000000000003" fill="#ff6347" /><rect x="267.13" y="448.57" width="17.34" height="0.43" fill="#2e8b57" /><rect x="284.47" y="448.62" width="17.34" height="0.38" fill="#ff8c00" /><rect x="301.82" y="448.90000000000003" width="17.34" height="0.1" fill="#9370db" /><rect x="340.84000000000003" y="433.79" width="17.34" height="15.21" fill="#4682b4" /><rect x="358.18" y="437.24" width="17.34" height="11.76" fill="#ff6347" /><rect x="375.53000000000003" y="439.62" width="17.34" height="9.38" fill="#2e8b57" /><rect x="392.87" y="426.52" width="17.34" height="22.48" fill="#ff8c00" /><rect x="410.22" y="448.39" width="17.34" height="0.61" fill="#9370db" /><rect x="449.24" y="411.98" width="17.34" height="37.02" fill="#4682b4" /><rect x="466.58" y="426.43" width="17.34" height="22.57" fill="#ff6347" /><rect x="483.93" y="431.28000000000003" width="17.34" height="17.72" fill="#2e8b57" /><rect x="501.27000000000004" y="395.45" width="17.34" height="53.550000000000004" fill="#ff8c00" /><rect x="518.62" y="447.78000000000003" width="17.34" height="1.22" fill="#9370db" /><rect x="557.64" y="221.58" width="17.34" height="227.42000000000002" fill="#4682b4" /><rect x="574.98" y="339.26" width="17.34" height="109.74000000000001" fill="#ff6347" /><rect x="592.33" y="358.39" width="17.34" height="90.61" fill="#2e8b57" /><rect x="609.67" y="72.29" width="17.34" height="376.71" fill="#ff8c00" /><rect x="627.02" y="443.23" width="17.34" height="5.7700000000000005" fill="#9370db" /></g><rect x="714.4" y="34" width="236.6" height="110" fill="#ffffff" /><rect x="714.4" y="34" width="236.6" height="110" fill="none" stroke="#000000" stroke-width="1" /><text x="744.4" y="53.2" font-size="12" text-anchor="start">kuva — v0.2.0 baseline</text><rect x="724.4" y="43" width="12" height="12" fill="#4682b4" /><text x="744.4" y="71.2" font-size="12" text-anchor="start">kuva — v0.2.0 new-raster</text><rect x="724.4" y="61" width="12" height="12" fill="#ff6347" /><text x="744.4" y="89.2" font-size="12" text-anchor="start">kuva — v0.2.0 polyline-opt</text><rect x="724.4" y="79" width="12" height="12" fill="#2e8b57" /><text x="744.4" y="107.2" font-size="12" text-anchor="start">charton</text><rect x="724.4" y="97" width="12" height="12" fill="#ff8c00" /><text x="744.4" y="125.2" font-size="12" text-anchor="start">plotters</text><rect x="724.4" y="115" width="12" height="12" fill="#9370db" /></svg>