<svg xmlns="http://www.w3.org/2000/svg" width="960" height="500" font-family="DejaVu Sans, Liberation Sans, Arial, sans-serif" fill="black"><rect width="100%" height="100%" fill="white" /><defs><clipPath id="kuva-clip-1"><rect x="59" y="44" width="582.5" height="405"/></clipPath></defs><line x1="59" y1="364.63" x2="641.5" y2="364.63" stroke="#cccccc" stroke-width="1" /><line x1="59" y1="280.25" x2="641.5" y2="280.25" stroke="#cccccc" stroke-width="1" /><line x1="59" y1="195.88" x2="641.5" y2="195.88" stroke="#cccccc" stroke-width="1" /><line x1="59" y1="111.5" x2="641.5" y2="111.5" stroke="#cccccc" stroke-width="1" /><line x1="59" y1="449" x2="641.5" y2="449" stroke="#000000" stroke-width="1" /><line x1="59" y1="44" x2="59" y2="449" stroke="#000000" stroke-width="1" /><text x="175.5" y="466" font-size="12" text-anchor="middle">2k</text><line x1="175.5" y1="449" x2="175.5" y2="454" stroke="#000000" stroke-width="1" /><text x="292" y="466" font-size="12" text-anchor="middle">10k</text><line x1="292" y1="449" x2="292" y2="454" stroke="#000000" stroke-width="1" /><text x="408.5" y="466" font-size="12" text-anchor="middle">1m</text><line x1="408.5" y1="449" x2="408.5" y2="454" stroke="#000000" stroke-width="1" /><text x="525" y="466" font-size="12" text-anchor="middle">10m</text><line x1="525" y1="449" x2="525" y2="454" stroke="#000000" stroke-width="1" /><line x1="54" y1="449" x2="59" y2="449" stroke="#000000" stroke-width="1" /><text x="51" y="453.2" font-size="12" text-anchor="end">0</text><line x1="54" y1="364.63" x2="59" y2="364.63" stroke="#000000" stroke-width="1" /><text x="51" y="368.83" font-size="12" text-anchor="end">0.25</text><line x1="54" y1="280.25" x2="59" y2="280.25" stroke="#000000" stroke-width="1" /><text x="51" y="284.45" font-size="12" text-anchor="end">0.5</text><line x1="54" y1="195.88" x2="59" y2="195.88" stroke="#000000" stroke-width="1" /><text x="51" y="200.08" font-size="12" text-anchor="end">0.75</text><line x1="54" y1="111.5" x2="59" y2="111.5" stroke="#000000" stroke-width="1" /><text x="51" y="115.7" font-size="12" text-anchor="end">1</text><text x="15" y="246.5" font-size="14" text-anchor="middle" transform="rotate(-90,15,246.5)">seconds</text><text x="350.25" y="27.400000000000002" font-size="18" text-anchor="middle">Histogram — render time by dataset size</text><g clip-path="url(#kuva-clip-1)"><rect x="128.9" y="447.13" width="9.32" height="1.87" fill="#4682b4" /><rect x="138.22" y="447.07" width="9.32" height="1.93" fill="#ff6347" /><rect x="147.54" y="446.64" width="9.32" height="2.36" fill="#2e8b57" /><rect x="156.86" y="447.12" width="9.32" height="1.8800000000000001" fill="#ff8c00" /><rect x="166.18" y="447.22" width="9.32" height="1.78" fill="#9370db" /><rect x="175.5" y="447.07" width="9.32" height="1.93" fill="#ff1493" /><rect x="184.82" y="447.06" width="9.32" height="1.94" fill="#daa520" /><rect x="194.14000000000001" y="447.02" width="9.32" height="1.98" fill="#008080" /><rect x="203.46" y="445.85" width="9.32" height="3.15" fill="#4682b4" /><rect x="212.78" y="447.63" width="9.32" height="1.37" fill="#ff6347" /><rect x="245.4" y="447.17" width="9.32" height="1.83" fill="#4682b4" /><rect x="254.72" y="447.03000000000003" width="9.32" height="1.97" fill="#ff6347" /><rect x="264.04" y="446.3" width="9.32" height="2.7" fill="#2e8b57" /><rect x="273.36" y="447.14" width="9.32" height="1.86" fill="#ff8c00" /><rect x="282.68" y="446.97" width="9.32" height="2.0300000000000002" fill="#9370db" /><rect x="292" y="447.02" width="9.32" height="1.98" fill="#ff1493" /><rect x="301.32" y="447.08" width="9.32" height="1.92" fill="#daa520" /><rect x="310.64" y="447.03000000000003" width="9.32" height="1.97" fill="#008080" /><rect x="319.96" y="446.02" width="9.32" height="2.98" fill="#4682b4" /><rect x="329.28000000000003" y="447.71000000000004" width="9.32" height="1.29" fill="#ff6347" /><rect x="361.90000000000003" y="442.57" width="9.32" height="6.43" fill="#4682b4" /><rect x="371.22" y="441.81" width="9.32" height="7.19" fill="#ff6347" /><rect x="380.54" y="441.24" width="9.32" height="7.76" fill="#2e8b57" /><rect x="389.86" y="442.47" width="9.32" height="6.53" fill="#ff8c00" /><rect x="399.18" y="442.32" width="9.32" height="6.68" fill="#9370db" /><rect x="408.5" y="442.39" width="9.32" height="6.61" fill="#ff1493" /><rect x="417.82" y="442.48" width="9.32" height="6.5200000000000005" fill="#daa520" /><rect x="427.14" y="442.25" width="9.32" height="6.75" fill="#008080" /><rect x="436.46000000000004" y="412.1" width="9.32" height="36.9" fill="#4682b4" /><rect x="445.78000000000003" y="447.52" width="9.32" height="1.48" fill="#ff6347" /><rect x="478.40000000000003" y="389.35" width="9.32" height="59.65" fill="#4682b4" /><rect x="487.72" y="383.01" width="9.32" height="65.99" fill="#ff6347" /><rect x="497.04" y="387.24" width="9.32" height="61.76" fill="#2e8b57" /><rect x="506.36" y="383.71000000000004" width="9.32" height="65.29" fill="#ff8c00" /><rect x="515.6800000000001" y="386.40000000000003" width="9.32" height="62.6" fill="#9370db" /><rect x="525" y="385.53000000000003" width="9.32" height="63.47" fill="#ff1493" /><rect x="534.32" y="385.90000000000003" width="9.32" height="63.1" fill="#daa520" /><rect x="543.64" y="381.95" width="9.32" height="67.05" fill="#008080" /><rect x="552.96" y="106.45" width="9.32" height="342.55" fill="#4682b4" /><rect x="562.28" y="447.41" width="9.32" height="1.59" fill="#ff6347" /></g><rect x="646.5" y="34" width="304.5" height="200" fill="#ffffff" /><rect x="646.5" y="34" width="304.5" height="200" fill="none" stroke="#000000" stroke-width="1" /><text x="676.5" y="53.2" font-size="12" text-anchor="start">kuva — adhoc</text><rect x="656.5" y="43" width="12" height="12" fill="#4682b4" /><text x="676.5" y="71.2" font-size="12" text-anchor="start">kuva — v0.2.0 aet</text><rect x="656.5" y="61" width="12" height="12" fill="#ff6347" /><text x="676.5" y="89.2" font-size="12" text-anchor="start">kuva — v0.2.0 baseline</text><rect x="656.5" y="79" width="12" height="12" fill="#2e8b57" /><text x="676.5" y="107.2" font-size="12" text-anchor="start">kuva — v0.2.0 new-raster</text><rect x="656.5" y="97" width="12" height="12" fill="#ff8c00" /><text x="676.5" y="125.2" font-size="12" text-anchor="start">kuva — v0.2.0 nonzero-winding</text><rect x="656.5" y="115" width="12" height="12" fill="#9370db" /><text x="676.5" y="143.20000000000002" font-size="12" text-anchor="start">kuva — v0.2.0 polyline-opt</text><rect x="656.5" y="133" width="12" height="12" fill="#ff1493" /><text x="676.5" y="161.20000000000002" font-size="12" text-anchor="start">kuva — v0.2.0 round-join</text><rect x="656.5" y="151" width="12" height="12" fill="#daa520" /><text x="676.5" y="179.20000000000002" font-size="12" text-anchor="start">kuva — v0.2.0 stadium</text><rect x="656.5" y="169" width="12" height="12" fill="#008080" /><text x="676.5" y="197.20000000000002" font-size="12" text-anchor="start">charton</text><rect x="656.5" y="187" width="12" height="12" fill="#4682b4" /><text x="676.5" y="215.20000000000002" font-size="12" text-anchor="start">plotters</text><rect x="656.5" y="205" width="12" height="12" fill="#ff6347" /></svg>