<svg xmlns="http://www.w3.org/2000/svg" width="960" height="500" font-family="DejaVu Sans, Liberation Sans, Arial, sans-serif" fill="black"><rect width="100%" height="100%" fill="white" /><defs><clipPath id="kuva-clip-5"><rect x="59" y="44" width="650.4" height="405"/></clipPath></defs><line x1="59" y1="368" x2="709.4" y2="368" stroke="#cccccc" stroke-width="1" /><line x1="59" y1="287" x2="709.4" y2="287" stroke="#cccccc" stroke-width="1" /><line x1="59" y1="206" x2="709.4" y2="206" stroke="#cccccc" stroke-width="1" /><line x1="59" y1="125" x2="709.4" y2="125" stroke="#cccccc" stroke-width="1" /><line x1="59" y1="44" x2="709.4" y2="44" stroke="#cccccc" stroke-width="1" /><line x1="59" y1="449" x2="709.4" y2="449" stroke="#000000" stroke-width="1" /><line x1="59" y1="44" x2="59" y2="449" stroke="#000000" stroke-width="1" /><text x="189.08" y="466" font-size="12" text-anchor="middle">1k</text><line x1="189.08" y1="449" x2="189.08" y2="454" stroke="#000000" stroke-width="1" /><text x="319.16" y="466" font-size="12" text-anchor="middle">5k</text><line x1="319.16" y1="449" x2="319.16" y2="454" stroke="#000000" stroke-width="1" /><text x="449.24" y="466" font-size="12" text-anchor="middle">500k</text><line x1="449.24" y1="449" x2="449.24" y2="454" stroke="#000000" stroke-width="1" /><text x="579.32" y="466" font-size="12" text-anchor="middle">5m</text><line x1="579.32" y1="449" x2="579.32" y2="454" stroke="#000000" stroke-width="1" /><line x1="54" y1="449" x2="59" y2="449" stroke="#000000" stroke-width="1" /><text x="51" y="453.2" font-size="12" text-anchor="end">0</text><line x1="54" y1="368" x2="59" y2="368" stroke="#000000" stroke-width="1" /><text x="51" y="372.2" font-size="12" text-anchor="end">2.5</text><line x1="54" y1="287" x2="59" y2="287" stroke="#000000" stroke-width="1" /><text x="51" y="291.2" font-size="12" text-anchor="end">5</text><line x1="54" y1="206" x2="59" y2="206" stroke="#000000" stroke-width="1" /><text x="51" y="210.20000000000002" font-size="12" text-anchor="end">7.5</text><line x1="54" y1="125" x2="59" y2="125" stroke="#000000" stroke-width="1" /><text x="51" y="129.2" font-size="12" text-anchor="end">10</text><line x1="54" y1="44" x2="59" y2="44" stroke="#000000" stroke-width="1" /><text x="51" y="48.2" font-size="12" text-anchor="end">12.5</text><text x="15" y="250" font-size="14" text-anchor="middle" transform="rotate(-90,15,250)">seconds</text><text x="480" y="27.400000000000002" font-size="18" text-anchor="middle">kuva — scatter plot before vs after (lower is better)</text><g clip-path="url(#kuva-clip-5)"><rect x="137.05" y="448.74" width="34.69" height="0.26" fill="#4682b4" /><rect x="171.74" y="448.72" width="34.69" height="0.28" fill="#ff6347" /><rect x="206.42000000000002" y="448.73" width="34.69" height="0.27" fill="#2e8b57" /><rect x="267.13" y="448.48" width="34.69" height="0.52" fill="#4682b4" /><rect x="301.82" y="448.65000000000003" width="34.69" height="0.35000000000000003" fill="#ff6347" /><rect x="336.5" y="448.65000000000003" width="34.69" height="0.35000000000000003" fill="#2e8b57" /><rect x="397.21000000000004" y="412.61" width="34.69" height="36.39" fill="#4682b4" /><rect x="431.90000000000003" y="445.25" width="34.69" height="3.75" fill="#ff6347" /><rect x="466.58" y="445.45" width="34.69" height="3.5500000000000003" fill="#2e8b57" /><rect x="527.29" y="86.9" width="34.69" height="362.1" fill="#4682b4" /><rect x="561.98" y="419.99" width="34.69" height="29.01" fill="#ff6347" /><rect x="596.66" y="419.65000000000003" width="34.69" height="29.35" fill="#2e8b57" /></g><rect x="714.4" y="34" width="236.6" height="74" fill="#ffffff" /><rect x="714.4" y="34" width="236.6" height="74" fill="none" stroke="#000000" stroke-width="1" /><text x="744.4" y="53.2" font-size="12" text-anchor="start">kuva — v0.2.0 baseline</text><rect x="724.4" y="43" width="12" height="12" fill="#4682b4" /><text x="744.4" y="71.2" font-size="12" text-anchor="start">kuva — v0.2.0 new-raster</text><rect x="724.4" y="61" width="12" height="12" fill="#ff6347" /><text x="744.4" y="89.2" font-size="12" text-anchor="start">kuva — v0.2.0 polyline-opt</text><rect x="724.4" y="79" width="12" height="12" fill="#2e8b57" /></svg>