<svg xmlns="http://www.w3.org/2000/svg" width="960" height="500" font-family="DejaVu Sans, Liberation Sans, Arial, sans-serif" fill="black"><rect width="100%" height="100%" fill="white" /><defs><clipPath id="kuva-clip-5"><rect x="59" y="44" width="628.8000000000001" height="405"/></clipPath></defs><line x1="59" y1="368" x2="687.8000000000001" y2="368" stroke="#cccccc" stroke-width="1" /><line x1="59" y1="287" x2="687.8000000000001" y2="287" stroke="#cccccc" stroke-width="1" /><line x1="59" y1="206" x2="687.8000000000001" y2="206" stroke="#cccccc" stroke-width="1" /><line x1="59" y1="125" x2="687.8000000000001" y2="125" stroke="#cccccc" stroke-width="1" /><line x1="59" y1="44" x2="687.8000000000001" y2="44" stroke="#cccccc" stroke-width="1" /><line x1="59" y1="449" x2="687.8000000000001" y2="449" stroke="#000000" stroke-width="1" /><line x1="59" y1="44" x2="59" y2="449" stroke="#000000" stroke-width="1" /><text x="184.76" y="466" font-size="12" text-anchor="middle">1k</text><line x1="184.76" y1="449" x2="184.76" y2="454" stroke="#000000" stroke-width="1" /><text x="310.52" y="466" font-size="12" text-anchor="middle">5k</text><line x1="310.52" y1="449" x2="310.52" y2="454" stroke="#000000" stroke-width="1" /><text x="436.28000000000003" y="466" font-size="12" text-anchor="middle">500k</text><line x1="436.28000000000003" y1="449" x2="436.28000000000003" y2="454" stroke="#000000" stroke-width="1" /><text x="562.04" y="466" font-size="12" text-anchor="middle">5m</text><line x1="562.04" y1="449" x2="562.04" y2="454" stroke="#000000" stroke-width="1" /><line x1="54" y1="449" x2="59" y2="449" stroke="#000000" stroke-width="1" /><text x="51" y="453.2" font-size="12" text-anchor="end">0</text><line x1="54" y1="368" x2="59" y2="368" stroke="#000000" stroke-width="1" /><text x="51" y="372.2" font-size="12" text-anchor="end">2.5</text><line x1="54" y1="287" x2="59" y2="287" stroke="#000000" stroke-width="1" /><text x="51" y="291.2" font-size="12" text-anchor="end">5</text><line x1="54" y1="206" x2="59" y2="206" stroke="#000000" stroke-width="1" /><text x="51" y="210.20000000000002" font-size="12" text-anchor="end">7.5</text><line x1="54" y1="125" x2="59" y2="125" stroke="#000000" stroke-width="1" /><text x="51" y="129.2" font-size="12" text-anchor="end">10</text><line x1="54" y1="44" x2="59" y2="44" stroke="#000000" stroke-width="1" /><text x="51" y="48.2" font-size="12" text-anchor="end">12.5</text><text x="15" y="250" font-size="14" text-anchor="middle" transform="rotate(-90,15,250)">seconds</text><text x="480" y="27.400000000000002" font-size="18" text-anchor="middle">kuva — scatter plot before vs after (lower is better)</text><g clip-path="url(#kuva-clip-5)"><rect x="134.46" y="448.74" width="12.58" height="0.26" fill="#4682b4" /><rect x="147.03" y="448.72" width="12.58" height="0.28" fill="#ff6347" /><rect x="159.61" y="448.74" width="12.58" height="0.26" fill="#2e8b57" /><rect x="172.18" y="448.72" width="12.58" height="0.28" fill="#ff8c00" /><rect x="184.76" y="448.76" width="12.58" height="0.24" fill="#9370db" /><rect x="197.34" y="448.73" width="12.58" height="0.27" fill="#ff1493" /><rect x="209.91" y="448.74" width="12.58" height="0.26" fill="#daa520" /><rect x="222.49" y="448.7" width="12.58" height="0.3" fill="#008080" /><rect x="260.22" y="448.64" width="12.58" height="0.36" fill="#4682b4" /><rect x="272.79" y="448.62" width="12.58" height="0.38" fill="#ff6347" /><rect x="285.37" y="448.48" width="12.58" height="0.52" fill="#2e8b57" /><rect x="297.94" y="448.65000000000003" width="12.58" height="0.35000000000000003" fill="#ff8c00" /><rect x="310.52" y="448.67" width="12.58" height="0.33" fill="#9370db" /><rect x="323.1" y="448.65000000000003" width="12.58" height="0.35000000000000003" fill="#ff1493" /><rect x="335.67" y="448.65000000000003" width="12.58" height="0.35000000000000003" fill="#daa520" /><rect x="348.25" y="448.6" width="12.58" height="0.4" fill="#008080" /><rect x="385.98" y="445.56" width="12.58" height="3.44" fill="#4682b4" /><rect x="398.55" y="445.16" width="12.58" height="3.84" fill="#ff6347" /><rect x="411.13" y="412.61" width="12.58" height="36.39" fill="#2e8b57" /><rect x="423.7" y="445.25" width="12.58" height="3.75" fill="#ff8c00" /><rect x="436.28000000000003" y="445.75" width="12.58" height="3.25" fill="#9370db" /><rect x="448.86" y="445.45" width="12.58" height="3.5500000000000003" fill="#ff1493" /><rect x="461.43" y="445.55" width="12.58" height="3.45" fill="#daa520" /><rect x="474.01" y="445.23" width="12.58" height="3.77" fill="#008080" /><rect x="511.74" y="421.85" width="12.58" height="27.150000000000002" fill="#4682b4" /><rect x="524.3100000000001" y="419.43" width="12.58" height="29.57" fill="#ff6347" /><rect x="536.89" y="86.9" width="12.58" height="362.1" fill="#2e8b57" /><rect x="549.46" y="419.99" width="12.58" height="29.01" fill="#ff8c00" /><rect x="562.04" y="422.03000000000003" width="12.58" height="26.97" fill="#9370db" /><rect x="574.62" y="419.65000000000003" width="12.58" height="29.35" fill="#ff1493" /><rect x="587.19" y="421.6" width="12.58" height="27.400000000000002" fill="#daa520" /><rect x="599.77" y="419.04" width="12.58" height="29.96" fill="#008080" /></g><rect x="692.8000000000001" y="34" width="258.2" height="164" fill="#ffffff" /><rect x="692.8000000000001" y="34" width="258.2" height="164" fill="none" stroke="#000000" stroke-width="1" /><text x="722.8000000000001" y="53.2" font-size="12" text-anchor="start">kuva — adhoc</text><rect x="702.8000000000001" y="43" width="12" height="12" fill="#4682b4" /><text x="722.8000000000001" y="71.2" font-size="12" text-anchor="start">kuva — v0.2.0 aet</text><rect x="702.8000000000001" y="61" width="12" height="12" fill="#ff6347" /><text x="722.8000000000001" y="89.2" font-size="12" text-anchor="start">kuva — v0.2.0 baseline</text><rect x="702.8000000000001" y="79" width="12" height="12" fill="#2e8b57" /><text x="722.8000000000001" y="107.2" font-size="12" text-anchor="start">kuva — v0.2.0 new-raster</text><rect x="702.8000000000001" y="97" width="12" height="12" fill="#ff8c00" /><text x="722.8000000000001" y="125.2" font-size="12" text-anchor="start">kuva — v0.2.0 nonzero-winding</text><rect x="702.8000000000001" y="115" width="12" height="12" fill="#9370db" /><text x="722.8000000000001" y="143.20000000000002" font-size="12" text-anchor="start">kuva — v0.2.0 polyline-opt</text><rect x="702.8000000000001" y="133" width="12" height="12" fill="#ff1493" /><text x="722.8000000000001" y="161.20000000000002" font-size="12" text-anchor="start">kuva — v0.2.0 round-join</text><rect x="702.8000000000001" y="151" width="12" height="12" fill="#daa520" /><text x="722.8000000000001" y="179.20000000000002" font-size="12" text-anchor="start">kuva — v0.2.0 stadium</text><rect x="702.8000000000001" y="169" width="12" height="12" fill="#008080" /></svg>