<svg xmlns="http://www.w3.org/2000/svg" width="960" height="500" font-family="DejaVu Sans, Liberation Sans, Arial, sans-serif" fill="black"><rect width="100%" height="100%" fill="white" /><defs><clipPath id="kuva-clip-3"><rect x="59" y="44" width="628.8000000000001" height="405"/></clipPath></defs><line x1="59" y1="368" x2="687.8000000000001" y2="368" stroke="#cccccc" stroke-width="1" /><line x1="59" y1="287" x2="687.8000000000001" y2="287" stroke="#cccccc" stroke-width="1" /><line x1="59" y1="206" x2="687.8000000000001" y2="206" stroke="#cccccc" stroke-width="1" /><line x1="59" y1="125" x2="687.8000000000001" y2="125" stroke="#cccccc" stroke-width="1" /><line x1="59" y1="44" x2="687.8000000000001" y2="44" stroke="#cccccc" stroke-width="1" /><line x1="59" y1="449" x2="687.8000000000001" y2="449" stroke="#000000" stroke-width="1" /><line x1="59" y1="44" x2="59" y2="449" stroke="#000000" stroke-width="1" /><text x="163.8" y="466" font-size="12" text-anchor="middle">1k</text><line x1="163.8" y1="449" x2="163.8" y2="454" stroke="#000000" stroke-width="1" /><text x="268.6" y="466" font-size="12" text-anchor="middle">5k</text><line x1="268.6" y1="449" x2="268.6" y2="454" stroke="#000000" stroke-width="1" /><text x="373.40000000000003" y="466" font-size="12" text-anchor="middle">85k</text><line x1="373.40000000000003" y1="449" x2="373.40000000000003" y2="454" stroke="#000000" stroke-width="1" /><text x="478.2" y="466" font-size="12" text-anchor="middle">170k</text><line x1="478.2" y1="449" x2="478.2" y2="454" stroke="#000000" stroke-width="1" /><text x="583" y="466" font-size="12" text-anchor="middle">850k</text><line x1="583" y1="449" x2="583" y2="454" stroke="#000000" stroke-width="1" /><line x1="54" y1="449" x2="59" y2="449" stroke="#000000" stroke-width="1" /><text x="51" y="453.2" font-size="12" text-anchor="end">0</text><line x1="54" y1="368" x2="59" y2="368" stroke="#000000" stroke-width="1" /><text x="51" y="372.2" font-size="12" text-anchor="end">5</text><line x1="54" y1="287" x2="59" y2="287" stroke="#000000" stroke-width="1" /><text x="51" y="291.2" font-size="12" text-anchor="end">10</text><line x1="54" y1="206" x2="59" y2="206" stroke="#000000" stroke-width="1" /><text x="51" y="210.20000000000002" font-size="12" text-anchor="end">15</text><line x1="54" y1="125" x2="59" y2="125" stroke="#000000" stroke-width="1" /><text x="51" y="129.2" font-size="12" text-anchor="end">20</text><line x1="54" y1="44" x2="59" y2="44" stroke="#000000" stroke-width="1" /><text x="51" y="48.2" font-size="12" text-anchor="end">25</text><text x="15" y="250" font-size="14" text-anchor="middle" transform="rotate(-90,15,250)">seconds</text><text x="480" y="27.400000000000002" font-size="18" text-anchor="middle">kuva — line chart before vs after (lower is better)</text><g clip-path="url(#kuva-clip-3)"><rect x="121.88" y="448.13" width="10.48" height="0.87" fill="#4682b4" /><rect x="132.36" y="448.24" width="10.48" height="0.76" fill="#ff6347" /><rect x="142.84" y="448.51" width="10.48" height="0.49" fill="#2e8b57" /><rect x="153.32" y="448.33" width="10.48" height="0.67" fill="#ff8c00" /><rect x="163.8" y="448.39" width="10.48" height="0.61" fill="#9370db" /><rect x="174.28" y="448.35" width="10.48" height="0.65" fill="#ff1493" /><rect x="184.76" y="448.14" width="10.48" height="0.86" fill="#daa520" /><rect x="195.24" y="448.34000000000003" width="10.48" height="0.66" fill="#008080" /><rect x="226.68" y="447.64" width="10.48" height="1.36" fill="#4682b4" /><rect x="237.16" y="448.24" width="10.48" height="0.76" fill="#ff6347" /><rect x="247.64000000000001" y="448.55" width="10.48" height="0.45" fill="#2e8b57" /><rect x="258.12" y="448.59000000000003" width="10.48" height="0.41000000000000003" fill="#ff8c00" /><rect x="268.6" y="448.66" width="10.48" height="0.34" fill="#9370db" /><rect x="279.08" y="448.57" width="10.48" height="0.43" fill="#ff1493" /><rect x="289.56" y="447.68" width="10.48" height="1.32" fill="#daa520" /><rect x="300.04" y="448.6" width="10.48" height="0.4" fill="#008080" /><rect x="331.48" y="404.22" width="10.48" height="44.78" fill="#4682b4" /><rect x="341.96" y="433.68" width="10.48" height="15.32" fill="#ff6347" /><rect x="352.44" y="433.79" width="10.48" height="15.21" fill="#2e8b57" /><rect x="362.92" y="437.24" width="10.48" height="11.76" fill="#ff8c00" /><rect x="373.40000000000003" y="438.25" width="10.48" height="10.75" fill="#9370db" /><rect x="383.88" y="439.62" width="10.48" height="9.38" fill="#ff1493" /><rect x="394.36" y="401.76" width="10.48" height="47.24" fill="#daa520" /><rect x="404.84000000000003" y="438.79" width="10.48" height="10.21" fill="#008080" /><rect x="436.28000000000003" y="367.36" width="10.48" height="81.64" fill="#4682b4" /><rect x="446.76" y="418" width="10.48" height="31" fill="#ff6347" /><rect x="457.24" y="411.98" width="10.48" height="37.02" fill="#2e8b57" /><rect x="467.72" y="426.43" width="10.48" height="22.57" fill="#ff8c00" /><rect x="478.2" y="427.08" width="10.48" height="21.92" fill="#9370db" /><rect x="488.68" y="431.28000000000003" width="10.48" height="17.72" fill="#ff1493" /><rect x="499.16" y="363.28000000000003" width="10.48" height="85.72" fill="#daa520" /><rect x="509.64" y="429.40000000000003" width="10.48" height="19.6" fill="#008080" /><rect x="541.08" y="87.24" width="10.48" height="361.76" fill="#4682b4" /><rect x="551.5600000000001" y="304.21" width="10.48" height="144.79" fill="#ff6347" /><rect x="562.04" y="221.58" width="10.48" height="227.42000000000002" fill="#2e8b57" /><rect x="572.52" y="339.26" width="10.48" height="109.74000000000001" fill="#ff8c00" /><rect x="583" y="320.77" width="10.48" height="128.23" fill="#9370db" /><rect x="593.48" y="358.39" width="10.48" height="90.61" fill="#ff1493" /><rect x="603.96" y="100" width="10.48" height="349" fill="#daa520" /><rect x="614.44" y="348.67" width="10.48" height="100.33" fill="#008080" /></g><rect x="692.8000000000001" y="34" width="258.2" height="164" fill="#ffffff" /><rect x="692.8000000000001" y="34" width="258.2" height="164" fill="none" stroke="#000000" stroke-width="1" /><text x="722.8000000000001" y="53.2" font-size="12" text-anchor="start">kuva — adhoc</text><rect x="702.8000000000001" y="43" width="12" height="12" fill="#4682b4" /><text x="722.8000000000001" y="71.2" font-size="12" text-anchor="start">kuva — v0.2.0 aet</text><rect x="702.8000000000001" y="61" width="12" height="12" fill="#ff6347" /><text x="722.8000000000001" y="89.2" font-size="12" text-anchor="start">kuva — v0.2.0 baseline</text><rect x="702.8000000000001" y="79" width="12" height="12" fill="#2e8b57" /><text x="722.8000000000001" y="107.2" font-size="12" text-anchor="start">kuva — v0.2.0 new-raster</text><rect x="702.8000000000001" y="97" width="12" height="12" fill="#ff8c00" /><text x="722.8000000000001" y="125.2" font-size="12" text-anchor="start">kuva — v0.2.0 nonzero-winding</text><rect x="702.8000000000001" y="115" width="12" height="12" fill="#9370db" /><text x="722.8000000000001" y="143.20000000000002" font-size="12" text-anchor="start">kuva — v0.2.0 polyline-opt</text><rect x="702.8000000000001" y="133" width="12" height="12" fill="#ff1493" /><text x="722.8000000000001" y="161.20000000000002" font-size="12" text-anchor="start">kuva — v0.2.0 round-join</text><rect x="702.8000000000001" y="151" width="12" height="12" fill="#daa520" /><text x="722.8000000000001" y="179.20000000000002" font-size="12" text-anchor="start">kuva — v0.2.0 stadium</text><rect x="702.8000000000001" y="169" width="12" height="12" fill="#008080" /></svg>