<svg xmlns="http://www.w3.org/2000/svg" width="960" height="500" font-family="DejaVu Sans, Liberation Sans, Arial, sans-serif" fill="black"><rect width="100%" height="100%" fill="white" /><defs><clipPath id="kuva-clip-4"><rect x="63.800000000000004" y="44" width="645.6" height="405"/></clipPath></defs><line x1="63.800000000000004" y1="347.75" x2="709.4" y2="347.75" stroke="#cccccc" stroke-width="1" /><line x1="63.800000000000004" y1="246.5" x2="709.4" y2="246.5" stroke="#cccccc" stroke-width="1" /><line x1="63.800000000000004" y1="145.25" x2="709.4" y2="145.25" stroke="#cccccc" stroke-width="1" /><line x1="63.800000000000004" y1="44" x2="709.4" y2="44" stroke="#cccccc" stroke-width="1" /><line x1="63.800000000000004" y1="449" x2="709.4" y2="449" stroke="#000000" stroke-width="1" /><line x1="63.800000000000004" y1="44" x2="63.800000000000004" y2="449" stroke="#000000" stroke-width="1" /><text x="192.92000000000002" y="466" font-size="12" text-anchor="middle">2k</text><line x1="192.92000000000002" y1="449" x2="192.92000000000002" y2="454" stroke="#000000" stroke-width="1" /><text x="322.04" y="466" font-size="12" text-anchor="middle">10k</text><line x1="322.04" y1="449" x2="322.04" y2="454" stroke="#000000" stroke-width="1" /><text x="451.16" y="466" font-size="12" text-anchor="middle">1m</text><line x1="451.16" y1="449" x2="451.16" y2="454" stroke="#000000" stroke-width="1" /><text x="580.28" y="466" font-size="12" text-anchor="middle">10m</text><line x1="580.28" y1="449" x2="580.28" y2="454" stroke="#000000" stroke-width="1" /><line x1="58.800000000000004" y1="449" x2="63.800000000000004" y2="449" stroke="#000000" stroke-width="1" /><text x="55.800000000000004" y="453.2" font-size="12" text-anchor="end">0</text><line x1="58.800000000000004" y1="347.75" x2="63.800000000000004" y2="347.75" stroke="#000000" stroke-width="1" /><text x="55.800000000000004" y="351.95" font-size="12" text-anchor="end">0.05</text><line x1="58.800000000000004" y1="246.5" x2="63.800000000000004" y2="246.5" stroke="#000000" stroke-width="1" /><text x="55.800000000000004" y="250.70000000000002" font-size="12" text-anchor="end">0.1</text><line x1="58.800000000000004" y1="145.25" x2="63.800000000000004" y2="145.25" stroke="#000000" stroke-width="1" /><text x="55.800000000000004" y="149.45000000000002" font-size="12" text-anchor="end">0.15</text><line x1="58.800000000000004" y1="44" x2="63.800000000000004" y2="44" stroke="#000000" stroke-width="1" /><text x="55.800000000000004" y="48.2" font-size="12" text-anchor="end">0.2</text><text x="15" y="250" font-size="14" text-anchor="middle" transform="rotate(-90,15,250)">seconds</text><text x="480" y="27.400000000000002" font-size="18" text-anchor="middle">kuva — histogram before vs after (lower is better)</text><g clip-path="url(#kuva-clip-4)"><rect x="141.27" y="434.83" width="34.43" height="14.18" fill="#4682b4" /><rect x="175.70000000000002" y="437.7" width="34.43" height="11.3" fill="#ff6347" /><rect x="210.14000000000001" y="437.43" width="34.43" height="11.57" fill="#2e8b57" /><rect x="270.39" y="432.8" width="34.43" height="16.2" fill="#4682b4" /><rect x="304.82" y="437.86" width="34.43" height="11.14" fill="#ff6347" /><rect x="339.26" y="437.1" width="34.43" height="11.9" fill="#2e8b57" /><rect x="399.51" y="402.43" width="34.43" height="46.57" fill="#4682b4" /><rect x="433.94" y="409.81" width="34.43" height="39.19" fill="#ff6347" /><rect x="468.38" y="409.34000000000003" width="34.43" height="39.660000000000004" fill="#2e8b57" /><rect x="528.63" y="78.43" width="34.43" height="370.58" fill="#4682b4" /><rect x="563.0600000000001" y="57.29" width="34.43" height="391.71000000000004" fill="#ff6347" /><rect x="597.5" y="68.19" width="34.43" height="380.81" fill="#2e8b57" /></g><rect x="714.4" y="34" width="236.6" height="74" fill="#ffffff" /><rect x="714.4" y="34" width="236.6" height="74" fill="none" stroke="#000000" stroke-width="1" /><text x="744.4" y="53.2" font-size="12" text-anchor="start">kuva — v0.2.0 baseline</text><rect x="724.4" y="43" width="12" height="12" fill="#4682b4" /><text x="744.4" y="71.2" font-size="12" text-anchor="start">kuva — v0.2.0 new-raster</text><rect x="724.4" y="61" width="12" height="12" fill="#ff6347" /><text x="744.4" y="89.2" font-size="12" text-anchor="start">kuva — v0.2.0 polyline-opt</text><rect x="724.4" y="79" width="12" height="12" fill="#2e8b57" /></svg>