<svg xmlns="http://www.w3.org/2000/svg" width="960" height="500" font-family="DejaVu Sans, Liberation Sans, Arial, sans-serif" fill="black"><rect width="100%" height="100%" fill="white" /><defs><clipPath id="kuva-clip-4"><rect x="63.800000000000004" y="44" width="624" height="405"/></clipPath></defs><line x1="63.800000000000004" y1="368" x2="687.8000000000001" y2="368" stroke="#cccccc" stroke-width="1" /><line x1="63.800000000000004" y1="287" x2="687.8000000000001" y2="287" stroke="#cccccc" stroke-width="1" /><line x1="63.800000000000004" y1="206" x2="687.8000000000001" y2="206" stroke="#cccccc" stroke-width="1" /><line x1="63.800000000000004" y1="125" x2="687.8000000000001" y2="125" stroke="#cccccc" stroke-width="1" /><line x1="63.800000000000004" y1="44" x2="687.8000000000001" y2="44" stroke="#cccccc" stroke-width="1" /><line x1="63.800000000000004" y1="449" x2="687.8000000000001" y2="449" stroke="#000000" stroke-width="1" /><line x1="63.800000000000004" y1="44" x2="63.800000000000004" y2="449" stroke="#000000" stroke-width="1" /><text x="188.6" y="466" font-size="12" text-anchor="middle">2k</text><line x1="188.6" y1="449" x2="188.6" y2="454" stroke="#000000" stroke-width="1" /><text x="313.40000000000003" y="466" font-size="12" text-anchor="middle">10k</text><line x1="313.40000000000003" y1="449" x2="313.40000000000003" y2="454" stroke="#000000" stroke-width="1" /><text x="438.2" y="466" font-size="12" text-anchor="middle">1m</text><line x1="438.2" y1="449" x2="438.2" y2="454" stroke="#000000" stroke-width="1" /><text x="563" y="466" font-size="12" text-anchor="middle">10m</text><line x1="563" y1="449" x2="563" y2="454" stroke="#000000" stroke-width="1" /><line x1="58.800000000000004" y1="449" x2="63.800000000000004" y2="449" stroke="#000000" stroke-width="1" /><text x="55.800000000000004" y="453.2" font-size="12" text-anchor="end">0</text><line x1="58.800000000000004" y1="368" x2="63.800000000000004" y2="368" stroke="#000000" stroke-width="1" /><text x="55.800000000000004" y="372.2" font-size="12" text-anchor="end">0.05</text><line x1="58.800000000000004" y1="287" x2="63.800000000000004" y2="287" stroke="#000000" stroke-width="1" /><text x="55.800000000000004" y="291.2" font-size="12" text-anchor="end">0.1</text><line x1="58.800000000000004" y1="206" x2="63.800000000000004" y2="206" stroke="#000000" stroke-width="1" /><text x="55.800000000000004" y="210.20000000000002" font-size="12" text-anchor="end">0.15</text><line x1="58.800000000000004" y1="125" x2="63.800000000000004" y2="125" stroke="#000000" stroke-width="1" /><text x="55.800000000000004" y="129.2" font-size="12" text-anchor="end">0.2</text><line x1="58.800000000000004" y1="44" x2="63.800000000000004" y2="44" stroke="#000000" stroke-width="1" /><text x="55.800000000000004" y="48.2" font-size="12" text-anchor="end">0.25</text><text x="15" y="250" font-size="14" text-anchor="middle" transform="rotate(-90,15,250)">seconds</text><text x="480" y="27.400000000000002" font-size="18" text-anchor="middle">kuva — histogram before vs after (lower is better)</text><g clip-path="url(#kuva-clip-4)"><rect x="138.68" y="440.04" width="12.48" height="8.96" fill="#4682b4" /><rect x="151.16" y="439.74" width="12.48" height="9.26" fill="#ff6347" /><rect x="163.64000000000001" y="437.66" width="12.48" height="11.34" fill="#2e8b57" /><rect x="176.12" y="439.96000000000004" width="12.48" height="9.040000000000001" fill="#ff8c00" /><rect x="188.6" y="440.47" width="12.48" height="8.53" fill="#9370db" /><rect x="201.08" y="439.75" width="12.48" height="9.25" fill="#ff1493" /><rect x="213.56" y="439.69" width="12.48" height="9.31" fill="#daa520" /><rect x="226.04" y="439.48" width="12.48" height="9.52" fill="#008080" /><rect x="263.48" y="440.22" width="12.48" height="8.78" fill="#4682b4" /><rect x="275.96" y="439.52" width="12.48" height="9.48" fill="#ff6347" /><rect x="288.44" y="436.04" width="12.48" height="12.96" fill="#2e8b57" /><rect x="300.92" y="440.08" width="12.48" height="8.92" fill="#ff8c00" /><rect x="313.40000000000003" y="439.26" width="12.48" height="9.74" fill="#9370db" /><rect x="325.88" y="439.48" width="12.48" height="9.52" fill="#ff1493" /><rect x="338.36" y="439.78000000000003" width="12.48" height="9.22" fill="#daa520" /><rect x="350.84000000000003" y="439.54" width="12.48" height="9.46" fill="#008080" /><rect x="388.28000000000003" y="418.15000000000003" width="12.48" height="30.85" fill="#4682b4" /><rect x="400.76" y="414.48" width="12.48" height="34.52" fill="#ff6347" /><rect x="413.24" y="411.74" width="12.48" height="37.26" fill="#2e8b57" /><rect x="425.72" y="417.65000000000003" width="12.48" height="31.35" fill="#ff8c00" /><rect x="438.2" y="416.96000000000004" width="12.48" height="32.04" fill="#9370db" /><rect x="450.68" y="417.27" width="12.48" height="31.73" fill="#ff1493" /><rect x="463.16" y="417.7" width="12.48" height="31.3" fill="#daa520" /><rect x="475.64" y="416.61" width="12.48" height="32.39" fill="#008080" /><rect x="513.08" y="162.70000000000002" width="12.48" height="286.3" fill="#4682b4" /><rect x="525.5600000000001" y="132.26" width="12.48" height="316.74" fill="#ff6347" /><rect x="538.04" y="152.54" width="12.48" height="296.46" fill="#2e8b57" /><rect x="550.52" y="135.63" width="12.48" height="313.37" fill="#ff8c00" /><rect x="563" y="148.53" width="12.48" height="300.47" fill="#9370db" /><rect x="575.48" y="144.35" width="12.48" height="304.65000000000003" fill="#ff1493" /><rect x="587.96" y="146.11" width="12.48" height="302.89" fill="#daa520" /><rect x="600.44" y="127.17" width="12.48" height="321.83" fill="#008080" /></g><rect x="692.8000000000001" y="34" width="258.2" height="164" fill="#ffffff" /><rect x="692.8000000000001" y="34" width="258.2" height="164" fill="none" stroke="#000000" stroke-width="1" /><text x="722.8000000000001" y="53.2" font-size="12" text-anchor="start">kuva — adhoc</text><rect x="702.8000000000001" y="43" width="12" height="12" fill="#4682b4" /><text x="722.8000000000001" y="71.2" font-size="12" text-anchor="start">kuva — v0.2.0 aet</text><rect x="702.8000000000001" y="61" width="12" height="12" fill="#ff6347" /><text x="722.8000000000001" y="89.2" font-size="12" text-anchor="start">kuva — v0.2.0 baseline</text><rect x="702.8000000000001" y="79" width="12" height="12" fill="#2e8b57" /><text x="722.8000000000001" y="107.2" font-size="12" text-anchor="start">kuva — v0.2.0 new-raster</text><rect x="702.8000000000001" y="97" width="12" height="12" fill="#ff8c00" /><text x="722.8000000000001" y="125.2" font-size="12" text-anchor="start">kuva — v0.2.0 nonzero-winding</text><rect x="702.8000000000001" y="115" width="12" height="12" fill="#9370db" /><text x="722.8000000000001" y="143.20000000000002" font-size="12" text-anchor="start">kuva — v0.2.0 polyline-opt</text><rect x="702.8000000000001" y="133" width="12" height="12" fill="#ff1493" /><text x="722.8000000000001" y="161.20000000000002" font-size="12" text-anchor="start">kuva — v0.2.0 round-join</text><rect x="702.8000000000001" y="151" width="12" height="12" fill="#daa520" /><text x="722.8000000000001" y="179.20000000000002" font-size="12" text-anchor="start">kuva — v0.2.0 stadium</text><rect x="702.8000000000001" y="169" width="12" height="12" fill="#008080" /></svg>