<svg xmlns="http://www.w3.org/2000/svg" width="960" height="500" font-family="DejaVu Sans, Liberation Sans, Arial, sans-serif" fill="black"><rect width="100%" height="100%" fill="white" /><defs><clipPath id="kuva-clip-3"><rect x="63.800000000000004" y="44" width="645.6" height="405"/></clipPath></defs><line x1="63.800000000000004" y1="381.5" x2="709.4" y2="381.5" stroke="#cccccc" stroke-width="1" /><line x1="63.800000000000004" y1="314" x2="709.4" y2="314" stroke="#cccccc" stroke-width="1" /><line x1="63.800000000000004" y1="246.5" x2="709.4" y2="246.5" stroke="#cccccc" stroke-width="1" /><line x1="63.800000000000004" y1="179" x2="709.4" y2="179" stroke="#cccccc" stroke-width="1" /><line x1="63.800000000000004" y1="111.5" x2="709.4" y2="111.5" stroke="#cccccc" stroke-width="1" /><line x1="63.800000000000004" y1="44" x2="709.4" y2="44" stroke="#cccccc" stroke-width="1" /><line x1="63.800000000000004" y1="449" x2="709.4" y2="449" stroke="#000000" stroke-width="1" /><line x1="63.800000000000004" y1="44" x2="63.800000000000004" y2="449" stroke="#000000" stroke-width="1" /><text x="171.4" y="466" font-size="12" text-anchor="middle">1k</text><line x1="171.4" y1="449" x2="171.4" y2="454" stroke="#000000" stroke-width="1" /><text x="279" y="466" font-size="12" text-anchor="middle">5k</text><line x1="279" y1="449" x2="279" y2="454" stroke="#000000" stroke-width="1" /><text x="386.6" y="466" font-size="12" text-anchor="middle">85k</text><line x1="386.6" y1="449" x2="386.6" y2="454" stroke="#000000" stroke-width="1" /><text x="494.2" y="466" font-size="12" text-anchor="middle">170k</text><line x1="494.2" y1="449" x2="494.2" y2="454" stroke="#000000" stroke-width="1" /><text x="601.8000000000001" y="466" font-size="12" text-anchor="middle">850k</text><line x1="601.8000000000001" y1="449" x2="601.8000000000001" y2="454" stroke="#000000" stroke-width="1" /><line x1="58.800000000000004" y1="449" x2="63.800000000000004" y2="449" stroke="#000000" stroke-width="1" /><text x="55.800000000000004" y="453.2" font-size="12" text-anchor="end">0</text><line x1="58.800000000000004" y1="381.5" x2="63.800000000000004" y2="381.5" stroke="#000000" stroke-width="1" /><text x="55.800000000000004" y="385.7" font-size="12" text-anchor="end">2.5</text><line x1="58.800000000000004" y1="314" x2="63.800000000000004" y2="314" stroke="#000000" stroke-width="1" /><text x="55.800000000000004" y="318.2" font-size="12" text-anchor="end">5</text><line x1="58.800000000000004" y1="246.5" x2="63.800000000000004" y2="246.5" stroke="#000000" stroke-width="1" /><text x="55.800000000000004" y="250.70000000000002" font-size="12" text-anchor="end">7.5</text><line x1="58.800000000000004" y1="179" x2="63.800000000000004" y2="179" stroke="#000000" stroke-width="1" /><text x="55.800000000000004" y="183.20000000000002" font-size="12" text-anchor="end">10</text><line x1="58.800000000000004" y1="111.5" x2="63.800000000000004" y2="111.5" stroke="#000000" stroke-width="1" /><text x="55.800000000000004" y="115.7" font-size="12" text-anchor="end">12.5</text><line x1="58.800000000000004" y1="44" x2="63.800000000000004" y2="44" stroke="#000000" stroke-width="1" /><text x="55.800000000000004" y="48.2" font-size="12" text-anchor="end">15</text><text x="15" y="250" font-size="14" text-anchor="middle" transform="rotate(-90,15,250)">seconds</text><text x="480" y="27.400000000000002" font-size="18" text-anchor="middle">kuva — line chart before vs after (lower is better)</text><g clip-path="url(#kuva-clip-3)"><rect x="128.36" y="448.19" width="28.69" height="0.81" fill="#4682b4" /><rect x="157.05" y="447.89" width="28.69" height="1.11" fill="#ff6347" /><rect x="185.75" y="447.92" width="28.69" height="1.08" fill="#2e8b57" /><rect x="235.96" y="448.24" width="28.69" height="0.76" fill="#4682b4" /><rect x="264.65" y="448.32" width="28.69" height="0.68" fill="#ff6347" /><rect x="293.35" y="448.28000000000003" width="28.69" height="0.72" fill="#2e8b57" /><rect x="343.56" y="423.65000000000003" width="28.69" height="25.35" fill="#4682b4" /><rect x="372.25" y="429.40000000000003" width="28.69" height="19.6" fill="#ff6347" /><rect x="400.95" y="433.37" width="28.69" height="15.63" fill="#2e8b57" /><rect x="451.16" y="387.31" width="28.69" height="61.690000000000005" fill="#4682b4" /><rect x="479.85" y="411.39" width="28.69" height="37.61" fill="#ff6347" /><rect x="508.55" y="419.46000000000004" width="28.69" height="29.54" fill="#2e8b57" /><rect x="558.76" y="69.97" width="28.69" height="379.03000000000003" fill="#4682b4" /><rect x="587.45" y="266.11" width="28.69" height="182.89000000000001" fill="#ff6347" /><rect x="616.15" y="297.98" width="28.69" height="151.02" fill="#2e8b57" /></g><rect x="714.4" y="34" width="236.6" height="74" fill="#ffffff" /><rect x="714.4" y="34" width="236.6" height="74" fill="none" stroke="#000000" stroke-width="1" /><text x="744.4" y="53.2" font-size="12" text-anchor="start">kuva — v0.2.0 baseline</text><rect x="724.4" y="43" width="12" height="12" fill="#4682b4" /><text x="744.4" y="71.2" font-size="12" text-anchor="start">kuva — v0.2.0 new-raster</text><rect x="724.4" y="61" width="12" height="12" fill="#ff6347" /><text x="744.4" y="89.2" font-size="12" text-anchor="start">kuva — v0.2.0 polyline-opt</text><rect x="724.4" y="79" width="12" height="12" fill="#2e8b57" /></svg>