<svg xmlns="http://www.w3.org/2000/svg" width="960" height="500" font-family="DejaVu Sans, Liberation Sans, Arial, sans-serif" fill="black"><rect width="100%" height="100%" fill="white" /><defs><clipPath id="kuva-clip-5"><rect x="59" y="44" width="582.5" height="405"/></clipPath></defs><line x1="59" y1="368" x2="641.5" y2="368" stroke="#cccccc" stroke-width="1" /><line x1="59" y1="287" x2="641.5" y2="287" stroke="#cccccc" stroke-width="1" /><line x1="59" y1="206" x2="641.5" y2="206" stroke="#cccccc" stroke-width="1" /><line x1="59" y1="125" x2="641.5" y2="125" stroke="#cccccc" stroke-width="1" /><line x1="59" y1="44" x2="641.5" y2="44" stroke="#cccccc" stroke-width="1" /><line x1="59" y1="449" x2="641.5" y2="449" stroke="#000000" stroke-width="1" /><line x1="59" y1="44" x2="59" y2="449" stroke="#000000" stroke-width="1" /><text x="175.5" y="466" font-size="12" text-anchor="middle">1k</text><line x1="175.5" y1="449" x2="175.5" y2="454" stroke="#000000" stroke-width="1" /><text x="292" y="466" font-size="12" text-anchor="middle">5k</text><line x1="292" y1="449" x2="292" y2="454" stroke="#000000" stroke-width="1" /><text x="408.5" y="466" font-size="12" text-anchor="middle">500k</text><line x1="408.5" y1="449" x2="408.5" y2="454" stroke="#000000" stroke-width="1" /><text x="525" y="466" font-size="12" text-anchor="middle">5m</text><line x1="525" y1="449" x2="525" y2="454" stroke="#000000" stroke-width="1" /><line x1="54" y1="449" x2="59" y2="449" stroke="#000000" stroke-width="1" /><text x="51" y="453.2" font-size="12" text-anchor="end">0</text><line x1="54" y1="368" x2="59" y2="368" stroke="#000000" stroke-width="1" /><text x="51" y="372.2" font-size="12" text-anchor="end">2.5</text><line x1="54" y1="287" x2="59" y2="287" stroke="#000000" stroke-width="1" /><text x="51" y="291.2" font-size="12" text-anchor="end">5</text><line x1="54" y1="206" x2="59" y2="206" stroke="#000000" stroke-width="1" /><text x="51" y="210.20000000000002" font-size="12" text-anchor="end">7.5</text><line x1="54" y1="125" x2="59" y2="125" stroke="#000000" stroke-width="1" /><text x="51" y="129.2" font-size="12" text-anchor="end">10</text><line x1="54" y1="44" x2="59" y2="44" stroke="#000000" stroke-width="1" /><text x="51" y="48.2" font-size="12" text-anchor="end">12.5</text><text x="15" y="246.5" font-size="14" text-anchor="middle" transform="rotate(-90,15,246.5)">seconds</text><text x="350.25" y="27.400000000000002" font-size="18" text-anchor="middle">kuva — scatter plot before vs after (lower is better)</text><g clip-path="url(#kuva-clip-5)"><rect x="128.9" y="448.74" width="11.65" height="0.26" fill="#4682b4" /><rect x="140.55" y="448.72" width="11.65" height="0.28" fill="#ff6347" /><rect x="152.20000000000002" y="448.74" width="11.65" height="0.26" fill="#2e8b57" /><rect x="163.85" y="448.72" width="11.65" height="0.28" fill="#ff8c00" /><rect x="175.5" y="448.76" width="11.65" height="0.24" fill="#9370db" /><rect x="187.15" y="448.73" width="11.65" height="0.27" fill="#ff1493" /><rect x="198.8" y="448.74" width="11.65" height="0.26" fill="#daa520" /><rect x="210.45000000000002" y="448.7" width="11.65" height="0.3" fill="#008080" /><rect x="245.4" y="448.64" width="11.65" height="0.36" fill="#4682b4" /><rect x="257.05" y="448.62" width="11.65" height="0.38" fill="#ff6347" /><rect x="268.7" y="448.48" width="11.65" height="0.52" fill="#2e8b57" /><rect x="280.35" y="448.65000000000003" width="11.65" height="0.35000000000000003" fill="#ff8c00" /><rect x="292" y="448.67" width="11.65" height="0.33" fill="#9370db" /><rect x="303.65000000000003" y="448.65000000000003" width="11.65" height="0.35000000000000003" fill="#ff1493" /><rect x="315.3" y="448.65000000000003" width="11.65" height="0.35000000000000003" fill="#daa520" /><rect x="326.95" y="448.6" width="11.65" height="0.4" fill="#008080" /><rect x="361.90000000000003" y="445.56" width="11.65" height="3.44" fill="#4682b4" /><rect x="373.55" y="445.16" width="11.65" height="3.84" fill="#ff6347" /><rect x="385.2" y="412.61" width="11.65" height="36.39" fill="#2e8b57" /><rect x="396.85" y="445.25" width="11.65" height="3.75" fill="#ff8c00" /><rect x="408.5" y="445.75" width="11.65" height="3.25" fill="#9370db" /><rect x="420.15000000000003" y="445.45" width="11.65" height="3.5500000000000003" fill="#ff1493" /><rect x="431.8" y="445.55" width="11.65" height="3.45" fill="#daa520" /><rect x="443.45" y="445.23" width="11.65" height="3.77" fill="#008080" /><rect x="478.40000000000003" y="421.85" width="11.65" height="27.150000000000002" fill="#4682b4" /><rect x="490.05" y="419.43" width="11.65" height="29.57" fill="#ff6347" /><rect x="501.7" y="86.9" width="11.65" height="362.1" fill="#2e8b57" /><rect x="513.35" y="419.99" width="11.65" height="29.01" fill="#ff8c00" /><rect x="525" y="422.03000000000003" width="11.65" height="26.97" fill="#9370db" /><rect x="536.65" y="419.65000000000003" width="11.65" height="29.35" fill="#ff1493" /><rect x="548.3000000000001" y="421.6" width="11.65" height="27.400000000000002" fill="#daa520" /><rect x="559.95" y="419.04" width="11.65" height="29.96" fill="#008080" /></g><rect x="646.5" y="34" width="304.5" height="164" fill="#ffffff" /><rect x="646.5" y="34" width="304.5" height="164" fill="none" stroke="#000000" stroke-width="1" /><text x="676.5" y="53.2" font-size="12" text-anchor="start">kuva — adhoc</text><rect x="656.5" y="43" width="12" height="12" fill="#4682b4" /><text x="676.5" y="71.2" font-size="12" text-anchor="start">kuva — v0.2.0 aet</text><rect x="656.5" y="61" width="12" height="12" fill="#ff6347" /><text x="676.5" y="89.2" font-size="12" text-anchor="start">kuva — v0.2.0 baseline</text><rect x="656.5" y="79" width="12" height="12" fill="#2e8b57" /><text x="676.5" y="107.2" font-size="12" text-anchor="start">kuva — v0.2.0 new-raster</text><rect x="656.5" y="97" width="12" height="12" fill="#ff8c00" /><text x="676.5" y="125.2" font-size="12" text-anchor="start">kuva — v0.2.0 nonzero-winding</text><rect x="656.5" y="115" width="12" height="12" fill="#9370db" /><text x="676.5" y="143.20000000000002" font-size="12" text-anchor="start">kuva — v0.2.0 polyline-opt</text><rect x="656.5" y="133" width="12" height="12" fill="#ff1493" /><text x="676.5" y="161.20000000000002" font-size="12" text-anchor="start">kuva — v0.2.0 round-join</text><rect x="656.5" y="151" width="12" height="12" fill="#daa520" /><text x="676.5" y="179.20000000000002" font-size="12" text-anchor="start">kuva — v0.2.0 stadium</text><rect x="656.5" y="169" width="12" height="12" fill="#008080" /></svg>