<svg xmlns="http://www.w3.org/2000/svg" width="673" height="561" fill="black"><rect width="100%" height="100%" fill="white" /><line x1="59" y1="492" x2="659" y2="492" stroke="black" stroke-width="1" /><line x1="59" y1="42" x2="59" y2="492" stroke="black" stroke-width="1" /><line x1="59" y1="442" x2="659" y2="442" stroke="#ccc" stroke-width="1" /><line x1="59" y1="392" x2="659" y2="392" stroke="#ccc" stroke-width="1" /><line x1="59" y1="342" x2="659" y2="342" stroke="#ccc" stroke-width="1" /><line x1="59" y1="292" x2="659" y2="292" stroke="#ccc" stroke-width="1" /><line x1="59" y1="242" x2="659" y2="242" stroke="#ccc" stroke-width="1" /><line x1="59" y1="192" x2="659" y2="192" stroke="#ccc" stroke-width="1" /><line x1="59" y1="142" x2="659" y2="142" stroke="#ccc" stroke-width="1" /><line x1="59" y1="92" x2="659" y2="92" stroke="#ccc" stroke-width="1" /><line x1="59" y1="42" x2="659" y2="42" stroke="#ccc" stroke-width="1" /><text x="86.27272727272728" y="507" font-size="10" text-anchor="end" transform="rotate(-45,86.27272727272728,507)">Nov 01</text><line x1="86.27272727272728" y1="492" x2="86.27272727272728" y2="497" stroke="black" stroke-width="1" /><text x="113.54545454545455" y="507" font-size="10" text-anchor="end" transform="rotate(-45,113.54545454545455,507)">Nov 02</text><line x1="113.54545454545455" y1="492" x2="113.54545454545455" y2="497" stroke="black" stroke-width="1" /><text x="140.8181818181818" y="507" font-size="10" text-anchor="end" transform="rotate(-45,140.8181818181818,507)">Nov 03</text><line x1="140.8181818181818" y1="492" x2="140.8181818181818" y2="497" stroke="black" stroke-width="1" /><text x="168.0909090909091" y="507" font-size="10" text-anchor="end" transform="rotate(-45,168.0909090909091,507)">Nov 04</text><line x1="168.0909090909091" y1="492" x2="168.0909090909091" y2="497" stroke="black" stroke-width="1" /><text x="195.36363636363635" y="507" font-size="10" text-anchor="end" transform="rotate(-45,195.36363636363635,507)">Nov 05</text><line x1="195.36363636363635" y1="492" x2="195.36363636363635" y2="497" stroke="black" stroke-width="1" /><text x="222.63636363636363" y="507" font-size="10" text-anchor="end" transform="rotate(-45,222.63636363636363,507)">Nov 06</text><line x1="222.63636363636363" y1="492" x2="222.63636363636363" y2="497" stroke="black" stroke-width="1" /><text x="249.9090909090909" y="507" font-size="10" text-anchor="end" transform="rotate(-45,249.9090909090909,507)">Nov 07</text><line x1="249.9090909090909" y1="492" x2="249.9090909090909" y2="497" stroke="black" stroke-width="1" /><text x="277.1818181818182" y="507" font-size="10" text-anchor="end" transform="rotate(-45,277.1818181818182,507)">Nov 08</text><line x1="277.1818181818182" y1="492" x2="277.1818181818182" y2="497" stroke="black" stroke-width="1" /><text x="304.4545454545455" y="507" font-size="10" text-anchor="end" transform="rotate(-45,304.4545454545455,507)">Nov 11</text><line x1="304.4545454545455" y1="492" x2="304.4545454545455" y2="497" stroke="black" stroke-width="1" /><text x="331.7272727272727" y="507" font-size="10" text-anchor="end" transform="rotate(-45,331.7272727272727,507)">Nov 12</text><line x1="331.7272727272727" y1="492" x2="331.7272727272727" y2="497" stroke="black" stroke-width="1" /><text x="359" y="507" font-size="10" text-anchor="end" transform="rotate(-45,359,507)">Nov 13</text><line x1="359" y1="492" x2="359" y2="497" stroke="black" stroke-width="1" /><text x="386.27272727272725" y="507" font-size="10" text-anchor="end" transform="rotate(-45,386.27272727272725,507)">Nov 14</text><line x1="386.27272727272725" y1="492" x2="386.27272727272725" y2="497" stroke="black" stroke-width="1" /><text x="413.54545454545456" y="507" font-size="10" text-anchor="end" transform="rotate(-45,413.54545454545456,507)">Nov 15</text><line x1="413.54545454545456" y1="492" x2="413.54545454545456" y2="497" stroke="black" stroke-width="1" /><text x="440.8181818181818" y="507" font-size="10" text-anchor="end" transform="rotate(-45,440.8181818181818,507)">Nov 18</text><line x1="440.8181818181818" y1="492" x2="440.8181818181818" y2="497" stroke="black" stroke-width="1" /><text x="468.09090909090907" y="507" font-size="10" text-anchor="end" transform="rotate(-45,468.09090909090907,507)">Nov 19</text><line x1="468.09090909090907" y1="492" x2="468.09090909090907" y2="497" stroke="black" stroke-width="1" /><text x="495.3636363636364" y="507" font-size="10" text-anchor="end" transform="rotate(-45,495.3636363636364,507)">Nov 20</text><line x1="495.3636363636364" y1="492" x2="495.3636363636364" y2="497" stroke="black" stroke-width="1" /><text x="522.6363636363636" y="507" font-size="10" text-anchor="end" transform="rotate(-45,522.6363636363636,507)">Nov 21</text><line x1="522.6363636363636" y1="492" x2="522.6363636363636" y2="497" stroke="black" stroke-width="1" /><text x="549.909090909091" y="507" font-size="10" text-anchor="end" transform="rotate(-45,549.909090909091,507)">Nov 22</text><line x1="549.909090909091" y1="492" x2="549.909090909091" y2="497" stroke="black" stroke-width="1" /><text x="577.1818181818182" y="507" font-size="10" text-anchor="end" transform="rotate(-45,577.1818181818182,507)">Nov 25</text><line x1="577.1818181818182" y1="492" x2="577.1818181818182" y2="497" stroke="black" stroke-width="1" /><text x="604.4545454545454" y="507" font-size="10" text-anchor="end" transform="rotate(-45,604.4545454545454,507)">Nov 26</text><line x1="604.4545454545454" y1="492" x2="604.4545454545454" y2="497" stroke="black" stroke-width="1" /><line x1="54" y1="492" x2="59" y2="492" stroke="black" stroke-width="1" /><text x="51" y="495.5" font-size="10" text-anchor="end">0</text><line x1="54" y1="442" x2="59" y2="442" stroke="black" stroke-width="1" /><text x="51" y="445.5" font-size="10" text-anchor="end">20</text><line x1="54" y1="392" x2="59" y2="392" stroke="black" stroke-width="1" /><text x="51" y="395.5" font-size="10" text-anchor="end">40</text><line x1="54" y1="342" x2="59" y2="342" stroke="black" stroke-width="1" /><text x="51" y="345.5" font-size="10" text-anchor="end">60</text><line x1="54" y1="292" x2="59" y2="292" stroke="black" stroke-width="1" /><text x="51" y="295.5" font-size="10" text-anchor="end">80</text><line x1="54" y1="242" x2="59" y2="242" stroke="black" stroke-width="1" /><text x="51" y="245.5" font-size="10" text-anchor="end">100</text><line x1="54" y1="192" x2="59" y2="192" stroke="black" stroke-width="1" /><text x="51" y="195.5" font-size="10" text-anchor="end">120</text><line x1="54" y1="142" x2="59" y2="142" stroke="black" stroke-width="1" /><text x="51" y="145.5" font-size="10" text-anchor="end">140</text><line x1="54" y1="92" x2="59" y2="92" stroke="black" stroke-width="1" /><text x="51" y="95.5" font-size="10" text-anchor="end">160</text><line x1="54" y1="42" x2="59" y2="42" stroke="black" stroke-width="1" /><text x="51" y="45.5" font-size="10" text-anchor="end">180</text><text x="336.5" y="554" font-size="14" text-anchor="middle">Date</text><text x="14" y="280.5" font-size="14" text-anchor="middle" transform="rotate(-90,14,280.5)">Price (USD)</text><text x="336.5" y="21" font-size="16" text-anchor="middle">Daily OHLC — November</text><line x1="86.27272727272728" y1="126.50000000000003" x2="86.27272727272728" y2="137.49999999999997" stroke="rgb(68,170,68)" stroke-width="1.5" /><rect x="76.72727272727273" y="128.74999999999997" width="19.090909090909086" height="7.000000000000028" fill="rgb(68,170,68)" stroke="rgb(68,170,68)" stroke-width="0.5" /><line x1="113.54545454545455" y1="122.49999999999997" x2="113.54545454545455" y2="133.25" stroke="rgb(204,68,68)" stroke-width="1.5" /><rect x="104" y="128.5" width="19.090909090909086" height="3.25" fill="rgb(204,68,68)" stroke="rgb(204,68,68)" stroke-width="0.5" /><line x1="140.8181818181818" y1="129.75" x2="140.8181818181818" y2="136.50000000000003" stroke="#888888" stroke-width="1.5" /><rect x="131.27272727272728" y="131.75" width="19.090909090909086" height="1" fill="#888888" stroke="#888888" stroke-width="0.5" /><line x1="168.0909090909091" y1="120.75" x2="168.0909090909091" y2="134.00000000000003" stroke="rgb(68,170,68)" stroke-width="1.5" /><rect x="158.54545454545456" y="122.24999999999999" width="19.090909090909086" height="10.249999999999986" fill="rgb(68,170,68)" stroke="rgb(68,170,68)" stroke-width="0.5" /><line x1="195.36363636363635" y1="116.50000000000003" x2="195.36363636363635" y2="126.24999999999997" stroke="rgb(68,170,68)" stroke-width="1.5" /><rect x="185.8181818181818" y="117.49999999999997" width="19.090909090909086" height="4.750000000000014" fill="rgb(68,170,68)" stroke="rgb(68,170,68)" stroke-width="0.5" /><line x1="222.63636363636363" y1="114.5" x2="222.63636363636363" y2="125.75" stroke="rgb(204,68,68)" stroke-width="1.5" /><rect x="213.0909090909091" y="117.49999999999997" width="19.090909090909086" height="6.500000000000057" fill="rgb(204,68,68)" stroke="rgb(204,68,68)" stroke-width="0.5" /><line x1="249.9090909090909" y1="121.75000000000001" x2="249.9090909090909" y2="132.49999999999997" stroke="rgb(204,68,68)" stroke-width="1.5" /><rect x="240.36363636363637" y="124.00000000000003" width="19.090909090909086" height="6.749999999999972" fill="rgb(204,68,68)" stroke="rgb(204,68,68)" stroke-width="0.5" /><line x1="277.1818181818182" y1="124.99999999999997" x2="277.1818181818182" y2="134.00000000000003" stroke="rgb(68,170,68)" stroke-width="1.5" /><rect x="267.6363636363636" y="127.24999999999999" width="19.090909090909086" height="3.500000000000014" fill="rgb(68,170,68)" stroke="rgb(68,170,68)" stroke-width="0.5" /><line x1="304.4545454545455" y1="118.74999999999997" x2="304.4545454545455" y2="128.25" stroke="rgb(68,170,68)" stroke-width="1.5" /><rect x="294.90909090909093" y="120.25000000000003" width="19.090909090909086" height="6.999999999999957" fill="rgb(68,170,68)" stroke="rgb(68,170,68)" stroke-width="0.5" /><line x1="331.7272727272727" y1="112" x2="331.7272727272727" y2="121.75000000000001" stroke="rgb(68,170,68)" stroke-width="1.5" /><rect x="322.18181818181813" y="113.25" width="19.090909090909086" height="7.000000000000028" fill="rgb(68,170,68)" stroke="rgb(68,170,68)" stroke-width="0.5" /><line x1="359" y1="104.99999999999997" x2="359" y2="114.74999999999999" stroke="rgb(68,170,68)" stroke-width="1.5" /><rect x="349.45454545454544" y="107.49999999999997" width="19.090909090909086" height="5.750000000000028" fill="rgb(68,170,68)" stroke="rgb(68,170,68)" stroke-width="0.5" /><line x1="386.27272727272725" y1="106.50000000000003" x2="386.27272727272725" y2="116.24999999999997" stroke="rgb(204,68,68)" stroke-width="1.5" /><rect x="376.7272727272727" y="107.49999999999997" width="19.090909090909086" height="8.000000000000043" fill="rgb(204,68,68)" stroke="rgb(204,68,68)" stroke-width="0.5" /><line x1="413.54545454545456" y1="111.75000000000001" x2="413.54545454545456" y2="119.99999999999997" stroke="rgb(68,170,68)" stroke-width="1.5" /><rect x="404" y="114.00000000000003" width="19.090909090909086" height="1.4999999999999858" fill="rgb(68,170,68)" stroke="rgb(68,170,68)" stroke-width="0.5" /><line x1="440.8181818181818" y1="108.49999999999999" x2="440.8181818181818" y2="114.99999999999997" stroke="rgb(68,170,68)" stroke-width="1.5" /><rect x="431.27272727272725" y="108.49999999999999" width="19.090909090909086" height="5.500000000000043" fill="rgb(68,170,68)" stroke="rgb(68,170,68)" stroke-width="0.5" /><line x1="468.09090909090907" y1="99.00000000000003" x2="468.09090909090907" y2="109.99999999999997" stroke="rgb(68,170,68)" stroke-width="1.5" /><rect x="458.5454545454545" y="100.75" width="19.090909090909086" height="7.749999999999986" fill="rgb(68,170,68)" stroke="rgb(68,170,68)" stroke-width="0.5" /><line x1="495.3636363636364" y1="96.75000000000001" x2="495.3636363636364" y2="106.50000000000003" stroke="rgb(204,68,68)" stroke-width="1.5" /><rect x="485.8181818181818" y="100.75" width="19.090909090909086" height="4.249999999999972" fill="rgb(204,68,68)" stroke="rgb(204,68,68)" stroke-width="0.5" /><line x1="522.6363636363636" y1="104.00000000000003" x2="522.6363636363636" y2="111.75000000000001" stroke="#888888" stroke-width="1.5" /><rect x="513.0909090909091" y="104.99999999999997" width="19.090909090909086" height="1" fill="#888888" stroke="#888888" stroke-width="0.5" /><line x1="549.909090909091" y1="95.75" x2="549.909090909091" y2="106.24999999999997" stroke="rgb(68,170,68)" stroke-width="1.5" /><rect x="540.3636363636365" y="97.24999999999999" width="19.090909090909086" height="7.749999999999986" fill="rgb(68,170,68)" stroke="rgb(68,170,68)" stroke-width="0.5" /><line x1="577.1818181818182" y1="91.75000000000001" x2="577.1818181818182" y2="99.99999999999997" stroke="rgb(68,170,68)" stroke-width="1.5" /><rect x="567.6363636363637" y="93.25" width="19.090909090909086" height="3.999999999999986" fill="rgb(68,170,68)" stroke="rgb(68,170,68)" stroke-width="0.5" /><line x1="604.4545454545454" y1="89.00000000000003" x2="604.4545454545454" y2="98.74999999999997" stroke="rgb(204,68,68)" stroke-width="1.5" /><rect x="594.9090909090909" y="93.25" width="19.090909090909086" height="2.749999999999986" fill="rgb(204,68,68)" stroke="rgb(204,68,68)" stroke-width="0.5" /></svg>