<svg xmlns="http://www.w3.org/2000/svg" width="673" height="541" fill="black"><rect width="100%" height="100%" fill="white" /><line x1="59" y1="492" x2="659" y2="492" stroke="black" stroke-width="1" /><line x1="59" y1="42" x2="59" y2="492" stroke="black" stroke-width="1" /><line x1="105.15384615384616" y1="42" x2="105.15384615384616" y2="492" stroke="#ccc" stroke-width="1" /><line x1="151.30769230769232" y1="42" x2="151.30769230769232" y2="492" stroke="#ccc" stroke-width="1" /><line x1="197.46153846153848" y1="42" x2="197.46153846153848" y2="492" stroke="#ccc" stroke-width="1" /><line x1="243.6153846153846" y1="42" x2="243.6153846153846" y2="492" stroke="#ccc" stroke-width="1" /><line x1="289.7692307692308" y1="42" x2="289.7692307692308" y2="492" stroke="#ccc" stroke-width="1" /><line x1="335.92307692307696" y1="42" x2="335.92307692307696" y2="492" stroke="#ccc" stroke-width="1" /><line x1="382.07692307692304" y1="42" x2="382.07692307692304" y2="492" stroke="#ccc" stroke-width="1" /><line x1="428.2307692307692" y1="42" x2="428.2307692307692" y2="492" stroke="#ccc" stroke-width="1" /><line x1="474.38461538461536" y1="42" x2="474.38461538461536" y2="492" stroke="#ccc" stroke-width="1" /><line x1="520.5384615384615" y1="42" x2="520.5384615384615" y2="492" stroke="#ccc" stroke-width="1" /><line x1="566.6923076923076" y1="42" x2="566.6923076923076" y2="492" stroke="#ccc" stroke-width="1" /><line x1="612.8461538461539" y1="42" x2="612.8461538461539" y2="492" stroke="#ccc" stroke-width="1" /><line x1="659" y1="42" x2="659" y2="492" stroke="#ccc" stroke-width="1" /><line x1="59" y1="432" x2="659" y2="432" stroke="#ccc" stroke-width="1" /><line x1="59" y1="372" x2="659" y2="372" stroke="#ccc" stroke-width="1" /><line x1="59" y1="312" x2="659" y2="312" stroke="#ccc" stroke-width="1" /><line x1="59" y1="252" x2="659" y2="252" stroke="#ccc" stroke-width="1" /><line x1="59" y1="192" x2="659" y2="192" stroke="#ccc" stroke-width="1" /><line x1="59" y1="132" x2="659" y2="132" stroke="#ccc" stroke-width="1" /><line x1="59" y1="72" x2="659" y2="72" stroke="#ccc" stroke-width="1" /><line x1="59" y1="492" x2="59" y2="497" stroke="black" stroke-width="1" /><text x="59" y="507" font-size="10" text-anchor="middle">2021.75</text><line x1="105.15384615384616" y1="492" x2="105.15384615384616" y2="497" stroke="black" stroke-width="1" /><text x="105.15384615384616" y="507" font-size="10" text-anchor="middle">2022</text><line x1="151.30769230769232" y1="492" x2="151.30769230769232" y2="497" stroke="black" stroke-width="1" /><text x="151.30769230769232" y="507" font-size="10" text-anchor="middle">2022.25</text><line x1="197.46153846153848" y1="492" x2="197.46153846153848" y2="497" stroke="black" stroke-width="1" /><text x="197.46153846153848" y="507" font-size="10" text-anchor="middle">2022.5</text><line x1="243.6153846153846" y1="492" x2="243.6153846153846" y2="497" stroke="black" stroke-width="1" /><text x="243.6153846153846" y="507" font-size="10" text-anchor="middle">2022.75</text><line x1="289.7692307692308" y1="492" x2="289.7692307692308" y2="497" stroke="black" stroke-width="1" /><text x="289.7692307692308" y="507" font-size="10" text-anchor="middle">2023</text><line x1="335.92307692307696" y1="492" x2="335.92307692307696" y2="497" stroke="black" stroke-width="1" /><text x="335.92307692307696" y="507" font-size="10" text-anchor="middle">2023.25</text><line x1="382.07692307692304" y1="492" x2="382.07692307692304" y2="497" stroke="black" stroke-width="1" /><text x="382.07692307692304" y="507" font-size="10" text-anchor="middle">2023.5</text><line x1="428.2307692307692" y1="492" x2="428.2307692307692" y2="497" stroke="black" stroke-width="1" /><text x="428.2307692307692" y="507" font-size="10" text-anchor="middle">2023.75</text><line x1="474.38461538461536" y1="492" x2="474.38461538461536" y2="497" stroke="black" stroke-width="1" /><text x="474.38461538461536" y="507" font-size="10" text-anchor="middle">2024</text><line x1="520.5384615384615" y1="492" x2="520.5384615384615" y2="497" stroke="black" stroke-width="1" /><text x="520.5384615384615" y="507" font-size="10" text-anchor="middle">2024.25</text><line x1="566.6923076923076" y1="492" x2="566.6923076923076" y2="497" stroke="black" stroke-width="1" /><text x="566.6923076923076" y="507" font-size="10" text-anchor="middle">2024.5</text><line x1="612.8461538461539" y1="492" x2="612.8461538461539" y2="497" stroke="black" stroke-width="1" /><text x="612.8461538461539" y="507" font-size="10" text-anchor="middle">2024.75</text><line x1="659" y1="492" x2="659" y2="497" stroke="black" stroke-width="1" /><text x="659" y="507" font-size="10" text-anchor="middle">2025</text><line x1="54" y1="492" x2="59" y2="492" stroke="black" stroke-width="1" /><text x="51" y="495.5" font-size="10" text-anchor="end">0</text><line x1="54" y1="432" x2="59" y2="432" stroke="black" stroke-width="1" /><text x="51" y="435.5" font-size="10" text-anchor="end">20</text><line x1="54" y1="372" x2="59" y2="372" stroke="black" stroke-width="1" /><text x="51" y="375.5" font-size="10" text-anchor="end">40</text><line x1="54" y1="312" x2="59" y2="312" stroke="black" stroke-width="1" /><text x="51" y="315.5" font-size="10" text-anchor="end">60</text><line x1="54" y1="252" x2="59" y2="252" stroke="black" stroke-width="1" /><text x="51" y="255.5" font-size="10" text-anchor="end">80</text><line x1="54" y1="192" x2="59" y2="192" stroke="black" stroke-width="1" /><text x="51" y="195.5" font-size="10" text-anchor="end">100</text><line x1="54" y1="132" x2="59" y2="132" stroke="black" stroke-width="1" /><text x="51" y="135.5" font-size="10" text-anchor="end">120</text><line x1="54" y1="72" x2="59" y2="72" stroke="black" stroke-width="1" /><text x="51" y="75.5" font-size="10" text-anchor="end">140</text><text x="336.5" y="534" font-size="14" text-anchor="middle">Quarter</text><text x="14" y="270.5" font-size="14" text-anchor="middle" transform="rotate(-90,14,270.5)">Price</text><text x="336.5" y="21" font-size="16" text-anchor="middle">Quarterly OHLC — Numeric x-axis</text><line x1="105.15384615384616" y1="168" x2="105.15384615384616" y2="207" stroke="rgb(68,170,68)" stroke-width="1.5" /><rect x="101.6923076923077" y="177" width="6.923076923076924" height="21" fill="rgb(68,170,68)" stroke="rgb(68,170,68)" stroke-width="0.5" /><line x1="151.30769230769232" y1="156" x2="151.30769230769232" y2="189" stroke="rgb(68,170,68)" stroke-width="1.5" /><rect x="147.84615384615387" y="166.5" width="6.923076923076924" height="10.5" fill="rgb(68,170,68)" stroke="rgb(68,170,68)" stroke-width="0.5" /><line x1="197.46153846153848" y1="147" x2="197.46153846153848" y2="171" stroke="rgb(68,170,68)" stroke-width="1.5" /><rect x="194.00000000000003" y="153" width="6.923076923076924" height="13.5" fill="rgb(68,170,68)" stroke="rgb(68,170,68)" stroke-width="0.5" /><line x1="243.6153846153846" y1="144" x2="243.6153846153846" y2="165" stroke="rgb(204,68,68)" stroke-width="1.5" /><rect x="240.15384615384616" y="153" width="6.923076923076924" height="7.5" fill="rgb(204,68,68)" stroke="rgb(204,68,68)" stroke-width="0.5" /><line x1="289.7692307692308" y1="138" x2="289.7692307692308" y2="162" stroke="rgb(68,170,68)" stroke-width="1.5" /><rect x="286.3076923076923" y="141.60000000000002" width="6.923076923076924" height="18.899999999999977" fill="rgb(68,170,68)" stroke="rgb(68,170,68)" stroke-width="0.5" /><line x1="335.92307692307696" y1="126" x2="335.92307692307696" y2="145.5" stroke="rgb(68,170,68)" stroke-width="1.5" /><rect x="332.4615384615385" y="129" width="6.923076923076924" height="12.600000000000023" fill="rgb(68,170,68)" stroke="rgb(68,170,68)" stroke-width="0.5" /><line x1="382.07692307692304" y1="115.5" x2="382.07692307692304" y2="135" stroke="rgb(204,68,68)" stroke-width="1.5" /><rect x="378.6153846153846" y="129" width="6.923076923076924" height="2.3999999999999773" fill="rgb(204,68,68)" stroke="rgb(204,68,68)" stroke-width="0.5" /><line x1="428.2307692307692" y1="108" x2="428.2307692307692" y2="132.60000000000002" stroke="rgb(68,170,68)" stroke-width="1.5" /><rect x="424.7692307692308" y="111" width="6.923076923076924" height="20.399999999999977" fill="rgb(68,170,68)" stroke="rgb(68,170,68)" stroke-width="0.5" /><line x1="474.38461538461536" y1="87" x2="474.38461538461536" y2="114" stroke="rgb(68,170,68)" stroke-width="1.5" /><rect x="470.9230769230769" y="91.5" width="6.923076923076924" height="19.5" fill="rgb(68,170,68)" stroke="rgb(68,170,68)" stroke-width="0.5" /><line x1="520.5384615384615" y1="78" x2="520.5384615384615" y2="99" stroke="rgb(68,170,68)" stroke-width="1.5" /><rect x="517.0769230769231" y="90" width="6.923076923076924" height="1.5" fill="rgb(68,170,68)" stroke="rgb(68,170,68)" stroke-width="0.5" /><line x1="566.6923076923076" y1="69" x2="566.6923076923076" y2="91.5" stroke="rgb(68,170,68)" stroke-width="1.5" /><rect x="563.2307692307692" y="72" width="6.923076923076924" height="18" fill="rgb(68,170,68)" stroke="rgb(68,170,68)" stroke-width="0.5" /><line x1="612.8461538461539" y1="58.5" x2="612.8461538461539" y2="81" stroke="rgb(68,170,68)" stroke-width="1.5" /><rect x="609.3846153846155" y="63.599999999999966" width="6.923076923076924" height="8.400000000000034" fill="rgb(68,170,68)" stroke="rgb(68,170,68)" stroke-width="0.5" /></svg>