<svg xmlns="http://www.w3.org/2000/svg" width="673" height="541" fill="black"><rect width="100%" height="100%" fill="white" /><line x1="59" y1="492" x2="659" y2="492" stroke="black" stroke-width="1" /><line x1="59" y1="42" x2="59" y2="492" stroke="black" stroke-width="1" /><line x1="105.15384615384616" y1="42" x2="105.15384615384616" y2="492" stroke="#ccc" stroke-width="1" /><line x1="151.30769230769232" y1="42" x2="151.30769230769232" y2="492" stroke="#ccc" stroke-width="1" /><line x1="197.46153846153848" y1="42" x2="197.46153846153848" y2="492" stroke="#ccc" stroke-width="1" /><line x1="243.6153846153846" y1="42" x2="243.6153846153846" y2="492" stroke="#ccc" stroke-width="1" /><line x1="289.7692307692308" y1="42" x2="289.7692307692308" y2="492" stroke="#ccc" stroke-width="1" /><line x1="335.92307692307696" y1="42" x2="335.92307692307696" y2="492" stroke="#ccc" stroke-width="1" /><line x1="382.07692307692304" y1="42" x2="382.07692307692304" y2="492" stroke="#ccc" stroke-width="1" /><line x1="428.2307692307692" y1="42" x2="428.2307692307692" y2="492" stroke="#ccc" stroke-width="1" /><line x1="474.38461538461536" y1="42" x2="474.38461538461536" y2="492" stroke="#ccc" stroke-width="1" /><line x1="520.5384615384615" y1="42" x2="520.5384615384615" y2="492" stroke="#ccc" stroke-width="1" /><line x1="566.6923076923076" y1="42" x2="566.6923076923076" y2="492" stroke="#ccc" stroke-width="1" /><line x1="612.8461538461539" y1="42" x2="612.8461538461539" y2="492" stroke="#ccc" stroke-width="1" /><line x1="659" y1="42" x2="659" y2="492" stroke="#ccc" stroke-width="1" /><line x1="59" y1="435.75" x2="659" y2="435.75" stroke="#ccc" stroke-width="1" /><line x1="59" y1="379.5" x2="659" y2="379.5" stroke="#ccc" stroke-width="1" /><line x1="59" y1="323.25" x2="659" y2="323.25" stroke="#ccc" stroke-width="1" /><line x1="59" y1="267" x2="659" y2="267" stroke="#ccc" stroke-width="1" /><line x1="59" y1="210.75" x2="659" y2="210.75" stroke="#ccc" stroke-width="1" /><line x1="59" y1="154.5" x2="659" y2="154.5" stroke="#ccc" stroke-width="1" /><line x1="59" y1="98.25" x2="659" y2="98.25" stroke="#ccc" stroke-width="1" /><line x1="59" y1="42" x2="659" y2="42" stroke="#ccc" stroke-width="1" /><line x1="59" y1="492" x2="59" y2="497" stroke="black" stroke-width="1" /><text x="59" y="507" font-size="10" text-anchor="middle">2021.75</text><line x1="105.15384615384616" y1="492" x2="105.15384615384616" y2="497" stroke="black" stroke-width="1" /><text x="105.15384615384616" y="507" font-size="10" text-anchor="middle">2022</text><line x1="151.30769230769232" y1="492" x2="151.30769230769232" y2="497" stroke="black" stroke-width="1" /><text x="151.30769230769232" y="507" font-size="10" text-anchor="middle">2022.25</text><line x1="197.46153846153848" y1="492" x2="197.46153846153848" y2="497" stroke="black" stroke-width="1" /><text x="197.46153846153848" y="507" font-size="10" text-anchor="middle">2022.5</text><line x1="243.6153846153846" y1="492" x2="243.6153846153846" y2="497" stroke="black" stroke-width="1" /><text x="243.6153846153846" y="507" font-size="10" text-anchor="middle">2022.75</text><line x1="289.7692307692308" y1="492" x2="289.7692307692308" y2="497" stroke="black" stroke-width="1" /><text x="289.7692307692308" y="507" font-size="10" text-anchor="middle">2023</text><line x1="335.92307692307696" y1="492" x2="335.92307692307696" y2="497" stroke="black" stroke-width="1" /><text x="335.92307692307696" y="507" font-size="10" text-anchor="middle">2023.25</text><line x1="382.07692307692304" y1="492" x2="382.07692307692304" y2="497" stroke="black" stroke-width="1" /><text x="382.07692307692304" y="507" font-size="10" text-anchor="middle">2023.5</text><line x1="428.2307692307692" y1="492" x2="428.2307692307692" y2="497" stroke="black" stroke-width="1" /><text x="428.2307692307692" y="507" font-size="10" text-anchor="middle">2023.75</text><line x1="474.38461538461536" y1="492" x2="474.38461538461536" y2="497" stroke="black" stroke-width="1" /><text x="474.38461538461536" y="507" font-size="10" text-anchor="middle">2024</text><line x1="520.5384615384615" y1="492" x2="520.5384615384615" y2="497" stroke="black" stroke-width="1" /><text x="520.5384615384615" y="507" font-size="10" text-anchor="middle">2024.25</text><line x1="566.6923076923076" y1="492" x2="566.6923076923076" y2="497" stroke="black" stroke-width="1" /><text x="566.6923076923076" y="507" font-size="10" text-anchor="middle">2024.5</text><line x1="612.8461538461539" y1="492" x2="612.8461538461539" y2="497" stroke="black" stroke-width="1" /><text x="612.8461538461539" y="507" font-size="10" text-anchor="middle">2024.75</text><line x1="659" y1="492" x2="659" y2="497" stroke="black" stroke-width="1" /><text x="659" y="507" font-size="10" text-anchor="middle">2025</text><line x1="54" y1="492" x2="59" y2="492" stroke="black" stroke-width="1" /><text x="51" y="495.5" font-size="10" text-anchor="end">0</text><line x1="54" y1="435.75" x2="59" y2="435.75" stroke="black" stroke-width="1" /><text x="51" y="439.25" font-size="10" text-anchor="end">20</text><line x1="54" y1="379.5" x2="59" y2="379.5" stroke="black" stroke-width="1" /><text x="51" y="383" font-size="10" text-anchor="end">40</text><line x1="54" y1="323.25" x2="59" y2="323.25" stroke="black" stroke-width="1" /><text x="51" y="326.75" font-size="10" text-anchor="end">60</text><line x1="54" y1="267" x2="59" y2="267" stroke="black" stroke-width="1" /><text x="51" y="270.5" font-size="10" text-anchor="end">80</text><line x1="54" y1="210.75" x2="59" y2="210.75" stroke="black" stroke-width="1" /><text x="51" y="214.25" font-size="10" text-anchor="end">100</text><line x1="54" y1="154.5" x2="59" y2="154.5" stroke="black" stroke-width="1" /><text x="51" y="158" font-size="10" text-anchor="end">120</text><line x1="54" y1="98.25" x2="59" y2="98.25" stroke="black" stroke-width="1" /><text x="51" y="101.75" font-size="10" text-anchor="end">140</text><line x1="54" y1="42" x2="59" y2="42" stroke="black" stroke-width="1" /><text x="51" y="45.5" font-size="10" text-anchor="end">160</text><text x="336.5" y="534" font-size="14" text-anchor="middle">Quarter</text><text x="14" y="270.5" font-size="14" text-anchor="middle" transform="rotate(-90,14,270.5)">Price</text><text x="336.5" y="21" font-size="16" text-anchor="middle">Quarterly OHLC — Numeric x-axis</text><line x1="105.15384615384616" y1="188.25" x2="105.15384615384616" y2="224.8125" stroke="rgb(68,170,68)" stroke-width="1.5" /><rect x="101.6923076923077" y="196.6875" width="6.923076923076924" height="19.6875" fill="rgb(68,170,68)" stroke="rgb(68,170,68)" stroke-width="0.5" /><line x1="151.30769230769232" y1="177" x2="151.30769230769232" y2="207.9375" stroke="rgb(68,170,68)" stroke-width="1.5" /><rect x="147.84615384615387" y="186.84375" width="6.923076923076924" height="9.84375" fill="rgb(68,170,68)" stroke="rgb(68,170,68)" stroke-width="0.5" /><line x1="197.46153846153848" y1="168.5625" x2="197.46153846153848" y2="191.0625" stroke="rgb(68,170,68)" stroke-width="1.5" /><rect x="194.00000000000003" y="174.1875" width="6.923076923076924" height="12.65625" fill="rgb(68,170,68)" stroke="rgb(68,170,68)" stroke-width="0.5" /><line x1="243.6153846153846" y1="165.75" x2="243.6153846153846" y2="185.4375" stroke="rgb(204,68,68)" stroke-width="1.5" /><rect x="240.15384615384616" y="174.1875" width="6.923076923076924" height="7.03125" fill="rgb(204,68,68)" stroke="rgb(204,68,68)" stroke-width="0.5" /><line x1="289.7692307692308" y1="160.125" x2="289.7692307692308" y2="182.625" stroke="rgb(68,170,68)" stroke-width="1.5" /><rect x="286.3076923076923" y="163.5" width="6.923076923076924" height="17.71875" fill="rgb(68,170,68)" stroke="rgb(68,170,68)" stroke-width="0.5" /><line x1="335.92307692307696" y1="148.875" x2="335.92307692307696" y2="167.15625" stroke="rgb(68,170,68)" stroke-width="1.5" /><rect x="332.4615384615385" y="151.6875" width="6.923076923076924" height="11.8125" fill="rgb(68,170,68)" stroke="rgb(68,170,68)" stroke-width="0.5" /><line x1="382.07692307692304" y1="139.03125" x2="382.07692307692304" y2="157.3125" stroke="rgb(204,68,68)" stroke-width="1.5" /><rect x="378.6153846153846" y="151.6875" width="6.923076923076924" height="2.25" fill="rgb(204,68,68)" stroke="rgb(204,68,68)" stroke-width="0.5" /><line x1="428.2307692307692" y1="132" x2="428.2307692307692" y2="155.0625" stroke="rgb(68,170,68)" stroke-width="1.5" /><rect x="424.7692307692308" y="134.8125" width="6.923076923076924" height="19.125" fill="rgb(68,170,68)" stroke="rgb(68,170,68)" stroke-width="0.5" /><line x1="474.38461538461536" y1="112.3125" x2="474.38461538461536" y2="137.625" stroke="rgb(68,170,68)" stroke-width="1.5" /><rect x="470.9230769230769" y="116.53125" width="6.923076923076924" height="18.28125" fill="rgb(68,170,68)" stroke="rgb(68,170,68)" stroke-width="0.5" /><line x1="520.5384615384615" y1="103.875" x2="520.5384615384615" y2="123.5625" stroke="rgb(68,170,68)" stroke-width="1.5" /><rect x="517.0769230769231" y="115.125" width="6.923076923076924" height="1.40625" fill="rgb(68,170,68)" stroke="rgb(68,170,68)" stroke-width="0.5" /><line x1="566.6923076923076" y1="95.4375" x2="566.6923076923076" y2="116.53125" stroke="rgb(68,170,68)" stroke-width="1.5" /><rect x="563.2307692307692" y="98.25" width="6.923076923076924" height="16.875" fill="rgb(68,170,68)" stroke="rgb(68,170,68)" stroke-width="0.5" /><line x1="612.8461538461539" y1="85.59375" x2="612.8461538461539" y2="106.6875" stroke="rgb(68,170,68)" stroke-width="1.5" /><rect x="609.3846153846155" y="90.37499999999997" width="6.923076923076924" height="7.875000000000028" fill="rgb(68,170,68)" stroke="rgb(68,170,68)" stroke-width="0.5" /></svg>