<svg xmlns="http://www.w3.org/2000/svg" width="673" height="541" fill="black"><rect width="100%" height="100%" fill="white" /><line x1="59" y1="492" x2="659" y2="492" stroke="black" stroke-width="1" /><line x1="59" y1="42" x2="59" y2="492" stroke="black" stroke-width="1" /><line x1="59" y1="457.38461538461536" x2="659" y2="457.38461538461536" stroke="#ccc" stroke-width="1" /><line x1="59" y1="422.7692307692308" x2="659" y2="422.7692307692308" stroke="#ccc" stroke-width="1" /><line x1="59" y1="388.15384615384613" x2="659" y2="388.15384615384613" stroke="#ccc" stroke-width="1" /><line x1="59" y1="353.53846153846155" x2="659" y2="353.53846153846155" stroke="#ccc" stroke-width="1" /><line x1="59" y1="318.9230769230769" x2="659" y2="318.9230769230769" stroke="#ccc" stroke-width="1" /><line x1="59" y1="284.30769230769226" x2="659" y2="284.30769230769226" stroke="#ccc" stroke-width="1" /><line x1="59" y1="249.6923076923077" x2="659" y2="249.6923076923077" stroke="#ccc" stroke-width="1" /><line x1="59" y1="215.07692307692304" x2="659" y2="215.07692307692304" stroke="#ccc" stroke-width="1" /><line x1="59" y1="180.46153846153845" x2="659" y2="180.46153846153845" stroke="#ccc" stroke-width="1" /><line x1="59" y1="145.8461538461538" x2="659" y2="145.8461538461538" stroke="#ccc" stroke-width="1" /><line x1="59" y1="111.23076923076923" x2="659" y2="111.23076923076923" stroke="#ccc" stroke-width="1" /><line x1="59" y1="76.61538461538458" x2="659" y2="76.61538461538458" stroke="#ccc" stroke-width="1" /><line x1="59" y1="42" x2="659" y2="42" stroke="#ccc" stroke-width="1" /><text x="113.54545454545455" y="507" font-size="10" text-anchor="middle">Mon</text><line x1="113.54545454545455" y1="492" x2="113.54545454545455" y2="497" stroke="black" stroke-width="1" /><text x="168.0909090909091" y="507" font-size="10" text-anchor="middle">Tue</text><line x1="168.0909090909091" y1="492" x2="168.0909090909091" y2="497" stroke="black" stroke-width="1" /><text x="222.63636363636363" y="507" font-size="10" text-anchor="middle">Wed</text><line x1="222.63636363636363" y1="492" x2="222.63636363636363" y2="497" stroke="black" stroke-width="1" /><text x="277.1818181818182" y="507" font-size="10" text-anchor="middle">Thu</text><line x1="277.1818181818182" y1="492" x2="277.1818181818182" y2="497" stroke="black" stroke-width="1" /><text x="331.7272727272727" y="507" font-size="10" text-anchor="middle">Fri</text><line x1="331.7272727272727" y1="492" x2="331.7272727272727" y2="497" stroke="black" stroke-width="1" /><text x="386.27272727272725" y="507" font-size="10" text-anchor="middle">Mon</text><line x1="386.27272727272725" y1="492" x2="386.27272727272725" y2="497" stroke="black" stroke-width="1" /><text x="440.8181818181818" y="507" font-size="10" text-anchor="middle">Tue</text><line x1="440.8181818181818" y1="492" x2="440.8181818181818" y2="497" stroke="black" stroke-width="1" /><text x="495.3636363636364" y="507" font-size="10" text-anchor="middle">Wed</text><line x1="495.3636363636364" y1="492" x2="495.3636363636364" y2="497" stroke="black" stroke-width="1" /><text x="549.909090909091" y="507" font-size="10" text-anchor="middle">Thu</text><line x1="549.909090909091" y1="492" x2="549.909090909091" y2="497" stroke="black" stroke-width="1" /><text x="604.4545454545454" y="507" font-size="10" text-anchor="middle">Fri</text><line x1="604.4545454545454" y1="492" x2="604.4545454545454" y2="497" stroke="black" stroke-width="1" /><line x1="54" y1="492" x2="59" y2="492" stroke="black" stroke-width="1" /><text x="51" y="495.5" font-size="10" text-anchor="end">0</text><line x1="54" y1="457.38461538461536" x2="59" y2="457.38461538461536" stroke="black" stroke-width="1" /><text x="51" y="460.88461538461536" font-size="10" text-anchor="end">10</text><line x1="54" y1="422.7692307692308" x2="59" y2="422.7692307692308" stroke="black" stroke-width="1" /><text x="51" y="426.2692307692308" font-size="10" text-anchor="end">20</text><line x1="54" y1="388.15384615384613" x2="59" y2="388.15384615384613" stroke="black" stroke-width="1" /><text x="51" y="391.65384615384613" font-size="10" text-anchor="end">30</text><line x1="54" y1="353.53846153846155" x2="59" y2="353.53846153846155" stroke="black" stroke-width="1" /><text x="51" y="357.03846153846155" font-size="10" text-anchor="end">40</text><line x1="54" y1="318.9230769230769" x2="59" y2="318.9230769230769" stroke="black" stroke-width="1" /><text x="51" y="322.4230769230769" font-size="10" text-anchor="end">50</text><line x1="54" y1="284.30769230769226" x2="59" y2="284.30769230769226" stroke="black" stroke-width="1" /><text x="51" y="287.80769230769226" font-size="10" text-anchor="end">60</text><line x1="54" y1="249.6923076923077" x2="59" y2="249.6923076923077" stroke="black" stroke-width="1" /><text x="51" y="253.1923076923077" font-size="10" text-anchor="end">70</text><line x1="54" y1="215.07692307692304" x2="59" y2="215.07692307692304" stroke="black" stroke-width="1" /><text x="51" y="218.57692307692304" font-size="10" text-anchor="end">80</text><line x1="54" y1="180.46153846153845" x2="59" y2="180.46153846153845" stroke="black" stroke-width="1" /><text x="51" y="183.96153846153845" font-size="10" text-anchor="end">90</text><line x1="54" y1="145.8461538461538" x2="59" y2="145.8461538461538" stroke="black" stroke-width="1" /><text x="51" y="149.3461538461538" font-size="10" text-anchor="end">100</text><line x1="54" y1="111.23076923076923" x2="59" y2="111.23076923076923" stroke="black" stroke-width="1" /><text x="51" y="114.73076923076923" font-size="10" text-anchor="end">110</text><line x1="54" y1="76.61538461538458" x2="59" y2="76.61538461538458" stroke="black" stroke-width="1" /><text x="51" y="80.11538461538458" font-size="10" text-anchor="end">120</text><line x1="54" y1="42" x2="59" y2="42" stroke="black" stroke-width="1" /><text x="51" y="45.5" font-size="10" text-anchor="end">130</text><text x="336.5" y="534" font-size="14" text-anchor="middle">Day</text><text x="14" y="270.5" font-size="14" text-anchor="middle" transform="rotate(-90,14,270.5)">Price</text><text x="336.5" y="21" font-size="16" text-anchor="middle">Custom Colors</text><line x1="113.54545454545455" y1="125.76923076923077" x2="113.54545454545455" y2="148.6153846153846" stroke="#00c896" stroke-width="1.5" /><rect x="94.45454545454547" y="130.26923076923077" width="38.18181818181817" height="15.576923076923094" fill="#00c896" stroke="#00c896" stroke-width="0.5" /><line x1="168.0909090909091" y1="124.38461538461537" x2="168.0909090909091" y2="135.11538461538464" stroke="#ff4560" stroke-width="1.5" /><rect x="149" y="130.26923076923077" width="38.18181818181817" height="3.807692307692264" fill="#ff4560" stroke="#ff4560" stroke-width="0.5" /><line x1="222.63636363636363" y1="119.88461538461539" x2="222.63636363636363" y2="136.15384615384616" stroke="#00c896" stroke-width="1.5" /><rect x="203.54545454545453" y="121.96153846153844" width="38.18181818181817" height="12.115384615384599" fill="#00c896" stroke="#00c896" stroke-width="0.5" /><line x1="277.1818181818182" y1="114.34615384615387" x2="277.1818181818182" y2="124.03846153846155" stroke="#00c896" stroke-width="1.5" /><rect x="258.0909090909091" y="116.0769230769231" width="38.18181818181817" height="5.884615384615344" fill="#00c896" stroke="#00c896" stroke-width="0.5" /><line x1="331.7272727272727" y1="114.6923076923077" x2="331.7272727272727" y2="126.11538461538461" stroke="#aaaaaa" stroke-width="1.5" /><rect x="312.6363636363636" y="116.0769230769231" width="38.18181818181817" height="1" fill="#aaaaaa" stroke="#aaaaaa" stroke-width="0.5" /><line x1="386.27272727272725" y1="103.26923076923077" x2="386.27272727272725" y2="117.80769230769232" stroke="#00c896" stroke-width="1.5" /><rect x="367.1818181818182" y="106.03846153846153" width="38.18181818181817" height="10.038461538461561" fill="#00c896" stroke="#00c896" stroke-width="0.5" /><line x1="440.8181818181818" y1="98.0769230769231" x2="440.8181818181818" y2="111.57692307692305" stroke="#ff4560" stroke-width="1.5" /><rect x="421.72727272727275" y="106.03846153846153" width="38.18181818181817" height="4.5" fill="#ff4560" stroke="#ff4560" stroke-width="0.5" /><line x1="495.3636363636364" y1="107.76923076923077" x2="495.3636363636364" y2="120.23076923076921" stroke="#ff4560" stroke-width="1.5" /><rect x="476.2727272727273" y="110.53846153846153" width="38.18181818181817" height="4.846153846153854" fill="#ff4560" stroke="#ff4560" stroke-width="0.5" /><line x1="549.909090909091" y1="99.11538461538461" x2="549.909090909091" y2="116.42307692307692" stroke="#00c896" stroke-width="1.5" /><rect x="530.8181818181819" y="101.88461538461539" width="38.18181818181817" height="13.5" fill="#00c896" stroke="#00c896" stroke-width="0.5" /><line x1="604.4545454545454" y1="93.23076923076923" x2="604.4545454545454" y2="105" stroke="#00c896" stroke-width="1.5" /><rect x="585.3636363636363" y="94.26923076923075" width="38.18181818181817" height="7.615384615384642" fill="#00c896" stroke="#00c896" stroke-width="0.5" /></svg>