<svg xmlns="http://www.w3.org/2000/svg" width="673" height="541" fill="black"><rect width="100%" height="100%" fill="white" /><line x1="59" y1="492" x2="659" y2="492" stroke="black" stroke-width="1" /><line x1="59" y1="42" x2="59" y2="492" stroke="black" stroke-width="1" /><line x1="59" y1="454.5" x2="659" y2="454.5" stroke="#ccc" stroke-width="1" /><line x1="59" y1="417" x2="659" y2="417" stroke="#ccc" stroke-width="1" /><line x1="59" y1="379.5" x2="659" y2="379.5" stroke="#ccc" stroke-width="1" /><line x1="59" y1="342" x2="659" y2="342" stroke="#ccc" stroke-width="1" /><line x1="59" y1="304.5" x2="659" y2="304.5" stroke="#ccc" stroke-width="1" /><line x1="59" y1="267" x2="659" y2="267" stroke="#ccc" stroke-width="1" /><line x1="59" y1="229.5" x2="659" y2="229.5" stroke="#ccc" stroke-width="1" /><line x1="59" y1="192" x2="659" y2="192" stroke="#ccc" stroke-width="1" /><line x1="59" y1="154.5" x2="659" y2="154.5" stroke="#ccc" stroke-width="1" /><line x1="59" y1="117" x2="659" y2="117" stroke="#ccc" stroke-width="1" /><line x1="59" y1="79.5" x2="659" y2="79.5" stroke="#ccc" stroke-width="1" /><line x1="59" y1="42" x2="659" y2="42" stroke="#ccc" stroke-width="1" /><text x="113.54545454545455" y="507" font-size="10" text-anchor="middle">Mon</text><line x1="113.54545454545455" y1="492" x2="113.54545454545455" y2="497" stroke="black" stroke-width="1" /><text x="168.0909090909091" y="507" font-size="10" text-anchor="middle">Tue</text><line x1="168.0909090909091" y1="492" x2="168.0909090909091" y2="497" stroke="black" stroke-width="1" /><text x="222.63636363636363" y="507" font-size="10" text-anchor="middle">Wed</text><line x1="222.63636363636363" y1="492" x2="222.63636363636363" y2="497" stroke="black" stroke-width="1" /><text x="277.1818181818182" y="507" font-size="10" text-anchor="middle">Thu</text><line x1="277.1818181818182" y1="492" x2="277.1818181818182" y2="497" stroke="black" stroke-width="1" /><text x="331.7272727272727" y="507" font-size="10" text-anchor="middle">Fri</text><line x1="331.7272727272727" y1="492" x2="331.7272727272727" y2="497" stroke="black" stroke-width="1" /><text x="386.27272727272725" y="507" font-size="10" text-anchor="middle">Mon</text><line x1="386.27272727272725" y1="492" x2="386.27272727272725" y2="497" stroke="black" stroke-width="1" /><text x="440.8181818181818" y="507" font-size="10" text-anchor="middle">Tue</text><line x1="440.8181818181818" y1="492" x2="440.8181818181818" y2="497" stroke="black" stroke-width="1" /><text x="495.3636363636364" y="507" font-size="10" text-anchor="middle">Wed</text><line x1="495.3636363636364" y1="492" x2="495.3636363636364" y2="497" stroke="black" stroke-width="1" /><text x="549.909090909091" y="507" font-size="10" text-anchor="middle">Thu</text><line x1="549.909090909091" y1="492" x2="549.909090909091" y2="497" stroke="black" stroke-width="1" /><text x="604.4545454545454" y="507" font-size="10" text-anchor="middle">Fri</text><line x1="604.4545454545454" y1="492" x2="604.4545454545454" y2="497" stroke="black" stroke-width="1" /><line x1="54" y1="492" x2="59" y2="492" stroke="black" stroke-width="1" /><text x="51" y="495.5" font-size="10" text-anchor="end">0</text><line x1="54" y1="454.5" x2="59" y2="454.5" stroke="black" stroke-width="1" /><text x="51" y="458" font-size="10" text-anchor="end">10</text><line x1="54" y1="417" x2="59" y2="417" stroke="black" stroke-width="1" /><text x="51" y="420.5" font-size="10" text-anchor="end">20</text><line x1="54" y1="379.5" x2="59" y2="379.5" stroke="black" stroke-width="1" /><text x="51" y="383" font-size="10" text-anchor="end">30</text><line x1="54" y1="342" x2="59" y2="342" stroke="black" stroke-width="1" /><text x="51" y="345.5" font-size="10" text-anchor="end">40</text><line x1="54" y1="304.5" x2="59" y2="304.5" stroke="black" stroke-width="1" /><text x="51" y="308" font-size="10" text-anchor="end">50</text><line x1="54" y1="267" x2="59" y2="267" stroke="black" stroke-width="1" /><text x="51" y="270.5" font-size="10" text-anchor="end">60</text><line x1="54" y1="229.5" x2="59" y2="229.5" stroke="black" stroke-width="1" /><text x="51" y="233" font-size="10" text-anchor="end">70</text><line x1="54" y1="192" x2="59" y2="192" stroke="black" stroke-width="1" /><text x="51" y="195.5" font-size="10" text-anchor="end">80</text><line x1="54" y1="154.5" x2="59" y2="154.5" stroke="black" stroke-width="1" /><text x="51" y="158" font-size="10" text-anchor="end">90</text><line x1="54" y1="117" x2="59" y2="117" stroke="black" stroke-width="1" /><text x="51" y="120.5" font-size="10" text-anchor="end">100</text><line x1="54" y1="79.5" x2="59" y2="79.5" stroke="black" stroke-width="1" /><text x="51" y="83" font-size="10" text-anchor="end">110</text><line x1="54" y1="42" x2="59" y2="42" stroke="black" stroke-width="1" /><text x="51" y="45.5" font-size="10" text-anchor="end">120</text><text x="336.5" y="534" font-size="14" text-anchor="middle">Day</text><text x="14" y="270.5" font-size="14" text-anchor="middle" transform="rotate(-90,14,270.5)">Price</text><text x="336.5" y="21" font-size="16" text-anchor="middle">Custom Colors</text><line x1="113.54545454545455" y1="95.25000000000001" x2="113.54545454545455" y2="119.99999999999999" stroke="#00c896" stroke-width="1.5" /><rect x="94.45454545454547" y="100.125" width="38.18181818181817" height="16.875" fill="#00c896" stroke="#00c896" stroke-width="0.5" /><line x1="168.0909090909091" y1="93.75" x2="168.0909090909091" y2="105.37500000000003" stroke="#ff4560" stroke-width="1.5" /><rect x="149" y="100.125" width="38.18181818181817" height="4.124999999999972" fill="#ff4560" stroke="#ff4560" stroke-width="0.5" /><line x1="222.63636363636363" y1="88.875" x2="222.63636363636363" y2="106.50000000000001" stroke="#00c896" stroke-width="1.5" /><rect x="203.54545454545453" y="91.12499999999997" width="38.18181818181817" height="13.125" fill="#00c896" stroke="#00c896" stroke-width="0.5" /><line x1="277.1818181818182" y1="82.87500000000003" x2="277.1818181818182" y2="93.37500000000001" stroke="#00c896" stroke-width="1.5" /><rect x="258.0909090909091" y="84.75000000000003" width="38.18181818181817" height="6.374999999999943" fill="#00c896" stroke="#00c896" stroke-width="0.5" /><line x1="331.7272727272727" y1="83.25" x2="331.7272727272727" y2="95.62499999999999" stroke="#aaaaaa" stroke-width="1.5" /><rect x="312.6363636363636" y="84.75000000000003" width="38.18181818181817" height="1" fill="#aaaaaa" stroke="#aaaaaa" stroke-width="0.5" /><line x1="386.27272727272725" y1="70.87500000000001" x2="386.27272727272725" y2="86.62500000000003" stroke="#00c896" stroke-width="1.5" /><rect x="367.1818181818182" y="73.875" width="38.18181818181817" height="10.875000000000028" fill="#00c896" stroke="#00c896" stroke-width="0.5" /><line x1="440.8181818181818" y1="65.25000000000001" x2="440.8181818181818" y2="79.87499999999997" stroke="#ff4560" stroke-width="1.5" /><rect x="421.72727272727275" y="73.875" width="38.18181818181817" height="4.874999999999986" fill="#ff4560" stroke="#ff4560" stroke-width="0.5" /><line x1="495.3636363636364" y1="75.75" x2="495.3636363636364" y2="89.24999999999997" stroke="#ff4560" stroke-width="1.5" /><rect x="476.2727272727273" y="78.74999999999999" width="38.18181818181817" height="5.250000000000014" fill="#ff4560" stroke="#ff4560" stroke-width="0.5" /><line x1="549.909090909091" y1="66.375" x2="549.909090909091" y2="85.125" stroke="#00c896" stroke-width="1.5" /><rect x="530.8181818181819" y="69.37499999999999" width="38.18181818181817" height="14.625000000000014" fill="#00c896" stroke="#00c896" stroke-width="0.5" /><line x1="604.4545454545454" y1="59.999999999999986" x2="604.4545454545454" y2="72.75000000000001" stroke="#00c896" stroke-width="1.5" /><rect x="585.3636363636363" y="61.12499999999998" width="38.18181818181817" height="8.250000000000007" fill="#00c896" stroke="#00c896" stroke-width="0.5" /></svg>