<svg xmlns="http://www.w3.org/2000/svg" width="673" height="561" fill="black"><rect width="100%" height="100%" fill="white" /><line x1="59" y1="492" x2="659" y2="492" stroke="black" stroke-width="1" /><line x1="59" y1="42" x2="59" y2="492" stroke="black" stroke-width="1" /><line x1="59" y1="442" x2="659" y2="442" stroke="#ccc" stroke-width="1" /><line x1="59" y1="392" x2="659" y2="392" stroke="#ccc" stroke-width="1" /><line x1="59" y1="342" x2="659" y2="342" stroke="#ccc" stroke-width="1" /><line x1="59" y1="292" x2="659" y2="292" stroke="#ccc" stroke-width="1" /><line x1="59" y1="242" x2="659" y2="242" stroke="#ccc" stroke-width="1" /><line x1="59" y1="192" x2="659" y2="192" stroke="#ccc" stroke-width="1" /><line x1="59" y1="142" x2="659" y2="142" stroke="#ccc" stroke-width="1" /><line x1="59" y1="92" x2="659" y2="92" stroke="#ccc" stroke-width="1" /><line x1="59" y1="42" x2="659" y2="42" stroke="#ccc" stroke-width="1" /><text x="86.27272727272728" y="507" font-size="10" text-anchor="end" transform="rotate(-45,86.27272727272728,507)">Nov 01</text><line x1="86.27272727272728" y1="492" x2="86.27272727272728" y2="497" stroke="black" stroke-width="1" /><text x="113.54545454545455" y="507" font-size="10" text-anchor="end" transform="rotate(-45,113.54545454545455,507)">Nov 02</text><line x1="113.54545454545455" y1="492" x2="113.54545454545455" y2="497" stroke="black" stroke-width="1" /><text x="140.8181818181818" y="507" font-size="10" text-anchor="end" transform="rotate(-45,140.8181818181818,507)">Nov 03</text><line x1="140.8181818181818" y1="492" x2="140.8181818181818" y2="497" stroke="black" stroke-width="1" /><text x="168.0909090909091" y="507" font-size="10" text-anchor="end" transform="rotate(-45,168.0909090909091,507)">Nov 04</text><line x1="168.0909090909091" y1="492" x2="168.0909090909091" y2="497" stroke="black" stroke-width="1" /><text x="195.36363636363635" y="507" font-size="10" text-anchor="end" transform="rotate(-45,195.36363636363635,507)">Nov 05</text><line x1="195.36363636363635" y1="492" x2="195.36363636363635" y2="497" stroke="black" stroke-width="1" /><text x="222.63636363636363" y="507" font-size="10" text-anchor="end" transform="rotate(-45,222.63636363636363,507)">Nov 06</text><line x1="222.63636363636363" y1="492" x2="222.63636363636363" y2="497" stroke="black" stroke-width="1" /><text x="249.9090909090909" y="507" font-size="10" text-anchor="end" transform="rotate(-45,249.9090909090909,507)">Nov 07</text><line x1="249.9090909090909" y1="492" x2="249.9090909090909" y2="497" stroke="black" stroke-width="1" /><text x="277.1818181818182" y="507" font-size="10" text-anchor="end" transform="rotate(-45,277.1818181818182,507)">Nov 08</text><line x1="277.1818181818182" y1="492" x2="277.1818181818182" y2="497" stroke="black" stroke-width="1" /><text x="304.4545454545455" y="507" font-size="10" text-anchor="end" transform="rotate(-45,304.4545454545455,507)">Nov 11</text><line x1="304.4545454545455" y1="492" x2="304.4545454545455" y2="497" stroke="black" stroke-width="1" /><text x="331.7272727272727" y="507" font-size="10" text-anchor="end" transform="rotate(-45,331.7272727272727,507)">Nov 12</text><line x1="331.7272727272727" y1="492" x2="331.7272727272727" y2="497" stroke="black" stroke-width="1" /><text x="359" y="507" font-size="10" text-anchor="end" transform="rotate(-45,359,507)">Nov 13</text><line x1="359" y1="492" x2="359" y2="497" stroke="black" stroke-width="1" /><text x="386.27272727272725" y="507" font-size="10" text-anchor="end" transform="rotate(-45,386.27272727272725,507)">Nov 14</text><line x1="386.27272727272725" y1="492" x2="386.27272727272725" y2="497" stroke="black" stroke-width="1" /><text x="413.54545454545456" y="507" font-size="10" text-anchor="end" transform="rotate(-45,413.54545454545456,507)">Nov 15</text><line x1="413.54545454545456" y1="492" x2="413.54545454545456" y2="497" stroke="black" stroke-width="1" /><text x="440.8181818181818" y="507" font-size="10" text-anchor="end" transform="rotate(-45,440.8181818181818,507)">Nov 18</text><line x1="440.8181818181818" y1="492" x2="440.8181818181818" y2="497" stroke="black" stroke-width="1" /><text x="468.09090909090907" y="507" font-size="10" text-anchor="end" transform="rotate(-45,468.09090909090907,507)">Nov 19</text><line x1="468.09090909090907" y1="492" x2="468.09090909090907" y2="497" stroke="black" stroke-width="1" /><text x="495.3636363636364" y="507" font-size="10" text-anchor="end" transform="rotate(-45,495.3636363636364,507)">Nov 20</text><line x1="495.3636363636364" y1="492" x2="495.3636363636364" y2="497" stroke="black" stroke-width="1" /><text x="522.6363636363636" y="507" font-size="10" text-anchor="end" transform="rotate(-45,522.6363636363636,507)">Nov 21</text><line x1="522.6363636363636" y1="492" x2="522.6363636363636" y2="497" stroke="black" stroke-width="1" /><text x="549.909090909091" y="507" font-size="10" text-anchor="end" transform="rotate(-45,549.909090909091,507)">Nov 22</text><line x1="549.909090909091" y1="492" x2="549.909090909091" y2="497" stroke="black" stroke-width="1" /><text x="577.1818181818182" y="507" font-size="10" text-anchor="end" transform="rotate(-45,577.1818181818182,507)">Nov 25</text><line x1="577.1818181818182" y1="492" x2="577.1818181818182" y2="497" stroke="black" stroke-width="1" /><text x="604.4545454545454" y="507" font-size="10" text-anchor="end" transform="rotate(-45,604.4545454545454,507)">Nov 26</text><line x1="604.4545454545454" y1="492" x2="604.4545454545454" y2="497" stroke="black" stroke-width="1" /><line x1="54" y1="492" x2="59" y2="492" stroke="black" stroke-width="1" /><text x="51" y="495.5" font-size="10" text-anchor="end">0</text><line x1="54" y1="442" x2="59" y2="442" stroke="black" stroke-width="1" /><text x="51" y="445.5" font-size="10" text-anchor="end">20</text><line x1="54" y1="392" x2="59" y2="392" stroke="black" stroke-width="1" /><text x="51" y="395.5" font-size="10" text-anchor="end">40</text><line x1="54" y1="342" x2="59" y2="342" stroke="black" stroke-width="1" /><text x="51" y="345.5" font-size="10" text-anchor="end">60</text><line x1="54" y1="292" x2="59" y2="292" stroke="black" stroke-width="1" /><text x="51" y="295.5" font-size="10" text-anchor="end">80</text><line x1="54" y1="242" x2="59" y2="242" stroke="black" stroke-width="1" /><text x="51" y="245.5" font-size="10" text-anchor="end">100</text><line x1="54" y1="192" x2="59" y2="192" stroke="black" stroke-width="1" /><text x="51" y="195.5" font-size="10" text-anchor="end">120</text><line x1="54" y1="142" x2="59" y2="142" stroke="black" stroke-width="1" /><text x="51" y="145.5" font-size="10" text-anchor="end">140</text><line x1="54" y1="92" x2="59" y2="92" stroke="black" stroke-width="1" /><text x="51" y="95.5" font-size="10" text-anchor="end">160</text><line x1="54" y1="42" x2="59" y2="42" stroke="black" stroke-width="1" /><text x="51" y="45.5" font-size="10" text-anchor="end">180</text><text x="336.5" y="554" font-size="14" text-anchor="middle">Date</text><text x="14" y="280.5" font-size="14" text-anchor="middle" transform="rotate(-90,14,280.5)">Price (USD)</text><text x="336.5" y="21" font-size="16" text-anchor="middle">Daily OHLC with Volume Panel</text><line x1="86.27272727272728" y1="107.15888888888891" x2="86.27272727272728" y2="115.64111111111109" stroke="rgb(68,170,68)" stroke-width="1.5" /><rect x="76.72727272727273" y="108.89388888888887" width="19.090909090909086" height="5.397777777777804" fill="rgb(68,170,68)" stroke="rgb(68,170,68)" stroke-width="0.5" /><line x1="113.54545454545455" y1="104.07444444444442" x2="113.54545454545455" y2="112.3638888888889" stroke="rgb(204,68,68)" stroke-width="1.5" /><rect x="104" y="108.7011111111111" width="19.090909090909086" height="2.5061111111111245" fill="rgb(204,68,68)" stroke="rgb(204,68,68)" stroke-width="0.5" /><line x1="140.8181818181818" y1="109.66499999999999" x2="140.8181818181818" y2="114.87000000000003" stroke="#888888" stroke-width="1.5" /><rect x="131.27272727272728" y="111.20722222222223" width="19.090909090909086" height="1" fill="#888888" stroke="#888888" stroke-width="0.5" /><line x1="168.0909090909091" y1="102.725" x2="168.0909090909091" y2="112.94222222222224" stroke="rgb(68,170,68)" stroke-width="1.5" /><rect x="158.54545454545456" y="103.88166666666666" width="19.090909090909086" height="7.903888888888872" fill="rgb(68,170,68)" stroke="rgb(68,170,68)" stroke-width="0.5" /><line x1="195.36363636363635" y1="99.4477777777778" x2="195.36363636363635" y2="106.96611111111109" stroke="rgb(68,170,68)" stroke-width="1.5" /><rect x="185.8181818181818" y="100.21888888888887" width="19.090909090909086" height="3.662777777777791" fill="rgb(68,170,68)" stroke="rgb(68,170,68)" stroke-width="0.5" /><line x1="222.63636363636363" y1="97.90555555555557" x2="222.63636363636363" y2="106.58055555555556" stroke="rgb(204,68,68)" stroke-width="1.5" /><rect x="213.0909090909091" y="100.21888888888887" width="19.090909090909086" height="5.012222222222263" fill="rgb(204,68,68)" stroke="rgb(204,68,68)" stroke-width="0.5" /><line x1="249.9090909090909" y1="103.49611111111112" x2="249.9090909090909" y2="111.78555555555553" stroke="rgb(204,68,68)" stroke-width="1.5" /><rect x="240.36363636363637" y="105.23111111111113" width="19.090909090909086" height="5.20499999999997" fill="rgb(204,68,68)" stroke="rgb(204,68,68)" stroke-width="0.5" /><line x1="277.1818181818182" y1="106.0022222222222" x2="277.1818181818182" y2="112.94222222222224" stroke="rgb(68,170,68)" stroke-width="1.5" /><rect x="267.6363636363636" y="107.73722222222221" width="19.090909090909086" height="2.698888888888888" fill="rgb(68,170,68)" stroke="rgb(68,170,68)" stroke-width="0.5" /><line x1="304.4545454545455" y1="101.18277777777774" x2="304.4545454545455" y2="108.50833333333334" stroke="rgb(68,170,68)" stroke-width="1.5" /><rect x="294.90909090909093" y="102.33944444444447" width="19.090909090909086" height="5.397777777777748" fill="rgb(68,170,68)" stroke="rgb(68,170,68)" stroke-width="0.5" /><line x1="331.7272727272727" y1="95.97777777777779" x2="331.7272727272727" y2="103.49611111111112" stroke="rgb(68,170,68)" stroke-width="1.5" /><rect x="322.18181818181813" y="96.94166666666666" width="19.090909090909086" height="5.397777777777804" fill="rgb(68,170,68)" stroke="rgb(68,170,68)" stroke-width="0.5" /><line x1="359" y1="90.57999999999998" x2="359" y2="98.09833333333333" stroke="rgb(68,170,68)" stroke-width="1.5" /><rect x="349.45454545454544" y="92.50777777777776" width="19.090909090909086" height="4.433888888888902" fill="rgb(68,170,68)" stroke="rgb(68,170,68)" stroke-width="0.5" /><line x1="386.27272727272725" y1="91.73666666666668" x2="386.27272727272725" y2="99.25499999999997" stroke="rgb(204,68,68)" stroke-width="1.5" /><rect x="376.7272727272727" y="92.50777777777776" width="19.090909090909086" height="6.168888888888915" fill="rgb(204,68,68)" stroke="rgb(204,68,68)" stroke-width="0.5" /><line x1="413.54545454545456" y1="95.78500000000001" x2="413.54545454545456" y2="102.14666666666665" stroke="rgb(68,170,68)" stroke-width="1.5" /><rect x="404" y="97.52000000000001" width="19.090909090909086" height="1.1566666666666663" fill="rgb(68,170,68)" stroke="rgb(68,170,68)" stroke-width="0.5" /><line x1="440.8181818181818" y1="93.27888888888887" x2="440.8181818181818" y2="98.29111111111109" stroke="rgb(68,170,68)" stroke-width="1.5" /><rect x="431.27272727272725" y="93.27888888888887" width="19.090909090909086" height="4.241111111111138" fill="rgb(68,170,68)" stroke="rgb(68,170,68)" stroke-width="0.5" /><line x1="468.09090909090907" y1="85.95333333333335" x2="468.09090909090907" y2="94.43555555555554" stroke="rgb(68,170,68)" stroke-width="1.5" /><rect x="458.5454545454545" y="87.30277777777778" width="19.090909090909086" height="5.976111111111095" fill="rgb(68,170,68)" stroke="rgb(68,170,68)" stroke-width="0.5" /><line x1="495.3636363636364" y1="84.21833333333335" x2="495.3636363636364" y2="91.73666666666668" stroke="rgb(204,68,68)" stroke-width="1.5" /><rect x="485.8181818181818" y="87.30277777777778" width="19.090909090909086" height="3.277222222222207" fill="rgb(204,68,68)" stroke="rgb(204,68,68)" stroke-width="0.5" /><line x1="522.6363636363636" y1="89.8088888888889" x2="522.6363636363636" y2="95.78500000000001" stroke="#888888" stroke-width="1.5" /><rect x="513.0909090909091" y="90.57999999999998" width="19.090909090909086" height="1" fill="#888888" stroke="#888888" stroke-width="0.5" /><line x1="549.909090909091" y1="83.44722222222222" x2="549.909090909091" y2="91.54388888888887" stroke="rgb(68,170,68)" stroke-width="1.5" /><rect x="540.3636363636365" y="84.60388888888889" width="19.090909090909086" height="5.976111111111095" fill="rgb(68,170,68)" stroke="rgb(68,170,68)" stroke-width="0.5" /><line x1="577.1818181818182" y1="80.36277777777778" x2="577.1818181818182" y2="86.72444444444443" stroke="rgb(68,170,68)" stroke-width="1.5" /><rect x="567.6363636363637" y="81.51944444444445" width="19.090909090909086" height="3.0844444444444434" fill="rgb(68,170,68)" stroke="rgb(68,170,68)" stroke-width="0.5" /><line x1="604.4545454545454" y1="78.24222222222224" x2="604.4545454545454" y2="85.76055555555553" stroke="rgb(204,68,68)" stroke-width="1.5" /><rect x="594.9090909090909" y="81.51944444444445" width="19.090909090909086" height="2.1205555555555406" fill="rgb(204,68,68)" stroke="rgb(204,68,68)" stroke-width="0.5" /><rect x="76.72727272727273" y="432.26190476190476" width="19.090909090909086" height="57.73809523809524" fill="rgb(68,170,68)" fill-opacity="0.5" /><rect x="104" y="444.73333333333335" width="19.090909090909086" height="45.266666666666666" fill="rgb(204,68,68)" fill-opacity="0.5" /><rect x="131.27272727272728" y="456.74285714285713" width="19.090909090909086" height="33.25714285714286" fill="#888888" fill-opacity="0.5" /><rect x="158.54545454545456" y="417.0190476190476" width="19.090909090909086" height="72.98095238095237" fill="rgb(68,170,68)" fill-opacity="0.5" /><rect x="185.8181818181818" y="424.4095238095238" width="19.090909090909086" height="65.5904761904762" fill="rgb(68,170,68)" fill-opacity="0.5" /><rect x="213.0909090909091" y="439.1904761904762" width="19.090909090909086" height="50.80952380952381" fill="rgb(204,68,68)" fill-opacity="0.5" /><rect x="240.36363636363637" y="427.6428571428571" width="19.090909090909086" height="62.35714285714286" fill="rgb(204,68,68)" fill-opacity="0.5" /><rect x="267.6363636363636" y="448.8904761904762" width="19.090909090909086" height="41.10952380952381" fill="rgb(68,170,68)" fill-opacity="0.5" /><rect x="294.90909090909093" y="435.4952380952381" width="19.090909090909086" height="54.50476190476191" fill="rgb(68,170,68)" fill-opacity="0.5" /><rect x="322.18181818181813" y="415.1714285714286" width="19.090909090909086" height="74.82857142857144" fill="rgb(68,170,68)" fill-opacity="0.5" /><rect x="349.45454545454544" y="407.7809523809524" width="19.090909090909086" height="82.21904761904761" fill="rgb(68,170,68)" fill-opacity="0.5" /><rect x="376.7272727272727" y="430.4142857142857" width="19.090909090909086" height="59.58571428571429" fill="rgb(204,68,68)" fill-opacity="0.5" /><rect x="404" y="441.5" width="19.090909090909086" height="48.5" fill="rgb(68,170,68)" fill-opacity="0.5" /><rect x="431.27272727272725" y="428.1047619047619" width="19.090909090909086" height="61.89523809523809" fill="rgb(68,170,68)" fill-opacity="0.5" /><rect x="458.5454545454545" y="393" width="19.090909090909086" height="97" fill="rgb(68,170,68)" fill-opacity="0.5" /><rect x="485.8181818181818" y="413.7857142857143" width="19.090909090909086" height="76.21428571428571" fill="rgb(204,68,68)" fill-opacity="0.5" /><rect x="513.0909090909091" y="444.73333333333335" width="19.090909090909086" height="45.266666666666666" fill="#888888" fill-opacity="0.5" /><rect x="540.3636363636365" y="424.4095238095238" width="19.090909090909086" height="65.5904761904762" fill="rgb(68,170,68)" fill-opacity="0.5" /><rect x="567.6363636363637" y="402.7" width="19.090909090909086" height="87.3" fill="rgb(68,170,68)" fill-opacity="0.5" /><rect x="594.9090909090909" y="417.9428571428571" width="19.090909090909086" height="72.05714285714286" fill="rgb(204,68,68)" fill-opacity="0.5" /></svg>