<svg xmlns="http://www.w3.org/2000/svg" width="725" height="545" font-family="DejaVu Sans, Liberation Sans, Arial, sans-serif" fill="black"><rect width="100%" height="100%" fill="white" /><defs><clipPath id="kuva-clip-3"><rect x="107" y="44" width="600" height="450"/></clipPath></defs><line x1="107" y1="494" x2="707" y2="494" stroke="#000000" stroke-width="1" /><line x1="107" y1="44" x2="107" y2="494" stroke="#000000" stroke-width="1" /><text x="99" y="423.2" font-size="12" text-anchor="end">Apples</text><line x1="102" y1="419" x2="107" y2="419" stroke="#000000" stroke-width="1" /><text x="99" y="348.2" font-size="12" text-anchor="end">Bananas</text><line x1="102" y1="344" x2="107" y2="344" stroke="#000000" stroke-width="1" /><text x="99" y="273.2" font-size="12" text-anchor="end">Cherries</text><line x1="102" y1="269" x2="107" y2="269" stroke="#000000" stroke-width="1" /><text x="99" y="198.20000000000002" font-size="12" text-anchor="end">Dates</text><line x1="102" y1="194" x2="107" y2="194" stroke="#000000" stroke-width="1" /><text x="99" y="123.2" font-size="12" text-anchor="end">Elderberry</text><line x1="102" y1="119" x2="107" y2="119" stroke="#000000" stroke-width="1" /><line x1="107" y1="494" x2="107" y2="499" stroke="#000000" stroke-width="1" /><text x="107" y="511" font-size="12" text-anchor="middle">0</text><line x1="207" y1="494" x2="207" y2="499" stroke="#000000" stroke-width="1" /><text x="207" y="511" font-size="12" text-anchor="middle">10</text><line x1="307" y1="494" x2="307" y2="499" stroke="#000000" stroke-width="1" /><text x="307" y="511" font-size="12" text-anchor="middle">20</text><line x1="407" y1="494" x2="407" y2="499" stroke="#000000" stroke-width="1" /><text x="407" y="511" font-size="12" text-anchor="middle">30</text><line x1="507" y1="494" x2="507" y2="499" stroke="#000000" stroke-width="1" /><text x="507" y="511" font-size="12" text-anchor="middle">40</text><line x1="607" y1="494" x2="607" y2="499" stroke="#000000" stroke-width="1" /><text x="607" y="511" font-size="12" text-anchor="middle">50</text><line x1="707" y1="494" x2="707" y2="499" stroke="#000000" stroke-width="1" /><text x="707" y="511" font-size="12" text-anchor="middle">60</text><text x="407" y="538" font-size="14" text-anchor="middle">Count</text><text x="407" y="27.400000000000002" font-size="18" text-anchor="middle">Horizontal Bar Chart</text><g clip-path="url(#kuva-clip-3)"><rect x="107" y="389" width="420" height="60" fill="#4682b4" /><rect x="107" y="314" width="580" height="60" fill="#4682b4" /><rect x="107" y="239" width="310" height="60" fill="#4682b4" /><rect x="107" y="164" width="470" height="60" fill="#4682b4" /><rect x="107" y="89" width="250" height="60" fill="#4682b4" /></g></svg>