<svg xmlns="http://www.w3.org/2000/svg" width="771" height="541" fill="black"><rect width="100%" height="100%" fill="white" /><line x1="59" y1="492" x2="659" y2="492" stroke="black" stroke-width="1" /><line x1="59" y1="42" x2="59" y2="492" stroke="black" stroke-width="1" /><line x1="59" y1="454.5" x2="659" y2="454.5" stroke="#ccc" stroke-width="1" /><line x1="59" y1="417" x2="659" y2="417" stroke="#ccc" stroke-width="1" /><line x1="59" y1="379.5" x2="659" y2="379.5" stroke="#ccc" stroke-width="1" /><line x1="59" y1="342" x2="659" y2="342" stroke="#ccc" stroke-width="1" /><line x1="59" y1="304.5" x2="659" y2="304.5" stroke="#ccc" stroke-width="1" /><line x1="59" y1="267" x2="659" y2="267" stroke="#ccc" stroke-width="1" /><line x1="59" y1="229.5" x2="659" y2="229.5" stroke="#ccc" stroke-width="1" /><line x1="59" y1="192" x2="659" y2="192" stroke="#ccc" stroke-width="1" /><line x1="59" y1="154.5" x2="659" y2="154.5" stroke="#ccc" stroke-width="1" /><line x1="59" y1="117" x2="659" y2="117" stroke="#ccc" stroke-width="1" /><line x1="59" y1="79.5" x2="659" y2="79.5" stroke="#ccc" stroke-width="1" /><line x1="59" y1="42" x2="659" y2="42" stroke="#ccc" stroke-width="1" /><text x="134" y="507" font-size="10" text-anchor="middle">Q1</text><line x1="134" y1="492" x2="134" y2="497" stroke="black" stroke-width="1" /><text x="284" y="507" font-size="10" text-anchor="middle">Q2</text><line x1="284" y1="492" x2="284" y2="497" stroke="black" stroke-width="1" /><text x="434" y="507" font-size="10" text-anchor="middle">Q3</text><line x1="434" y1="492" x2="434" y2="497" stroke="black" stroke-width="1" /><text x="584" y="507" font-size="10" text-anchor="middle">Q4</text><line x1="584" y1="492" x2="584" y2="497" stroke="black" stroke-width="1" /><line x1="54" y1="492" x2="59" y2="492" stroke="black" stroke-width="1" /><text x="51" y="495.5" font-size="10" text-anchor="end">0</text><line x1="54" y1="454.5" x2="59" y2="454.5" stroke="black" stroke-width="1" /><text x="51" y="458" font-size="10" text-anchor="end">5</text><line x1="54" y1="417" x2="59" y2="417" stroke="black" stroke-width="1" /><text x="51" y="420.5" font-size="10" text-anchor="end">10</text><line x1="54" y1="379.5" x2="59" y2="379.5" stroke="black" stroke-width="1" /><text x="51" y="383" font-size="10" text-anchor="end">15</text><line x1="54" y1="342" x2="59" y2="342" stroke="black" stroke-width="1" /><text x="51" y="345.5" font-size="10" text-anchor="end">20</text><line x1="54" y1="304.5" x2="59" y2="304.5" stroke="black" stroke-width="1" /><text x="51" y="308" font-size="10" text-anchor="end">25</text><line x1="54" y1="267" x2="59" y2="267" stroke="black" stroke-width="1" /><text x="51" y="270.5" font-size="10" text-anchor="end">30</text><line x1="54" y1="229.5" x2="59" y2="229.5" stroke="black" stroke-width="1" /><text x="51" y="233" font-size="10" text-anchor="end">35</text><line x1="54" y1="192" x2="59" y2="192" stroke="black" stroke-width="1" /><text x="51" y="195.5" font-size="10" text-anchor="end">40</text><line x1="54" y1="154.5" x2="59" y2="154.5" stroke="black" stroke-width="1" /><text x="51" y="158" font-size="10" text-anchor="end">45</text><line x1="54" y1="117" x2="59" y2="117" stroke="black" stroke-width="1" /><text x="51" y="120.5" font-size="10" text-anchor="end">50</text><line x1="54" y1="79.5" x2="59" y2="79.5" stroke="black" stroke-width="1" /><text x="51" y="83" font-size="10" text-anchor="end">55</text><line x1="54" y1="42" x2="59" y2="42" stroke="black" stroke-width="1" /><text x="51" y="45.5" font-size="10" text-anchor="end">60</text><text x="14" y="270.5" font-size="14" text-anchor="middle" transform="rotate(-90,14,270.5)">Sales (units)</text><text x="385.5" y="21" font-size="16" text-anchor="middle">Stacked Bar Chart</text><rect x="74" y="357" width="120" height="135" fill="steelblue" /><rect x="74" y="267" width="120" height="90" fill="crimson" /><rect x="74" y="199.5" width="120" height="67.5" fill="seagreen" /><rect x="224" y="327" width="120" height="165" fill="steelblue" /><rect x="224" y="199.5" width="120" height="127.5" fill="crimson" /><rect x="224" y="94.5" width="120" height="105" fill="seagreen" /><rect x="374" y="349.5" width="120" height="142.5" fill="steelblue" /><rect x="374" y="192" width="120" height="157.5" fill="crimson" /><rect x="374" y="109.5" width="120" height="82.5" fill="seagreen" /><rect x="524" y="304.5" width="120" height="187.5" fill="steelblue" /><rect x="524" y="192" width="120" height="112.5" fill="crimson" /><rect x="524" y="57" width="120" height="135" fill="seagreen" /><rect x="664" y="32" width="98" height="74" fill="white" /><rect x="664" y="32" width="98" height="74" fill="none" stroke="black" stroke-width="1" /><text x="694" y="47" font-size="12" text-anchor="start">Product A</text><rect x="674" y="37" width="12" height="12" fill="steelblue" /><text x="694" y="65" font-size="12" text-anchor="start">Product B</text><rect x="674" y="55" width="12" height="12" fill="crimson" /><text x="694" y="83" font-size="12" text-anchor="start">Product C</text><rect x="674" y="73" width="12" height="12" fill="seagreen" /></svg>