<svg xmlns="http://www.w3.org/2000/svg" width="771" height="541" fill="black"><rect width="100%" height="100%" fill="white" /><line x1="59" y1="492" x2="659" y2="492" stroke="black" stroke-width="1" /><line x1="59" y1="42" x2="59" y2="492" stroke="black" stroke-width="1" /><line x1="59" y1="457.38461538461536" x2="659" y2="457.38461538461536" stroke="#ccc" stroke-width="1" /><line x1="59" y1="422.7692307692308" x2="659" y2="422.7692307692308" stroke="#ccc" stroke-width="1" /><line x1="59" y1="388.15384615384613" x2="659" y2="388.15384615384613" stroke="#ccc" stroke-width="1" /><line x1="59" y1="353.53846153846155" x2="659" y2="353.53846153846155" stroke="#ccc" stroke-width="1" /><line x1="59" y1="318.9230769230769" x2="659" y2="318.9230769230769" stroke="#ccc" stroke-width="1" /><line x1="59" y1="284.30769230769226" x2="659" y2="284.30769230769226" stroke="#ccc" stroke-width="1" /><line x1="59" y1="249.6923076923077" x2="659" y2="249.6923076923077" stroke="#ccc" stroke-width="1" /><line x1="59" y1="215.07692307692304" x2="659" y2="215.07692307692304" stroke="#ccc" stroke-width="1" /><line x1="59" y1="180.46153846153845" x2="659" y2="180.46153846153845" stroke="#ccc" stroke-width="1" /><line x1="59" y1="145.8461538461538" x2="659" y2="145.8461538461538" stroke="#ccc" stroke-width="1" /><line x1="59" y1="111.23076923076923" x2="659" y2="111.23076923076923" stroke="#ccc" stroke-width="1" /><line x1="59" y1="76.61538461538458" x2="659" y2="76.61538461538458" stroke="#ccc" stroke-width="1" /><line x1="59" y1="42" x2="659" y2="42" stroke="#ccc" stroke-width="1" /><text x="134" y="507" font-size="10" text-anchor="middle">Q1</text><line x1="134" y1="492" x2="134" y2="497" stroke="black" stroke-width="1" /><text x="284" y="507" font-size="10" text-anchor="middle">Q2</text><line x1="284" y1="492" x2="284" y2="497" stroke="black" stroke-width="1" /><text x="434" y="507" font-size="10" text-anchor="middle">Q3</text><line x1="434" y1="492" x2="434" y2="497" stroke="black" stroke-width="1" /><text x="584" y="507" font-size="10" text-anchor="middle">Q4</text><line x1="584" y1="492" x2="584" y2="497" stroke="black" stroke-width="1" /><line x1="54" y1="492" x2="59" y2="492" stroke="black" stroke-width="1" /><text x="51" y="495.5" font-size="10" text-anchor="end">0</text><line x1="54" y1="457.38461538461536" x2="59" y2="457.38461538461536" stroke="black" stroke-width="1" /><text x="51" y="460.88461538461536" font-size="10" text-anchor="end">5</text><line x1="54" y1="422.7692307692308" x2="59" y2="422.7692307692308" stroke="black" stroke-width="1" /><text x="51" y="426.2692307692308" font-size="10" text-anchor="end">10</text><line x1="54" y1="388.15384615384613" x2="59" y2="388.15384615384613" stroke="black" stroke-width="1" /><text x="51" y="391.65384615384613" font-size="10" text-anchor="end">15</text><line x1="54" y1="353.53846153846155" x2="59" y2="353.53846153846155" stroke="black" stroke-width="1" /><text x="51" y="357.03846153846155" font-size="10" text-anchor="end">20</text><line x1="54" y1="318.9230769230769" x2="59" y2="318.9230769230769" stroke="black" stroke-width="1" /><text x="51" y="322.4230769230769" font-size="10" text-anchor="end">25</text><line x1="54" y1="284.30769230769226" x2="59" y2="284.30769230769226" stroke="black" stroke-width="1" /><text x="51" y="287.80769230769226" font-size="10" text-anchor="end">30</text><line x1="54" y1="249.6923076923077" x2="59" y2="249.6923076923077" stroke="black" stroke-width="1" /><text x="51" y="253.1923076923077" font-size="10" text-anchor="end">35</text><line x1="54" y1="215.07692307692304" x2="59" y2="215.07692307692304" stroke="black" stroke-width="1" /><text x="51" y="218.57692307692304" font-size="10" text-anchor="end">40</text><line x1="54" y1="180.46153846153845" x2="59" y2="180.46153846153845" stroke="black" stroke-width="1" /><text x="51" y="183.96153846153845" font-size="10" text-anchor="end">45</text><line x1="54" y1="145.8461538461538" x2="59" y2="145.8461538461538" stroke="black" stroke-width="1" /><text x="51" y="149.3461538461538" font-size="10" text-anchor="end">50</text><line x1="54" y1="111.23076923076923" x2="59" y2="111.23076923076923" stroke="black" stroke-width="1" /><text x="51" y="114.73076923076923" font-size="10" text-anchor="end">55</text><line x1="54" y1="76.61538461538458" x2="59" y2="76.61538461538458" stroke="black" stroke-width="1" /><text x="51" y="80.11538461538458" font-size="10" text-anchor="end">60</text><line x1="54" y1="42" x2="59" y2="42" stroke="black" stroke-width="1" /><text x="51" y="45.5" font-size="10" text-anchor="end">65</text><text x="14" y="270.5" font-size="14" text-anchor="middle" transform="rotate(-90,14,270.5)">Sales (units)</text><text x="385.5" y="21" font-size="16" text-anchor="middle">Stacked Bar Chart</text><rect x="74" y="367.38461538461536" width="120" height="124.61538461538464" fill="steelblue" /><rect x="74" y="284.30769230769226" width="120" height="83.0769230769231" fill="crimson" /><rect x="74" y="222" width="120" height="62.307692307692264" fill="seagreen" /><rect x="224" y="339.6923076923077" width="120" height="152.30769230769232" fill="steelblue" /><rect x="224" y="222" width="120" height="117.69230769230768" fill="crimson" /><rect x="224" y="125.0769230769231" width="120" height="96.9230769230769" fill="seagreen" /><rect x="374" y="360.46153846153845" width="120" height="131.53846153846155" fill="steelblue" /><rect x="374" y="215.07692307692304" width="120" height="145.38461538461542" fill="crimson" /><rect x="374" y="138.9230769230769" width="120" height="76.15384615384613" fill="seagreen" /><rect x="524" y="318.9230769230769" width="120" height="173.0769230769231" fill="steelblue" /><rect x="524" y="215.07692307692304" width="120" height="103.84615384615387" fill="crimson" /><rect x="524" y="90.46153846153845" width="120" height="124.61538461538458" fill="seagreen" /><rect x="664" y="32" width="98" height="74" fill="white" /><rect x="664" y="32" width="98" height="74" fill="none" stroke="black" stroke-width="1" /><text x="694" y="47" font-size="12" text-anchor="start">Product A</text><rect x="674" y="37" width="12" height="12" fill="steelblue" /><text x="694" y="65" font-size="12" text-anchor="start">Product B</text><rect x="674" y="55" width="12" height="12" fill="crimson" /><text x="694" y="83" font-size="12" text-anchor="start">Product C</text><rect x="674" y="73" width="12" height="12" fill="seagreen" /></svg>