<svg xmlns="http://www.w3.org/2000/svg" width="673" height="541" fill="black"><rect width="100%" height="100%" fill="white" /><line x1="59" y1="492" x2="659" y2="492" stroke="black" stroke-width="1" /><line x1="59" y1="42" x2="59" y2="492" stroke="black" stroke-width="1" /><line x1="134" y1="42" x2="134" y2="492" stroke="#ccc" stroke-width="1" /><line x1="209" y1="42" x2="209" y2="492" stroke="#ccc" stroke-width="1" /><line x1="284" y1="42" x2="284" y2="492" stroke="#ccc" stroke-width="1" /><line x1="359" y1="42" x2="359" y2="492" stroke="#ccc" stroke-width="1" /><line x1="434" y1="42" x2="434" y2="492" stroke="#ccc" stroke-width="1" /><line x1="509" y1="42" x2="509" y2="492" stroke="#ccc" stroke-width="1" /><line x1="584" y1="42" x2="584" y2="492" stroke="#ccc" stroke-width="1" /><line x1="659" y1="42" x2="659" y2="492" stroke="#ccc" stroke-width="1" /><line x1="59" y1="435.75" x2="659" y2="435.75" stroke="#ccc" stroke-width="1" /><line x1="59" y1="379.5" x2="659" y2="379.5" stroke="#ccc" stroke-width="1" /><line x1="59" y1="323.25" x2="659" y2="323.25" stroke="#ccc" stroke-width="1" /><line x1="59" y1="267" x2="659" y2="267" stroke="#ccc" stroke-width="1" /><line x1="59" y1="210.75" x2="659" y2="210.75" stroke="#ccc" stroke-width="1" /><line x1="59" y1="154.5" x2="659" y2="154.5" stroke="#ccc" stroke-width="1" /><line x1="59" y1="98.25" x2="659" y2="98.25" stroke="#ccc" stroke-width="1" /><line x1="59" y1="42" x2="659" y2="42" stroke="#ccc" stroke-width="1" /><line x1="59" y1="492" x2="59" y2="497" stroke="black" stroke-width="1" /><text x="59" y="507" font-size="10" text-anchor="middle">-4</text><line x1="134" y1="492" x2="134" y2="497" stroke="black" stroke-width="1" /><text x="134" y="507" font-size="10" text-anchor="middle">-3</text><line x1="209" y1="492" x2="209" y2="497" stroke="black" stroke-width="1" /><text x="209" y="507" font-size="10" text-anchor="middle">-2</text><line x1="284" y1="492" x2="284" y2="497" stroke="black" stroke-width="1" /><text x="284" y="507" font-size="10" text-anchor="middle">-1</text><line x1="359" y1="492" x2="359" y2="497" stroke="black" stroke-width="1" /><text x="359" y="507" font-size="10" text-anchor="middle">0</text><line x1="434" y1="492" x2="434" y2="497" stroke="black" stroke-width="1" /><text x="434" y="507" font-size="10" text-anchor="middle">1</text><line x1="509" y1="492" x2="509" y2="497" stroke="black" stroke-width="1" /><text x="509" y="507" font-size="10" text-anchor="middle">2</text><line x1="584" y1="492" x2="584" y2="497" stroke="black" stroke-width="1" /><text x="584" y="507" font-size="10" text-anchor="middle">3</text><line x1="659" y1="492" x2="659" y2="497" stroke="black" stroke-width="1" /><text x="659" y="507" font-size="10" text-anchor="middle">4</text><line x1="54" y1="492" x2="59" y2="492" stroke="black" stroke-width="1" /><text x="51" y="495.5" font-size="10" text-anchor="end">-4</text><line x1="54" y1="435.75" x2="59" y2="435.75" stroke="black" stroke-width="1" /><text x="51" y="439.25" font-size="10" text-anchor="end">-3</text><line x1="54" y1="379.5" x2="59" y2="379.5" stroke="black" stroke-width="1" /><text x="51" y="383" font-size="10" text-anchor="end">-2</text><line x1="54" y1="323.25" x2="59" y2="323.25" stroke="black" stroke-width="1" /><text x="51" y="326.75" font-size="10" text-anchor="end">-1</text><line x1="54" y1="267" x2="59" y2="267" stroke="black" stroke-width="1" /><text x="51" y="270.5" font-size="10" text-anchor="end">0</text><line x1="54" y1="210.75" x2="59" y2="210.75" stroke="black" stroke-width="1" /><text x="51" y="214.25" font-size="10" text-anchor="end">1</text><line x1="54" y1="154.5" x2="59" y2="154.5" stroke="black" stroke-width="1" /><text x="51" y="158" font-size="10" text-anchor="end">2</text><line x1="54" y1="98.25" x2="59" y2="98.25" stroke="black" stroke-width="1" /><text x="51" y="101.75" font-size="10" text-anchor="end">3</text><line x1="54" y1="42" x2="59" y2="42" stroke="black" stroke-width="1" /><text x="51" y="45.5" font-size="10" text-anchor="end">4</text><text x="336.5" y="534" font-size="14" text-anchor="middle">x</text><text x="14" y="270.5" font-size="14" text-anchor="middle" transform="rotate(-90,14,270.5)">y</text><text x="336.5" y="21" font-size="16" text-anchor="middle">Explicit Iso-levels: 0.1, 0.25, 0.5, 0.75, 0.9</text><path d="M320.97 384.27 L324.68 384.98 M324.68 384.98 L332.31 386.14 M332.31 386.14 L339.93 386.98 M339.93 386.98 L347.56 387.53 M347.56 387.53 L355.19 387.79 M355.19 387.79 L362.81 387.79 M362.81 387.79 L370.44 387.53 M370.44 387.53 L378.07 386.98 M378.07 386.98 L385.69 386.14 M385.69 386.14 L393.32 384.98 M393.32 384.98 L397.03 384.27 M297.53 378.55 L301.80 379.91 M301.80 379.91 L309.42 381.95 M309.42 381.95 L317.05 383.59 M320.97 384.27 L317.05 383.59 M397.03 384.27 L400.95 383.59 M400.95 383.59 L408.58 381.95 M408.58 381.95 L416.20 379.91 M416.20 379.91 L420.47 378.55 M281.57 372.83 L286.54 374.88 M286.54 374.88 L294.17 377.55 M297.53 378.55 L294.17 377.55 M420.47 378.55 L423.83 377.55 M423.83 377.55 L431.46 374.88 M431.46 374.88 L436.43 372.83 M269.03 367.11 L271.29 368.27 M271.29 368.27 L278.92 371.76 M281.57 372.83 L278.92 371.76 M436.43 372.83 L439.08 371.76 M439.08 371.76 L446.71 368.27 M446.71 368.27 L448.97 367.11 M258.62 361.39 L263.66 364.34 M269.03 367.11 L263.66 364.34 M448.97 367.11 L454.34 364.34 M454.34 364.34 L459.38 361.39 M249.74 355.67 L256.03 359.84 M258.62 361.39 L256.03 359.84 M459.38 361.39 L461.97 359.84 M461.97 359.84 L468.26 355.67 M242.02 349.94 L248.41 354.74 M249.74 355.67 L248.41 354.74 M468.26 355.67 L469.59 354.74 M469.59 354.74 L475.98 349.94 M235.22 344.22 L240.78 348.94 M242.02 349.94 L240.78 348.94 M475.98 349.94 L477.22 348.94 M477.22 348.94 L482.78 344.22 M229.22 338.50 L233.15 342.29 M235.22 344.22 L233.15 342.29 M482.78 344.22 L484.85 342.29 M484.85 342.29 L488.78 338.50 M223.98 332.78 L225.53 334.48 M229.22 338.50 L225.53 334.48 M488.78 338.50 L492.47 334.48 M492.47 334.48 L494.02 332.78 M223.98 332.78 L219.31 327.06 M494.02 332.78 L498.69 327.06 M215.16 321.34 L217.90 325.07 M219.31 327.06 L217.90 325.07 M498.69 327.06 L500.10 325.07 M500.10 325.07 L502.84 321.34 M215.16 321.34 L211.60 315.62 M502.84 321.34 L506.40 315.62 M208.46 309.90 L210.27 313.11 M211.60 315.62 L210.27 313.11 M506.40 315.62 L507.73 313.11 M507.73 313.11 L509.54 309.90 M208.46 309.90 L205.73 304.18 M509.54 309.90 L512.27 304.18 M205.73 304.18 L203.55 298.46 M512.27 304.18 L514.45 298.46 M201.69 292.74 L202.64 295.52 M203.55 298.46 L202.64 295.52 M514.45 298.46 L515.36 295.52 M515.36 295.52 L516.31 292.74 M201.69 292.74 L200.14 287.02 M516.31 292.74 L517.86 287.02 M200.14 287.02 L199.03 281.30 M517.86 287.02 L518.97 281.30 M199.03 281.30 L198.30 275.58 M518.97 281.30 L519.70 275.58 M198.30 275.58 L197.94 269.86 M519.70 275.58 L520.06 269.86 M197.94 269.86 L197.94 264.14 M520.06 269.86 L520.06 264.14 M197.94 264.14 L198.30 258.42 M520.06 264.14 L519.70 258.42 M198.30 258.42 L199.03 252.70 M519.70 258.42 L518.97 252.70 M199.03 252.70 L200.14 246.98 M518.97 252.70 L517.86 246.98 M200.14 246.98 L201.69 241.26 M517.86 246.98 L516.31 241.26 M201.69 241.26 L202.64 238.48 M202.64 238.48 L203.55 235.54 M515.36 238.48 L514.45 235.54 M516.31 241.26 L515.36 238.48 M203.55 235.54 L205.73 229.82 M514.45 235.54 L512.27 229.82 M205.73 229.82 L208.46 224.10 M512.27 229.82 L509.54 224.10 M208.46 224.10 L210.27 220.89 M210.27 220.89 L211.60 218.38 M507.73 220.89 L506.40 218.38 M509.54 224.10 L507.73 220.89 M211.60 218.38 L215.16 212.66 M506.40 218.38 L502.84 212.66 M215.16 212.66 L217.90 208.93 M217.90 208.93 L219.31 206.94 M500.10 208.93 L498.69 206.94 M502.84 212.66 L500.10 208.93 M219.31 206.94 L223.98 201.22 M498.69 206.94 L494.02 201.22 M223.98 201.22 L225.53 199.52 M225.53 199.52 L229.22 195.50 M492.47 199.52 L488.78 195.50 M494.02 201.22 L492.47 199.52 M229.22 195.50 L233.15 191.71 M233.15 191.71 L235.22 189.78 M484.85 191.71 L482.78 189.78 M488.78 195.50 L484.85 191.71 M235.22 189.78 L240.78 185.06 M240.78 185.06 L242.02 184.06 M477.22 185.06 L475.98 184.06 M482.78 189.78 L477.22 185.06 M242.02 184.06 L248.41 179.26 M248.41 179.26 L249.74 178.33 M469.59 179.26 L468.26 178.33 M475.98 184.06 L469.59 179.26 M249.74 178.33 L256.03 174.16 M256.03 174.16 L258.62 172.61 M461.97 174.16 L459.38 172.61 M468.26 178.33 L461.97 174.16 M258.62 172.61 L263.66 169.66 M263.66 169.66 L269.03 166.89 M454.34 169.66 L448.97 166.89 M459.38 172.61 L454.34 169.66 M269.03 166.89 L271.29 165.73 M271.29 165.73 L278.92 162.24 M278.92 162.24 L281.57 161.17 M439.08 162.24 L436.43 161.17 M439.08 162.24 L446.71 165.73 M448.97 166.89 L446.71 165.73 M281.57 161.17 L286.54 159.12 M286.54 159.12 L294.17 156.45 M294.17 156.45 L297.53 155.45 M423.83 156.45 L420.47 155.45 M423.83 156.45 L431.46 159.12 M436.43 161.17 L431.46 159.12 M297.53 155.45 L301.80 154.09 M301.80 154.09 L309.42 152.05 M309.42 152.05 L317.05 150.41 M317.05 150.41 L320.97 149.73 M400.95 150.41 L397.03 149.73 M400.95 150.41 L408.58 152.05 M408.58 152.05 L416.20 154.09 M420.47 155.45 L416.20 154.09 M320.97 149.73 L324.68 149.02 M324.68 149.02 L332.31 147.86 M332.31 147.86 L339.93 147.02 M339.93 147.02 L347.56 146.47 M347.56 146.47 L355.19 146.21 M355.19 146.21 L362.81 146.21 M362.81 146.21 L370.44 146.47 M370.44 146.47 L378.07 147.02 M378.07 147.02 L385.69 147.86 M385.69 147.86 L393.32 149.02 M397.03 149.73 L393.32 149.02 " stroke="darkgreen" stroke-width="1.5" fill="none" /><path d="M318.85 355.67 L324.68 357.11 M324.68 357.11 L332.31 358.57 M332.31 358.57 L339.93 359.63 M339.93 359.63 L347.56 360.31 M347.56 360.31 L355.19 360.65 M355.19 360.65 L362.81 360.65 M362.81 360.65 L370.44 360.31 M370.44 360.31 L378.07 359.63 M378.07 359.63 L385.69 358.57 M385.69 358.57 L393.32 357.11 M393.32 357.11 L399.15 355.67 M301.01 349.94 L301.80 350.27 M301.80 350.27 L309.42 353.03 M309.42 353.03 L317.05 355.24 M318.85 355.67 L317.05 355.24 M399.15 355.67 L400.95 355.24 M400.95 355.24 L408.58 353.03 M408.58 353.03 L416.20 350.27 M416.20 350.27 L416.99 349.94 M288.34 344.22 L294.17 347.11 M301.01 349.94 L294.17 347.11 M416.99 349.94 L423.83 347.11 M423.83 347.11 L429.66 344.22 M278.33 338.50 L278.92 338.88 M278.92 338.88 L286.54 343.31 M288.34 344.22 L286.54 343.31 M429.66 344.22 L431.46 343.31 M431.46 343.31 L439.08 338.88 M439.08 338.88 L439.67 338.50 M270.08 332.78 L271.29 333.69 M278.33 338.50 L271.29 333.69 M439.67 338.50 L446.71 333.69 M446.71 333.69 L447.92 332.78 M263.16 327.06 L263.66 327.50 M270.08 332.78 L263.66 327.50 M447.92 332.78 L454.34 327.50 M454.34 327.50 L454.84 327.06 M263.16 327.06 L257.26 321.34 M454.84 327.06 L460.74 321.34 M252.19 315.62 L256.03 319.99 M257.26 321.34 L256.03 319.99 M460.74 321.34 L461.97 319.99 M461.97 319.99 L465.81 315.62 M247.97 309.90 L248.41 310.49 M252.19 315.62 L248.41 310.49 M465.81 315.62 L469.59 310.49 M469.59 310.49 L470.03 309.90 M247.97 309.90 L244.29 304.18 M470.03 309.90 L473.71 304.18 M244.29 304.18 L241.35 298.46 M473.71 304.18 L476.65 298.46 M238.85 292.74 L240.78 297.11 M241.35 298.46 L240.78 297.11 M476.65 298.46 L477.22 297.11 M477.22 297.11 L479.15 292.74 M238.85 292.74 L236.91 287.02 M479.15 292.74 L481.09 287.02 M236.91 287.02 L235.50 281.30 M481.09 287.02 L482.50 281.30 M235.50 281.30 L234.58 275.58 M482.50 281.30 L483.42 275.58 M234.58 275.58 L234.13 269.86 M483.42 275.58 L483.87 269.86 M234.13 269.86 L234.13 264.14 M483.87 269.86 L483.87 264.14 M234.13 264.14 L234.58 258.42 M483.87 264.14 L483.42 258.42 M234.58 258.42 L235.50 252.70 M483.42 258.42 L482.50 252.70 M235.50 252.70 L236.91 246.98 M482.50 252.70 L481.09 246.98 M236.91 246.98 L238.85 241.26 M481.09 246.98 L479.15 241.26 M238.85 241.26 L240.78 236.89 M240.78 236.89 L241.35 235.54 M477.22 236.89 L476.65 235.54 M479.15 241.26 L477.22 236.89 M241.35 235.54 L244.29 229.82 M476.65 235.54 L473.71 229.82 M244.29 229.82 L247.97 224.10 M473.71 229.82 L470.03 224.10 M247.97 224.10 L248.41 223.51 M248.41 223.51 L252.19 218.38 M469.59 223.51 L465.81 218.38 M470.03 224.10 L469.59 223.51 M252.19 218.38 L256.03 214.01 M256.03 214.01 L257.26 212.66 M461.97 214.01 L460.74 212.66 M465.81 218.38 L461.97 214.01 M257.26 212.66 L263.16 206.94 M460.74 212.66 L454.84 206.94 M263.16 206.94 L263.66 206.50 M263.66 206.50 L270.08 201.22 M454.34 206.50 L447.92 201.22 M454.84 206.94 L454.34 206.50 M270.08 201.22 L271.29 200.31 M271.29 200.31 L278.33 195.50 M446.71 200.31 L439.67 195.50 M447.92 201.22 L446.71 200.31 M278.33 195.50 L278.92 195.12 M278.92 195.12 L286.54 190.69 M286.54 190.69 L288.34 189.78 M431.46 190.69 L429.66 189.78 M431.46 190.69 L439.08 195.12 M439.67 195.50 L439.08 195.12 M288.34 189.78 L294.17 186.89 M294.17 186.89 L301.01 184.06 M423.83 186.89 L416.99 184.06 M429.66 189.78 L423.83 186.89 M301.01 184.06 L301.80 183.73 M301.80 183.73 L309.42 180.97 M309.42 180.97 L317.05 178.76 M317.05 178.76 L318.85 178.33 M400.95 178.76 L399.15 178.33 M400.95 178.76 L408.58 180.97 M408.58 180.97 L416.20 183.73 M416.99 184.06 L416.20 183.73 M318.85 178.33 L324.68 176.89 M324.68 176.89 L332.31 175.43 M332.31 175.43 L339.93 174.37 M339.93 174.37 L347.56 173.69 M347.56 173.69 L355.19 173.35 M355.19 173.35 L362.81 173.35 M362.81 173.35 L370.44 173.69 M370.44 173.69 L378.07 174.37 M378.07 174.37 L385.69 175.43 M385.69 175.43 L393.32 176.89 M399.15 178.33 L393.32 176.89 " stroke="darkgreen" stroke-width="1.5" fill="none" /><path d="M349.28 332.78 L355.19 333.17 M355.19 333.17 L362.81 333.17 M362.81 333.17 L368.72 332.78 M321.93 327.06 L324.68 328.03 M324.68 328.03 L332.31 330.15 M332.31 330.15 L339.93 331.68 M339.93 331.68 L347.56 332.67 M349.28 332.78 L347.56 332.67 M368.72 332.78 L370.44 332.67 M370.44 332.67 L378.07 331.68 M378.07 331.68 L385.69 330.15 M385.69 330.15 L393.32 328.03 M393.32 328.03 L396.07 327.06 M308.55 321.34 L309.42 321.81 M309.42 321.81 L317.05 325.28 M321.93 327.06 L317.05 325.28 M396.07 327.06 L400.95 325.28 M400.95 325.28 L408.58 321.81 M408.58 321.81 L409.45 321.34 M299.08 315.62 L301.80 317.44 M308.55 321.34 L301.80 317.44 M409.45 321.34 L416.20 317.44 M416.20 317.44 L418.92 315.62 M291.74 309.90 L294.17 311.94 M299.08 315.62 L294.17 311.94 M418.92 315.62 L423.83 311.94 M423.83 311.94 L426.26 309.90 M285.92 304.18 L286.54 304.83 M291.74 309.90 L286.54 304.83 M426.26 309.90 L431.46 304.83 M431.46 304.83 L432.08 304.18 M285.92 304.18 L281.29 298.46 M432.08 304.18 L436.71 298.46 M277.63 292.74 L278.92 294.80 M281.29 298.46 L278.92 294.80 M436.71 298.46 L439.08 294.80 M439.08 294.80 L440.37 292.74 M277.63 292.74 L274.80 287.02 M440.37 292.74 L443.20 287.02 M274.80 287.02 L272.76 281.30 M443.20 287.02 L445.24 281.30 M272.76 281.30 L271.44 275.58 M445.24 281.30 L446.56 275.58 M270.77 269.86 L271.29 274.29 M271.44 275.58 L271.29 274.29 M446.56 275.58 L446.71 274.29 M446.71 274.29 L447.23 269.86 M270.77 269.86 L270.77 264.14 M447.23 269.86 L447.23 264.14 M270.77 264.14 L271.29 259.71 M271.29 259.71 L271.44 258.42 M446.71 259.71 L446.56 258.42 M447.23 264.14 L446.71 259.71 M271.44 258.42 L272.76 252.70 M446.56 258.42 L445.24 252.70 M272.76 252.70 L274.80 246.98 M445.24 252.70 L443.20 246.98 M274.80 246.98 L277.63 241.26 M443.20 246.98 L440.37 241.26 M277.63 241.26 L278.92 239.20 M278.92 239.20 L281.29 235.54 M439.08 239.20 L436.71 235.54 M440.37 241.26 L439.08 239.20 M281.29 235.54 L285.92 229.82 M436.71 235.54 L432.08 229.82 M285.92 229.82 L286.54 229.17 M286.54 229.17 L291.74 224.10 M431.46 229.17 L426.26 224.10 M432.08 229.82 L431.46 229.17 M291.74 224.10 L294.17 222.06 M294.17 222.06 L299.08 218.38 M423.83 222.06 L418.92 218.38 M426.26 224.10 L423.83 222.06 M299.08 218.38 L301.80 216.56 M301.80 216.56 L308.55 212.66 M416.20 216.56 L409.45 212.66 M418.92 218.38 L416.20 216.56 M308.55 212.66 L309.42 212.19 M309.42 212.19 L317.05 208.72 M317.05 208.72 L321.93 206.94 M400.95 208.72 L396.07 206.94 M400.95 208.72 L408.58 212.19 M409.45 212.66 L408.58 212.19 M321.93 206.94 L324.68 205.97 M324.68 205.97 L332.31 203.85 M332.31 203.85 L339.93 202.32 M339.93 202.32 L347.56 201.33 M347.56 201.33 L349.28 201.22 M370.44 201.33 L368.72 201.22 M370.44 201.33 L378.07 202.32 M378.07 202.32 L385.69 203.85 M385.69 203.85 L393.32 205.97 M396.07 206.94 L393.32 205.97 M349.28 201.22 L355.19 200.83 M355.19 200.83 L362.81 200.83 M368.72 201.22 L362.81 200.83 " stroke="darkgreen" stroke-width="1.5" fill="none" /><path d="M331.20 304.18 L332.31 304.66 M332.31 304.66 L339.93 307.15 M339.93 307.15 L347.56 308.77 M347.56 308.77 L355.19 309.56 M355.19 309.56 L362.81 309.56 M362.81 309.56 L370.44 308.77 M370.44 308.77 L378.07 307.15 M378.07 307.15 L385.69 304.66 M385.69 304.66 L386.80 304.18 M320.71 298.46 L324.68 300.95 M331.20 304.18 L324.68 300.95 M386.80 304.18 L393.32 300.95 M393.32 300.95 L397.29 298.46 M313.73 292.74 L317.05 295.72 M320.71 298.46 L317.05 295.72 M397.29 298.46 L400.95 295.72 M400.95 295.72 L404.27 292.74 M308.78 287.02 L309.42 287.85 M313.73 292.74 L309.42 287.85 M404.27 292.74 L408.58 287.85 M408.58 287.85 L409.22 287.02 M308.78 287.02 L305.47 281.30 M409.22 287.02 L412.53 281.30 M305.47 281.30 L303.31 275.58 M412.53 281.30 L414.69 275.58 M303.31 275.58 L302.25 269.86 M414.69 275.58 L415.75 269.86 M302.25 269.86 L302.25 264.14 M415.75 269.86 L415.75 264.14 M302.25 264.14 L303.31 258.42 M415.75 264.14 L414.69 258.42 M303.31 258.42 L305.47 252.70 M414.69 258.42 L412.53 252.70 M305.47 252.70 L308.78 246.98 M412.53 252.70 L409.22 246.98 M308.78 246.98 L309.42 246.15 M309.42 246.15 L313.73 241.26 M408.58 246.15 L404.27 241.26 M409.22 246.98 L408.58 246.15 M313.73 241.26 L317.05 238.28 M317.05 238.28 L320.71 235.54 M400.95 238.28 L397.29 235.54 M404.27 241.26 L400.95 238.28 M320.71 235.54 L324.68 233.05 M324.68 233.05 L331.20 229.82 M393.32 233.05 L386.80 229.82 M397.29 235.54 L393.32 233.05 M331.20 229.82 L332.31 229.34 M332.31 229.34 L339.93 226.85 M339.93 226.85 L347.56 225.23 M347.56 225.23 L355.19 224.44 M355.19 224.44 L362.81 224.44 M362.81 224.44 L370.44 225.23 M370.44 225.23 L378.07 226.85 M378.07 226.85 L385.69 229.34 M386.80 229.82 L385.69 229.34 " stroke="darkgreen" stroke-width="1.5" fill="none" /><path d="M337.52 287.02 L339.93 288.38 M339.93 288.38 L347.56 291.25 M347.56 291.25 L355.19 292.65 M355.19 292.65 L362.81 292.65 M362.81 292.65 L370.44 291.25 M370.44 291.25 L378.07 288.38 M378.07 288.38 L380.48 287.02 M330.49 281.30 L332.31 283.11 M337.52 287.02 L332.31 283.11 M380.48 287.02 L385.69 283.11 M385.69 283.11 L387.51 281.30 M330.49 281.30 L326.67 275.58 M387.51 281.30 L391.33 275.58 M326.67 275.58 L324.79 269.86 M391.33 275.58 L393.21 269.86 M324.79 269.86 L324.79 264.14 M393.21 269.86 L393.21 264.14 M324.79 264.14 L326.67 258.42 M393.21 264.14 L391.33 258.42 M326.67 258.42 L330.49 252.70 M391.33 258.42 L387.51 252.70 M330.49 252.70 L332.31 250.89 M332.31 250.89 L337.52 246.98 M385.69 250.89 L380.48 246.98 M387.51 252.70 L385.69 250.89 M337.52 246.98 L339.93 245.62 M339.93 245.62 L347.56 242.75 M347.56 242.75 L355.19 241.35 M355.19 241.35 L362.81 241.35 M362.81 241.35 L370.44 242.75 M370.44 242.75 L378.07 245.62 M380.48 246.98 L378.07 245.62 " stroke="darkgreen" stroke-width="1.5" fill="none" /></svg>