<svg xmlns="http://www.w3.org/2000/svg" width="673" height="541" fill="black"><rect width="100%" height="100%" fill="white" /><line x1="59" y1="492" x2="659" y2="492" stroke="black" stroke-width="1" /><line x1="59" y1="42" x2="59" y2="492" stroke="black" stroke-width="1" /><line x1="101.85714285714286" y1="42" x2="101.85714285714286" y2="492" stroke="#ccc" stroke-width="1" /><line x1="144.71428571428572" y1="42" x2="144.71428571428572" y2="492" stroke="#ccc" stroke-width="1" /><line x1="187.57142857142856" y1="42" x2="187.57142857142856" y2="492" stroke="#ccc" stroke-width="1" /><line x1="230.42857142857142" y1="42" x2="230.42857142857142" y2="492" stroke="#ccc" stroke-width="1" /><line x1="273.2857142857143" y1="42" x2="273.2857142857143" y2="492" stroke="#ccc" stroke-width="1" /><line x1="316.1428571428571" y1="42" x2="316.1428571428571" y2="492" stroke="#ccc" stroke-width="1" /><line x1="359" y1="42" x2="359" y2="492" stroke="#ccc" stroke-width="1" /><line x1="401.85714285714283" y1="42" x2="401.85714285714283" y2="492" stroke="#ccc" stroke-width="1" /><line x1="444.7142857142857" y1="42" x2="444.7142857142857" y2="492" stroke="#ccc" stroke-width="1" /><line x1="487.57142857142856" y1="42" x2="487.57142857142856" y2="492" stroke="#ccc" stroke-width="1" /><line x1="530.4285714285714" y1="42" x2="530.4285714285714" y2="492" stroke="#ccc" stroke-width="1" /><line x1="573.2857142857142" y1="42" x2="573.2857142857142" y2="492" stroke="#ccc" stroke-width="1" /><line x1="616.1428571428571" y1="42" x2="616.1428571428571" y2="492" stroke="#ccc" stroke-width="1" /><line x1="659" y1="42" x2="659" y2="492" stroke="#ccc" stroke-width="1" /><line x1="59" y1="459.8571428571429" x2="659" y2="459.8571428571429" stroke="#ccc" stroke-width="1" /><line x1="59" y1="427.7142857142857" x2="659" y2="427.7142857142857" stroke="#ccc" stroke-width="1" /><line x1="59" y1="395.57142857142856" x2="659" y2="395.57142857142856" stroke="#ccc" stroke-width="1" /><line x1="59" y1="363.42857142857144" x2="659" y2="363.42857142857144" stroke="#ccc" stroke-width="1" /><line x1="59" y1="331.2857142857143" x2="659" y2="331.2857142857143" stroke="#ccc" stroke-width="1" /><line x1="59" y1="299.14285714285717" x2="659" y2="299.14285714285717" stroke="#ccc" stroke-width="1" /><line x1="59" y1="267" x2="659" y2="267" stroke="#ccc" stroke-width="1" /><line x1="59" y1="234.8571428571429" x2="659" y2="234.8571428571429" stroke="#ccc" stroke-width="1" /><line x1="59" y1="202.71428571428567" x2="659" y2="202.71428571428567" stroke="#ccc" stroke-width="1" /><line x1="59" y1="170.57142857142856" x2="659" y2="170.57142857142856" stroke="#ccc" stroke-width="1" /><line x1="59" y1="138.42857142857144" x2="659" y2="138.42857142857144" stroke="#ccc" stroke-width="1" /><line x1="59" y1="106.28571428571433" x2="659" y2="106.28571428571433" stroke="#ccc" stroke-width="1" /><line x1="59" y1="74.14285714285711" x2="659" y2="74.14285714285711" stroke="#ccc" stroke-width="1" /><line x1="59" y1="42" x2="659" y2="42" stroke="#ccc" stroke-width="1" /><line x1="59" y1="492" x2="59" y2="497" stroke="black" stroke-width="1" /><text x="59" y="507" font-size="10" text-anchor="middle">-3.5</text><line x1="101.85714285714286" y1="492" x2="101.85714285714286" y2="497" stroke="black" stroke-width="1" /><text x="101.85714285714286" y="507" font-size="10" text-anchor="middle">-3</text><line x1="144.71428571428572" y1="492" x2="144.71428571428572" y2="497" stroke="black" stroke-width="1" /><text x="144.71428571428572" y="507" font-size="10" text-anchor="middle">-2.5</text><line x1="187.57142857142856" y1="492" x2="187.57142857142856" y2="497" stroke="black" stroke-width="1" /><text x="187.57142857142856" y="507" font-size="10" text-anchor="middle">-2</text><line x1="230.42857142857142" y1="492" x2="230.42857142857142" y2="497" stroke="black" stroke-width="1" /><text x="230.42857142857142" y="507" font-size="10" text-anchor="middle">-1.5</text><line x1="273.2857142857143" y1="492" x2="273.2857142857143" y2="497" stroke="black" stroke-width="1" /><text x="273.2857142857143" y="507" font-size="10" text-anchor="middle">-1</text><line x1="316.1428571428571" y1="492" x2="316.1428571428571" y2="497" stroke="black" stroke-width="1" /><text x="316.1428571428571" y="507" font-size="10" text-anchor="middle">-0.5</text><line x1="359" y1="492" x2="359" y2="497" stroke="black" stroke-width="1" /><text x="359" y="507" font-size="10" text-anchor="middle">0</text><line x1="401.85714285714283" y1="492" x2="401.85714285714283" y2="497" stroke="black" stroke-width="1" /><text x="401.85714285714283" y="507" font-size="10" text-anchor="middle">0.5</text><line x1="444.7142857142857" y1="492" x2="444.7142857142857" y2="497" stroke="black" stroke-width="1" /><text x="444.7142857142857" y="507" font-size="10" text-anchor="middle">1</text><line x1="487.57142857142856" y1="492" x2="487.57142857142856" y2="497" stroke="black" stroke-width="1" /><text x="487.57142857142856" y="507" font-size="10" text-anchor="middle">1.5</text><line x1="530.4285714285714" y1="492" x2="530.4285714285714" y2="497" stroke="black" stroke-width="1" /><text x="530.4285714285714" y="507" font-size="10" text-anchor="middle">2</text><line x1="573.2857142857142" y1="492" x2="573.2857142857142" y2="497" stroke="black" stroke-width="1" /><text x="573.2857142857142" y="507" font-size="10" text-anchor="middle">2.5</text><line x1="616.1428571428571" y1="492" x2="616.1428571428571" y2="497" stroke="black" stroke-width="1" /><text x="616.1428571428571" y="507" font-size="10" text-anchor="middle">3</text><line x1="659" y1="492" x2="659" y2="497" stroke="black" stroke-width="1" /><text x="659" y="507" font-size="10" text-anchor="middle">3.5</text><line x1="54" y1="492" x2="59" y2="492" stroke="black" stroke-width="1" /><text x="51" y="495.5" font-size="10" text-anchor="end">-3.5</text><line x1="54" y1="459.8571428571429" x2="59" y2="459.8571428571429" stroke="black" stroke-width="1" /><text x="51" y="463.3571428571429" font-size="10" text-anchor="end">-3</text><line x1="54" y1="427.7142857142857" x2="59" y2="427.7142857142857" stroke="black" stroke-width="1" /><text x="51" y="431.2142857142857" font-size="10" text-anchor="end">-2.5</text><line x1="54" y1="395.57142857142856" x2="59" y2="395.57142857142856" stroke="black" stroke-width="1" /><text x="51" y="399.07142857142856" font-size="10" text-anchor="end">-2</text><line x1="54" y1="363.42857142857144" x2="59" y2="363.42857142857144" stroke="black" stroke-width="1" /><text x="51" y="366.92857142857144" font-size="10" text-anchor="end">-1.5</text><line x1="54" y1="331.2857142857143" x2="59" y2="331.2857142857143" stroke="black" stroke-width="1" /><text x="51" y="334.7857142857143" font-size="10" text-anchor="end">-1</text><line x1="54" y1="299.14285714285717" x2="59" y2="299.14285714285717" stroke="black" stroke-width="1" /><text x="51" y="302.64285714285717" font-size="10" text-anchor="end">-0.5</text><line x1="54" y1="267" x2="59" y2="267" stroke="black" stroke-width="1" /><text x="51" y="270.5" font-size="10" text-anchor="end">0</text><line x1="54" y1="234.8571428571429" x2="59" y2="234.8571428571429" stroke="black" stroke-width="1" /><text x="51" y="238.3571428571429" font-size="10" text-anchor="end">0.5</text><line x1="54" y1="202.71428571428567" x2="59" y2="202.71428571428567" stroke="black" stroke-width="1" /><text x="51" y="206.21428571428567" font-size="10" text-anchor="end">1</text><line x1="54" y1="170.57142857142856" x2="59" y2="170.57142857142856" stroke="black" stroke-width="1" /><text x="51" y="174.07142857142856" font-size="10" text-anchor="end">1.5</text><line x1="54" y1="138.42857142857144" x2="59" y2="138.42857142857144" stroke="black" stroke-width="1" /><text x="51" y="141.92857142857144" font-size="10" text-anchor="end">2</text><line x1="54" y1="106.28571428571433" x2="59" y2="106.28571428571433" stroke="black" stroke-width="1" /><text x="51" y="109.78571428571433" font-size="10" text-anchor="end">2.5</text><line x1="54" y1="74.14285714285711" x2="59" y2="74.14285714285711" stroke="black" stroke-width="1" /><text x="51" y="77.64285714285711" font-size="10" text-anchor="end">3</text><line x1="54" y1="42" x2="59" y2="42" stroke="black" stroke-width="1" /><text x="51" y="45.5" font-size="10" text-anchor="end">3.5</text><text x="336.5" y="534" font-size="14" text-anchor="middle">x</text><text x="14" y="270.5" font-size="14" text-anchor="middle" transform="rotate(-90,14,270.5)">y</text><text x="336.5" y="21" font-size="16" text-anchor="middle">Explicit Iso-levels: 0.1, 0.25, 0.5, 0.75, 0.9</text><path d="M315.54 401.02 L319.77 401.84 M319.77 401.84 L328.49 403.16 M328.49 403.16 L337.21 404.12 M337.21 404.12 L345.92 404.74 M345.92 404.74 L354.64 405.05 M354.64 405.05 L363.36 405.05 M363.36 405.05 L372.08 404.74 M372.08 404.74 L380.79 404.12 M380.79 404.12 L389.51 403.16 M389.51 403.16 L398.23 401.84 M398.23 401.84 L402.46 401.02 M288.74 394.48 L293.62 396.04 M293.62 396.04 L302.34 398.37 M302.34 398.37 L311.06 400.24 M315.54 401.02 L311.06 400.24 M402.46 401.02 L406.94 400.24 M406.94 400.24 L415.66 398.37 M415.66 398.37 L424.38 396.04 M424.38 396.04 L429.26 394.48 M270.51 387.94 L276.19 390.29 M276.19 390.29 L284.91 393.34 M288.74 394.48 L284.91 393.34 M429.26 394.48 L433.09 393.34 M433.09 393.34 L441.81 390.29 M441.81 390.29 L447.49 387.94 M256.18 381.41 L258.76 382.74 M258.76 382.74 L267.47 386.73 M270.51 387.94 L267.47 386.73 M447.49 387.94 L450.53 386.73 M450.53 386.73 L459.24 382.74 M459.24 382.74 L461.82 381.41 M244.28 374.87 L250.04 378.24 M256.18 381.41 L250.04 378.24 M461.82 381.41 L467.96 378.24 M467.96 378.24 L473.72 374.87 M234.13 368.33 L241.32 373.10 M244.28 374.87 L241.32 373.10 M473.72 374.87 L476.68 373.10 M476.68 373.10 L483.87 368.33 M225.31 361.79 L232.61 367.27 M234.13 368.33 L232.61 367.27 M483.87 368.33 L485.39 367.27 M485.39 367.27 L492.69 361.79 M217.54 355.26 L223.89 360.65 M225.31 361.79 L223.89 360.65 M492.69 361.79 L494.11 360.65 M494.11 360.65 L500.46 355.26 M210.68 348.72 L215.17 353.04 M217.54 355.26 L215.17 353.04 M500.46 355.26 L502.83 353.04 M502.83 353.04 L507.32 348.72 M204.69 342.18 L206.46 344.12 M210.68 348.72 L206.46 344.12 M507.32 348.72 L511.54 344.12 M511.54 344.12 L513.31 342.18 M204.69 342.18 L199.36 335.64 M513.31 342.18 L518.64 335.64 M194.61 329.11 L197.74 333.37 M199.36 335.64 L197.74 333.37 M518.64 335.64 L520.26 333.37 M520.26 333.37 L523.39 329.11 M194.61 329.11 L190.55 322.57 M523.39 329.11 L527.45 322.57 M186.95 316.03 L189.02 319.69 M190.55 322.57 L189.02 319.69 M527.45 322.57 L528.98 319.69 M528.98 319.69 L531.05 316.03 M186.95 316.03 L183.84 309.49 M531.05 316.03 L534.16 309.49 M183.84 309.49 L181.34 302.96 M534.16 309.49 L536.66 302.96 M179.21 296.42 L180.31 299.60 M181.34 302.96 L180.31 299.60 M536.66 302.96 L537.69 299.60 M537.69 299.60 L538.79 296.42 M179.21 296.42 L177.45 289.88 M538.79 296.42 L540.55 289.88 M177.45 289.88 L176.17 283.34 M540.55 289.88 L541.83 283.34 M176.17 283.34 L175.34 276.81 M541.83 283.34 L542.66 276.81 M175.34 276.81 L174.93 270.27 M542.66 276.81 L543.07 270.27 M174.93 270.27 L174.93 263.73 M543.07 270.27 L543.07 263.73 M174.93 263.73 L175.34 257.19 M543.07 263.73 L542.66 257.19 M175.34 257.19 L176.17 250.66 M542.66 257.19 L541.83 250.66 M176.17 250.66 L177.45 244.12 M541.83 250.66 L540.55 244.12 M177.45 244.12 L179.21 237.58 M540.55 244.12 L538.79 237.58 M179.21 237.58 L180.31 234.40 M180.31 234.40 L181.34 231.04 M537.69 234.40 L536.66 231.04 M538.79 237.58 L537.69 234.40 M181.34 231.04 L183.84 224.51 M536.66 231.04 L534.16 224.51 M183.84 224.51 L186.95 217.97 M534.16 224.51 L531.05 217.97 M186.95 217.97 L189.02 214.31 M189.02 214.31 L190.55 211.43 M528.98 214.31 L527.45 211.43 M531.05 217.97 L528.98 214.31 M190.55 211.43 L194.61 204.89 M527.45 211.43 L523.39 204.89 M194.61 204.89 L197.74 200.63 M197.74 200.63 L199.36 198.36 M520.26 200.63 L518.64 198.36 M523.39 204.89 L520.26 200.63 M199.36 198.36 L204.69 191.82 M518.64 198.36 L513.31 191.82 M204.69 191.82 L206.46 189.88 M206.46 189.88 L210.68 185.28 M511.54 189.88 L507.32 185.28 M513.31 191.82 L511.54 189.88 M210.68 185.28 L215.17 180.96 M215.17 180.96 L217.54 178.74 M502.83 180.96 L500.46 178.74 M507.32 185.28 L502.83 180.96 M217.54 178.74 L223.89 173.35 M223.89 173.35 L225.31 172.21 M494.11 173.35 L492.69 172.21 M500.46 178.74 L494.11 173.35 M225.31 172.21 L232.61 166.73 M232.61 166.73 L234.13 165.67 M485.39 166.73 L483.87 165.67 M492.69 172.21 L485.39 166.73 M234.13 165.67 L241.32 160.90 M241.32 160.90 L244.28 159.13 M476.68 160.90 L473.72 159.13 M483.87 165.67 L476.68 160.90 M244.28 159.13 L250.04 155.76 M250.04 155.76 L256.18 152.59 M467.96 155.76 L461.82 152.59 M473.72 159.13 L467.96 155.76 M256.18 152.59 L258.76 151.26 M258.76 151.26 L267.47 147.27 M267.47 147.27 L270.51 146.06 M450.53 147.27 L447.49 146.06 M450.53 147.27 L459.24 151.26 M461.82 152.59 L459.24 151.26 M270.51 146.06 L276.19 143.71 M276.19 143.71 L284.91 140.66 M284.91 140.66 L288.74 139.52 M433.09 140.66 L429.26 139.52 M433.09 140.66 L441.81 143.71 M447.49 146.06 L441.81 143.71 M288.74 139.52 L293.62 137.96 M293.62 137.96 L302.34 135.63 M302.34 135.63 L311.06 133.76 M311.06 133.76 L315.54 132.98 M406.94 133.76 L402.46 132.98 M406.94 133.76 L415.66 135.63 M415.66 135.63 L424.38 137.96 M429.26 139.52 L424.38 137.96 M315.54 132.98 L319.77 132.16 M319.77 132.16 L328.49 130.84 M328.49 130.84 L337.21 129.88 M337.21 129.88 L345.92 129.26 M345.92 129.26 L354.64 128.95 M354.64 128.95 L363.36 128.95 M363.36 128.95 L372.08 129.26 M372.08 129.26 L380.79 129.88 M380.79 129.88 L389.51 130.84 M389.51 130.84 L398.23 132.16 M402.46 132.98 L398.23 132.16 " stroke="darkgreen" stroke-width="1.5" fill="none" /><path d="M313.11 368.33 L319.77 369.98 M319.77 369.98 L328.49 371.65 M328.49 371.65 L337.21 372.86 M337.21 372.86 L345.92 373.65 M345.92 373.65 L354.64 374.03 M354.64 374.03 L363.36 374.03 M363.36 374.03 L372.08 373.65 M372.08 373.65 L380.79 372.86 M380.79 372.86 L389.51 371.65 M389.51 371.65 L398.23 369.98 M398.23 369.98 L404.89 368.33 M292.72 361.79 L293.62 362.17 M293.62 362.17 L302.34 365.32 M302.34 365.32 L311.06 367.84 M313.11 368.33 L311.06 367.84 M404.89 368.33 L406.94 367.84 M406.94 367.84 L415.66 365.32 M415.66 365.32 L424.38 362.17 M424.38 362.17 L425.28 361.79 M278.25 355.26 L284.91 358.55 M292.72 361.79 L284.91 358.55 M425.28 361.79 L433.09 358.55 M433.09 358.55 L439.75 355.26 M266.81 348.72 L267.47 349.15 M267.47 349.15 L276.19 354.21 M278.25 355.26 L276.19 354.21 M439.75 355.26 L441.81 354.21 M441.81 354.21 L450.53 349.15 M450.53 349.15 L451.19 348.72 M257.38 342.18 L258.76 343.21 M266.81 348.72 L258.76 343.21 M451.19 348.72 L459.24 343.21 M459.24 343.21 L460.62 342.18 M249.47 335.64 L250.04 336.14 M257.38 342.18 L250.04 336.14 M460.62 342.18 L467.96 336.14 M467.96 336.14 L468.53 335.64 M249.47 335.64 L242.72 329.11 M468.53 335.64 L475.28 329.11 M236.93 322.57 L241.32 327.56 M242.72 329.11 L241.32 327.56 M475.28 329.11 L476.68 327.56 M476.68 327.56 L481.07 322.57 M232.11 316.03 L232.61 316.71 M236.93 322.57 L232.61 316.71 M481.07 322.57 L485.39 316.71 M485.39 316.71 L485.89 316.03 M232.11 316.03 L227.91 309.49 M485.89 316.03 L490.09 309.49 M227.91 309.49 L224.54 302.96 M490.09 309.49 L493.46 302.96 M221.69 296.42 L223.89 301.41 M224.54 302.96 L223.89 301.41 M493.46 302.96 L494.11 301.41 M494.11 301.41 L496.31 296.42 M221.69 296.42 L219.46 289.88 M496.31 296.42 L498.54 289.88 M219.46 289.88 L217.85 283.34 M498.54 289.88 L500.15 283.34 M217.85 283.34 L216.81 276.81 M500.15 283.34 L501.19 276.81 M216.81 276.81 L216.29 270.27 M501.19 276.81 L501.71 270.27 M216.29 270.27 L216.29 263.73 M501.71 270.27 L501.71 263.73 M216.29 263.73 L216.81 257.19 M501.71 263.73 L501.19 257.19 M216.81 257.19 L217.85 250.66 M501.19 257.19 L500.15 250.66 M217.85 250.66 L219.46 244.12 M500.15 250.66 L498.54 244.12 M219.46 244.12 L221.69 237.58 M498.54 244.12 L496.31 237.58 M221.69 237.58 L223.89 232.59 M223.89 232.59 L224.54 231.04 M494.11 232.59 L493.46 231.04 M496.31 237.58 L494.11 232.59 M224.54 231.04 L227.91 224.51 M493.46 231.04 L490.09 224.51 M227.91 224.51 L232.11 217.97 M490.09 224.51 L485.89 217.97 M232.11 217.97 L232.61 217.29 M232.61 217.29 L236.93 211.43 M485.39 217.29 L481.07 211.43 M485.89 217.97 L485.39 217.29 M236.93 211.43 L241.32 206.44 M241.32 206.44 L242.72 204.89 M476.68 206.44 L475.28 204.89 M481.07 211.43 L476.68 206.44 M242.72 204.89 L249.47 198.36 M475.28 204.89 L468.53 198.36 M249.47 198.36 L250.04 197.86 M250.04 197.86 L257.38 191.82 M467.96 197.86 L460.62 191.82 M468.53 198.36 L467.96 197.86 M257.38 191.82 L258.76 190.79 M258.76 190.79 L266.81 185.28 M459.24 190.79 L451.19 185.28 M460.62 191.82 L459.24 190.79 M266.81 185.28 L267.47 184.85 M267.47 184.85 L276.19 179.79 M276.19 179.79 L278.25 178.74 M441.81 179.79 L439.75 178.74 M441.81 179.79 L450.53 184.85 M451.19 185.28 L450.53 184.85 M278.25 178.74 L284.91 175.45 M284.91 175.45 L292.72 172.21 M433.09 175.45 L425.28 172.21 M439.75 178.74 L433.09 175.45 M292.72 172.21 L293.62 171.83 M293.62 171.83 L302.34 168.68 M302.34 168.68 L311.06 166.16 M311.06 166.16 L313.11 165.67 M406.94 166.16 L404.89 165.67 M406.94 166.16 L415.66 168.68 M415.66 168.68 L424.38 171.83 M425.28 172.21 L424.38 171.83 M313.11 165.67 L319.77 164.02 M319.77 164.02 L328.49 162.35 M328.49 162.35 L337.21 161.14 M337.21 161.14 L345.92 160.35 M345.92 160.35 L354.64 159.97 M354.64 159.97 L363.36 159.97 M363.36 159.97 L372.08 160.35 M372.08 160.35 L380.79 161.14 M380.79 161.14 L389.51 162.35 M389.51 162.35 L398.23 164.02 M404.89 165.67 L398.23 164.02 " stroke="darkgreen" stroke-width="1.5" fill="none" /><path d="M347.89 342.18 L354.64 342.63 M354.64 342.63 L363.36 342.63 M363.36 342.63 L370.11 342.18 M316.63 335.64 L319.77 336.75 M319.77 336.75 L328.49 339.17 M328.49 339.17 L337.21 340.92 M337.21 340.92 L345.92 342.05 M347.89 342.18 L345.92 342.05 M370.11 342.18 L372.08 342.05 M372.08 342.05 L380.79 340.92 M380.79 340.92 L389.51 339.17 M389.51 339.17 L398.23 336.75 M398.23 336.75 L401.37 335.64 M301.35 329.11 L302.34 329.64 M302.34 329.64 L311.06 333.61 M316.63 335.64 L311.06 333.61 M401.37 335.64 L406.94 333.61 M406.94 333.61 L415.66 329.64 M415.66 329.64 L416.65 329.11 M290.52 322.57 L293.62 324.65 M301.35 329.11 L293.62 324.65 M416.65 329.11 L424.38 324.65 M424.38 324.65 L427.48 322.57 M282.13 316.03 L284.91 318.36 M290.52 322.57 L284.91 318.36 M427.48 322.57 L433.09 318.36 M433.09 318.36 L435.87 316.03 M275.48 309.49 L276.19 310.24 M282.13 316.03 L276.19 310.24 M435.87 316.03 L441.81 310.24 M441.81 310.24 L442.52 309.49 M275.48 309.49 L270.19 302.96 M442.52 309.49 L447.81 302.96 M266.00 296.42 L267.47 298.78 M270.19 302.96 L267.47 298.78 M447.81 302.96 L450.53 298.78 M450.53 298.78 L452.00 296.42 M266.00 296.42 L262.78 289.88 M452.00 296.42 L455.22 289.88 M262.78 289.88 L260.44 283.34 M455.22 289.88 L457.56 283.34 M260.44 283.34 L258.93 276.81 M457.56 283.34 L459.07 276.81 M258.16 270.27 L258.76 275.33 M258.93 276.81 L258.76 275.33 M459.07 276.81 L459.24 275.33 M459.24 275.33 L459.84 270.27 M258.16 270.27 L258.16 263.73 M459.84 270.27 L459.84 263.73 M258.16 263.73 L258.76 258.67 M258.76 258.67 L258.93 257.19 M459.24 258.67 L459.07 257.19 M459.84 263.73 L459.24 258.67 M258.93 257.19 L260.44 250.66 M459.07 257.19 L457.56 250.66 M260.44 250.66 L262.78 244.12 M457.56 250.66 L455.22 244.12 M262.78 244.12 L266.00 237.58 M455.22 244.12 L452.00 237.58 M266.00 237.58 L267.47 235.22 M267.47 235.22 L270.19 231.04 M450.53 235.22 L447.81 231.04 M452.00 237.58 L450.53 235.22 M270.19 231.04 L275.48 224.51 M447.81 231.04 L442.52 224.51 M275.48 224.51 L276.19 223.76 M276.19 223.76 L282.13 217.97 M441.81 223.76 L435.87 217.97 M442.52 224.51 L441.81 223.76 M282.13 217.97 L284.91 215.64 M284.91 215.64 L290.52 211.43 M433.09 215.64 L427.48 211.43 M435.87 217.97 L433.09 215.64 M290.52 211.43 L293.62 209.35 M293.62 209.35 L301.35 204.89 M424.38 209.35 L416.65 204.89 M427.48 211.43 L424.38 209.35 M301.35 204.89 L302.34 204.36 M302.34 204.36 L311.06 200.39 M311.06 200.39 L316.63 198.36 M406.94 200.39 L401.37 198.36 M406.94 200.39 L415.66 204.36 M416.65 204.89 L415.66 204.36 M316.63 198.36 L319.77 197.25 M319.77 197.25 L328.49 194.83 M328.49 194.83 L337.21 193.08 M337.21 193.08 L345.92 191.95 M345.92 191.95 L347.89 191.82 M372.08 191.95 L370.11 191.82 M372.08 191.95 L380.79 193.08 M380.79 193.08 L389.51 194.83 M389.51 194.83 L398.23 197.25 M401.37 198.36 L398.23 197.25 M347.89 191.82 L354.64 191.37 M354.64 191.37 L363.36 191.37 M370.11 191.82 L363.36 191.37 " stroke="darkgreen" stroke-width="1.5" fill="none" /><path d="M327.23 309.49 L328.49 310.04 M328.49 310.04 L337.21 312.88 M337.21 312.88 L345.92 314.73 M345.92 314.73 L354.64 315.64 M354.64 315.64 L363.36 315.64 M363.36 315.64 L372.08 314.73 M372.08 314.73 L380.79 312.88 M380.79 312.88 L389.51 310.04 M389.51 310.04 L390.77 309.49 M315.24 302.96 L319.77 305.80 M327.23 309.49 L319.77 305.80 M390.77 309.49 L398.23 305.80 M398.23 305.80 L402.76 302.96 M307.26 296.42 L311.06 299.82 M315.24 302.96 L311.06 299.82 M402.76 302.96 L406.94 299.82 M406.94 299.82 L410.74 296.42 M301.61 289.88 L302.34 290.83 M307.26 296.42 L302.34 290.83 M410.74 296.42 L415.66 290.83 M415.66 290.83 L416.39 289.88 M301.61 289.88 L297.82 283.34 M416.39 289.88 L420.18 283.34 M297.82 283.34 L295.36 276.81 M420.18 283.34 L422.64 276.81 M295.36 276.81 L294.15 270.27 M422.64 276.81 L423.85 270.27 M294.15 270.27 L294.15 263.73 M423.85 270.27 L423.85 263.73 M294.15 263.73 L295.36 257.19 M423.85 263.73 L422.64 257.19 M295.36 257.19 L297.82 250.66 M422.64 257.19 L420.18 250.66 M297.82 250.66 L301.61 244.12 M420.18 250.66 L416.39 244.12 M301.61 244.12 L302.34 243.17 M302.34 243.17 L307.26 237.58 M415.66 243.17 L410.74 237.58 M416.39 244.12 L415.66 243.17 M307.26 237.58 L311.06 234.18 M311.06 234.18 L315.24 231.04 M406.94 234.18 L402.76 231.04 M410.74 237.58 L406.94 234.18 M315.24 231.04 L319.77 228.20 M319.77 228.20 L327.23 224.51 M398.23 228.20 L390.77 224.51 M402.76 231.04 L398.23 228.20 M327.23 224.51 L328.49 223.96 M328.49 223.96 L337.21 221.12 M337.21 221.12 L345.92 219.27 M345.92 219.27 L354.64 218.36 M354.64 218.36 L363.36 218.36 M363.36 218.36 L372.08 219.27 M372.08 219.27 L380.79 221.12 M380.79 221.12 L389.51 223.96 M390.77 224.51 L389.51 223.96 " stroke="darkgreen" stroke-width="1.5" fill="none" /><path d="M334.45 289.88 L337.21 291.44 M337.21 291.44 L345.92 294.71 M345.92 294.71 L354.64 296.32 M354.64 296.32 L363.36 296.32 M363.36 296.32 L372.08 294.71 M372.08 294.71 L380.79 291.44 M380.79 291.44 L383.55 289.88 M326.42 283.34 L328.49 285.41 M334.45 289.88 L328.49 285.41 M383.55 289.88 L389.51 285.41 M389.51 285.41 L391.58 283.34 M326.42 283.34 L322.05 276.81 M391.58 283.34 L395.95 276.81 M322.05 276.81 L319.91 270.27 M395.95 276.81 L398.09 270.27 M319.91 270.27 L319.91 263.73 M398.09 270.27 L398.09 263.73 M319.91 263.73 L322.05 257.19 M398.09 263.73 L395.95 257.19 M322.05 257.19 L326.42 250.66 M395.95 257.19 L391.58 250.66 M326.42 250.66 L328.49 248.59 M328.49 248.59 L334.45 244.12 M389.51 248.59 L383.55 244.12 M391.58 250.66 L389.51 248.59 M334.45 244.12 L337.21 242.56 M337.21 242.56 L345.92 239.29 M345.92 239.29 L354.64 237.68 M354.64 237.68 L363.36 237.68 M363.36 237.68 L372.08 239.29 M372.08 239.29 L380.79 242.56 M383.55 244.12 L380.79 242.56 " stroke="darkgreen" stroke-width="1.5" fill="none" /></svg>