<svg xmlns="http://www.w3.org/2000/svg" width="673" height="541" fill="black"><rect width="100%" height="100%" fill="white" /><line x1="59" y1="492" x2="659" y2="492" stroke="black" stroke-width="1" /><line x1="59" y1="42" x2="59" y2="492" stroke="black" stroke-width="1" /><line x1="134" y1="42" x2="134" y2="492" stroke="#ccc" stroke-width="1" /><line x1="209" y1="42" x2="209" y2="492" stroke="#ccc" stroke-width="1" /><line x1="284" y1="42" x2="284" y2="492" stroke="#ccc" stroke-width="1" /><line x1="359" y1="42" x2="359" y2="492" stroke="#ccc" stroke-width="1" /><line x1="434" y1="42" x2="434" y2="492" stroke="#ccc" stroke-width="1" /><line x1="509" y1="42" x2="509" y2="492" stroke="#ccc" stroke-width="1" /><line x1="584" y1="42" x2="584" y2="492" stroke="#ccc" stroke-width="1" /><line x1="659" y1="42" x2="659" y2="492" stroke="#ccc" stroke-width="1" /><line x1="59" y1="435.75" x2="659" y2="435.75" stroke="#ccc" stroke-width="1" /><line x1="59" y1="379.5" x2="659" y2="379.5" stroke="#ccc" stroke-width="1" /><line x1="59" y1="323.25" x2="659" y2="323.25" stroke="#ccc" stroke-width="1" /><line x1="59" y1="267" x2="659" y2="267" stroke="#ccc" stroke-width="1" /><line x1="59" y1="210.75" x2="659" y2="210.75" stroke="#ccc" stroke-width="1" /><line x1="59" y1="154.5" x2="659" y2="154.5" stroke="#ccc" stroke-width="1" /><line x1="59" y1="98.25" x2="659" y2="98.25" stroke="#ccc" stroke-width="1" /><line x1="59" y1="42" x2="659" y2="42" stroke="#ccc" stroke-width="1" /><line x1="59" y1="492" x2="59" y2="497" stroke="black" stroke-width="1" /><text x="59" y="507" font-size="10" text-anchor="middle">-4</text><line x1="134" y1="492" x2="134" y2="497" stroke="black" stroke-width="1" /><text x="134" y="507" font-size="10" text-anchor="middle">-3</text><line x1="209" y1="492" x2="209" y2="497" stroke="black" stroke-width="1" /><text x="209" y="507" font-size="10" text-anchor="middle">-2</text><line x1="284" y1="492" x2="284" y2="497" stroke="black" stroke-width="1" /><text x="284" y="507" font-size="10" text-anchor="middle">-1</text><line x1="359" y1="492" x2="359" y2="497" stroke="black" stroke-width="1" /><text x="359" y="507" font-size="10" text-anchor="middle">0</text><line x1="434" y1="492" x2="434" y2="497" stroke="black" stroke-width="1" /><text x="434" y="507" font-size="10" text-anchor="middle">1</text><line x1="509" y1="492" x2="509" y2="497" stroke="black" stroke-width="1" /><text x="509" y="507" font-size="10" text-anchor="middle">2</text><line x1="584" y1="492" x2="584" y2="497" stroke="black" stroke-width="1" /><text x="584" y="507" font-size="10" text-anchor="middle">3</text><line x1="659" y1="492" x2="659" y2="497" stroke="black" stroke-width="1" /><text x="659" y="507" font-size="10" text-anchor="middle">4</text><line x1="54" y1="492" x2="59" y2="492" stroke="black" stroke-width="1" /><text x="51" y="495.5" font-size="10" text-anchor="end">-4</text><line x1="54" y1="435.75" x2="59" y2="435.75" stroke="black" stroke-width="1" /><text x="51" y="439.25" font-size="10" text-anchor="end">-3</text><line x1="54" y1="379.5" x2="59" y2="379.5" stroke="black" stroke-width="1" /><text x="51" y="383" font-size="10" text-anchor="end">-2</text><line x1="54" y1="323.25" x2="59" y2="323.25" stroke="black" stroke-width="1" /><text x="51" y="326.75" font-size="10" text-anchor="end">-1</text><line x1="54" y1="267" x2="59" y2="267" stroke="black" stroke-width="1" /><text x="51" y="270.5" font-size="10" text-anchor="end">0</text><line x1="54" y1="210.75" x2="59" y2="210.75" stroke="black" stroke-width="1" /><text x="51" y="214.25" font-size="10" text-anchor="end">1</text><line x1="54" y1="154.5" x2="59" y2="154.5" stroke="black" stroke-width="1" /><text x="51" y="158" font-size="10" text-anchor="end">2</text><line x1="54" y1="98.25" x2="59" y2="98.25" stroke="black" stroke-width="1" /><text x="51" y="101.75" font-size="10" text-anchor="end">3</text><line x1="54" y1="42" x2="59" y2="42" stroke="black" stroke-width="1" /><text x="51" y="45.5" font-size="10" text-anchor="end">4</text><text x="336.5" y="534" font-size="14" text-anchor="middle">x</text><text x="14" y="270.5" font-size="14" text-anchor="middle" transform="rotate(-90,14,270.5)">y</text><text x="336.5" y="21" font-size="16" text-anchor="middle">Iso-line Contours — Gaussian Peak</text><path d="M349.51 389.99 L355.19 390.20 M355.19 390.20 L362.81 390.20 M362.81 390.20 L368.49 389.99 M308.59 384.27 L309.42 384.49 M309.42 384.49 L317.05 386.24 M317.05 386.24 L324.68 387.62 M324.68 387.62 L332.31 388.67 M332.31 388.67 L339.93 389.43 M339.93 389.43 L347.56 389.92 M349.51 389.99 L347.56 389.92 M368.49 389.99 L370.44 389.92 M370.44 389.92 L378.07 389.43 M378.07 389.43 L385.69 388.67 M385.69 388.67 L393.32 387.62 M393.32 387.62 L400.95 386.24 M400.95 386.24 L408.58 384.49 M408.58 384.49 L409.41 384.27 M289.22 378.55 L294.17 380.31 M294.17 380.31 L301.80 382.60 M308.59 384.27 L301.80 382.60 M409.41 384.27 L416.20 382.60 M416.20 382.60 L423.83 380.31 M423.83 380.31 L428.78 378.55 M274.82 372.83 L278.92 374.68 M278.92 374.68 L286.54 377.64 M289.22 378.55 L286.54 377.64 M428.78 378.55 L431.46 377.64 M431.46 377.64 L439.08 374.68 M439.08 374.68 L443.18 372.83 M263.20 367.11 L263.66 367.36 M263.66 367.36 L271.29 371.26 M274.82 372.83 L271.29 371.26 M443.18 372.83 L446.71 371.26 M446.71 371.26 L454.34 367.36 M454.34 367.36 L454.80 367.11 M253.33 361.39 L256.03 363.08 M263.20 367.11 L256.03 363.08 M454.80 367.11 L461.97 363.08 M461.97 363.08 L464.67 361.39 M244.83 355.67 L248.41 358.19 M253.33 361.39 L248.41 358.19 M464.67 361.39 L469.59 358.19 M469.59 358.19 L473.17 355.67 M237.41 349.94 L240.78 352.63 M244.83 355.67 L240.78 352.63 M473.17 355.67 L477.22 352.63 M477.22 352.63 L480.59 349.94 M230.89 344.22 L233.15 346.26 M237.41 349.94 L233.15 346.26 M480.59 349.94 L484.85 346.26 M484.85 346.26 L487.11 344.22 M225.18 338.50 L225.53 338.85 M230.89 344.22 L225.53 338.85 M487.11 344.22 L492.47 338.85 M492.47 338.85 L492.82 338.50 M225.18 338.50 L219.98 332.78 M492.82 338.50 L498.02 332.78 M215.43 327.06 L217.90 330.13 M219.98 332.78 L217.90 330.13 M498.02 332.78 L500.10 330.13 M500.10 330.13 L502.57 327.06 M215.43 327.06 L211.47 321.34 M502.57 327.06 L506.53 321.34 M207.92 315.62 L210.27 319.33 M211.47 321.34 L210.27 319.33 M506.53 321.34 L507.73 319.33 M507.73 319.33 L510.08 315.62 M207.92 315.62 L204.86 309.90 M510.08 315.62 L513.14 309.90 M202.34 304.18 L202.64 304.81 M204.86 309.90 L202.64 304.81 M513.14 309.90 L515.36 304.81 M515.36 304.81 L515.66 304.18 M202.34 304.18 L200.01 298.46 M515.66 304.18 L517.99 298.46 M200.01 298.46 L198.18 292.74 M517.99 298.46 L519.82 292.74 M198.18 292.74 L196.77 287.02 M519.82 292.74 L521.23 287.02 M196.77 287.02 L195.76 281.30 M521.23 287.02 L522.24 281.30 M195.76 281.30 L195.10 275.58 M522.24 281.30 L522.90 275.58 M194.73 269.86 L195.02 274.12 M195.10 275.58 L195.02 274.12 M522.90 275.58 L522.98 274.12 M522.98 274.12 L523.27 269.86 M194.73 269.86 L194.73 264.14 M523.27 269.86 L523.27 264.14 M194.73 264.14 L195.02 259.88 M195.02 259.88 L195.10 258.42 M522.98 259.88 L522.90 258.42 M523.27 264.14 L522.98 259.88 M195.10 258.42 L195.76 252.70 M522.90 258.42 L522.24 252.70 M195.76 252.70 L196.77 246.98 M522.24 252.70 L521.23 246.98 M196.77 246.98 L198.18 241.26 M521.23 246.98 L519.82 241.26 M198.18 241.26 L200.01 235.54 M519.82 241.26 L517.99 235.54 M200.01 235.54 L202.34 229.82 M517.99 235.54 L515.66 229.82 M202.34 229.82 L202.64 229.19 M202.64 229.19 L204.86 224.10 M515.36 229.19 L513.14 224.10 M515.66 229.82 L515.36 229.19 M204.86 224.10 L207.92 218.38 M513.14 224.10 L510.08 218.38 M207.92 218.38 L210.27 214.67 M210.27 214.67 L211.47 212.66 M507.73 214.67 L506.53 212.66 M510.08 218.38 L507.73 214.67 M211.47 212.66 L215.43 206.94 M506.53 212.66 L502.57 206.94 M215.43 206.94 L217.90 203.87 M217.90 203.87 L219.98 201.22 M500.10 203.87 L498.02 201.22 M502.57 206.94 L500.10 203.87 M219.98 201.22 L225.18 195.50 M498.02 201.22 L492.82 195.50 M225.18 195.50 L225.53 195.15 M225.53 195.15 L230.89 189.78 M492.47 195.15 L487.11 189.78 M492.82 195.50 L492.47 195.15 M230.89 189.78 L233.15 187.74 M233.15 187.74 L237.41 184.06 M484.85 187.74 L480.59 184.06 M487.11 189.78 L484.85 187.74 M237.41 184.06 L240.78 181.37 M240.78 181.37 L244.83 178.33 M477.22 181.37 L473.17 178.33 M480.59 184.06 L477.22 181.37 M244.83 178.33 L248.41 175.81 M248.41 175.81 L253.33 172.61 M469.59 175.81 L464.67 172.61 M473.17 178.33 L469.59 175.81 M253.33 172.61 L256.03 170.92 M256.03 170.92 L263.20 166.89 M461.97 170.92 L454.80 166.89 M464.67 172.61 L461.97 170.92 M263.20 166.89 L263.66 166.64 M263.66 166.64 L271.29 162.74 M271.29 162.74 L274.82 161.17 M446.71 162.74 L443.18 161.17 M446.71 162.74 L454.34 166.64 M454.80 166.89 L454.34 166.64 M274.82 161.17 L278.92 159.32 M278.92 159.32 L286.54 156.36 M286.54 156.36 L289.22 155.45 M431.46 156.36 L428.78 155.45 M431.46 156.36 L439.08 159.32 M443.18 161.17 L439.08 159.32 M289.22 155.45 L294.17 153.69 M294.17 153.69 L301.80 151.40 M301.80 151.40 L308.59 149.73 M416.20 151.40 L409.41 149.73 M416.20 151.40 L423.83 153.69 M428.78 155.45 L423.83 153.69 M308.59 149.73 L309.42 149.51 M309.42 149.51 L317.05 147.76 M317.05 147.76 L324.68 146.38 M324.68 146.38 L332.31 145.33 M332.31 145.33 L339.93 144.57 M339.93 144.57 L347.56 144.08 M347.56 144.08 L349.51 144.01 M370.44 144.08 L368.49 144.01 M370.44 144.08 L378.07 144.57 M378.07 144.57 L385.69 145.33 M385.69 145.33 L393.32 146.38 M393.32 146.38 L400.95 147.76 M400.95 147.76 L408.58 149.51 M409.41 149.73 L408.58 149.51 M349.51 144.01 L355.19 143.80 M355.19 143.80 L362.81 143.80 M368.49 144.01 L362.81 143.80 " stroke="steelblue" stroke-width="1.2" fill="none" /><path d="M321.91 367.11 L324.68 367.72 M324.68 367.72 L332.31 369.06 M332.31 369.06 L339.93 370.03 M339.93 370.03 L347.56 370.66 M347.56 370.66 L355.19 370.97 M355.19 370.97 L362.81 370.97 M362.81 370.97 L370.44 370.66 M370.44 370.66 L378.07 370.03 M378.07 370.03 L385.69 369.06 M385.69 369.06 L393.32 367.72 M393.32 367.72 L396.09 367.11 M301.02 361.39 L301.80 361.67 M301.80 361.67 L309.42 364.13 M309.42 364.13 L317.05 366.10 M321.91 367.11 L317.05 366.10 M396.09 367.11 L400.95 366.10 M400.95 366.10 L408.58 364.13 M408.58 364.13 L416.20 361.67 M416.20 361.67 L416.98 361.39 M286.72 355.67 L294.17 358.92 M301.02 361.39 L294.17 358.92 M416.98 361.39 L423.83 358.92 M423.83 358.92 L431.28 355.67 M275.49 349.94 L278.92 351.87 M278.92 351.87 L286.54 355.59 M286.72 355.67 L286.54 355.59 M431.28 355.67 L431.46 355.59 M431.46 355.59 L439.08 351.87 M439.08 351.87 L442.51 349.94 M266.23 344.22 L271.29 347.51 M275.49 349.94 L271.29 347.51 M442.51 349.94 L446.71 347.51 M446.71 347.51 L451.77 344.22 M258.39 338.50 L263.66 342.45 M266.23 344.22 L263.66 342.45 M451.77 344.22 L454.34 342.45 M454.34 342.45 L459.61 338.50 M251.66 332.78 L256.03 336.58 M258.39 338.50 L256.03 336.58 M459.61 338.50 L461.97 336.58 M461.97 336.58 L466.34 332.78 M245.84 327.06 L248.41 329.63 M251.66 332.78 L248.41 329.63 M466.34 332.78 L469.59 329.63 M469.59 329.63 L472.16 327.06 M245.84 327.06 L240.88 321.34 M472.16 327.06 L477.12 321.34 M236.44 315.62 L240.78 321.21 M240.88 321.34 L240.78 321.21 M477.12 321.34 L477.22 321.21 M477.22 321.21 L481.56 315.62 M232.77 309.90 L233.15 310.49 M236.44 315.62 L233.15 310.49 M481.56 315.62 L484.85 310.49 M484.85 310.49 L485.23 309.90 M232.77 309.90 L229.49 304.18 M485.23 309.90 L488.51 304.18 M229.49 304.18 L226.87 298.46 M488.51 304.18 L491.13 298.46 M224.70 292.74 L225.53 294.82 M226.87 298.46 L225.53 294.82 M491.13 298.46 L492.47 294.82 M492.47 294.82 L493.30 292.74 M224.70 292.74 L222.92 287.02 M493.30 292.74 L495.08 287.02 M222.92 287.02 L221.63 281.30 M495.08 287.02 L496.37 281.30 M221.63 281.30 L220.79 275.58 M496.37 281.30 L497.21 275.58 M220.79 275.58 L220.37 269.86 M497.21 275.58 L497.63 269.86 M220.37 269.86 L220.37 264.14 M497.63 269.86 L497.63 264.14 M220.37 264.14 L220.79 258.42 M497.63 264.14 L497.21 258.42 M220.79 258.42 L221.63 252.70 M497.21 258.42 L496.37 252.70 M221.63 252.70 L222.92 246.98 M496.37 252.70 L495.08 246.98 M222.92 246.98 L224.70 241.26 M495.08 246.98 L493.30 241.26 M224.70 241.26 L225.53 239.18 M225.53 239.18 L226.87 235.54 M492.47 239.18 L491.13 235.54 M493.30 241.26 L492.47 239.18 M226.87 235.54 L229.49 229.82 M491.13 235.54 L488.51 229.82 M229.49 229.82 L232.77 224.10 M488.51 229.82 L485.23 224.10 M232.77 224.10 L233.15 223.51 M233.15 223.51 L236.44 218.38 M484.85 223.51 L481.56 218.38 M485.23 224.10 L484.85 223.51 M236.44 218.38 L240.78 212.79 M240.78 212.79 L240.88 212.66 M477.22 212.79 L477.12 212.66 M481.56 218.38 L477.22 212.79 M240.88 212.66 L245.84 206.94 M477.12 212.66 L472.16 206.94 M245.84 206.94 L248.41 204.37 M248.41 204.37 L251.66 201.22 M469.59 204.37 L466.34 201.22 M472.16 206.94 L469.59 204.37 M251.66 201.22 L256.03 197.42 M256.03 197.42 L258.39 195.50 M461.97 197.42 L459.61 195.50 M466.34 201.22 L461.97 197.42 M258.39 195.50 L263.66 191.55 M263.66 191.55 L266.23 189.78 M454.34 191.55 L451.77 189.78 M459.61 195.50 L454.34 191.55 M266.23 189.78 L271.29 186.49 M271.29 186.49 L275.49 184.06 M446.71 186.49 L442.51 184.06 M451.77 189.78 L446.71 186.49 M275.49 184.06 L278.92 182.13 M278.92 182.13 L286.54 178.41 M286.54 178.41 L286.72 178.33 M431.46 178.41 L431.28 178.33 M431.46 178.41 L439.08 182.13 M442.51 184.06 L439.08 182.13 M286.72 178.33 L294.17 175.08 M294.17 175.08 L301.02 172.61 M423.83 175.08 L416.98 172.61 M431.28 178.33 L423.83 175.08 M301.02 172.61 L301.80 172.33 M301.80 172.33 L309.42 169.87 M309.42 169.87 L317.05 167.90 M317.05 167.90 L321.91 166.89 M400.95 167.90 L396.09 166.89 M400.95 167.90 L408.58 169.87 M408.58 169.87 L416.20 172.33 M416.98 172.61 L416.20 172.33 M321.91 166.89 L324.68 166.28 M324.68 166.28 L332.31 164.94 M332.31 164.94 L339.93 163.97 M339.93 163.97 L347.56 163.34 M347.56 163.34 L355.19 163.03 M355.19 163.03 L362.81 163.03 M362.81 163.03 L370.44 163.34 M370.44 163.34 L378.07 163.97 M378.07 163.97 L385.69 164.94 M385.69 164.94 L393.32 166.28 M396.09 166.89 L393.32 166.28 " stroke="steelblue" stroke-width="1.2" fill="none" /><path d="M333.30 355.67 L339.93 356.66 M339.93 356.66 L347.56 357.41 M347.56 357.41 L355.19 357.78 M355.19 357.78 L362.81 357.78 M362.81 357.78 L370.44 357.41 M370.44 357.41 L378.07 356.66 M378.07 356.66 L384.70 355.67 M309.92 349.94 L317.05 352.19 M317.05 352.19 L324.68 354.08 M324.68 354.08 L332.31 355.52 M333.30 355.67 L332.31 355.52 M384.70 355.67 L385.69 355.52 M385.69 355.52 L393.32 354.08 M393.32 354.08 L400.95 352.19 M400.95 352.19 L408.08 349.94 M295.46 344.22 L301.80 347.03 M301.80 347.03 L309.42 349.79 M309.92 349.94 L309.42 349.79 M408.08 349.94 L408.58 349.79 M408.58 349.79 L416.20 347.03 M416.20 347.03 L422.54 344.22 M284.48 338.50 L286.54 339.71 M286.54 339.71 L294.17 343.65 M295.46 344.22 L294.17 343.65 M422.54 344.22 L423.83 343.65 M423.83 343.65 L431.46 339.71 M431.46 339.71 L433.52 338.50 M275.62 332.78 L278.92 335.06 M284.48 338.50 L278.92 335.06 M433.52 338.50 L439.08 335.06 M439.08 335.06 L442.38 332.78 M268.25 327.06 L271.29 329.54 M275.62 332.78 L271.29 329.54 M442.38 332.78 L446.71 329.54 M446.71 329.54 L449.75 327.06 M262.05 321.34 L263.66 322.89 M268.25 327.06 L263.66 322.89 M449.75 327.06 L454.34 322.89 M454.34 322.89 L455.95 321.34 M262.05 321.34 L256.81 315.62 M455.95 321.34 L461.19 315.62 M252.30 309.90 L256.03 314.66 M256.81 315.62 L256.03 314.66 M461.19 315.62 L461.97 314.66 M461.97 314.66 L465.70 309.90 M252.30 309.90 L248.61 304.18 M465.70 309.90 L469.39 304.18 M245.42 298.46 L248.41 303.81 M248.61 304.18 L248.41 303.81 M469.39 304.18 L469.59 303.81 M469.59 303.81 L472.58 298.46 M245.42 298.46 L242.89 292.74 M472.58 298.46 L475.11 292.74 M242.89 292.74 L240.97 287.02 M475.11 292.74 L477.03 287.02 M239.45 281.30 L240.78 286.27 M240.97 287.02 L240.78 286.27 M477.03 287.02 L477.22 286.27 M477.22 286.27 L478.55 281.30 M239.45 281.30 L238.46 275.58 M478.55 281.30 L479.54 275.58 M238.46 275.58 L237.96 269.86 M479.54 275.58 L480.04 269.86 M237.96 269.86 L237.96 264.14 M480.04 269.86 L480.04 264.14 M237.96 264.14 L238.46 258.42 M480.04 264.14 L479.54 258.42 M238.46 258.42 L239.45 252.70 M479.54 258.42 L478.55 252.70 M239.45 252.70 L240.78 247.73 M240.78 247.73 L240.97 246.98 M477.22 247.73 L477.03 246.98 M478.55 252.70 L477.22 247.73 M240.97 246.98 L242.89 241.26 M477.03 246.98 L475.11 241.26 M242.89 241.26 L245.42 235.54 M475.11 241.26 L472.58 235.54 M245.42 235.54 L248.41 230.19 M248.41 230.19 L248.61 229.82 M469.59 230.19 L469.39 229.82 M472.58 235.54 L469.59 230.19 M248.61 229.82 L252.30 224.10 M469.39 229.82 L465.70 224.10 M252.30 224.10 L256.03 219.34 M256.03 219.34 L256.81 218.38 M461.97 219.34 L461.19 218.38 M465.70 224.10 L461.97 219.34 M256.81 218.38 L262.05 212.66 M461.19 218.38 L455.95 212.66 M262.05 212.66 L263.66 211.11 M263.66 211.11 L268.25 206.94 M454.34 211.11 L449.75 206.94 M455.95 212.66 L454.34 211.11 M268.25 206.94 L271.29 204.46 M271.29 204.46 L275.62 201.22 M446.71 204.46 L442.38 201.22 M449.75 206.94 L446.71 204.46 M275.62 201.22 L278.92 198.94 M278.92 198.94 L284.48 195.50 M439.08 198.94 L433.52 195.50 M442.38 201.22 L439.08 198.94 M284.48 195.50 L286.54 194.29 M286.54 194.29 L294.17 190.35 M294.17 190.35 L295.46 189.78 M423.83 190.35 L422.54 189.78 M423.83 190.35 L431.46 194.29 M433.52 195.50 L431.46 194.29 M295.46 189.78 L301.80 186.97 M301.80 186.97 L309.42 184.21 M309.42 184.21 L309.92 184.06 M408.58 184.21 L408.08 184.06 M408.58 184.21 L416.20 186.97 M422.54 189.78 L416.20 186.97 M309.92 184.06 L317.05 181.81 M317.05 181.81 L324.68 179.92 M324.68 179.92 L332.31 178.48 M332.31 178.48 L333.30 178.33 M385.69 178.48 L384.70 178.33 M385.69 178.48 L393.32 179.92 M393.32 179.92 L400.95 181.81 M408.08 184.06 L400.95 181.81 M333.30 178.33 L339.93 177.34 M339.93 177.34 L347.56 176.59 M347.56 176.59 L355.19 176.22 M355.19 176.22 L362.81 176.22 M362.81 176.22 L370.44 176.59 M370.44 176.59 L378.07 177.34 M384.70 178.33 L378.07 177.34 " stroke="steelblue" stroke-width="1.2" fill="none" /><path d="M330.76 344.22 L332.31 344.57 M332.31 344.57 L339.93 345.86 M339.93 345.86 L347.56 346.69 M347.56 346.69 L355.19 347.10 M355.19 347.10 L362.81 347.10 M362.81 347.10 L370.44 346.69 M370.44 346.69 L378.07 345.86 M378.07 345.86 L385.69 344.57 M385.69 344.57 L387.24 344.22 M310.92 338.50 L317.05 340.70 M317.05 340.70 L324.68 342.88 M330.76 344.22 L324.68 342.88 M387.24 344.22 L393.32 342.88 M393.32 342.88 L400.95 340.70 M400.95 340.70 L407.08 338.50 M298.10 332.78 L301.80 334.67 M301.80 334.67 L309.42 337.96 M310.92 338.50 L309.42 337.96 M407.08 338.50 L408.58 337.96 M408.58 337.96 L416.20 334.67 M416.20 334.67 L419.90 332.78 M288.35 327.06 L294.17 330.67 M298.10 332.78 L294.17 330.67 M419.90 332.78 L423.83 330.67 M423.83 330.67 L429.65 327.06 M280.53 321.34 L286.54 325.85 M288.35 327.06 L286.54 325.85 M429.65 327.06 L431.46 325.85 M431.46 325.85 L437.47 321.34 M274.10 315.62 L278.92 319.99 M280.53 321.34 L278.92 319.99 M437.47 321.34 L439.08 319.99 M439.08 319.99 L443.90 315.62 M268.77 309.90 L271.29 312.68 M274.10 315.62 L271.29 312.68 M443.90 315.62 L446.71 312.68 M446.71 312.68 L449.23 309.90 M268.77 309.90 L264.38 304.18 M449.23 309.90 L453.62 304.18 M260.73 298.46 L263.66 303.06 M264.38 304.18 L263.66 303.06 M453.62 304.18 L454.34 303.06 M454.34 303.06 L457.27 298.46 M260.73 298.46 L257.82 292.74 M457.27 298.46 L460.18 292.74 M255.57 287.02 L256.03 288.18 M257.82 292.74 L256.03 288.18 M460.18 292.74 L461.97 288.18 M461.97 288.18 L462.43 287.02 M255.57 287.02 L253.86 281.30 M462.43 287.02 L464.14 281.30 M253.86 281.30 L252.74 275.58 M464.14 281.30 L465.26 275.58 M252.74 275.58 L252.19 269.86 M465.26 275.58 L465.81 269.86 M252.19 269.86 L252.19 264.14 M465.81 269.86 L465.81 264.14 M252.19 264.14 L252.74 258.42 M465.81 264.14 L465.26 258.42 M252.74 258.42 L253.86 252.70 M465.26 258.42 L464.14 252.70 M253.86 252.70 L255.57 246.98 M464.14 252.70 L462.43 246.98 M255.57 246.98 L256.03 245.82 M256.03 245.82 L257.82 241.26 M461.97 245.82 L460.18 241.26 M462.43 246.98 L461.97 245.82 M257.82 241.26 L260.73 235.54 M460.18 241.26 L457.27 235.54 M260.73 235.54 L263.66 230.94 M263.66 230.94 L264.38 229.82 M454.34 230.94 L453.62 229.82 M457.27 235.54 L454.34 230.94 M264.38 229.82 L268.77 224.10 M453.62 229.82 L449.23 224.10 M268.77 224.10 L271.29 221.32 M271.29 221.32 L274.10 218.38 M446.71 221.32 L443.90 218.38 M449.23 224.10 L446.71 221.32 M274.10 218.38 L278.92 214.01 M278.92 214.01 L280.53 212.66 M439.08 214.01 L437.47 212.66 M443.90 218.38 L439.08 214.01 M280.53 212.66 L286.54 208.15 M286.54 208.15 L288.35 206.94 M431.46 208.15 L429.65 206.94 M437.47 212.66 L431.46 208.15 M288.35 206.94 L294.17 203.33 M294.17 203.33 L298.10 201.22 M423.83 203.33 L419.90 201.22 M429.65 206.94 L423.83 203.33 M298.10 201.22 L301.80 199.33 M301.80 199.33 L309.42 196.04 M309.42 196.04 L310.92 195.50 M408.58 196.04 L407.08 195.50 M408.58 196.04 L416.20 199.33 M419.90 201.22 L416.20 199.33 M310.92 195.50 L317.05 193.30 M317.05 193.30 L324.68 191.12 M324.68 191.12 L330.76 189.78 M393.32 191.12 L387.24 189.78 M393.32 191.12 L400.95 193.30 M407.08 195.50 L400.95 193.30 M330.76 189.78 L332.31 189.43 M332.31 189.43 L339.93 188.14 M339.93 188.14 L347.56 187.31 M347.56 187.31 L355.19 186.90 M355.19 186.90 L362.81 186.90 M362.81 186.90 L370.44 187.31 M370.44 187.31 L378.07 188.14 M378.07 188.14 L385.69 189.43 M387.24 189.78 L385.69 189.43 " stroke="steelblue" stroke-width="1.2" fill="none" /><path d="M324.33 332.78 L324.68 332.90 M324.68 332.90 L332.31 334.88 M332.31 334.88 L339.93 336.31 M339.93 336.31 L347.56 337.24 M347.56 337.24 L355.19 337.70 M355.19 337.70 L362.81 337.70 M362.81 337.70 L370.44 337.24 M370.44 337.24 L378.07 336.31 M378.07 336.31 L385.69 334.88 M385.69 334.88 L393.32 332.90 M393.32 332.90 L393.67 332.78 M309.17 327.06 L309.42 327.19 M309.42 327.19 L317.05 330.38 M324.33 332.78 L317.05 330.38 M393.67 332.78 L400.95 330.38 M400.95 330.38 L408.58 327.19 M408.58 327.19 L408.83 327.06 M298.65 321.34 L301.80 323.25 M309.17 327.06 L301.80 323.25 M408.83 327.06 L416.20 323.25 M416.20 323.25 L419.35 321.34 M290.50 315.62 L294.17 318.37 M298.65 321.34 L294.17 318.37 M419.35 321.34 L423.83 318.37 M423.83 318.37 L427.50 315.62 M284.00 309.90 L286.54 312.27 M290.50 315.62 L286.54 312.27 M427.50 315.62 L431.46 312.27 M431.46 312.27 L434.00 309.90 M278.75 304.18 L278.92 304.37 M284.00 309.90 L278.92 304.37 M434.00 309.90 L439.08 304.37 M439.08 304.37 L439.25 304.18 M278.75 304.18 L274.49 298.46 M439.25 304.18 L443.51 298.46 M271.14 292.74 L271.29 293.01 M274.49 298.46 L271.29 293.01 M443.51 298.46 L446.71 293.01 M446.71 293.01 L446.86 292.74 M271.14 292.74 L268.49 287.02 M446.86 292.74 L449.51 287.02 M268.49 287.02 L266.58 281.30 M449.51 287.02 L451.42 281.30 M266.58 281.30 L265.34 275.58 M451.42 281.30 L452.66 275.58 M265.34 275.58 L264.73 269.86 M452.66 275.58 L453.27 269.86 M264.73 269.86 L264.73 264.14 M453.27 269.86 L453.27 264.14 M264.73 264.14 L265.34 258.42 M453.27 264.14 L452.66 258.42 M265.34 258.42 L266.58 252.70 M452.66 258.42 L451.42 252.70 M266.58 252.70 L268.49 246.98 M451.42 252.70 L449.51 246.98 M268.49 246.98 L271.14 241.26 M449.51 246.98 L446.86 241.26 M271.14 241.26 L271.29 240.99 M271.29 240.99 L274.49 235.54 M446.71 240.99 L443.51 235.54 M446.86 241.26 L446.71 240.99 M274.49 235.54 L278.75 229.82 M443.51 235.54 L439.25 229.82 M278.75 229.82 L278.92 229.63 M278.92 229.63 L284.00 224.10 M439.08 229.63 L434.00 224.10 M439.25 229.82 L439.08 229.63 M284.00 224.10 L286.54 221.73 M286.54 221.73 L290.50 218.38 M431.46 221.73 L427.50 218.38 M434.00 224.10 L431.46 221.73 M290.50 218.38 L294.17 215.63 M294.17 215.63 L298.65 212.66 M423.83 215.63 L419.35 212.66 M427.50 218.38 L423.83 215.63 M298.65 212.66 L301.80 210.75 M301.80 210.75 L309.17 206.94 M416.20 210.75 L408.83 206.94 M419.35 212.66 L416.20 210.75 M309.17 206.94 L309.42 206.81 M309.42 206.81 L317.05 203.62 M317.05 203.62 L324.33 201.22 M400.95 203.62 L393.67 201.22 M400.95 203.62 L408.58 206.81 M408.83 206.94 L408.58 206.81 M324.33 201.22 L324.68 201.10 M324.68 201.10 L332.31 199.12 M332.31 199.12 L339.93 197.69 M339.93 197.69 L347.56 196.76 M347.56 196.76 L355.19 196.30 M355.19 196.30 L362.81 196.30 M362.81 196.30 L370.44 196.76 M370.44 196.76 L378.07 197.69 M378.07 197.69 L385.69 199.12 M385.69 199.12 L393.32 201.10 M393.67 201.22 L393.32 201.10 " stroke="steelblue" stroke-width="1.2" fill="none" /><path d="M338.39 327.06 L339.93 327.39 M339.93 327.39 L347.56 328.47 M347.56 328.47 L355.19 329.01 M355.19 329.01 L362.81 329.01 M362.81 329.01 L370.44 328.47 M370.44 328.47 L378.07 327.39 M378.07 327.39 L379.61 327.06 M319.15 321.34 L324.68 323.47 M324.68 323.47 L332.31 325.74 M338.39 327.06 L332.31 325.74 M379.61 327.06 L385.69 325.74 M385.69 325.74 L393.32 323.47 M393.32 323.47 L398.85 321.34 M307.63 315.62 L309.42 316.68 M309.42 316.68 L317.05 320.49 M319.15 321.34 L317.05 320.49 M398.85 321.34 L400.95 320.49 M400.95 320.49 L408.58 316.68 M408.58 316.68 L410.37 315.62 M299.25 309.90 L301.80 311.81 M307.63 315.62 L301.80 311.81 M410.37 315.62 L416.20 311.81 M416.20 311.81 L418.75 309.90 M292.76 304.18 L294.17 305.53 M299.25 309.90 L294.17 305.53 M418.75 309.90 L423.83 305.53 M423.83 305.53 L425.24 304.18 M292.76 304.18 L287.68 298.46 M425.24 304.18 L430.32 298.46 M283.71 292.74 L286.54 296.89 M287.68 298.46 L286.54 296.89 M430.32 298.46 L431.46 296.89 M431.46 296.89 L434.29 292.74 M283.71 292.74 L280.67 287.02 M434.29 292.74 L437.33 287.02 M278.48 281.30 L278.92 282.46 M280.67 287.02 L278.92 282.46 M437.33 287.02 L439.08 282.46 M439.08 282.46 L439.52 281.30 M278.48 281.30 L277.03 275.58 M439.52 281.30 L440.97 275.58 M277.03 275.58 L276.32 269.86 M440.97 275.58 L441.68 269.86 M276.32 269.86 L276.32 264.14 M441.68 269.86 L441.68 264.14 M276.32 264.14 L277.03 258.42 M441.68 264.14 L440.97 258.42 M277.03 258.42 L278.48 252.70 M440.97 258.42 L439.52 252.70 M278.48 252.70 L278.92 251.54 M278.92 251.54 L280.67 246.98 M439.08 251.54 L437.33 246.98 M439.52 252.70 L439.08 251.54 M280.67 246.98 L283.71 241.26 M437.33 246.98 L434.29 241.26 M283.71 241.26 L286.54 237.11 M286.54 237.11 L287.68 235.54 M431.46 237.11 L430.32 235.54 M434.29 241.26 L431.46 237.11 M287.68 235.54 L292.76 229.82 M430.32 235.54 L425.24 229.82 M292.76 229.82 L294.17 228.47 M294.17 228.47 L299.25 224.10 M423.83 228.47 L418.75 224.10 M425.24 229.82 L423.83 228.47 M299.25 224.10 L301.80 222.19 M301.80 222.19 L307.63 218.38 M416.20 222.19 L410.37 218.38 M418.75 224.10 L416.20 222.19 M307.63 218.38 L309.42 217.32 M309.42 217.32 L317.05 213.51 M317.05 213.51 L319.15 212.66 M400.95 213.51 L398.85 212.66 M400.95 213.51 L408.58 217.32 M410.37 218.38 L408.58 217.32 M319.15 212.66 L324.68 210.53 M324.68 210.53 L332.31 208.26 M332.31 208.26 L338.39 206.94 M385.69 208.26 L379.61 206.94 M385.69 208.26 L393.32 210.53 M398.85 212.66 L393.32 210.53 M338.39 206.94 L339.93 206.61 M339.93 206.61 L347.56 205.53 M347.56 205.53 L355.19 204.99 M355.19 204.99 L362.81 204.99 M362.81 204.99 L370.44 205.53 M370.44 205.53 L378.07 206.61 M379.61 206.94 L378.07 206.61 " stroke="steelblue" stroke-width="1.2" fill="none" /><path d="M329.03 315.62 L332.31 316.74 M332.31 316.74 L339.93 318.68 M339.93 318.68 L347.56 319.93 M347.56 319.93 L355.19 320.55 M355.19 320.55 L362.81 320.55 M362.81 320.55 L370.44 319.93 M370.44 319.93 L378.07 318.68 M378.07 318.68 L385.69 316.74 M385.69 316.74 L388.97 315.62 M316.14 309.90 L317.05 310.42 M317.05 310.42 L324.68 314.02 M329.03 315.62 L324.68 314.02 M388.97 315.62 L393.32 314.02 M393.32 314.02 L400.95 310.42 M400.95 310.42 L401.86 309.90 M307.52 304.18 L309.42 305.61 M316.14 309.90 L309.42 305.61 M401.86 309.90 L408.58 305.61 M408.58 305.61 L410.48 304.18 M301.11 298.46 L301.80 299.15 M307.52 304.18 L301.80 299.15 M410.48 304.18 L416.20 299.15 M416.20 299.15 L416.89 298.46 M301.11 298.46 L296.30 292.74 M416.89 298.46 L421.70 292.74 M292.68 287.02 L294.17 289.48 M296.30 292.74 L294.17 289.48 M421.70 292.74 L423.83 289.48 M423.83 289.48 L425.32 287.02 M292.68 287.02 L290.10 281.30 M425.32 287.02 L427.90 281.30 M290.10 281.30 L288.43 275.58 M427.90 281.30 L429.57 275.58 M288.43 275.58 L287.60 269.86 M429.57 275.58 L430.40 269.86 M287.60 269.86 L287.60 264.14 M430.40 269.86 L430.40 264.14 M287.60 264.14 L288.43 258.42 M430.40 264.14 L429.57 258.42 M288.43 258.42 L290.10 252.70 M429.57 258.42 L427.90 252.70 M290.10 252.70 L292.68 246.98 M427.90 252.70 L425.32 246.98 M292.68 246.98 L294.17 244.52 M294.17 244.52 L296.30 241.26 M423.83 244.52 L421.70 241.26 M425.32 246.98 L423.83 244.52 M296.30 241.26 L301.11 235.54 M421.70 241.26 L416.89 235.54 M301.11 235.54 L301.80 234.85 M301.80 234.85 L307.52 229.82 M416.20 234.85 L410.48 229.82 M416.89 235.54 L416.20 234.85 M307.52 229.82 L309.42 228.39 M309.42 228.39 L316.14 224.10 M408.58 228.39 L401.86 224.10 M410.48 229.82 L408.58 228.39 M316.14 224.10 L317.05 223.58 M317.05 223.58 L324.68 219.98 M324.68 219.98 L329.03 218.38 M393.32 219.98 L388.97 218.38 M393.32 219.98 L400.95 223.58 M401.86 224.10 L400.95 223.58 M329.03 218.38 L332.31 217.26 M332.31 217.26 L339.93 215.32 M339.93 215.32 L347.56 214.07 M347.56 214.07 L355.19 213.45 M355.19 213.45 L362.81 213.45 M362.81 213.45 L370.44 214.07 M370.44 214.07 L378.07 215.32 M378.07 215.32 L385.69 217.26 M388.97 218.38 L385.69 217.26 " stroke="steelblue" stroke-width="1.2" fill="none" /><path d="M340.73 309.90 L347.56 311.22 M347.56 311.22 L355.19 311.95 M355.19 311.95 L362.81 311.95 M362.81 311.95 L370.44 311.22 M370.44 311.22 L377.27 309.90 M325.07 304.18 L332.31 307.33 M332.31 307.33 L339.93 309.74 M340.73 309.90 L339.93 309.74 M377.27 309.90 L378.07 309.74 M378.07 309.74 L385.69 307.33 M385.69 307.33 L392.93 304.18 M316.02 298.46 L317.05 299.23 M317.05 299.23 L324.68 303.99 M325.07 304.18 L324.68 303.99 M392.93 304.18 L393.32 303.99 M393.32 303.99 L400.95 299.23 M400.95 299.23 L401.98 298.46 M316.02 298.46 L309.68 292.74 M401.98 298.46 L408.32 292.74 M305.23 287.02 L309.42 292.44 M309.68 292.74 L309.42 292.44 M408.32 292.74 L408.58 292.44 M408.58 292.44 L412.77 287.02 M305.23 287.02 L302.02 281.30 M412.77 287.02 L415.98 281.30 M300.04 275.58 L301.80 280.70 M302.02 281.30 L301.80 280.70 M415.98 281.30 L416.20 280.70 M416.20 280.70 L417.96 275.58 M300.04 275.58 L299.07 269.86 M417.96 275.58 L418.93 269.86 M299.07 269.86 L299.07 264.14 M418.93 269.86 L418.93 264.14 M299.07 264.14 L300.04 258.42 M418.93 264.14 L417.96 258.42 M300.04 258.42 L301.80 253.30 M301.80 253.30 L302.02 252.70 M416.20 253.30 L415.98 252.70 M417.96 258.42 L416.20 253.30 M302.02 252.70 L305.23 246.98 M415.98 252.70 L412.77 246.98 M305.23 246.98 L309.42 241.56 M309.42 241.56 L309.68 241.26 M408.58 241.56 L408.32 241.26 M412.77 246.98 L408.58 241.56 M309.68 241.26 L316.02 235.54 M408.32 241.26 L401.98 235.54 M316.02 235.54 L317.05 234.77 M317.05 234.77 L324.68 230.01 M324.68 230.01 L325.07 229.82 M393.32 230.01 L392.93 229.82 M393.32 230.01 L400.95 234.77 M401.98 235.54 L400.95 234.77 M325.07 229.82 L332.31 226.67 M332.31 226.67 L339.93 224.26 M339.93 224.26 L340.73 224.10 M378.07 224.26 L377.27 224.10 M378.07 224.26 L385.69 226.67 M392.93 229.82 L385.69 226.67 M340.73 224.10 L347.56 222.78 M347.56 222.78 L355.19 222.05 M355.19 222.05 L362.81 222.05 M362.81 222.05 L370.44 222.78 M377.27 224.10 L370.44 222.78 " stroke="steelblue" stroke-width="1.2" fill="none" /><path d="M336.34 298.46 L339.93 299.83 M339.93 299.83 L347.56 301.75 M347.56 301.75 L355.19 302.69 M355.19 302.69 L362.81 302.69 M362.81 302.69 L370.44 301.75 M370.44 301.75 L378.07 299.83 M378.07 299.83 L381.66 298.46 M325.80 292.74 L332.31 296.66 M336.34 298.46 L332.31 296.66 M381.66 298.46 L385.69 296.66 M385.69 296.66 L392.20 292.74 M319.45 287.02 L324.68 291.90 M325.80 292.74 L324.68 291.90 M392.20 292.74 L393.32 291.90 M393.32 291.90 L398.55 287.02 M315.23 281.30 L317.05 283.99 M319.45 287.02 L317.05 283.99 M398.55 287.02 L400.95 283.99 M400.95 283.99 L402.77 281.30 M315.23 281.30 L312.67 275.58 M402.77 281.30 L405.33 275.58 M312.67 275.58 L311.41 269.86 M405.33 275.58 L406.59 269.86 M311.41 269.86 L311.41 264.14 M406.59 269.86 L406.59 264.14 M311.41 264.14 L312.67 258.42 M406.59 264.14 L405.33 258.42 M312.67 258.42 L315.23 252.70 M405.33 258.42 L402.77 252.70 M315.23 252.70 L317.05 250.01 M317.05 250.01 L319.45 246.98 M400.95 250.01 L398.55 246.98 M402.77 252.70 L400.95 250.01 M319.45 246.98 L324.68 242.10 M324.68 242.10 L325.80 241.26 M393.32 242.10 L392.20 241.26 M398.55 246.98 L393.32 242.10 M325.80 241.26 L332.31 237.34 M332.31 237.34 L336.34 235.54 M385.69 237.34 L381.66 235.54 M392.20 241.26 L385.69 237.34 M336.34 235.54 L339.93 234.17 M339.93 234.17 L347.56 232.25 M347.56 232.25 L355.19 231.31 M355.19 231.31 L362.81 231.31 M362.81 231.31 L370.44 232.25 M370.44 232.25 L378.07 234.17 M381.66 235.54 L378.07 234.17 " stroke="steelblue" stroke-width="1.2" fill="none" /><path d="M339.38 287.02 L339.93 287.33 M339.93 287.33 L347.56 290.22 M347.56 290.22 L355.19 291.64 M355.19 291.64 L362.81 291.64 M362.81 291.64 L370.44 290.22 M370.44 290.22 L378.07 287.33 M378.07 287.33 L378.62 287.02 M331.89 281.30 L332.31 281.72 M339.38 287.02 L332.31 281.72 M378.62 287.02 L385.69 281.72 M385.69 281.72 L386.11 281.30 M331.89 281.30 L328.04 275.58 M386.11 281.30 L389.96 275.58 M328.04 275.58 L326.15 269.86 M389.96 275.58 L391.85 269.86 M326.15 269.86 L326.15 264.14 M391.85 269.86 L391.85 264.14 M326.15 264.14 L328.04 258.42 M391.85 264.14 L389.96 258.42 M328.04 258.42 L331.89 252.70 M389.96 258.42 L386.11 252.70 M331.89 252.70 L332.31 252.28 M332.31 252.28 L339.38 246.98 M385.69 252.28 L378.62 246.98 M386.11 252.70 L385.69 252.28 M339.38 246.98 L339.93 246.67 M339.93 246.67 L347.56 243.78 M347.56 243.78 L355.19 242.36 M355.19 242.36 L362.81 242.36 M362.81 242.36 L370.44 243.78 M370.44 243.78 L378.07 246.67 M378.62 246.98 L378.07 246.67 " stroke="steelblue" stroke-width="1.2" fill="none" /></svg>