<svg xmlns="http://www.w3.org/2000/svg" width="673" height="541" fill="black"><rect width="100%" height="100%" fill="white" /><line x1="59" y1="492" x2="659" y2="492" stroke="black" stroke-width="1" /><line x1="59" y1="42" x2="59" y2="492" stroke="black" stroke-width="1" /><line x1="101.85714285714286" y1="42" x2="101.85714285714286" y2="492" stroke="#ccc" stroke-width="1" /><line x1="144.71428571428572" y1="42" x2="144.71428571428572" y2="492" stroke="#ccc" stroke-width="1" /><line x1="187.57142857142856" y1="42" x2="187.57142857142856" y2="492" stroke="#ccc" stroke-width="1" /><line x1="230.42857142857142" y1="42" x2="230.42857142857142" y2="492" stroke="#ccc" stroke-width="1" /><line x1="273.2857142857143" y1="42" x2="273.2857142857143" y2="492" stroke="#ccc" stroke-width="1" /><line x1="316.1428571428571" y1="42" x2="316.1428571428571" y2="492" stroke="#ccc" stroke-width="1" /><line x1="359" y1="42" x2="359" y2="492" stroke="#ccc" stroke-width="1" /><line x1="401.85714285714283" y1="42" x2="401.85714285714283" y2="492" stroke="#ccc" stroke-width="1" /><line x1="444.7142857142857" y1="42" x2="444.7142857142857" y2="492" stroke="#ccc" stroke-width="1" /><line x1="487.57142857142856" y1="42" x2="487.57142857142856" y2="492" stroke="#ccc" stroke-width="1" /><line x1="530.4285714285714" y1="42" x2="530.4285714285714" y2="492" stroke="#ccc" stroke-width="1" /><line x1="573.2857142857142" y1="42" x2="573.2857142857142" y2="492" stroke="#ccc" stroke-width="1" /><line x1="616.1428571428571" y1="42" x2="616.1428571428571" y2="492" stroke="#ccc" stroke-width="1" /><line x1="659" y1="42" x2="659" y2="492" stroke="#ccc" stroke-width="1" /><line x1="59" y1="459.8571428571429" x2="659" y2="459.8571428571429" stroke="#ccc" stroke-width="1" /><line x1="59" y1="427.7142857142857" x2="659" y2="427.7142857142857" stroke="#ccc" stroke-width="1" /><line x1="59" y1="395.57142857142856" x2="659" y2="395.57142857142856" stroke="#ccc" stroke-width="1" /><line x1="59" y1="363.42857142857144" x2="659" y2="363.42857142857144" stroke="#ccc" stroke-width="1" /><line x1="59" y1="331.2857142857143" x2="659" y2="331.2857142857143" stroke="#ccc" stroke-width="1" /><line x1="59" y1="299.14285714285717" x2="659" y2="299.14285714285717" stroke="#ccc" stroke-width="1" /><line x1="59" y1="267" x2="659" y2="267" stroke="#ccc" stroke-width="1" /><line x1="59" y1="234.8571428571429" x2="659" y2="234.8571428571429" stroke="#ccc" stroke-width="1" /><line x1="59" y1="202.71428571428567" x2="659" y2="202.71428571428567" stroke="#ccc" stroke-width="1" /><line x1="59" y1="170.57142857142856" x2="659" y2="170.57142857142856" stroke="#ccc" stroke-width="1" /><line x1="59" y1="138.42857142857144" x2="659" y2="138.42857142857144" stroke="#ccc" stroke-width="1" /><line x1="59" y1="106.28571428571433" x2="659" y2="106.28571428571433" stroke="#ccc" stroke-width="1" /><line x1="59" y1="74.14285714285711" x2="659" y2="74.14285714285711" stroke="#ccc" stroke-width="1" /><line x1="59" y1="42" x2="659" y2="42" stroke="#ccc" stroke-width="1" /><line x1="59" y1="492" x2="59" y2="497" stroke="black" stroke-width="1" /><text x="59" y="507" font-size="10" text-anchor="middle">-3.5</text><line x1="101.85714285714286" y1="492" x2="101.85714285714286" y2="497" stroke="black" stroke-width="1" /><text x="101.85714285714286" y="507" font-size="10" text-anchor="middle">-3</text><line x1="144.71428571428572" y1="492" x2="144.71428571428572" y2="497" stroke="black" stroke-width="1" /><text x="144.71428571428572" y="507" font-size="10" text-anchor="middle">-2.5</text><line x1="187.57142857142856" y1="492" x2="187.57142857142856" y2="497" stroke="black" stroke-width="1" /><text x="187.57142857142856" y="507" font-size="10" text-anchor="middle">-2</text><line x1="230.42857142857142" y1="492" x2="230.42857142857142" y2="497" stroke="black" stroke-width="1" /><text x="230.42857142857142" y="507" font-size="10" text-anchor="middle">-1.5</text><line x1="273.2857142857143" y1="492" x2="273.2857142857143" y2="497" stroke="black" stroke-width="1" /><text x="273.2857142857143" y="507" font-size="10" text-anchor="middle">-1</text><line x1="316.1428571428571" y1="492" x2="316.1428571428571" y2="497" stroke="black" stroke-width="1" /><text x="316.1428571428571" y="507" font-size="10" text-anchor="middle">-0.5</text><line x1="359" y1="492" x2="359" y2="497" stroke="black" stroke-width="1" /><text x="359" y="507" font-size="10" text-anchor="middle">0</text><line x1="401.85714285714283" y1="492" x2="401.85714285714283" y2="497" stroke="black" stroke-width="1" /><text x="401.85714285714283" y="507" font-size="10" text-anchor="middle">0.5</text><line x1="444.7142857142857" y1="492" x2="444.7142857142857" y2="497" stroke="black" stroke-width="1" /><text x="444.7142857142857" y="507" font-size="10" text-anchor="middle">1</text><line x1="487.57142857142856" y1="492" x2="487.57142857142856" y2="497" stroke="black" stroke-width="1" /><text x="487.57142857142856" y="507" font-size="10" text-anchor="middle">1.5</text><line x1="530.4285714285714" y1="492" x2="530.4285714285714" y2="497" stroke="black" stroke-width="1" /><text x="530.4285714285714" y="507" font-size="10" text-anchor="middle">2</text><line x1="573.2857142857142" y1="492" x2="573.2857142857142" y2="497" stroke="black" stroke-width="1" /><text x="573.2857142857142" y="507" font-size="10" text-anchor="middle">2.5</text><line x1="616.1428571428571" y1="492" x2="616.1428571428571" y2="497" stroke="black" stroke-width="1" /><text x="616.1428571428571" y="507" font-size="10" text-anchor="middle">3</text><line x1="659" y1="492" x2="659" y2="497" stroke="black" stroke-width="1" /><text x="659" y="507" font-size="10" text-anchor="middle">3.5</text><line x1="54" y1="492" x2="59" y2="492" stroke="black" stroke-width="1" /><text x="51" y="495.5" font-size="10" text-anchor="end">-3.5</text><line x1="54" y1="459.8571428571429" x2="59" y2="459.8571428571429" stroke="black" stroke-width="1" /><text x="51" y="463.3571428571429" font-size="10" text-anchor="end">-3</text><line x1="54" y1="427.7142857142857" x2="59" y2="427.7142857142857" stroke="black" stroke-width="1" /><text x="51" y="431.2142857142857" font-size="10" text-anchor="end">-2.5</text><line x1="54" y1="395.57142857142856" x2="59" y2="395.57142857142856" stroke="black" stroke-width="1" /><text x="51" y="399.07142857142856" font-size="10" text-anchor="end">-2</text><line x1="54" y1="363.42857142857144" x2="59" y2="363.42857142857144" stroke="black" stroke-width="1" /><text x="51" y="366.92857142857144" font-size="10" text-anchor="end">-1.5</text><line x1="54" y1="331.2857142857143" x2="59" y2="331.2857142857143" stroke="black" stroke-width="1" /><text x="51" y="334.7857142857143" font-size="10" text-anchor="end">-1</text><line x1="54" y1="299.14285714285717" x2="59" y2="299.14285714285717" stroke="black" stroke-width="1" /><text x="51" y="302.64285714285717" font-size="10" text-anchor="end">-0.5</text><line x1="54" y1="267" x2="59" y2="267" stroke="black" stroke-width="1" /><text x="51" y="270.5" font-size="10" text-anchor="end">0</text><line x1="54" y1="234.8571428571429" x2="59" y2="234.8571428571429" stroke="black" stroke-width="1" /><text x="51" y="238.3571428571429" font-size="10" text-anchor="end">0.5</text><line x1="54" y1="202.71428571428567" x2="59" y2="202.71428571428567" stroke="black" stroke-width="1" /><text x="51" y="206.21428571428567" font-size="10" text-anchor="end">1</text><line x1="54" y1="170.57142857142856" x2="59" y2="170.57142857142856" stroke="black" stroke-width="1" /><text x="51" y="174.07142857142856" font-size="10" text-anchor="end">1.5</text><line x1="54" y1="138.42857142857144" x2="59" y2="138.42857142857144" stroke="black" stroke-width="1" /><text x="51" y="141.92857142857144" font-size="10" text-anchor="end">2</text><line x1="54" y1="106.28571428571433" x2="59" y2="106.28571428571433" stroke="black" stroke-width="1" /><text x="51" y="109.78571428571433" font-size="10" text-anchor="end">2.5</text><line x1="54" y1="74.14285714285711" x2="59" y2="74.14285714285711" stroke="black" stroke-width="1" /><text x="51" y="77.64285714285711" font-size="10" text-anchor="end">3</text><line x1="54" y1="42" x2="59" y2="42" stroke="black" stroke-width="1" /><text x="51" y="45.5" font-size="10" text-anchor="end">3.5</text><text x="336.5" y="534" font-size="14" text-anchor="middle">x</text><text x="14" y="270.5" font-size="14" text-anchor="middle" transform="rotate(-90,14,270.5)">y</text><text x="336.5" y="21" font-size="16" text-anchor="middle">Iso-line Contours — Gaussian Peak</text><path d="M348.15 407.56 L354.64 407.80 M354.64 407.80 L363.36 407.80 M363.36 407.80 L369.85 407.56 M301.39 401.02 L302.34 401.28 M302.34 401.28 L311.06 403.28 M311.06 403.28 L319.77 404.85 M319.77 404.85 L328.49 406.05 M328.49 406.05 L337.21 406.92 M337.21 406.92 L345.92 407.49 M348.15 407.56 L345.92 407.49 M369.85 407.56 L372.08 407.49 M372.08 407.49 L380.79 406.92 M380.79 406.92 L389.51 406.05 M389.51 406.05 L398.23 404.85 M398.23 404.85 L406.94 403.28 M406.94 403.28 L415.66 401.28 M415.66 401.28 L416.61 401.02 M279.25 394.48 L284.91 396.50 M284.91 396.50 L293.62 399.12 M301.39 401.02 L293.62 399.12 M416.61 401.02 L424.38 399.12 M424.38 399.12 L433.09 396.50 M433.09 396.50 L438.75 394.48 M262.80 387.94 L267.47 390.06 M267.47 390.06 L276.19 393.45 M279.25 394.48 L276.19 393.45 M438.75 394.48 L441.81 393.45 M441.81 393.45 L450.53 390.06 M450.53 390.06 L455.20 387.94 M249.51 381.41 L250.04 381.70 M250.04 381.70 L258.76 386.16 M262.80 387.94 L258.76 386.16 M455.20 387.94 L459.24 386.16 M459.24 386.16 L467.96 381.70 M467.96 381.70 L468.49 381.41 M238.23 374.87 L241.32 376.81 M249.51 381.41 L241.32 376.81 M468.49 381.41 L476.68 376.81 M476.68 376.81 L479.77 374.87 M228.52 368.33 L232.61 371.22 M238.23 374.87 L232.61 371.22 M479.77 374.87 L485.39 371.22 M485.39 371.22 L489.48 368.33 M220.04 361.79 L223.89 364.86 M228.52 368.33 L223.89 364.86 M489.48 368.33 L494.11 364.86 M494.11 364.86 L497.96 361.79 M212.59 355.26 L215.17 357.58 M220.04 361.79 L215.17 357.58 M497.96 361.79 L502.83 357.58 M502.83 357.58 L505.41 355.26 M206.06 348.72 L206.46 349.12 M212.59 355.26 L206.46 349.12 M505.41 355.26 L511.54 349.12 M511.54 349.12 L511.94 348.72 M206.06 348.72 L200.12 342.18 M511.94 348.72 L517.88 342.18 M194.92 335.64 L197.74 339.15 M200.12 342.18 L197.74 339.15 M517.88 342.18 L520.26 339.15 M520.26 339.15 L523.08 335.64 M194.92 335.64 L190.40 329.11 M523.08 335.64 L527.60 329.11 M186.33 322.57 L189.02 326.81 M190.40 329.11 L189.02 326.81 M527.60 329.11 L528.98 326.81 M528.98 326.81 L531.67 322.57 M186.33 322.57 L182.84 316.03 M531.67 322.57 L535.16 316.03 M179.97 309.49 L180.31 310.21 M182.84 316.03 L180.31 310.21 M535.16 316.03 L537.69 310.21 M537.69 310.21 L538.03 309.49 M179.97 309.49 L177.30 302.96 M538.03 309.49 L540.70 302.96 M177.30 302.96 L175.20 296.42 M540.70 302.96 L542.80 296.42 M175.20 296.42 L173.60 289.88 M542.80 296.42 L544.40 289.88 M173.60 289.88 L172.44 283.34 M544.40 289.88 L545.56 283.34 M172.44 283.34 L171.69 276.81 M545.56 283.34 L546.31 276.81 M171.26 270.27 L171.59 275.14 M171.69 276.81 L171.59 275.14 M546.31 276.81 L546.41 275.14 M546.41 275.14 L546.74 270.27 M171.26 270.27 L171.26 263.73 M546.74 270.27 L546.74 263.73 M171.26 263.73 L171.59 258.86 M171.59 258.86 L171.69 257.19 M546.41 258.86 L546.31 257.19 M546.74 263.73 L546.41 258.86 M171.69 257.19 L172.44 250.66 M546.31 257.19 L545.56 250.66 M172.44 250.66 L173.60 244.12 M545.56 250.66 L544.40 244.12 M173.60 244.12 L175.20 237.58 M544.40 244.12 L542.80 237.58 M175.20 237.58 L177.30 231.04 M542.80 237.58 L540.70 231.04 M177.30 231.04 L179.97 224.51 M540.70 231.04 L538.03 224.51 M179.97 224.51 L180.31 223.79 M180.31 223.79 L182.84 217.97 M537.69 223.79 L535.16 217.97 M538.03 224.51 L537.69 223.79 M182.84 217.97 L186.33 211.43 M535.16 217.97 L531.67 211.43 M186.33 211.43 L189.02 207.19 M189.02 207.19 L190.40 204.89 M528.98 207.19 L527.60 204.89 M531.67 211.43 L528.98 207.19 M190.40 204.89 L194.92 198.36 M527.60 204.89 L523.08 198.36 M194.92 198.36 L197.74 194.85 M197.74 194.85 L200.12 191.82 M520.26 194.85 L517.88 191.82 M523.08 198.36 L520.26 194.85 M200.12 191.82 L206.06 185.28 M517.88 191.82 L511.94 185.28 M206.06 185.28 L206.46 184.88 M206.46 184.88 L212.59 178.74 M511.54 184.88 L505.41 178.74 M511.94 185.28 L511.54 184.88 M212.59 178.74 L215.17 176.42 M215.17 176.42 L220.04 172.21 M502.83 176.42 L497.96 172.21 M505.41 178.74 L502.83 176.42 M220.04 172.21 L223.89 169.14 M223.89 169.14 L228.52 165.67 M494.11 169.14 L489.48 165.67 M497.96 172.21 L494.11 169.14 M228.52 165.67 L232.61 162.78 M232.61 162.78 L238.23 159.13 M485.39 162.78 L479.77 159.13 M489.48 165.67 L485.39 162.78 M238.23 159.13 L241.32 157.19 M241.32 157.19 L249.51 152.59 M476.68 157.19 L468.49 152.59 M479.77 159.13 L476.68 157.19 M249.51 152.59 L250.04 152.30 M250.04 152.30 L258.76 147.84 M258.76 147.84 L262.80 146.06 M459.24 147.84 L455.20 146.06 M459.24 147.84 L467.96 152.30 M468.49 152.59 L467.96 152.30 M262.80 146.06 L267.47 143.94 M267.47 143.94 L276.19 140.55 M276.19 140.55 L279.25 139.52 M441.81 140.55 L438.75 139.52 M441.81 140.55 L450.53 143.94 M455.20 146.06 L450.53 143.94 M279.25 139.52 L284.91 137.50 M284.91 137.50 L293.62 134.88 M293.62 134.88 L301.39 132.98 M424.38 134.88 L416.61 132.98 M424.38 134.88 L433.09 137.50 M438.75 139.52 L433.09 137.50 M301.39 132.98 L302.34 132.72 M302.34 132.72 L311.06 130.72 M311.06 130.72 L319.77 129.15 M319.77 129.15 L328.49 127.95 M328.49 127.95 L337.21 127.08 M337.21 127.08 L345.92 126.51 M345.92 126.51 L348.15 126.44 M372.08 126.51 L369.85 126.44 M372.08 126.51 L380.79 127.08 M380.79 127.08 L389.51 127.95 M389.51 127.95 L398.23 129.15 M398.23 129.15 L406.94 130.72 M406.94 130.72 L415.66 132.72 M416.61 132.98 L415.66 132.72 M348.15 126.44 L354.64 126.20 M354.64 126.20 L363.36 126.20 M369.85 126.44 L363.36 126.20 " stroke="steelblue" stroke-width="1.2" fill="none" /><path d="M316.61 381.41 L319.77 382.11 M319.77 382.11 L328.49 383.64 M328.49 383.64 L337.21 384.75 M337.21 384.75 L345.92 385.47 M345.92 385.47 L354.64 385.82 M354.64 385.82 L363.36 385.82 M363.36 385.82 L372.08 385.47 M372.08 385.47 L380.79 384.75 M380.79 384.75 L389.51 383.64 M389.51 383.64 L398.23 382.11 M398.23 382.11 L401.39 381.41 M292.74 374.87 L293.62 375.20 M293.62 375.20 L302.34 378.01 M302.34 378.01 L311.06 380.26 M316.61 381.41 L311.06 380.26 M401.39 381.41 L406.94 380.26 M406.94 380.26 L415.66 378.01 M415.66 378.01 L424.38 375.20 M424.38 375.20 L425.26 374.87 M276.39 368.33 L284.91 372.06 M292.74 374.87 L284.91 372.06 M425.26 374.87 L433.09 372.06 M433.09 372.06 L441.61 368.33 M263.56 361.79 L267.47 363.99 M267.47 363.99 L276.19 368.25 M276.39 368.33 L276.19 368.25 M441.61 368.33 L441.81 368.25 M441.81 368.25 L450.53 363.99 M450.53 363.99 L454.44 361.79 M252.98 355.26 L258.76 359.01 M263.56 361.79 L258.76 359.01 M454.44 361.79 L459.24 359.01 M459.24 359.01 L465.02 355.26 M244.02 348.72 L250.04 353.23 M252.98 355.26 L250.04 353.23 M465.02 355.26 L467.96 353.23 M467.96 353.23 L473.98 348.72 M236.32 342.18 L241.32 346.52 M244.02 348.72 L241.32 346.52 M473.98 348.72 L476.68 346.52 M476.68 346.52 L481.68 342.18 M229.68 335.64 L232.61 338.58 M236.32 342.18 L232.61 338.58 M481.68 342.18 L485.39 338.58 M485.39 338.58 L488.32 335.64 M229.68 335.64 L224.01 329.11 M488.32 335.64 L493.99 329.11 M218.93 322.57 L223.89 328.96 M224.01 329.11 L223.89 328.96 M493.99 329.11 L494.11 328.96 M494.11 328.96 L499.07 322.57 M214.74 316.03 L215.17 316.70 M218.93 322.57 L215.17 316.70 M499.07 322.57 L502.83 316.70 M502.83 316.70 L503.26 316.03 M214.74 316.03 L210.99 309.49 M503.26 316.03 L507.01 309.49 M210.99 309.49 L207.99 302.96 M507.01 309.49 L510.01 302.96 M205.52 296.42 L206.46 298.79 M207.99 302.96 L206.46 298.79 M510.01 302.96 L511.54 298.79 M511.54 298.79 L512.48 296.42 M205.52 296.42 L203.48 289.88 M512.48 296.42 L514.52 289.88 M203.48 289.88 L202.00 283.34 M514.52 289.88 L516.00 283.34 M202.00 283.34 L201.04 276.81 M516.00 283.34 L516.96 276.81 M201.04 276.81 L200.57 270.27 M516.96 276.81 L517.43 270.27 M200.57 270.27 L200.57 263.73 M517.43 270.27 L517.43 263.73 M200.57 263.73 L201.04 257.19 M517.43 263.73 L516.96 257.19 M201.04 257.19 L202.00 250.66 M516.96 257.19 L516.00 250.66 M202.00 250.66 L203.48 244.12 M516.00 250.66 L514.52 244.12 M203.48 244.12 L205.52 237.58 M514.52 244.12 L512.48 237.58 M205.52 237.58 L206.46 235.21 M206.46 235.21 L207.99 231.04 M511.54 235.21 L510.01 231.04 M512.48 237.58 L511.54 235.21 M207.99 231.04 L210.99 224.51 M510.01 231.04 L507.01 224.51 M210.99 224.51 L214.74 217.97 M507.01 224.51 L503.26 217.97 M214.74 217.97 L215.17 217.30 M215.17 217.30 L218.93 211.43 M502.83 217.30 L499.07 211.43 M503.26 217.97 L502.83 217.30 M218.93 211.43 L223.89 205.04 M223.89 205.04 L224.01 204.89 M494.11 205.04 L493.99 204.89 M499.07 211.43 L494.11 205.04 M224.01 204.89 L229.68 198.36 M493.99 204.89 L488.32 198.36 M229.68 198.36 L232.61 195.42 M232.61 195.42 L236.32 191.82 M485.39 195.42 L481.68 191.82 M488.32 198.36 L485.39 195.42 M236.32 191.82 L241.32 187.48 M241.32 187.48 L244.02 185.28 M476.68 187.48 L473.98 185.28 M481.68 191.82 L476.68 187.48 M244.02 185.28 L250.04 180.77 M250.04 180.77 L252.98 178.74 M467.96 180.77 L465.02 178.74 M473.98 185.28 L467.96 180.77 M252.98 178.74 L258.76 174.99 M258.76 174.99 L263.56 172.21 M459.24 174.99 L454.44 172.21 M465.02 178.74 L459.24 174.99 M263.56 172.21 L267.47 170.01 M267.47 170.01 L276.19 165.75 M276.19 165.75 L276.39 165.67 M441.81 165.75 L441.61 165.67 M441.81 165.75 L450.53 170.01 M454.44 172.21 L450.53 170.01 M276.39 165.67 L284.91 161.94 M284.91 161.94 L292.74 159.13 M433.09 161.94 L425.26 159.13 M441.61 165.67 L433.09 161.94 M292.74 159.13 L293.62 158.80 M293.62 158.80 L302.34 155.99 M302.34 155.99 L311.06 153.74 M311.06 153.74 L316.61 152.59 M406.94 153.74 L401.39 152.59 M406.94 153.74 L415.66 155.99 M415.66 155.99 L424.38 158.80 M425.26 159.13 L424.38 158.80 M316.61 152.59 L319.77 151.89 M319.77 151.89 L328.49 150.36 M328.49 150.36 L337.21 149.25 M337.21 149.25 L345.92 148.53 M345.92 148.53 L354.64 148.18 M354.64 148.18 L363.36 148.18 M363.36 148.18 L372.08 148.53 M372.08 148.53 L380.79 149.25 M380.79 149.25 L389.51 150.36 M389.51 150.36 L398.23 151.89 M401.39 152.59 L398.23 151.89 " stroke="steelblue" stroke-width="1.2" fill="none" /><path d="M329.63 368.33 L337.21 369.47 M337.21 369.47 L345.92 370.32 M345.92 370.32 L354.64 370.74 M354.64 370.74 L363.36 370.74 M363.36 370.74 L372.08 370.32 M372.08 370.32 L380.79 369.47 M380.79 369.47 L388.37 368.33 M302.90 361.79 L311.06 364.35 M311.06 364.35 L319.77 366.52 M319.77 366.52 L328.49 368.17 M329.63 368.33 L328.49 368.17 M388.37 368.33 L389.51 368.17 M389.51 368.17 L398.23 366.52 M398.23 366.52 L406.94 364.35 M406.94 364.35 L415.10 361.79 M286.38 355.26 L293.62 358.46 M293.62 358.46 L302.34 361.62 M302.90 361.79 L302.34 361.62 M415.10 361.79 L415.66 361.62 M415.66 361.62 L424.38 358.46 M424.38 358.46 L431.62 355.26 M273.84 348.72 L276.19 350.10 M276.19 350.10 L284.91 354.59 M286.38 355.26 L284.91 354.59 M431.62 355.26 L433.09 354.59 M433.09 354.59 L441.81 350.10 M441.81 350.10 L444.16 348.72 M263.71 342.18 L267.47 344.78 M273.84 348.72 L267.47 344.78 M444.16 348.72 L450.53 344.78 M450.53 344.78 L454.29 342.18 M255.29 335.64 L258.76 338.47 M263.71 342.18 L258.76 338.47 M454.29 342.18 L459.24 338.47 M459.24 338.47 L462.71 335.64 M248.20 329.11 L250.04 330.87 M255.29 335.64 L250.04 330.87 M462.71 335.64 L467.96 330.87 M467.96 330.87 L469.80 329.11 M248.20 329.11 L242.21 322.57 M469.80 329.11 L475.79 322.57 M237.06 316.03 L241.32 321.46 M242.21 322.57 L241.32 321.46 M475.79 322.57 L476.68 321.46 M476.68 321.46 L480.94 316.03 M237.06 316.03 L232.84 309.49 M480.94 316.03 L485.16 309.49 M229.19 302.96 L232.61 309.07 M232.84 309.49 L232.61 309.07 M485.16 309.49 L485.39 309.07 M485.39 309.07 L488.81 302.96 M229.19 302.96 L226.31 296.42 M488.81 302.96 L491.69 296.42 M226.31 296.42 L224.11 289.88 M491.69 296.42 L493.89 289.88 M222.37 283.34 L223.89 289.02 M224.11 289.88 L223.89 289.02 M493.89 289.88 L494.11 289.02 M494.11 289.02 L495.63 283.34 M222.37 283.34 L221.23 276.81 M495.63 283.34 L496.77 276.81 M221.23 276.81 L220.67 270.27 M496.77 276.81 L497.33 270.27 M220.67 270.27 L220.67 263.73 M497.33 270.27 L497.33 263.73 M220.67 263.73 L221.23 257.19 M497.33 263.73 L496.77 257.19 M221.23 257.19 L222.37 250.66 M496.77 257.19 L495.63 250.66 M222.37 250.66 L223.89 244.98 M223.89 244.98 L224.11 244.12 M494.11 244.98 L493.89 244.12 M495.63 250.66 L494.11 244.98 M224.11 244.12 L226.31 237.58 M493.89 244.12 L491.69 237.58 M226.31 237.58 L229.19 231.04 M491.69 237.58 L488.81 231.04 M229.19 231.04 L232.61 224.93 M232.61 224.93 L232.84 224.51 M485.39 224.93 L485.16 224.51 M488.81 231.04 L485.39 224.93 M232.84 224.51 L237.06 217.97 M485.16 224.51 L480.94 217.97 M237.06 217.97 L241.32 212.54 M241.32 212.54 L242.21 211.43 M476.68 212.54 L475.79 211.43 M480.94 217.97 L476.68 212.54 M242.21 211.43 L248.20 204.89 M475.79 211.43 L469.80 204.89 M248.20 204.89 L250.04 203.13 M250.04 203.13 L255.29 198.36 M467.96 203.13 L462.71 198.36 M469.80 204.89 L467.96 203.13 M255.29 198.36 L258.76 195.53 M258.76 195.53 L263.71 191.82 M459.24 195.53 L454.29 191.82 M462.71 198.36 L459.24 195.53 M263.71 191.82 L267.47 189.22 M267.47 189.22 L273.84 185.28 M450.53 189.22 L444.16 185.28 M454.29 191.82 L450.53 189.22 M273.84 185.28 L276.19 183.90 M276.19 183.90 L284.91 179.41 M284.91 179.41 L286.38 178.74 M433.09 179.41 L431.62 178.74 M433.09 179.41 L441.81 183.90 M444.16 185.28 L441.81 183.90 M286.38 178.74 L293.62 175.54 M293.62 175.54 L302.34 172.38 M302.34 172.38 L302.90 172.21 M415.66 172.38 L415.10 172.21 M415.66 172.38 L424.38 175.54 M431.62 178.74 L424.38 175.54 M302.90 172.21 L311.06 169.65 M311.06 169.65 L319.77 167.48 M319.77 167.48 L328.49 165.83 M328.49 165.83 L329.63 165.67 M389.51 165.83 L388.37 165.67 M389.51 165.83 L398.23 167.48 M398.23 167.48 L406.94 169.65 M415.10 172.21 L406.94 169.65 M329.63 165.67 L337.21 164.53 M337.21 164.53 L345.92 163.68 M345.92 163.68 L354.64 163.26 M354.64 163.26 L363.36 163.26 M363.36 163.26 L372.08 163.68 M372.08 163.68 L380.79 164.53 M388.37 165.67 L380.79 164.53 " stroke="steelblue" stroke-width="1.2" fill="none" /><path d="M326.73 355.26 L328.49 355.65 M328.49 355.65 L337.21 357.12 M337.21 357.12 L345.92 358.08 M345.92 358.08 L354.64 358.55 M354.64 358.55 L363.36 358.55 M363.36 358.55 L372.08 358.08 M372.08 358.08 L380.79 357.12 M380.79 357.12 L389.51 355.65 M389.51 355.65 L391.27 355.26 M304.05 348.72 L311.06 351.23 M311.06 351.23 L319.77 353.73 M326.73 355.26 L319.77 353.73 M391.27 355.26 L398.23 353.73 M398.23 353.73 L406.94 351.23 M406.94 351.23 L413.95 348.72 M289.40 342.18 L293.62 344.34 M293.62 344.34 L302.34 348.10 M304.05 348.72 L302.34 348.10 M413.95 348.72 L415.66 348.10 M415.66 348.10 L424.38 344.34 M424.38 344.34 L428.60 342.18 M278.25 335.64 L284.91 339.77 M289.40 342.18 L284.91 339.77 M428.60 342.18 L433.09 339.77 M433.09 339.77 L439.75 335.64 M269.32 329.11 L276.19 334.26 M278.25 335.64 L276.19 334.26 M439.75 335.64 L441.81 334.26 M441.81 334.26 L448.68 329.11 M261.97 322.57 L267.47 327.56 M269.32 329.11 L267.47 327.56 M448.68 329.11 L450.53 327.56 M450.53 327.56 L456.03 322.57 M255.88 316.03 L258.76 319.20 M261.97 322.57 L258.76 319.20 M456.03 322.57 L459.24 319.20 M459.24 319.20 L462.12 316.03 M255.88 316.03 L250.87 309.49 M462.12 316.03 L467.13 309.49 M246.69 302.96 L250.04 308.21 M250.87 309.49 L250.04 308.21 M467.13 309.49 L467.96 308.21 M467.96 308.21 L471.31 302.96 M246.69 302.96 L243.37 296.42 M471.31 302.96 L474.63 296.42 M240.79 289.88 L241.32 291.20 M243.37 296.42 L241.32 291.20 M474.63 296.42 L476.68 291.20 M476.68 291.20 L477.21 289.88 M240.79 289.88 L238.84 283.34 M477.21 289.88 L479.16 283.34 M238.84 283.34 L237.56 276.81 M479.16 283.34 L480.44 276.81 M237.56 276.81 L236.94 270.27 M480.44 276.81 L481.06 270.27 M236.94 270.27 L236.94 263.73 M481.06 270.27 L481.06 263.73 M236.94 263.73 L237.56 257.19 M481.06 263.73 L480.44 257.19 M237.56 257.19 L238.84 250.66 M480.44 257.19 L479.16 250.66 M238.84 250.66 L240.79 244.12 M479.16 250.66 L477.21 244.12 M240.79 244.12 L241.32 242.80 M241.32 242.80 L243.37 237.58 M476.68 242.80 L474.63 237.58 M477.21 244.12 L476.68 242.80 M243.37 237.58 L246.69 231.04 M474.63 237.58 L471.31 231.04 M246.69 231.04 L250.04 225.79 M250.04 225.79 L250.87 224.51 M467.96 225.79 L467.13 224.51 M471.31 231.04 L467.96 225.79 M250.87 224.51 L255.88 217.97 M467.13 224.51 L462.12 217.97 M255.88 217.97 L258.76 214.80 M258.76 214.80 L261.97 211.43 M459.24 214.80 L456.03 211.43 M462.12 217.97 L459.24 214.80 M261.97 211.43 L267.47 206.44 M267.47 206.44 L269.32 204.89 M450.53 206.44 L448.68 204.89 M456.03 211.43 L450.53 206.44 M269.32 204.89 L276.19 199.74 M276.19 199.74 L278.25 198.36 M441.81 199.74 L439.75 198.36 M448.68 204.89 L441.81 199.74 M278.25 198.36 L284.91 194.23 M284.91 194.23 L289.40 191.82 M433.09 194.23 L428.60 191.82 M439.75 198.36 L433.09 194.23 M289.40 191.82 L293.62 189.66 M293.62 189.66 L302.34 185.90 M302.34 185.90 L304.05 185.28 M415.66 185.90 L413.95 185.28 M415.66 185.90 L424.38 189.66 M428.60 191.82 L424.38 189.66 M304.05 185.28 L311.06 182.77 M311.06 182.77 L319.77 180.27 M319.77 180.27 L326.73 178.74 M398.23 180.27 L391.27 178.74 M398.23 180.27 L406.94 182.77 M413.95 185.28 L406.94 182.77 M326.73 178.74 L328.49 178.35 M328.49 178.35 L337.21 176.88 M337.21 176.88 L345.92 175.92 M345.92 175.92 L354.64 175.45 M354.64 175.45 L363.36 175.45 M363.36 175.45 L372.08 175.92 M372.08 175.92 L380.79 176.88 M380.79 176.88 L389.51 178.35 M391.27 178.74 L389.51 178.35 " stroke="steelblue" stroke-width="1.2" fill="none" /><path d="M319.37 342.18 L319.77 342.31 M319.77 342.31 L328.49 344.58 M328.49 344.58 L337.21 346.21 M337.21 346.21 L345.92 347.28 M345.92 347.28 L354.64 347.80 M354.64 347.80 L363.36 347.80 M363.36 347.80 L372.08 347.28 M372.08 347.28 L380.79 346.21 M380.79 346.21 L389.51 344.58 M389.51 344.58 L398.23 342.31 M398.23 342.31 L398.63 342.18 M302.05 335.64 L302.34 335.79 M302.34 335.79 L311.06 339.43 M319.37 342.18 L311.06 339.43 M398.63 342.18 L406.94 339.43 M406.94 339.43 L415.66 335.79 M415.66 335.79 L415.95 335.64 M290.02 329.11 L293.62 331.29 M302.05 335.64 L293.62 331.29 M415.95 335.64 L424.38 331.29 M424.38 331.29 L427.98 329.11 M280.71 322.57 L284.91 325.71 M290.02 329.11 L284.91 325.71 M427.98 329.11 L433.09 325.71 M433.09 325.71 L437.29 322.57 M273.28 316.03 L276.19 318.73 M280.71 322.57 L276.19 318.73 M437.29 322.57 L441.81 318.73 M441.81 318.73 L444.72 316.03 M267.29 309.49 L267.47 309.71 M273.28 316.03 L267.47 309.71 M444.72 316.03 L450.53 309.71 M450.53 309.71 L450.71 309.49 M267.29 309.49 L262.42 302.96 M450.71 309.49 L455.58 302.96 M258.58 296.42 L258.76 296.72 M262.42 302.96 L258.76 296.72 M455.58 302.96 L459.24 296.72 M459.24 296.72 L459.42 296.42 M258.58 296.42 L255.56 289.88 M459.42 296.42 L462.44 289.88 M255.56 289.88 L253.38 283.34 M462.44 289.88 L464.62 283.34 M253.38 283.34 L251.96 276.81 M464.62 283.34 L466.04 276.81 M251.96 276.81 L251.26 270.27 M466.04 276.81 L466.74 270.27 M251.26 270.27 L251.26 263.73 M466.74 270.27 L466.74 263.73 M251.26 263.73 L251.96 257.19 M466.74 263.73 L466.04 257.19 M251.96 257.19 L253.38 250.66 M466.04 257.19 L464.62 250.66 M253.38 250.66 L255.56 244.12 M464.62 250.66 L462.44 244.12 M255.56 244.12 L258.58 237.58 M462.44 244.12 L459.42 237.58 M258.58 237.58 L258.76 237.28 M258.76 237.28 L262.42 231.04 M459.24 237.28 L455.58 231.04 M459.42 237.58 L459.24 237.28 M262.42 231.04 L267.29 224.51 M455.58 231.04 L450.71 224.51 M267.29 224.51 L267.47 224.29 M267.47 224.29 L273.28 217.97 M450.53 224.29 L444.72 217.97 M450.71 224.51 L450.53 224.29 M273.28 217.97 L276.19 215.27 M276.19 215.27 L280.71 211.43 M441.81 215.27 L437.29 211.43 M444.72 217.97 L441.81 215.27 M280.71 211.43 L284.91 208.29 M284.91 208.29 L290.02 204.89 M433.09 208.29 L427.98 204.89 M437.29 211.43 L433.09 208.29 M290.02 204.89 L293.62 202.71 M293.62 202.71 L302.05 198.36 M424.38 202.71 L415.95 198.36 M427.98 204.89 L424.38 202.71 M302.05 198.36 L302.34 198.21 M302.34 198.21 L311.06 194.57 M311.06 194.57 L319.37 191.82 M406.94 194.57 L398.63 191.82 M406.94 194.57 L415.66 198.21 M415.95 198.36 L415.66 198.21 M319.37 191.82 L319.77 191.69 M319.77 191.69 L328.49 189.42 M328.49 189.42 L337.21 187.79 M337.21 187.79 L345.92 186.72 M345.92 186.72 L354.64 186.20 M354.64 186.20 L363.36 186.20 M363.36 186.20 L372.08 186.72 M372.08 186.72 L380.79 187.79 M380.79 187.79 L389.51 189.42 M389.51 189.42 L398.23 191.69 M398.63 191.82 L398.23 191.69 " stroke="steelblue" stroke-width="1.2" fill="none" /><path d="M335.44 335.64 L337.21 336.02 M337.21 336.02 L345.92 337.26 M345.92 337.26 L354.64 337.87 M354.64 337.87 L363.36 337.87 M363.36 337.87 L372.08 337.26 M372.08 337.26 L380.79 336.02 M380.79 336.02 L382.56 335.64 M313.45 329.11 L319.77 331.54 M319.77 331.54 L328.49 334.14 M335.44 335.64 L328.49 334.14 M382.56 335.64 L389.51 334.14 M389.51 334.14 L398.23 331.54 M398.23 331.54 L404.55 329.11 M300.29 322.57 L302.34 323.78 M302.34 323.78 L311.06 328.13 M313.45 329.11 L311.06 328.13 M404.55 329.11 L406.94 328.13 M406.94 328.13 L415.66 323.78 M415.66 323.78 L417.71 322.57 M290.71 316.03 L293.62 318.22 M300.29 322.57 L293.62 318.22 M417.71 322.57 L424.38 318.22 M424.38 318.22 L427.29 316.03 M283.30 309.49 L284.91 311.03 M290.71 316.03 L284.91 311.03 M427.29 316.03 L433.09 311.03 M433.09 311.03 L434.70 309.49 M283.30 309.49 L277.49 302.96 M434.70 309.49 L440.51 302.96 M272.95 296.42 L276.19 301.16 M277.49 302.96 L276.19 301.16 M440.51 302.96 L441.81 301.16 M441.81 301.16 L445.05 296.42 M272.95 296.42 L269.49 289.88 M445.05 296.42 L448.51 289.88 M266.97 283.34 L267.47 284.67 M269.49 289.88 L267.47 284.67 M448.51 289.88 L450.53 284.67 M450.53 284.67 L451.03 283.34 M266.97 283.34 L265.32 276.81 M451.03 283.34 L452.68 276.81 M265.32 276.81 L264.51 270.27 M452.68 276.81 L453.49 270.27 M264.51 270.27 L264.51 263.73 M453.49 270.27 L453.49 263.73 M264.51 263.73 L265.32 257.19 M453.49 263.73 L452.68 257.19 M265.32 257.19 L266.97 250.66 M452.68 257.19 L451.03 250.66 M266.97 250.66 L267.47 249.33 M267.47 249.33 L269.49 244.12 M450.53 249.33 L448.51 244.12 M451.03 250.66 L450.53 249.33 M269.49 244.12 L272.95 237.58 M448.51 244.12 L445.05 237.58 M272.95 237.58 L276.19 232.84 M276.19 232.84 L277.49 231.04 M441.81 232.84 L440.51 231.04 M445.05 237.58 L441.81 232.84 M277.49 231.04 L283.30 224.51 M440.51 231.04 L434.70 224.51 M283.30 224.51 L284.91 222.97 M284.91 222.97 L290.71 217.97 M433.09 222.97 L427.29 217.97 M434.70 224.51 L433.09 222.97 M290.71 217.97 L293.62 215.78 M293.62 215.78 L300.29 211.43 M424.38 215.78 L417.71 211.43 M427.29 217.97 L424.38 215.78 M300.29 211.43 L302.34 210.22 M302.34 210.22 L311.06 205.87 M311.06 205.87 L313.45 204.89 M406.94 205.87 L404.55 204.89 M406.94 205.87 L415.66 210.22 M417.71 211.43 L415.66 210.22 M313.45 204.89 L319.77 202.46 M319.77 202.46 L328.49 199.86 M328.49 199.86 L335.44 198.36 M389.51 199.86 L382.56 198.36 M389.51 199.86 L398.23 202.46 M404.55 204.89 L398.23 202.46 M335.44 198.36 L337.21 197.98 M337.21 197.98 L345.92 196.74 M345.92 196.74 L354.64 196.13 M354.64 196.13 L363.36 196.13 M363.36 196.13 L372.08 196.74 M372.08 196.74 L380.79 197.98 M382.56 198.36 L380.79 197.98 " stroke="steelblue" stroke-width="1.2" fill="none" /><path d="M324.75 322.57 L328.49 323.85 M328.49 323.85 L337.21 326.06 M337.21 326.06 L345.92 327.49 M345.92 327.49 L354.64 328.20 M354.64 328.20 L363.36 328.20 M363.36 328.20 L372.08 327.49 M372.08 327.49 L380.79 326.06 M380.79 326.06 L389.51 323.85 M389.51 323.85 L393.25 322.57 M310.02 316.03 L311.06 316.62 M311.06 316.62 L319.77 320.74 M324.75 322.57 L319.77 320.74 M393.25 322.57 L398.23 320.74 M398.23 320.74 L406.94 316.62 M406.94 316.62 L407.98 316.03 M300.17 309.49 L302.34 311.12 M310.02 316.03 L302.34 311.12 M407.98 316.03 L415.66 311.12 M415.66 311.12 L417.83 309.49 M292.84 302.96 L293.62 303.74 M300.17 309.49 L293.62 303.74 M417.83 309.49 L424.38 303.74 M424.38 303.74 L425.16 302.96 M292.84 302.96 L287.34 296.42 M425.16 302.96 L430.66 296.42 M283.20 289.88 L284.91 292.69 M287.34 296.42 L284.91 292.69 M430.66 296.42 L433.09 292.69 M433.09 292.69 L434.80 289.88 M283.20 289.88 L280.26 283.34 M434.80 289.88 L437.74 283.34 M280.26 283.34 L278.34 276.81 M437.74 283.34 L439.66 276.81 M278.34 276.81 L277.40 270.27 M439.66 276.81 L440.60 270.27 M277.40 270.27 L277.40 263.73 M440.60 270.27 L440.60 263.73 M277.40 263.73 L278.34 257.19 M440.60 263.73 L439.66 257.19 M278.34 257.19 L280.26 250.66 M439.66 257.19 L437.74 250.66 M280.26 250.66 L283.20 244.12 M437.74 250.66 L434.80 244.12 M283.20 244.12 L284.91 241.31 M284.91 241.31 L287.34 237.58 M433.09 241.31 L430.66 237.58 M434.80 244.12 L433.09 241.31 M287.34 237.58 L292.84 231.04 M430.66 237.58 L425.16 231.04 M292.84 231.04 L293.62 230.26 M293.62 230.26 L300.17 224.51 M424.38 230.26 L417.83 224.51 M425.16 231.04 L424.38 230.26 M300.17 224.51 L302.34 222.88 M302.34 222.88 L310.02 217.97 M415.66 222.88 L407.98 217.97 M417.83 224.51 L415.66 222.88 M310.02 217.97 L311.06 217.38 M311.06 217.38 L319.77 213.26 M319.77 213.26 L324.75 211.43 M398.23 213.26 L393.25 211.43 M398.23 213.26 L406.94 217.38 M407.98 217.97 L406.94 217.38 M324.75 211.43 L328.49 210.15 M328.49 210.15 L337.21 207.94 M337.21 207.94 L345.92 206.51 M345.92 206.51 L354.64 205.80 M354.64 205.80 L363.36 205.80 M363.36 205.80 L372.08 206.51 M372.08 206.51 L380.79 207.94 M380.79 207.94 L389.51 210.15 M393.25 211.43 L389.51 210.15 " stroke="steelblue" stroke-width="1.2" fill="none" /><path d="M338.12 316.03 L345.92 317.54 M345.92 317.54 L354.64 318.37 M354.64 318.37 L363.36 318.37 M363.36 318.37 L372.08 317.54 M372.08 317.54 L379.88 316.03 M320.23 309.49 L328.49 313.09 M328.49 313.09 L337.21 315.84 M338.12 316.03 L337.21 315.84 M379.88 316.03 L380.79 315.84 M380.79 315.84 L389.51 313.09 M389.51 313.09 L397.77 309.49 M309.88 302.96 L311.06 303.84 M311.06 303.84 L319.77 309.27 M320.23 309.49 L319.77 309.27 M397.77 309.49 L398.23 309.27 M398.23 309.27 L406.94 303.84 M406.94 303.84 L408.12 302.96 M309.88 302.96 L302.64 296.42 M408.12 302.96 L415.36 296.42 M297.55 289.88 L302.34 296.08 M302.64 296.42 L302.34 296.08 M415.36 296.42 L415.66 296.08 M415.66 296.08 L420.45 289.88 M297.55 289.88 L293.88 283.34 M420.45 289.88 L424.12 283.34 M291.61 276.81 L293.62 282.66 M293.88 283.34 L293.62 282.66 M424.12 283.34 L424.38 282.66 M424.38 282.66 L426.39 276.81 M291.61 276.81 L290.50 270.27 M426.39 276.81 L427.50 270.27 M290.50 270.27 L290.50 263.73 M427.50 270.27 L427.50 263.73 M290.50 263.73 L291.61 257.19 M427.50 263.73 L426.39 257.19 M291.61 257.19 L293.62 251.34 M293.62 251.34 L293.88 250.66 M424.38 251.34 L424.12 250.66 M426.39 257.19 L424.38 251.34 M293.88 250.66 L297.55 244.12 M424.12 250.66 L420.45 244.12 M297.55 244.12 L302.34 237.92 M302.34 237.92 L302.64 237.58 M415.66 237.92 L415.36 237.58 M420.45 244.12 L415.66 237.92 M302.64 237.58 L309.88 231.04 M415.36 237.58 L408.12 231.04 M309.88 231.04 L311.06 230.16 M311.06 230.16 L319.77 224.73 M319.77 224.73 L320.23 224.51 M398.23 224.73 L397.77 224.51 M398.23 224.73 L406.94 230.16 M408.12 231.04 L406.94 230.16 M320.23 224.51 L328.49 220.91 M328.49 220.91 L337.21 218.16 M337.21 218.16 L338.12 217.97 M380.79 218.16 L379.88 217.97 M380.79 218.16 L389.51 220.91 M397.77 224.51 L389.51 220.91 M338.12 217.97 L345.92 216.46 M345.92 216.46 L354.64 215.63 M354.64 215.63 L363.36 215.63 M363.36 215.63 L372.08 216.46 M379.88 217.97 L372.08 216.46 " stroke="steelblue" stroke-width="1.2" fill="none" /><path d="M333.10 302.96 L337.21 304.52 M337.21 304.52 L345.92 306.71 M345.92 306.71 L354.64 307.79 M354.64 307.79 L363.36 307.79 M363.36 307.79 L372.08 306.71 M372.08 306.71 L380.79 304.52 M380.79 304.52 L384.90 302.96 M321.06 296.42 L328.49 300.90 M333.10 302.96 L328.49 300.90 M384.90 302.96 L389.51 300.90 M389.51 300.90 L396.94 296.42 M313.80 289.88 L319.77 295.46 M321.06 296.42 L319.77 295.46 M396.94 296.42 L398.23 295.46 M398.23 295.46 L404.20 289.88 M308.97 283.34 L311.06 286.42 M313.80 289.88 L311.06 286.42 M404.20 289.88 L406.94 286.42 M406.94 286.42 L409.03 283.34 M308.97 283.34 L306.05 276.81 M409.03 283.34 L411.95 276.81 M306.05 276.81 L304.61 270.27 M411.95 276.81 L413.39 270.27 M304.61 270.27 L304.61 263.73 M413.39 270.27 L413.39 263.73 M304.61 263.73 L306.05 257.19 M413.39 263.73 L411.95 257.19 M306.05 257.19 L308.97 250.66 M411.95 257.19 L409.03 250.66 M308.97 250.66 L311.06 247.58 M311.06 247.58 L313.80 244.12 M406.94 247.58 L404.20 244.12 M409.03 250.66 L406.94 247.58 M313.80 244.12 L319.77 238.54 M319.77 238.54 L321.06 237.58 M398.23 238.54 L396.94 237.58 M404.20 244.12 L398.23 238.54 M321.06 237.58 L328.49 233.10 M328.49 233.10 L333.10 231.04 M389.51 233.10 L384.90 231.04 M396.94 237.58 L389.51 233.10 M333.10 231.04 L337.21 229.48 M337.21 229.48 L345.92 227.29 M345.92 227.29 L354.64 226.21 M354.64 226.21 L363.36 226.21 M363.36 226.21 L372.08 227.29 M372.08 227.29 L380.79 229.48 M384.90 231.04 L380.79 229.48 " stroke="steelblue" stroke-width="1.2" fill="none" /><path d="M336.58 289.88 L337.21 290.24 M337.21 290.24 L345.92 293.53 M345.92 293.53 L354.64 295.16 M354.64 295.16 L363.36 295.16 M363.36 295.16 L372.08 293.53 M372.08 293.53 L380.79 290.24 M380.79 290.24 L381.42 289.88 M328.01 283.34 L328.49 283.82 M336.58 289.88 L328.49 283.82 M381.42 289.88 L389.51 283.82 M389.51 283.82 L389.99 283.34 M328.01 283.34 L323.62 276.81 M389.99 283.34 L394.38 276.81 M323.62 276.81 L321.46 270.27 M394.38 276.81 L396.54 270.27 M321.46 270.27 L321.46 263.73 M396.54 270.27 L396.54 263.73 M321.46 263.73 L323.62 257.19 M396.54 263.73 L394.38 257.19 M323.62 257.19 L328.01 250.66 M394.38 257.19 L389.99 250.66 M328.01 250.66 L328.49 250.18 M328.49 250.18 L336.58 244.12 M389.51 250.18 L381.42 244.12 M389.99 250.66 L389.51 250.18 M336.58 244.12 L337.21 243.76 M337.21 243.76 L345.92 240.47 M345.92 240.47 L354.64 238.84 M354.64 238.84 L363.36 238.84 M363.36 238.84 L372.08 240.47 M372.08 240.47 L380.79 243.76 M381.42 244.12 L380.79 243.76 " stroke="steelblue" stroke-width="1.2" fill="none" /></svg>