<svg xmlns="http://www.w3.org/2000/svg" width="600" height="380" font-family="DejaVu Sans, Liberation Sans, Arial, sans-serif" fill="black"><rect width="100%" height="100%" fill="white" /><defs><clipPath id="kuva-clip-0"><rect x="59" y="44" width="407" height="285"/></clipPath></defs><line x1="59" y1="329" x2="466" y2="329" stroke="#000000" stroke-width="1" /><line x1="59" y1="44" x2="59" y2="329" stroke="#000000" stroke-width="1" /><text x="51" y="292.49" font-size="12" text-anchor="end">6</text><line x1="54" y1="288.29" x2="59" y2="288.29" stroke="#000000" stroke-width="1" /><text x="51" y="251.77" font-size="12" text-anchor="end">5</text><line x1="54" y1="247.57" x2="59" y2="247.57" stroke="#000000" stroke-width="1" /><text x="51" y="211.06" font-size="12" text-anchor="end">4</text><line x1="54" y1="206.86" x2="59" y2="206.86" stroke="#000000" stroke-width="1" /><text x="51" y="170.34" font-size="12" text-anchor="end">3</text><line x1="54" y1="166.14000000000001" x2="59" y2="166.14000000000001" stroke="#000000" stroke-width="1" /><text x="51" y="129.63" font-size="12" text-anchor="end">2</text><line x1="54" y1="125.43" x2="59" y2="125.43" stroke="#000000" stroke-width="1" /><text x="51" y="88.91" font-size="12" text-anchor="end">1</text><line x1="54" y1="84.71000000000001" x2="59" y2="84.71000000000001" stroke="#000000" stroke-width="1" /><text x="126.83" y="346" font-size="12" text-anchor="middle">2020</text><line x1="126.83" y1="329" x2="126.83" y2="334" stroke="#000000" stroke-width="1" /><text x="194.67000000000002" y="346" font-size="12" text-anchor="middle">2021</text><line x1="194.67000000000002" y1="329" x2="194.67000000000002" y2="334" stroke="#000000" stroke-width="1" /><text x="262.5" y="346" font-size="12" text-anchor="middle">2022</text><line x1="262.5" y1="329" x2="262.5" y2="334" stroke="#000000" stroke-width="1" /><text x="330.33" y="346" font-size="12" text-anchor="middle">2023</text><line x1="330.33" y1="329" x2="330.33" y2="334" stroke="#000000" stroke-width="1" /><text x="398.17" y="346" font-size="12" text-anchor="middle">2024</text><line x1="398.17" y1="329" x2="398.17" y2="334" stroke="#000000" stroke-width="1" /><text x="262.5" y="373" font-size="14" text-anchor="middle">Year</text><text x="15" y="190" font-size="14" text-anchor="middle" transform="rotate(-90,15,190)">Rank</text><text x="300" y="27.400000000000002" font-size="18" text-anchor="middle">Programming Language Rankings</text><g clip-path="url(#kuva-clip-0)"><path d="M 126.83,84.71 C 160.75,84.71 160.75,84.71 194.67,84.71" stroke="#1f77b4" stroke-width="2.5" fill="none" fill-opacity="1" /><path d="M 194.67,84.71 C 228.58,84.71 228.58,84.71 262.50,84.71" stroke="#1f77b4" stroke-width="2.5" fill="none" fill-opacity="1" /><path d="M 262.50,84.71 C 296.42,84.71 296.42,84.71 330.33,84.71" stroke="#1f77b4" stroke-width="2.5" fill="none" fill-opacity="1" /><path d="M 330.33,84.71 C 364.25,84.71 364.25,84.71 398.17,84.71" stroke="#1f77b4" stroke-width="2.5" fill="none" fill-opacity="1" /><circle cx="126.83" cy="84.71000000000001" r="6" fill="#1f77b4" fill-opacity="1" stroke="#ffffff" stroke-width="1.25" /><text x="126.83" y="87.16" font-size="7" text-anchor="middle" fill="#ffffff">1</text><circle cx="194.67000000000002" cy="84.71000000000001" r="6" fill="#1f77b4" fill-opacity="1" stroke="#ffffff" stroke-width="1.25" /><text x="194.67000000000002" y="87.16" font-size="7" text-anchor="middle" fill="#ffffff">1</text><circle cx="262.5" cy="84.71000000000001" r="6" fill="#1f77b4" fill-opacity="1" stroke="#ffffff" stroke-width="1.25" /><text x="262.5" y="87.16" font-size="7" text-anchor="middle" fill="#ffffff">1</text><circle cx="330.33" cy="84.71000000000001" r="6" fill="#1f77b4" fill-opacity="1" stroke="#ffffff" stroke-width="1.25" /><text x="330.33" y="87.16" font-size="7" text-anchor="middle" fill="#ffffff">1</text><circle cx="398.17" cy="84.71000000000001" r="6" fill="#1f77b4" fill-opacity="1" stroke="#ffffff" stroke-width="1.25" /><text x="398.17" y="87.16" font-size="7" text-anchor="middle" fill="#ffffff">1</text><path d="M 126.83,166.14 C 160.75,166.14 160.75,125.43 194.67,125.43" stroke="#ff7f0e" stroke-width="2.5" fill="none" fill-opacity="1" /><path d="M 194.67,125.43 C 228.58,125.43 228.58,125.43 262.50,125.43" stroke="#ff7f0e" stroke-width="2.5" fill="none" fill-opacity="1" /><path d="M 262.50,125.43 C 296.42,125.43 296.42,125.43 330.33,125.43" stroke="#ff7f0e" stroke-width="2.5" fill="none" fill-opacity="1" /><path d="M 330.33,125.43 C 364.25,125.43 364.25,125.43 398.17,125.43" stroke="#ff7f0e" stroke-width="2.5" fill="none" fill-opacity="1" /><circle cx="126.83" cy="166.14000000000001" r="6" fill="#ff7f0e" fill-opacity="1" stroke="#ffffff" stroke-width="1.25" /><text x="126.83" y="168.59" font-size="7" text-anchor="middle" fill="#ffffff">3</text><circle cx="194.67000000000002" cy="125.43" r="6" fill="#ff7f0e" fill-opacity="1" stroke="#ffffff" stroke-width="1.25" /><text x="194.67000000000002" y="127.88000000000001" font-size="7" text-anchor="middle" fill="#ffffff">2</text><circle cx="262.5" cy="125.43" r="6" fill="#ff7f0e" fill-opacity="1" stroke="#ffffff" stroke-width="1.25" /><text x="262.5" y="127.88000000000001" font-size="7" text-anchor="middle" fill="#ffffff">2</text><circle cx="330.33" cy="125.43" r="6" fill="#ff7f0e" fill-opacity="1" stroke="#ffffff" stroke-width="1.25" /><text x="330.33" y="127.88000000000001" font-size="7" text-anchor="middle" fill="#ffffff">2</text><circle cx="398.17" cy="125.43" r="6" fill="#ff7f0e" fill-opacity="1" stroke="#ffffff" stroke-width="1.25" /><text x="398.17" y="127.88000000000001" font-size="7" text-anchor="middle" fill="#ffffff">2</text><path d="M 126.83,125.43 C 160.75,125.43 160.75,166.14 194.67,166.14" stroke="#2ca02c" stroke-width="2.5" fill="none" fill-opacity="1" /><path d="M 194.67,166.14 C 228.58,166.14 228.58,166.14 262.50,166.14" stroke="#2ca02c" stroke-width="2.5" fill="none" fill-opacity="1" /><path d="M 262.50,166.14 C 296.42,166.14 296.42,206.86 330.33,206.86" stroke="#2ca02c" stroke-width="2.5" fill="none" fill-opacity="1" /><path d="M 330.33,206.86 C 364.25,206.86 364.25,166.14 398.17,166.14" stroke="#2ca02c" stroke-width="2.5" fill="none" fill-opacity="1" /><circle cx="126.83" cy="125.43" r="6" fill="#2ca02c" fill-opacity="1" stroke="#ffffff" stroke-width="1.25" /><text x="126.83" y="127.88000000000001" font-size="7" text-anchor="middle" fill="#ffffff">2</text><circle cx="194.67000000000002" cy="166.14000000000001" r="6" fill="#2ca02c" fill-opacity="1" stroke="#ffffff" stroke-width="1.25" /><text x="194.67000000000002" y="168.59" font-size="7" text-anchor="middle" fill="#ffffff">3</text><circle cx="262.5" cy="166.14000000000001" r="6" fill="#2ca02c" fill-opacity="1" stroke="#ffffff" stroke-width="1.25" /><text x="262.5" y="168.59" font-size="7" text-anchor="middle" fill="#ffffff">3</text><circle cx="330.33" cy="206.86" r="6" fill="#2ca02c" fill-opacity="1" stroke="#ffffff" stroke-width="1.25" /><text x="330.33" y="209.31" font-size="7" text-anchor="middle" fill="#ffffff">4</text><circle cx="398.17" cy="166.14000000000001" r="6" fill="#2ca02c" fill-opacity="1" stroke="#ffffff" stroke-width="1.25" /><text x="398.17" y="168.59" font-size="7" text-anchor="middle" fill="#ffffff">3</text><path d="M 126.83,206.86 C 160.75,206.86 160.75,206.86 194.67,206.86" stroke="#d62728" stroke-width="2.5" fill="none" fill-opacity="1" /><path d="M 194.67,206.86 C 228.58,206.86 228.58,206.86 262.50,206.86" stroke="#d62728" stroke-width="2.5" fill="none" fill-opacity="1" /><path d="M 262.50,206.86 C 296.42,206.86 296.42,166.14 330.33,166.14" stroke="#d62728" stroke-width="2.5" fill="none" fill-opacity="1" /><path d="M 330.33,166.14 C 364.25,166.14 364.25,206.86 398.17,206.86" stroke="#d62728" stroke-width="2.5" fill="none" fill-opacity="1" /><circle cx="126.83" cy="206.86" r="6" fill="#d62728" fill-opacity="1" stroke="#ffffff" stroke-width="1.25" /><text x="126.83" y="209.31" font-size="7" text-anchor="middle" fill="#ffffff">4</text><circle cx="194.67000000000002" cy="206.86" r="6" fill="#d62728" fill-opacity="1" stroke="#ffffff" stroke-width="1.25" /><text x="194.67000000000002" y="209.31" font-size="7" text-anchor="middle" fill="#ffffff">4</text><circle cx="262.5" cy="206.86" r="6" fill="#d62728" fill-opacity="1" stroke="#ffffff" stroke-width="1.25" /><text x="262.5" y="209.31" font-size="7" text-anchor="middle" fill="#ffffff">4</text><circle cx="330.33" cy="166.14000000000001" r="6" fill="#d62728" fill-opacity="1" stroke="#ffffff" stroke-width="1.25" /><text x="330.33" y="168.59" font-size="7" text-anchor="middle" fill="#ffffff">3</text><circle cx="398.17" cy="206.86" r="6" fill="#d62728" fill-opacity="1" stroke="#ffffff" stroke-width="1.25" /><text x="398.17" y="209.31" font-size="7" text-anchor="middle" fill="#ffffff">4</text><path d="M 126.83,369.71 C 160.75,369.71 160.75,329.00 194.67,329.00" stroke="#9467bd" stroke-width="2.5" fill="none" fill-opacity="1" /><path d="M 194.67,329.00 C 228.58,329.00 228.58,288.29 262.50,288.29" stroke="#9467bd" stroke-width="2.5" fill="none" fill-opacity="1" /><path d="M 262.50,288.29 C 296.42,288.29 296.42,247.57 330.33,247.57" stroke="#9467bd" stroke-width="2.5" fill="none" fill-opacity="1" /><path d="M 330.33,247.57 C 364.25,247.57 364.25,247.57 398.17,247.57" stroke="#9467bd" stroke-width="2.5" fill="none" fill-opacity="1" /><circle cx="126.83" cy="369.71" r="6" fill="#9467bd" fill-opacity="1" stroke="#ffffff" stroke-width="1.25" /><text x="126.83" y="372.16" font-size="7" text-anchor="middle" fill="#ffffff">8</text><circle cx="194.67000000000002" cy="329" r="6" fill="#9467bd" fill-opacity="1" stroke="#ffffff" stroke-width="1.25" /><text x="194.67000000000002" y="331.45" font-size="7" text-anchor="middle" fill="#ffffff">7</text><circle cx="262.5" cy="288.29" r="6" fill="#9467bd" fill-opacity="1" stroke="#ffffff" stroke-width="1.25" /><text x="262.5" y="290.74" font-size="7" text-anchor="middle" fill="#ffffff">6</text><circle cx="330.33" cy="247.57" r="6" fill="#9467bd" fill-opacity="1" stroke="#ffffff" stroke-width="1.25" /><text x="330.33" y="250.02" font-size="7" text-anchor="middle" fill="#ffffff">5</text><circle cx="398.17" cy="247.57" r="6" fill="#9467bd" fill-opacity="1" stroke="#ffffff" stroke-width="1.25" /><text x="398.17" y="250.02" font-size="7" text-anchor="middle" fill="#ffffff">5</text><path d="M 126.83,288.29 C 160.75,288.29 160.75,288.29 194.67,288.29" stroke="#8c564b" stroke-width="2.5" fill="none" fill-opacity="1" /><path d="M 194.67,288.29 C 228.58,288.29 228.58,247.57 262.50,247.57" stroke="#8c564b" stroke-width="2.5" fill="none" fill-opacity="1" /><path d="M 262.50,247.57 C 296.42,247.57 296.42,288.29 330.33,288.29" stroke="#8c564b" stroke-width="2.5" fill="none" fill-opacity="1" /><path d="M 330.33,288.29 C 364.25,288.29 364.25,288.29 398.17,288.29" stroke="#8c564b" stroke-width="2.5" fill="none" fill-opacity="1" /><circle cx="126.83" cy="288.29" r="6" fill="#8c564b" fill-opacity="1" stroke="#ffffff" stroke-width="1.25" /><text x="126.83" y="290.74" font-size="7" text-anchor="middle" fill="#ffffff">6</text><circle cx="194.67000000000002" cy="288.29" r="6" fill="#8c564b" fill-opacity="1" stroke="#ffffff" stroke-width="1.25" /><text x="194.67000000000002" y="290.74" font-size="7" text-anchor="middle" fill="#ffffff">6</text><circle cx="262.5" cy="247.57" r="6" fill="#8c564b" fill-opacity="1" stroke="#ffffff" stroke-width="1.25" /><text x="262.5" y="250.02" font-size="7" text-anchor="middle" fill="#ffffff">5</text><circle cx="330.33" cy="288.29" r="6" fill="#8c564b" fill-opacity="1" stroke="#ffffff" stroke-width="1.25" /><text x="330.33" y="290.74" font-size="7" text-anchor="middle" fill="#ffffff">6</text><circle cx="398.17" cy="288.29" r="6" fill="#8c564b" fill-opacity="1" stroke="#ffffff" stroke-width="1.25" /><text x="398.17" y="290.74" font-size="7" text-anchor="middle" fill="#ffffff">6</text><text x="115.83" y="88.91" font-size="12" text-anchor="end" fill="#1f77b4">Python</text><text x="115.83" y="129.63" font-size="12" text-anchor="end" fill="#2ca02c">Java</text><text x="115.83" y="170.34" font-size="12" text-anchor="end" fill="#ff7f0e">JavaScript</text><text x="115.83" y="211.06" font-size="12" text-anchor="end" fill="#d62728">C/C++</text><text x="115.83" y="292.49" font-size="12" text-anchor="end" fill="#8c564b">Go</text><text x="115.83" y="373.91" font-size="12" text-anchor="end" fill="#9467bd">Rust</text><text x="409.17" y="88.91" font-size="12" text-anchor="start" fill="#1f77b4">Python</text><text x="409.17" y="129.63" font-size="12" text-anchor="start" fill="#ff7f0e">JavaScript</text><text x="409.17" y="170.34" font-size="12" text-anchor="start" fill="#2ca02c">Java</text><text x="409.17" y="211.06" font-size="12" text-anchor="start" fill="#d62728">C/C++</text><text x="409.17" y="251.77" font-size="12" text-anchor="start" fill="#9467bd">Rust</text><text x="409.17" y="292.49" font-size="12" text-anchor="start" fill="#8c564b">Go</text></g><rect x="471" y="34" width="120" height="128" fill="#ffffff" /><rect x="471" y="34" width="120" height="128" fill="none" stroke="#000000" stroke-width="1" /><text x="501" y="53.2" font-size="12" text-anchor="start">Python</text><line x1="481" y1="49" x2="493" y2="49" stroke="#1f77b4" stroke-width="2" /><text x="501" y="71.2" font-size="12" text-anchor="start">JavaScript</text><line x1="481" y1="67" x2="493" y2="67" stroke="#ff7f0e" stroke-width="2" /><text x="501" y="89.2" font-size="12" text-anchor="start">Java</text><line x1="481" y1="85" x2="493" y2="85" stroke="#2ca02c" stroke-width="2" /><text x="501" y="107.2" font-size="12" text-anchor="start">C/C++</text><line x1="481" y1="103" x2="493" y2="103" stroke="#d62728" stroke-width="2" /><text x="501" y="125.2" font-size="12" text-anchor="start">Rust</text><line x1="481" y1="121" x2="493" y2="121" stroke="#9467bd" stroke-width="2" /><text x="501" y="143.20000000000002" font-size="12" text-anchor="start">Go</text><line x1="481" y1="139" x2="493" y2="139" stroke="#8c564b" stroke-width="2" /></svg>