<svg xmlns="http://www.w3.org/2000/svg" width="673" height="541" fill="black"><rect width="100%" height="100%" fill="white" /><line x1="59" y1="492" x2="659" y2="492" stroke="black" stroke-width="1" /><line x1="59" y1="42" x2="59" y2="492" stroke="black" stroke-width="1" /><line x1="113.54545454545455" y1="42" x2="113.54545454545455" y2="492" stroke="#ccc" stroke-width="1" /><line x1="168.0909090909091" y1="42" x2="168.0909090909091" y2="492" stroke="#ccc" stroke-width="1" /><line x1="222.63636363636363" y1="42" x2="222.63636363636363" y2="492" stroke="#ccc" stroke-width="1" /><line x1="277.1818181818182" y1="42" x2="277.1818181818182" y2="492" stroke="#ccc" stroke-width="1" /><line x1="331.7272727272727" y1="42" x2="331.7272727272727" y2="492" stroke="#ccc" stroke-width="1" /><line x1="386.27272727272725" y1="42" x2="386.27272727272725" y2="492" stroke="#ccc" stroke-width="1" /><line x1="440.8181818181818" y1="42" x2="440.8181818181818" y2="492" stroke="#ccc" stroke-width="1" /><line x1="495.3636363636364" y1="42" x2="495.3636363636364" y2="492" stroke="#ccc" stroke-width="1" /><line x1="549.909090909091" y1="42" x2="549.909090909091" y2="492" stroke="#ccc" stroke-width="1" /><line x1="604.4545454545454" y1="42" x2="604.4545454545454" y2="492" stroke="#ccc" stroke-width="1" /><line x1="659" y1="42" x2="659" y2="492" stroke="#ccc" stroke-width="1" /><line x1="59" y1="451.09090909090907" x2="659" y2="451.09090909090907" stroke="#ccc" stroke-width="1" /><line x1="59" y1="410.1818181818182" x2="659" y2="410.1818181818182" stroke="#ccc" stroke-width="1" /><line x1="59" y1="369.27272727272725" x2="659" y2="369.27272727272725" stroke="#ccc" stroke-width="1" /><line x1="59" y1="328.3636363636364" x2="659" y2="328.3636363636364" stroke="#ccc" stroke-width="1" /><line x1="59" y1="287.4545454545455" x2="659" y2="287.4545454545455" stroke="#ccc" stroke-width="1" /><line x1="59" y1="246.54545454545456" x2="659" y2="246.54545454545456" stroke="#ccc" stroke-width="1" /><line x1="59" y1="205.63636363636363" x2="659" y2="205.63636363636363" stroke="#ccc" stroke-width="1" /><line x1="59" y1="164.7272727272727" x2="659" y2="164.7272727272727" stroke="#ccc" stroke-width="1" /><line x1="59" y1="123.81818181818181" x2="659" y2="123.81818181818181" stroke="#ccc" stroke-width="1" /><line x1="59" y1="82.90909090909093" x2="659" y2="82.90909090909093" stroke="#ccc" stroke-width="1" /><line x1="59" y1="42" x2="659" y2="42" stroke="#ccc" stroke-width="1" /><line x1="59" y1="492" x2="59" y2="497" stroke="black" stroke-width="1" /><text x="59" y="507" font-size="10" text-anchor="middle">0</text><line x1="113.54545454545455" y1="492" x2="113.54545454545455" y2="497" stroke="black" stroke-width="1" /><text x="113.54545454545455" y="507" font-size="10" text-anchor="middle">1</text><line x1="168.0909090909091" y1="492" x2="168.0909090909091" y2="497" stroke="black" stroke-width="1" /><text x="168.0909090909091" y="507" font-size="10" text-anchor="middle">2</text><line x1="222.63636363636363" y1="492" x2="222.63636363636363" y2="497" stroke="black" stroke-width="1" /><text x="222.63636363636363" y="507" font-size="10" text-anchor="middle">3</text><line x1="277.1818181818182" y1="492" x2="277.1818181818182" y2="497" stroke="black" stroke-width="1" /><text x="277.1818181818182" y="507" font-size="10" text-anchor="middle">4</text><line x1="331.7272727272727" y1="492" x2="331.7272727272727" y2="497" stroke="black" stroke-width="1" /><text x="331.7272727272727" y="507" font-size="10" text-anchor="middle">5</text><line x1="386.27272727272725" y1="492" x2="386.27272727272725" y2="497" stroke="black" stroke-width="1" /><text x="386.27272727272725" y="507" font-size="10" text-anchor="middle">6</text><line x1="440.8181818181818" y1="492" x2="440.8181818181818" y2="497" stroke="black" stroke-width="1" /><text x="440.8181818181818" y="507" font-size="10" text-anchor="middle">7</text><line x1="495.3636363636364" y1="492" x2="495.3636363636364" y2="497" stroke="black" stroke-width="1" /><text x="495.3636363636364" y="507" font-size="10" text-anchor="middle">8</text><line x1="549.909090909091" y1="492" x2="549.909090909091" y2="497" stroke="black" stroke-width="1" /><text x="549.909090909091" y="507" font-size="10" text-anchor="middle">9</text><line x1="604.4545454545454" y1="492" x2="604.4545454545454" y2="497" stroke="black" stroke-width="1" /><text x="604.4545454545454" y="507" font-size="10" text-anchor="middle">10</text><line x1="659" y1="492" x2="659" y2="497" stroke="black" stroke-width="1" /><text x="659" y="507" font-size="10" text-anchor="middle">11</text><line x1="54" y1="492" x2="59" y2="492" stroke="black" stroke-width="1" /><text x="51" y="495.5" font-size="10" text-anchor="end">0</text><line x1="54" y1="451.09090909090907" x2="59" y2="451.09090909090907" stroke="black" stroke-width="1" /><text x="51" y="454.59090909090907" font-size="10" text-anchor="end">1</text><line x1="54" y1="410.1818181818182" x2="59" y2="410.1818181818182" stroke="black" stroke-width="1" /><text x="51" y="413.6818181818182" font-size="10" text-anchor="end">2</text><line x1="54" y1="369.27272727272725" x2="59" y2="369.27272727272725" stroke="black" stroke-width="1" /><text x="51" y="372.77272727272725" font-size="10" text-anchor="end">3</text><line x1="54" y1="328.3636363636364" x2="59" y2="328.3636363636364" stroke="black" stroke-width="1" /><text x="51" y="331.8636363636364" font-size="10" text-anchor="end">4</text><line x1="54" y1="287.4545454545455" x2="59" y2="287.4545454545455" stroke="black" stroke-width="1" /><text x="51" y="290.9545454545455" font-size="10" text-anchor="end">5</text><line x1="54" y1="246.54545454545456" x2="59" y2="246.54545454545456" stroke="black" stroke-width="1" /><text x="51" y="250.04545454545456" font-size="10" text-anchor="end">6</text><line x1="54" y1="205.63636363636363" x2="59" y2="205.63636363636363" stroke="black" stroke-width="1" /><text x="51" y="209.13636363636363" font-size="10" text-anchor="end">7</text><line x1="54" y1="164.7272727272727" x2="59" y2="164.7272727272727" stroke="black" stroke-width="1" /><text x="51" y="168.2272727272727" font-size="10" text-anchor="end">8</text><line x1="54" y1="123.81818181818181" x2="59" y2="123.81818181818181" stroke="black" stroke-width="1" /><text x="51" y="127.31818181818181" font-size="10" text-anchor="end">9</text><line x1="54" y1="82.90909090909093" x2="59" y2="82.90909090909093" stroke="black" stroke-width="1" /><text x="51" y="86.40909090909093" font-size="10" text-anchor="end">10</text><line x1="54" y1="42" x2="59" y2="42" stroke="black" stroke-width="1" /><text x="51" y="45.5" font-size="10" text-anchor="end">11</text><text x="336.5" y="534" font-size="14" text-anchor="middle">X</text><text x="14" y="270.5" font-size="14" text-anchor="middle" transform="rotate(-90,14,270.5)">Y</text><text x="336.5" y="21" font-size="16" text-anchor="middle">Scatter Plot</text><circle cx="86.27272727272728" cy="442.90909090909093" r="5" fill="steelblue" /><circle cx="135.36363636363637" cy="365.1818181818182" r="5" fill="steelblue" /><circle cx="173.54545454545456" cy="393.8181818181818" r="5" fill="steelblue" /><circle cx="239" cy="287.4545454545455" r="5" fill="steelblue" /><circle cx="277.1818181818182" cy="316.0909090909091" r="5" fill="steelblue" /><circle cx="342.6363636363636" cy="213.8181818181818" r="5" fill="steelblue" /><circle cx="391.72727272727275" cy="246.54545454545456" r="5" fill="steelblue" /><circle cx="440.8181818181818" cy="144.2727272727273" r="5" fill="steelblue" /><circle cx="517.1818181818182" cy="168.8181818181818" r="5" fill="steelblue" /><circle cx="555.3636363636364" cy="91.09090909090907" r="5" fill="steelblue" /></svg>