<svg xmlns="http://www.w3.org/2000/svg" width="673" height="541" fill="black"><rect width="100%" height="100%" fill="white" /><line x1="59" y1="492" x2="659" y2="492" stroke="black" stroke-width="1" /><line x1="59" y1="42" x2="59" y2="492" stroke="black" stroke-width="1" /><line x1="125.66666666666666" y1="42" x2="125.66666666666666" y2="492" stroke="#ccc" stroke-width="1" /><line x1="192.33333333333331" y1="42" x2="192.33333333333331" y2="492" stroke="#ccc" stroke-width="1" /><line x1="259" y1="42" x2="259" y2="492" stroke="#ccc" stroke-width="1" /><line x1="325.66666666666663" y1="42" x2="325.66666666666663" y2="492" stroke="#ccc" stroke-width="1" /><line x1="392.33333333333337" y1="42" x2="392.33333333333337" y2="492" stroke="#ccc" stroke-width="1" /><line x1="459" y1="42" x2="459" y2="492" stroke="#ccc" stroke-width="1" /><line x1="525.6666666666667" y1="42" x2="525.6666666666667" y2="492" stroke="#ccc" stroke-width="1" /><line x1="592.3333333333333" y1="42" x2="592.3333333333333" y2="492" stroke="#ccc" stroke-width="1" /><line x1="659" y1="42" x2="659" y2="492" stroke="#ccc" stroke-width="1" /><line x1="59" y1="447" x2="659" y2="447" stroke="#ccc" stroke-width="1" /><line x1="59" y1="402" x2="659" y2="402" stroke="#ccc" stroke-width="1" /><line x1="59" y1="357" x2="659" y2="357" stroke="#ccc" stroke-width="1" /><line x1="59" y1="312" x2="659" y2="312" stroke="#ccc" stroke-width="1" /><line x1="59" y1="267" x2="659" y2="267" stroke="#ccc" stroke-width="1" /><line x1="59" y1="222" x2="659" y2="222" stroke="#ccc" stroke-width="1" /><line x1="59" y1="177" x2="659" y2="177" stroke="#ccc" stroke-width="1" /><line x1="59" y1="132" x2="659" y2="132" stroke="#ccc" stroke-width="1" /><line x1="59" y1="87" x2="659" y2="87" stroke="#ccc" stroke-width="1" /><line x1="59" y1="42" x2="659" y2="42" stroke="#ccc" stroke-width="1" /><line x1="59" y1="492" x2="59" y2="497" stroke="black" stroke-width="1" /><text x="59" y="507" font-size="10" text-anchor="middle">0</text><line x1="125.66666666666666" y1="492" x2="125.66666666666666" y2="497" stroke="black" stroke-width="1" /><text x="125.66666666666666" y="507" font-size="10" text-anchor="middle">1</text><line x1="192.33333333333331" y1="492" x2="192.33333333333331" y2="497" stroke="black" stroke-width="1" /><text x="192.33333333333331" y="507" font-size="10" text-anchor="middle">2</text><line x1="259" y1="492" x2="259" y2="497" stroke="black" stroke-width="1" /><text x="259" y="507" font-size="10" text-anchor="middle">3</text><line x1="325.66666666666663" y1="492" x2="325.66666666666663" y2="497" stroke="black" stroke-width="1" /><text x="325.66666666666663" y="507" font-size="10" text-anchor="middle">4</text><line x1="392.33333333333337" y1="492" x2="392.33333333333337" y2="497" stroke="black" stroke-width="1" /><text x="392.33333333333337" y="507" font-size="10" text-anchor="middle">5</text><line x1="459" y1="492" x2="459" y2="497" stroke="black" stroke-width="1" /><text x="459" y="507" font-size="10" text-anchor="middle">6</text><line x1="525.6666666666667" y1="492" x2="525.6666666666667" y2="497" stroke="black" stroke-width="1" /><text x="525.6666666666667" y="507" font-size="10" text-anchor="middle">7</text><line x1="592.3333333333333" y1="492" x2="592.3333333333333" y2="497" stroke="black" stroke-width="1" /><text x="592.3333333333333" y="507" font-size="10" text-anchor="middle">8</text><line x1="659" y1="492" x2="659" y2="497" stroke="black" stroke-width="1" /><text x="659" y="507" font-size="10" text-anchor="middle">9</text><line x1="54" y1="492" x2="59" y2="492" stroke="black" stroke-width="1" /><text x="51" y="495.5" font-size="10" text-anchor="end">0</text><line x1="54" y1="447" x2="59" y2="447" stroke="black" stroke-width="1" /><text x="51" y="450.5" font-size="10" text-anchor="end">1</text><line x1="54" y1="402" x2="59" y2="402" stroke="black" stroke-width="1" /><text x="51" y="405.5" font-size="10" text-anchor="end">2</text><line x1="54" y1="357" x2="59" y2="357" stroke="black" stroke-width="1" /><text x="51" y="360.5" font-size="10" text-anchor="end">3</text><line x1="54" y1="312" x2="59" y2="312" stroke="black" stroke-width="1" /><text x="51" y="315.5" font-size="10" text-anchor="end">4</text><line x1="54" y1="267" x2="59" y2="267" stroke="black" stroke-width="1" /><text x="51" y="270.5" font-size="10" text-anchor="end">5</text><line x1="54" y1="222" x2="59" y2="222" stroke="black" stroke-width="1" /><text x="51" y="225.5" font-size="10" text-anchor="end">6</text><line x1="54" y1="177" x2="59" y2="177" stroke="black" stroke-width="1" /><text x="51" y="180.5" font-size="10" text-anchor="end">7</text><line x1="54" y1="132" x2="59" y2="132" stroke="black" stroke-width="1" /><text x="51" y="135.5" font-size="10" text-anchor="end">8</text><line x1="54" y1="87" x2="59" y2="87" stroke="black" stroke-width="1" /><text x="51" y="90.5" font-size="10" text-anchor="end">9</text><line x1="54" y1="42" x2="59" y2="42" stroke="black" stroke-width="1" /><text x="51" y="45.5" font-size="10" text-anchor="end">10</text><text x="336.5" y="534" font-size="14" text-anchor="middle">X</text><text x="14" y="270.5" font-size="14" text-anchor="middle" transform="rotate(-90,14,270.5)">Y</text><text x="336.5" y="21" font-size="16" text-anchor="middle">Bubble Plot</text><circle cx="125.66666666666666" cy="357" r="5" fill="steelblue" /><circle cx="225.66666666666669" cy="199.5" r="14" fill="steelblue" /><circle cx="325.66666666666663" cy="312" r="9" fill="steelblue" /><circle cx="425.6666666666667" cy="132" r="18" fill="steelblue" /><circle cx="525.6666666666667" cy="244.49999999999997" r="11" fill="steelblue" /><circle cx="625.6666666666666" cy="87" r="7" fill="steelblue" /></svg>