<svg xmlns="http://www.w3.org/2000/svg" width="673" height="541" fill="black"><rect width="100%" height="100%" fill="white" /><line x1="59" y1="492" x2="659" y2="492" stroke="black" stroke-width="1" /><line x1="59" y1="42" x2="59" y2="492" stroke="black" stroke-width="1" /><line x1="105.15384615384616" y1="42" x2="105.15384615384616" y2="492" stroke="#ccc" stroke-width="1" /><line x1="151.30769230769232" y1="42" x2="151.30769230769232" y2="492" stroke="#ccc" stroke-width="1" /><line x1="197.46153846153848" y1="42" x2="197.46153846153848" y2="492" stroke="#ccc" stroke-width="1" /><line x1="243.6153846153846" y1="42" x2="243.6153846153846" y2="492" stroke="#ccc" stroke-width="1" /><line x1="289.7692307692308" y1="42" x2="289.7692307692308" y2="492" stroke="#ccc" stroke-width="1" /><line x1="335.92307692307696" y1="42" x2="335.92307692307696" y2="492" stroke="#ccc" stroke-width="1" /><line x1="382.07692307692304" y1="42" x2="382.07692307692304" y2="492" stroke="#ccc" stroke-width="1" /><line x1="428.2307692307692" y1="42" x2="428.2307692307692" y2="492" stroke="#ccc" stroke-width="1" /><line x1="474.38461538461536" y1="42" x2="474.38461538461536" y2="492" stroke="#ccc" stroke-width="1" /><line x1="520.5384615384615" y1="42" x2="520.5384615384615" y2="492" stroke="#ccc" stroke-width="1" /><line x1="566.6923076923076" y1="42" x2="566.6923076923076" y2="492" stroke="#ccc" stroke-width="1" /><line x1="612.8461538461539" y1="42" x2="612.8461538461539" y2="492" stroke="#ccc" stroke-width="1" /><line x1="659" y1="42" x2="659" y2="492" stroke="#ccc" stroke-width="1" /><line x1="59" y1="454.5" x2="659" y2="454.5" stroke="#ccc" stroke-width="1" /><line x1="59" y1="417" x2="659" y2="417" stroke="#ccc" stroke-width="1" /><line x1="59" y1="379.5" x2="659" y2="379.5" stroke="#ccc" stroke-width="1" /><line x1="59" y1="342" x2="659" y2="342" stroke="#ccc" stroke-width="1" /><line x1="59" y1="304.5" x2="659" y2="304.5" stroke="#ccc" stroke-width="1" /><line x1="59" y1="267" x2="659" y2="267" stroke="#ccc" stroke-width="1" /><line x1="59" y1="229.5" x2="659" y2="229.5" stroke="#ccc" stroke-width="1" /><line x1="59" y1="192" x2="659" y2="192" stroke="#ccc" stroke-width="1" /><line x1="59" y1="154.5" x2="659" y2="154.5" stroke="#ccc" stroke-width="1" /><line x1="59" y1="117" x2="659" y2="117" stroke="#ccc" stroke-width="1" /><line x1="59" y1="79.5" x2="659" y2="79.5" stroke="#ccc" stroke-width="1" /><line x1="59" y1="42" x2="659" y2="42" stroke="#ccc" stroke-width="1" /><line x1="59" y1="492" x2="59" y2="497" stroke="black" stroke-width="1" /><text x="59" y="507" font-size="10" text-anchor="middle">0</text><line x1="105.15384615384616" y1="492" x2="105.15384615384616" y2="497" stroke="black" stroke-width="1" /><text x="105.15384615384616" y="507" font-size="10" text-anchor="middle">0.5</text><line x1="151.30769230769232" y1="492" x2="151.30769230769232" y2="497" stroke="black" stroke-width="1" /><text x="151.30769230769232" y="507" font-size="10" text-anchor="middle">1</text><line x1="197.46153846153848" y1="492" x2="197.46153846153848" y2="497" stroke="black" stroke-width="1" /><text x="197.46153846153848" y="507" font-size="10" text-anchor="middle">1.5</text><line x1="243.6153846153846" y1="492" x2="243.6153846153846" y2="497" stroke="black" stroke-width="1" /><text x="243.6153846153846" y="507" font-size="10" text-anchor="middle">2</text><line x1="289.7692307692308" y1="492" x2="289.7692307692308" y2="497" stroke="black" stroke-width="1" /><text x="289.7692307692308" y="507" font-size="10" text-anchor="middle">2.5</text><line x1="335.92307692307696" y1="492" x2="335.92307692307696" y2="497" stroke="black" stroke-width="1" /><text x="335.92307692307696" y="507" font-size="10" text-anchor="middle">3</text><line x1="382.07692307692304" y1="492" x2="382.07692307692304" y2="497" stroke="black" stroke-width="1" /><text x="382.07692307692304" y="507" font-size="10" text-anchor="middle">3.5</text><line x1="428.2307692307692" y1="492" x2="428.2307692307692" y2="497" stroke="black" stroke-width="1" /><text x="428.2307692307692" y="507" font-size="10" text-anchor="middle">4</text><line x1="474.38461538461536" y1="492" x2="474.38461538461536" y2="497" stroke="black" stroke-width="1" /><text x="474.38461538461536" y="507" font-size="10" text-anchor="middle">4.5</text><line x1="520.5384615384615" y1="492" x2="520.5384615384615" y2="497" stroke="black" stroke-width="1" /><text x="520.5384615384615" y="507" font-size="10" text-anchor="middle">5</text><line x1="566.6923076923076" y1="492" x2="566.6923076923076" y2="497" stroke="black" stroke-width="1" /><text x="566.6923076923076" y="507" font-size="10" text-anchor="middle">5.5</text><line x1="612.8461538461539" y1="492" x2="612.8461538461539" y2="497" stroke="black" stroke-width="1" /><text x="612.8461538461539" y="507" font-size="10" text-anchor="middle">6</text><line x1="659" y1="492" x2="659" y2="497" stroke="black" stroke-width="1" /><text x="659" y="507" font-size="10" text-anchor="middle">6.5</text><line x1="54" y1="492" x2="59" y2="492" stroke="black" stroke-width="1" /><text x="51" y="495.5" font-size="10" text-anchor="end">0</text><line x1="54" y1="454.5" x2="59" y2="454.5" stroke="black" stroke-width="1" /><text x="51" y="458" font-size="10" text-anchor="end">1</text><line x1="54" y1="417" x2="59" y2="417" stroke="black" stroke-width="1" /><text x="51" y="420.5" font-size="10" text-anchor="end">2</text><line x1="54" y1="379.5" x2="59" y2="379.5" stroke="black" stroke-width="1" /><text x="51" y="383" font-size="10" text-anchor="end">3</text><line x1="54" y1="342" x2="59" y2="342" stroke="black" stroke-width="1" /><text x="51" y="345.5" font-size="10" text-anchor="end">4</text><line x1="54" y1="304.5" x2="59" y2="304.5" stroke="black" stroke-width="1" /><text x="51" y="308" font-size="10" text-anchor="end">5</text><line x1="54" y1="267" x2="59" y2="267" stroke="black" stroke-width="1" /><text x="51" y="270.5" font-size="10" text-anchor="end">6</text><line x1="54" y1="229.5" x2="59" y2="229.5" stroke="black" stroke-width="1" /><text x="51" y="233" font-size="10" text-anchor="end">7</text><line x1="54" y1="192" x2="59" y2="192" stroke="black" stroke-width="1" /><text x="51" y="195.5" font-size="10" text-anchor="end">8</text><line x1="54" y1="154.5" x2="59" y2="154.5" stroke="black" stroke-width="1" /><text x="51" y="158" font-size="10" text-anchor="end">9</text><line x1="54" y1="117" x2="59" y2="117" stroke="black" stroke-width="1" /><text x="51" y="120.5" font-size="10" text-anchor="end">10</text><line x1="54" y1="79.5" x2="59" y2="79.5" stroke="black" stroke-width="1" /><text x="51" y="83" font-size="10" text-anchor="end">11</text><line x1="54" y1="42" x2="59" y2="42" stroke="black" stroke-width="1" /><text x="51" y="45.5" font-size="10" text-anchor="end">12</text><text x="336.5" y="534" font-size="14" text-anchor="middle">X</text><text x="14" y="270.5" font-size="14" text-anchor="middle" transform="rotate(-90,14,270.5)">Y</text><text x="336.5" y="21" font-size="16" text-anchor="middle">Error Bars</text><circle cx="151.30769230769232" cy="417" r="5" fill="steelblue" /><line x1="132.84615384615387" y1="417" x2="169.76923076923077" y2="417" stroke="steelblue" stroke-width="1" /><line x1="132.84615384615387" y1="412" x2="132.84615384615387" y2="422" stroke="steelblue" stroke-width="1" /><line x1="169.76923076923077" y1="412" x2="169.76923076923077" y2="422" stroke="steelblue" stroke-width="1" /><line x1="151.30769230769232" y1="439.5" x2="151.30769230769232" y2="394.5" stroke="steelblue" stroke-width="1" /><line x1="146.30769230769232" y1="439.5" x2="156.30769230769232" y2="439.5" stroke="steelblue" stroke-width="1" /><line x1="146.30769230769232" y1="394.5" x2="156.30769230769232" y2="394.5" stroke="steelblue" stroke-width="1" /><circle cx="243.6153846153846" cy="323.25" r="5" fill="steelblue" /><line x1="229.76923076923077" y1="323.25" x2="257.46153846153845" y2="323.25" stroke="steelblue" stroke-width="1" /><line x1="229.76923076923077" y1="318.25" x2="229.76923076923077" y2="328.25" stroke="steelblue" stroke-width="1" /><line x1="257.46153846153845" y1="318.25" x2="257.46153846153845" y2="328.25" stroke="steelblue" stroke-width="1" /><line x1="243.6153846153846" y1="353.25" x2="243.6153846153846" y2="293.25" stroke="steelblue" stroke-width="1" /><line x1="238.6153846153846" y1="353.25" x2="248.6153846153846" y2="353.25" stroke="steelblue" stroke-width="1" /><line x1="238.6153846153846" y1="293.25" x2="248.6153846153846" y2="293.25" stroke="steelblue" stroke-width="1" /><circle cx="335.92307692307696" cy="274.5" r="5" fill="steelblue" /><line x1="308.2307692307693" y1="274.5" x2="363.6153846153846" y2="274.5" stroke="steelblue" stroke-width="1" /><line x1="308.2307692307693" y1="269.5" x2="308.2307692307693" y2="279.5" stroke="steelblue" stroke-width="1" /><line x1="363.6153846153846" y1="269.5" x2="363.6153846153846" y2="279.5" stroke="steelblue" stroke-width="1" /><line x1="335.92307692307696" y1="289.5" x2="335.92307692307696" y2="259.5" stroke="steelblue" stroke-width="1" /><line x1="330.92307692307696" y1="289.5" x2="340.92307692307696" y2="289.5" stroke="steelblue" stroke-width="1" /><line x1="330.92307692307696" y1="259.5" x2="340.92307692307696" y2="259.5" stroke="steelblue" stroke-width="1" /><circle cx="428.2307692307692" cy="184.50000000000006" r="5" fill="steelblue" /><line x1="419" y1="184.50000000000006" x2="437.46153846153845" y2="184.50000000000006" stroke="steelblue" stroke-width="1" /><line x1="419" y1="179.50000000000006" x2="419" y2="189.50000000000006" stroke="steelblue" stroke-width="1" /><line x1="437.46153846153845" y1="179.50000000000006" x2="437.46153846153845" y2="189.50000000000006" stroke="steelblue" stroke-width="1" /><line x1="428.2307692307692" y1="218.25" x2="428.2307692307692" y2="150.75" stroke="steelblue" stroke-width="1" /><line x1="423.2307692307692" y1="218.25" x2="433.2307692307692" y2="218.25" stroke="steelblue" stroke-width="1" /><line x1="423.2307692307692" y1="150.75" x2="433.2307692307692" y2="150.75" stroke="steelblue" stroke-width="1" /><circle cx="520.5384615384615" cy="113.25" r="5" fill="steelblue" /><line x1="497.46153846153845" y1="113.25" x2="543.6153846153846" y2="113.25" stroke="steelblue" stroke-width="1" /><line x1="497.46153846153845" y1="108.25" x2="497.46153846153845" y2="118.25" stroke="steelblue" stroke-width="1" /><line x1="543.6153846153846" y1="108.25" x2="543.6153846153846" y2="118.25" stroke="steelblue" stroke-width="1" /><line x1="520.5384615384615" y1="132.00000000000006" x2="520.5384615384615" y2="94.5" stroke="steelblue" stroke-width="1" /><line x1="515.5384615384615" y1="132.00000000000006" x2="525.5384615384615" y2="132.00000000000006" stroke="steelblue" stroke-width="1" /><line x1="515.5384615384615" y1="94.5" x2="525.5384615384615" y2="94.5" stroke="steelblue" stroke-width="1" /></svg>