<svg xmlns="http://www.w3.org/2000/svg" width="764" height="541" fill="black"><rect width="100%" height="100%" fill="white" /><line x1="59" y1="492" x2="659" y2="492" stroke="black" stroke-width="1" /><line x1="59" y1="42" x2="59" y2="492" stroke="black" stroke-width="1" /><line x1="105.15384615384616" y1="42" x2="105.15384615384616" y2="492" stroke="#ccc" stroke-width="1" /><line x1="151.30769230769232" y1="42" x2="151.30769230769232" y2="492" stroke="#ccc" stroke-width="1" /><line x1="197.46153846153848" y1="42" x2="197.46153846153848" y2="492" stroke="#ccc" stroke-width="1" /><line x1="243.6153846153846" y1="42" x2="243.6153846153846" y2="492" stroke="#ccc" stroke-width="1" /><line x1="289.7692307692308" y1="42" x2="289.7692307692308" y2="492" stroke="#ccc" stroke-width="1" /><line x1="335.92307692307696" y1="42" x2="335.92307692307696" y2="492" stroke="#ccc" stroke-width="1" /><line x1="382.07692307692304" y1="42" x2="382.07692307692304" y2="492" stroke="#ccc" stroke-width="1" /><line x1="428.2307692307692" y1="42" x2="428.2307692307692" y2="492" stroke="#ccc" stroke-width="1" /><line x1="474.38461538461536" y1="42" x2="474.38461538461536" y2="492" stroke="#ccc" stroke-width="1" /><line x1="520.5384615384615" y1="42" x2="520.5384615384615" y2="492" stroke="#ccc" stroke-width="1" /><line x1="566.6923076923076" y1="42" x2="566.6923076923076" y2="492" stroke="#ccc" stroke-width="1" /><line x1="612.8461538461539" y1="42" x2="612.8461538461539" y2="492" stroke="#ccc" stroke-width="1" /><line x1="659" y1="42" x2="659" y2="492" stroke="#ccc" stroke-width="1" /><line x1="59" y1="457.38461538461536" x2="659" y2="457.38461538461536" stroke="#ccc" stroke-width="1" /><line x1="59" y1="422.7692307692308" x2="659" y2="422.7692307692308" stroke="#ccc" stroke-width="1" /><line x1="59" y1="388.15384615384613" x2="659" y2="388.15384615384613" stroke="#ccc" stroke-width="1" /><line x1="59" y1="353.53846153846155" x2="659" y2="353.53846153846155" stroke="#ccc" stroke-width="1" /><line x1="59" y1="318.9230769230769" x2="659" y2="318.9230769230769" stroke="#ccc" stroke-width="1" /><line x1="59" y1="284.30769230769226" x2="659" y2="284.30769230769226" stroke="#ccc" stroke-width="1" /><line x1="59" y1="249.6923076923077" x2="659" y2="249.6923076923077" stroke="#ccc" stroke-width="1" /><line x1="59" y1="215.07692307692304" x2="659" y2="215.07692307692304" stroke="#ccc" stroke-width="1" /><line x1="59" y1="180.46153846153845" x2="659" y2="180.46153846153845" stroke="#ccc" stroke-width="1" /><line x1="59" y1="145.8461538461538" x2="659" y2="145.8461538461538" stroke="#ccc" stroke-width="1" /><line x1="59" y1="111.23076923076923" x2="659" y2="111.23076923076923" stroke="#ccc" stroke-width="1" /><line x1="59" y1="76.61538461538458" x2="659" y2="76.61538461538458" stroke="#ccc" stroke-width="1" /><line x1="59" y1="42" x2="659" y2="42" stroke="#ccc" stroke-width="1" /><line x1="59" y1="492" x2="59" y2="497" stroke="black" stroke-width="1" /><text x="59" y="507" font-size="10" text-anchor="middle">0</text><line x1="105.15384615384616" y1="492" x2="105.15384615384616" y2="497" stroke="black" stroke-width="1" /><text x="105.15384615384616" y="507" font-size="10" text-anchor="middle">0.25</text><line x1="151.30769230769232" y1="492" x2="151.30769230769232" y2="497" stroke="black" stroke-width="1" /><text x="151.30769230769232" y="507" font-size="10" text-anchor="middle">0.5</text><line x1="197.46153846153848" y1="492" x2="197.46153846153848" y2="497" stroke="black" stroke-width="1" /><text x="197.46153846153848" y="507" font-size="10" text-anchor="middle">0.75</text><line x1="243.6153846153846" y1="492" x2="243.6153846153846" y2="497" stroke="black" stroke-width="1" /><text x="243.6153846153846" y="507" font-size="10" text-anchor="middle">1</text><line x1="289.7692307692308" y1="492" x2="289.7692307692308" y2="497" stroke="black" stroke-width="1" /><text x="289.7692307692308" y="507" font-size="10" text-anchor="middle">1.25</text><line x1="335.92307692307696" y1="492" x2="335.92307692307696" y2="497" stroke="black" stroke-width="1" /><text x="335.92307692307696" y="507" font-size="10" text-anchor="middle">1.5</text><line x1="382.07692307692304" y1="492" x2="382.07692307692304" y2="497" stroke="black" stroke-width="1" /><text x="382.07692307692304" y="507" font-size="10" text-anchor="middle">1.75</text><line x1="428.2307692307692" y1="492" x2="428.2307692307692" y2="497" stroke="black" stroke-width="1" /><text x="428.2307692307692" y="507" font-size="10" text-anchor="middle">2</text><line x1="474.38461538461536" y1="492" x2="474.38461538461536" y2="497" stroke="black" stroke-width="1" /><text x="474.38461538461536" y="507" font-size="10" text-anchor="middle">2.25</text><line x1="520.5384615384615" y1="492" x2="520.5384615384615" y2="497" stroke="black" stroke-width="1" /><text x="520.5384615384615" y="507" font-size="10" text-anchor="middle">2.5</text><line x1="566.6923076923076" y1="492" x2="566.6923076923076" y2="497" stroke="black" stroke-width="1" /><text x="566.6923076923076" y="507" font-size="10" text-anchor="middle">2.75</text><line x1="612.8461538461539" y1="492" x2="612.8461538461539" y2="497" stroke="black" stroke-width="1" /><text x="612.8461538461539" y="507" font-size="10" text-anchor="middle">3</text><line x1="659" y1="492" x2="659" y2="497" stroke="black" stroke-width="1" /><text x="659" y="507" font-size="10" text-anchor="middle">3.25</text><line x1="54" y1="492" x2="59" y2="492" stroke="black" stroke-width="1" /><text x="51" y="495.5" font-size="10" text-anchor="end">0</text><line x1="54" y1="457.38461538461536" x2="59" y2="457.38461538461536" stroke="black" stroke-width="1" /><text x="51" y="460.88461538461536" font-size="10" text-anchor="end">0.5</text><line x1="54" y1="422.7692307692308" x2="59" y2="422.7692307692308" stroke="black" stroke-width="1" /><text x="51" y="426.2692307692308" font-size="10" text-anchor="end">1</text><line x1="54" y1="388.15384615384613" x2="59" y2="388.15384615384613" stroke="black" stroke-width="1" /><text x="51" y="391.65384615384613" font-size="10" text-anchor="end">1.5</text><line x1="54" y1="353.53846153846155" x2="59" y2="353.53846153846155" stroke="black" stroke-width="1" /><text x="51" y="357.03846153846155" font-size="10" text-anchor="end">2</text><line x1="54" y1="318.9230769230769" x2="59" y2="318.9230769230769" stroke="black" stroke-width="1" /><text x="51" y="322.4230769230769" font-size="10" text-anchor="end">2.5</text><line x1="54" y1="284.30769230769226" x2="59" y2="284.30769230769226" stroke="black" stroke-width="1" /><text x="51" y="287.80769230769226" font-size="10" text-anchor="end">3</text><line x1="54" y1="249.6923076923077" x2="59" y2="249.6923076923077" stroke="black" stroke-width="1" /><text x="51" y="253.1923076923077" font-size="10" text-anchor="end">3.5</text><line x1="54" y1="215.07692307692304" x2="59" y2="215.07692307692304" stroke="black" stroke-width="1" /><text x="51" y="218.57692307692304" font-size="10" text-anchor="end">4</text><line x1="54" y1="180.46153846153845" x2="59" y2="180.46153846153845" stroke="black" stroke-width="1" /><text x="51" y="183.96153846153845" font-size="10" text-anchor="end">4.5</text><line x1="54" y1="145.8461538461538" x2="59" y2="145.8461538461538" stroke="black" stroke-width="1" /><text x="51" y="149.3461538461538" font-size="10" text-anchor="end">5</text><line x1="54" y1="111.23076923076923" x2="59" y2="111.23076923076923" stroke="black" stroke-width="1" /><text x="51" y="114.73076923076923" font-size="10" text-anchor="end">5.5</text><line x1="54" y1="76.61538461538458" x2="59" y2="76.61538461538458" stroke="black" stroke-width="1" /><text x="51" y="80.11538461538458" font-size="10" text-anchor="end">6</text><line x1="54" y1="42" x2="59" y2="42" stroke="black" stroke-width="1" /><text x="51" y="45.5" font-size="10" text-anchor="end">6.5</text><text x="382" y="534" font-size="14" text-anchor="middle">X</text><text x="14" y="270.5" font-size="14" text-anchor="middle" transform="rotate(-90,14,270.5)"></text><text x="382" y="21" font-size="16" text-anchor="middle">Marker Shapes</text><circle cx="243.6153846153846" cy="422.7692307692308" r="7" fill="steelblue" /><circle cx="428.2307692307692" cy="422.7692307692308" r="7" fill="steelblue" /><circle cx="612.8461538461539" cy="422.7692307692308" r="7" fill="steelblue" /><rect x="236.6153846153846" y="346.53846153846155" width="14" height="14" fill="crimson" /><rect x="421.2307692307692" y="346.53846153846155" width="14" height="14" fill="crimson" /><rect x="605.8461538461539" y="346.53846153846155" width="14" height="14" fill="crimson" /><path d="M243.6153846153846,277.1676923076923 L236.6153846153846,289.06769230769225 L250.6153846153846,289.06769230769225 Z" stroke="seagreen" stroke-width="0.5" fill="seagreen" /><path d="M428.2307692307692,277.1676923076923 L421.2307692307692,289.06769230769225 L435.2307692307692,289.06769230769225 Z" stroke="seagreen" stroke-width="0.5" fill="seagreen" /><path d="M612.8461538461539,277.1676923076923 L605.8461538461539,289.06769230769225 L619.8461538461539,289.06769230769225 Z" stroke="seagreen" stroke-width="0.5" fill="seagreen" /><path d="M243.6153846153846,205.97692307692304 L252.7153846153846,215.07692307692304 L243.6153846153846,224.17692307692303 L234.51538461538462,215.07692307692304 Z" stroke="darkorange" stroke-width="0.5" fill="darkorange" /><path d="M428.2307692307692,205.97692307692304 L437.33076923076925,215.07692307692304 L428.2307692307692,224.17692307692303 L419.1307692307692,215.07692307692304 Z" stroke="darkorange" stroke-width="0.5" fill="darkorange" /><path d="M612.8461538461539,205.97692307692304 L621.946153846154,215.07692307692304 L612.8461538461539,224.17692307692303 L603.7461538461539,215.07692307692304 Z" stroke="darkorange" stroke-width="0.5" fill="darkorange" /><line x1="237.3153846153846" y1="139.5461538461538" x2="249.91538461538462" y2="152.14615384615382" stroke="purple" stroke-width="1.5" /><line x1="237.3153846153846" y1="152.14615384615382" x2="249.91538461538462" y2="139.5461538461538" stroke="purple" stroke-width="1.5" /><line x1="421.9307692307692" y1="139.5461538461538" x2="434.53076923076924" y2="152.14615384615382" stroke="purple" stroke-width="1.5" /><line x1="421.9307692307692" y1="152.14615384615382" x2="434.53076923076924" y2="139.5461538461538" stroke="purple" stroke-width="1.5" /><line x1="606.546153846154" y1="139.5461538461538" x2="619.1461538461539" y2="152.14615384615382" stroke="purple" stroke-width="1.5" /><line x1="606.546153846154" y1="152.14615384615382" x2="619.1461538461539" y2="139.5461538461538" stroke="purple" stroke-width="1.5" /><line x1="237.3153846153846" y1="76.61538461538458" x2="249.91538461538462" y2="76.61538461538458" stroke="saddlebrown" stroke-width="1.5" /><line x1="243.6153846153846" y1="70.31538461538459" x2="243.6153846153846" y2="82.91538461538458" stroke="saddlebrown" stroke-width="1.5" /><line x1="421.9307692307692" y1="76.61538461538458" x2="434.53076923076924" y2="76.61538461538458" stroke="saddlebrown" stroke-width="1.5" /><line x1="428.2307692307692" y1="70.31538461538459" x2="428.2307692307692" y2="82.91538461538458" stroke="saddlebrown" stroke-width="1.5" /><line x1="606.546153846154" y1="76.61538461538458" x2="619.1461538461539" y2="76.61538461538458" stroke="saddlebrown" stroke-width="1.5" /><line x1="612.8461538461539" y1="70.31538461538459" x2="612.8461538461539" y2="82.91538461538458" stroke="saddlebrown" stroke-width="1.5" /><rect x="664" y="32" width="91" height="128" fill="white" /><rect x="664" y="32" width="91" height="128" fill="none" stroke="black" stroke-width="1" /><text x="694" y="47" font-size="12" text-anchor="start">Circle</text><circle cx="680" cy="43" r="5" fill="steelblue" /><text x="694" y="65" font-size="12" text-anchor="start">Square</text><rect x="675" y="56" width="10" height="10" fill="crimson" /><text x="694" y="83" font-size="12" text-anchor="start">Triangle</text><path d="M680,73.9 L675,82.4 L685,82.4 Z" stroke="seagreen" stroke-width="0.5" fill="seagreen" /><text x="694" y="101" font-size="12" text-anchor="start">Diamond</text><path d="M680,90.5 L686.5,97 L680,103.5 L673.5,97 Z" stroke="darkorange" stroke-width="0.5" fill="darkorange" /><text x="694" y="119" font-size="12" text-anchor="start">Cross</text><line x1="675.5" y1="110.5" x2="684.5" y2="119.5" stroke="purple" stroke-width="1.5" /><line x1="675.5" y1="119.5" x2="684.5" y2="110.5" stroke="purple" stroke-width="1.5" /><text x="694" y="137" font-size="12" text-anchor="start">Plus</text><line x1="675.5" y1="133" x2="684.5" y2="133" stroke="saddlebrown" stroke-width="1.5" /><line x1="680" y1="128.5" x2="680" y2="137.5" stroke="saddlebrown" stroke-width="1.5" /></svg>