<svg xmlns="http://www.w3.org/2000/svg" width="764" height="541" fill="black"><rect width="100%" height="100%" fill="white" /><line x1="59" y1="492" x2="659" y2="492" stroke="black" stroke-width="1" /><line x1="59" y1="42" x2="59" y2="492" stroke="black" stroke-width="1" /><line x1="134" y1="42" x2="134" y2="492" stroke="#ccc" stroke-width="1" /><line x1="209" y1="42" x2="209" y2="492" stroke="#ccc" stroke-width="1" /><line x1="284" y1="42" x2="284" y2="492" stroke="#ccc" stroke-width="1" /><line x1="359" y1="42" x2="359" y2="492" stroke="#ccc" stroke-width="1" /><line x1="434" y1="42" x2="434" y2="492" stroke="#ccc" stroke-width="1" /><line x1="509" y1="42" x2="509" y2="492" stroke="#ccc" stroke-width="1" /><line x1="584" y1="42" x2="584" y2="492" stroke="#ccc" stroke-width="1" /><line x1="659" y1="42" x2="659" y2="492" stroke="#ccc" stroke-width="1" /><line x1="59" y1="459.8571428571429" x2="659" y2="459.8571428571429" stroke="#ccc" stroke-width="1" /><line x1="59" y1="427.7142857142857" x2="659" y2="427.7142857142857" stroke="#ccc" stroke-width="1" /><line x1="59" y1="395.57142857142856" x2="659" y2="395.57142857142856" stroke="#ccc" stroke-width="1" /><line x1="59" y1="363.42857142857144" x2="659" y2="363.42857142857144" stroke="#ccc" stroke-width="1" /><line x1="59" y1="331.2857142857143" x2="659" y2="331.2857142857143" stroke="#ccc" stroke-width="1" /><line x1="59" y1="299.14285714285717" x2="659" y2="299.14285714285717" stroke="#ccc" stroke-width="1" /><line x1="59" y1="267" x2="659" y2="267" stroke="#ccc" stroke-width="1" /><line x1="59" y1="234.8571428571429" x2="659" y2="234.8571428571429" stroke="#ccc" stroke-width="1" /><line x1="59" y1="202.71428571428567" x2="659" y2="202.71428571428567" stroke="#ccc" stroke-width="1" /><line x1="59" y1="170.57142857142856" x2="659" y2="170.57142857142856" stroke="#ccc" stroke-width="1" /><line x1="59" y1="138.42857142857144" x2="659" y2="138.42857142857144" stroke="#ccc" stroke-width="1" /><line x1="59" y1="106.28571428571433" x2="659" y2="106.28571428571433" stroke="#ccc" stroke-width="1" /><line x1="59" y1="74.14285714285711" x2="659" y2="74.14285714285711" stroke="#ccc" stroke-width="1" /><line x1="59" y1="42" x2="659" y2="42" stroke="#ccc" stroke-width="1" /><line x1="59" y1="492" x2="59" y2="497" stroke="black" stroke-width="1" /><text x="59" y="507" font-size="10" text-anchor="middle">0</text><line x1="134" y1="492" x2="134" y2="497" stroke="black" stroke-width="1" /><text x="134" y="507" font-size="10" text-anchor="middle">0.5</text><line x1="209" y1="492" x2="209" y2="497" stroke="black" stroke-width="1" /><text x="209" y="507" font-size="10" text-anchor="middle">1</text><line x1="284" y1="492" x2="284" y2="497" stroke="black" stroke-width="1" /><text x="284" y="507" font-size="10" text-anchor="middle">1.5</text><line x1="359" y1="492" x2="359" y2="497" stroke="black" stroke-width="1" /><text x="359" y="507" font-size="10" text-anchor="middle">2</text><line x1="434" y1="492" x2="434" y2="497" stroke="black" stroke-width="1" /><text x="434" y="507" font-size="10" text-anchor="middle">2.5</text><line x1="509" y1="492" x2="509" y2="497" stroke="black" stroke-width="1" /><text x="509" y="507" font-size="10" text-anchor="middle">3</text><line x1="584" y1="492" x2="584" y2="497" stroke="black" stroke-width="1" /><text x="584" y="507" font-size="10" text-anchor="middle">3.5</text><line x1="659" y1="492" x2="659" y2="497" stroke="black" stroke-width="1" /><text x="659" y="507" font-size="10" text-anchor="middle">4</text><line x1="54" y1="492" x2="59" y2="492" stroke="black" stroke-width="1" /><text x="51" y="495.5" font-size="10" text-anchor="end">0</text><line x1="54" y1="459.8571428571429" x2="59" y2="459.8571428571429" stroke="black" stroke-width="1" /><text x="51" y="463.3571428571429" font-size="10" text-anchor="end">0.5</text><line x1="54" y1="427.7142857142857" x2="59" y2="427.7142857142857" stroke="black" stroke-width="1" /><text x="51" y="431.2142857142857" font-size="10" text-anchor="end">1</text><line x1="54" y1="395.57142857142856" x2="59" y2="395.57142857142856" stroke="black" stroke-width="1" /><text x="51" y="399.07142857142856" font-size="10" text-anchor="end">1.5</text><line x1="54" y1="363.42857142857144" x2="59" y2="363.42857142857144" stroke="black" stroke-width="1" /><text x="51" y="366.92857142857144" font-size="10" text-anchor="end">2</text><line x1="54" y1="331.2857142857143" x2="59" y2="331.2857142857143" stroke="black" stroke-width="1" /><text x="51" y="334.7857142857143" font-size="10" text-anchor="end">2.5</text><line x1="54" y1="299.14285714285717" x2="59" y2="299.14285714285717" stroke="black" stroke-width="1" /><text x="51" y="302.64285714285717" font-size="10" text-anchor="end">3</text><line x1="54" y1="267" x2="59" y2="267" stroke="black" stroke-width="1" /><text x="51" y="270.5" font-size="10" text-anchor="end">3.5</text><line x1="54" y1="234.8571428571429" x2="59" y2="234.8571428571429" stroke="black" stroke-width="1" /><text x="51" y="238.3571428571429" font-size="10" text-anchor="end">4</text><line x1="54" y1="202.71428571428567" x2="59" y2="202.71428571428567" stroke="black" stroke-width="1" /><text x="51" y="206.21428571428567" font-size="10" text-anchor="end">4.5</text><line x1="54" y1="170.57142857142856" x2="59" y2="170.57142857142856" stroke="black" stroke-width="1" /><text x="51" y="174.07142857142856" font-size="10" text-anchor="end">5</text><line x1="54" y1="138.42857142857144" x2="59" y2="138.42857142857144" stroke="black" stroke-width="1" /><text x="51" y="141.92857142857144" font-size="10" text-anchor="end">5.5</text><line x1="54" y1="106.28571428571433" x2="59" y2="106.28571428571433" stroke="black" stroke-width="1" /><text x="51" y="109.78571428571433" font-size="10" text-anchor="end">6</text><line x1="54" y1="74.14285714285711" x2="59" y2="74.14285714285711" stroke="black" stroke-width="1" /><text x="51" y="77.64285714285711" font-size="10" text-anchor="end">6.5</text><line x1="54" y1="42" x2="59" y2="42" stroke="black" stroke-width="1" /><text x="51" y="45.5" font-size="10" text-anchor="end">7</text><text x="382" y="534" font-size="14" text-anchor="middle">X</text><text x="14" y="270.5" font-size="14" text-anchor="middle" transform="rotate(-90,14,270.5)"></text><text x="382" y="21" font-size="16" text-anchor="middle">Marker Shapes</text><circle cx="209" cy="427.7142857142857" r="7" fill="steelblue" /><circle cx="359" cy="427.7142857142857" r="7" fill="steelblue" /><circle cx="509" cy="427.7142857142857" r="7" fill="steelblue" /><rect x="202" y="356.42857142857144" width="14" height="14" fill="crimson" /><rect x="352" y="356.42857142857144" width="14" height="14" fill="crimson" /><rect x="502" y="356.42857142857144" width="14" height="14" fill="crimson" /><path d="M209,292.0028571428572 L202,303.90285714285716 L216,303.90285714285716 Z" stroke="seagreen" stroke-width="0.5" fill="seagreen" /><path d="M359,292.0028571428572 L352,303.90285714285716 L366,303.90285714285716 Z" stroke="seagreen" stroke-width="0.5" fill="seagreen" /><path d="M509,292.0028571428572 L502,303.90285714285716 L516,303.90285714285716 Z" stroke="seagreen" stroke-width="0.5" fill="seagreen" /><path d="M209,225.7571428571429 L218.1,234.8571428571429 L209,243.95714285714288 L199.9,234.8571428571429 Z" stroke="darkorange" stroke-width="0.5" fill="darkorange" /><path d="M359,225.7571428571429 L368.1,234.8571428571429 L359,243.95714285714288 L349.9,234.8571428571429 Z" stroke="darkorange" stroke-width="0.5" fill="darkorange" /><path d="M509,225.7571428571429 L518.1,234.8571428571429 L509,243.95714285714288 L499.9,234.8571428571429 Z" stroke="darkorange" stroke-width="0.5" fill="darkorange" /><line x1="202.7" y1="164.27142857142854" x2="215.3" y2="176.87142857142857" stroke="purple" stroke-width="1.5" /><line x1="202.7" y1="176.87142857142857" x2="215.3" y2="164.27142857142854" stroke="purple" stroke-width="1.5" /><line x1="352.7" y1="164.27142857142854" x2="365.3" y2="176.87142857142857" stroke="purple" stroke-width="1.5" /><line x1="352.7" y1="176.87142857142857" x2="365.3" y2="164.27142857142854" stroke="purple" stroke-width="1.5" /><line x1="502.7" y1="164.27142857142854" x2="515.3" y2="176.87142857142857" stroke="purple" stroke-width="1.5" /><line x1="502.7" y1="176.87142857142857" x2="515.3" y2="164.27142857142854" stroke="purple" stroke-width="1.5" /><line x1="202.7" y1="106.28571428571433" x2="215.3" y2="106.28571428571433" stroke="saddlebrown" stroke-width="1.5" /><line x1="209" y1="99.98571428571434" x2="209" y2="112.58571428571433" stroke="saddlebrown" stroke-width="1.5" /><line x1="352.7" y1="106.28571428571433" x2="365.3" y2="106.28571428571433" stroke="saddlebrown" stroke-width="1.5" /><line x1="359" y1="99.98571428571434" x2="359" y2="112.58571428571433" stroke="saddlebrown" stroke-width="1.5" /><line x1="502.7" y1="106.28571428571433" x2="515.3" y2="106.28571428571433" stroke="saddlebrown" stroke-width="1.5" /><line x1="509" y1="99.98571428571434" x2="509" y2="112.58571428571433" stroke="saddlebrown" stroke-width="1.5" /><rect x="664" y="32" width="91" height="128" fill="white" /><rect x="664" y="32" width="91" height="128" fill="none" stroke="black" stroke-width="1" /><text x="694" y="47" font-size="12" text-anchor="start">Circle</text><circle cx="680" cy="43" r="5" fill="steelblue" /><text x="694" y="65" font-size="12" text-anchor="start">Square</text><rect x="675" y="56" width="10" height="10" fill="crimson" /><text x="694" y="83" font-size="12" text-anchor="start">Triangle</text><path d="M680,73.9 L675,82.4 L685,82.4 Z" stroke="seagreen" stroke-width="0.5" fill="seagreen" /><text x="694" y="101" font-size="12" text-anchor="start">Diamond</text><path d="M680,90.5 L686.5,97 L680,103.5 L673.5,97 Z" stroke="darkorange" stroke-width="0.5" fill="darkorange" /><text x="694" y="119" font-size="12" text-anchor="start">Cross</text><line x1="675.5" y1="110.5" x2="684.5" y2="119.5" stroke="purple" stroke-width="1.5" /><line x1="675.5" y1="119.5" x2="684.5" y2="110.5" stroke="purple" stroke-width="1.5" /><text x="694" y="137" font-size="12" text-anchor="start">Plus</text><line x1="675.5" y1="133" x2="684.5" y2="133" stroke="saddlebrown" stroke-width="1.5" /><line x1="680" y1="128.5" x2="680" y2="137.5" stroke="saddlebrown" stroke-width="1.5" /></svg>