<svg xmlns="http://www.w3.org/2000/svg" width="673" height="541" fill="black"><rect width="100%" height="100%" fill="white" /><line x1="59" y1="492" x2="659" y2="492" stroke="black" stroke-width="1" /><line x1="59" y1="42" x2="59" y2="492" stroke="black" stroke-width="1" /><line x1="59" y1="442" x2="659" y2="442" stroke="#ccc" stroke-width="1" /><line x1="59" y1="392" x2="659" y2="392" stroke="#ccc" stroke-width="1" /><line x1="59" y1="342" x2="659" y2="342" stroke="#ccc" stroke-width="1" /><line x1="59" y1="292" x2="659" y2="292" stroke="#ccc" stroke-width="1" /><line x1="59" y1="242" x2="659" y2="242" stroke="#ccc" stroke-width="1" /><line x1="59" y1="192" x2="659" y2="192" stroke="#ccc" stroke-width="1" /><line x1="59" y1="142" x2="659" y2="142" stroke="#ccc" stroke-width="1" /><line x1="59" y1="92" x2="659" y2="92" stroke="#ccc" stroke-width="1" /><line x1="59" y1="42" x2="659" y2="42" stroke="#ccc" stroke-width="1" /><text x="159" y="507" font-size="10" text-anchor="middle">Control</text><line x1="159" y1="492" x2="159" y2="497" stroke="black" stroke-width="1" /><text x="359" y="507" font-size="10" text-anchor="middle">Bimodal</text><line x1="359" y1="492" x2="359" y2="497" stroke="black" stroke-width="1" /><text x="559" y="507" font-size="10" text-anchor="middle">High-spread</text><line x1="559" y1="492" x2="559" y2="497" stroke="black" stroke-width="1" /><line x1="54" y1="492" x2="59" y2="492" stroke="black" stroke-width="1" /><text x="51" y="495.5" font-size="10" text-anchor="end">-4</text><line x1="54" y1="442" x2="59" y2="442" stroke="black" stroke-width="1" /><text x="51" y="445.5" font-size="10" text-anchor="end">-2</text><line x1="54" y1="392" x2="59" y2="392" stroke="black" stroke-width="1" /><text x="51" y="395.5" font-size="10" text-anchor="end">0</text><line x1="54" y1="342" x2="59" y2="342" stroke="black" stroke-width="1" /><text x="51" y="345.5" font-size="10" text-anchor="end">2</text><line x1="54" y1="292" x2="59" y2="292" stroke="black" stroke-width="1" /><text x="51" y="295.5" font-size="10" text-anchor="end">4</text><line x1="54" y1="242" x2="59" y2="242" stroke="black" stroke-width="1" /><text x="51" y="245.5" font-size="10" text-anchor="end">6</text><line x1="54" y1="192" x2="59" y2="192" stroke="black" stroke-width="1" /><text x="51" y="195.5" font-size="10" text-anchor="end">8</text><line x1="54" y1="142" x2="59" y2="142" stroke="black" stroke-width="1" /><text x="51" y="145.5" font-size="10" text-anchor="end">10</text><line x1="54" y1="92" x2="59" y2="92" stroke="black" stroke-width="1" /><text x="51" y="95.5" font-size="10" text-anchor="end">12</text><line x1="54" y1="42" x2="59" y2="42" stroke="black" stroke-width="1" /><text x="51" y="45.5" font-size="10" text-anchor="end">14</text><text x="14" y="270.5" font-size="14" text-anchor="middle" transform="rotate(-90,14,270.5)">Value</text><text x="336.5" y="21" font-size="16" text-anchor="middle">Box + Strip</text><rect x="79" y="277.2586027652795" width="160" height="31.842155073422816" fill="steelblue" /><line x1="79" y1="296.20446762814254" x2="239" y2="296.20446762814254" stroke="white" stroke-width="1.5" /><line x1="159" y1="356.1865640698138" x2="159" y2="309.1007578387023" stroke="steelblue" stroke-width="1" /><line x1="159" y1="277.2586027652795" x2="159" y2="234.88739663863026" stroke="steelblue" stroke-width="1" /><line x1="119.00000000000001" y1="356.1865640698138" x2="198.99999999999997" y2="356.1865640698138" stroke="steelblue" stroke-width="1" /><line x1="119.00000000000001" y1="234.88739663863026" x2="198.99999999999997" y2="234.88739663863026" stroke="steelblue" stroke-width="1" /><rect x="279" y="223.94235038114988" width="160" height="99.20708409263415" fill="steelblue" /><line x1="279" y1="279.68408409731677" x2="439" y2="279.68408409731677" stroke="white" stroke-width="1.5" /><line x1="359" y1="368.59716273844674" x2="359" y2="323.149434473784" stroke="steelblue" stroke-width="1" /><line x1="359" y1="223.94235038114988" x2="359" y2="190.77100545618686" stroke="steelblue" stroke-width="1" /><line x1="319" y1="368.59716273844674" x2="399.00000000000006" y2="368.59716273844674" stroke="steelblue" stroke-width="1" /><line x1="319" y1="190.77100545618686" x2="399.00000000000006" y2="190.77100545618686" stroke="steelblue" stroke-width="1" /><rect x="479.00000000000006" y="224.12194979180424" width="159.99999999999994" height="66.04381400855254" fill="steelblue" /><line x1="479.00000000000006" y1="258.59146317926763" x2="639" y2="258.59146317926763" stroke="white" stroke-width="1.5" /><line x1="559" y1="360.920621821301" x2="559" y2="290.1657638003568" stroke="steelblue" stroke-width="1" /><line x1="559" y1="224.12194979180424" x2="559" y2="185.00104773081307" stroke="steelblue" stroke-width="1" /><line x1="519" y1="360.920621821301" x2="599" y2="360.920621821301" stroke="steelblue" stroke-width="1" /><line x1="519" y1="185.00104773081307" x2="599" y2="185.00104773081307" stroke="steelblue" stroke-width="1" /><circle cx="171.5722058049164" cy="301.0687509677862" r="2.5" fill="rgba(0,0,0,0.3)" /><circle cx="151.75284160246645" cy="309.0868140641106" r="2.5" fill="rgba(0,0,0,0.3)" /><circle cx="178.35576672709954" cy="336.4755390331976" r="2.5" fill="rgba(0,0,0,0.3)" /><circle cx="167.0454239253902" cy="303.08484155045903" r="2.5" fill="rgba(0,0,0,0.3)" /><circle cx="170.74017958766916" cy="258.8830163248593" r="2.5" fill="rgba(0,0,0,0.3)" /><circle cx="162.52393865870238" cy="293.8373323112224" r="2.5" fill="rgba(0,0,0,0.3)" /><circle cx="144.01409768250969" cy="280.4903375351921" r="2.5" fill="rgba(0,0,0,0.3)" /><circle cx="163.20489794628688" cy="302.8125077808072" r="2.5" fill="rgba(0,0,0,0.3)" /><circle cx="147.30868686493287" cy="308.06093570925054" r="2.5" fill="rgba(0,0,0,0.3)" /><circle cx="176.33388470579325" cy="356.1865640698138" r="2.5" fill="rgba(0,0,0,0.3)" /><circle cx="161.38157890744537" cy="302.63288051176994" r="2.5" fill="rgba(0,0,0,0.3)" /><circle cx="173.00119305097846" cy="303.187504023374" r="2.5" fill="rgba(0,0,0,0.3)" /><circle cx="166.20025882431253" cy="303.8437221556393" r="2.5" fill="rgba(0,0,0,0.3)" /><circle cx="141.78121884178645" cy="302.2935336379983" r="2.5" fill="rgba(0,0,0,0.3)" /><circle cx="155.12293203302454" cy="259.35673179738876" r="2.5" fill="rgba(0,0,0,0.3)" /><circle cx="160.84015356762077" cy="309.03972126887527" r="2.5" fill="rgba(0,0,0,0.3)" /><circle cx="147.512409678634" cy="302.1683146103073" r="2.5" fill="rgba(0,0,0,0.3)" /><circle cx="141.0131419128188" cy="234.88739663863026" r="2.5" fill="rgba(0,0,0,0.3)" /><circle cx="162.06547816384267" cy="273.0368732366344" r="2.5" fill="rgba(0,0,0,0.3)" /><circle cx="157.67480168010957" cy="261.0768955599383" r="2.5" fill="rgba(0,0,0,0.3)" /><circle cx="145.46813915169457" cy="332.84434020103436" r="2.5" fill="rgba(0,0,0,0.3)" /><circle cx="173.50827498464028" cy="293.3237783629157" r="2.5" fill="rgba(0,0,0,0.3)" /><circle cx="165.10223220115134" cy="241.49999511317247" r="2.5" fill="rgba(0,0,0,0.3)" /><circle cx="160.01984383443843" cy="287.3762607908603" r="2.5" fill="rgba(0,0,0,0.3)" /><circle cx="171.6336619464101" cy="285.0401818688197" r="2.5" fill="rgba(0,0,0,0.3)" /><circle cx="144.70887433448019" cy="317.1434383691639" r="2.5" fill="rgba(0,0,0,0.3)" /><circle cx="156.0453997320184" cy="256.79386889621253" r="2.5" fill="rgba(0,0,0,0.3)" /><circle cx="176.95754611372632" cy="313.21685873901015" r="2.5" fill="rgba(0,0,0,0.3)" /><circle cx="159.93704885593758" cy="283.5773862063576" r="2.5" fill="rgba(0,0,0,0.3)" /><circle cx="173.87433962090066" cy="242.58599914638665" r="2.5" fill="rgba(0,0,0,0.3)" /><circle cx="142.37932703406216" cy="260.1884901934983" r="2.5" fill="rgba(0,0,0,0.3)" /><circle cx="164.48356142898206" cy="344.53161666429435" r="2.5" fill="rgba(0,0,0,0.3)" /><circle cx="167.77514654896424" cy="277.94981405715214" r="2.5" fill="rgba(0,0,0,0.3)" /><circle cx="150.1657607343577" cy="301.82215922548374" r="2.5" fill="rgba(0,0,0,0.3)" /><circle cx="178.36915557223153" cy="318.12358950308226" r="2.5" fill="rgba(0,0,0,0.3)" /><circle cx="167.61702744167633" cy="307.0574268361447" r="2.5" fill="rgba(0,0,0,0.3)" /><circle cx="170.54960752915662" cy="247.5996566401712" r="2.5" fill="rgba(0,0,0,0.3)" /><circle cx="155.2521519348495" cy="258.98897609248684" r="2.5" fill="rgba(0,0,0,0.3)" /><circle cx="160.54981031873862" cy="283.63542941384213" r="2.5" fill="rgba(0,0,0,0.3)" /><circle cx="170.97748022948088" cy="223.20946709537702" r="2.5" fill="rgba(0,0,0,0.3)" /><circle cx="173.13154685255085" cy="259.6054596575541" r="2.5" fill="rgba(0,0,0,0.3)" /><circle cx="145.77587893708005" cy="365.3028723063992" r="2.5" fill="rgba(0,0,0,0.3)" /><circle cx="157.69273259736008" cy="350.19342912400805" r="2.5" fill="rgba(0,0,0,0.3)" /><circle cx="162.66824747005967" cy="251.8634506645963" r="2.5" fill="rgba(0,0,0,0.3)" /><circle cx="140.90816862074252" cy="326.80306929241647" r="2.5" fill="rgba(0,0,0,0.3)" /><circle cx="155.5837267682046" cy="299.64506013116556" r="2.5" fill="rgba(0,0,0,0.3)" /><circle cx="164.76104914691524" cy="329.1895556637062" r="2.5" fill="rgba(0,0,0,0.3)" /><circle cx="162.1457884093844" cy="306.92970914807427" r="2.5" fill="rgba(0,0,0,0.3)" /><circle cx="169.26204184116085" cy="297.3322783337059" r="2.5" fill="rgba(0,0,0,0.3)" /><circle cx="148.68537038094365" cy="328.0131217112713" r="2.5" fill="rgba(0,0,0,0.3)" /><circle cx="168.75425597958127" cy="275.18496888966126" r="2.5" fill="rgba(0,0,0,0.3)" /><circle cx="158.5929133967071" cy="323.6405715382317" r="2.5" fill="rgba(0,0,0,0.3)" /><circle cx="157.12860611654196" cy="296.31833458354083" r="2.5" fill="rgba(0,0,0,0.3)" /><circle cx="171.3852095900166" cy="274.08002770916755" r="2.5" fill="rgba(0,0,0,0.3)" /><circle cx="164.05990786229984" cy="306.69698895120666" r="2.5" fill="rgba(0,0,0,0.3)" /><circle cx="146.034636062417" cy="284.4973145541754" r="2.5" fill="rgba(0,0,0,0.3)" /><circle cx="168.5014213400815" cy="283.71631677852963" r="2.5" fill="rgba(0,0,0,0.3)" /><circle cx="146.33870295120414" cy="317.4329568877296" r="2.5" fill="rgba(0,0,0,0.3)" /><circle cx="165.06991419719617" cy="289.14732327027025" r="2.5" fill="rgba(0,0,0,0.3)" /><circle cx="141.4168818249568" cy="309.1425891624774" r="2.5" fill="rgba(0,0,0,0.3)" /><circle cx="165.181403045524" cy="266.9796655361632" r="2.5" fill="rgba(0,0,0,0.3)" /><circle cx="177.66499499061558" cy="296.09060067274424" r="2.5" fill="rgba(0,0,0,0.3)" /><circle cx="172.74187597079595" cy="310.9054043822031" r="2.5" fill="rgba(0,0,0,0.3)" /><circle cx="177.48180305430085" cy="316.0620917197805" r="2.5" fill="rgba(0,0,0,0.3)" /><circle cx="177.5356481032885" cy="280.70426117466195" r="2.5" fill="rgba(0,0,0,0.3)" /><circle cx="164.40519088871247" cy="268.0694208607256" r="2.5" fill="rgba(0,0,0,0.3)" /><circle cx="162.83018888573554" cy="278.39803771986055" r="2.5" fill="rgba(0,0,0,0.3)" /><circle cx="171.3309624264389" cy="303.3052527829899" r="2.5" fill="rgba(0,0,0,0.3)" /><circle cx="149.37051123177966" cy="278.92427295323637" r="2.5" fill="rgba(0,0,0,0.3)" /><circle cx="139.74551857157726" cy="286.3613040230804" r="2.5" fill="rgba(0,0,0,0.3)" /><circle cx="141.78728558035263" cy="250.5164673178233" r="2.5" fill="rgba(0,0,0,0.3)" /><circle cx="177.70338104075083" cy="302.8351895762189" r="2.5" fill="rgba(0,0,0,0.3)" /><circle cx="173.48734303561145" cy="317.7643921646893" r="2.5" fill="rgba(0,0,0,0.3)" /><circle cx="144.23628413634657" cy="314.53703098398137" r="2.5" fill="rgba(0,0,0,0.3)" /><circle cx="145.82546974158572" cy="290.65784583605205" r="2.5" fill="rgba(0,0,0,0.3)" /><circle cx="156.8582777890823" cy="250.47005996483233" r="2.5" fill="rgba(0,0,0,0.3)" /><circle cx="140.3188159618615" cy="286.84355308054836" r="2.5" fill="rgba(0,0,0,0.3)" /><circle cx="150.73702740403957" cy="280.7489216591016" r="2.5" fill="rgba(0,0,0,0.3)" /><circle cx="178.527312162785" cy="281.8187747816253" r="2.5" fill="rgba(0,0,0,0.3)" /><circle cx="151.75255049394661" cy="312.51948059455526" r="2.5" fill="rgba(0,0,0,0.3)" /><circle cx="345.72215311260845" cy="368.59716273844674" r="2.5" fill="rgba(0,0,0,0.3)" /><circle cx="362.91014277726384" cy="309.7977109074228" r="2.5" fill="rgba(0,0,0,0.3)" /><circle cx="374.04766249569576" cy="324.91171422836567" r="2.5" fill="rgba(0,0,0,0.3)" /><circle cx="376.80070362583535" cy="290.77100545618686" r="2.5" fill="rgba(0,0,0,0.3)" /><circle cx="357.97512494275753" cy="308.57561732962506" r="2.5" fill="rgba(0,0,0,0.3)" /><circle cx="352.51725235453614" cy="337.45249368862164" r="2.5" fill="rgba(0,0,0,0.3)" /><circle cx="339.6081896181103" cy="327.98662459837345" r="2.5" fill="rgba(0,0,0,0.3)" /><circle cx="347.1715459291269" cy="321.013200421021" r="2.5" fill="rgba(0,0,0,0.3)" /><circle cx="377.9954635990156" cy="338.3491577224488" r="2.5" fill="rgba(0,0,0,0.3)" /><circle cx="349.357967702837" cy="315.3450907289466" r="2.5" fill="rgba(0,0,0,0.3)" /><circle cx="367.26527821527606" cy="343.3812282339155" r="2.5" fill="rgba(0,0,0,0.3)" /><circle cx="357.1091003684638" cy="327.3919259036919" r="2.5" fill="rgba(0,0,0,0.3)" /><circle cx="346.6849033923477" cy="311.51494848106825" r="2.5" fill="rgba(0,0,0,0.3)" /><circle cx="340.7979811896092" cy="319.576178986052" r="2.5" fill="rgba(0,0,0,0.3)" /><circle cx="355.141425470272" cy="301.5217092898845" r="2.5" fill="rgba(0,0,0,0.3)" /><circle cx="341.73967578612775" cy="322.7529765201011" r="2.5" fill="rgba(0,0,0,0.3)" /><circle cx="344.2703899195397" cy="307.7559678571488" r="2.5" fill="rgba(0,0,0,0.3)" /><circle cx="352.34621726460057" cy="322.0104037398513" r="2.5" fill="rgba(0,0,0,0.3)" /><circle cx="377.01900315420045" cy="318.43715010261246" r="2.5" fill="rgba(0,0,0,0.3)" /><circle cx="368.96321858111014" cy="308.2145019784817" r="2.5" fill="rgba(0,0,0,0.3)" /><circle cx="351.50605960273913" cy="347.81023587048776" r="2.5" fill="rgba(0,0,0,0.3)" /><circle cx="353.17704114987515" cy="321.74311260615315" r="2.5" fill="rgba(0,0,0,0.3)" /><circle cx="367.93791097618447" cy="361.61005288646845" r="2.5" fill="rgba(0,0,0,0.3)" /><circle cx="360.946033534915" cy="313.1651551102475" r="2.5" fill="rgba(0,0,0,0.3)" /><circle cx="345.39744273674006" cy="325.9248251956918" r="2.5" fill="rgba(0,0,0,0.3)" /><circle cx="353.51229074634716" cy="342.0747011377548" r="2.5" fill="rgba(0,0,0,0.3)" /><circle cx="358.5821718238882" cy="338.12438155618145" r="2.5" fill="rgba(0,0,0,0.3)" /><circle cx="378.2239078500872" cy="321.82367882409187" r="2.5" fill="rgba(0,0,0,0.3)" /><circle cx="341.82517740967114" cy="309.83680091822356" r="2.5" fill="rgba(0,0,0,0.3)" /><circle cx="350.71626096212145" cy="328.08538875668035" r="2.5" fill="rgba(0,0,0,0.3)" /><circle cx="373.4060305822317" cy="333.6062461892482" r="2.5" fill="rgba(0,0,0,0.3)" /><circle cx="342.4416024948805" cy="346.9633919001747" r="2.5" fill="rgba(0,0,0,0.3)" /><circle cx="361.620547594609" cy="333.9231368935217" r="2.5" fill="rgba(0,0,0,0.3)" /><circle cx="370.2724160356359" cy="299.45070109926166" r="2.5" fill="rgba(0,0,0,0.3)" /><circle cx="360.4816636354948" cy="324.3388083348328" r="2.5" fill="rgba(0,0,0,0.3)" /><circle cx="348.42361842767843" cy="354.6484886303698" r="2.5" fill="rgba(0,0,0,0.3)" /><circle cx="373.3417762292009" cy="341.27017223640917" r="2.5" fill="rgba(0,0,0,0.3)" /><circle cx="345.72474522526556" cy="317.8810669146819" r="2.5" fill="rgba(0,0,0,0.3)" /><circle cx="345.23885768757305" cy="350.86424276113735" r="2.5" fill="rgba(0,0,0,0.3)" /><circle cx="374.14884379726556" cy="319.2155052418866" r="2.5" fill="rgba(0,0,0,0.3)" /><circle cx="342.7105377201024" cy="268.5971627384467" r="2.5" fill="rgba(0,0,0,0.3)" /><circle cx="339.87622412637154" cy="209.79771090742287" r="2.5" fill="rgba(0,0,0,0.3)" /><circle cx="340.3754112525086" cy="224.9117142283656" r="2.5" fill="rgba(0,0,0,0.3)" /><circle cx="372.98578989105346" cy="190.77100545618686" r="2.5" fill="rgba(0,0,0,0.3)" /><circle cx="351.2634748879958" cy="208.57561732962512" r="2.5" fill="rgba(0,0,0,0.3)" /><circle cx="349.5273032659204" cy="237.45249368862164" r="2.5" fill="rgba(0,0,0,0.3)" /><circle cx="354.01010616670845" cy="227.98662459837345" r="2.5" fill="rgba(0,0,0,0.3)" /><circle cx="374.8999565909287" cy="221.01320042102094" r="2.5" fill="rgba(0,0,0,0.3)" /><circle cx="340.0060893366823" cy="238.3491577224488" r="2.5" fill="rgba(0,0,0,0.3)" /><circle cx="374.63282241535865" cy="215.34509072894662" r="2.5" fill="rgba(0,0,0,0.3)" /><circle cx="365.9122747641668" cy="243.38122823391552" r="2.5" fill="rgba(0,0,0,0.3)" /><circle cx="339.45211386110475" cy="227.3919259036919" r="2.5" fill="rgba(0,0,0,0.3)" /><circle cx="355.36213436121324" cy="211.51494848106825" r="2.5" fill="rgba(0,0,0,0.3)" /><circle cx="364.8551243755606" cy="219.576178986052" r="2.5" fill="rgba(0,0,0,0.3)" /><circle cx="341.37328049507255" cy="201.52170928988454" r="2.5" fill="rgba(0,0,0,0.3)" /><circle cx="356.15823761290403" cy="222.75297652010107" r="2.5" fill="rgba(0,0,0,0.3)" /><circle cx="351.8975475955645" cy="207.7559678571488" r="2.5" fill="rgba(0,0,0,0.3)" /><circle cx="373.81415895068005" cy="222.01040373985126" r="2.5" fill="rgba(0,0,0,0.3)" /><circle cx="358.7030345096197" cy="218.43715010261252" r="2.5" fill="rgba(0,0,0,0.3)" /><circle cx="350.88497005027074" cy="208.21450197848168" r="2.5" fill="rgba(0,0,0,0.3)" /><circle cx="351.8287508768373" cy="247.81023587048773" r="2.5" fill="rgba(0,0,0,0.3)" /><circle cx="357.4706649326227" cy="221.74311260615315" r="2.5" fill="rgba(0,0,0,0.3)" /><circle cx="354.62932087623585" cy="261.61005288646845" r="2.5" fill="rgba(0,0,0,0.3)" /><circle cx="365.0437164105859" cy="213.16515511024755" r="2.5" fill="rgba(0,0,0,0.3)" /><circle cx="345.35428713330714" cy="225.92482519569182" r="2.5" fill="rgba(0,0,0,0.3)" /><circle cx="345.3152089162137" cy="242.07470113775483" r="2.5" fill="rgba(0,0,0,0.3)" /><circle cx="343.71437718858346" cy="238.12438155618148" r="2.5" fill="rgba(0,0,0,0.3)" /><circle cx="360.59061829618275" cy="221.82367882409181" r="2.5" fill="rgba(0,0,0,0.3)" /><circle cx="367.84879336547044" cy="209.83680091822356" r="2.5" fill="rgba(0,0,0,0.3)" /><circle cx="373.97782759868903" cy="228.0853887566803" r="2.5" fill="rgba(0,0,0,0.3)" /><circle cx="370.30660854769775" cy="233.60624618924822" r="2.5" fill="rgba(0,0,0,0.3)" /><circle cx="376.1129230189196" cy="246.96339190017474" r="2.5" fill="rgba(0,0,0,0.3)" /><circle cx="349.94006527325286" cy="233.92313689352164" r="2.5" fill="rgba(0,0,0,0.3)" /><circle cx="339.747116847938" cy="199.45070109926172" r="2.5" fill="rgba(0,0,0,0.3)" /><circle cx="349.1522256492264" cy="224.33880833483278" r="2.5" fill="rgba(0,0,0,0.3)" /><circle cx="353.5170500856478" cy="254.64848863036977" r="2.5" fill="rgba(0,0,0,0.3)" /><circle cx="377.22403250488634" cy="241.27017223640914" r="2.5" fill="rgba(0,0,0,0.3)" /><circle cx="376.19125617780514" cy="217.88106691468192" r="2.5" fill="rgba(0,0,0,0.3)" /><circle cx="350.51452702773247" cy="250.8642427611373" r="2.5" fill="rgba(0,0,0,0.3)" /><circle cx="361.23708190478754" cy="219.2155052418866" r="2.5" fill="rgba(0,0,0,0.3)" /><circle cx="539.0488249964287" cy="208.81064205165546" r="2.5" fill="rgba(0,0,0,0.3)" /><circle cx="569.2895568824164" cy="281.1285110713669" r="2.5" fill="rgba(0,0,0,0.3)" /><circle cx="573.6874681675873" cy="218.91192674581077" r="2.5" fill="rgba(0,0,0,0.3)" /><circle cx="572.06723175448" cy="260.9101635035757" r="2.5" fill="rgba(0,0,0,0.3)" /><circle cx="555.8677135780765" cy="185.77458239745846" r="2.5" fill="rgba(0,0,0,0.3)" /><circle cx="577.9515910914218" cy="216.11349210088883" r="2.5" fill="rgba(0,0,0,0.3)" /><circle cx="556.4764735537007" cy="199.33369896397517" r="2.5" fill="rgba(0,0,0,0.3)" /><circle cx="574.9984703434219" cy="315.1197486060678" r="2.5" fill="rgba(0,0,0,0.3)" /><circle cx="572.1330560159915" cy="297.1319005388543" r="2.5" fill="rgba(0,0,0,0.3)" /><circle cx="540.4053609631172" cy="210.58725562946984" r="2.5" fill="rgba(0,0,0,0.3)" /><circle cx="563.2197209208518" cy="278.1059083898979" r="2.5" fill="rgba(0,0,0,0.3)" /><circle cx="560.1738052368178" cy="279.46369009455987" r="2.5" fill="rgba(0,0,0,0.3)" /><circle cx="550.0516326588167" cy="287.6520327047472" r="2.5" fill="rgba(0,0,0,0.3)" /><circle cx="539.1391138929187" cy="275.8348608971661" r="2.5" fill="rgba(0,0,0,0.3)" /><circle cx="550.5947086551975" cy="206.2398205632943" r="2.5" fill="rgba(0,0,0,0.3)" /><circle cx="546.2528871516439" cy="226.98221988432329" r="2.5" fill="rgba(0,0,0,0.3)" /><circle cx="542.5524942659695" cy="243.918327869217" r="2.5" fill="rgba(0,0,0,0.3)" /><circle cx="572.6106888290144" cy="246.86586143963137" r="2.5" fill="rgba(0,0,0,0.3)" /><circle cx="578.7236576644259" cy="292.41450045822336" r="2.5" fill="rgba(0,0,0,0.3)" /><circle cx="554.9640227977741" cy="255.17000135599895" r="2.5" fill="rgba(0,0,0,0.3)" /><circle cx="551.1264117201829" cy="282.4792103103108" r="2.5" fill="rgba(0,0,0,0.3)" /><circle cx="540.4747195675412" cy="295.1257731386452" r="2.5" fill="rgba(0,0,0,0.3)" /><circle cx="545.3056634929097" cy="195.66559114879755" r="2.5" fill="rgba(0,0,0,0.3)" /><circle cx="542.7498872521907" cy="222.168448258836" r="2.5" fill="rgba(0,0,0,0.3)" /><circle cx="566.9269893804085" cy="306.28554223369105" r="2.5" fill="rgba(0,0,0,0.3)" /><circle cx="569.6506228917328" cy="263.86221805175535" r="2.5" fill="rgba(0,0,0,0.3)" /><circle cx="561.0268475674295" cy="269.044081619564" r="2.5" fill="rgba(0,0,0,0.3)" /><circle cx="546.4001523582588" cy="212.34644199341045" r="2.5" fill="rgba(0,0,0,0.3)" /><circle cx="541.7687999718732" cy="256.91936014854787" r="2.5" fill="rgba(0,0,0,0.3)" /><circle cx="577.8787619029448" cy="293.53192366999156" r="2.5" fill="rgba(0,0,0,0.3)" /><circle cx="565.1599384861491" cy="334.6400758692398" r="2.5" fill="rgba(0,0,0,0.3)" /><circle cx="565.4238139364188" cy="213.3488601081117" r="2.5" fill="rgba(0,0,0,0.3)" /><circle cx="565.4182124467815" cy="227.43182956239514" r="2.5" fill="rgba(0,0,0,0.3)" /><circle cx="554.4830059764661" cy="192.4993308578811" r="2.5" fill="rgba(0,0,0,0.3)" /><circle cx="553.2894433358376" cy="310.01548731447366" r="2.5" fill="rgba(0,0,0,0.3)" /><circle cx="556.2415561692089" cy="247.15610070456307" r="2.5" fill="rgba(0,0,0,0.3)" /><circle cx="576.5002987024352" cy="360.920621821301" r="2.5" fill="rgba(0,0,0,0.3)" /><circle cx="559.2101372893753" cy="315.038420438158" r="2.5" fill="rgba(0,0,0,0.3)" /><circle cx="556.6867025825229" cy="289.4161849144013" r="2.5" fill="rgba(0,0,0,0.3)" /><circle cx="559.9871781851664" cy="332.5096260290027" r="2.5" fill="rgba(0,0,0,0.3)" /><circle cx="571.6228161774245" cy="253.74534237164826" r="2.5" fill="rgba(0,0,0,0.3)" /><circle cx="576.0353667185213" cy="231.59691928231103" r="2.5" fill="rgba(0,0,0,0.3)" /><circle cx="549.9179191961673" cy="312.7140653773288" r="2.5" fill="rgba(0,0,0,0.3)" /><circle cx="575.987889871624" cy="224.77311696946026" r="2.5" fill="rgba(0,0,0,0.3)" /><circle cx="577.2148711269289" cy="299.96678428035113" r="2.5" fill="rgba(0,0,0,0.3)" /><circle cx="578.0663934430456" cy="323.69705160370154" r="2.5" fill="rgba(0,0,0,0.3)" /><circle cx="552.5501809067407" cy="265.9843528295013" r="2.5" fill="rgba(0,0,0,0.3)" /><circle cx="554.4858775492087" cy="299.0195724092981" r="2.5" fill="rgba(0,0,0,0.3)" /><circle cx="545.1185145517188" cy="332.2673708933036" r="2.5" fill="rgba(0,0,0,0.3)" /><circle cx="574.3063392642166" cy="221.8825583620253" r="2.5" fill="rgba(0,0,0,0.3)" /><circle cx="543.0304423920466" cy="331.068342062482" r="2.5" fill="rgba(0,0,0,0.3)" /><circle cx="544.1047961277118" cy="289.0911228851029" r="2.5" fill="rgba(0,0,0,0.3)" /><circle cx="577.753871207632" cy="257.6310664963107" r="2.5" fill="rgba(0,0,0,0.3)" /><circle cx="563.1019785571976" cy="253.13860770640412" r="2.5" fill="rgba(0,0,0,0.3)" /><circle cx="559.0455588587781" cy="260.37774397443445" r="2.5" fill="rgba(0,0,0,0.3)" /><circle cx="540.3266392863129" cy="285.26514405268847" r="2.5" fill="rgba(0,0,0,0.3)" /><circle cx="549.2208323481493" cy="243.72360726240768" r="2.5" fill="rgba(0,0,0,0.3)" /><circle cx="559.6738096631766" cy="197.9638355218978" r="2.5" fill="rgba(0,0,0,0.3)" /><circle cx="557.2161003155652" cy="275.92974258346396" r="2.5" fill="rgba(0,0,0,0.3)" /><circle cx="541.8056989547074" cy="251.11072567934343" r="2.5" fill="rgba(0,0,0,0.3)" /><circle cx="576.2152541503709" cy="191.26827699892794" r="2.5" fill="rgba(0,0,0,0.3)" /><circle cx="573.2868536006591" cy="356.8476387590823" r="2.5" fill="rgba(0,0,0,0.3)" /><circle cx="561.6337650449161" cy="245.4090119028619" r="2.5" fill="rgba(0,0,0,0.3)" /><circle cx="541.0112022268937" cy="185.00104773081307" r="2.5" fill="rgba(0,0,0,0.3)" /><circle cx="544.0891338441577" cy="251.682552383138" r="2.5" fill="rgba(0,0,0,0.3)" /><circle cx="547.8375509289606" cy="227.81045755988157" r="2.5" fill="rgba(0,0,0,0.3)" /><circle cx="565.416336510908" cy="235.2330874971957" r="2.5" fill="rgba(0,0,0,0.3)" /><circle cx="562.2881980747361" cy="199.85325377227298" r="2.5" fill="rgba(0,0,0,0.3)" /><circle cx="553.6905288765279" cy="216.78537909490933" r="2.5" fill="rgba(0,0,0,0.3)" /><circle cx="542.0362943058315" cy="195.78465903833518" r="2.5" fill="rgba(0,0,0,0.3)" /><circle cx="540.6247406834269" cy="260.40580460287003" r="2.5" fill="rgba(0,0,0,0.3)" /><circle cx="575.0726525587502" cy="258.84082970156703" r="2.5" fill="rgba(0,0,0,0.3)" /><circle cx="562.5902857246764" cy="307.4997053469798" r="2.5" fill="rgba(0,0,0,0.3)" /><circle cx="567.1344151751794" cy="258.34209665696835" r="2.5" fill="rgba(0,0,0,0.3)" /><circle cx="545.2169341195643" cy="235.85417960329085" r="2.5" fill="rgba(0,0,0,0.3)" /><circle cx="562.6609686171996" cy="268.8995800652615" r="2.5" fill="rgba(0,0,0,0.3)" /><circle cx="558.0994813350762" cy="276.3332184502999" r="2.5" fill="rgba(0,0,0,0.3)" /><circle cx="539.5169466565831" cy="296.89902998694436" r="2.5" fill="rgba(0,0,0,0.3)" /><circle cx="547.1456125521743" cy="266.43833460977214" r="2.5" fill="rgba(0,0,0,0.3)" /><circle cx="547.5588367690598" cy="209.44093190778483" r="2.5" fill="rgba(0,0,0,0.3)" /></svg>