<svg xmlns="http://www.w3.org/2000/svg" width="673" height="541" fill="black"><rect width="100%" height="100%" fill="white" /><line x1="59" y1="492" x2="659" y2="492" stroke="black" stroke-width="1" /><line x1="59" y1="42" x2="59" y2="492" stroke="black" stroke-width="1" /><line x1="59" y1="447" x2="659" y2="447" stroke="#ccc" stroke-width="1" /><line x1="59" y1="402" x2="659" y2="402" stroke="#ccc" stroke-width="1" /><line x1="59" y1="357" x2="659" y2="357" stroke="#ccc" stroke-width="1" /><line x1="59" y1="312" x2="659" y2="312" stroke="#ccc" stroke-width="1" /><line x1="59" y1="267" x2="659" y2="267" stroke="#ccc" stroke-width="1" /><line x1="59" y1="222" x2="659" y2="222" stroke="#ccc" stroke-width="1" /><line x1="59" y1="177" x2="659" y2="177" stroke="#ccc" stroke-width="1" /><line x1="59" y1="132" x2="659" y2="132" stroke="#ccc" stroke-width="1" /><line x1="59" y1="87" x2="659" y2="87" stroke="#ccc" stroke-width="1" /><line x1="59" y1="42" x2="659" y2="42" stroke="#ccc" stroke-width="1" /><text x="159" y="507" font-size="10" text-anchor="middle">Control</text><line x1="159" y1="492" x2="159" y2="497" stroke="black" stroke-width="1" /><text x="359" y="507" font-size="10" text-anchor="middle">Bimodal</text><line x1="359" y1="492" x2="359" y2="497" stroke="black" stroke-width="1" /><text x="559" y="507" font-size="10" text-anchor="middle">High-spread</text><line x1="559" y1="492" x2="559" y2="497" stroke="black" stroke-width="1" /><line x1="54" y1="492" x2="59" y2="492" stroke="black" stroke-width="1" /><text x="51" y="495.5" font-size="10" text-anchor="end">-6</text><line x1="54" y1="447" x2="59" y2="447" stroke="black" stroke-width="1" /><text x="51" y="450.5" font-size="10" text-anchor="end">-4</text><line x1="54" y1="402" x2="59" y2="402" stroke="black" stroke-width="1" /><text x="51" y="405.5" font-size="10" text-anchor="end">-2</text><line x1="54" y1="357" x2="59" y2="357" stroke="black" stroke-width="1" /><text x="51" y="360.5" font-size="10" text-anchor="end">0</text><line x1="54" y1="312" x2="59" y2="312" stroke="black" stroke-width="1" /><text x="51" y="315.5" font-size="10" text-anchor="end">2</text><line x1="54" y1="267" x2="59" y2="267" stroke="black" stroke-width="1" /><text x="51" y="270.5" font-size="10" text-anchor="end">4</text><line x1="54" y1="222" x2="59" y2="222" stroke="black" stroke-width="1" /><text x="51" y="225.5" font-size="10" text-anchor="end">6</text><line x1="54" y1="177" x2="59" y2="177" stroke="black" stroke-width="1" /><text x="51" y="180.5" font-size="10" text-anchor="end">8</text><line x1="54" y1="132" x2="59" y2="132" stroke="black" stroke-width="1" /><text x="51" y="135.5" font-size="10" text-anchor="end">10</text><line x1="54" y1="87" x2="59" y2="87" stroke="black" stroke-width="1" /><text x="51" y="90.5" font-size="10" text-anchor="end">12</text><line x1="54" y1="42" x2="59" y2="42" stroke="black" stroke-width="1" /><text x="51" y="45.5" font-size="10" text-anchor="end">14</text><text x="14" y="270.5" font-size="14" text-anchor="middle" transform="rotate(-90,14,270.5)">Value</text><text x="336.5" y="21" font-size="16" text-anchor="middle">Box + Strip</text><rect x="79" y="253.73274248875154" width="160" height="28.6579395660805" fill="steelblue" /><line x1="79" y1="270.7840208653283" x2="239" y2="270.7840208653283" stroke="white" stroke-width="1.5" /><line x1="159" y1="324.7679076628324" x2="159" y2="282.39068205483204" stroke="steelblue" stroke-width="1" /><line x1="159" y1="253.73274248875154" x2="159" y2="215.5986569747672" stroke="steelblue" stroke-width="1" /><line x1="119.00000000000001" y1="324.7679076628324" x2="198.99999999999997" y2="324.7679076628324" stroke="steelblue" stroke-width="1" /><line x1="119.00000000000001" y1="215.5986569747672" x2="198.99999999999997" y2="215.5986569747672" stroke="steelblue" stroke-width="1" /><rect x="279" y="205.7481153430349" width="160" height="89.2863756833707" fill="steelblue" /><line x1="279" y1="255.9156756875851" x2="439" y2="255.9156756875851" stroke="white" stroke-width="1.5" /><line x1="359" y1="335.93744646460203" x2="359" y2="295.0344910264056" stroke="steelblue" stroke-width="1" /><line x1="359" y1="205.7481153430349" x2="359" y2="175.8939049105682" stroke="steelblue" stroke-width="1" /><line x1="319" y1="335.93744646460203" x2="399.00000000000006" y2="335.93744646460203" stroke="steelblue" stroke-width="1" /><line x1="319" y1="175.8939049105682" x2="399.00000000000006" y2="175.8939049105682" stroke="steelblue" stroke-width="1" /><rect x="479.00000000000006" y="205.90975481262376" width="159.99999999999994" height="59.43943260769737" fill="steelblue" /><line x1="479.00000000000006" y1="236.93231686134092" x2="639" y2="236.93231686134092" stroke="white" stroke-width="1.5" /><line x1="559" y1="329.0285596391709" x2="559" y2="265.34918742032113" stroke="steelblue" stroke-width="1" /><line x1="559" y1="205.90975481262376" x2="559" y2="170.7009429577318" stroke="steelblue" stroke-width="1" /><line x1="519" y1="329.0285596391709" x2="599" y2="329.0285596391709" stroke="steelblue" stroke-width="1" /><line x1="519" y1="170.7009429577318" x2="599" y2="170.7009429577318" stroke="steelblue" stroke-width="1" /><circle cx="171.5722058049164" cy="275.16187587100757" r="2.5" fill="rgba(0,0,0,0.3)" /><circle cx="151.75284160246645" cy="282.37813265769955" r="2.5" fill="rgba(0,0,0,0.3)" /><circle cx="178.35576672709954" cy="307.02798512987783" r="2.5" fill="rgba(0,0,0,0.3)" /><circle cx="167.0454239253902" cy="276.9763573954131" r="2.5" fill="rgba(0,0,0,0.3)" /><circle cx="170.74017958766916" cy="237.19471469237337" r="2.5" fill="rgba(0,0,0,0.3)" /><circle cx="162.52393865870238" cy="268.6535990801001" r="2.5" fill="rgba(0,0,0,0.3)" /><circle cx="144.01409768250969" cy="256.6413037816729" r="2.5" fill="rgba(0,0,0,0.3)" /><circle cx="163.20489794628688" cy="276.73125700272647" r="2.5" fill="rgba(0,0,0,0.3)" /><circle cx="147.30868686493287" cy="281.4548421383255" r="2.5" fill="rgba(0,0,0,0.3)" /><circle cx="176.33388470579325" cy="324.7679076628324" r="2.5" fill="rgba(0,0,0,0.3)" /><circle cx="161.38157890744537" cy="276.56959246059296" r="2.5" fill="rgba(0,0,0,0.3)" /><circle cx="173.00119305097846" cy="277.0687536210366" r="2.5" fill="rgba(0,0,0,0.3)" /><circle cx="166.20025882431253" cy="277.65934994007534" r="2.5" fill="rgba(0,0,0,0.3)" /><circle cx="141.78121884178645" cy="276.26418027419845" r="2.5" fill="rgba(0,0,0,0.3)" /><circle cx="155.12293203302454" cy="237.62105861764985" r="2.5" fill="rgba(0,0,0,0.3)" /><circle cx="160.84015356762077" cy="282.3357491419877" r="2.5" fill="rgba(0,0,0,0.3)" /><circle cx="147.512409678634" cy="276.15148314927654" r="2.5" fill="rgba(0,0,0,0.3)" /><circle cx="141.0131419128188" cy="215.5986569747672" r="2.5" fill="rgba(0,0,0,0.3)" /><circle cx="162.06547816384267" cy="249.93318591297097" r="2.5" fill="rgba(0,0,0,0.3)" /><circle cx="157.67480168010957" cy="239.16920600394442" r="2.5" fill="rgba(0,0,0,0.3)" /><circle cx="145.46813915169457" cy="303.7599061809309" r="2.5" fill="rgba(0,0,0,0.3)" /><circle cx="173.50827498464028" cy="268.19140052662414" r="2.5" fill="rgba(0,0,0,0.3)" /><circle cx="165.10223220115134" cy="221.54999560185524" r="2.5" fill="rgba(0,0,0,0.3)" /><circle cx="160.01984383443843" cy="262.83863471177426" r="2.5" fill="rgba(0,0,0,0.3)" /><circle cx="171.6336619464101" cy="260.73616368193774" r="2.5" fill="rgba(0,0,0,0.3)" /><circle cx="144.70887433448019" cy="289.6290945322475" r="2.5" fill="rgba(0,0,0,0.3)" /><circle cx="156.0453997320184" cy="235.31448200659128" r="2.5" fill="rgba(0,0,0,0.3)" /><circle cx="176.95754611372632" cy="286.09517286510913" r="2.5" fill="rgba(0,0,0,0.3)" /><circle cx="159.93704885593758" cy="259.4196475857218" r="2.5" fill="rgba(0,0,0,0.3)" /><circle cx="173.87433962090066" cy="222.52739923174795" r="2.5" fill="rgba(0,0,0,0.3)" /><circle cx="142.37932703406216" cy="238.3696411741485" r="2.5" fill="rgba(0,0,0,0.3)" /><circle cx="164.48356142898206" cy="314.2784549978649" r="2.5" fill="rgba(0,0,0,0.3)" /><circle cx="167.77514654896424" cy="254.354832651437" r="2.5" fill="rgba(0,0,0,0.3)" /><circle cx="150.1657607343577" cy="275.83994330293535" r="2.5" fill="rgba(0,0,0,0.3)" /><circle cx="178.36915557223153" cy="290.511230552774" r="2.5" fill="rgba(0,0,0,0.3)" /><circle cx="167.61702744167633" cy="280.55168415253024" r="2.5" fill="rgba(0,0,0,0.3)" /><circle cx="170.54960752915662" cy="227.03969097615402" r="2.5" fill="rgba(0,0,0,0.3)" /><circle cx="155.2521519348495" cy="237.29007848323818" r="2.5" fill="rgba(0,0,0,0.3)" /><circle cx="160.54981031873862" cy="259.4718864724579" r="2.5" fill="rgba(0,0,0,0.3)" /><circle cx="170.97748022948088" cy="205.08852038583927" r="2.5" fill="rgba(0,0,0,0.3)" /><circle cx="173.13154685255085" cy="237.84491369179875" r="2.5" fill="rgba(0,0,0,0.3)" /><circle cx="145.77587893708005" cy="332.9725850757593" r="2.5" fill="rgba(0,0,0,0.3)" /><circle cx="157.69273259736008" cy="319.3740862116073" r="2.5" fill="rgba(0,0,0,0.3)" /><circle cx="162.66824747005967" cy="230.87710559813672" r="2.5" fill="rgba(0,0,0,0.3)" /><circle cx="140.90816862074252" cy="298.32276236317483" r="2.5" fill="rgba(0,0,0,0.3)" /><circle cx="155.5837267682046" cy="273.880554118049" r="2.5" fill="rgba(0,0,0,0.3)" /><circle cx="164.76104914691524" cy="300.4706000973356" r="2.5" fill="rgba(0,0,0,0.3)" /><circle cx="162.1457884093844" cy="280.43673823326685" r="2.5" fill="rgba(0,0,0,0.3)" /><circle cx="169.26204184116085" cy="271.79905050033534" r="2.5" fill="rgba(0,0,0,0.3)" /><circle cx="148.68537038094365" cy="299.4118095401442" r="2.5" fill="rgba(0,0,0,0.3)" /><circle cx="168.75425597958127" cy="251.86647200069515" r="2.5" fill="rgba(0,0,0,0.3)" /><circle cx="158.5929133967071" cy="295.4765143844086" r="2.5" fill="rgba(0,0,0,0.3)" /><circle cx="157.12860611654196" cy="270.88650112518667" r="2.5" fill="rgba(0,0,0,0.3)" /><circle cx="171.3852095900166" cy="250.87202493825083" r="2.5" fill="rgba(0,0,0,0.3)" /><circle cx="164.05990786229984" cy="280.22729005608596" r="2.5" fill="rgba(0,0,0,0.3)" /><circle cx="146.034636062417" cy="260.24758309875784" r="2.5" fill="rgba(0,0,0,0.3)" /><circle cx="168.5014213400815" cy="259.54468510067665" r="2.5" fill="rgba(0,0,0,0.3)" /><circle cx="146.33870295120414" cy="289.8896611989566" r="2.5" fill="rgba(0,0,0,0.3)" /><circle cx="165.06991419719617" cy="264.4325909432432" r="2.5" fill="rgba(0,0,0,0.3)" /><circle cx="141.4168818249568" cy="282.4283302462296" r="2.5" fill="rgba(0,0,0,0.3)" /><circle cx="165.181403045524" cy="244.4816989825469" r="2.5" fill="rgba(0,0,0,0.3)" /><circle cx="177.66499499061558" cy="270.68154060546976" r="2.5" fill="rgba(0,0,0,0.3)" /><circle cx="172.74187597079595" cy="284.0148639439828" r="2.5" fill="rgba(0,0,0,0.3)" /><circle cx="177.48180305430085" cy="288.65588254780243" r="2.5" fill="rgba(0,0,0,0.3)" /><circle cx="177.5356481032885" cy="256.83383505719576" r="2.5" fill="rgba(0,0,0,0.3)" /><circle cx="164.40519088871247" cy="245.46247877465302" r="2.5" fill="rgba(0,0,0,0.3)" /><circle cx="162.83018888573554" cy="254.75823394787452" r="2.5" fill="rgba(0,0,0,0.3)" /><circle cx="171.3309624264389" cy="277.17472750469085" r="2.5" fill="rgba(0,0,0,0.3)" /><circle cx="149.37051123177966" cy="255.23184565791274" r="2.5" fill="rgba(0,0,0,0.3)" /><circle cx="139.74551857157726" cy="261.92517362077234" r="2.5" fill="rgba(0,0,0,0.3)" /><circle cx="141.78728558035263" cy="229.664820586041" r="2.5" fill="rgba(0,0,0,0.3)" /><circle cx="177.70338104075083" cy="276.751670618597" r="2.5" fill="rgba(0,0,0,0.3)" /><circle cx="173.48734303561145" cy="290.1879529482204" r="2.5" fill="rgba(0,0,0,0.3)" /><circle cx="144.23628413634657" cy="287.28332788558316" r="2.5" fill="rgba(0,0,0,0.3)" /><circle cx="145.82546974158572" cy="265.7920612524469" r="2.5" fill="rgba(0,0,0,0.3)" /><circle cx="156.8582777890823" cy="229.6230539683491" r="2.5" fill="rgba(0,0,0,0.3)" /><circle cx="140.3188159618615" cy="262.35919777249353" r="2.5" fill="rgba(0,0,0,0.3)" /><circle cx="150.73702740403957" cy="256.8740294931914" r="2.5" fill="rgba(0,0,0,0.3)" /><circle cx="178.527312162785" cy="257.83689730346276" r="2.5" fill="rgba(0,0,0,0.3)" /><circle cx="151.75255049394661" cy="285.46753253509974" r="2.5" fill="rgba(0,0,0,0.3)" /><circle cx="345.72215311260845" cy="335.93744646460203" r="2.5" fill="rgba(0,0,0,0.3)" /><circle cx="362.91014277726384" cy="283.0179398166806" r="2.5" fill="rgba(0,0,0,0.3)" /><circle cx="374.04766249569576" cy="296.62054280552906" r="2.5" fill="rgba(0,0,0,0.3)" /><circle cx="376.80070362583535" cy="265.89390491056815" r="2.5" fill="rgba(0,0,0,0.3)" /><circle cx="357.97512494275753" cy="281.9180555966626" r="2.5" fill="rgba(0,0,0,0.3)" /><circle cx="352.51725235453614" cy="307.9072443197595" r="2.5" fill="rgba(0,0,0,0.3)" /><circle cx="339.6081896181103" cy="299.3879621385361" r="2.5" fill="rgba(0,0,0,0.3)" /><circle cx="347.1715459291269" cy="293.1118803789189" r="2.5" fill="rgba(0,0,0,0.3)" /><circle cx="377.9954635990156" cy="308.7142419502039" r="2.5" fill="rgba(0,0,0,0.3)" /><circle cx="349.357967702837" cy="288.01058165605195" r="2.5" fill="rgba(0,0,0,0.3)" /><circle cx="367.26527821527606" cy="313.243105410524" r="2.5" fill="rgba(0,0,0,0.3)" /><circle cx="357.1091003684638" cy="298.85273331332274" r="2.5" fill="rgba(0,0,0,0.3)" /><circle cx="346.6849033923477" cy="284.56345363296145" r="2.5" fill="rgba(0,0,0,0.3)" /><circle cx="340.7979811896092" cy="291.81856108744677" r="2.5" fill="rgba(0,0,0,0.3)" /><circle cx="355.141425470272" cy="275.56953836089605" r="2.5" fill="rgba(0,0,0,0.3)" /><circle cx="341.73967578612775" cy="294.677678868091" r="2.5" fill="rgba(0,0,0,0.3)" /><circle cx="344.2703899195397" cy="281.1803710714339" r="2.5" fill="rgba(0,0,0,0.3)" /><circle cx="352.34621726460057" cy="294.0093633658662" r="2.5" fill="rgba(0,0,0,0.3)" /><circle cx="377.01900315420045" cy="290.7934350923513" r="2.5" fill="rgba(0,0,0,0.3)" /><circle cx="368.96321858111014" cy="281.5930517806335" r="2.5" fill="rgba(0,0,0,0.3)" /><circle cx="351.50605960273913" cy="317.229212283439" r="2.5" fill="rgba(0,0,0,0.3)" /><circle cx="353.17704114987515" cy="293.76880134553784" r="2.5" fill="rgba(0,0,0,0.3)" /><circle cx="367.93791097618447" cy="329.64904759782166" r="2.5" fill="rgba(0,0,0,0.3)" /><circle cx="360.946033534915" cy="286.04863959922284" r="2.5" fill="rgba(0,0,0,0.3)" /><circle cx="345.39744273674006" cy="297.5323426761226" r="2.5" fill="rgba(0,0,0,0.3)" /><circle cx="353.51229074634716" cy="312.06723102397933" r="2.5" fill="rgba(0,0,0,0.3)" /><circle cx="358.5821718238882" cy="308.51194340056327" r="2.5" fill="rgba(0,0,0,0.3)" /><circle cx="378.2239078500872" cy="293.84131094168265" r="2.5" fill="rgba(0,0,0,0.3)" /><circle cx="341.82517740967114" cy="283.0531208264012" r="2.5" fill="rgba(0,0,0,0.3)" /><circle cx="350.71626096212145" cy="299.4768498810123" r="2.5" fill="rgba(0,0,0,0.3)" /><circle cx="373.4060305822317" cy="304.4456215703234" r="2.5" fill="rgba(0,0,0,0.3)" /><circle cx="342.4416024948805" cy="316.46705271015725" r="2.5" fill="rgba(0,0,0,0.3)" /><circle cx="361.620547594609" cy="304.7308232041695" r="2.5" fill="rgba(0,0,0,0.3)" /><circle cx="370.2724160356359" cy="273.70563098933553" r="2.5" fill="rgba(0,0,0,0.3)" /><circle cx="360.4816636354948" cy="296.1049275013495" r="2.5" fill="rgba(0,0,0,0.3)" /><circle cx="348.42361842767843" cy="323.3836397673328" r="2.5" fill="rgba(0,0,0,0.3)" /><circle cx="373.3417762292009" cy="311.3431550127682" r="2.5" fill="rgba(0,0,0,0.3)" /><circle cx="345.72474522526556" cy="290.2929602232137" r="2.5" fill="rgba(0,0,0,0.3)" /><circle cx="345.23885768757305" cy="319.9778184850236" r="2.5" fill="rgba(0,0,0,0.3)" /><circle cx="374.14884379726556" cy="291.49395471769793" r="2.5" fill="rgba(0,0,0,0.3)" /><circle cx="342.7105377201024" cy="245.93744646460203" r="2.5" fill="rgba(0,0,0,0.3)" /><circle cx="339.87622412637154" cy="193.01793981668055" r="2.5" fill="rgba(0,0,0,0.3)" /><circle cx="340.3754112525086" cy="206.62054280552906" r="2.5" fill="rgba(0,0,0,0.3)" /><circle cx="372.98578989105346" cy="175.8939049105682" r="2.5" fill="rgba(0,0,0,0.3)" /><circle cx="351.2634748879958" cy="191.9180555966626" r="2.5" fill="rgba(0,0,0,0.3)" /><circle cx="349.5273032659204" cy="217.9072443197595" r="2.5" fill="rgba(0,0,0,0.3)" /><circle cx="354.01010616670845" cy="209.38796213853612" r="2.5" fill="rgba(0,0,0,0.3)" /><circle cx="374.8999565909287" cy="203.1118803789189" r="2.5" fill="rgba(0,0,0,0.3)" /><circle cx="340.0060893366823" cy="218.71424195020393" r="2.5" fill="rgba(0,0,0,0.3)" /><circle cx="374.63282241535865" cy="198.01058165605195" r="2.5" fill="rgba(0,0,0,0.3)" /><circle cx="365.9122747641668" cy="223.24310541052398" r="2.5" fill="rgba(0,0,0,0.3)" /><circle cx="339.45211386110475" cy="208.85273331332274" r="2.5" fill="rgba(0,0,0,0.3)" /><circle cx="355.36213436121324" cy="194.5634536329614" r="2.5" fill="rgba(0,0,0,0.3)" /><circle cx="364.8551243755606" cy="201.81856108744677" r="2.5" fill="rgba(0,0,0,0.3)" /><circle cx="341.37328049507255" cy="185.56953836089605" r="2.5" fill="rgba(0,0,0,0.3)" /><circle cx="356.15823761290403" cy="204.677678868091" r="2.5" fill="rgba(0,0,0,0.3)" /><circle cx="351.8975475955645" cy="191.1803710714339" r="2.5" fill="rgba(0,0,0,0.3)" /><circle cx="373.81415895068005" cy="204.00936336586614" r="2.5" fill="rgba(0,0,0,0.3)" /><circle cx="358.7030345096197" cy="200.79343509235127" r="2.5" fill="rgba(0,0,0,0.3)" /><circle cx="350.88497005027074" cy="191.59305178063346" r="2.5" fill="rgba(0,0,0,0.3)" /><circle cx="351.8287508768373" cy="227.22921228343898" r="2.5" fill="rgba(0,0,0,0.3)" /><circle cx="357.4706649326227" cy="203.76880134553784" r="2.5" fill="rgba(0,0,0,0.3)" /><circle cx="354.62932087623585" cy="239.64904759782166" r="2.5" fill="rgba(0,0,0,0.3)" /><circle cx="365.0437164105859" cy="196.04863959922278" r="2.5" fill="rgba(0,0,0,0.3)" /><circle cx="345.35428713330714" cy="207.53234267612265" r="2.5" fill="rgba(0,0,0,0.3)" /><circle cx="345.3152089162137" cy="222.06723102397933" r="2.5" fill="rgba(0,0,0,0.3)" /><circle cx="343.71437718858346" cy="218.51194340056333" r="2.5" fill="rgba(0,0,0,0.3)" /><circle cx="360.59061829618275" cy="203.84131094168265" r="2.5" fill="rgba(0,0,0,0.3)" /><circle cx="367.84879336547044" cy="193.0531208264012" r="2.5" fill="rgba(0,0,0,0.3)" /><circle cx="373.97782759868903" cy="209.4768498810123" r="2.5" fill="rgba(0,0,0,0.3)" /><circle cx="370.30660854769775" cy="214.44562157032345" r="2.5" fill="rgba(0,0,0,0.3)" /><circle cx="376.1129230189196" cy="226.46705271015725" r="2.5" fill="rgba(0,0,0,0.3)" /><circle cx="349.94006527325286" cy="214.7308232041695" r="2.5" fill="rgba(0,0,0,0.3)" /><circle cx="339.747116847938" cy="183.7056309893356" r="2.5" fill="rgba(0,0,0,0.3)" /><circle cx="349.1522256492264" cy="206.1049275013495" r="2.5" fill="rgba(0,0,0,0.3)" /><circle cx="353.5170500856478" cy="233.3836397673328" r="2.5" fill="rgba(0,0,0,0.3)" /><circle cx="377.22403250488634" cy="221.34315501276825" r="2.5" fill="rgba(0,0,0,0.3)" /><circle cx="376.19125617780514" cy="200.2929602232137" r="2.5" fill="rgba(0,0,0,0.3)" /><circle cx="350.51452702773247" cy="229.9778184850236" r="2.5" fill="rgba(0,0,0,0.3)" /><circle cx="361.23708190478754" cy="201.49395471769793" r="2.5" fill="rgba(0,0,0,0.3)" /><circle cx="539.0488249964287" cy="192.1295778464899" r="2.5" fill="rgba(0,0,0,0.3)" /><circle cx="569.2895568824164" cy="257.2156599642302" r="2.5" fill="rgba(0,0,0,0.3)" /><circle cx="573.6874681675873" cy="201.22073407122974" r="2.5" fill="rgba(0,0,0,0.3)" /><circle cx="572.06723175448" cy="239.0191471532181" r="2.5" fill="rgba(0,0,0,0.3)" /><circle cx="555.8677135780765" cy="171.3971241577126" r="2.5" fill="rgba(0,0,0,0.3)" /><circle cx="577.9515910914218" cy="198.70214289079996" r="2.5" fill="rgba(0,0,0,0.3)" /><circle cx="556.4764735537007" cy="183.6003290675776" r="2.5" fill="rgba(0,0,0,0.3)" /><circle cx="574.9984703434219" cy="287.80777374546096" r="2.5" fill="rgba(0,0,0,0.3)" /><circle cx="572.1330560159915" cy="271.61871048496886" r="2.5" fill="rgba(0,0,0,0.3)" /><circle cx="540.4053609631172" cy="193.7285300665228" r="2.5" fill="rgba(0,0,0,0.3)" /><circle cx="563.2197209208518" cy="254.49531755090808" r="2.5" fill="rgba(0,0,0,0.3)" /><circle cx="560.1738052368178" cy="255.7173210851039" r="2.5" fill="rgba(0,0,0,0.3)" /><circle cx="550.0516326588167" cy="263.08682943427254" r="2.5" fill="rgba(0,0,0,0.3)" /><circle cx="539.1391138929187" cy="252.4513748074495" r="2.5" fill="rgba(0,0,0,0.3)" /><circle cx="550.5947086551975" cy="189.81583850696484" r="2.5" fill="rgba(0,0,0,0.3)" /><circle cx="546.2528871516439" cy="208.48399789589098" r="2.5" fill="rgba(0,0,0,0.3)" /><circle cx="542.5524942659695" cy="223.7264950822953" r="2.5" fill="rgba(0,0,0,0.3)" /><circle cx="572.6106888290144" cy="226.3792752956682" r="2.5" fill="rgba(0,0,0,0.3)" /><circle cx="578.7236576644259" cy="267.373050412401" r="2.5" fill="rgba(0,0,0,0.3)" /><circle cx="554.9640227977741" cy="233.85300122039905" r="2.5" fill="rgba(0,0,0,0.3)" /><circle cx="551.1264117201829" cy="258.43128927927967" r="2.5" fill="rgba(0,0,0,0.3)" /><circle cx="540.4747195675412" cy="269.8131958247806" r="2.5" fill="rgba(0,0,0,0.3)" /><circle cx="545.3056634929097" cy="180.29903203391774" r="2.5" fill="rgba(0,0,0,0.3)" /><circle cx="542.7498872521907" cy="204.1516034329524" r="2.5" fill="rgba(0,0,0,0.3)" /><circle cx="566.9269893804085" cy="279.8569880103219" r="2.5" fill="rgba(0,0,0,0.3)" /><circle cx="569.6506228917328" cy="241.67599624657984" r="2.5" fill="rgba(0,0,0,0.3)" /><circle cx="561.0268475674295" cy="246.33967345760757" r="2.5" fill="rgba(0,0,0,0.3)" /><circle cx="546.4001523582588" cy="195.31179779406938" r="2.5" fill="rgba(0,0,0,0.3)" /><circle cx="541.7687999718732" cy="235.42742413369314" r="2.5" fill="rgba(0,0,0,0.3)" /><circle cx="577.8787619029448" cy="268.3787313029924" r="2.5" fill="rgba(0,0,0,0.3)" /><circle cx="565.1599384861491" cy="305.3760682823158" r="2.5" fill="rgba(0,0,0,0.3)" /><circle cx="565.4238139364188" cy="196.21397409730054" r="2.5" fill="rgba(0,0,0,0.3)" /><circle cx="565.4182124467815" cy="208.8886466061556" r="2.5" fill="rgba(0,0,0,0.3)" /><circle cx="554.4830059764661" cy="177.449397772093" r="2.5" fill="rgba(0,0,0,0.3)" /><circle cx="553.2894433358376" cy="283.2139385830263" r="2.5" fill="rgba(0,0,0,0.3)" /><circle cx="556.2415561692089" cy="226.64049063410675" r="2.5" fill="rgba(0,0,0,0.3)" /><circle cx="576.5002987024352" cy="329.0285596391709" r="2.5" fill="rgba(0,0,0,0.3)" /><circle cx="559.2101372893753" cy="287.7345783943422" r="2.5" fill="rgba(0,0,0,0.3)" /><circle cx="556.6867025825229" cy="264.6745664229612" r="2.5" fill="rgba(0,0,0,0.3)" /><circle cx="559.9871781851664" cy="303.45866342610236" r="2.5" fill="rgba(0,0,0,0.3)" /><circle cx="571.6228161774245" cy="232.57080813448346" r="2.5" fill="rgba(0,0,0,0.3)" /><circle cx="576.0353667185213" cy="212.63722735407993" r="2.5" fill="rgba(0,0,0,0.3)" /><circle cx="549.9179191961673" cy="285.6426588395959" r="2.5" fill="rgba(0,0,0,0.3)" /><circle cx="575.987889871624" cy="206.49580527251425" r="2.5" fill="rgba(0,0,0,0.3)" /><circle cx="577.2148711269289" cy="274.170105852316" r="2.5" fill="rgba(0,0,0,0.3)" /><circle cx="578.0663934430456" cy="295.5273464433314" r="2.5" fill="rgba(0,0,0,0.3)" /><circle cx="552.5501809067407" cy="243.58591754655112" r="2.5" fill="rgba(0,0,0,0.3)" /><circle cx="554.4858775492087" cy="273.3176151683683" r="2.5" fill="rgba(0,0,0,0.3)" /><circle cx="545.1185145517188" cy="303.2406338039732" r="2.5" fill="rgba(0,0,0,0.3)" /><circle cx="574.3063392642166" cy="203.89430252582275" r="2.5" fill="rgba(0,0,0,0.3)" /><circle cx="543.0304423920466" cy="302.16150785623375" r="2.5" fill="rgba(0,0,0,0.3)" /><circle cx="544.1047961277118" cy="264.3820105965926" r="2.5" fill="rgba(0,0,0,0.3)" /><circle cx="577.753871207632" cy="236.06795984667963" r="2.5" fill="rgba(0,0,0,0.3)" /><circle cx="563.1019785571976" cy="232.02474693576374" r="2.5" fill="rgba(0,0,0,0.3)" /><circle cx="559.0455588587781" cy="238.53996957699098" r="2.5" fill="rgba(0,0,0,0.3)" /><circle cx="540.3266392863129" cy="260.9386296474196" r="2.5" fill="rgba(0,0,0,0.3)" /><circle cx="549.2208323481493" cy="223.5512465361669" r="2.5" fill="rgba(0,0,0,0.3)" /><circle cx="559.6738096631766" cy="182.36745196970804" r="2.5" fill="rgba(0,0,0,0.3)" /><circle cx="557.2161003155652" cy="252.5367683251176" r="2.5" fill="rgba(0,0,0,0.3)" /><circle cx="541.8056989547074" cy="230.19965311140913" r="2.5" fill="rgba(0,0,0,0.3)" /><circle cx="576.2152541503709" cy="176.34144929903516" r="2.5" fill="rgba(0,0,0,0.3)" /><circle cx="573.2868536006591" cy="325.3628748831741" r="2.5" fill="rgba(0,0,0,0.3)" /><circle cx="561.6337650449161" cy="225.06811071257567" r="2.5" fill="rgba(0,0,0,0.3)" /><circle cx="541.0112022268937" cy="170.7009429577318" r="2.5" fill="rgba(0,0,0,0.3)" /><circle cx="544.0891338441577" cy="230.71429714482417" r="2.5" fill="rgba(0,0,0,0.3)" /><circle cx="547.8375509289606" cy="209.2294118038934" r="2.5" fill="rgba(0,0,0,0.3)" /><circle cx="565.416336510908" cy="215.90977874747614" r="2.5" fill="rgba(0,0,0,0.3)" /><circle cx="562.2881980747361" cy="184.06792839504567" r="2.5" fill="rgba(0,0,0,0.3)" /><circle cx="553.6905288765279" cy="199.30684118541836" r="2.5" fill="rgba(0,0,0,0.3)" /><circle cx="542.0362943058315" cy="180.40619313450168" r="2.5" fill="rgba(0,0,0,0.3)" /><circle cx="540.6247406834269" cy="238.56522414258302" r="2.5" fill="rgba(0,0,0,0.3)" /><circle cx="575.0726525587502" cy="237.15674673141032" r="2.5" fill="rgba(0,0,0,0.3)" /><circle cx="562.5902857246764" cy="280.9497348122818" r="2.5" fill="rgba(0,0,0,0.3)" /><circle cx="567.1344151751794" cy="236.70788699127152" r="2.5" fill="rgba(0,0,0,0.3)" /><circle cx="545.2169341195643" cy="216.46876164296174" r="2.5" fill="rgba(0,0,0,0.3)" /><circle cx="562.6609686171996" cy="246.2096220587353" r="2.5" fill="rgba(0,0,0,0.3)" /><circle cx="558.0994813350762" cy="252.89989660526993" r="2.5" fill="rgba(0,0,0,0.3)" /><circle cx="539.5169466565831" cy="271.4091269882499" r="2.5" fill="rgba(0,0,0,0.3)" /><circle cx="547.1456125521743" cy="243.99450114879494" r="2.5" fill="rgba(0,0,0,0.3)" /><circle cx="547.5588367690598" cy="192.6968387170063" r="2.5" fill="rgba(0,0,0,0.3)" /></svg>