<svg xmlns="http://www.w3.org/2000/svg" width="673" height="541" fill="black"><rect width="100%" height="100%" fill="white" /><line x1="59" y1="492" x2="659" y2="492" stroke="black" stroke-width="1" /><line x1="59" y1="42" x2="59" y2="492" stroke="black" stroke-width="1" /><line x1="59" y1="442" x2="659" y2="442" stroke="#ccc" stroke-width="1" /><line x1="59" y1="392" x2="659" y2="392" stroke="#ccc" stroke-width="1" /><line x1="59" y1="342" x2="659" y2="342" stroke="#ccc" stroke-width="1" /><line x1="59" y1="292" x2="659" y2="292" stroke="#ccc" stroke-width="1" /><line x1="59" y1="242" x2="659" y2="242" stroke="#ccc" stroke-width="1" /><line x1="59" y1="192" x2="659" y2="192" stroke="#ccc" stroke-width="1" /><line x1="59" y1="142" x2="659" y2="142" stroke="#ccc" stroke-width="1" /><line x1="59" y1="92" x2="659" y2="92" stroke="#ccc" stroke-width="1" /><line x1="59" y1="42" x2="659" y2="42" stroke="#ccc" stroke-width="1" /><text x="159" y="507" font-size="10" text-anchor="middle">Control</text><line x1="159" y1="492" x2="159" y2="497" stroke="black" stroke-width="1" /><text x="359" y="507" font-size="10" text-anchor="middle">Bimodal</text><line x1="359" y1="492" x2="359" y2="497" stroke="black" stroke-width="1" /><text x="559" y="507" font-size="10" text-anchor="middle">Right-skewed</text><line x1="559" y1="492" x2="559" y2="497" stroke="black" stroke-width="1" /><line x1="54" y1="492" x2="59" y2="492" stroke="black" stroke-width="1" /><text x="51" y="495.5" font-size="10" text-anchor="end">-4</text><line x1="54" y1="442" x2="59" y2="442" stroke="black" stroke-width="1" /><text x="51" y="445.5" font-size="10" text-anchor="end">-3</text><line x1="54" y1="392" x2="59" y2="392" stroke="black" stroke-width="1" /><text x="51" y="395.5" font-size="10" text-anchor="end">-2</text><line x1="54" y1="342" x2="59" y2="342" stroke="black" stroke-width="1" /><text x="51" y="345.5" font-size="10" text-anchor="end">-1</text><line x1="54" y1="292" x2="59" y2="292" stroke="black" stroke-width="1" /><text x="51" y="295.5" font-size="10" text-anchor="end">0</text><line x1="54" y1="242" x2="59" y2="242" stroke="black" stroke-width="1" /><text x="51" y="245.5" font-size="10" text-anchor="end">1</text><line x1="54" y1="192" x2="59" y2="192" stroke="black" stroke-width="1" /><text x="51" y="195.5" font-size="10" text-anchor="end">2</text><line x1="54" y1="142" x2="59" y2="142" stroke="black" stroke-width="1" /><text x="51" y="145.5" font-size="10" text-anchor="end">3</text><line x1="54" y1="92" x2="59" y2="92" stroke="black" stroke-width="1" /><text x="51" y="95.5" font-size="10" text-anchor="end">4</text><line x1="54" y1="42" x2="59" y2="42" stroke="black" stroke-width="1" /><text x="51" y="45.5" font-size="10" text-anchor="end">5</text><text x="14" y="270.5" font-size="14" text-anchor="middle" transform="rotate(-90,14,270.5)">Value</text><text x="336.5" y="21" font-size="16" text-anchor="middle">Beeswarm</text><circle cx="138" cy="329.4034851462743" r="3" fill="steelblue" /><circle cx="144" cy="269.99434636112676" r="3" fill="steelblue" /><circle cx="159" cy="361.88611611783074" r="3" fill="steelblue" /><circle cx="171" cy="221.85267861619076" r="3" fill="steelblue" /><circle cx="159" cy="262.50640699565713" r="3" fill="steelblue" /><circle cx="165" cy="328.75336226772566" r="3" fill="steelblue" /><circle cx="171" cy="256.40691846774416" r="3" fill="steelblue" /><circle cx="165" cy="377.9176722399394" r="3" fill="steelblue" /><circle cx="147" cy="312.3422296492603" r="3" fill="steelblue" /><circle cx="177" cy="318.8402374135442" r="3" fill="steelblue" /><circle cx="141" cy="345.58528873572425" r="3" fill="steelblue" /><circle cx="159" cy="307.70867515705686" r="3" fill="steelblue" /><circle cx="156" cy="289.0471058695542" r="3" fill="steelblue" /><circle cx="177" cy="312.59550312165646" r="3" fill="steelblue" /><circle cx="159" cy="418.62249014785397" r="3" fill="steelblue" /><circle cx="141" cy="250.04768960853127" r="3" fill="steelblue" /><circle cx="153" cy="308.92432681860237" r="3" fill="steelblue" /><circle cx="147" cy="318.72700681955394" r="3" fill="steelblue" /><circle cx="168" cy="264.0115286781018" r="3" fill="steelblue" /><circle cx="168" cy="322.74228975024147" r="3" fill="steelblue" /><circle cx="165" cy="252.13026718721846" r="3" fill="steelblue" /><circle cx="159" cy="428.9961421801326" r="3" fill="steelblue" /><circle cx="147" cy="295.59284395003124" r="3" fill="steelblue" /><circle cx="171" cy="331.5097167320417" r="3" fill="steelblue" /><circle cx="165" cy="245.37484308746372" r="3" fill="steelblue" /><circle cx="165" cy="364.66661832064494" r="3" fill="steelblue" /><circle cx="132" cy="333.2742332535357" r="3" fill="steelblue" /><circle cx="183" cy="250.20001565922846" r="3" fill="steelblue" /><circle cx="180" cy="290.4952819044126" r="3" fill="steelblue" /><circle cx="159" cy="342.2659866068709" r="3" fill="steelblue" /><circle cx="159" cy="282.2041608968935" r="3" fill="steelblue" /><circle cx="147" cy="341.9994434598469" r="3" fill="steelblue" /><circle cx="159" cy="436.2030151015486" r="3" fill="steelblue" /><circle cx="177" cy="259.9538537283018" r="3" fill="steelblue" /><circle cx="153" cy="277.05900951569777" r="3" fill="steelblue" /><circle cx="177" cy="331.98286520279066" r="3" fill="steelblue" /><circle cx="144" cy="283.99276333942555" r="3" fill="steelblue" /><circle cx="159" cy="214.82457119804423" r="3" fill="steelblue" /><circle cx="174" cy="286.7041097589491" r="3" fill="steelblue" /><circle cx="171" cy="344.93998343821227" r="3" fill="steelblue" /><circle cx="159" cy="327.3345885617172" r="3" fill="steelblue" /><circle cx="177" cy="226.05497721363383" r="3" fill="steelblue" /><circle cx="141" cy="226.6194662901043" r="3" fill="steelblue" /><circle cx="162" cy="293.6893261368114" r="3" fill="steelblue" /><circle cx="183" cy="332.58140267486795" r="3" fill="steelblue" /><circle cx="162" cy="300.07069540045734" r="3" fill="steelblue" /><circle cx="135" cy="261.2877725410905" r="3" fill="steelblue" /><circle cx="144" cy="303.4837080642656" r="3" fill="steelblue" /><circle cx="171" cy="294.75696638634156" r="3" fill="steelblue" /><circle cx="147" cy="229.12990012999643" r="3" fill="steelblue" /><circle cx="156" cy="269.2194435196255" r="3" fill="steelblue" /><circle cx="174" cy="324.92224456765496" r="3" fill="steelblue" /><circle cx="165" cy="258.5214084900621" r="3" fill="steelblue" /><circle cx="180" cy="271.89747089530533" r="3" fill="steelblue" /><circle cx="156" cy="301.81918054220193" r="3" fill="steelblue" /><circle cx="159" cy="176.65730174847238" r="3" fill="steelblue" /><circle cx="168" cy="282.70942719270124" r="3" fill="steelblue" /><circle cx="165" cy="231.82816746710705" r="3" fill="steelblue" /><circle cx="147" cy="246.368743823155" r="3" fill="steelblue" /><circle cx="141" cy="297.39704955184715" r="3" fill="steelblue" /><circle cx="129" cy="280.4434593908162" r="3" fill="steelblue" /><circle cx="159" cy="274.6130283837368" r="3" fill="steelblue" /><circle cx="177" cy="295.95469288911164" r="3" fill="steelblue" /><circle cx="141" cy="321.4152219351596" r="3" fill="steelblue" /><circle cx="141" cy="275.26137954240914" r="3" fill="steelblue" /><circle cx="177" cy="247.61937648970954" r="3" fill="steelblue" /><circle cx="153" cy="315.5913170146778" r="3" fill="steelblue" /><circle cx="150" cy="265.2354057923566" r="3" fill="steelblue" /><circle cx="138" cy="291.3433043647537" r="3" fill="steelblue" /><circle cx="183" cy="260.90627360177433" r="3" fill="steelblue" /><circle cx="153" cy="259.76337653264426" r="3" fill="steelblue" /><circle cx="171" cy="204.78301319655532" r="3" fill="steelblue" /><circle cx="183" cy="230.62303273385612" r="3" fill="steelblue" /><circle cx="153" cy="245.477447575611" r="3" fill="steelblue" /><circle cx="159" cy="336.1152735889822" r="3" fill="steelblue" /><circle cx="159" cy="235.76173380863014" r="3" fill="steelblue" /><circle cx="165" cy="203.7819199469331" r="3" fill="steelblue" /><circle cx="150" cy="302.04418243014345" r="3" fill="steelblue" /><circle cx="177" cy="348.99798771019766" r="3" fill="steelblue" /><circle cx="159" cy="192.0719957645453" r="3" fill="steelblue" /><circle cx="165" cy="343.9404772596956" r="3" fill="steelblue" /><circle cx="159" cy="249.0564768610801" r="3" fill="steelblue" /><circle cx="186" cy="291.7566086461443" r="3" fill="steelblue" /><circle cx="153" cy="217.5780268488561" r="3" fill="steelblue" /><circle cx="153" cy="338.410448291557" r="3" fill="steelblue" /><circle cx="189" cy="297.72842496992143" r="3" fill="steelblue" /><circle cx="150" cy="290.01588162524877" r="3" fill="steelblue" /><circle cx="174" cy="302.2271351275375" r="3" fill="steelblue" /><circle cx="162" cy="287.474798137064" r="3" fill="steelblue" /><circle cx="159" cy="199.80795214922261" r="3" fill="steelblue" /><circle cx="159" cy="256.3713457298554" r="3" fill="steelblue" /><circle cx="150" cy="324.53515253037006" r="3" fill="steelblue" /><circle cx="153" cy="225.38309617825263" r="3" fill="steelblue" /><circle cx="165" cy="217.244710273561" r="3" fill="steelblue" /><circle cx="159" cy="228.0421098749627" r="3" fill="steelblue" /><circle cx="165" cy="315.15729509436494" r="3" fill="steelblue" /><circle cx="180" cy="325.53276586297983" r="3" fill="steelblue" /><circle cx="156" cy="321.0962366101367" r="3" fill="steelblue" /><circle cx="156" cy="295.22647472565006" r="3" fill="steelblue" /><circle cx="177" cy="279.3775102912174" r="3" fill="steelblue" /><circle cx="159" cy="314.5610578300191" r="3" fill="steelblue" /><circle cx="147" cy="221.98069627966413" r="3" fill="steelblue" /><circle cx="144" cy="290.1521700250192" r="3" fill="steelblue" /><circle cx="138" cy="305.2225323993706" r="3" fill="steelblue" /><circle cx="165" cy="276.728929081773" r="3" fill="steelblue" /><circle cx="147" cy="278.6575326976567" r="3" fill="steelblue" /><circle cx="180" cy="303.6665836499003" r="3" fill="steelblue" /><circle cx="147" cy="348.1330080907852" r="3" fill="steelblue" /><circle cx="150" cy="271.3731513449959" r="3" fill="steelblue" /><circle cx="153" cy="344.59360559564686" r="3" fill="steelblue" /><circle cx="159" cy="221.46759757663563" r="3" fill="steelblue" /><circle cx="153" cy="236.33857286756216" r="3" fill="steelblue" /><circle cx="171" cy="277.2374177917416" r="3" fill="steelblue" /><circle cx="186" cy="276.2140144389401" r="3" fill="steelblue" /><circle cx="159" cy="153.40632674314838" r="3" fill="steelblue" /><circle cx="171" cy="309.7800049228339" r="3" fill="steelblue" /><circle cx="171" cy="228.7316134467515" r="3" fill="steelblue" /><circle cx="138" cy="284.3203949088495" r="3" fill="steelblue" /><circle cx="147" cy="259.7999500575206" r="3" fill="steelblue" /><circle cx="153" cy="204.69436320133877" r="3" fill="steelblue" /><circle cx="168" cy="289.10160873567645" r="3" fill="steelblue" /><circle cx="168" cy="301.89034673460236" r="3" fill="steelblue" /><circle cx="171" cy="338.9033478308729" r="3" fill="steelblue" /><circle cx="159" cy="242.20064753753783" r="3" fill="steelblue" /><circle cx="165" cy="337.720150291026" r="3" fill="steelblue" /><circle cx="165" cy="225.35285223646213" r="3" fill="steelblue" /><circle cx="159" cy="375.42926511308065" r="3" fill="steelblue" /><circle cx="171" cy="316.8424390763258" r="3" fill="steelblue" /><circle cx="144" cy="329.1257592421007" r="3" fill="steelblue" /><circle cx="159" cy="348.66949971061433" r="3" fill="steelblue" /><circle cx="153" cy="252.6362047606231" r="3" fill="steelblue" /><circle cx="135" cy="275.8224376333235" r="3" fill="steelblue" /><circle cx="171" cy="245.52527438305577" r="3" fill="steelblue" /><circle cx="162" cy="320.35889973944575" r="3" fill="steelblue" /><circle cx="153" cy="329.73515539148616" r="3" fill="steelblue" /><circle cx="141" cy="260.71017471604137" r="3" fill="steelblue" /><circle cx="177" cy="342.3975970209809" r="3" fill="steelblue" /><circle cx="165" cy="350.6317259944951" r="3" fill="steelblue" /><circle cx="168" cy="237.2403038262518" r="3" fill="steelblue" /><circle cx="183" cy="345.80545222129865" r="3" fill="steelblue" /><circle cx="174" cy="265.33626226430806" r="3" fill="steelblue" /><circle cx="132" cy="296.52015360946024" r="3" fill="steelblue" /><circle cx="174" cy="271.5138109803936" r="3" fill="steelblue" /><circle cx="162" cy="268.3447978381579" r="3" fill="steelblue" /><circle cx="153" cy="283.2860194571265" r="3" fill="steelblue" /><circle cx="165" cy="307.79784864013334" r="3" fill="steelblue" /><circle cx="159" cy="408.3384572803215" r="3" fill="steelblue" /><circle cx="183" cy="297.6680974785328" r="3" fill="steelblue" /><circle cx="168" cy="271.227157244571" r="3" fill="steelblue" /><circle cx="159" cy="354.88177852317665" r="3" fill="steelblue" /><circle cx="347" cy="336.61854797065337" r="3" fill="steelblue" /><circle cx="359" cy="343.4962502103584" r="3" fill="steelblue" /><circle cx="359" cy="313.5534767392867" r="3" fill="steelblue" /><circle cx="356" cy="351.15602293734906" r="3" fill="steelblue" /><circle cx="365" cy="401.71667082227077" r="3" fill="steelblue" /><circle cx="368" cy="351.5153495922606" r="3" fill="steelblue" /><circle cx="371" cy="403.4379735604612" r="3" fill="steelblue" /><circle cx="374" cy="381.47949256994906" r="3" fill="steelblue" /><circle cx="371" cy="360.04654555196225" r="3" fill="steelblue" /><circle cx="338" cy="374.4018308556274" r="3" fill="steelblue" /><circle cx="347" cy="345.36637147689885" r="3" fill="steelblue" /><circle cx="326" cy="375.27547566827207" r="3" fill="steelblue" /><circle cx="356" cy="376.2442583111316" r="3" fill="steelblue" /><circle cx="350" cy="380.44479775337624" r="3" fill="steelblue" /><circle cx="359" cy="385.0407241417188" r="3" fill="steelblue" /><circle cx="359" cy="337.1440218775047" r="3" fill="steelblue" /><circle cx="359" cy="422.98480074951965" r="3" fill="steelblue" /><circle cx="338" cy="357.415660061001" r="3" fill="steelblue" /><circle cx="377" cy="337.737058035332" r="3" fill="steelblue" /><circle cx="344" cy="373.0370595593187" r="3" fill="steelblue" /><circle cx="359" cy="400.3734935884007" r="3" fill="steelblue" /><circle cx="359" cy="370.5923525798633" r="3" fill="steelblue" /><circle cx="365" cy="323.3679319670031" r="3" fill="steelblue" /><circle cx="380" cy="354.80574301786737" r="3" fill="steelblue" /><circle cx="359" cy="330.7432689102395" r="3" fill="steelblue" /><circle cx="365" cy="338.5482820836638" r="3" fill="steelblue" /><circle cx="338" cy="367.9297133408449" r="3" fill="steelblue" /><circle cx="368" cy="379.07959069013106" r="3" fill="steelblue" /><circle cx="365" cy="385.74553658085404" r="3" fill="steelblue" /><circle cx="359" cy="391.615375438477" r="3" fill="steelblue" /><circle cx="365" cy="357.04792907329227" r="3" fill="steelblue" /><circle cx="353" cy="388.0941598874105" r="3" fill="steelblue" /><circle cx="359" cy="363.88654581732385" r="3" fill="steelblue" /><circle cx="344" cy="353.1889178745814" r="3" fill="steelblue" /><circle cx="359" cy="415.0940286357689" r="3" fill="steelblue" /><circle cx="371" cy="335.5616057942213" r="3" fill="steelblue" /><circle cx="362" cy="379.06714542804104" r="3" fill="steelblue" /><circle cx="365" cy="332.27231926389004" r="3" fill="steelblue" /><circle cx="347" cy="405.27589710586614" r="3" fill="steelblue" /><circle cx="353" cy="365.82160740105286" r="3" fill="steelblue" /><circle cx="341" cy="395.0454793050479" r="3" fill="steelblue" /><circle cx="344" cy="382.0838779084776" r="3" fill="steelblue" /><circle cx="389" cy="374.62398013061744" r="3" fill="steelblue" /><circle cx="365" cy="392.1256176905052" r="3" fill="steelblue" /><circle cx="377" cy="393.99053529657084" r="3" fill="steelblue" /><circle cx="353" cy="358.9607645187227" r="3" fill="steelblue" /><circle cx="365" cy="424.1553904336879" r="3" fill="steelblue" /><circle cx="371" cy="389.36298826682366" r="3" fill="steelblue" /><circle cx="353" cy="340.30090360088025" r="3" fill="steelblue" /><circle cx="344" cy="365.85322978016563" r="3" fill="steelblue" /><circle cx="341" cy="337.8114187855514" r="3" fill="steelblue" /><circle cx="383" cy="371.63036415163754" r="3" fill="steelblue" /><circle cx="374" cy="345.67959205329964" r="3" fill="steelblue" /><circle cx="374" cy="353.1766159704266" r="3" fill="steelblue" /><circle cx="371" cy="367.5099958135196" r="3" fill="steelblue" /><circle cx="347" cy="360.14155345964673" r="3" fill="steelblue" /><circle cx="332" cy="371.6683185639603" r="3" fill="steelblue" /><circle cx="365" cy="365.04420167843455" r="3" fill="steelblue" /><circle cx="347" cy="392.629681249535" r="3" fill="steelblue" /><circle cx="353" cy="402.50479173309316" r="3" fill="steelblue" /><circle cx="359" cy="320.87376830227873" r="3" fill="steelblue" /><circle cx="362" cy="349.28608743405005" r="3" fill="steelblue" /><circle cx="359" cy="407.0600086689388" r="3" fill="steelblue" /><circle cx="350" cy="353.09766730649176" r="3" fill="steelblue" /><circle cx="359" cy="356.406599034462" r="3" fill="steelblue" /><circle cx="368" cy="344.3811710391101" r="3" fill="steelblue" /><circle cx="377" cy="361.6456663232798" r="3" fill="steelblue" /><circle cx="353" cy="332.4205614604074" r="3" fill="steelblue" /><circle cx="353" cy="394.4461246356473" r="3" fill="steelblue" /><circle cx="395" cy="375.6444293963509" r="3" fill="steelblue" /><circle cx="353" cy="324.808019617151" r="3" fill="steelblue" /><circle cx="350" cy="371.4998087190727" r="3" fill="steelblue" /><circle cx="377" cy="367.88528400675887" r="3" fill="steelblue" /><circle cx="374" cy="373.1531630020551" r="3" fill="steelblue" /><circle cx="365" cy="371.2972726516588" r="3" fill="steelblue" /><circle cx="347" cy="186.61854797065337" r="3" fill="steelblue" /><circle cx="359" cy="193.49625021035843" r="3" fill="steelblue" /><circle cx="359" cy="163.55347673928668" r="3" fill="steelblue" /><circle cx="356" cy="201.156022937349" r="3" fill="steelblue" /><circle cx="365" cy="251.71667082227077" r="3" fill="steelblue" /><circle cx="368" cy="201.51534959226058" r="3" fill="steelblue" /><circle cx="371" cy="253.43797356046122" r="3" fill="steelblue" /><circle cx="374" cy="231.47949256994906" r="3" fill="steelblue" /><circle cx="371" cy="210.04654555196225" r="3" fill="steelblue" /><circle cx="338" cy="224.4018308556274" r="3" fill="steelblue" /><circle cx="347" cy="195.3663714768989" r="3" fill="steelblue" /><circle cx="326" cy="225.27547566827212" r="3" fill="steelblue" /><circle cx="356" cy="226.24425831113155" r="3" fill="steelblue" /><circle cx="350" cy="230.44479775337624" r="3" fill="steelblue" /><circle cx="359" cy="235.04072414171878" r="3" fill="steelblue" /><circle cx="359" cy="187.1440218775047" r="3" fill="steelblue" /><circle cx="359" cy="272.98480074951965" r="3" fill="steelblue" /><circle cx="338" cy="207.415660061001" r="3" fill="steelblue" /><circle cx="377" cy="187.73705803533193" r="3" fill="steelblue" /><circle cx="344" cy="223.03705955931866" r="3" fill="steelblue" /><circle cx="359" cy="250.3734935884007" r="3" fill="steelblue" /><circle cx="359" cy="220.5923525798633" r="3" fill="steelblue" /><circle cx="365" cy="173.36793196700313" r="3" fill="steelblue" /><circle cx="380" cy="204.80574301786737" r="3" fill="steelblue" /><circle cx="359" cy="180.74326891023952" r="3" fill="steelblue" /><circle cx="365" cy="188.54828208366388" r="3" fill="steelblue" /><circle cx="338" cy="217.92971334084484" r="3" fill="steelblue" /><circle cx="368" cy="229.07959069013106" r="3" fill="steelblue" /><circle cx="365" cy="235.74553658085404" r="3" fill="steelblue" /><circle cx="359" cy="241.61537543847692" r="3" fill="steelblue" /><circle cx="365" cy="207.04792907329227" r="3" fill="steelblue" /><circle cx="353" cy="238.09415988741048" r="3" fill="steelblue" /><circle cx="359" cy="213.8865458173239" r="3" fill="steelblue" /><circle cx="344" cy="203.18891787458142" r="3" fill="steelblue" /><circle cx="359" cy="265.09402863576895" r="3" fill="steelblue" /><circle cx="371" cy="185.56160579422135" r="3" fill="steelblue" /><circle cx="362" cy="229.0671454280411" r="3" fill="steelblue" /><circle cx="365" cy="182.27231926388998" r="3" fill="steelblue" /><circle cx="347" cy="255.2758971058661" r="3" fill="steelblue" /><circle cx="353" cy="215.82160740105292" r="3" fill="steelblue" /><circle cx="341" cy="245.0454793050479" r="3" fill="steelblue" /><circle cx="344" cy="232.08387790847758" r="3" fill="steelblue" /><circle cx="389" cy="224.62398013061744" r="3" fill="steelblue" /><circle cx="365" cy="242.12561769050515" r="3" fill="steelblue" /><circle cx="377" cy="243.9905352965708" r="3" fill="steelblue" /><circle cx="353" cy="208.96076451872273" r="3" fill="steelblue" /><circle cx="365" cy="274.1553904336879" r="3" fill="steelblue" /><circle cx="371" cy="239.36298826682372" r="3" fill="steelblue" /><circle cx="353" cy="190.30090360088025" r="3" fill="steelblue" /><circle cx="344" cy="215.85322978016563" r="3" fill="steelblue" /><circle cx="341" cy="187.81141878555133" r="3" fill="steelblue" /><circle cx="383" cy="221.6303641516376" r="3" fill="steelblue" /><circle cx="374" cy="195.6795920532997" r="3" fill="steelblue" /><circle cx="374" cy="203.17661597042667" r="3" fill="steelblue" /><circle cx="371" cy="217.50999581351965" r="3" fill="steelblue" /><circle cx="347" cy="210.14155345964673" r="3" fill="steelblue" /><circle cx="332" cy="221.66831856396027" r="3" fill="steelblue" /><circle cx="365" cy="215.04420167843455" r="3" fill="steelblue" /><circle cx="347" cy="242.629681249535" r="3" fill="steelblue" /><circle cx="353" cy="252.50479173309316" r="3" fill="steelblue" /><circle cx="359" cy="170.87376830227873" r="3" fill="steelblue" /><circle cx="362" cy="199.2860874340501" r="3" fill="steelblue" /><circle cx="359" cy="257.0600086689388" r="3" fill="steelblue" /><circle cx="350" cy="203.09766730649176" r="3" fill="steelblue" /><circle cx="359" cy="206.40659903446198" r="3" fill="steelblue" /><circle cx="368" cy="194.38117103911003" r="3" fill="steelblue" /><circle cx="377" cy="211.64566632327984" r="3" fill="steelblue" /><circle cx="353" cy="182.42056146040738" r="3" fill="steelblue" /><circle cx="353" cy="244.44612463564732" r="3" fill="steelblue" /><circle cx="395" cy="225.64442939635097" r="3" fill="steelblue" /><circle cx="353" cy="174.80801961715093" r="3" fill="steelblue" /><circle cx="350" cy="221.49980871907275" r="3" fill="steelblue" /><circle cx="377" cy="217.8852840067588" r="3" fill="steelblue" /><circle cx="374" cy="223.15316300205512" r="3" fill="steelblue" /><circle cx="365" cy="221.29727265165877" r="3" fill="steelblue" /><circle cx="586" cy="285.19911459364084" r="3" fill="steelblue" /><circle cx="553" cy="293.5591712624993" r="3" fill="steelblue" /><circle cx="559" cy="259.09241469670593" r="3" fill="steelblue" /><circle cx="559" cy="272.98543678371516" r="3" fill="steelblue" /><circle cx="565" cy="179.41174277770097" r="3" fill="steelblue" /><circle cx="580" cy="307.31370032231985" r="3" fill="steelblue" /><circle cx="562" cy="222.76442475907106" r="3" fill="steelblue" /><circle cx="544" cy="232.19765130104298" r="3" fill="steelblue" /><circle cx="559" cy="199.8474220460077" r="3" fill="steelblue" /><circle cx="559" cy="171.40285580258734" r="3" fill="steelblue" /><circle cx="547" cy="311.93943250218524" r="3" fill="steelblue" /><circle cx="541" cy="289.2300105014501" r="3" fill="steelblue" /><circle cx="526" cy="296.27863786092837" r="3" fill="steelblue" /><circle cx="565" cy="298.5817604375227" r="3" fill="steelblue" /><circle cx="583" cy="293.7940749991126" r="3" fill="steelblue" /><circle cx="559" cy="291.3445708341943" r="3" fill="steelblue" /><circle cx="508" cy="305.0782884856998" r="3" fill="steelblue" /><circle cx="559" cy="309.2096582960219" r="3" fill="steelblue" /><circle cx="550" cy="287.750176380294" r="3" fill="steelblue" /><circle cx="556" cy="249.7771495109938" r="3" fill="steelblue" /><circle cx="574" cy="247.1917523868897" r="3" fill="steelblue" /><circle cx="574" cy="218.14620878091125" r="3" fill="steelblue" /><circle cx="574" cy="230.86895975924585" r="3" fill="steelblue" /><circle cx="565" cy="172.41842913243948" r="3" fill="steelblue" /><circle cx="553" cy="316.2090198545287" r="3" fill="steelblue" /><circle cx="559" cy="165.38624578801597" r="3" fill="steelblue" /><circle cx="568" cy="304.36824959713636" r="3" fill="steelblue" /><circle cx="562" cy="240.5431052342668" r="3" fill="steelblue" /><circle cx="544" cy="276.41865516268524" r="3" fill="steelblue" /><circle cx="562" cy="252.5909803558684" r="3" fill="steelblue" /><circle cx="580" cy="245.8830118427758" r="3" fill="steelblue" /><circle cx="559" cy="206.77801399879468" r="3" fill="steelblue" /><circle cx="592" cy="309.3029766102245" r="3" fill="steelblue" /><circle cx="523" cy="302.2726863296326" r="3" fill="steelblue" /><circle cx="568" cy="216.48477538354166" r="3" fill="steelblue" /><circle cx="556" cy="285.85100865568506" r="3" fill="steelblue" /><circle cx="565" cy="260.80394034331937" r="3" fill="steelblue" /><circle cx="583" cy="314.2844310935445" r="3" fill="steelblue" /><circle cx="586" cy="278.11792542167154" r="3" fill="steelblue" /><circle cx="553" cy="225.07557842127858" r="3" fill="steelblue" /><circle cx="565" cy="309.5710057394591" r="3" fill="steelblue" /><circle cx="505" cy="312.0991789426699" r="3" fill="steelblue" /><circle cx="589" cy="316.5088428929052" r="3" fill="steelblue" /><circle cx="571" cy="310.8111402729627" r="3" fill="steelblue" /><circle cx="574" cy="288.23752548329196" r="3" fill="steelblue" /><circle cx="556" cy="235.81689707228958" r="3" fill="steelblue" /><circle cx="565" cy="210.68364042028935" r="3" fill="steelblue" /><circle cx="541" cy="314.10211711150436" r="3" fill="steelblue" /><circle cx="559" cy="228.1436047132837" r="3" fill="steelblue" /><circle cx="535" cy="316.34037632835197" r="3" fill="steelblue" /><circle cx="544" cy="299.5246457120647" r="3" fill="steelblue" /><circle cx="511" cy="310.3523584093051" r="3" fill="steelblue" /><circle cx="550" cy="275.05008845772574" r="3" fill="steelblue" /><circle cx="559" cy="265.4724049455614" r="3" fill="steelblue" /><circle cx="568" cy="273.28664679355114" r="3" fill="steelblue" /><circle cx="538" cy="300.65323063180847" r="3" fill="steelblue" /><circle cx="553" cy="184.1813420043821" r="3" fill="steelblue" /><circle cx="559" cy="111.52865110744483" r="3" fill="steelblue" /><circle cx="562" cy="216.37054194256393" r="3" fill="steelblue" /><circle cx="568" cy="280.2644280115271" r="3" fill="steelblue" /><circle cx="610" cy="303.6946236643953" r="3" fill="steelblue" /><circle cx="523" cy="309.77266861818293" r="3" fill="steelblue" /><circle cx="562" cy="246.5691424201017" r="3" fill="steelblue" /><circle cx="568" cy="243.20632159349333" r="3" fill="steelblue" /><circle cx="550" cy="298.9948294785996" r="3" fill="steelblue" /><circle cx="580" cy="277.30572008319393" r="3" fill="steelblue" /><circle cx="592" cy="302.2472261441806" r="3" fill="steelblue" /><circle cx="571" cy="174.36578319905448" r="3" fill="steelblue" /><circle cx="556" cy="219.28782455139742" r="3" fill="steelblue" /><circle cx="571" cy="293.5704742184105" r="3" fill="steelblue" /><circle cx="574" cy="281.89555826361527" r="3" fill="steelblue" /><circle cx="520" cy="296.48188744267895" r="3" fill="steelblue" /><circle cx="589" cy="295.49838811647896" r="3" fill="steelblue" /><circle cx="532" cy="295.2755553738789" r="3" fill="steelblue" /><circle cx="553" cy="261.66818519122955" r="3" fill="steelblue" /><circle cx="538" cy="283.88274514443657" r="3" fill="steelblue" /><circle cx="568" cy="227.53209061067577" r="3" fill="steelblue" /><circle cx="550" cy="237.05521755863154" r="3" fill="steelblue" /><circle cx="598" cy="309.8131723318124" r="3" fill="steelblue" /><circle cx="574" cy="275.70672044967506" r="3" fill="steelblue" /><circle cx="535" cy="307.7686103510879" r="3" fill="steelblue" /><circle cx="562" cy="303.8339724601161" r="3" fill="steelblue" /><circle cx="556" cy="279.56938345655124" r="3" fill="steelblue" /><circle cx="556" cy="243.00322081424576" r="3" fill="steelblue" /><circle cx="610" cy="311.99080170184993" r="3" fill="steelblue" /><circle cx="604" cy="310.18322326890654" r="3" fill="steelblue" /><circle cx="538" cy="277.6314222437494" r="3" fill="steelblue" /><circle cx="550" cy="281.18080303334114" r="3" fill="steelblue" /><circle cx="556" cy="212.7564465665473" r="3" fill="steelblue" /><circle cx="571" cy="265.06809338244864" r="3" fill="steelblue" /><circle cx="604" cy="303.59889547409637" r="3" fill="steelblue" /><circle cx="547" cy="293.6582531764649" r="3" fill="steelblue" /><circle cx="559" cy="297.8529231485257" r="3" fill="steelblue" /><circle cx="550" cy="213.16299478710908" r="3" fill="steelblue" /><circle cx="574" cy="241.0256697331174" r="3" fill="steelblue" /><circle cx="598" cy="302.8095228702955" r="3" fill="steelblue" /><circle cx="535" cy="248.28190888421457" r="3" fill="steelblue" /><circle cx="556" cy="303.4152781450954" r="3" fill="steelblue" /><circle cx="553" cy="309.0054710671611" r="3" fill="steelblue" /><circle cx="616" cy="305.2289558829923" r="3" fill="steelblue" /><circle cx="562" cy="233.65769417921547" r="3" fill="steelblue" /><circle cx="577" cy="293.70636367888744" r="3" fill="steelblue" /><circle cx="559" cy="315.9923469860465" r="3" fill="steelblue" /><circle cx="541" cy="246.718925028394" r="3" fill="steelblue" /><circle cx="544" cy="241.17585380914332" r="3" fill="steelblue" /><circle cx="532" cy="302.0617228524625" r="3" fill="steelblue" /><circle cx="568" cy="286.4897734319203" r="3" fill="steelblue" /><circle cx="547" cy="304.87410777052776" r="3" fill="steelblue" /><circle cx="538" cy="294.46124809798084" r="3" fill="steelblue" /><circle cx="565" cy="165.69096643435608" r="3" fill="steelblue" /><circle cx="574" cy="299.34587976557395" r="3" fill="steelblue" /><circle cx="553" cy="173.5264043057981" r="3" fill="steelblue" /><circle cx="580" cy="283.7401694584358" r="3" fill="steelblue" /><circle cx="550" cy="244.83573380459902" r="3" fill="steelblue" /><circle cx="529" cy="287.07129571191325" r="3" fill="steelblue" /><circle cx="565" cy="203.54911488035918" r="3" fill="steelblue" /><circle cx="592" cy="288.4858784885141" r="3" fill="steelblue" /><circle cx="565" cy="316.1682103411755" r="3" fill="steelblue" /><circle cx="553" cy="269.5308905046112" r="3" fill="steelblue" /><circle cx="502" cy="305.6599907251115" r="3" fill="steelblue" /><circle cx="592" cy="282.2394063811872" r="3" fill="steelblue" /><circle cx="559" cy="130.38510589294162" r="3" fill="steelblue" /><circle cx="586" cy="307.9972267204603" r="3" fill="steelblue" /><circle cx="574" cy="305.41870051224964" r="3" fill="steelblue" /><circle cx="565" cy="292.0790528483843" r="3" fill="steelblue" /><circle cx="580" cy="300.14953766579686" r="3" fill="steelblue" /><circle cx="553" cy="254.9869864978896" r="3" fill="steelblue" /><circle cx="517" cy="309.86394560283355" r="3" fill="steelblue" /><circle cx="562" cy="284.6499985672249" r="3" fill="steelblue" /><circle cx="553" cy="203.59852406364496" r="3" fill="steelblue" /><circle cx="544" cy="283.4278877579579" r="3" fill="steelblue" /><circle cx="586" cy="300.96962741326763" r="3" fill="steelblue" /><circle cx="541" cy="306.15291216017715" r="3" fill="steelblue" /><circle cx="577" cy="313.19724267052516" r="3" fill="steelblue" /><circle cx="550" cy="230.48181190679094" r="3" fill="steelblue" /><circle cx="559" cy="179.310740601619" r="3" fill="steelblue" /><circle cx="547" cy="266.7874161981945" r="3" fill="steelblue" /><circle cx="601" cy="296.70677538336855" r="3" fill="steelblue" /><circle cx="565" cy="267.48692371510333" r="3" fill="steelblue" /><circle cx="547" cy="257.7090810064931" r="3" fill="steelblue" /><circle cx="514" cy="300.65342211692393" r="3" fill="steelblue" /><circle cx="568" cy="255.25315001830018" r="3" fill="steelblue" /><circle cx="529" cy="316.7311495467592" r="3" fill="steelblue" /><circle cx="595" cy="316.7780599011307" r="3" fill="steelblue" /><circle cx="565" cy="133.40566028743308" r="3" fill="steelblue" /><circle cx="562" cy="278.39451055027257" r="3" fill="steelblue" /><circle cx="595" cy="296.46496713374916" r="3" fill="steelblue" /><circle cx="532" cy="281.3371779464575" r="3" fill="steelblue" /><circle cx="529" cy="308.37910707523565" r="3" fill="steelblue" /><circle cx="568" cy="236.87316608328953" r="3" fill="steelblue" /></svg>