<svg xmlns="http://www.w3.org/2000/svg" width="673" height="541" fill="black"><rect width="100%" height="100%" fill="white" /><line x1="59" y1="492" x2="659" y2="492" stroke="black" stroke-width="1" /><line x1="59" y1="42" x2="59" y2="492" stroke="black" stroke-width="1" /><line x1="125.66666666666666" y1="42" x2="125.66666666666666" y2="492" stroke="#ccc" stroke-width="1" /><line x1="192.33333333333331" y1="42" x2="192.33333333333331" y2="492" stroke="#ccc" stroke-width="1" /><line x1="259" y1="42" x2="259" y2="492" stroke="#ccc" stroke-width="1" /><line x1="325.66666666666663" y1="42" x2="325.66666666666663" y2="492" stroke="#ccc" stroke-width="1" /><line x1="392.33333333333337" y1="42" x2="392.33333333333337" y2="492" stroke="#ccc" stroke-width="1" /><line x1="459" y1="42" x2="459" y2="492" stroke="#ccc" stroke-width="1" /><line x1="525.6666666666667" y1="42" x2="525.6666666666667" y2="492" stroke="#ccc" stroke-width="1" /><line x1="592.3333333333333" y1="42" x2="592.3333333333333" y2="492" stroke="#ccc" stroke-width="1" /><line x1="659" y1="42" x2="659" y2="492" stroke="#ccc" stroke-width="1" /><line x1="59" y1="435.75" x2="659" y2="435.75" stroke="#ccc" stroke-width="1" /><line x1="59" y1="379.5" x2="659" y2="379.5" stroke="#ccc" stroke-width="1" /><line x1="59" y1="323.25" x2="659" y2="323.25" stroke="#ccc" stroke-width="1" /><line x1="59" y1="267" x2="659" y2="267" stroke="#ccc" stroke-width="1" /><line x1="59" y1="210.75" x2="659" y2="210.75" stroke="#ccc" stroke-width="1" /><line x1="59" y1="154.5" x2="659" y2="154.5" stroke="#ccc" stroke-width="1" /><line x1="59" y1="98.25" x2="659" y2="98.25" stroke="#ccc" stroke-width="1" /><line x1="59" y1="42" x2="659" y2="42" stroke="#ccc" stroke-width="1" /><line x1="59" y1="492" x2="59" y2="497" stroke="black" stroke-width="1" /><text x="59" y="507" font-size="10" text-anchor="middle">0</text><line x1="125.66666666666666" y1="492" x2="125.66666666666666" y2="497" stroke="black" stroke-width="1" /><text x="125.66666666666666" y="507" font-size="10" text-anchor="middle">10</text><line x1="192.33333333333331" y1="492" x2="192.33333333333331" y2="497" stroke="black" stroke-width="1" /><text x="192.33333333333331" y="507" font-size="10" text-anchor="middle">20</text><line x1="259" y1="492" x2="259" y2="497" stroke="black" stroke-width="1" /><text x="259" y="507" font-size="10" text-anchor="middle">30</text><line x1="325.66666666666663" y1="492" x2="325.66666666666663" y2="497" stroke="black" stroke-width="1" /><text x="325.66666666666663" y="507" font-size="10" text-anchor="middle">40</text><line x1="392.33333333333337" y1="492" x2="392.33333333333337" y2="497" stroke="black" stroke-width="1" /><text x="392.33333333333337" y="507" font-size="10" text-anchor="middle">50</text><line x1="459" y1="492" x2="459" y2="497" stroke="black" stroke-width="1" /><text x="459" y="507" font-size="10" text-anchor="middle">60</text><line x1="525.6666666666667" y1="492" x2="525.6666666666667" y2="497" stroke="black" stroke-width="1" /><text x="525.6666666666667" y="507" font-size="10" text-anchor="middle">70</text><line x1="592.3333333333333" y1="492" x2="592.3333333333333" y2="497" stroke="black" stroke-width="1" /><text x="592.3333333333333" y="507" font-size="10" text-anchor="middle">80</text><line x1="659" y1="492" x2="659" y2="497" stroke="black" stroke-width="1" /><text x="659" y="507" font-size="10" text-anchor="middle">90</text><line x1="54" y1="492" x2="59" y2="492" stroke="black" stroke-width="1" /><text x="51" y="495.5" font-size="10" text-anchor="end">-2</text><line x1="54" y1="435.75" x2="59" y2="435.75" stroke="black" stroke-width="1" /><text x="51" y="439.25" font-size="10" text-anchor="end">-1.5</text><line x1="54" y1="379.5" x2="59" y2="379.5" stroke="black" stroke-width="1" /><text x="51" y="383" font-size="10" text-anchor="end">-1</text><line x1="54" y1="323.25" x2="59" y2="323.25" stroke="black" stroke-width="1" /><text x="51" y="326.75" font-size="10" text-anchor="end">-0.5</text><line x1="54" y1="267" x2="59" y2="267" stroke="black" stroke-width="1" /><text x="51" y="270.5" font-size="10" text-anchor="end">0</text><line x1="54" y1="210.75" x2="59" y2="210.75" stroke="black" stroke-width="1" /><text x="51" y="214.25" font-size="10" text-anchor="end">0.5</text><line x1="54" y1="154.5" x2="59" y2="154.5" stroke="black" stroke-width="1" /><text x="51" y="158" font-size="10" text-anchor="end">1</text><line x1="54" y1="98.25" x2="59" y2="98.25" stroke="black" stroke-width="1" /><text x="51" y="101.75" font-size="10" text-anchor="end">1.5</text><line x1="54" y1="42" x2="59" y2="42" stroke="black" stroke-width="1" /><text x="51" y="45.5" font-size="10" text-anchor="end">2</text><text x="336.5" y="534" font-size="14" text-anchor="middle">Sample</text><text x="14" y="270.5" font-size="14" text-anchor="middle" transform="rotate(-90,14,270.5)">Amplitude</text><text x="336.5" y="21" font-size="16" text-anchor="middle">Series Plot — Line Style</text><path d="M 59 267 L 65.66666666666667 258.17335173061747 L 72.33333333333333 249.40112268297403 L 79 240.73739656621063 L 85.66666666666667 232.2355881328184 L 92.33333333333333 223.9481138589274 L 99 215.92606877930098 L 105.66666666666666 208.21891146945575 L 112.33333333333334 200.87415911709672 L 119 193.93709456285433 L 125.66666666666666 187.4504871165134 L 132.33333333333331 181.45432886999657 L 139 175.9855881328184 L 145.66666666666666 171.07798151016465 L 152.33333333333331 166.7617660288086 L 159 163.06355259248022 L 165.66666666666669 160.00614191679523 L 172.33333333333331 157.6083839552614 L 179 155.885061683047 L 185.66666666666669 154.84679995502307 L 192.33333333333331 154.5 L 199 154.84679995502307 L 205.66666666666666 155.885061683047 L 212.33333333333331 157.6083839552614 L 219 160.00614191679523 L 225.66666666666669 163.06355259248022 L 232.33333333333331 166.7617660288086 L 239 171.07798151016465 L 245.66666666666666 175.9855881328184 L 252.33333333333334 181.45432886999652 L 259 187.4504871165134 L 265.66666666666663 193.93709456285433 L 272.33333333333337 200.87415911709672 L 279 208.21891146945575 L 285.66666666666663 215.92606877930098 L 292.33333333333337 223.94811385892734 L 299 232.2355881328184 L 305.66666666666663 240.73739656621063 L 312.33333333333337 249.401122682974 L 319 258.1733517306174 L 325.66666666666663 267 L 332.3333333333333 275.82664826938253 L 339 284.598877317026 L 345.6666666666667 293.2626034337893 L 352.3333333333333 301.76441186718154 L 359 310.0518861410726 L 365.66666666666663 318.073931220699 L 372.33333333333337 325.78108853054425 L 379 333.12584088290316 L 385.66666666666663 340.0629054371456 L 392.33333333333337 346.5495128834866 L 399 352.5456711300035 L 405.66666666666663 358.0144118671816 L 412.33333333333337 362.9220184898354 L 419 367.2382339711914 L 425.6666666666667 370.9364474075198 L 432.3333333333333 373.99385808320477 L 439 376.3916160447386 L 445.6666666666667 378.114938316953 L 452.3333333333333 379.1532000449769 L 459 379.5 L 465.6666666666667 379.1532000449769 L 472.3333333333333 378.114938316953 L 479 376.3916160447386 L 485.6666666666667 373.99385808320477 L 492.3333333333333 370.9364474075198 L 498.99999999999994 367.2382339711914 L 505.6666666666667 362.9220184898354 L 512.3333333333333 358.0144118671816 L 519 352.5456711300035 L 525.6666666666667 346.5495128834866 L 532.3333333333333 340.0629054371457 L 539 333.1258408829033 L 545.6666666666667 325.7810885305443 L 552.3333333333333 318.073931220699 L 559 310.0518861410727 L 565.6666666666667 301.7644118671816 L 572.3333333333333 293.2626034337893 L 579 284.598877317026 L 585.6666666666666 275.82664826938253 " stroke="steelblue" stroke-width="2" fill="none" /></svg>