<svg xmlns="http://www.w3.org/2000/svg" width="673" height="541" fill="black"><rect width="100%" height="100%" fill="white" /><line x1="59" y1="492" x2="659" y2="492" stroke="black" stroke-width="1" /><line x1="59" y1="42" x2="59" y2="492" stroke="black" stroke-width="1" /><line x1="134" y1="42" x2="134" y2="492" stroke="#ccc" stroke-width="1" /><line x1="209" y1="42" x2="209" y2="492" stroke="#ccc" stroke-width="1" /><line x1="284" y1="42" x2="284" y2="492" stroke="#ccc" stroke-width="1" /><line x1="359" y1="42" x2="359" y2="492" stroke="#ccc" stroke-width="1" /><line x1="434" y1="42" x2="434" y2="492" stroke="#ccc" stroke-width="1" /><line x1="509" y1="42" x2="509" y2="492" stroke="#ccc" stroke-width="1" /><line x1="584" y1="42" x2="584" y2="492" stroke="#ccc" stroke-width="1" /><line x1="659" y1="42" x2="659" y2="492" stroke="#ccc" stroke-width="1" /><line x1="59" y1="407.625" x2="659" y2="407.625" stroke="#ccc" stroke-width="1" /><line x1="59" y1="360.75" x2="659" y2="360.75" stroke="#ccc" stroke-width="1" /><line x1="59" y1="313.875" x2="659" y2="313.875" stroke="#ccc" stroke-width="1" /><line x1="59" y1="267" x2="659" y2="267" stroke="#ccc" stroke-width="1" /><line x1="59" y1="220.125" x2="659" y2="220.125" stroke="#ccc" stroke-width="1" /><line x1="59" y1="173.25000000000006" x2="659" y2="173.25000000000006" stroke="#ccc" stroke-width="1" /><line x1="59" y1="126.375" x2="659" y2="126.375" stroke="#ccc" stroke-width="1" /><line x1="59" y1="79.5" x2="659" y2="79.5" stroke="#ccc" stroke-width="1" /><line x1="59" y1="492" x2="59" y2="497" stroke="black" stroke-width="1" /><text x="59" y="507" font-size="10" text-anchor="middle">0</text><line x1="134" y1="492" x2="134" y2="497" stroke="black" stroke-width="1" /><text x="134" y="507" font-size="10" text-anchor="middle">10</text><line x1="209" y1="492" x2="209" y2="497" stroke="black" stroke-width="1" /><text x="209" y="507" font-size="10" text-anchor="middle">20</text><line x1="284" y1="492" x2="284" y2="497" stroke="black" stroke-width="1" /><text x="284" y="507" font-size="10" text-anchor="middle">30</text><line x1="359" y1="492" x2="359" y2="497" stroke="black" stroke-width="1" /><text x="359" y="507" font-size="10" text-anchor="middle">40</text><line x1="434" y1="492" x2="434" y2="497" stroke="black" stroke-width="1" /><text x="434" y="507" font-size="10" text-anchor="middle">50</text><line x1="509" y1="492" x2="509" y2="497" stroke="black" stroke-width="1" /><text x="509" y="507" font-size="10" text-anchor="middle">60</text><line x1="584" y1="492" x2="584" y2="497" stroke="black" stroke-width="1" /><text x="584" y="507" font-size="10" text-anchor="middle">70</text><line x1="659" y1="492" x2="659" y2="497" stroke="black" stroke-width="1" /><text x="659" y="507" font-size="10" text-anchor="middle">80</text><line x1="54" y1="454.5" x2="59" y2="454.5" stroke="black" stroke-width="1" /><text x="51" y="458" font-size="10" text-anchor="end">-1</text><line x1="54" y1="407.625" x2="59" y2="407.625" stroke="black" stroke-width="1" /><text x="51" y="411.125" font-size="10" text-anchor="end">-0.75</text><line x1="54" y1="360.75" x2="59" y2="360.75" stroke="black" stroke-width="1" /><text x="51" y="364.25" font-size="10" text-anchor="end">-0.5</text><line x1="54" y1="313.875" x2="59" y2="313.875" stroke="black" stroke-width="1" /><text x="51" y="317.375" font-size="10" text-anchor="end">-0.25</text><line x1="54" y1="267" x2="59" y2="267" stroke="black" stroke-width="1" /><text x="51" y="270.5" font-size="10" text-anchor="end">0</text><line x1="54" y1="220.125" x2="59" y2="220.125" stroke="black" stroke-width="1" /><text x="51" y="223.625" font-size="10" text-anchor="end">0.25</text><line x1="54" y1="173.25000000000006" x2="59" y2="173.25000000000006" stroke="black" stroke-width="1" /><text x="51" y="176.75000000000006" font-size="10" text-anchor="end">0.5</text><line x1="54" y1="126.375" x2="59" y2="126.375" stroke="black" stroke-width="1" /><text x="51" y="129.875" font-size="10" text-anchor="end">0.75</text><line x1="54" y1="79.5" x2="59" y2="79.5" stroke="black" stroke-width="1" /><text x="51" y="83" font-size="10" text-anchor="end">1</text><text x="336.5" y="534" font-size="14" text-anchor="middle">Sample</text><text x="14" y="270.5" font-size="14" text-anchor="middle" transform="rotate(-90,14,270.5)">Amplitude</text><text x="336.5" y="21" font-size="16" text-anchor="middle">Series Plot — Line Style</text><path d="M 59 267 L 66.5 252.28891955102907 L 74 237.6685378049567 L 81.5 223.22899427701776 L 89 209.05931355469738 L 96.5 195.24685643154567 L 104 181.876781298835 L 111.5 169.03151911575958 L 119 156.79026519516128 L 126.5 145.2284909380906 L 134 134.4174785275224 L 141.5 124.42388144999427 L 149 115.30931355469733 L 156.5 107.12996918360773 L 164 99.93627671468107 L 171.5 93.77258765413376 L 179 88.67690319465873 L 186.5 84.68063992543563 L 194 81.80843613841171 L 201.5 80.07799992503851 L 209 79.5 L 216.5 80.07799992503851 L 224 81.80843613841171 L 231.5 84.68063992543563 L 239 88.67690319465873 L 246.5 93.77258765413376 L 254 99.93627671468107 L 261.5 107.12996918360773 L 269 115.30931355469733 L 276.5 124.42388144999421 L 284 134.4174785275224 L 291.5 145.22849093809054 L 299 156.79026519516123 L 306.5 169.03151911575958 L 314 181.876781298835 L 321.5 195.24685643154567 L 329 209.05931355469738 L 336.5 223.2289942770177 L 344 237.6685378049567 L 351.5 252.28891955102907 L 359 266.99999999999994 L 366.5 281.71108044897085 L 374 296.3314621950433 L 381.5 310.77100572298224 L 389 324.9406864453025 L 396.5 338.75314356845433 L 404 352.123218701165 L 411.5 364.9684808842404 L 419 377.20973480483866 L 426.5 388.77150906190934 L 434 399.58252147247765 L 441.5 409.57611855000573 L 449 418.6906864453026 L 456.5 426.8700308163923 L 464 434.06372328531893 L 471.5 440.22741234586624 L 479 445.32309680534127 L 486.5 449.3193600745643 L 494 452.1915638615883 L 501.5 453.9220000749615 L 509 454.5 L 516.5 453.9220000749615 L 524 452.1915638615883 L 531.5 449.3193600745643 L 539 445.32309680534127 L 546.5 440.2274123458663 L 554 434.063723285319 L 561.5 426.87003081639233 L 569 418.6906864453026 L 576.5 409.57611855000573 L 584 399.58252147247765 L 591.5 388.77150906190934 L 599 377.2097348048387 L 606.5 364.96848088424053 L 614 352.123218701165 L 621.5 338.75314356845445 L 629 324.9406864453027 L 636.5 310.7710057229822 L 644 296.33146219504334 L 651.5 281.7110804489709 " stroke="steelblue" stroke-width="2" fill="none" /></svg>