<svg xmlns="http://www.w3.org/2000/svg" width="834" height="541" fill="black"><rect width="100%" height="100%" fill="white" /><line x1="59" y1="492" x2="659" y2="492" stroke="black" stroke-width="1" /><line x1="59" y1="42" x2="59" y2="492" stroke="black" stroke-width="1" /><line x1="125.66666666666666" y1="42" x2="125.66666666666666" y2="492" stroke="#ccc" stroke-width="1" /><line x1="192.33333333333331" y1="42" x2="192.33333333333331" y2="492" stroke="#ccc" stroke-width="1" /><line x1="259" y1="42" x2="259" y2="492" stroke="#ccc" stroke-width="1" /><line x1="325.66666666666663" y1="42" x2="325.66666666666663" y2="492" stroke="#ccc" stroke-width="1" /><line x1="392.33333333333337" y1="42" x2="392.33333333333337" y2="492" stroke="#ccc" stroke-width="1" /><line x1="459" y1="42" x2="459" y2="492" stroke="#ccc" stroke-width="1" /><line x1="525.6666666666667" y1="42" x2="525.6666666666667" y2="492" stroke="#ccc" stroke-width="1" /><line x1="592.3333333333333" y1="42" x2="592.3333333333333" y2="492" stroke="#ccc" stroke-width="1" /><line x1="659" y1="42" x2="659" y2="492" stroke="#ccc" stroke-width="1" /><line x1="59" y1="435.75" x2="659" y2="435.75" stroke="#ccc" stroke-width="1" /><line x1="59" y1="379.5" x2="659" y2="379.5" stroke="#ccc" stroke-width="1" /><line x1="59" y1="323.25" x2="659" y2="323.25" stroke="#ccc" stroke-width="1" /><line x1="59" y1="267" x2="659" y2="267" stroke="#ccc" stroke-width="1" /><line x1="59" y1="210.75" x2="659" y2="210.75" stroke="#ccc" stroke-width="1" /><line x1="59" y1="154.5" x2="659" y2="154.5" stroke="#ccc" stroke-width="1" /><line x1="59" y1="98.25" x2="659" y2="98.25" stroke="#ccc" stroke-width="1" /><line x1="59" y1="42" x2="659" y2="42" stroke="#ccc" stroke-width="1" /><line x1="59" y1="492" x2="59" y2="497" stroke="black" stroke-width="1" /><text x="59" y="507" font-size="10" text-anchor="middle">0</text><line x1="125.66666666666666" y1="492" x2="125.66666666666666" y2="497" stroke="black" stroke-width="1" /><text x="125.66666666666666" y="507" font-size="10" text-anchor="middle">10</text><line x1="192.33333333333331" y1="492" x2="192.33333333333331" y2="497" stroke="black" stroke-width="1" /><text x="192.33333333333331" y="507" font-size="10" text-anchor="middle">20</text><line x1="259" y1="492" x2="259" y2="497" stroke="black" stroke-width="1" /><text x="259" y="507" font-size="10" text-anchor="middle">30</text><line x1="325.66666666666663" y1="492" x2="325.66666666666663" y2="497" stroke="black" stroke-width="1" /><text x="325.66666666666663" y="507" font-size="10" text-anchor="middle">40</text><line x1="392.33333333333337" y1="492" x2="392.33333333333337" y2="497" stroke="black" stroke-width="1" /><text x="392.33333333333337" y="507" font-size="10" text-anchor="middle">50</text><line x1="459" y1="492" x2="459" y2="497" stroke="black" stroke-width="1" /><text x="459" y="507" font-size="10" text-anchor="middle">60</text><line x1="525.6666666666667" y1="492" x2="525.6666666666667" y2="497" stroke="black" stroke-width="1" /><text x="525.6666666666667" y="507" font-size="10" text-anchor="middle">70</text><line x1="592.3333333333333" y1="492" x2="592.3333333333333" y2="497" stroke="black" stroke-width="1" /><text x="592.3333333333333" y="507" font-size="10" text-anchor="middle">80</text><line x1="659" y1="492" x2="659" y2="497" stroke="black" stroke-width="1" /><text x="659" y="507" font-size="10" text-anchor="middle">90</text><line x1="54" y1="492" x2="59" y2="492" stroke="black" stroke-width="1" /><text x="51" y="495.5" font-size="10" text-anchor="end">-2</text><line x1="54" y1="435.75" x2="59" y2="435.75" stroke="black" stroke-width="1" /><text x="51" y="439.25" font-size="10" text-anchor="end">-1.5</text><line x1="54" y1="379.5" x2="59" y2="379.5" stroke="black" stroke-width="1" /><text x="51" y="383" font-size="10" text-anchor="end">-1</text><line x1="54" y1="323.25" x2="59" y2="323.25" stroke="black" stroke-width="1" /><text x="51" y="326.75" font-size="10" text-anchor="end">-0.5</text><line x1="54" y1="267" x2="59" y2="267" stroke="black" stroke-width="1" /><text x="51" y="270.5" font-size="10" text-anchor="end">0</text><line x1="54" y1="210.75" x2="59" y2="210.75" stroke="black" stroke-width="1" /><text x="51" y="214.25" font-size="10" text-anchor="end">0.5</text><line x1="54" y1="154.5" x2="59" y2="154.5" stroke="black" stroke-width="1" /><text x="51" y="158" font-size="10" text-anchor="end">1</text><line x1="54" y1="98.25" x2="59" y2="98.25" stroke="black" stroke-width="1" /><text x="51" y="101.75" font-size="10" text-anchor="end">1.5</text><line x1="54" y1="42" x2="59" y2="42" stroke="black" stroke-width="1" /><text x="51" y="45.5" font-size="10" text-anchor="end">2</text><text x="417" y="534" font-size="14" text-anchor="middle">Sample</text><text x="14" y="270.5" font-size="14" text-anchor="middle" transform="rotate(-90,14,270.5)">Amplitude</text><text x="417" y="21" font-size="16" text-anchor="middle">Multiple Series</text><path d="M 59 267 L 65.66666666666667 258.17335173061747 L 72.33333333333333 249.40112268297403 L 79 240.73739656621063 L 85.66666666666667 232.2355881328184 L 92.33333333333333 223.9481138589274 L 99 215.92606877930098 L 105.66666666666666 208.21891146945575 L 112.33333333333334 200.87415911709672 L 119 193.93709456285433 L 125.66666666666666 187.4504871165134 L 132.33333333333331 181.45432886999657 L 139 175.9855881328184 L 145.66666666666666 171.07798151016465 L 152.33333333333331 166.7617660288086 L 159 163.06355259248022 L 165.66666666666669 160.00614191679523 L 172.33333333333331 157.6083839552614 L 179 155.885061683047 L 185.66666666666669 154.84679995502307 L 192.33333333333331 154.5 L 199 154.84679995502307 L 205.66666666666666 155.885061683047 L 212.33333333333331 157.6083839552614 L 219 160.00614191679523 L 225.66666666666669 163.06355259248022 L 232.33333333333331 166.7617660288086 L 239 171.07798151016465 L 245.66666666666666 175.9855881328184 L 252.33333333333334 181.45432886999652 L 259 187.4504871165134 L 265.66666666666663 193.93709456285433 L 272.33333333333337 200.87415911709672 L 279 208.21891146945575 L 285.66666666666663 215.92606877930098 L 292.33333333333337 223.94811385892734 L 299 232.2355881328184 L 305.66666666666663 240.73739656621063 L 312.33333333333337 249.401122682974 L 319 258.1733517306174 L 325.66666666666663 267 L 332.3333333333333 275.82664826938253 L 339 284.598877317026 L 345.6666666666667 293.2626034337893 L 352.3333333333333 301.76441186718154 L 359 310.0518861410726 L 365.66666666666663 318.073931220699 L 372.33333333333337 325.78108853054425 L 379 333.12584088290316 L 385.66666666666663 340.0629054371456 L 392.33333333333337 346.5495128834866 L 399 352.5456711300035 L 405.66666666666663 358.0144118671816 L 412.33333333333337 362.9220184898354 L 419 367.2382339711914 L 425.6666666666667 370.9364474075198 L 432.3333333333333 373.99385808320477 L 439 376.3916160447386 L 445.6666666666667 378.114938316953 L 452.3333333333333 379.1532000449769 L 459 379.5 L 465.6666666666667 379.1532000449769 L 472.3333333333333 378.114938316953 L 479 376.3916160447386 L 485.6666666666667 373.99385808320477 L 492.3333333333333 370.9364474075198 L 498.99999999999994 367.2382339711914 L 505.6666666666667 362.9220184898354 L 512.3333333333333 358.0144118671816 L 519 352.5456711300035 L 525.6666666666667 346.5495128834866 L 532.3333333333333 340.0629054371457 L 539 333.1258408829033 L 545.6666666666667 325.7810885305443 L 552.3333333333333 318.073931220699 L 559 310.0518861410727 L 565.6666666666667 301.7644118671816 L 572.3333333333333 293.2626034337893 L 579 284.598877317026 L 585.6666666666666 275.82664826938253 " stroke="steelblue" stroke-width="2" fill="none" /><path d="M 59 154.5 L 65.66666666666667 154.84679995502307 L 72.33333333333333 155.885061683047 L 79 157.6083839552614 L 85.66666666666667 160.00614191679523 L 92.33333333333333 163.06355259248022 L 99 166.7617660288086 L 105.66666666666666 171.07798151016465 L 112.33333333333334 175.9855881328184 L 119 181.45432886999652 L 125.66666666666666 187.4504871165134 L 132.33333333333331 193.93709456285433 L 139 200.87415911709672 L 145.66666666666666 208.21891146945575 L 152.33333333333331 215.92606877930098 L 159 223.9481138589274 L 165.66666666666669 232.2355881328184 L 172.33333333333331 240.73739656621063 L 179 249.40112268297403 L 185.66666666666669 258.17335173061747 L 192.33333333333331 267 L 199 275.82664826938253 L 205.66666666666666 284.59887731702594 L 212.33333333333331 293.2626034337893 L 219 301.7644118671816 L 225.66666666666669 310.0518861410726 L 232.33333333333331 318.073931220699 L 239 325.78108853054425 L 245.66666666666666 333.12584088290316 L 252.33333333333334 340.0629054371457 L 259 346.5495128834866 L 265.66666666666663 352.5456711300035 L 272.33333333333337 358.0144118671816 L 279 362.9220184898354 L 285.66666666666663 367.2382339711914 L 292.33333333333337 370.9364474075198 L 299 373.99385808320477 L 305.66666666666663 376.3916160447386 L 312.33333333333337 378.114938316953 L 319 379.1532000449769 L 325.66666666666663 379.5 L 332.3333333333333 379.1532000449769 L 339 378.114938316953 L 345.6666666666667 376.3916160447386 L 352.3333333333333 373.99385808320477 L 359 370.9364474075198 L 365.66666666666663 367.2382339711914 L 372.33333333333337 362.9220184898354 L 379 358.0144118671816 L 385.66666666666663 352.54567113000354 L 392.33333333333337 346.5495128834866 L 399 340.0629054371457 L 405.66666666666663 333.1258408829033 L 412.33333333333337 325.78108853054425 L 419 318.073931220699 L 425.6666666666667 310.0518861410726 L 432.3333333333333 301.7644118671816 L 439 293.2626034337894 L 445.6666666666667 284.598877317026 L 452.3333333333333 275.82664826938264 L 459 267 L 465.6666666666667 258.1733517306174 L 472.3333333333333 249.40112268297403 L 479 240.73739656621063 L 485.6666666666667 232.2355881328184 L 492.3333333333333 223.94811385892746 L 498.99999999999994 215.92606877930098 L 505.6666666666667 208.2189114694558 L 512.3333333333333 200.87415911709678 L 519 193.93709456285433 L 525.6666666666667 187.4504871165134 L 532.3333333333333 181.45432886999652 L 539 175.9855881328184 L 545.6666666666667 171.0779815101647 L 552.3333333333333 166.7617660288086 L 559 163.06355259248028 L 565.6666666666667 160.00614191679523 L 572.3333333333333 157.6083839552614 L 579 155.885061683047 L 585.6666666666666 154.84679995502307 " stroke="firebrick" stroke-width="2" fill="none" /><path d="M 59 267 L 65.66666666666667 258.5132557183123 L 72.33333333333333 250.7304494747746 L 79 243.6560866450008 L 85.66666666666667 237.28908212891676 L 92.33333333333333 231.6231906674479 L 99 226.6474428964754 L 105.66666666666666 222.3465834731689 L 112.33333333333334 218.7015078712729 L 119 215.68969470886822 L 125.66666666666666 213.28563074214503 L 132.33333333333331 211.4612259295995 L 139 210.18621624070346 L 145.66666666666666 209.42855214961537 L 152.33333333333331 209.15477101614186 L 159 209.33035181136626 L 165.66666666666669 209.92005089271868 L 172.33333333333331 210.88821777153663 L 179 212.1990900442753 L 185.66666666666669 213.81706687554595 L 192.33333333333331 215.70696062632544 L 199 217.8342264133579 L 205.66666666666666 220.1651695654828 L 212.33333333333331 222.66713110901168 L 219 225.308651567122 L 225.66666666666669 228.05961349742097 L 232.33333333333331 230.8913633173634 L 239 233.77681307918033 L 245.66666666666666 236.69052295459016 L 252.33333333333334 239.60876527509174 L 259 242.5095710464422 L 265.66666666666663 245.37275991641508 L 272.33333333333337 248.17995462360597 L 279 250.91458099242666 L 285.66666666666663 253.56185456609114 L 292.33333333333337 256.1087549859494 L 299 258.5439892326167 L 305.66666666666663 260.8579448426341 L 312.33333333333337 263.0426342045594 L 319 265.09163102111575 L 325.66666666666663 267 L 332.3333333333333 268.7642208058745 L 339 270.3821072706012 L 345.6666666666667 271.85272281860614 L 352.3333333333333 273.1762930200331 L 359 274.3541161366926 L 365.66666666666663 275.3884724753506 L 372.33333333333337 276.28253331021176 L 379 277.0402700821004 L 385.66666666666663 277.66636452634873 L 392.33333333333337 278.1661203252713 L 399 278.54537682479554 L 405.66666666666663 278.81042529876635 L 412.33333333333337 278.96792818903793 L 419 279.02484169507727 L 425.6666666666667 278.98834203375065 L 432.3333333333333 278.86575563854467 L 439 278.66449351793915 L 445.6666666666667 278.3919899452323 L 452.3333333333333 278.0556456070024 L 459 277.6627752947424 L 465.6666666666667 277.22056018414867 L 472.3333333333333 276.7360047091872 L 479 276.2158980034725 L 485.6666666666667 275.6667798497187 L 492.3333333333333 275.094911049091 L 498.99999999999994 274.5062480961901 L 505.6666666666667 273.9064220221222 L 512.3333333333333 273.30072124761296 L 519 272.6940782703382 L 525.6666666666667 272.091059995514 L 532.3333333333333 271.49586150621184 L 539 270.91230305974693 L 545.6666666666667 270.34383008871885 L 552.3333333333333 269.7935159797409 L 559 269.2640673994532 L 565.6666666666667 268.7578319359411 L 572.3333333333333 268.27680782403627 L 579 267.8226555250212 L 585.6666666666666 267.3967109348514 " stroke="seagreen" stroke-width="1.5" fill="none" /><rect x="664" y="32" width="161" height="74" fill="white" /><rect x="664" y="32" width="161" height="74" fill="none" stroke="black" stroke-width="1" /><text x="694" y="47" font-size="12" text-anchor="start">sin(t)</text><circle cx="680" cy="43" r="5" fill="steelblue" /><text x="694" y="65" font-size="12" text-anchor="start">cos(t)</text><circle cx="680" cy="61" r="5" fill="firebrick" /><text x="694" y="83" font-size="12" text-anchor="start">e^(−t/2)·sin(t)</text><circle cx="680" cy="79" r="5" fill="seagreen" /></svg>