<svg xmlns="http://www.w3.org/2000/svg" width="834" height="541" fill="black"><rect width="100%" height="100%" fill="white" /><line x1="59" y1="492" x2="659" y2="492" stroke="black" stroke-width="1" /><line x1="59" y1="42" x2="59" y2="492" stroke="black" stroke-width="1" /><line x1="134" y1="42" x2="134" y2="492" stroke="#ccc" stroke-width="1" /><line x1="209" y1="42" x2="209" y2="492" stroke="#ccc" stroke-width="1" /><line x1="284" y1="42" x2="284" y2="492" stroke="#ccc" stroke-width="1" /><line x1="359" y1="42" x2="359" y2="492" stroke="#ccc" stroke-width="1" /><line x1="434" y1="42" x2="434" y2="492" stroke="#ccc" stroke-width="1" /><line x1="509" y1="42" x2="509" y2="492" stroke="#ccc" stroke-width="1" /><line x1="584" y1="42" x2="584" y2="492" stroke="#ccc" stroke-width="1" /><line x1="659" y1="42" x2="659" y2="492" stroke="#ccc" stroke-width="1" /><line x1="59" y1="407.625" x2="659" y2="407.625" stroke="#ccc" stroke-width="1" /><line x1="59" y1="360.75" x2="659" y2="360.75" stroke="#ccc" stroke-width="1" /><line x1="59" y1="313.875" x2="659" y2="313.875" stroke="#ccc" stroke-width="1" /><line x1="59" y1="267" x2="659" y2="267" stroke="#ccc" stroke-width="1" /><line x1="59" y1="220.125" x2="659" y2="220.125" stroke="#ccc" stroke-width="1" /><line x1="59" y1="173.25000000000006" x2="659" y2="173.25000000000006" stroke="#ccc" stroke-width="1" /><line x1="59" y1="126.375" x2="659" y2="126.375" stroke="#ccc" stroke-width="1" /><line x1="59" y1="79.5" x2="659" y2="79.5" stroke="#ccc" stroke-width="1" /><line x1="59" y1="492" x2="59" y2="497" stroke="black" stroke-width="1" /><text x="59" y="507" font-size="10" text-anchor="middle">0</text><line x1="134" y1="492" x2="134" y2="497" stroke="black" stroke-width="1" /><text x="134" y="507" font-size="10" text-anchor="middle">10</text><line x1="209" y1="492" x2="209" y2="497" stroke="black" stroke-width="1" /><text x="209" y="507" font-size="10" text-anchor="middle">20</text><line x1="284" y1="492" x2="284" y2="497" stroke="black" stroke-width="1" /><text x="284" y="507" font-size="10" text-anchor="middle">30</text><line x1="359" y1="492" x2="359" y2="497" stroke="black" stroke-width="1" /><text x="359" y="507" font-size="10" text-anchor="middle">40</text><line x1="434" y1="492" x2="434" y2="497" stroke="black" stroke-width="1" /><text x="434" y="507" font-size="10" text-anchor="middle">50</text><line x1="509" y1="492" x2="509" y2="497" stroke="black" stroke-width="1" /><text x="509" y="507" font-size="10" text-anchor="middle">60</text><line x1="584" y1="492" x2="584" y2="497" stroke="black" stroke-width="1" /><text x="584" y="507" font-size="10" text-anchor="middle">70</text><line x1="659" y1="492" x2="659" y2="497" stroke="black" stroke-width="1" /><text x="659" y="507" font-size="10" text-anchor="middle">80</text><line x1="54" y1="454.5" x2="59" y2="454.5" stroke="black" stroke-width="1" /><text x="51" y="458" font-size="10" text-anchor="end">-1</text><line x1="54" y1="407.625" x2="59" y2="407.625" stroke="black" stroke-width="1" /><text x="51" y="411.125" font-size="10" text-anchor="end">-0.75</text><line x1="54" y1="360.75" x2="59" y2="360.75" stroke="black" stroke-width="1" /><text x="51" y="364.25" font-size="10" text-anchor="end">-0.5</text><line x1="54" y1="313.875" x2="59" y2="313.875" stroke="black" stroke-width="1" /><text x="51" y="317.375" font-size="10" text-anchor="end">-0.25</text><line x1="54" y1="267" x2="59" y2="267" stroke="black" stroke-width="1" /><text x="51" y="270.5" font-size="10" text-anchor="end">0</text><line x1="54" y1="220.125" x2="59" y2="220.125" stroke="black" stroke-width="1" /><text x="51" y="223.625" font-size="10" text-anchor="end">0.25</text><line x1="54" y1="173.25000000000006" x2="59" y2="173.25000000000006" stroke="black" stroke-width="1" /><text x="51" y="176.75000000000006" font-size="10" text-anchor="end">0.5</text><line x1="54" y1="126.375" x2="59" y2="126.375" stroke="black" stroke-width="1" /><text x="51" y="129.875" font-size="10" text-anchor="end">0.75</text><line x1="54" y1="79.5" x2="59" y2="79.5" stroke="black" stroke-width="1" /><text x="51" y="83" font-size="10" text-anchor="end">1</text><text x="417" y="534" font-size="14" text-anchor="middle">Sample</text><text x="14" y="270.5" font-size="14" text-anchor="middle" transform="rotate(-90,14,270.5)">Amplitude</text><text x="417" y="21" font-size="16" text-anchor="middle">Multiple Series</text><path d="M 59 267 L 66.5 252.28891955102907 L 74 237.6685378049567 L 81.5 223.22899427701776 L 89 209.05931355469738 L 96.5 195.24685643154567 L 104 181.876781298835 L 111.5 169.03151911575958 L 119 156.79026519516128 L 126.5 145.2284909380906 L 134 134.4174785275224 L 141.5 124.42388144999427 L 149 115.30931355469733 L 156.5 107.12996918360773 L 164 99.93627671468107 L 171.5 93.77258765413376 L 179 88.67690319465873 L 186.5 84.68063992543563 L 194 81.80843613841171 L 201.5 80.07799992503851 L 209 79.5 L 216.5 80.07799992503851 L 224 81.80843613841171 L 231.5 84.68063992543563 L 239 88.67690319465873 L 246.5 93.77258765413376 L 254 99.93627671468107 L 261.5 107.12996918360773 L 269 115.30931355469733 L 276.5 124.42388144999421 L 284 134.4174785275224 L 291.5 145.22849093809054 L 299 156.79026519516123 L 306.5 169.03151911575958 L 314 181.876781298835 L 321.5 195.24685643154567 L 329 209.05931355469738 L 336.5 223.2289942770177 L 344 237.6685378049567 L 351.5 252.28891955102907 L 359 266.99999999999994 L 366.5 281.71108044897085 L 374 296.3314621950433 L 381.5 310.77100572298224 L 389 324.9406864453025 L 396.5 338.75314356845433 L 404 352.123218701165 L 411.5 364.9684808842404 L 419 377.20973480483866 L 426.5 388.77150906190934 L 434 399.58252147247765 L 441.5 409.57611855000573 L 449 418.6906864453026 L 456.5 426.8700308163923 L 464 434.06372328531893 L 471.5 440.22741234586624 L 479 445.32309680534127 L 486.5 449.3193600745643 L 494 452.1915638615883 L 501.5 453.9220000749615 L 509 454.5 L 516.5 453.9220000749615 L 524 452.1915638615883 L 531.5 449.3193600745643 L 539 445.32309680534127 L 546.5 440.2274123458663 L 554 434.063723285319 L 561.5 426.87003081639233 L 569 418.6906864453026 L 576.5 409.57611855000573 L 584 399.58252147247765 L 591.5 388.77150906190934 L 599 377.2097348048387 L 606.5 364.96848088424053 L 614 352.123218701165 L 621.5 338.75314356845445 L 629 324.9406864453027 L 636.5 310.7710057229822 L 644 296.33146219504334 L 651.5 281.7110804489709 " stroke="steelblue" stroke-width="2" fill="none" /><path d="M 59 79.5 L 66.5 80.07799992503851 L 74 81.80843613841171 L 81.5 84.68063992543563 L 89 88.67690319465873 L 96.5 93.77258765413376 L 104 99.93627671468107 L 111.5 107.12996918360773 L 119 115.30931355469733 L 126.5 124.42388144999421 L 134 134.4174785275224 L 141.5 145.22849093809054 L 149 156.79026519516128 L 156.5 169.03151911575958 L 164 181.876781298835 L 171.5 195.24685643154567 L 179 209.05931355469738 L 186.5 223.2289942770177 L 194 237.6685378049567 L 201.5 252.28891955102907 L 209 267 L 216.5 281.7110804489709 L 224 296.33146219504323 L 231.5 310.77100572298224 L 239 324.9406864453026 L 246.5 338.75314356845433 L 254 352.123218701165 L 261.5 364.96848088424036 L 269 377.20973480483866 L 276.5 388.7715090619094 L 284 399.58252147247765 L 291.5 409.5761185500058 L 299 418.6906864453026 L 306.5 426.8700308163923 L 314 434.06372328531893 L 321.5 440.22741234586624 L 329 445.32309680534127 L 336.5 449.3193600745643 L 344 452.1915638615883 L 351.5 453.9220000749615 L 359 454.5 L 366.5 453.9220000749615 L 374 452.1915638615883 L 381.5 449.3193600745644 L 389 445.3230968053413 L 396.5 440.22741234586624 L 404 434.06372328531893 L 411.5 426.8700308163923 L 419 418.6906864453026 L 426.5 409.57611855000584 L 434 399.58252147247765 L 441.5 388.7715090619095 L 449 377.2097348048387 L 456.5 364.96848088424036 L 464 352.123218701165 L 471.5 338.7531435684543 L 479 324.9406864453026 L 486.5 310.7710057229824 L 494 296.3314621950433 L 501.5 281.7110804489711 L 509 267.00000000000006 L 516.5 252.288919551029 L 524 237.66853780495674 L 531.5 223.2289942770177 L 539 209.05931355469744 L 546.5 195.24685643154578 L 554 181.876781298835 L 561.5 169.0315191157597 L 569 156.79026519516134 L 576.5 145.22849093809054 L 584 134.4174785275224 L 591.5 124.42388144999421 L 599 115.30931355469733 L 606.5 107.12996918360784 L 614 99.93627671468107 L 621.5 93.77258765413382 L 629 88.67690319465873 L 636.5 84.68063992543563 L 644 81.80843613841171 L 651.5 80.07799992503851 " stroke="firebrick" stroke-width="2" fill="none" /><path d="M 59 267 L 66.5 252.85542619718714 L 74 239.88408245795762 L 81.5 228.0934777416681 L 89 217.4818035481946 L 96.5 208.0386511124131 L 104 199.74573816079237 L 111.5 192.57763912194815 L 119 186.50251311878822 L 126.5 181.48282451478036 L 134 177.4760512369084 L 141.5 174.43537654933255 L 149 172.31036040117243 L 156.5 171.04758691602564 L 164 170.5912850269031 L 171.5 170.88391968561046 L 179 171.86675148786446 L 186.5 173.48036295256105 L 194 175.66515007379218 L 201.5 178.36177812590995 L 209 181.51160104387571 L 216.5 185.05704402226326 L 224 188.94194927580475 L 231.5 193.11188518168615 L 239 197.51441927853665 L 246.5 202.09935582903495 L 254 206.81893886227232 L 261.5 211.62802179863388 L 269 216.48420492431688 L 276.5 221.347942125153 L 284 226.182618410737 L 291.5 230.95459986069187 L 299 235.63325770600994 L 306.5 240.19096832071108 L 314 244.6030909434852 L 321.5 248.8479249765823 L 329 252.9066487210279 L 336.5 256.76324140439016 L 344 260.4043903409324 L 351.5 263.81938503519297 L 359 267 L 366.5 269.9403680097908 L 374 272.63684545100193 L 381.5 275.0878713643435 L 389 277.2938217000551 L 396.5 279.25686022782105 L 404 280.9807874589177 L 411.5 282.47088885035294 L 419 283.7337834701673 L 426.5 284.77727421058125 L 434 285.61020054211883 L 441.5 286.2422947079925 L 449 286.6840421646106 L 456.5 286.9465469817299 L 464 287.0414028251288 L 471.5 286.98057005625117 L 479 286.7762593975745 L 486.5 286.44082252989864 L 494 285.9866499087205 L 501.5 285.4260760116707 L 509 284.771292157904 L 516.5 284.03426697358105 L 524 283.22667451531197 L 531.5 282.35983000578756 L 539 281.44463308286447 L 546.5 280.49151841515175 L 554 279.51041349365016 L 561.5 278.5107033702036 L 569 277.5012020793549 L 576.5 276.49013045056364 L 584 275.4850999925234 L 591.5 274.4931025103531 L 599 273.52050509957814 L 606.5 272.57305014786476 L 614 271.65585996623486 L 621.5 270.7734456657553 L 629 269.9297198932352 L 636.5 269.1280130400604 L 644 268.37109254170196 L 651.5 267.661184891419 " stroke="seagreen" stroke-width="1.5" fill="none" /><rect x="664" y="32" width="161" height="74" fill="white" /><rect x="664" y="32" width="161" height="74" fill="none" stroke="black" stroke-width="1" /><text x="694" y="47" font-size="12" text-anchor="start">sin(t)</text><circle cx="680" cy="43" r="5" fill="steelblue" /><text x="694" y="65" font-size="12" text-anchor="start">cos(t)</text><circle cx="680" cy="61" r="5" fill="firebrick" /><text x="694" y="83" font-size="12" text-anchor="start">e^(−t/2)·sin(t)</text><circle cx="680" cy="79" r="5" fill="seagreen" /></svg>