<svg xmlns="http://www.w3.org/2000/svg" width="673" height="541" fill="black"><rect width="100%" height="100%" fill="white" /><line x1="59" y1="492" x2="659" y2="492" stroke="black" stroke-width="1" /><line x1="59" y1="42" x2="59" y2="492" stroke="black" stroke-width="1" /><line x1="109" y1="42" x2="109" y2="492" stroke="#ccc" stroke-width="1" /><line x1="159" y1="42" x2="159" y2="492" stroke="#ccc" stroke-width="1" /><line x1="209" y1="42" x2="209" y2="492" stroke="#ccc" stroke-width="1" /><line x1="259" y1="42" x2="259" y2="492" stroke="#ccc" stroke-width="1" /><line x1="309" y1="42" x2="309" y2="492" stroke="#ccc" stroke-width="1" /><line x1="359" y1="42" x2="359" y2="492" stroke="#ccc" stroke-width="1" /><line x1="409" y1="42" x2="409" y2="492" stroke="#ccc" stroke-width="1" /><line x1="459" y1="42" x2="459" y2="492" stroke="#ccc" stroke-width="1" /><line x1="509" y1="42" x2="509" y2="492" stroke="#ccc" stroke-width="1" /><line x1="559" y1="42" x2="559" y2="492" stroke="#ccc" stroke-width="1" /><line x1="609" y1="42" x2="609" y2="492" stroke="#ccc" stroke-width="1" /><line x1="659" y1="42" x2="659" y2="492" stroke="#ccc" stroke-width="1" /><line x1="59" y1="407.625" x2="659" y2="407.625" stroke="#ccc" stroke-width="1" /><line x1="59" y1="360.75" x2="659" y2="360.75" stroke="#ccc" stroke-width="1" /><line x1="59" y1="313.875" x2="659" y2="313.875" stroke="#ccc" stroke-width="1" /><line x1="59" y1="267" x2="659" y2="267" stroke="#ccc" stroke-width="1" /><line x1="59" y1="220.125" x2="659" y2="220.125" stroke="#ccc" stroke-width="1" /><line x1="59" y1="173.25000000000006" x2="659" y2="173.25000000000006" stroke="#ccc" stroke-width="1" /><line x1="59" y1="126.375" x2="659" y2="126.375" stroke="#ccc" stroke-width="1" /><line x1="59" y1="79.5" x2="659" y2="79.5" stroke="#ccc" stroke-width="1" /><line x1="59" y1="492" x2="59" y2="497" stroke="black" stroke-width="1" /><text x="59" y="507" font-size="10" text-anchor="middle">0</text><line x1="109" y1="492" x2="109" y2="497" stroke="black" stroke-width="1" /><text x="109" y="507" font-size="10" text-anchor="middle">2.5</text><line x1="159" y1="492" x2="159" y2="497" stroke="black" stroke-width="1" /><text x="159" y="507" font-size="10" text-anchor="middle">5</text><line x1="209" y1="492" x2="209" y2="497" stroke="black" stroke-width="1" /><text x="209" y="507" font-size="10" text-anchor="middle">7.5</text><line x1="259" y1="492" x2="259" y2="497" stroke="black" stroke-width="1" /><text x="259" y="507" font-size="10" text-anchor="middle">10</text><line x1="309" y1="492" x2="309" y2="497" stroke="black" stroke-width="1" /><text x="309" y="507" font-size="10" text-anchor="middle">12.5</text><line x1="359" y1="492" x2="359" y2="497" stroke="black" stroke-width="1" /><text x="359" y="507" font-size="10" text-anchor="middle">15</text><line x1="409" y1="492" x2="409" y2="497" stroke="black" stroke-width="1" /><text x="409" y="507" font-size="10" text-anchor="middle">17.5</text><line x1="459" y1="492" x2="459" y2="497" stroke="black" stroke-width="1" /><text x="459" y="507" font-size="10" text-anchor="middle">20</text><line x1="509" y1="492" x2="509" y2="497" stroke="black" stroke-width="1" /><text x="509" y="507" font-size="10" text-anchor="middle">22.5</text><line x1="559" y1="492" x2="559" y2="497" stroke="black" stroke-width="1" /><text x="559" y="507" font-size="10" text-anchor="middle">25</text><line x1="609" y1="492" x2="609" y2="497" stroke="black" stroke-width="1" /><text x="609" y="507" font-size="10" text-anchor="middle">27.5</text><line x1="659" y1="492" x2="659" y2="497" stroke="black" stroke-width="1" /><text x="659" y="507" font-size="10" text-anchor="middle">30</text><line x1="54" y1="454.5" x2="59" y2="454.5" stroke="black" stroke-width="1" /><text x="51" y="458" font-size="10" text-anchor="end">-1</text><line x1="54" y1="407.625" x2="59" y2="407.625" stroke="black" stroke-width="1" /><text x="51" y="411.125" font-size="10" text-anchor="end">-0.75</text><line x1="54" y1="360.75" x2="59" y2="360.75" stroke="black" stroke-width="1" /><text x="51" y="364.25" font-size="10" text-anchor="end">-0.5</text><line x1="54" y1="313.875" x2="59" y2="313.875" stroke="black" stroke-width="1" /><text x="51" y="317.375" font-size="10" text-anchor="end">-0.25</text><line x1="54" y1="267" x2="59" y2="267" stroke="black" stroke-width="1" /><text x="51" y="270.5" font-size="10" text-anchor="end">0</text><line x1="54" y1="220.125" x2="59" y2="220.125" stroke="black" stroke-width="1" /><text x="51" y="223.625" font-size="10" text-anchor="end">0.25</text><line x1="54" y1="173.25000000000006" x2="59" y2="173.25000000000006" stroke="black" stroke-width="1" /><text x="51" y="176.75000000000006" font-size="10" text-anchor="end">0.5</text><line x1="54" y1="126.375" x2="59" y2="126.375" stroke="black" stroke-width="1" /><text x="51" y="129.875" font-size="10" text-anchor="end">0.75</text><line x1="54" y1="79.5" x2="59" y2="79.5" stroke="black" stroke-width="1" /><text x="51" y="83" font-size="10" text-anchor="end">1</text><text x="336.5" y="534" font-size="14" text-anchor="middle">Sample</text><text x="14" y="270.5" font-size="14" text-anchor="middle" transform="rotate(-90,14,270.5)">Amplitude</text><text x="336.5" y="21" font-size="16" text-anchor="middle">SeriesStyle::Both</text><path d="M 59 267 L 79 228.01655797167012 L 99 190.73687942328746 L 119 156.79026519516128 L 139 127.66034522298861 L 159 104.62023679041783 L 179 88.67690319465873 L 199 80.52714461844874 L 219 80.52714461844874 L 239 88.67690319465873 L 259 104.62023679041772 L 279 127.66034522298855 L 299 156.79026519516123 L 319 190.73687942328746 L 339 228.01655797167012 L 359 266.9999999999999 L 379 305.9834420283298 L 399 343.26312057671254 L 419 377.20973480483866 L 439 406.33965477701133 L 459 429.37976320958217 L 479 445.32309680534127 L 498.99999999999994 453.4728553815512 L 519 453.47285538155126 L 539 445.32309680534127 L 559 429.3797632095822 L 579 406.33965477701133 L 599 377.2097348048387 L 619 343.26312057671254 L 639 305.9834420283298 " stroke="steelblue" stroke-width="2" fill="none" /><circle cx="59" cy="267" r="3" fill="steelblue" /><circle cx="79" cy="228.01655797167012" r="3" fill="steelblue" /><circle cx="99" cy="190.73687942328746" r="3" fill="steelblue" /><circle cx="119" cy="156.79026519516128" r="3" fill="steelblue" /><circle cx="139" cy="127.66034522298861" r="3" fill="steelblue" /><circle cx="159" cy="104.62023679041783" r="3" fill="steelblue" /><circle cx="179" cy="88.67690319465873" r="3" fill="steelblue" /><circle cx="199" cy="80.52714461844874" r="3" fill="steelblue" /><circle cx="219" cy="80.52714461844874" r="3" fill="steelblue" /><circle cx="239" cy="88.67690319465873" r="3" fill="steelblue" /><circle cx="259" cy="104.62023679041772" r="3" fill="steelblue" /><circle cx="279" cy="127.66034522298855" r="3" fill="steelblue" /><circle cx="299" cy="156.79026519516123" r="3" fill="steelblue" /><circle cx="319" cy="190.73687942328746" r="3" fill="steelblue" /><circle cx="339" cy="228.01655797167012" r="3" fill="steelblue" /><circle cx="359" cy="266.9999999999999" r="3" fill="steelblue" /><circle cx="379" cy="305.9834420283298" r="3" fill="steelblue" /><circle cx="399" cy="343.26312057671254" r="3" fill="steelblue" /><circle cx="419" cy="377.20973480483866" r="3" fill="steelblue" /><circle cx="439" cy="406.33965477701133" r="3" fill="steelblue" /><circle cx="459" cy="429.37976320958217" r="3" fill="steelblue" /><circle cx="479" cy="445.32309680534127" r="3" fill="steelblue" /><circle cx="498.99999999999994" cy="453.4728553815512" r="3" fill="steelblue" /><circle cx="519" cy="453.47285538155126" r="3" fill="steelblue" /><circle cx="539" cy="445.32309680534127" r="3" fill="steelblue" /><circle cx="559" cy="429.3797632095822" r="3" fill="steelblue" /><circle cx="579" cy="406.33965477701133" r="3" fill="steelblue" /><circle cx="599" cy="377.2097348048387" r="3" fill="steelblue" /><circle cx="619" cy="343.26312057671254" r="3" fill="steelblue" /><circle cx="639" cy="305.9834420283298" r="3" fill="steelblue" /></svg>