<svg xmlns="http://www.w3.org/2000/svg" width="753" height="541" fill="black"><rect width="100%" height="100%" fill="white" /><line x1="59" y1="492" x2="659" y2="492" stroke="black" stroke-width="1" /><line x1="59" y1="42" x2="59" y2="492" stroke="black" stroke-width="1" /><line x1="134" y1="42" x2="134" y2="492" stroke="#ccc" stroke-width="1" /><line x1="209" y1="42" x2="209" y2="492" stroke="#ccc" stroke-width="1" /><line x1="284" y1="42" x2="284" y2="492" stroke="#ccc" stroke-width="1" /><line x1="359" y1="42" x2="359" y2="492" stroke="#ccc" stroke-width="1" /><line x1="434" y1="42" x2="434" y2="492" stroke="#ccc" stroke-width="1" /><line x1="509" y1="42" x2="509" y2="492" stroke="#ccc" stroke-width="1" /><line x1="584" y1="42" x2="584" y2="492" stroke="#ccc" stroke-width="1" /><line x1="659" y1="42" x2="659" y2="492" stroke="#ccc" stroke-width="1" /><line x1="59" y1="447" x2="659" y2="447" stroke="#ccc" stroke-width="1" /><line x1="59" y1="402" x2="659" y2="402" stroke="#ccc" stroke-width="1" /><line x1="59" y1="357" x2="659" y2="357" stroke="#ccc" stroke-width="1" /><line x1="59" y1="312" x2="659" y2="312" stroke="#ccc" stroke-width="1" /><line x1="59" y1="267" x2="659" y2="267" stroke="#ccc" stroke-width="1" /><line x1="59" y1="222" x2="659" y2="222" stroke="#ccc" stroke-width="1" /><line x1="59" y1="177" x2="659" y2="177" stroke="#ccc" stroke-width="1" /><line x1="59" y1="132" x2="659" y2="132" stroke="#ccc" stroke-width="1" /><line x1="59" y1="87" x2="659" y2="87" stroke="#ccc" stroke-width="1" /><line x1="59" y1="42" x2="659" y2="42" stroke="#ccc" stroke-width="1" /><line x1="59" y1="492" x2="59" y2="497" stroke="black" stroke-width="1" /><text x="59" y="507" font-size="10" text-anchor="middle">0</text><line x1="134" y1="492" x2="134" y2="497" stroke="black" stroke-width="1" /><text x="134" y="507" font-size="10" text-anchor="middle">10</text><line x1="209" y1="492" x2="209" y2="497" stroke="black" stroke-width="1" /><text x="209" y="507" font-size="10" text-anchor="middle">20</text><line x1="284" y1="492" x2="284" y2="497" stroke="black" stroke-width="1" /><text x="284" y="507" font-size="10" text-anchor="middle">30</text><line x1="359" y1="492" x2="359" y2="497" stroke="black" stroke-width="1" /><text x="359" y="507" font-size="10" text-anchor="middle">40</text><line x1="434" y1="492" x2="434" y2="497" stroke="black" stroke-width="1" /><text x="434" y="507" font-size="10" text-anchor="middle">50</text><line x1="509" y1="492" x2="509" y2="497" stroke="black" stroke-width="1" /><text x="509" y="507" font-size="10" text-anchor="middle">60</text><line x1="584" y1="492" x2="584" y2="497" stroke="black" stroke-width="1" /><text x="584" y="507" font-size="10" text-anchor="middle">70</text><line x1="659" y1="492" x2="659" y2="497" stroke="black" stroke-width="1" /><text x="659" y="507" font-size="10" text-anchor="middle">80</text><line x1="54" y1="492" x2="59" y2="492" stroke="black" stroke-width="1" /><text x="51" y="495.5" font-size="10" text-anchor="end">-1</text><line x1="54" y1="447" x2="59" y2="447" stroke="black" stroke-width="1" /><text x="51" y="450.5" font-size="10" text-anchor="end">-0.8</text><line x1="54" y1="402" x2="59" y2="402" stroke="black" stroke-width="1" /><text x="51" y="405.5" font-size="10" text-anchor="end">-0.6</text><line x1="54" y1="357" x2="59" y2="357" stroke="black" stroke-width="1" /><text x="51" y="360.5" font-size="10" text-anchor="end">-0.4</text><line x1="54" y1="312" x2="59" y2="312" stroke="black" stroke-width="1" /><text x="51" y="315.5" font-size="10" text-anchor="end">-0.2</text><line x1="54" y1="267" x2="59" y2="267" stroke="black" stroke-width="1" /><text x="51" y="270.5" font-size="10" text-anchor="end">-0</text><line x1="54" y1="222" x2="59" y2="222" stroke="black" stroke-width="1" /><text x="51" y="225.5" font-size="10" text-anchor="end">0.2</text><line x1="54" y1="177" x2="59" y2="177" stroke="black" stroke-width="1" /><text x="51" y="180.5" font-size="10" text-anchor="end">0.4</text><line x1="54" y1="132" x2="59" y2="132" stroke="black" stroke-width="1" /><text x="51" y="135.5" font-size="10" text-anchor="end">0.6</text><line x1="54" y1="87" x2="59" y2="87" stroke="black" stroke-width="1" /><text x="51" y="90.5" font-size="10" text-anchor="end">0.8</text><line x1="54" y1="42" x2="59" y2="42" stroke="black" stroke-width="1" /><text x="51" y="45.5" font-size="10" text-anchor="end">1</text><text x="376.5" y="534" font-size="14" text-anchor="middle">Sample</text><text x="14" y="270.5" font-size="14" text-anchor="middle" transform="rotate(-90,14,270.5)">Amplitude</text><text x="376.5" y="21" font-size="16" text-anchor="middle">Custom Stroke &amp; Point Size</text><path d="M 59 267 L 66.5 233.5891414009613 L 74 201.15788663352868 L 81.5 170.63704987013392 L 89 142.86252914532793 L 96.5 118.53435927334294 L 104 98.18317456843016 L 111.5 82.14590291192536 L 119 70.55200338427068 L 126.5 63.32097803180744 L 134 60.171266502934884 L 141.5 60.640004621666435 L 149 64.11252914532787 L 156.5 69.85997405869978 L 164 77.08285844783285 L 171.5 84.95823686960404 L 179 92.6877883633324 L 186.5 99.54417058852482 L 194 104.91306374880884 L 201.5 108.3285695368894 L 209 109.5 L 216.5 108.3285695368894 L 224 104.9130637488089 L 231.5 99.54417058852482 L 239 92.6877883633324 L 246.5 84.9582368696041 L 254 77.08285844783285 L 261.5 69.85997405869966 L 269 64.11252914532787 L 276.5 60.64000462166649 L 284 60.171266502934884 L 291.5 63.32097803180744 L 299 70.55200338427068 L 306.5 82.14590291192536 L 314 98.18317456843016 L 321.5 118.53435927334294 L 329 142.86252914532787 L 336.5 170.6370498701338 L 344 201.15788663352868 L 351.5 233.58914140096124 L 359 266.99999999999994 L 366.5 300.4108585990384 L 374 332.84211336647127 L 381.5 363.3629501298661 L 389 391.1374708546719 L 396.5 415.465640726657 L 404 435.8168254315698 L 411.5 451.8540970880747 L 419 463.4479966157293 L 426.5 470.6790219681925 L 434 473.8287334970652 L 441.5 473.35999537833356 L 449 469.88747085467213 L 456.5 464.1400259413003 L 464 456.91714155216715 L 471.5 449.04176313039585 L 479 441.31221163666766 L 486.5 434.45582941147524 L 494 429.08693625119116 L 501.5 425.6714304631107 L 509 424.5 L 516.5 425.6714304631106 L 524 429.08693625119116 L 531.5 434.4558294114752 L 539 441.3122116366676 L 546.5 449.0417631303958 L 554 456.9171415521671 L 561.5 464.1400259413002 L 569 469.887470854672 L 576.5 473.3599953783336 L 584 473.8287334970652 L 591.5 470.67902196819256 L 599 463.4479966157294 L 606.5 451.85409708807475 L 614 435.8168254315699 L 621.5 415.4656407266573 L 629 391.13747085467213 L 636.5 363.36295012986614 L 644 332.8421133664714 L 651.5 300.41085859903853 " stroke="darkorchid" stroke-width="1.5" fill="none" /><circle cx="59" cy="267" r="4" fill="darkorchid" /><circle cx="66.5" cy="233.5891414009613" r="4" fill="darkorchid" /><circle cx="74" cy="201.15788663352868" r="4" fill="darkorchid" /><circle cx="81.5" cy="170.63704987013392" r="4" fill="darkorchid" /><circle cx="89" cy="142.86252914532793" r="4" fill="darkorchid" /><circle cx="96.5" cy="118.53435927334294" r="4" fill="darkorchid" /><circle cx="104" cy="98.18317456843016" r="4" fill="darkorchid" /><circle cx="111.5" cy="82.14590291192536" r="4" fill="darkorchid" /><circle cx="119" cy="70.55200338427068" r="4" fill="darkorchid" /><circle cx="126.5" cy="63.32097803180744" r="4" fill="darkorchid" /><circle cx="134" cy="60.171266502934884" r="4" fill="darkorchid" /><circle cx="141.5" cy="60.640004621666435" r="4" fill="darkorchid" /><circle cx="149" cy="64.11252914532787" r="4" fill="darkorchid" /><circle cx="156.5" cy="69.85997405869978" r="4" fill="darkorchid" /><circle cx="164" cy="77.08285844783285" r="4" fill="darkorchid" /><circle cx="171.5" cy="84.95823686960404" r="4" fill="darkorchid" /><circle cx="179" cy="92.6877883633324" r="4" fill="darkorchid" /><circle cx="186.5" cy="99.54417058852482" r="4" fill="darkorchid" /><circle cx="194" cy="104.91306374880884" r="4" fill="darkorchid" /><circle cx="201.5" cy="108.3285695368894" r="4" fill="darkorchid" /><circle cx="209" cy="109.5" r="4" fill="darkorchid" /><circle cx="216.5" cy="108.3285695368894" r="4" fill="darkorchid" /><circle cx="224" cy="104.9130637488089" r="4" fill="darkorchid" /><circle cx="231.5" cy="99.54417058852482" r="4" fill="darkorchid" /><circle cx="239" cy="92.6877883633324" r="4" fill="darkorchid" /><circle cx="246.5" cy="84.9582368696041" r="4" fill="darkorchid" /><circle cx="254" cy="77.08285844783285" r="4" fill="darkorchid" /><circle cx="261.5" cy="69.85997405869966" r="4" fill="darkorchid" /><circle cx="269" cy="64.11252914532787" r="4" fill="darkorchid" /><circle cx="276.5" cy="60.64000462166649" r="4" fill="darkorchid" /><circle cx="284" cy="60.171266502934884" r="4" fill="darkorchid" /><circle cx="291.5" cy="63.32097803180744" r="4" fill="darkorchid" /><circle cx="299" cy="70.55200338427068" r="4" fill="darkorchid" /><circle cx="306.5" cy="82.14590291192536" r="4" fill="darkorchid" /><circle cx="314" cy="98.18317456843016" r="4" fill="darkorchid" /><circle cx="321.5" cy="118.53435927334294" r="4" fill="darkorchid" /><circle cx="329" cy="142.86252914532787" r="4" fill="darkorchid" /><circle cx="336.5" cy="170.6370498701338" r="4" fill="darkorchid" /><circle cx="344" cy="201.15788663352868" r="4" fill="darkorchid" /><circle cx="351.5" cy="233.58914140096124" r="4" fill="darkorchid" /><circle cx="359" cy="266.99999999999994" r="4" fill="darkorchid" /><circle cx="366.5" cy="300.4108585990384" r="4" fill="darkorchid" /><circle cx="374" cy="332.84211336647127" r="4" fill="darkorchid" /><circle cx="381.5" cy="363.3629501298661" r="4" fill="darkorchid" /><circle cx="389" cy="391.1374708546719" r="4" fill="darkorchid" /><circle cx="396.5" cy="415.465640726657" r="4" fill="darkorchid" /><circle cx="404" cy="435.8168254315698" r="4" fill="darkorchid" /><circle cx="411.5" cy="451.8540970880747" r="4" fill="darkorchid" /><circle cx="419" cy="463.4479966157293" r="4" fill="darkorchid" /><circle cx="426.5" cy="470.6790219681925" r="4" fill="darkorchid" /><circle cx="434" cy="473.8287334970652" r="4" fill="darkorchid" /><circle cx="441.5" cy="473.35999537833356" r="4" fill="darkorchid" /><circle cx="449" cy="469.88747085467213" r="4" fill="darkorchid" /><circle cx="456.5" cy="464.1400259413003" r="4" fill="darkorchid" /><circle cx="464" cy="456.91714155216715" r="4" fill="darkorchid" /><circle cx="471.5" cy="449.04176313039585" r="4" fill="darkorchid" /><circle cx="479" cy="441.31221163666766" r="4" fill="darkorchid" /><circle cx="486.5" cy="434.45582941147524" r="4" fill="darkorchid" /><circle cx="494" cy="429.08693625119116" r="4" fill="darkorchid" /><circle cx="501.5" cy="425.6714304631107" r="4" fill="darkorchid" /><circle cx="509" cy="424.5" r="4" fill="darkorchid" /><circle cx="516.5" cy="425.6714304631106" r="4" fill="darkorchid" /><circle cx="524" cy="429.08693625119116" r="4" fill="darkorchid" /><circle cx="531.5" cy="434.4558294114752" r="4" fill="darkorchid" /><circle cx="539" cy="441.3122116366676" r="4" fill="darkorchid" /><circle cx="546.5" cy="449.0417631303958" r="4" fill="darkorchid" /><circle cx="554" cy="456.9171415521671" r="4" fill="darkorchid" /><circle cx="561.5" cy="464.1400259413002" r="4" fill="darkorchid" /><circle cx="569" cy="469.887470854672" r="4" fill="darkorchid" /><circle cx="576.5" cy="473.3599953783336" r="4" fill="darkorchid" /><circle cx="584" cy="473.8287334970652" r="4" fill="darkorchid" /><circle cx="591.5" cy="470.67902196819256" r="4" fill="darkorchid" /><circle cx="599" cy="463.4479966157294" r="4" fill="darkorchid" /><circle cx="606.5" cy="451.85409708807475" r="4" fill="darkorchid" /><circle cx="614" cy="435.8168254315699" r="4" fill="darkorchid" /><circle cx="621.5" cy="415.4656407266573" r="4" fill="darkorchid" /><circle cx="629" cy="391.13747085467213" r="4" fill="darkorchid" /><circle cx="636.5" cy="363.36295012986614" r="4" fill="darkorchid" /><circle cx="644" cy="332.8421133664714" r="4" fill="darkorchid" /><circle cx="651.5" cy="300.41085859903853" r="4" fill="darkorchid" /><rect x="664" y="32" width="80" height="38" fill="white" /><rect x="664" y="32" width="80" height="38" fill="none" stroke="black" stroke-width="1" /><text x="694" y="47" font-size="12" text-anchor="start">signal</text><circle cx="680" cy="43" r="5" fill="darkorchid" /></svg>