<svg xmlns="http://www.w3.org/2000/svg" width="753" height="541" fill="black"><rect width="100%" height="100%" fill="white" /><line x1="59" y1="492" x2="659" y2="492" stroke="black" stroke-width="1" /><line x1="59" y1="42" x2="59" y2="492" stroke="black" stroke-width="1" /><line x1="125.66666666666666" y1="42" x2="125.66666666666666" y2="492" stroke="#ccc" stroke-width="1" /><line x1="192.33333333333331" y1="42" x2="192.33333333333331" y2="492" stroke="#ccc" stroke-width="1" /><line x1="259" y1="42" x2="259" y2="492" stroke="#ccc" stroke-width="1" /><line x1="325.66666666666663" y1="42" x2="325.66666666666663" y2="492" stroke="#ccc" stroke-width="1" /><line x1="392.33333333333337" y1="42" x2="392.33333333333337" y2="492" stroke="#ccc" stroke-width="1" /><line x1="459" y1="42" x2="459" y2="492" stroke="#ccc" stroke-width="1" /><line x1="525.6666666666667" y1="42" x2="525.6666666666667" y2="492" stroke="#ccc" stroke-width="1" /><line x1="592.3333333333333" y1="42" x2="592.3333333333333" y2="492" stroke="#ccc" stroke-width="1" /><line x1="659" y1="42" x2="659" y2="492" stroke="#ccc" stroke-width="1" /><line x1="59" y1="435.75" x2="659" y2="435.75" stroke="#ccc" stroke-width="1" /><line x1="59" y1="379.5" x2="659" y2="379.5" stroke="#ccc" stroke-width="1" /><line x1="59" y1="323.25" x2="659" y2="323.25" stroke="#ccc" stroke-width="1" /><line x1="59" y1="267" x2="659" y2="267" stroke="#ccc" stroke-width="1" /><line x1="59" y1="210.75" x2="659" y2="210.75" stroke="#ccc" stroke-width="1" /><line x1="59" y1="154.5" x2="659" y2="154.5" stroke="#ccc" stroke-width="1" /><line x1="59" y1="98.25" x2="659" y2="98.25" stroke="#ccc" stroke-width="1" /><line x1="59" y1="42" x2="659" y2="42" stroke="#ccc" stroke-width="1" /><line x1="59" y1="492" x2="59" y2="497" stroke="black" stroke-width="1" /><text x="59" y="507" font-size="10" text-anchor="middle">0</text><line x1="125.66666666666666" y1="492" x2="125.66666666666666" y2="497" stroke="black" stroke-width="1" /><text x="125.66666666666666" y="507" font-size="10" text-anchor="middle">10</text><line x1="192.33333333333331" y1="492" x2="192.33333333333331" y2="497" stroke="black" stroke-width="1" /><text x="192.33333333333331" y="507" font-size="10" text-anchor="middle">20</text><line x1="259" y1="492" x2="259" y2="497" stroke="black" stroke-width="1" /><text x="259" y="507" font-size="10" text-anchor="middle">30</text><line x1="325.66666666666663" y1="492" x2="325.66666666666663" y2="497" stroke="black" stroke-width="1" /><text x="325.66666666666663" y="507" font-size="10" text-anchor="middle">40</text><line x1="392.33333333333337" y1="492" x2="392.33333333333337" y2="497" stroke="black" stroke-width="1" /><text x="392.33333333333337" y="507" font-size="10" text-anchor="middle">50</text><line x1="459" y1="492" x2="459" y2="497" stroke="black" stroke-width="1" /><text x="459" y="507" font-size="10" text-anchor="middle">60</text><line x1="525.6666666666667" y1="492" x2="525.6666666666667" y2="497" stroke="black" stroke-width="1" /><text x="525.6666666666667" y="507" font-size="10" text-anchor="middle">70</text><line x1="592.3333333333333" y1="492" x2="592.3333333333333" y2="497" stroke="black" stroke-width="1" /><text x="592.3333333333333" y="507" font-size="10" text-anchor="middle">80</text><line x1="659" y1="492" x2="659" y2="497" stroke="black" stroke-width="1" /><text x="659" y="507" font-size="10" text-anchor="middle">90</text><line x1="54" y1="492" x2="59" y2="492" stroke="black" stroke-width="1" /><text x="51" y="495.5" font-size="10" text-anchor="end">-2</text><line x1="54" y1="435.75" x2="59" y2="435.75" stroke="black" stroke-width="1" /><text x="51" y="439.25" font-size="10" text-anchor="end">-1.5</text><line x1="54" y1="379.5" x2="59" y2="379.5" stroke="black" stroke-width="1" /><text x="51" y="383" font-size="10" text-anchor="end">-1</text><line x1="54" y1="323.25" x2="59" y2="323.25" stroke="black" stroke-width="1" /><text x="51" y="326.75" font-size="10" text-anchor="end">-0.5</text><line x1="54" y1="267" x2="59" y2="267" stroke="black" stroke-width="1" /><text x="51" y="270.5" font-size="10" text-anchor="end">0</text><line x1="54" y1="210.75" x2="59" y2="210.75" stroke="black" stroke-width="1" /><text x="51" y="214.25" font-size="10" text-anchor="end">0.5</text><line x1="54" y1="154.5" x2="59" y2="154.5" stroke="black" stroke-width="1" /><text x="51" y="158" font-size="10" text-anchor="end">1</text><line x1="54" y1="98.25" x2="59" y2="98.25" stroke="black" stroke-width="1" /><text x="51" y="101.75" font-size="10" text-anchor="end">1.5</text><line x1="54" y1="42" x2="59" y2="42" stroke="black" stroke-width="1" /><text x="51" y="45.5" font-size="10" text-anchor="end">2</text><text x="376.5" y="534" font-size="14" text-anchor="middle">Sample</text><text x="14" y="270.5" font-size="14" text-anchor="middle" transform="rotate(-90,14,270.5)">Amplitude</text><text x="376.5" y="21" font-size="16" text-anchor="middle">Custom Stroke &amp; Point Size</text><path d="M 59 267 L 65.66666666666667 250.29457070048065 L 72.33333333333333 234.07894331676437 L 79 218.818524935067 L 85.66666666666667 204.9312645726639 L 92.33333333333333 192.76717963667147 L 99 182.5915872842151 L 105.66666666666666 174.5729514559627 L 112.33333333333334 168.7760016921353 L 119 165.1604890159037 L 125.66666666666666 163.5856332514674 L 132.33333333333331 163.82000231083322 L 139 165.55626457266396 L 145.66666666666666 168.4299870293499 L 152.33333333333331 172.0414292239164 L 159 175.979118434802 L 165.66666666666669 179.84389418166614 L 172.33333333333331 183.2720852942624 L 179 185.9565318744044 L 185.66666666666669 187.66428476844465 L 192.33333333333331 188.25 L 199 187.66428476844465 L 205.66666666666666 185.95653187440445 L 212.33333333333331 183.2720852942624 L 219 179.84389418166614 L 225.66666666666669 175.97911843480205 L 232.33333333333331 172.0414292239164 L 239 168.42998702934983 L 245.66666666666666 165.55626457266396 L 252.33333333333334 163.82000231083322 L 259 163.5856332514674 L 265.66666666666663 165.1604890159037 L 272.33333333333337 168.7760016921353 L 279 174.57295145596265 L 285.66666666666663 182.5915872842151 L 292.33333333333337 192.76717963667141 L 299 204.9312645726639 L 305.66666666666663 218.81852493506693 L 312.33333333333337 234.07894331676437 L 319 250.29457070048065 L 325.66666666666663 266.99999999999994 L 332.3333333333333 283.7054292995192 L 339 299.92105668323563 L 345.6666666666667 315.181475064933 L 352.3333333333333 329.0687354273359 L 359 341.2328203633285 L 365.66666666666663 351.40841271578495 L 372.33333333333337 359.42704854403735 L 379 365.2239983078647 L 385.66666666666663 368.83951098409625 L 392.33333333333337 370.4143667485326 L 399 370.1799976891668 L 405.66666666666663 368.4437354273361 L 412.33333333333337 365.5700129706501 L 419 361.95857077608355 L 425.6666666666667 358.0208815651979 L 432.3333333333333 354.1561058183338 L 439 350.7279147057376 L 445.6666666666667 348.0434681255956 L 452.3333333333333 346.33571523155535 L 459 345.75 L 465.6666666666667 346.3357152315553 L 472.3333333333333 348.0434681255956 L 479 350.7279147057376 L 485.6666666666667 354.1561058183338 L 492.3333333333333 358.0208815651979 L 498.99999999999994 361.95857077608355 L 505.6666666666667 365.5700129706501 L 512.3333333333333 368.443735427336 L 519 370.17999768916684 L 525.6666666666667 370.4143667485326 L 532.3333333333333 368.8395109840963 L 539 365.2239983078647 L 545.6666666666667 359.42704854403735 L 552.3333333333333 351.40841271578495 L 559 341.23282036332864 L 565.6666666666667 329.06873542733604 L 572.3333333333333 315.18147506493307 L 579 299.9210566832357 L 585.6666666666666 283.7054292995193 " stroke="darkorchid" stroke-width="1.5" fill="none" /><circle cx="59" cy="267" r="4" fill="darkorchid" /><circle cx="65.66666666666667" cy="250.29457070048065" r="4" fill="darkorchid" /><circle cx="72.33333333333333" cy="234.07894331676437" r="4" fill="darkorchid" /><circle cx="79" cy="218.818524935067" r="4" fill="darkorchid" /><circle cx="85.66666666666667" cy="204.9312645726639" r="4" fill="darkorchid" /><circle cx="92.33333333333333" cy="192.76717963667147" r="4" fill="darkorchid" /><circle cx="99" cy="182.5915872842151" r="4" fill="darkorchid" /><circle cx="105.66666666666666" cy="174.5729514559627" r="4" fill="darkorchid" /><circle cx="112.33333333333334" cy="168.7760016921353" r="4" fill="darkorchid" /><circle cx="119" cy="165.1604890159037" r="4" fill="darkorchid" /><circle cx="125.66666666666666" cy="163.5856332514674" r="4" fill="darkorchid" /><circle cx="132.33333333333331" cy="163.82000231083322" r="4" fill="darkorchid" /><circle cx="139" cy="165.55626457266396" r="4" fill="darkorchid" /><circle cx="145.66666666666666" cy="168.4299870293499" r="4" fill="darkorchid" /><circle cx="152.33333333333331" cy="172.0414292239164" r="4" fill="darkorchid" /><circle cx="159" cy="175.979118434802" r="4" fill="darkorchid" /><circle cx="165.66666666666669" cy="179.84389418166614" r="4" fill="darkorchid" /><circle cx="172.33333333333331" cy="183.2720852942624" r="4" fill="darkorchid" /><circle cx="179" cy="185.9565318744044" r="4" fill="darkorchid" /><circle cx="185.66666666666669" cy="187.66428476844465" r="4" fill="darkorchid" /><circle cx="192.33333333333331" cy="188.25" r="4" fill="darkorchid" /><circle cx="199" cy="187.66428476844465" r="4" fill="darkorchid" /><circle cx="205.66666666666666" cy="185.95653187440445" r="4" fill="darkorchid" /><circle cx="212.33333333333331" cy="183.2720852942624" r="4" fill="darkorchid" /><circle cx="219" cy="179.84389418166614" r="4" fill="darkorchid" /><circle cx="225.66666666666669" cy="175.97911843480205" r="4" fill="darkorchid" /><circle cx="232.33333333333331" cy="172.0414292239164" r="4" fill="darkorchid" /><circle cx="239" cy="168.42998702934983" r="4" fill="darkorchid" /><circle cx="245.66666666666666" cy="165.55626457266396" r="4" fill="darkorchid" /><circle cx="252.33333333333334" cy="163.82000231083322" r="4" fill="darkorchid" /><circle cx="259" cy="163.5856332514674" r="4" fill="darkorchid" /><circle cx="265.66666666666663" cy="165.1604890159037" r="4" fill="darkorchid" /><circle cx="272.33333333333337" cy="168.7760016921353" r="4" fill="darkorchid" /><circle cx="279" cy="174.57295145596265" r="4" fill="darkorchid" /><circle cx="285.66666666666663" cy="182.5915872842151" r="4" fill="darkorchid" /><circle cx="292.33333333333337" cy="192.76717963667141" r="4" fill="darkorchid" /><circle cx="299" cy="204.9312645726639" r="4" fill="darkorchid" /><circle cx="305.66666666666663" cy="218.81852493506693" r="4" fill="darkorchid" /><circle cx="312.33333333333337" cy="234.07894331676437" r="4" fill="darkorchid" /><circle cx="319" cy="250.29457070048065" r="4" fill="darkorchid" /><circle cx="325.66666666666663" cy="266.99999999999994" r="4" fill="darkorchid" /><circle cx="332.3333333333333" cy="283.7054292995192" r="4" fill="darkorchid" /><circle cx="339" cy="299.92105668323563" r="4" fill="darkorchid" /><circle cx="345.6666666666667" cy="315.181475064933" r="4" fill="darkorchid" /><circle cx="352.3333333333333" cy="329.0687354273359" r="4" fill="darkorchid" /><circle cx="359" cy="341.2328203633285" r="4" fill="darkorchid" /><circle cx="365.66666666666663" cy="351.40841271578495" r="4" fill="darkorchid" /><circle cx="372.33333333333337" cy="359.42704854403735" r="4" fill="darkorchid" /><circle cx="379" cy="365.2239983078647" r="4" fill="darkorchid" /><circle cx="385.66666666666663" cy="368.83951098409625" r="4" fill="darkorchid" /><circle cx="392.33333333333337" cy="370.4143667485326" r="4" fill="darkorchid" /><circle cx="399" cy="370.1799976891668" r="4" fill="darkorchid" /><circle cx="405.66666666666663" cy="368.4437354273361" r="4" fill="darkorchid" /><circle cx="412.33333333333337" cy="365.5700129706501" r="4" fill="darkorchid" /><circle cx="419" cy="361.95857077608355" r="4" fill="darkorchid" /><circle cx="425.6666666666667" cy="358.0208815651979" r="4" fill="darkorchid" /><circle cx="432.3333333333333" cy="354.1561058183338" r="4" fill="darkorchid" /><circle cx="439" cy="350.7279147057376" r="4" fill="darkorchid" /><circle cx="445.6666666666667" cy="348.0434681255956" r="4" fill="darkorchid" /><circle cx="452.3333333333333" cy="346.33571523155535" r="4" fill="darkorchid" /><circle cx="459" cy="345.75" r="4" fill="darkorchid" /><circle cx="465.6666666666667" cy="346.3357152315553" r="4" fill="darkorchid" /><circle cx="472.3333333333333" cy="348.0434681255956" r="4" fill="darkorchid" /><circle cx="479" cy="350.7279147057376" r="4" fill="darkorchid" /><circle cx="485.6666666666667" cy="354.1561058183338" r="4" fill="darkorchid" /><circle cx="492.3333333333333" cy="358.0208815651979" r="4" fill="darkorchid" /><circle cx="498.99999999999994" cy="361.95857077608355" r="4" fill="darkorchid" /><circle cx="505.6666666666667" cy="365.5700129706501" r="4" fill="darkorchid" /><circle cx="512.3333333333333" cy="368.443735427336" r="4" fill="darkorchid" /><circle cx="519" cy="370.17999768916684" r="4" fill="darkorchid" /><circle cx="525.6666666666667" cy="370.4143667485326" r="4" fill="darkorchid" /><circle cx="532.3333333333333" cy="368.8395109840963" r="4" fill="darkorchid" /><circle cx="539" cy="365.2239983078647" r="4" fill="darkorchid" /><circle cx="545.6666666666667" cy="359.42704854403735" r="4" fill="darkorchid" /><circle cx="552.3333333333333" cy="351.40841271578495" r="4" fill="darkorchid" /><circle cx="559" cy="341.23282036332864" r="4" fill="darkorchid" /><circle cx="565.6666666666667" cy="329.06873542733604" r="4" fill="darkorchid" /><circle cx="572.3333333333333" cy="315.18147506493307" r="4" fill="darkorchid" /><circle cx="579" cy="299.9210566832357" r="4" fill="darkorchid" /><circle cx="585.6666666666666" cy="283.7054292995193" r="4" fill="darkorchid" /><rect x="664" y="32" width="80" height="38" fill="white" /><rect x="664" y="32" width="80" height="38" fill="none" stroke="black" stroke-width="1" /><text x="694" y="47" font-size="12" text-anchor="start">signal</text><circle cx="680" cy="43" r="5" fill="darkorchid" /></svg>