<svg xmlns="http://www.w3.org/2000/svg" width="764" height="541" fill="black"><rect width="100%" height="100%" fill="white" /><text x="382" y="21" font-size="16" text-anchor="middle">Clade Coloring by Domain</text><line x1="84" y1="167" x2="323" y2="167" stroke="#e41a1c" stroke-width="1.5" /><line x1="84" y1="367" x2="323" y2="367" stroke="#377eb8" stroke-width="1.5" /><line x1="323" y1="117" x2="562" y2="117" stroke="#e41a1c" stroke-width="1.5" /><line x1="323" y1="217" x2="562" y2="217" stroke="#e41a1c" stroke-width="1.5" /><line x1="323" y1="317" x2="562" y2="317" stroke="#377eb8" stroke-width="1.5" /><line x1="323" y1="417" x2="562" y2="417" stroke="#377eb8" stroke-width="1.5" /><line x1="84" y1="167" x2="84" y2="367" stroke="black" stroke-width="1.5" /><line x1="323" y1="117" x2="323" y2="217" stroke="#e41a1c" stroke-width="1.5" /><line x1="323" y1="317" x2="323" y2="417" stroke="#377eb8" stroke-width="1.5" /><circle cx="84" cy="267" r="3" fill="black" /><text x="568" y="121" font-size="11" text-anchor="start">E. coli</text><text x="568" y="221" font-size="11" text-anchor="start">B. subtilis</text><text x="568" y="321" font-size="11" text-anchor="start">Yeast</text><text x="568" y="421" font-size="11" text-anchor="start">Human</text><rect x="664" y="32" width="91" height="56" fill="white" /><rect x="664" y="32" width="91" height="56" fill="none" stroke="black" stroke-width="1" /><text x="694" y="47" font-size="12" text-anchor="start">Bacteria</text><line x1="674" y1="44" x2="686" y2="44" stroke="#e41a1c" stroke-width="2" /><text x="694" y="65" font-size="12" text-anchor="start">Eukarya</text><line x1="674" y1="62" x2="686" y2="62" stroke="#377eb8" stroke-width="2" /></svg>