<svg xmlns="http://www.w3.org/2000/svg" width="673" height="541" fill="black"><rect width="100%" height="100%" fill="white" /><text x="336.5" y="21" font-size="16" text-anchor="middle">Phylogram (Top orientation)</text><line x1="194" y1="67" x2="194" y2="145.88888888888889" stroke="black" stroke-width="1.5" /><line x1="139" y1="145.88888888888889" x2="139" y2="224.77777777777777" stroke="black" stroke-width="1.5" /><line x1="249" y1="145.88888888888889" x2="249" y2="382.55555555555554" stroke="black" stroke-width="1.5" /><line x1="441.5" y1="67" x2="441.5" y2="224.77777777777777" stroke="black" stroke-width="1.5" /><line x1="359" y1="224.77777777777777" x2="359" y2="382.55555555555554" stroke="black" stroke-width="1.5" /><line x1="524" y1="224.77777777777777" x2="524" y2="303.66666666666663" stroke="black" stroke-width="1.5" /><line x1="469" y1="303.66666666666663" x2="469" y2="343.11111111111114" stroke="black" stroke-width="1.5" /><line x1="579" y1="303.66666666666663" x2="579" y2="422" stroke="black" stroke-width="1.5" /><line x1="194" y1="67" x2="441.5" y2="67" stroke="black" stroke-width="1.5" /><line x1="139" y1="145.88888888888889" x2="249" y2="145.88888888888889" stroke="black" stroke-width="1.5" /><line x1="359" y1="224.77777777777777" x2="524" y2="224.77777777777777" stroke="black" stroke-width="1.5" /><line x1="469" y1="303.66666666666663" x2="579" y2="303.66666666666663" stroke="black" stroke-width="1.5" /><circle cx="317.75" cy="67" r="3" fill="black" /><text x="143" y="238.77777777777777" font-size="11" text-anchor="start" transform="rotate(90,143,238.77777777777777)">A</text><text x="253" y="396.55555555555554" font-size="11" text-anchor="start" transform="rotate(90,253,396.55555555555554)">B</text><text x="363" y="396.55555555555554" font-size="11" text-anchor="start" transform="rotate(90,363,396.55555555555554)">C</text><text x="473" y="357.11111111111114" font-size="11" text-anchor="start" transform="rotate(90,473,357.11111111111114)">D</text><text x="583" y="436" font-size="11" text-anchor="start" transform="rotate(90,583,436)">E</text><text x="196" y="143.88888888888889" font-size="10" text-anchor="start">90</text><text x="526" y="301.66666666666663" font-size="10" text-anchor="start">85</text></svg>