<svg xmlns="http://www.w3.org/2000/svg" width="673" height="541" fill="black"><rect width="100%" height="100%" fill="white" /><line x1="59" y1="492" x2="659" y2="492" stroke="black" stroke-width="1" /><line x1="59" y1="42" x2="59" y2="492" stroke="black" stroke-width="1" /><line x1="119" y1="42" x2="119" y2="492" stroke="#ccc" stroke-width="1" /><line x1="179" y1="42" x2="179" y2="492" stroke="#ccc" stroke-width="1" /><line x1="239" y1="42" x2="239" y2="492" stroke="#ccc" stroke-width="1" /><line x1="299" y1="42" x2="299" y2="492" stroke="#ccc" stroke-width="1" /><line x1="359" y1="42" x2="359" y2="492" stroke="#ccc" stroke-width="1" /><line x1="419" y1="42" x2="419" y2="492" stroke="#ccc" stroke-width="1" /><line x1="479" y1="42" x2="479" y2="492" stroke="#ccc" stroke-width="1" /><line x1="539" y1="42" x2="539" y2="492" stroke="#ccc" stroke-width="1" /><line x1="599" y1="42" x2="599" y2="492" stroke="#ccc" stroke-width="1" /><line x1="659" y1="42" x2="659" y2="492" stroke="#ccc" stroke-width="1" /><line x1="59" y1="451.09090909090907" x2="659" y2="451.09090909090907" stroke="#ccc" stroke-width="1" /><line x1="59" y1="410.1818181818182" x2="659" y2="410.1818181818182" stroke="#ccc" stroke-width="1" /><line x1="59" y1="369.27272727272725" x2="659" y2="369.27272727272725" stroke="#ccc" stroke-width="1" /><line x1="59" y1="328.3636363636364" x2="659" y2="328.3636363636364" stroke="#ccc" stroke-width="1" /><line x1="59" y1="287.4545454545455" x2="659" y2="287.4545454545455" stroke="#ccc" stroke-width="1" /><line x1="59" y1="246.54545454545456" x2="659" y2="246.54545454545456" stroke="#ccc" stroke-width="1" /><line x1="59" y1="205.63636363636363" x2="659" y2="205.63636363636363" stroke="#ccc" stroke-width="1" /><line x1="59" y1="164.7272727272727" x2="659" y2="164.7272727272727" stroke="#ccc" stroke-width="1" /><line x1="59" y1="123.81818181818181" x2="659" y2="123.81818181818181" stroke="#ccc" stroke-width="1" /><line x1="59" y1="82.90909090909093" x2="659" y2="82.90909090909093" stroke="#ccc" stroke-width="1" /><line x1="59" y1="42" x2="659" y2="42" stroke="#ccc" stroke-width="1" /><line x1="59" y1="492" x2="59" y2="497" stroke="black" stroke-width="1" /><text x="59" y="507" font-size="10" text-anchor="middle">-5</text><line x1="119" y1="492" x2="119" y2="497" stroke="black" stroke-width="1" /><text x="119" y="507" font-size="10" text-anchor="middle">-4</text><line x1="179" y1="492" x2="179" y2="497" stroke="black" stroke-width="1" /><text x="179" y="507" font-size="10" text-anchor="middle">-3</text><line x1="239" y1="492" x2="239" y2="497" stroke="black" stroke-width="1" /><text x="239" y="507" font-size="10" text-anchor="middle">-2</text><line x1="299" y1="492" x2="299" y2="497" stroke="black" stroke-width="1" /><text x="299" y="507" font-size="10" text-anchor="middle">-1</text><line x1="359" y1="492" x2="359" y2="497" stroke="black" stroke-width="1" /><text x="359" y="507" font-size="10" text-anchor="middle">0</text><line x1="419" y1="492" x2="419" y2="497" stroke="black" stroke-width="1" /><text x="419" y="507" font-size="10" text-anchor="middle">1</text><line x1="479" y1="492" x2="479" y2="497" stroke="black" stroke-width="1" /><text x="479" y="507" font-size="10" text-anchor="middle">2</text><line x1="539" y1="492" x2="539" y2="497" stroke="black" stroke-width="1" /><text x="539" y="507" font-size="10" text-anchor="middle">3</text><line x1="599" y1="492" x2="599" y2="497" stroke="black" stroke-width="1" /><text x="599" y="507" font-size="10" text-anchor="middle">4</text><line x1="659" y1="492" x2="659" y2="497" stroke="black" stroke-width="1" /><text x="659" y="507" font-size="10" text-anchor="middle">5</text><line x1="54" y1="492" x2="59" y2="492" stroke="black" stroke-width="1" /><text x="51" y="495.5" font-size="10" text-anchor="end">0</text><line x1="54" y1="451.09090909090907" x2="59" y2="451.09090909090907" stroke="black" stroke-width="1" /><text x="51" y="454.59090909090907" font-size="10" text-anchor="end">0.5</text><line x1="54" y1="410.1818181818182" x2="59" y2="410.1818181818182" stroke="black" stroke-width="1" /><text x="51" y="413.6818181818182" font-size="10" text-anchor="end">1</text><line x1="54" y1="369.27272727272725" x2="59" y2="369.27272727272725" stroke="black" stroke-width="1" /><text x="51" y="372.77272727272725" font-size="10" text-anchor="end">1.5</text><line x1="54" y1="328.3636363636364" x2="59" y2="328.3636363636364" stroke="black" stroke-width="1" /><text x="51" y="331.8636363636364" font-size="10" text-anchor="end">2</text><line x1="54" y1="287.4545454545455" x2="59" y2="287.4545454545455" stroke="black" stroke-width="1" /><text x="51" y="290.9545454545455" font-size="10" text-anchor="end">2.5</text><line x1="54" y1="246.54545454545456" x2="59" y2="246.54545454545456" stroke="black" stroke-width="1" /><text x="51" y="250.04545454545456" font-size="10" text-anchor="end">3</text><line x1="54" y1="205.63636363636363" x2="59" y2="205.63636363636363" stroke="black" stroke-width="1" /><text x="51" y="209.13636363636363" font-size="10" text-anchor="end">3.5</text><line x1="54" y1="164.7272727272727" x2="59" y2="164.7272727272727" stroke="black" stroke-width="1" /><text x="51" y="168.2272727272727" font-size="10" text-anchor="end">4</text><line x1="54" y1="123.81818181818181" x2="59" y2="123.81818181818181" stroke="black" stroke-width="1" /><text x="51" y="127.31818181818181" font-size="10" text-anchor="end">4.5</text><line x1="54" y1="82.90909090909093" x2="59" y2="82.90909090909093" stroke="black" stroke-width="1" /><text x="51" y="86.40909090909093" font-size="10" text-anchor="end">5</text><line x1="54" y1="42" x2="59" y2="42" stroke="black" stroke-width="1" /><text x="51" y="45.5" font-size="10" text-anchor="end">5.5</text><text x="336.5" y="534" font-size="14" text-anchor="middle">log₂ fold change</text><text x="14" y="270.5" font-size="14" text-anchor="middle" transform="rotate(-90,14,270.5)">−log₁₀(p-value)</text><text x="336.5" y="21" font-size="16" text-anchor="middle">Volcano Plot — Arrow Labels (top 10)</text><line x1="59" y1="385.5520912638561" x2="659" y2="385.5520912638561" stroke="#888888" stroke-width="1" stroke-dasharray="4 4" /><line x1="299" y1="42" x2="299" y2="492" stroke="#888888" stroke-width="1" stroke-dasharray="4 4" /><line x1="419" y1="42" x2="419" y2="492" stroke="#888888" stroke-width="1" stroke-dasharray="4 4" /><circle cx="377" cy="467.3702730820379" r="3" fill="#aaaaaa" /><circle cx="329" cy="449.2190117497905" r="3" fill="#aaaaaa" /><circle cx="407" cy="410.1818181818182" r="3" fill="#aaaaaa" /><circle cx="347" cy="479.3262032738937" r="3" fill="#aaaaaa" /><circle cx="394.99999999999994" cy="434.8115450997803" r="3" fill="#aaaaaa" /><circle cx="305" cy="424.5892848318285" r="3" fill="#aaaaaa" /><circle cx="365" cy="484.0709989357045" r="3" fill="#aaaaaa" /><circle cx="317" cy="459.4412720177424" r="3" fill="#aaaaaa" /><circle cx="449" cy="434.8115450997803" r="3" fill="#aaaaaa" /><circle cx="293" cy="397.5080214557119" r="3" fill="#aaaaaa" /><circle cx="479" cy="416.6602837675329" r="3" fill="#aaaaaa" /><circle cx="251" cy="402.2528171175227" r="3" fill="#aaaaaa" /><circle cx="437" cy="431.0677504175432" r="3" fill="#aaaaaa" /><circle cx="167" cy="189.3569996452348" r="3" fill="steelblue" /><circle cx="179" cy="221.91572762749246" r="3" fill="steelblue" /><circle cx="209" cy="285.5826481134269" r="3" fill="steelblue" /><circle cx="197" cy="246.54545454545456" r="3" fill="steelblue" /><circle cx="221" cy="271.1751814634166" r="3" fill="steelblue" /><circle cx="239" cy="315.6898396375301" r="3" fill="steelblue" /><circle cx="245" cy="320.4346352993408" r="3" fill="steelblue" /><circle cx="257" cy="342.77110301364667" r="3" fill="steelblue" /><circle cx="263" cy="377.6230901995606" r="3" fill="steelblue" /><circle cx="275" cy="372.8782945377498" r="3" fill="steelblue" /><circle cx="233" cy="295.8049083813787" r="3" fill="steelblue" /><circle cx="269" cy="364.9492934734543" r="3" fill="steelblue" /><circle cx="191.00000000000003" cy="238.61645348115903" r="3" fill="steelblue" /><circle cx="251" cy="334.8421019493511" r="3" fill="steelblue" /><circle cx="569" cy="140.0975458093106" r="3" fill="firebrick" /><circle cx="551" cy="164.7272727272727" r="3" fill="firebrick" /><circle cx="527" cy="271.1751814634166" r="3" fill="firebrick" /><circle cx="509" cy="246.54545454545456" r="3" fill="firebrick" /><circle cx="521" cy="246.54545454545456" r="3" fill="firebrick" /><circle cx="497" cy="285.5826481134269" r="3" fill="firebrick" /><circle cx="485" cy="303.73390944567427" r="3" fill="firebrick" /><circle cx="466.99999999999994" cy="328.3636363636364" r="3" fill="firebrick" /><circle cx="473.00000000000006" cy="320.4346352993408" r="3" fill="firebrick" /><circle cx="454.99999999999994" cy="360.92236434589404" r="3" fill="firebrick" /><circle cx="449" cy="367.4008299316087" r="3" fill="firebrick" /><circle cx="431" cy="377.6230901995606" r="3" fill="firebrick" /><circle cx="503" cy="271.1751814634166" r="3" fill="firebrick" /><circle cx="461" cy="342.77110301364667" r="3" fill="firebrick" /><circle cx="539" cy="189.3569996452348" r="3" fill="firebrick" /><circle cx="515" cy="260.95292119546485" r="3" fill="firebrick" /><circle cx="443" cy="372.8782945377498" r="3" fill="firebrick" /><line x1="583" y1="124.09754580931059" x2="572.9510276472112" y2="135.5820856410693" stroke="#666666" stroke-width="0.8" /><text x="583" y="124.09754580931059" font-size="12" text-anchor="start">AKT1</text><line x1="565" y1="148.7272727272727" x2="554.9510276472112" y2="160.21181255903142" stroke="#666666" stroke-width="0.8" /><text x="565" y="148.7272727272727" font-size="12" text-anchor="start">EGFR</text><line x1="553" y1="173.3569996452348" x2="542.9510276472112" y2="184.84153947699352" stroke="#666666" stroke-width="0.8" /><text x="553" y="173.3569996452348" font-size="12" text-anchor="start">FGFR1</text><line x1="181" y1="173.3569996452348" x2="170.9510276472111" y2="184.84153947699352" stroke="#666666" stroke-width="0.8" /><text x="181" y="173.3569996452348" font-size="12" text-anchor="start">P21</text><line x1="193" y1="205.91572762749246" x2="182.9510276472111" y2="217.40026745925118" stroke="#666666" stroke-width="0.8" /><text x="193" y="205.91572762749246" font-size="12" text-anchor="start">VHL</text><line x1="205.00000000000003" y1="222.61645348115903" x2="194.95102764721113" y2="234.10099331291775" stroke="#666666" stroke-width="0.8" /><text x="205.00000000000003" y="222.61645348115903" font-size="12" text-anchor="start">MLH1</text><line x1="523" y1="230.54545454545456" x2="512.9510276472112" y2="242.02999437721328" stroke="#666666" stroke-width="0.8" /><text x="523" y="230.54545454545456" font-size="12" text-anchor="start">BRCA1</text><line x1="535" y1="230.54545454545456" x2="524.9510276472112" y2="242.02999437721328" stroke="#666666" stroke-width="0.8" /><text x="535" y="230.54545454545456" font-size="12" text-anchor="start">BCL2</text><line x1="211" y1="230.54545454545456" x2="200.9510276472111" y2="242.02999437721328" stroke="#666666" stroke-width="0.8" /><text x="211" y="230.54545454545456" font-size="12" text-anchor="start">BCL2L</text><line x1="529" y1="244.95292119546485" x2="518.9510276472112" y2="256.4374610272236" stroke="#666666" stroke-width="0.8" /><text x="529" y="244.95292119546485" font-size="12" text-anchor="start">ERBB2</text></svg>