<svg xmlns="http://www.w3.org/2000/svg" width="753" height="541" fill="black"><rect width="100%" height="100%" fill="white" /><line x1="59" y1="492" x2="659" y2="492" stroke="black" stroke-width="1" /><line x1="59" y1="42" x2="59" y2="492" stroke="black" stroke-width="1" /><line x1="179" y1="42" x2="179" y2="492" stroke="#ccc" stroke-width="1" /><line x1="259" y1="42" x2="259" y2="492" stroke="#ccc" stroke-width="1" /><line x1="339" y1="42" x2="339" y2="492" stroke="#ccc" stroke-width="1" /><line x1="419" y1="42" x2="419" y2="492" stroke="#ccc" stroke-width="1" /><line x1="498.99999999999994" y1="42" x2="498.99999999999994" y2="492" stroke="#ccc" stroke-width="1" /><line x1="579" y1="42" x2="579" y2="492" stroke="#ccc" stroke-width="1" /><line x1="659" y1="42" x2="659" y2="492" stroke="#ccc" stroke-width="1" /><line x1="59" y1="442" x2="659" y2="442" stroke="#ccc" stroke-width="1" /><line x1="59" y1="392" x2="659" y2="392" stroke="#ccc" stroke-width="1" /><line x1="59" y1="342" x2="659" y2="342" stroke="#ccc" stroke-width="1" /><line x1="59" y1="292" x2="659" y2="292" stroke="#ccc" stroke-width="1" /><line x1="59" y1="242" x2="659" y2="242" stroke="#ccc" stroke-width="1" /><line x1="59" y1="192" x2="659" y2="192" stroke="#ccc" stroke-width="1" /><line x1="59" y1="142" x2="659" y2="142" stroke="#ccc" stroke-width="1" /><line x1="59" y1="92" x2="659" y2="92" stroke="#ccc" stroke-width="1" /><line x1="59" y1="42" x2="659" y2="42" stroke="#ccc" stroke-width="1" /><line x1="99" y1="492" x2="99" y2="497" stroke="black" stroke-width="1" /><text x="99" y="507" font-size="10" text-anchor="middle">-3</text><line x1="179" y1="492" x2="179" y2="497" stroke="black" stroke-width="1" /><text x="179" y="507" font-size="10" text-anchor="middle">-2</text><line x1="259" y1="492" x2="259" y2="497" stroke="black" stroke-width="1" /><text x="259" y="507" font-size="10" text-anchor="middle">-1</text><line x1="339" y1="492" x2="339" y2="497" stroke="black" stroke-width="1" /><text x="339" y="507" font-size="10" text-anchor="middle">0</text><line x1="419" y1="492" x2="419" y2="497" stroke="black" stroke-width="1" /><text x="419" y="507" font-size="10" text-anchor="middle">1</text><line x1="498.99999999999994" y1="492" x2="498.99999999999994" y2="497" stroke="black" stroke-width="1" /><text x="498.99999999999994" y="507" font-size="10" text-anchor="middle">2</text><line x1="579" y1="492" x2="579" y2="497" stroke="black" stroke-width="1" /><text x="579" y="507" font-size="10" text-anchor="middle">3</text><line x1="659" y1="492" x2="659" y2="497" stroke="black" stroke-width="1" /><text x="659" y="507" font-size="10" text-anchor="middle">4</text><line x1="54" y1="492" x2="59" y2="492" stroke="black" stroke-width="1" /><text x="51" y="495.5" font-size="10" text-anchor="end">0</text><line x1="54" y1="442" x2="59" y2="442" stroke="black" stroke-width="1" /><text x="51" y="445.5" font-size="10" text-anchor="end">0.5</text><line x1="54" y1="392" x2="59" y2="392" stroke="black" stroke-width="1" /><text x="51" y="395.5" font-size="10" text-anchor="end">1</text><line x1="54" y1="342" x2="59" y2="342" stroke="black" stroke-width="1" /><text x="51" y="345.5" font-size="10" text-anchor="end">1.5</text><line x1="54" y1="292" x2="59" y2="292" stroke="black" stroke-width="1" /><text x="51" y="295.5" font-size="10" text-anchor="end">2</text><line x1="54" y1="242" x2="59" y2="242" stroke="black" stroke-width="1" /><text x="51" y="245.5" font-size="10" text-anchor="end">2.5</text><line x1="54" y1="192" x2="59" y2="192" stroke="black" stroke-width="1" /><text x="51" y="195.5" font-size="10" text-anchor="end">3</text><line x1="54" y1="142" x2="59" y2="142" stroke="black" stroke-width="1" /><text x="51" y="145.5" font-size="10" text-anchor="end">3.5</text><line x1="54" y1="92" x2="59" y2="92" stroke="black" stroke-width="1" /><text x="51" y="95.5" font-size="10" text-anchor="end">4</text><line x1="54" y1="42" x2="59" y2="42" stroke="black" stroke-width="1" /><text x="51" y="45.5" font-size="10" text-anchor="end">4.5</text><text x="376.5" y="534" font-size="14" text-anchor="middle">log₂ fold change</text><text x="14" y="270.5" font-size="14" text-anchor="middle" transform="rotate(-90,14,270.5)">−log₁₀(p-value)</text><text x="376.5" y="21" font-size="16" text-anchor="middle">Tumour vs. Normal — Volcano Plot</text><line x1="59" y1="361.8970004336019" x2="659" y2="361.8970004336019" stroke="#888888" stroke-width="1" stroke-dasharray="4 4" /><line x1="259" y1="42" x2="259" y2="492" stroke="#888888" stroke-width="1" stroke-dasharray="4 4" /><line x1="419" y1="42" x2="419" y2="492" stroke="#888888" stroke-width="1" stroke-dasharray="4 4" /><circle cx="362.99999999999994" cy="461.8970004336019" r="3" fill="#aaaaaa" /><circle cx="299" cy="439.71212547196626" r="3" fill="#aaaaaa" /><circle cx="403" cy="392" r="3" fill="#aaaaaa" /><circle cx="323" cy="476.50980400142566" r="3" fill="#aaaaaa" /><circle cx="387" cy="422.1029995663981" r="3" fill="#aaaaaa" /><circle cx="267" cy="409.60912590556813" r="3" fill="#aaaaaa" /><circle cx="347" cy="482.3089986991944" r="3" fill="#aaaaaa" /><circle cx="283" cy="452.20599913279625" r="3" fill="#aaaaaa" /><circle cx="459" cy="422.1029995663981" r="3" fill="#aaaaaa" /><circle cx="251" cy="376.5098040014257" r="3" fill="#aaaaaa" /><circle cx="498.99999999999994" cy="399.9181246047625" r="3" fill="#aaaaaa" /><circle cx="195" cy="382.3089986991944" r="3" fill="#aaaaaa" /><circle cx="443" cy="417.5272505103306" r="3" fill="#aaaaaa" /><circle cx="82.99999999999999" cy="122.10299956639813" r="3" fill="steelblue" /><circle cx="99" cy="161.89700043360187" r="3" fill="steelblue" /><circle cx="139" cy="239.71212547196626" r="3" fill="steelblue" /><circle cx="122.99999999999999" cy="192" r="3" fill="steelblue" /><circle cx="155" cy="222.10299956639813" r="3" fill="steelblue" /><circle cx="179" cy="276.50980400142566" r="3" fill="steelblue" /><circle cx="187" cy="282.3089986991944" r="3" fill="steelblue" /><circle cx="203" cy="309.60912590556813" r="3" fill="steelblue" /><circle cx="210.99999999999997" cy="352.20599913279625" r="3" fill="steelblue" /><circle cx="227.00000000000003" cy="346.40680443502754" r="3" fill="steelblue" /><circle cx="171" cy="252.20599913279625" r="3" fill="steelblue" /><circle cx="219" cy="336.7158031342219" r="3" fill="steelblue" /><circle cx="115.00000000000001" cy="182.30899869919438" r="3" fill="steelblue" /><circle cx="195" cy="299.9181246047625" r="3" fill="steelblue" /><circle cx="619" cy="61.897000433601875" r="3" fill="firebrick" /><circle cx="595" cy="92" r="3" fill="firebrick" /><circle cx="563" cy="222.10299956639813" r="3" fill="firebrick" /><circle cx="539" cy="192" r="3" fill="firebrick" /><circle cx="555" cy="192" r="3" fill="firebrick" /><circle cx="523" cy="239.71212547196626" r="3" fill="firebrick" /><circle cx="506.99999999999994" cy="261.8970004336019" r="3" fill="firebrick" /><circle cx="483" cy="292" r="3" fill="firebrick" /><circle cx="491.00000000000006" cy="282.3089986991944" r="3" fill="firebrick" /><circle cx="466.99999999999994" cy="331.79400086720375" r="3" fill="firebrick" /><circle cx="459" cy="339.71212547196626" r="3" fill="firebrick" /><circle cx="435" cy="352.20599913279625" r="3" fill="firebrick" /><circle cx="531" cy="222.10299956639813" r="3" fill="firebrick" /><circle cx="475" cy="309.60912590556813" r="3" fill="firebrick" /><circle cx="579" cy="122.10299956639813" r="3" fill="firebrick" /><circle cx="547" cy="209.60912590556813" r="3" fill="firebrick" /><circle cx="451.00000000000006" cy="346.40680443502754" r="3" fill="firebrick" /><rect x="664" y="32" width="80" height="74" fill="white" /><rect x="664" y="32" width="80" height="74" fill="none" stroke="black" stroke-width="1" /><text x="694" y="47" font-size="12" text-anchor="start">Up</text><circle cx="680" cy="43" r="5" fill="firebrick" /><text x="694" y="65" font-size="12" text-anchor="start">Down</text><circle cx="680" cy="61" r="5" fill="steelblue" /><text x="694" y="83" font-size="12" text-anchor="start">NS</text><circle cx="680" cy="79" r="5" fill="#aaaaaa" /></svg>