<svg xmlns="http://www.w3.org/2000/svg" width="462" height="376"><rect width="100%" height="100%" fill="white" /><line x1="48" y1="328" x2="448" y2="328" stroke="red" /><line x1="48" y1="28" x2="48" y2="328" stroke="green" /><line x1="48" y1="328" x2="48" y2="333" stroke="black" /><text x="48" y="343" font-size="10" text-anchor="middle">0.0</text><line x1="43" y1="328" x2="48" y2="328" stroke="black" /><text x="33" y="328" font-size="10" text-anchor="middle">0.0</text><line x1="128" y1="328" x2="128" y2="333" stroke="black" /><text x="128" y="343" font-size="10" text-anchor="middle">2.0</text><line x1="43" y1="268" x2="48" y2="268" stroke="black" /><text x="33" y="268" font-size="10" text-anchor="middle">8.0</text><line x1="128" y1="28" x2="128" y2="328" stroke="#ccc" /><line x1="48" y1="268" x2="448" y2="268" stroke="#ccc" /><line x1="208" y1="328" x2="208" y2="333" stroke="black" /><text x="208" y="343" font-size="10" text-anchor="middle">4.0</text><line x1="43" y1="208" x2="48" y2="208" stroke="black" /><text x="33" y="208" font-size="10" text-anchor="middle">16.0</text><line x1="208" y1="28" x2="208" y2="328" stroke="#ccc" /><line x1="48" y1="208" x2="448" y2="208" stroke="#ccc" /><line x1="288" y1="328" x2="288" y2="333" stroke="black" /><text x="288" y="343" font-size="10" text-anchor="middle">6.0</text><line x1="43" y1="148" x2="48" y2="148" stroke="black" /><text x="33" y="148" font-size="10" text-anchor="middle">24.0</text><line x1="288" y1="28" x2="288" y2="328" stroke="#ccc" /><line x1="48" y1="148" x2="448" y2="148" stroke="#ccc" /><line x1="368" y1="328" x2="368" y2="333" stroke="black" /><text x="368" y="343" font-size="10" text-anchor="middle">8.0</text><line x1="43" y1="88" x2="48" y2="88" stroke="black" /><text x="33" y="88" font-size="10" text-anchor="middle">32.0</text><line x1="368" y1="28" x2="368" y2="328" stroke="#ccc" /><line x1="48" y1="88" x2="448" y2="88" stroke="#ccc" /><line x1="448" y1="328" x2="448" y2="333" stroke="black" /><text x="448" y="343" font-size="10" text-anchor="middle">10.0</text><line x1="43" y1="28" x2="48" y2="28" stroke="black" /><text x="33" y="28" font-size="10" text-anchor="middle">40.0</text><line x1="448" y1="28" x2="448" y2="328" stroke="#ccc" /><line x1="48" y1="28" x2="448" y2="28" stroke="#ccc" /><text x="231" y="364" font-size="14" text-anchor="middle">The X axis</text><text x="20" y="188" font-size="14" text-anchor="middle" transform="rotate(-90,20,188)">The Y axis</text><text x="231" y="14" font-size="16" text-anchor="middle">Auto-sized Plot</text><circle cx="88" cy="290.5" r="3" fill="blue" /><circle cx="228" cy="301.75" r="3" fill="blue" /><circle cx="248" cy="262.75" r="3" fill="blue" /></svg>