<svg xmlns="http://www.w3.org/2000/svg" width="673" height="541" fill="black"><rect width="100%" height="100%" fill="white" /><line x1="59" y1="492" x2="659" y2="492" stroke="black" stroke-width="1" /><line x1="59" y1="42" x2="59" y2="492" stroke="black" stroke-width="1" /><line x1="139" y1="42" x2="139" y2="492" stroke="#ccc" stroke-width="1" /><line x1="219" y1="42" x2="219" y2="492" stroke="#ccc" stroke-width="1" /><line x1="299" y1="42" x2="299" y2="492" stroke="#ccc" stroke-width="1" /><line x1="379" y1="42" x2="379" y2="492" stroke="#ccc" stroke-width="1" /><line x1="459" y1="42" x2="459" y2="492" stroke="#ccc" stroke-width="1" /><line x1="539" y1="42" x2="539" y2="492" stroke="#ccc" stroke-width="1" /><line x1="619" y1="42" x2="619" y2="492" stroke="#ccc" stroke-width="1" /><line x1="59" y1="435.75" x2="659" y2="435.75" stroke="#ccc" stroke-width="1" /><line x1="59" y1="379.5" x2="659" y2="379.5" stroke="#ccc" stroke-width="1" /><line x1="59" y1="323.25" x2="659" y2="323.25" stroke="#ccc" stroke-width="1" /><line x1="59" y1="267" x2="659" y2="267" stroke="#ccc" stroke-width="1" /><line x1="59" y1="210.75" x2="659" y2="210.75" stroke="#ccc" stroke-width="1" /><line x1="59" y1="154.5" x2="659" y2="154.5" stroke="#ccc" stroke-width="1" /><line x1="59" y1="98.25" x2="659" y2="98.25" stroke="#ccc" stroke-width="1" /><line x1="59" y1="42" x2="659" y2="42" stroke="#ccc" stroke-width="1" /><line x1="59" y1="492" x2="59" y2="497" stroke="black" stroke-width="1" /><text x="59" y="507" font-size="10" text-anchor="middle">-4</text><line x1="139" y1="492" x2="139" y2="497" stroke="black" stroke-width="1" /><text x="139" y="507" font-size="10" text-anchor="middle">-3</text><line x1="219" y1="492" x2="219" y2="497" stroke="black" stroke-width="1" /><text x="219" y="507" font-size="10" text-anchor="middle">-2</text><line x1="299" y1="492" x2="299" y2="497" stroke="black" stroke-width="1" /><text x="299" y="507" font-size="10" text-anchor="middle">-1</text><line x1="379" y1="492" x2="379" y2="497" stroke="black" stroke-width="1" /><text x="379" y="507" font-size="10" text-anchor="middle">0</text><line x1="459" y1="492" x2="459" y2="497" stroke="black" stroke-width="1" /><text x="459" y="507" font-size="10" text-anchor="middle">1</text><line x1="539" y1="492" x2="539" y2="497" stroke="black" stroke-width="1" /><text x="539" y="507" font-size="10" text-anchor="middle">2</text><line x1="619" y1="492" x2="619" y2="497" stroke="black" stroke-width="1" /><text x="619" y="507" font-size="10" text-anchor="middle">3</text><line x1="54" y1="492" x2="59" y2="492" stroke="black" stroke-width="1" /><text x="51" y="495.5" font-size="10" text-anchor="end">0</text><line x1="54" y1="435.75" x2="59" y2="435.75" stroke="black" stroke-width="1" /><text x="51" y="439.25" font-size="10" text-anchor="end">5</text><line x1="54" y1="379.5" x2="59" y2="379.5" stroke="black" stroke-width="1" /><text x="51" y="383" font-size="10" text-anchor="end">10</text><line x1="54" y1="323.25" x2="59" y2="323.25" stroke="black" stroke-width="1" /><text x="51" y="326.75" font-size="10" text-anchor="end">15</text><line x1="54" y1="267" x2="59" y2="267" stroke="black" stroke-width="1" /><text x="51" y="270.5" font-size="10" text-anchor="end">20</text><line x1="54" y1="210.75" x2="59" y2="210.75" stroke="black" stroke-width="1" /><text x="51" y="214.25" font-size="10" text-anchor="end">25</text><line x1="54" y1="154.5" x2="59" y2="154.5" stroke="black" stroke-width="1" /><text x="51" y="158" font-size="10" text-anchor="end">30</text><line x1="54" y1="98.25" x2="59" y2="98.25" stroke="black" stroke-width="1" /><text x="51" y="101.75" font-size="10" text-anchor="end">35</text><line x1="54" y1="42" x2="59" y2="42" stroke="black" stroke-width="1" /><text x="51" y="45.5" font-size="10" text-anchor="end">40</text><text x="336.5" y="534" font-size="14" text-anchor="middle">Value</text><text x="14" y="270.5" font-size="14" text-anchor="middle" transform="rotate(-90,14,270.5)">Count</text><text x="336.5" y="21" font-size="16" text-anchor="middle">Histogram</text><rect x="172.55232232905178" y="469.5" width="20.123468039773087" height="22.5" fill="steelblue" /><rect x="192.67579036882486" y="480.75" width="20.12346803977303" height="11.25" fill="steelblue" /><rect x="212.7992584085979" y="435.75" width="20.123468039773087" height="56.25" fill="steelblue" /><rect x="232.92272644837092" y="469.5" width="20.12346803977306" height="22.5" fill="steelblue" /><rect x="253.04619448814398" y="323.25" width="20.12346803977303" height="168.75" fill="steelblue" /><rect x="273.169662527917" y="323.25" width="20.123468039773115" height="168.75" fill="steelblue" /><rect x="293.29313056769" y="300.75" width="20.123468039773115" height="191.25" fill="steelblue" /><rect x="313.41659860746313" y="300.75" width="20.123468039773" height="191.25" fill="steelblue" /><rect x="333.54006664723613" y="154.5" width="20.12346803977306" height="337.5" fill="steelblue" /><rect x="353.6635346870092" y="154.5" width="20.123468039773" height="337.5" fill="steelblue" /><rect x="373.7870027267822" y="165.75" width="20.123468039773115" height="326.25" fill="steelblue" /><rect x="393.9104707665553" y="165.75" width="20.123468039773" height="326.25" fill="steelblue" /><rect x="414.0339388063283" y="132" width="20.12346803977306" height="360" fill="steelblue" /><rect x="434.15740684610137" y="75.75" width="20.123468039773" height="416.25" fill="steelblue" /><rect x="454.28087488587437" y="379.5" width="20.123468039773" height="112.5" fill="steelblue" /><rect x="474.40434292564737" y="357" width="20.123468039773115" height="135" fill="steelblue" /><rect x="494.5278109654205" y="458.25" width="20.123468039773115" height="33.75" fill="steelblue" /><rect x="514.6512790051936" y="435.75" width="20.123468039772888" height="56.25" fill="steelblue" /><rect x="534.7747470449666" y="424.5" width="20.123468039773" height="67.5" fill="steelblue" /><rect x="554.8982150847396" y="458.25" width="20.123468039773115" height="33.75" fill="steelblue" /></svg>