<svg xmlns="http://www.w3.org/2000/svg" width="673" height="541" fill="black"><rect width="100%" height="100%" fill="white" /><line x1="59" y1="492" x2="659" y2="492" stroke="black" stroke-width="1" /><line x1="59" y1="42" x2="59" y2="492" stroke="black" stroke-width="1" /><line x1="159" y1="42" x2="159" y2="492" stroke="#ccc" stroke-width="1" /><line x1="259" y1="42" x2="259" y2="492" stroke="#ccc" stroke-width="1" /><line x1="359" y1="42" x2="359" y2="492" stroke="#ccc" stroke-width="1" /><line x1="459" y1="42" x2="459" y2="492" stroke="#ccc" stroke-width="1" /><line x1="559" y1="42" x2="559" y2="492" stroke="#ccc" stroke-width="1" /><line x1="659" y1="42" x2="659" y2="492" stroke="#ccc" stroke-width="1" /><line x1="59" y1="442" x2="659" y2="442" stroke="#ccc" stroke-width="1" /><line x1="59" y1="392" x2="659" y2="392" stroke="#ccc" stroke-width="1" /><line x1="59" y1="342" x2="659" y2="342" stroke="#ccc" stroke-width="1" /><line x1="59" y1="292" x2="659" y2="292" stroke="#ccc" stroke-width="1" /><line x1="59" y1="242" x2="659" y2="242" stroke="#ccc" stroke-width="1" /><line x1="59" y1="192" x2="659" y2="192" stroke="#ccc" stroke-width="1" /><line x1="59" y1="142" x2="659" y2="142" stroke="#ccc" stroke-width="1" /><line x1="59" y1="92" x2="659" y2="92" stroke="#ccc" stroke-width="1" /><line x1="59" y1="42" x2="659" y2="42" stroke="#ccc" stroke-width="1" /><line x1="59" y1="492" x2="59" y2="497" stroke="black" stroke-width="1" /><text x="59" y="507" font-size="10" text-anchor="middle">-3</text><line x1="159" y1="492" x2="159" y2="497" stroke="black" stroke-width="1" /><text x="159" y="507" font-size="10" text-anchor="middle">-2</text><line x1="259" y1="492" x2="259" y2="497" stroke="black" stroke-width="1" /><text x="259" y="507" font-size="10" text-anchor="middle">-1</text><line x1="359" y1="492" x2="359" y2="497" stroke="black" stroke-width="1" /><text x="359" y="507" font-size="10" text-anchor="middle">0</text><line x1="459" y1="492" x2="459" y2="497" stroke="black" stroke-width="1" /><text x="459" y="507" font-size="10" text-anchor="middle">1</text><line x1="559" y1="492" x2="559" y2="497" stroke="black" stroke-width="1" /><text x="559" y="507" font-size="10" text-anchor="middle">2</text><line x1="659" y1="492" x2="659" y2="497" stroke="black" stroke-width="1" /><text x="659" y="507" font-size="10" text-anchor="middle">3</text><line x1="54" y1="492" x2="59" y2="492" stroke="black" stroke-width="1" /><text x="51" y="495.5" font-size="10" text-anchor="end">0</text><line x1="54" y1="442" x2="59" y2="442" stroke="black" stroke-width="1" /><text x="51" y="445.5" font-size="10" text-anchor="end">2</text><line x1="54" y1="392" x2="59" y2="392" stroke="black" stroke-width="1" /><text x="51" y="395.5" font-size="10" text-anchor="end">4</text><line x1="54" y1="342" x2="59" y2="342" stroke="black" stroke-width="1" /><text x="51" y="345.5" font-size="10" text-anchor="end">6</text><line x1="54" y1="292" x2="59" y2="292" stroke="black" stroke-width="1" /><text x="51" y="295.5" font-size="10" text-anchor="end">8</text><line x1="54" y1="242" x2="59" y2="242" stroke="black" stroke-width="1" /><text x="51" y="245.5" font-size="10" text-anchor="end">10</text><line x1="54" y1="192" x2="59" y2="192" stroke="black" stroke-width="1" /><text x="51" y="195.5" font-size="10" text-anchor="end">12</text><line x1="54" y1="142" x2="59" y2="142" stroke="black" stroke-width="1" /><text x="51" y="145.5" font-size="10" text-anchor="end">14</text><line x1="54" y1="92" x2="59" y2="92" stroke="black" stroke-width="1" /><text x="51" y="95.5" font-size="10" text-anchor="end">16</text><line x1="54" y1="42" x2="59" y2="42" stroke="black" stroke-width="1" /><text x="51" y="45.5" font-size="10" text-anchor="end">18</text><text x="336.5" y="534" font-size="14" text-anchor="middle">Value</text><text x="14" y="270.5" font-size="14" text-anchor="middle" transform="rotate(-90,14,270.5)">Count</text><text x="336.5" y="21" font-size="16" text-anchor="middle">60 Bins</text><rect x="59" y="492" width="10.000000000000014" height="0" fill="steelblue" /><rect x="69.00000000000001" y="492" width="10" height="0" fill="steelblue" /><rect x="79.00000000000001" y="492" width="10.000000000000014" height="0" fill="steelblue" /><rect x="88.99999999999999" y="492" width="10.000000000000014" height="0" fill="steelblue" /><rect x="99" y="467" width="10" height="25" fill="steelblue" /><rect x="109" y="492" width="10.000000000000014" height="0" fill="steelblue" /><rect x="119.00000000000001" y="467" width="9.999999999999986" height="25" fill="steelblue" /><rect x="129" y="467" width="10.000000000000028" height="25" fill="steelblue" /><rect x="139" y="492" width="10" height="0" fill="steelblue" /><rect x="149" y="442" width="10" height="50" fill="steelblue" /><rect x="159" y="492" width="10" height="0" fill="steelblue" /><rect x="169" y="417" width="10.000000000000028" height="75" fill="steelblue" /><rect x="179.00000000000003" y="467" width="10" height="25" fill="steelblue" /><rect x="189" y="467" width="10.000000000000028" height="25" fill="steelblue" /><rect x="199.00000000000003" y="417" width="10" height="75" fill="steelblue" /><rect x="209" y="392" width="10" height="100" fill="steelblue" /><rect x="219" y="242" width="10.000000000000028" height="250" fill="steelblue" /><rect x="229.00000000000003" y="317" width="10" height="175" fill="steelblue" /><rect x="239" y="392" width="10.000000000000028" height="100" fill="steelblue" /><rect x="249.00000000000003" y="392" width="9.999999999999972" height="100" fill="steelblue" /><rect x="259" y="242" width="10" height="250" fill="steelblue" /><rect x="269" y="342" width="10" height="150" fill="steelblue" /><rect x="279" y="342" width="10" height="150" fill="steelblue" /><rect x="289" y="242" width="10.000000000000057" height="250" fill="steelblue" /><rect x="299.00000000000006" y="217" width="10" height="275" fill="steelblue" /><rect x="309" y="367" width="10" height="125" fill="steelblue" /><rect x="319" y="117" width="10" height="375" fill="steelblue" /><rect x="329" y="67" width="10.000000000000057" height="425" fill="steelblue" /><rect x="339.00000000000006" y="192" width="10" height="300" fill="steelblue" /><rect x="349.00000000000006" y="367" width="10" height="125" fill="steelblue" /><rect x="359" y="142" width="10.000000000000057" height="350" fill="steelblue" /><rect x="369.00000000000006" y="242" width="9.999999999999943" height="250" fill="steelblue" /><rect x="379" y="192" width="10" height="300" fill="steelblue" /><rect x="389" y="192" width="10.000000000000057" height="300" fill="steelblue" /><rect x="399.00000000000006" y="192" width="9.999999999999943" height="300" fill="steelblue" /><rect x="409" y="192" width="10" height="300" fill="steelblue" /><rect x="419" y="117" width="10" height="375" fill="steelblue" /><rect x="429" y="142" width="10.000000000000057" height="350" fill="steelblue" /><rect x="439.00000000000006" y="67" width="9.999999999999943" height="425" fill="steelblue" /><rect x="449" y="317" width="10" height="175" fill="steelblue" /><rect x="459" y="392" width="9.999999999999943" height="100" fill="steelblue" /><rect x="469.00000000000006" y="417" width="10.000000000000057" height="75" fill="steelblue" /><rect x="479.00000000000006" y="317" width="10" height="175" fill="steelblue" /><rect x="489" y="442" width="10.000000000000057" height="50" fill="steelblue" /><rect x="499.00000000000006" y="392" width="9.999999999999943" height="100" fill="steelblue" /><rect x="509" y="492" width="10" height="0" fill="steelblue" /><rect x="519" y="442" width="10.000000000000114" height="50" fill="steelblue" /><rect x="529" y="417" width="10.000000000000114" height="75" fill="steelblue" /><rect x="539.0000000000001" y="467" width="9.999999999999886" height="25" fill="steelblue" /><rect x="549" y="417" width="10" height="75" fill="steelblue" /><rect x="559" y="417" width="10" height="75" fill="steelblue" /><rect x="569" y="467" width="10.000000000000114" height="25" fill="steelblue" /><rect x="579" y="467" width="10" height="25" fill="steelblue" /><rect x="589" y="492" width="10" height="0" fill="steelblue" /><rect x="599" y="442" width="10" height="50" fill="steelblue" /><rect x="609" y="492" width="9.999999999999886" height="0" fill="steelblue" /><rect x="619.0000000000001" y="492" width="10" height="0" fill="steelblue" /><rect x="629" y="492" width="10.000000000000114" height="0" fill="steelblue" /><rect x="639.0000000000001" y="492" width="9.999999999999886" height="0" fill="steelblue" /><rect x="649" y="492" width="10" height="0" fill="steelblue" /></svg>