<svg xmlns="http://www.w3.org/2000/svg" width="673" height="541" fill="black"><rect width="100%" height="100%" fill="white" /><line x1="59" y1="492" x2="659" y2="492" stroke="black" stroke-width="1" /><line x1="59" y1="42" x2="59" y2="492" stroke="black" stroke-width="1" /><line x1="139" y1="42" x2="139" y2="492" stroke="#ccc" stroke-width="1" /><line x1="219" y1="42" x2="219" y2="492" stroke="#ccc" stroke-width="1" /><line x1="299" y1="42" x2="299" y2="492" stroke="#ccc" stroke-width="1" /><line x1="379" y1="42" x2="379" y2="492" stroke="#ccc" stroke-width="1" /><line x1="459" y1="42" x2="459" y2="492" stroke="#ccc" stroke-width="1" /><line x1="539" y1="42" x2="539" y2="492" stroke="#ccc" stroke-width="1" /><line x1="619" y1="42" x2="619" y2="492" stroke="#ccc" stroke-width="1" /><line x1="59" y1="447" x2="659" y2="447" stroke="#ccc" stroke-width="1" /><line x1="59" y1="402" x2="659" y2="402" stroke="#ccc" stroke-width="1" /><line x1="59" y1="357" x2="659" y2="357" stroke="#ccc" stroke-width="1" /><line x1="59" y1="312" x2="659" y2="312" stroke="#ccc" stroke-width="1" /><line x1="59" y1="267" x2="659" y2="267" stroke="#ccc" stroke-width="1" /><line x1="59" y1="222" x2="659" y2="222" stroke="#ccc" stroke-width="1" /><line x1="59" y1="177" x2="659" y2="177" stroke="#ccc" stroke-width="1" /><line x1="59" y1="132" x2="659" y2="132" stroke="#ccc" stroke-width="1" /><line x1="59" y1="87" x2="659" y2="87" stroke="#ccc" stroke-width="1" /><line x1="59" y1="42" x2="659" y2="42" stroke="#ccc" stroke-width="1" /><line x1="59" y1="492" x2="59" y2="497" stroke="black" stroke-width="1" /><text x="59" y="507" font-size="10" text-anchor="middle">-4</text><line x1="139" y1="492" x2="139" y2="497" stroke="black" stroke-width="1" /><text x="139" y="507" font-size="10" text-anchor="middle">-3</text><line x1="219" y1="492" x2="219" y2="497" stroke="black" stroke-width="1" /><text x="219" y="507" font-size="10" text-anchor="middle">-2</text><line x1="299" y1="492" x2="299" y2="497" stroke="black" stroke-width="1" /><text x="299" y="507" font-size="10" text-anchor="middle">-1</text><line x1="379" y1="492" x2="379" y2="497" stroke="black" stroke-width="1" /><text x="379" y="507" font-size="10" text-anchor="middle">0</text><line x1="459" y1="492" x2="459" y2="497" stroke="black" stroke-width="1" /><text x="459" y="507" font-size="10" text-anchor="middle">1</text><line x1="539" y1="492" x2="539" y2="497" stroke="black" stroke-width="1" /><text x="539" y="507" font-size="10" text-anchor="middle">2</text><line x1="619" y1="492" x2="619" y2="497" stroke="black" stroke-width="1" /><text x="619" y="507" font-size="10" text-anchor="middle">3</text><line x1="54" y1="492" x2="59" y2="492" stroke="black" stroke-width="1" /><text x="51" y="495.5" font-size="10" text-anchor="end">0</text><line x1="54" y1="447" x2="59" y2="447" stroke="black" stroke-width="1" /><text x="51" y="450.5" font-size="10" text-anchor="end">2</text><line x1="54" y1="402" x2="59" y2="402" stroke="black" stroke-width="1" /><text x="51" y="405.5" font-size="10" text-anchor="end">4</text><line x1="54" y1="357" x2="59" y2="357" stroke="black" stroke-width="1" /><text x="51" y="360.5" font-size="10" text-anchor="end">6</text><line x1="54" y1="312" x2="59" y2="312" stroke="black" stroke-width="1" /><text x="51" y="315.5" font-size="10" text-anchor="end">8</text><line x1="54" y1="267" x2="59" y2="267" stroke="black" stroke-width="1" /><text x="51" y="270.5" font-size="10" text-anchor="end">10</text><line x1="54" y1="222" x2="59" y2="222" stroke="black" stroke-width="1" /><text x="51" y="225.5" font-size="10" text-anchor="end">12</text><line x1="54" y1="177" x2="59" y2="177" stroke="black" stroke-width="1" /><text x="51" y="180.5" font-size="10" text-anchor="end">14</text><line x1="54" y1="132" x2="59" y2="132" stroke="black" stroke-width="1" /><text x="51" y="135.5" font-size="10" text-anchor="end">16</text><line x1="54" y1="87" x2="59" y2="87" stroke="black" stroke-width="1" /><text x="51" y="90.5" font-size="10" text-anchor="end">18</text><line x1="54" y1="42" x2="59" y2="42" stroke="black" stroke-width="1" /><text x="51" y="45.5" font-size="10" text-anchor="end">20</text><text x="336.5" y="534" font-size="14" text-anchor="middle">Value</text><text x="14" y="270.5" font-size="14" text-anchor="middle" transform="rotate(-90,14,270.5)">Count</text><text x="336.5" y="21" font-size="16" text-anchor="middle">40 Bins</text><rect x="172.55232232905178" y="469.5" width="10.061734019886558" height="22.5" fill="steelblue" /><rect x="182.61405634893833" y="469.5" width="10.0617340198865" height="22.5" fill="steelblue" /><rect x="192.67579036882486" y="492" width="10.0617340198865" height="0" fill="steelblue" /><rect x="202.73752438871136" y="469.5" width="10.0617340198865" height="22.5" fill="steelblue" /><rect x="212.7992584085979" y="447" width="10.061734019886558" height="45" fill="steelblue" /><rect x="222.86099242848442" y="424.5" width="10.0617340198865" height="67.5" fill="steelblue" /><rect x="232.92272644837092" y="469.5" width="10.061734019886558" height="22.5" fill="steelblue" /><rect x="242.98446046825748" y="469.5" width="10.0617340198865" height="22.5" fill="steelblue" /><rect x="253.04619448814398" y="357" width="10.061734019886472" height="135" fill="steelblue" /><rect x="263.10792850803045" y="289.5" width="10.061734019886558" height="202.5" fill="steelblue" /><rect x="273.169662527917" y="289.5" width="10.061734019886558" height="202.5" fill="steelblue" /><rect x="283.2313965478035" y="357" width="10.0617340198865" height="135" fill="steelblue" /><rect x="293.29313056769" y="289.5" width="10.061734019886558" height="202.5" fill="steelblue" /><rect x="303.35486458757657" y="312" width="10.061734019886558" height="180" fill="steelblue" /><rect x="313.41659860746313" y="334.5" width="10.061734019886444" height="157.5" fill="steelblue" /><rect x="323.4783326273496" y="267" width="10.061734019886558" height="225" fill="steelblue" /><rect x="333.54006664723613" y="154.5" width="10.0617340198865" height="337.5" fill="steelblue" /><rect x="343.60180066712263" y="154.5" width="10.061734019886558" height="337.5" fill="steelblue" /><rect x="353.6635346870092" y="87" width="10.0617340198865" height="405" fill="steelblue" /><rect x="363.7252687068957" y="222" width="10.0617340198865" height="270" fill="steelblue" /><rect x="373.7870027267822" y="244.49999999999997" width="10.061734019886615" height="247.50000000000003" fill="steelblue" /><rect x="383.8487367466687" y="87" width="10.061734019886615" height="405" fill="steelblue" /><rect x="393.9104707665553" y="177" width="10.0617340198865" height="315" fill="steelblue" /><rect x="403.9722047864418" y="154.5" width="10.061734019886558" height="337.5" fill="steelblue" /><rect x="414.0339388063283" y="177" width="10.0617340198865" height="315" fill="steelblue" /><rect x="424.0956728262148" y="87" width="10.061734019886558" height="405" fill="steelblue" /><rect x="434.15740684610137" y="64.5" width="10.061734019886558" height="427.5" fill="steelblue" /><rect x="444.2191408659878" y="87" width="10.061734019886558" height="405" fill="steelblue" /><rect x="454.28087488587437" y="334.5" width="10.061734019886558" height="157.5" fill="steelblue" /><rect x="464.3426089057609" y="424.5" width="10.0617340198865" height="67.5" fill="steelblue" /><rect x="474.40434292564737" y="312" width="10.061734019886558" height="180" fill="steelblue" /><rect x="484.46607694553404" y="402" width="10.061734019886444" height="90" fill="steelblue" /><rect x="494.5278109654205" y="469.5" width="10.061734019886558" height="22.5" fill="steelblue" /><rect x="504.58954498530704" y="447" width="10.061734019886558" height="45" fill="steelblue" /><rect x="514.6512790051936" y="424.5" width="10.061734019886444" height="67.5" fill="steelblue" /><rect x="524.71301302508" y="447" width="10.061734019886558" height="45" fill="steelblue" /><rect x="534.7747470449666" y="379.5" width="10.061734019886558" height="112.5" fill="steelblue" /><rect x="544.836481064853" y="469.5" width="10.061734019886558" height="22.5" fill="steelblue" /><rect x="554.8982150847396" y="469.5" width="10.061734019886444" height="22.5" fill="steelblue" /><rect x="564.959949104626" y="447" width="10.061734019886671" height="45" fill="steelblue" /></svg>