<svg xmlns="http://www.w3.org/2000/svg" width="673" height="541" fill="black"><rect width="100%" height="100%" fill="white" /><line x1="59" y1="492" x2="659" y2="492" stroke="black" stroke-width="1" /><line x1="59" y1="42" x2="59" y2="492" stroke="black" stroke-width="1" /><line x1="159" y1="42" x2="159" y2="492" stroke="#ccc" stroke-width="1" /><line x1="259" y1="42" x2="259" y2="492" stroke="#ccc" stroke-width="1" /><line x1="359" y1="42" x2="359" y2="492" stroke="#ccc" stroke-width="1" /><line x1="459" y1="42" x2="459" y2="492" stroke="#ccc" stroke-width="1" /><line x1="559" y1="42" x2="559" y2="492" stroke="#ccc" stroke-width="1" /><line x1="659" y1="42" x2="659" y2="492" stroke="#ccc" stroke-width="1" /><line x1="59" y1="457.38461538461536" x2="659" y2="457.38461538461536" stroke="#ccc" stroke-width="1" /><line x1="59" y1="422.7692307692308" x2="659" y2="422.7692307692308" stroke="#ccc" stroke-width="1" /><line x1="59" y1="388.15384615384613" x2="659" y2="388.15384615384613" stroke="#ccc" stroke-width="1" /><line x1="59" y1="353.53846153846155" x2="659" y2="353.53846153846155" stroke="#ccc" stroke-width="1" /><line x1="59" y1="318.9230769230769" x2="659" y2="318.9230769230769" stroke="#ccc" stroke-width="1" /><line x1="59" y1="284.30769230769226" x2="659" y2="284.30769230769226" stroke="#ccc" stroke-width="1" /><line x1="59" y1="249.6923076923077" x2="659" y2="249.6923076923077" stroke="#ccc" stroke-width="1" /><line x1="59" y1="215.07692307692304" x2="659" y2="215.07692307692304" stroke="#ccc" stroke-width="1" /><line x1="59" y1="180.46153846153845" x2="659" y2="180.46153846153845" stroke="#ccc" stroke-width="1" /><line x1="59" y1="145.8461538461538" x2="659" y2="145.8461538461538" stroke="#ccc" stroke-width="1" /><line x1="59" y1="111.23076923076923" x2="659" y2="111.23076923076923" stroke="#ccc" stroke-width="1" /><line x1="59" y1="76.61538461538458" x2="659" y2="76.61538461538458" stroke="#ccc" stroke-width="1" /><line x1="59" y1="42" x2="659" y2="42" stroke="#ccc" stroke-width="1" /><line x1="59" y1="492" x2="59" y2="497" stroke="black" stroke-width="1" /><text x="59" y="507" font-size="10" text-anchor="middle">-3</text><line x1="159" y1="492" x2="159" y2="497" stroke="black" stroke-width="1" /><text x="159" y="507" font-size="10" text-anchor="middle">-2</text><line x1="259" y1="492" x2="259" y2="497" stroke="black" stroke-width="1" /><text x="259" y="507" font-size="10" text-anchor="middle">-1</text><line x1="359" y1="492" x2="359" y2="497" stroke="black" stroke-width="1" /><text x="359" y="507" font-size="10" text-anchor="middle">0</text><line x1="459" y1="492" x2="459" y2="497" stroke="black" stroke-width="1" /><text x="459" y="507" font-size="10" text-anchor="middle">1</text><line x1="559" y1="492" x2="559" y2="497" stroke="black" stroke-width="1" /><text x="559" y="507" font-size="10" text-anchor="middle">2</text><line x1="659" y1="492" x2="659" y2="497" stroke="black" stroke-width="1" /><text x="659" y="507" font-size="10" text-anchor="middle">3</text><line x1="54" y1="492" x2="59" y2="492" stroke="black" stroke-width="1" /><text x="51" y="495.5" font-size="10" text-anchor="end">0</text><line x1="54" y1="457.38461538461536" x2="59" y2="457.38461538461536" stroke="black" stroke-width="1" /><text x="51" y="460.88461538461536" font-size="10" text-anchor="end">10</text><line x1="54" y1="422.7692307692308" x2="59" y2="422.7692307692308" stroke="black" stroke-width="1" /><text x="51" y="426.2692307692308" font-size="10" text-anchor="end">20</text><line x1="54" y1="388.15384615384613" x2="59" y2="388.15384615384613" stroke="black" stroke-width="1" /><text x="51" y="391.65384615384613" font-size="10" text-anchor="end">30</text><line x1="54" y1="353.53846153846155" x2="59" y2="353.53846153846155" stroke="black" stroke-width="1" /><text x="51" y="357.03846153846155" font-size="10" text-anchor="end">40</text><line x1="54" y1="318.9230769230769" x2="59" y2="318.9230769230769" stroke="black" stroke-width="1" /><text x="51" y="322.4230769230769" font-size="10" text-anchor="end">50</text><line x1="54" y1="284.30769230769226" x2="59" y2="284.30769230769226" stroke="black" stroke-width="1" /><text x="51" y="287.80769230769226" font-size="10" text-anchor="end">60</text><line x1="54" y1="249.6923076923077" x2="59" y2="249.6923076923077" stroke="black" stroke-width="1" /><text x="51" y="253.1923076923077" font-size="10" text-anchor="end">70</text><line x1="54" y1="215.07692307692304" x2="59" y2="215.07692307692304" stroke="black" stroke-width="1" /><text x="51" y="218.57692307692304" font-size="10" text-anchor="end">80</text><line x1="54" y1="180.46153846153845" x2="59" y2="180.46153846153845" stroke="black" stroke-width="1" /><text x="51" y="183.96153846153845" font-size="10" text-anchor="end">90</text><line x1="54" y1="145.8461538461538" x2="59" y2="145.8461538461538" stroke="black" stroke-width="1" /><text x="51" y="149.3461538461538" font-size="10" text-anchor="end">100</text><line x1="54" y1="111.23076923076923" x2="59" y2="111.23076923076923" stroke="black" stroke-width="1" /><text x="51" y="114.73076923076923" font-size="10" text-anchor="end">110</text><line x1="54" y1="76.61538461538458" x2="59" y2="76.61538461538458" stroke="black" stroke-width="1" /><text x="51" y="80.11538461538458" font-size="10" text-anchor="end">120</text><line x1="54" y1="42" x2="59" y2="42" stroke="black" stroke-width="1" /><text x="51" y="45.5" font-size="10" text-anchor="end">130</text><text x="336.5" y="534" font-size="14" text-anchor="middle">Value</text><text x="14" y="270.5" font-size="14" text-anchor="middle" transform="rotate(-90,14,270.5)">Count</text><text x="336.5" y="21" font-size="16" text-anchor="middle">6 Bins</text><rect x="59" y="474.6923076923077" width="100" height="17.30769230769232" fill="steelblue" /><rect x="159" y="363.9230769230769" width="100" height="128.0769230769231" fill="steelblue" /><rect x="259" y="156.23076923076923" width="100" height="335.7692307692308" fill="steelblue" /><rect x="359" y="59.30769230769232" width="100" height="432.6923076923077" fill="steelblue" /><rect x="459" y="391.61538461538464" width="100" height="100.38461538461536" fill="steelblue" /><rect x="559" y="467.7692307692308" width="100" height="24.230769230769226" fill="steelblue" /></svg>