<svg xmlns="http://www.w3.org/2000/svg" width="673" height="541" fill="black"><rect width="100%" height="100%" fill="white" /><line x1="59" y1="492" x2="659" y2="492" stroke="black" stroke-width="1" /><line x1="59" y1="42" x2="59" y2="492" stroke="black" stroke-width="1" /><line x1="139" y1="42" x2="139" y2="492" stroke="#ccc" stroke-width="1" /><line x1="219" y1="42" x2="219" y2="492" stroke="#ccc" stroke-width="1" /><line x1="299" y1="42" x2="299" y2="492" stroke="#ccc" stroke-width="1" /><line x1="379" y1="42" x2="379" y2="492" stroke="#ccc" stroke-width="1" /><line x1="459" y1="42" x2="459" y2="492" stroke="#ccc" stroke-width="1" /><line x1="539" y1="42" x2="539" y2="492" stroke="#ccc" stroke-width="1" /><line x1="619" y1="42" x2="619" y2="492" stroke="#ccc" stroke-width="1" /><line x1="59" y1="447" x2="659" y2="447" stroke="#ccc" stroke-width="1" /><line x1="59" y1="402" x2="659" y2="402" stroke="#ccc" stroke-width="1" /><line x1="59" y1="357" x2="659" y2="357" stroke="#ccc" stroke-width="1" /><line x1="59" y1="312" x2="659" y2="312" stroke="#ccc" stroke-width="1" /><line x1="59" y1="267" x2="659" y2="267" stroke="#ccc" stroke-width="1" /><line x1="59" y1="222" x2="659" y2="222" stroke="#ccc" stroke-width="1" /><line x1="59" y1="177" x2="659" y2="177" stroke="#ccc" stroke-width="1" /><line x1="59" y1="132" x2="659" y2="132" stroke="#ccc" stroke-width="1" /><line x1="59" y1="87" x2="659" y2="87" stroke="#ccc" stroke-width="1" /><line x1="59" y1="42" x2="659" y2="42" stroke="#ccc" stroke-width="1" /><line x1="59" y1="492" x2="59" y2="497" stroke="black" stroke-width="1" /><text x="59" y="507" font-size="10" text-anchor="middle">-4</text><line x1="139" y1="492" x2="139" y2="497" stroke="black" stroke-width="1" /><text x="139" y="507" font-size="10" text-anchor="middle">-3</text><line x1="219" y1="492" x2="219" y2="497" stroke="black" stroke-width="1" /><text x="219" y="507" font-size="10" text-anchor="middle">-2</text><line x1="299" y1="492" x2="299" y2="497" stroke="black" stroke-width="1" /><text x="299" y="507" font-size="10" text-anchor="middle">-1</text><line x1="379" y1="492" x2="379" y2="497" stroke="black" stroke-width="1" /><text x="379" y="507" font-size="10" text-anchor="middle">0</text><line x1="459" y1="492" x2="459" y2="497" stroke="black" stroke-width="1" /><text x="459" y="507" font-size="10" text-anchor="middle">1</text><line x1="539" y1="492" x2="539" y2="497" stroke="black" stroke-width="1" /><text x="539" y="507" font-size="10" text-anchor="middle">2</text><line x1="619" y1="492" x2="619" y2="497" stroke="black" stroke-width="1" /><text x="619" y="507" font-size="10" text-anchor="middle">3</text><line x1="54" y1="492" x2="59" y2="492" stroke="black" stroke-width="1" /><text x="51" y="495.5" font-size="10" text-anchor="end">0</text><line x1="54" y1="447" x2="59" y2="447" stroke="black" stroke-width="1" /><text x="51" y="450.5" font-size="10" text-anchor="end">0.2</text><line x1="54" y1="402" x2="59" y2="402" stroke="black" stroke-width="1" /><text x="51" y="405.5" font-size="10" text-anchor="end">0.4</text><line x1="54" y1="357" x2="59" y2="357" stroke="black" stroke-width="1" /><text x="51" y="360.5" font-size="10" text-anchor="end">0.6</text><line x1="54" y1="312" x2="59" y2="312" stroke="black" stroke-width="1" /><text x="51" y="315.5" font-size="10" text-anchor="end">0.8</text><line x1="54" y1="267" x2="59" y2="267" stroke="black" stroke-width="1" /><text x="51" y="270.5" font-size="10" text-anchor="end">1</text><line x1="54" y1="222" x2="59" y2="222" stroke="black" stroke-width="1" /><text x="51" y="225.5" font-size="10" text-anchor="end">1.2</text><line x1="54" y1="177" x2="59" y2="177" stroke="black" stroke-width="1" /><text x="51" y="180.5" font-size="10" text-anchor="end">1.4</text><line x1="54" y1="132" x2="59" y2="132" stroke="black" stroke-width="1" /><text x="51" y="135.5" font-size="10" text-anchor="end">1.6</text><line x1="54" y1="87" x2="59" y2="87" stroke="black" stroke-width="1" /><text x="51" y="90.5" font-size="10" text-anchor="end">1.8</text><line x1="54" y1="42" x2="59" y2="42" stroke="black" stroke-width="1" /><text x="51" y="45.5" font-size="10" text-anchor="end">2</text><text x="336.5" y="534" font-size="14" text-anchor="middle">Value</text><text x="14" y="270.5" font-size="14" text-anchor="middle" transform="rotate(-90,14,270.5)">Relative frequency</text><text x="336.5" y="21" font-size="16" text-anchor="middle">Normalized Histogram</text><rect x="172.55232232905178" y="479.8378378378378" width="20.123468039773087" height="12.16216216216219" fill="steelblue" /><rect x="192.67579036882486" y="485.9189189189189" width="20.12346803977303" height="6.081081081081095" fill="steelblue" /><rect x="212.7992584085979" y="461.5945945945946" width="20.123468039773087" height="30.405405405405418" fill="steelblue" /><rect x="232.92272644837092" y="479.8378378378378" width="20.12346803977306" height="12.16216216216219" fill="steelblue" /><rect x="253.04619448814398" y="400.78378378378375" width="20.12346803977303" height="91.21621621621625" fill="steelblue" /><rect x="273.169662527917" y="400.78378378378375" width="20.123468039773115" height="91.21621621621625" fill="steelblue" /><rect x="293.29313056769" y="388.6216216216216" width="20.123468039773115" height="103.37837837837839" fill="steelblue" /><rect x="313.41659860746313" y="388.6216216216216" width="20.123468039773" height="103.37837837837839" fill="steelblue" /><rect x="333.54006664723613" y="309.56756756756755" width="20.12346803977306" height="182.43243243243245" fill="steelblue" /><rect x="353.6635346870092" y="309.56756756756755" width="20.123468039773" height="182.43243243243245" fill="steelblue" /><rect x="373.7870027267822" y="315.64864864864865" width="20.123468039773115" height="176.35135135135135" fill="steelblue" /><rect x="393.9104707665553" y="315.64864864864865" width="20.123468039773" height="176.35135135135135" fill="steelblue" /><rect x="414.0339388063283" y="297.4054054054054" width="20.12346803977306" height="194.59459459459458" fill="steelblue" /><rect x="434.15740684610137" y="267" width="20.123468039773" height="225" fill="steelblue" /><rect x="454.28087488587437" y="431.18918918918916" width="20.123468039773" height="60.810810810810835" fill="steelblue" /><rect x="474.40434292564737" y="419.02702702702703" width="20.123468039773115" height="72.97297297297297" fill="steelblue" /><rect x="494.5278109654205" y="473.7567567567568" width="20.123468039773115" height="18.243243243243228" fill="steelblue" /><rect x="514.6512790051936" y="461.5945945945946" width="20.123468039772888" height="30.405405405405418" fill="steelblue" /><rect x="534.7747470449666" y="455.5135135135135" width="20.123468039773" height="36.48648648648651" fill="steelblue" /><rect x="554.8982150847396" y="473.7567567567568" width="20.123468039773115" height="18.243243243243228" fill="steelblue" /></svg>