<svg xmlns="http://www.w3.org/2000/svg" width="673" height="541" fill="black"><rect width="100%" height="100%" fill="white" /><line x1="59" y1="492" x2="659" y2="492" stroke="black" stroke-width="1" /><line x1="59" y1="42" x2="59" y2="492" stroke="black" stroke-width="1" /><line x1="159" y1="42" x2="159" y2="492" stroke="#ccc" stroke-width="1" /><line x1="259" y1="42" x2="259" y2="492" stroke="#ccc" stroke-width="1" /><line x1="359" y1="42" x2="359" y2="492" stroke="#ccc" stroke-width="1" /><line x1="459" y1="42" x2="459" y2="492" stroke="#ccc" stroke-width="1" /><line x1="559" y1="42" x2="559" y2="492" stroke="#ccc" stroke-width="1" /><line x1="659" y1="42" x2="659" y2="492" stroke="#ccc" stroke-width="1" /><line x1="59" y1="447" x2="659" y2="447" stroke="#ccc" stroke-width="1" /><line x1="59" y1="402" x2="659" y2="402" stroke="#ccc" stroke-width="1" /><line x1="59" y1="357" x2="659" y2="357" stroke="#ccc" stroke-width="1" /><line x1="59" y1="312" x2="659" y2="312" stroke="#ccc" stroke-width="1" /><line x1="59" y1="267" x2="659" y2="267" stroke="#ccc" stroke-width="1" /><line x1="59" y1="222" x2="659" y2="222" stroke="#ccc" stroke-width="1" /><line x1="59" y1="177" x2="659" y2="177" stroke="#ccc" stroke-width="1" /><line x1="59" y1="132" x2="659" y2="132" stroke="#ccc" stroke-width="1" /><line x1="59" y1="87" x2="659" y2="87" stroke="#ccc" stroke-width="1" /><line x1="59" y1="42" x2="659" y2="42" stroke="#ccc" stroke-width="1" /><line x1="59" y1="492" x2="59" y2="497" stroke="black" stroke-width="1" /><text x="59" y="507" font-size="10" text-anchor="middle">-3</text><line x1="159" y1="492" x2="159" y2="497" stroke="black" stroke-width="1" /><text x="159" y="507" font-size="10" text-anchor="middle">-2</text><line x1="259" y1="492" x2="259" y2="497" stroke="black" stroke-width="1" /><text x="259" y="507" font-size="10" text-anchor="middle">-1</text><line x1="359" y1="492" x2="359" y2="497" stroke="black" stroke-width="1" /><text x="359" y="507" font-size="10" text-anchor="middle">0</text><line x1="459" y1="492" x2="459" y2="497" stroke="black" stroke-width="1" /><text x="459" y="507" font-size="10" text-anchor="middle">1</text><line x1="559" y1="492" x2="559" y2="497" stroke="black" stroke-width="1" /><text x="559" y="507" font-size="10" text-anchor="middle">2</text><line x1="659" y1="492" x2="659" y2="497" stroke="black" stroke-width="1" /><text x="659" y="507" font-size="10" text-anchor="middle">3</text><line x1="54" y1="492" x2="59" y2="492" stroke="black" stroke-width="1" /><text x="51" y="495.5" font-size="10" text-anchor="end">0</text><line x1="54" y1="447" x2="59" y2="447" stroke="black" stroke-width="1" /><text x="51" y="450.5" font-size="10" text-anchor="end">0.1</text><line x1="54" y1="402" x2="59" y2="402" stroke="black" stroke-width="1" /><text x="51" y="405.5" font-size="10" text-anchor="end">0.2</text><line x1="54" y1="357" x2="59" y2="357" stroke="black" stroke-width="1" /><text x="51" y="360.5" font-size="10" text-anchor="end">0.3</text><line x1="54" y1="312" x2="59" y2="312" stroke="black" stroke-width="1" /><text x="51" y="315.5" font-size="10" text-anchor="end">0.4</text><line x1="54" y1="267" x2="59" y2="267" stroke="black" stroke-width="1" /><text x="51" y="270.5" font-size="10" text-anchor="end">0.5</text><line x1="54" y1="222" x2="59" y2="222" stroke="black" stroke-width="1" /><text x="51" y="225.5" font-size="10" text-anchor="end">0.6</text><line x1="54" y1="177" x2="59" y2="177" stroke="black" stroke-width="1" /><text x="51" y="180.5" font-size="10" text-anchor="end">0.7</text><line x1="54" y1="132" x2="59" y2="132" stroke="black" stroke-width="1" /><text x="51" y="135.5" font-size="10" text-anchor="end">0.8</text><line x1="54" y1="87" x2="59" y2="87" stroke="black" stroke-width="1" /><text x="51" y="90.5" font-size="10" text-anchor="end">0.9</text><line x1="54" y1="42" x2="59" y2="42" stroke="black" stroke-width="1" /><text x="51" y="45.5" font-size="10" text-anchor="end">1</text><text x="336.5" y="534" font-size="14" text-anchor="middle">Value</text><text x="14" y="270.5" font-size="14" text-anchor="middle" transform="rotate(-90,14,270.5)">Relative frequency</text><text x="336.5" y="21" font-size="16" text-anchor="middle">Normalized Histogram</text><rect x="59" y="492" width="20.000000000000014" height="0" fill="steelblue" /><rect x="79.00000000000001" y="492" width="20.000000000000014" height="0" fill="steelblue" /><rect x="99" y="477.9375" width="20.000000000000014" height="14.0625" fill="steelblue" /><rect x="119.00000000000001" y="463.875" width="20.000000000000014" height="28.125" fill="steelblue" /><rect x="139" y="463.875" width="20" height="28.125" fill="steelblue" /><rect x="159" y="449.8125" width="20" height="42.1875" fill="steelblue" /><rect x="179.00000000000003" y="463.875" width="20" height="28.125" fill="steelblue" /><rect x="199.00000000000003" y="393.5625" width="19.99999999999997" height="98.4375" fill="steelblue" /><rect x="219" y="252.9375" width="20" height="239.0625" fill="steelblue" /><rect x="239" y="379.5" width="20" height="112.5" fill="steelblue" /><rect x="259" y="267" width="20" height="225" fill="steelblue" /><rect x="279" y="267" width="20.000000000000057" height="225" fill="steelblue" /><rect x="299.00000000000006" y="267" width="20" height="225" fill="steelblue" /><rect x="319" y="42" width="20.000000000000057" height="450" fill="steelblue" /><rect x="339.00000000000006" y="252.9375" width="20" height="239.0625" fill="steelblue" /><rect x="359" y="154.5" width="20" height="337.5" fill="steelblue" /><rect x="379" y="154.5" width="20.000000000000057" height="337.5" fill="steelblue" /><rect x="399.00000000000006" y="154.5" width="20" height="337.5" fill="steelblue" /><rect x="419" y="84.1875" width="20" height="407.8125" fill="steelblue" /><rect x="439.00000000000006" y="154.5" width="19.999999999999943" height="337.5" fill="steelblue" /><rect x="459" y="393.5625" width="20.000000000000057" height="98.4375" fill="steelblue" /><rect x="479.00000000000006" y="365.4375" width="20" height="126.5625" fill="steelblue" /><rect x="499.00000000000006" y="435.75" width="19.999999999999943" height="56.25" fill="steelblue" /><rect x="519" y="421.6875" width="20.000000000000114" height="70.3125" fill="steelblue" /><rect x="539.0000000000001" y="435.75" width="20" height="56.25" fill="steelblue" /><rect x="559" y="435.75" width="20" height="56.25" fill="steelblue" /><rect x="579" y="477.9375" width="20" height="14.0625" fill="steelblue" /><rect x="599" y="463.875" width="20.000000000000114" height="28.125" fill="steelblue" /><rect x="619.0000000000001" y="492" width="20" height="0" fill="steelblue" /><rect x="639.0000000000001" y="492" width="20" height="0" fill="steelblue" /></svg>