<svg xmlns="http://www.w3.org/2000/svg" width="673" height="541" fill="black"><rect width="100%" height="100%" fill="white" /><line x1="59" y1="492" x2="659" y2="492" stroke="black" stroke-width="1" /><line x1="59" y1="42" x2="59" y2="492" stroke="black" stroke-width="1" /><line x1="134" y1="42" x2="134" y2="492" stroke="#ccc" stroke-width="1" /><line x1="209" y1="42" x2="209" y2="492" stroke="#ccc" stroke-width="1" /><line x1="284" y1="42" x2="284" y2="492" stroke="#ccc" stroke-width="1" /><line x1="359" y1="42" x2="359" y2="492" stroke="#ccc" stroke-width="1" /><line x1="434" y1="42" x2="434" y2="492" stroke="#ccc" stroke-width="1" /><line x1="509" y1="42" x2="509" y2="492" stroke="#ccc" stroke-width="1" /><line x1="584" y1="42" x2="584" y2="492" stroke="#ccc" stroke-width="1" /><line x1="659" y1="42" x2="659" y2="492" stroke="#ccc" stroke-width="1" /><line x1="59" y1="435.75" x2="659" y2="435.75" stroke="#ccc" stroke-width="1" /><line x1="59" y1="379.5" x2="659" y2="379.5" stroke="#ccc" stroke-width="1" /><line x1="59" y1="323.25" x2="659" y2="323.25" stroke="#ccc" stroke-width="1" /><line x1="59" y1="267" x2="659" y2="267" stroke="#ccc" stroke-width="1" /><line x1="59" y1="210.75" x2="659" y2="210.75" stroke="#ccc" stroke-width="1" /><line x1="59" y1="154.5" x2="659" y2="154.5" stroke="#ccc" stroke-width="1" /><line x1="59" y1="98.25" x2="659" y2="98.25" stroke="#ccc" stroke-width="1" /><line x1="59" y1="42" x2="659" y2="42" stroke="#ccc" stroke-width="1" /><line x1="59" y1="492" x2="59" y2="497" stroke="black" stroke-width="1" /><text x="59" y="507" font-size="10" text-anchor="middle">-4</text><line x1="134" y1="492" x2="134" y2="497" stroke="black" stroke-width="1" /><text x="134" y="507" font-size="10" text-anchor="middle">-3</text><line x1="209" y1="492" x2="209" y2="497" stroke="black" stroke-width="1" /><text x="209" y="507" font-size="10" text-anchor="middle">-2</text><line x1="284" y1="492" x2="284" y2="497" stroke="black" stroke-width="1" /><text x="284" y="507" font-size="10" text-anchor="middle">-1</text><line x1="359" y1="492" x2="359" y2="497" stroke="black" stroke-width="1" /><text x="359" y="507" font-size="10" text-anchor="middle">0</text><line x1="434" y1="492" x2="434" y2="497" stroke="black" stroke-width="1" /><text x="434" y="507" font-size="10" text-anchor="middle">1</text><line x1="509" y1="492" x2="509" y2="497" stroke="black" stroke-width="1" /><text x="509" y="507" font-size="10" text-anchor="middle">2</text><line x1="584" y1="492" x2="584" y2="497" stroke="black" stroke-width="1" /><text x="584" y="507" font-size="10" text-anchor="middle">3</text><line x1="659" y1="492" x2="659" y2="497" stroke="black" stroke-width="1" /><text x="659" y="507" font-size="10" text-anchor="middle">4</text><line x1="54" y1="492" x2="59" y2="492" stroke="black" stroke-width="1" /><text x="51" y="495.5" font-size="10" text-anchor="end">0</text><line x1="54" y1="435.75" x2="59" y2="435.75" stroke="black" stroke-width="1" /><text x="51" y="439.25" font-size="10" text-anchor="end">10</text><line x1="54" y1="379.5" x2="59" y2="379.5" stroke="black" stroke-width="1" /><text x="51" y="383" font-size="10" text-anchor="end">20</text><line x1="54" y1="323.25" x2="59" y2="323.25" stroke="black" stroke-width="1" /><text x="51" y="326.75" font-size="10" text-anchor="end">30</text><line x1="54" y1="267" x2="59" y2="267" stroke="black" stroke-width="1" /><text x="51" y="270.5" font-size="10" text-anchor="end">40</text><line x1="54" y1="210.75" x2="59" y2="210.75" stroke="black" stroke-width="1" /><text x="51" y="214.25" font-size="10" text-anchor="end">50</text><line x1="54" y1="154.5" x2="59" y2="154.5" stroke="black" stroke-width="1" /><text x="51" y="158" font-size="10" text-anchor="end">60</text><line x1="54" y1="98.25" x2="59" y2="98.25" stroke="black" stroke-width="1" /><text x="51" y="101.75" font-size="10" text-anchor="end">70</text><line x1="54" y1="42" x2="59" y2="42" stroke="black" stroke-width="1" /><text x="51" y="45.5" font-size="10" text-anchor="end">80</text><text x="336.5" y="534" font-size="14" text-anchor="middle">Value</text><text x="14" y="270.5" font-size="14" text-anchor="middle" transform="rotate(-90,14,270.5)">Count</text><text x="336.5" y="21" font-size="16" text-anchor="middle">Overlapping Distributions</text><rect x="59" y="492" width="37.5" height="0" fill="#4682b480" /><rect x="96.5" y="492" width="37.5" height="0" fill="#4682b480" /><rect x="134" y="430.125" width="37.5" height="61.875" fill="#4682b480" /><rect x="171.5" y="379.5" width="37.5" height="112.5" fill="#4682b480" /><rect x="209" y="182.625" width="37.5" height="309.375" fill="#4682b480" /><rect x="246.5" y="87" width="37.5" height="405" fill="#4682b480" /><rect x="284" y="53.25" width="37.5" height="438.75" fill="#4682b480" /><rect x="321.5" y="261.375" width="37.5" height="230.625" fill="#4682b480" /><rect x="359" y="407.625" width="37.5" height="84.375" fill="#4682b480" /><rect x="396.5" y="463.875" width="37.5" height="28.125" fill="#4682b480" /><rect x="434" y="475.125" width="37.5" height="16.875" fill="#4682b480" /><rect x="471.5" y="492" width="37.5" height="0" fill="#4682b480" /><rect x="509" y="492" width="37.5" height="0" fill="#4682b480" /><rect x="546.5" y="492" width="37.5" height="0" fill="#4682b480" /><rect x="584" y="492" width="37.5" height="0" fill="#4682b480" /><rect x="621.5" y="492" width="37.5" height="0" fill="#4682b480" /><rect x="59" y="492" width="37.5" height="0" fill="#dc143c80" /><rect x="96.5" y="492" width="37.5" height="0" fill="#dc143c80" /><rect x="134" y="492" width="37.5" height="0" fill="#dc143c80" /><rect x="171.5" y="492" width="37.5" height="0" fill="#dc143c80" /><rect x="209" y="492" width="37.5" height="0" fill="#dc143c80" /><rect x="246.5" y="492" width="37.5" height="0" fill="#dc143c80" /><rect x="284" y="475.125" width="37.5" height="16.875" fill="#dc143c80" /><rect x="321.5" y="357" width="37.5" height="135" fill="#dc143c80" /><rect x="359" y="177" width="37.5" height="315" fill="#dc143c80" /><rect x="396.5" y="58.875" width="37.5" height="433.125" fill="#dc143c80" /><rect x="434" y="115.125" width="37.5" height="376.875" fill="#dc143c80" /><rect x="471.5" y="233.25" width="37.5" height="258.75" fill="#dc143c80" /><rect x="509" y="368.25" width="37.5" height="123.75" fill="#dc143c80" /><rect x="546.5" y="475.125" width="37.5" height="16.875" fill="#dc143c80" /><rect x="584" y="480.75" width="37.5" height="11.25" fill="#dc143c80" /><rect x="621.5" y="492" width="37.5" height="0" fill="#dc143c80" /></svg>