<svg xmlns="http://www.w3.org/2000/svg" width="673" height="541" fill="black"><rect width="100%" height="100%" fill="white" /><line x1="59" y1="492" x2="659" y2="492" stroke="black" stroke-width="1" /><line x1="59" y1="42" x2="59" y2="492" stroke="black" stroke-width="1" /><line x1="125.66666666666666" y1="42" x2="125.66666666666666" y2="492" stroke="#ccc" stroke-width="1" /><line x1="192.33333333333331" y1="42" x2="192.33333333333331" y2="492" stroke="#ccc" stroke-width="1" /><line x1="259" y1="42" x2="259" y2="492" stroke="#ccc" stroke-width="1" /><line x1="325.66666666666663" y1="42" x2="325.66666666666663" y2="492" stroke="#ccc" stroke-width="1" /><line x1="392.33333333333337" y1="42" x2="392.33333333333337" y2="492" stroke="#ccc" stroke-width="1" /><line x1="459" y1="42" x2="459" y2="492" stroke="#ccc" stroke-width="1" /><line x1="525.6666666666667" y1="42" x2="525.6666666666667" y2="492" stroke="#ccc" stroke-width="1" /><line x1="592.3333333333333" y1="42" x2="592.3333333333333" y2="492" stroke="#ccc" stroke-width="1" /><line x1="659" y1="42" x2="659" y2="492" stroke="#ccc" stroke-width="1" /><line x1="59" y1="451.09090909090907" x2="659" y2="451.09090909090907" stroke="#ccc" stroke-width="1" /><line x1="59" y1="410.1818181818182" x2="659" y2="410.1818181818182" stroke="#ccc" stroke-width="1" /><line x1="59" y1="369.27272727272725" x2="659" y2="369.27272727272725" stroke="#ccc" stroke-width="1" /><line x1="59" y1="328.3636363636364" x2="659" y2="328.3636363636364" stroke="#ccc" stroke-width="1" /><line x1="59" y1="287.4545454545455" x2="659" y2="287.4545454545455" stroke="#ccc" stroke-width="1" /><line x1="59" y1="246.54545454545456" x2="659" y2="246.54545454545456" stroke="#ccc" stroke-width="1" /><line x1="59" y1="205.63636363636363" x2="659" y2="205.63636363636363" stroke="#ccc" stroke-width="1" /><line x1="59" y1="164.7272727272727" x2="659" y2="164.7272727272727" stroke="#ccc" stroke-width="1" /><line x1="59" y1="123.81818181818181" x2="659" y2="123.81818181818181" stroke="#ccc" stroke-width="1" /><line x1="59" y1="82.90909090909093" x2="659" y2="82.90909090909093" stroke="#ccc" stroke-width="1" /><line x1="59" y1="42" x2="659" y2="42" stroke="#ccc" stroke-width="1" /><line x1="59" y1="492" x2="59" y2="497" stroke="black" stroke-width="1" /><text x="59" y="507" font-size="10" text-anchor="middle">-4</text><line x1="125.66666666666666" y1="492" x2="125.66666666666666" y2="497" stroke="black" stroke-width="1" /><text x="125.66666666666666" y="507" font-size="10" text-anchor="middle">-3</text><line x1="192.33333333333331" y1="492" x2="192.33333333333331" y2="497" stroke="black" stroke-width="1" /><text x="192.33333333333331" y="507" font-size="10" text-anchor="middle">-2</text><line x1="259" y1="492" x2="259" y2="497" stroke="black" stroke-width="1" /><text x="259" y="507" font-size="10" text-anchor="middle">-1</text><line x1="325.66666666666663" y1="492" x2="325.66666666666663" y2="497" stroke="black" stroke-width="1" /><text x="325.66666666666663" y="507" font-size="10" text-anchor="middle">0</text><line x1="392.33333333333337" y1="492" x2="392.33333333333337" y2="497" stroke="black" stroke-width="1" /><text x="392.33333333333337" y="507" font-size="10" text-anchor="middle">1</text><line x1="459" y1="492" x2="459" y2="497" stroke="black" stroke-width="1" /><text x="459" y="507" font-size="10" text-anchor="middle">2</text><line x1="525.6666666666667" y1="492" x2="525.6666666666667" y2="497" stroke="black" stroke-width="1" /><text x="525.6666666666667" y="507" font-size="10" text-anchor="middle">3</text><line x1="592.3333333333333" y1="492" x2="592.3333333333333" y2="497" stroke="black" stroke-width="1" /><text x="592.3333333333333" y="507" font-size="10" text-anchor="middle">4</text><line x1="659" y1="492" x2="659" y2="497" stroke="black" stroke-width="1" /><text x="659" y="507" font-size="10" text-anchor="middle">5</text><line x1="54" y1="492" x2="59" y2="492" stroke="black" stroke-width="1" /><text x="51" y="495.5" font-size="10" text-anchor="end">0</text><line x1="54" y1="451.09090909090907" x2="59" y2="451.09090909090907" stroke="black" stroke-width="1" /><text x="51" y="454.59090909090907" font-size="10" text-anchor="end">5</text><line x1="54" y1="410.1818181818182" x2="59" y2="410.1818181818182" stroke="black" stroke-width="1" /><text x="51" y="413.6818181818182" font-size="10" text-anchor="end">10</text><line x1="54" y1="369.27272727272725" x2="59" y2="369.27272727272725" stroke="black" stroke-width="1" /><text x="51" y="372.77272727272725" font-size="10" text-anchor="end">15</text><line x1="54" y1="328.3636363636364" x2="59" y2="328.3636363636364" stroke="black" stroke-width="1" /><text x="51" y="331.8636363636364" font-size="10" text-anchor="end">20</text><line x1="54" y1="287.4545454545455" x2="59" y2="287.4545454545455" stroke="black" stroke-width="1" /><text x="51" y="290.9545454545455" font-size="10" text-anchor="end">25</text><line x1="54" y1="246.54545454545456" x2="59" y2="246.54545454545456" stroke="black" stroke-width="1" /><text x="51" y="250.04545454545456" font-size="10" text-anchor="end">30</text><line x1="54" y1="205.63636363636363" x2="59" y2="205.63636363636363" stroke="black" stroke-width="1" /><text x="51" y="209.13636363636363" font-size="10" text-anchor="end">35</text><line x1="54" y1="164.7272727272727" x2="59" y2="164.7272727272727" stroke="black" stroke-width="1" /><text x="51" y="168.2272727272727" font-size="10" text-anchor="end">40</text><line x1="54" y1="123.81818181818181" x2="59" y2="123.81818181818181" stroke="black" stroke-width="1" /><text x="51" y="127.31818181818181" font-size="10" text-anchor="end">45</text><line x1="54" y1="82.90909090909093" x2="59" y2="82.90909090909093" stroke="black" stroke-width="1" /><text x="51" y="86.40909090909093" font-size="10" text-anchor="end">50</text><line x1="54" y1="42" x2="59" y2="42" stroke="black" stroke-width="1" /><text x="51" y="45.5" font-size="10" text-anchor="end">55</text><text x="336.5" y="534" font-size="14" text-anchor="middle">Value</text><text x="14" y="270.5" font-size="14" text-anchor="middle" transform="rotate(-90,14,270.5)">Count</text><text x="336.5" y="21" font-size="16" text-anchor="middle">Overlapping Distributions</text><rect x="126.23581087629113" y="467.45454545454544" width="20.464498526324817" height="24.54545454545456" fill="#4682b480" /><rect x="146.70030940261594" y="410.1818181818182" width="20.46449852632483" height="81.81818181818181" fill="#4682b480" /><rect x="167.1648079289408" y="361.0909090909091" width="20.46449852632483" height="130.90909090909088" fill="#4682b480" /><rect x="187.62930645526563" y="385.6363636363636" width="20.46449852632483" height="106.36363636363637" fill="#4682b480" /><rect x="208.09380498159047" y="74.72727272727275" width="20.46449852632483" height="417.27272727272725" fill="#4682b480" /><rect x="228.5583035079153" y="172.90909090909088" width="20.46449852632486" height="319.0909090909091" fill="#4682b480" /><rect x="249.02280203424016" y="74.72727272727275" width="20.46449852632486" height="417.27272727272725" fill="#4682b480" /><rect x="269.487300560565" y="107.4545454545455" width="20.464498526324803" height="384.5454545454545" fill="#4682b480" /><rect x="289.9517990868898" y="246.54545454545456" width="20.464498526324803" height="245.45454545454544" fill="#4682b480" /><rect x="310.4162976132146" y="336.5454545454545" width="20.46449852632486" height="155.4545454545455" fill="#4682b480" /><rect x="330.88079613953954" y="402" width="20.464498526324803" height="90" fill="#4682b480" /><rect x="351.34529466586434" y="442.90909090909093" width="20.46449852632486" height="49.090909090909065" fill="#4682b480" /><rect x="371.8097931921892" y="483.8181818181818" width="20.464498526324746" height="8.181818181818187" fill="#4682b480" /><rect x="392.27429171851395" y="483.8181818181818" width="20.46449852632486" height="8.181818181818187" fill="#4682b480" /><rect x="412.7387902448389" y="475.6363636363636" width="20.464498526324746" height="16.363636363636374" fill="#4682b480" /><rect x="433.20328877116367" y="492" width="20.46449852632486" height="0" fill="#4682b480" /><rect x="453.66778729748853" y="492" width="20.464498526324803" height="0" fill="#4682b480" /><rect x="474.13228582381333" y="492" width="20.464498526324803" height="0" fill="#4682b480" /><rect x="494.59678435013814" y="492" width="20.46449852632486" height="0" fill="#4682b480" /><rect x="515.0612828764631" y="492" width="20.464498526324746" height="0" fill="#4682b480" /><rect x="126.23581087629113" y="492" width="20.464498526324817" height="0" fill="#dc143c80" /><rect x="146.70030940261594" y="492" width="20.46449852632483" height="0" fill="#dc143c80" /><rect x="167.1648079289408" y="492" width="20.46449852632483" height="0" fill="#dc143c80" /><rect x="187.62930645526563" y="492" width="20.46449852632483" height="0" fill="#dc143c80" /><rect x="208.09380498159047" y="492" width="20.46449852632483" height="0" fill="#dc143c80" /><rect x="228.5583035079153" y="492" width="20.46449852632486" height="0" fill="#dc143c80" /><rect x="249.02280203424016" y="492" width="20.46449852632486" height="0" fill="#dc143c80" /><rect x="269.487300560565" y="467.45454545454544" width="20.464498526324803" height="24.54545454545456" fill="#dc143c80" /><rect x="289.9517990868898" y="402" width="20.464498526324803" height="90" fill="#dc143c80" /><rect x="310.4162976132146" y="312" width="20.46449852632486" height="180" fill="#dc143c80" /><rect x="330.88079613953954" y="254.72727272727275" width="20.464498526324803" height="237.27272727272725" fill="#dc143c80" /><rect x="351.34529466586434" y="107.4545454545455" width="20.46449852632486" height="384.5454545454545" fill="#dc143c80" /><rect x="371.8097931921892" y="99.27272727272731" width="20.464498526324746" height="392.7272727272727" fill="#dc143c80" /><rect x="392.27429171851395" y="156.54545454545456" width="20.46449852632486" height="335.45454545454544" fill="#dc143c80" /><rect x="412.7387902448389" y="222" width="20.464498526324746" height="270" fill="#dc143c80" /><rect x="433.20328877116367" y="238.36363636363637" width="20.46449852632486" height="253.63636363636363" fill="#dc143c80" /><rect x="453.66778729748853" y="344.72727272727275" width="20.464498526324803" height="147.27272727272725" fill="#dc143c80" /><rect x="474.13228582381333" y="393.8181818181818" width="20.464498526324803" height="98.18181818181819" fill="#dc143c80" /><rect x="494.59678435013814" y="475.6363636363636" width="20.46449852632486" height="16.363636363636374" fill="#dc143c80" /><rect x="515.0612828764631" y="467.45454545454544" width="20.464498526324746" height="24.54545454545456" fill="#dc143c80" /></svg>