<svg xmlns="http://www.w3.org/2000/svg" width="815" height="545" font-family="DejaVu Sans, Liberation Sans, Arial, sans-serif" fill="black"><rect width="100%" height="100%" fill="white" /><defs><clipPath id="kuva-clip-2"><rect x="59" y="44" width="600" height="450"/></clipPath></defs><line x1="106.02" y1="44" x2="106.02" y2="494" stroke="#cccccc" stroke-width="1" /><line x1="186.37" y1="44" x2="186.37" y2="494" stroke="#cccccc" stroke-width="1" /><line x1="261.54" y1="44" x2="261.54" y2="494" stroke="#cccccc" stroke-width="1" /><line x1="341.89" y1="44" x2="341.89" y2="494" stroke="#cccccc" stroke-width="1" /><line x1="419.65000000000003" y1="44" x2="419.65000000000003" y2="494" stroke="#cccccc" stroke-width="1" /><line x1="500" y1="44" x2="500" y2="494" stroke="#cccccc" stroke-width="1" /><line x1="577.76" y1="44" x2="577.76" y2="494" stroke="#cccccc" stroke-width="1" /><line x1="658.11" y1="44" x2="658.11" y2="494" stroke="#cccccc" stroke-width="1" /><line x1="59" y1="404" x2="659" y2="404" stroke="#cccccc" stroke-width="1" /><line x1="59" y1="314" x2="659" y2="314" stroke="#cccccc" stroke-width="1" /><line x1="59" y1="224" x2="659" y2="224" stroke="#cccccc" stroke-width="1" /><line x1="59" y1="134" x2="659" y2="134" stroke="#cccccc" stroke-width="1" /><line x1="59" y1="44" x2="659" y2="44" stroke="#cccccc" stroke-width="1" /><line x1="59" y1="494" x2="659" y2="494" stroke="#000000" stroke-width="1" /><line x1="59" y1="44" x2="59" y2="494" stroke="#000000" stroke-width="1" /><line x1="106.02" y1="494" x2="106.02" y2="499" stroke="#000000" stroke-width="1" /><text x="106.02" y="511" font-size="12" text-anchor="middle">Jan</text><line x1="186.37" y1="494" x2="186.37" y2="499" stroke="#000000" stroke-width="1" /><text x="186.37" y="511" font-size="12" text-anchor="middle">Feb</text><line x1="261.54" y1="494" x2="261.54" y2="499" stroke="#000000" stroke-width="1" /><text x="261.54" y="511" font-size="12" text-anchor="middle">Mar</text><line x1="341.89" y1="494" x2="341.89" y2="499" stroke="#000000" stroke-width="1" /><text x="341.89" y="511" font-size="12" text-anchor="middle">Apr</text><line x1="419.65000000000003" y1="494" x2="419.65000000000003" y2="499" stroke="#000000" stroke-width="1" /><text x="419.65000000000003" y="511" font-size="12" text-anchor="middle">May</text><line x1="500" y1="494" x2="500" y2="499" stroke="#000000" stroke-width="1" /><text x="500" y="511" font-size="12" text-anchor="middle">Jun</text><line x1="577.76" y1="494" x2="577.76" y2="499" stroke="#000000" stroke-width="1" /><text x="577.76" y="511" font-size="12" text-anchor="middle">Jul</text><line x1="658.11" y1="494" x2="658.11" y2="499" stroke="#000000" stroke-width="1" /><text x="658.11" y="511" font-size="12" text-anchor="middle">Aug</text><line x1="54" y1="494" x2="59" y2="494" stroke="#000000" stroke-width="1" /><text x="51" y="498.2" font-size="12" text-anchor="end">350</text><line x1="54" y1="404" x2="59" y2="404" stroke="#000000" stroke-width="1" /><text x="51" y="408.2" font-size="12" text-anchor="end">400</text><line x1="54" y1="314" x2="59" y2="314" stroke="#000000" stroke-width="1" /><text x="51" y="318.2" font-size="12" text-anchor="end">450</text><line x1="54" y1="224" x2="59" y2="224" stroke="#000000" stroke-width="1" /><text x="51" y="228.20000000000002" font-size="12" text-anchor="end">500</text><line x1="54" y1="134" x2="59" y2="134" stroke="#000000" stroke-width="1" /><text x="51" y="138.20000000000002" font-size="12" text-anchor="end">550</text><line x1="54" y1="44" x2="59" y2="44" stroke="#000000" stroke-width="1" /><text x="51" y="48.2" font-size="12" text-anchor="end">600</text><text x="359" y="538" font-size="14" text-anchor="middle">Month</text><text x="15" y="269" font-size="14" text-anchor="middle" transform="rotate(-90,15,269)">Yield (ng)</text><text x="359" y="27.400000000000002" font-size="18" text-anchor="middle">Library Yield by Protocol — H1 2024</text><g clip-path="url(#kuva-clip-2)"><path d="M 106.02 368 L 186.37 305 L 261.54 263.6 L 341.89 220.4 L 419.65000000000003 168.20000000000002 L 500 137.6 L 577.76 112.4 " stroke="#4682b4" stroke-width="2" fill="none" /><path d="M 106.02 425.6 L 186.37 402.2 L 261.54 377 L 341.89 333.8 L 419.65000000000003 294.2 L 500 278 L 577.76 245.6 " stroke="#ff7f50" stroke-width="2" fill="none" /></g><rect x="664" y="34" width="120" height="56" fill="#ffffff" /><rect x="664" y="34" width="120" height="56" fill="none" stroke="#000000" stroke-width="1" /><text x="694" y="53.2" font-size="12" text-anchor="start">Protocol A</text><line x1="674" y1="49" x2="686" y2="49" stroke="#4682b4" stroke-width="2" /><text x="694" y="71.2" font-size="12" text-anchor="start">Protocol B</text><line x1="674" y1="67" x2="686" y2="67" stroke="#ff7f50" stroke-width="2" /></svg>