<svg xmlns="http://www.w3.org/2000/svg" width="813.8000000000001" height="571.91" font-family="DejaVu Sans, Liberation Sans, Arial, sans-serif" fill="black"><rect width="100%" height="100%" fill="white" /><defs><clipPath id="kuva-clip-1"><rect x="63.800000000000004" y="44" width="600" height="450"/></clipPath></defs><line x1="78.97" y1="44" x2="78.97" y2="494" stroke="#cccccc" stroke-width="1" /><line x1="115.26" y1="44" x2="115.26" y2="494" stroke="#cccccc" stroke-width="1" /><line x1="151.54" y1="44" x2="151.54" y2="494" stroke="#cccccc" stroke-width="1" /><line x1="187.83" y1="44" x2="187.83" y2="494" stroke="#cccccc" stroke-width="1" /><line x1="224.12" y1="44" x2="224.12" y2="494" stroke="#cccccc" stroke-width="1" /><line x1="260.41" y1="44" x2="260.41" y2="494" stroke="#cccccc" stroke-width="1" /><line x1="296.7" y1="44" x2="296.7" y2="494" stroke="#cccccc" stroke-width="1" /><line x1="332.98" y1="44" x2="332.98" y2="494" stroke="#cccccc" stroke-width="1" /><line x1="369.27" y1="44" x2="369.27" y2="494" stroke="#cccccc" stroke-width="1" /><line x1="405.56" y1="44" x2="405.56" y2="494" stroke="#cccccc" stroke-width="1" /><line x1="441.85" y1="44" x2="441.85" y2="494" stroke="#cccccc" stroke-width="1" /><line x1="478.14" y1="44" x2="478.14" y2="494" stroke="#cccccc" stroke-width="1" /><line x1="514.42" y1="44" x2="514.42" y2="494" stroke="#cccccc" stroke-width="1" /><line x1="550.71" y1="44" x2="550.71" y2="494" stroke="#cccccc" stroke-width="1" /><line x1="587" y1="44" x2="587" y2="494" stroke="#cccccc" stroke-width="1" /><line x1="623.29" y1="44" x2="623.29" y2="494" stroke="#cccccc" stroke-width="1" /><line x1="659.58" y1="44" x2="659.58" y2="494" stroke="#cccccc" stroke-width="1" /><line x1="63.800000000000004" y1="419" x2="663.8000000000001" y2="419" stroke="#cccccc" stroke-width="1" /><line x1="63.800000000000004" y1="344" x2="663.8000000000001" y2="344" stroke="#cccccc" stroke-width="1" /><line x1="63.800000000000004" y1="269" x2="663.8000000000001" y2="269" stroke="#cccccc" stroke-width="1" /><line x1="63.800000000000004" y1="194" x2="663.8000000000001" y2="194" stroke="#cccccc" stroke-width="1" /><line x1="63.800000000000004" y1="119" x2="663.8000000000001" y2="119" stroke="#cccccc" stroke-width="1" /><line x1="63.800000000000004" y1="44" x2="663.8000000000001" y2="44" stroke="#cccccc" stroke-width="1" /><line x1="63.800000000000004" y1="494" x2="663.8000000000001" y2="494" stroke="#000000" stroke-width="1" /><line x1="63.800000000000004" y1="44" x2="63.800000000000004" y2="494" stroke="#000000" stroke-width="1" /><line x1="78.97" y1="494" x2="78.97" y2="499" stroke="#000000" stroke-width="1" /><text x="78.97" y="511" font-size="12" text-anchor="end" transform="rotate(-45,78.97,511)">Dec 11</text><line x1="115.26" y1="494" x2="115.26" y2="499" stroke="#000000" stroke-width="1" /><text x="115.26" y="511" font-size="12" text-anchor="end" transform="rotate(-45,115.26,511)">Dec 18</text><line x1="151.54" y1="494" x2="151.54" y2="499" stroke="#000000" stroke-width="1" /><text x="151.54" y="511" font-size="12" text-anchor="end" transform="rotate(-45,151.54,511)">Dec 25</text><line x1="187.83" y1="494" x2="187.83" y2="499" stroke="#000000" stroke-width="1" /><text x="187.83" y="511" font-size="12" text-anchor="end" transform="rotate(-45,187.83,511)">Jan 01</text><line x1="224.12" y1="494" x2="224.12" y2="499" stroke="#000000" stroke-width="1" /><text x="224.12" y="511" font-size="12" text-anchor="end" transform="rotate(-45,224.12,511)">Jan 08</text><line x1="260.41" y1="494" x2="260.41" y2="499" stroke="#000000" stroke-width="1" /><text x="260.41" y="511" font-size="12" text-anchor="end" transform="rotate(-45,260.41,511)">Jan 15</text><line x1="296.7" y1="494" x2="296.7" y2="499" stroke="#000000" stroke-width="1" /><text x="296.7" y="511" font-size="12" text-anchor="end" transform="rotate(-45,296.7,511)">Jan 22</text><line x1="332.98" y1="494" x2="332.98" y2="499" stroke="#000000" stroke-width="1" /><text x="332.98" y="511" font-size="12" text-anchor="end" transform="rotate(-45,332.98,511)">Jan 29</text><line x1="369.27" y1="494" x2="369.27" y2="499" stroke="#000000" stroke-width="1" /><text x="369.27" y="511" font-size="12" text-anchor="end" transform="rotate(-45,369.27,511)">Feb 05</text><line x1="405.56" y1="494" x2="405.56" y2="499" stroke="#000000" stroke-width="1" /><text x="405.56" y="511" font-size="12" text-anchor="end" transform="rotate(-45,405.56,511)">Feb 12</text><line x1="441.85" y1="494" x2="441.85" y2="499" stroke="#000000" stroke-width="1" /><text x="441.85" y="511" font-size="12" text-anchor="end" transform="rotate(-45,441.85,511)">Feb 19</text><line x1="478.14" y1="494" x2="478.14" y2="499" stroke="#000000" stroke-width="1" /><text x="478.14" y="511" font-size="12" text-anchor="end" transform="rotate(-45,478.14,511)">Feb 26</text><line x1="514.42" y1="494" x2="514.42" y2="499" stroke="#000000" stroke-width="1" /><text x="514.42" y="511" font-size="12" text-anchor="end" transform="rotate(-45,514.42,511)">Mar 04</text><line x1="550.71" y1="494" x2="550.71" y2="499" stroke="#000000" stroke-width="1" /><text x="550.71" y="511" font-size="12" text-anchor="end" transform="rotate(-45,550.71,511)">Mar 11</text><line x1="587" y1="494" x2="587" y2="499" stroke="#000000" stroke-width="1" /><text x="587" y="511" font-size="12" text-anchor="end" transform="rotate(-45,587,511)">Mar 18</text><line x1="623.29" y1="494" x2="623.29" y2="499" stroke="#000000" stroke-width="1" /><text x="623.29" y="511" font-size="12" text-anchor="end" transform="rotate(-45,623.29,511)">Mar 25</text><line x1="659.58" y1="494" x2="659.58" y2="499" stroke="#000000" stroke-width="1" /><text x="659.58" y="511" font-size="12" text-anchor="end" transform="rotate(-45,659.58,511)">Apr 01</text><line x1="58.800000000000004" y1="494" x2="63.800000000000004" y2="494" stroke="#000000" stroke-width="1" /><text x="55.800000000000004" y="498.2" font-size="12" text-anchor="end">80</text><line x1="58.800000000000004" y1="419" x2="63.800000000000004" y2="419" stroke="#000000" stroke-width="1" /><text x="55.800000000000004" y="423.2" font-size="12" text-anchor="end">82.5</text><line x1="58.800000000000004" y1="344" x2="63.800000000000004" y2="344" stroke="#000000" stroke-width="1" /><text x="55.800000000000004" y="348.2" font-size="12" text-anchor="end">85</text><line x1="58.800000000000004" y1="269" x2="63.800000000000004" y2="269" stroke="#000000" stroke-width="1" /><text x="55.800000000000004" y="273.2" font-size="12" text-anchor="end">87.5</text><line x1="58.800000000000004" y1="194" x2="63.800000000000004" y2="194" stroke="#000000" stroke-width="1" /><text x="55.800000000000004" y="198.20000000000002" font-size="12" text-anchor="end">90</text><line x1="58.800000000000004" y1="119" x2="63.800000000000004" y2="119" stroke="#000000" stroke-width="1" /><text x="55.800000000000004" y="123.2" font-size="12" text-anchor="end">92.5</text><line x1="58.800000000000004" y1="44" x2="63.800000000000004" y2="44" stroke="#000000" stroke-width="1" /><text x="55.800000000000004" y="48.2" font-size="12" text-anchor="end">95</text><text x="363.8" y="564.91" font-size="14" text-anchor="middle">Date</text><text x="15" y="269" font-size="14" text-anchor="middle" transform="rotate(-90,15,269)">Quality Score</text><text x="363.8" y="27.400000000000002" font-size="18" text-anchor="middle">Instrument Quality Scores — Q1 2024</text><g clip-path="url(#kuva-clip-1)"><circle cx="198.20000000000002" cy="278" r="5" fill="#4682b4" /><circle cx="224.12" cy="221" r="5" fill="#4682b4" /><circle cx="260.41" cy="323" r="5" fill="#4682b4" /><circle cx="296.7" cy="155" r="5" fill="#4682b4" /><circle cx="332.98" cy="236" r="5" fill="#4682b4" /><circle cx="369.27" cy="188" r="5" fill="#4682b4" /><circle cx="405.56" cy="302" r="5" fill="#4682b4" /><circle cx="441.85" cy="110" r="5" fill="#4682b4" /><circle cx="478.14" cy="224" r="5" fill="#4682b4" /><circle cx="514.42" cy="101" r="5" fill="#4682b4" /><circle cx="550.71" cy="173" r="5" fill="#4682b4" /><circle cx="587" cy="68" r="5" fill="#4682b4" /><circle cx="623.29" cy="140" r="5" fill="#4682b4" /><circle cx="203.38" cy="431" r="5" fill="#ff7f50" /><circle cx="234.49" cy="365" r="5" fill="#ff7f50" /><circle cx="270.78000000000003" cy="437" r="5" fill="#ff7f50" /><circle cx="307.06" cy="326" r="5" fill="#ff7f50" /><circle cx="343.35" cy="398" r="5" fill="#ff7f50" /><circle cx="379.64" cy="311" r="5" fill="#ff7f50" /><circle cx="415.93" cy="350" r="5" fill="#ff7f50" /><circle cx="452.22" cy="269" r="5" fill="#ff7f50" /><circle cx="488.5" cy="317" r="5" fill="#ff7f50" /><circle cx="524.79" cy="245" r="5" fill="#ff7f50" /><circle cx="561.08" cy="293" r="5" fill="#ff7f50" /><circle cx="597.37" cy="212" r="5" fill="#ff7f50" /><circle cx="633.66" cy="281" r="5" fill="#ff7f50" /></g><rect x="668.8000000000001" y="34" width="136" height="56" fill="#ffffff" /><rect x="668.8000000000001" y="34" width="136" height="56" fill="none" stroke="#000000" stroke-width="1" /><text x="698.8000000000001" y="53.2" font-size="12" text-anchor="start">Instrument A</text><circle cx="683.8000000000001" cy="49" r="5" fill="#4682b4" /><text x="698.8000000000001" y="71.2" font-size="12" text-anchor="start">Instrument B</text><circle cx="683.8000000000001" cy="67" r="5" fill="#ff7f50" /></svg>