<svg xmlns="http://www.w3.org/2000/svg" width="753" height="541" fill="black"><rect width="100%" height="100%" fill="white" /><line x1="59" y1="492" x2="659" y2="492" stroke="black" stroke-width="1" /><line x1="59" y1="42" x2="59" y2="492" stroke="black" stroke-width="1" /><text x="49" y="405.5" font-size="10" text-anchor="end">prot_1</text><line x1="54" y1="402" x2="59" y2="402" stroke="black" stroke-width="1" /><text x="49" y="315.5" font-size="10" text-anchor="end">prot_2</text><line x1="54" y1="312" x2="59" y2="312" stroke="black" stroke-width="1" /><text x="49" y="225.5" font-size="10" text-anchor="end">prot_3</text><line x1="54" y1="222" x2="59" y2="222" stroke="black" stroke-width="1" /><text x="49" y="135.5" font-size="10" text-anchor="end">prot_4</text><line x1="54" y1="132" x2="59" y2="132" stroke="black" stroke-width="1" /><text x="49" y="45.5" font-size="10" text-anchor="end">prot_5</text><line x1="54" y1="42" x2="59" y2="42" stroke="black" stroke-width="1" /><line x1="59" y1="492" x2="59" y2="497" stroke="black" stroke-width="1" /><text x="59" y="507" font-size="10" text-anchor="middle">0</text><line x1="125.66666666666666" y1="492" x2="125.66666666666666" y2="497" stroke="black" stroke-width="1" /><text x="125.66666666666666" y="507" font-size="10" text-anchor="middle">5</text><line x1="192.33333333333331" y1="492" x2="192.33333333333331" y2="497" stroke="black" stroke-width="1" /><text x="192.33333333333331" y="507" font-size="10" text-anchor="middle">10</text><line x1="259" y1="492" x2="259" y2="497" stroke="black" stroke-width="1" /><text x="259" y="507" font-size="10" text-anchor="middle">15</text><line x1="325.66666666666663" y1="492" x2="325.66666666666663" y2="497" stroke="black" stroke-width="1" /><text x="325.66666666666663" y="507" font-size="10" text-anchor="middle">20</text><line x1="392.33333333333337" y1="492" x2="392.33333333333337" y2="497" stroke="black" stroke-width="1" /><text x="392.33333333333337" y="507" font-size="10" text-anchor="middle">25</text><line x1="459" y1="492" x2="459" y2="497" stroke="black" stroke-width="1" /><text x="459" y="507" font-size="10" text-anchor="middle">30</text><line x1="525.6666666666667" y1="492" x2="525.6666666666667" y2="497" stroke="black" stroke-width="1" /><text x="525.6666666666667" y="507" font-size="10" text-anchor="middle">35</text><line x1="592.3333333333333" y1="492" x2="592.3333333333333" y2="497" stroke="black" stroke-width="1" /><text x="592.3333333333333" y="507" font-size="10" text-anchor="middle">40</text><line x1="659" y1="492" x2="659" y2="497" stroke="black" stroke-width="1" /><text x="659" y="507" font-size="10" text-anchor="middle">45</text><text x="376.5" y="21" font-size="16" text-anchor="middle">Brick Plot — Protein Secondary Structure</text><rect x="59" y="402" width="12.66666666666666" height="85.5" fill="#aaaaaa" /><rect x="72.33333333333333" y="402" width="12.666666666666675" height="85.5" fill="#aaaaaa" /><rect x="85.66666666666667" y="402" width="12.66666666666666" height="85.5" fill="#aaaaaa" /><rect x="99" y="402" width="12.666666666666675" height="85.5" fill="#aaaaaa" /><rect x="112.33333333333334" y="402" width="12.666666666666648" height="85.5" fill="#aaaaaa" /><rect x="125.66666666666666" y="402" width="12.666666666666675" height="85.5" fill="steelblue" /><rect x="139" y="402" width="12.666666666666648" height="85.5" fill="steelblue" /><rect x="152.33333333333331" y="402" width="12.666666666666702" height="85.5" fill="steelblue" /><rect x="165.66666666666669" y="402" width="12.666666666666648" height="85.5" fill="steelblue" /><rect x="179" y="402" width="12.666666666666648" height="85.5" fill="steelblue" /><rect x="192.33333333333331" y="402" width="12.666666666666675" height="85.5" fill="steelblue" /><rect x="205.66666666666666" y="402" width="12.666666666666675" height="85.5" fill="steelblue" /><rect x="219" y="402" width="12.666666666666648" height="85.5" fill="steelblue" /><rect x="232.33333333333331" y="402" width="12.666666666666675" height="85.5" fill="steelblue" /><rect x="245.66666666666666" y="402" width="12.666666666666675" height="85.5" fill="steelblue" /><rect x="259" y="402" width="12.666666666666702" height="85.5" fill="#aaaaaa" /><rect x="272.33333333333337" y="402" width="12.666666666666593" height="85.5" fill="#aaaaaa" /><rect x="285.66666666666663" y="402" width="12.666666666666702" height="85.5" fill="#aaaaaa" /><rect x="299" y="402" width="12.666666666666702" height="85.5" fill="#aaaaaa" /><rect x="312.33333333333337" y="402" width="12.666666666666593" height="85.5" fill="firebrick" /><rect x="325.66666666666663" y="402" width="12.666666666666702" height="85.5" fill="firebrick" /><rect x="339" y="402" width="12.666666666666648" height="85.5" fill="firebrick" /><rect x="352.3333333333333" y="402" width="12.666666666666648" height="85.5" fill="firebrick" /><rect x="365.66666666666663" y="402" width="12.666666666666702" height="85.5" fill="firebrick" /><rect x="379" y="402" width="12.666666666666702" height="85.5" fill="firebrick" /><rect x="392.33333333333337" y="402" width="12.666666666666593" height="85.5" fill="#aaaaaa" /><rect x="405.66666666666663" y="402" width="12.666666666666702" height="85.5" fill="#aaaaaa" /><rect x="419" y="402" width="12.666666666666648" height="85.5" fill="#aaaaaa" /><rect x="432.3333333333333" y="402" width="12.666666666666702" height="85.5" fill="seagreen" /><rect x="445.6666666666667" y="402" width="12.666666666666648" height="85.5" fill="seagreen" /><rect x="459" y="402" width="12.666666666666648" height="85.5" fill="#aaaaaa" /><rect x="472.3333333333333" y="402" width="12.666666666666702" height="85.5" fill="#aaaaaa" /><rect x="485.6666666666667" y="402" width="12.666666666666593" height="85.5" fill="#aaaaaa" /><rect x="498.99999999999994" y="402" width="12.666666666666648" height="85.5" fill="firebrick" /><rect x="512.3333333333333" y="402" width="12.66666666666681" height="85.5" fill="firebrick" /><rect x="525.6666666666667" y="402" width="12.666666666666593" height="85.5" fill="firebrick" /><rect x="539" y="402" width="12.666666666666593" height="85.5" fill="firebrick" /><rect x="552.3333333333333" y="402" width="12.66666666666681" height="85.5" fill="firebrick" /><rect x="565.6666666666667" y="402" width="12.666666666666593" height="85.5" fill="#aaaaaa" /><rect x="579" y="402" width="12.666666666666593" height="85.5" fill="#aaaaaa" /><rect x="592.3333333333333" y="402" width="12.666666666666702" height="85.5" fill="#aaaaaa" /><rect x="59" y="312" width="12.66666666666666" height="85.5" fill="#aaaaaa" /><rect x="72.33333333333333" y="312" width="12.666666666666675" height="85.5" fill="#aaaaaa" /><rect x="85.66666666666667" y="312" width="12.66666666666666" height="85.5" fill="#aaaaaa" /><rect x="99" y="312" width="12.666666666666675" height="85.5" fill="steelblue" /><rect x="112.33333333333334" y="312" width="12.666666666666648" height="85.5" fill="steelblue" /><rect x="125.66666666666666" y="312" width="12.666666666666675" height="85.5" fill="steelblue" /><rect x="139" y="312" width="12.666666666666648" height="85.5" fill="steelblue" /><rect x="152.33333333333331" y="312" width="12.666666666666702" height="85.5" fill="steelblue" /><rect x="165.66666666666669" y="312" width="12.666666666666648" height="85.5" fill="steelblue" /><rect x="179" y="312" width="12.666666666666648" height="85.5" fill="steelblue" /><rect x="192.33333333333331" y="312" width="12.666666666666675" height="85.5" fill="steelblue" /><rect x="205.66666666666666" y="312" width="12.666666666666675" height="85.5" fill="steelblue" /><rect x="219" y="312" width="12.666666666666648" height="85.5" fill="steelblue" /><rect x="232.33333333333331" y="312" width="12.666666666666675" height="85.5" fill="steelblue" /><rect x="245.66666666666666" y="312" width="12.666666666666675" height="85.5" fill="steelblue" /><rect x="259" y="312" width="12.666666666666702" height="85.5" fill="steelblue" /><rect x="272.33333333333337" y="312" width="12.666666666666593" height="85.5" fill="#aaaaaa" /><rect x="285.66666666666663" y="312" width="12.666666666666702" height="85.5" fill="#aaaaaa" /><rect x="299" y="312" width="12.666666666666702" height="85.5" fill="#aaaaaa" /><rect x="312.33333333333337" y="312" width="12.666666666666593" height="85.5" fill="#aaaaaa" /><rect x="325.66666666666663" y="312" width="12.666666666666702" height="85.5" fill="firebrick" /><rect x="339" y="312" width="12.666666666666648" height="85.5" fill="firebrick" /><rect x="352.3333333333333" y="312" width="12.666666666666648" height="85.5" fill="firebrick" /><rect x="365.66666666666663" y="312" width="12.666666666666702" height="85.5" fill="firebrick" /><rect x="379" y="312" width="12.666666666666702" height="85.5" fill="firebrick" /><rect x="392.33333333333337" y="312" width="12.666666666666593" height="85.5" fill="firebrick" /><rect x="405.66666666666663" y="312" width="12.666666666666702" height="85.5" fill="firebrick" /><rect x="419" y="312" width="12.666666666666648" height="85.5" fill="#aaaaaa" /><rect x="432.3333333333333" y="312" width="12.666666666666702" height="85.5" fill="#aaaaaa" /><rect x="445.6666666666667" y="312" width="12.666666666666648" height="85.5" fill="seagreen" /><rect x="459" y="312" width="12.666666666666648" height="85.5" fill="#aaaaaa" /><rect x="472.3333333333333" y="312" width="12.666666666666702" height="85.5" fill="#aaaaaa" /><rect x="485.6666666666667" y="312" width="12.666666666666593" height="85.5" fill="#aaaaaa" /><rect x="498.99999999999994" y="312" width="12.666666666666648" height="85.5" fill="firebrick" /><rect x="512.3333333333333" y="312" width="12.66666666666681" height="85.5" fill="firebrick" /><rect x="525.6666666666667" y="312" width="12.666666666666593" height="85.5" fill="firebrick" /><rect x="539" y="312" width="12.666666666666593" height="85.5" fill="firebrick" /><rect x="552.3333333333333" y="312" width="12.66666666666681" height="85.5" fill="firebrick" /><rect x="565.6666666666667" y="312" width="12.666666666666593" height="85.5" fill="#aaaaaa" /><rect x="579" y="312" width="12.666666666666593" height="85.5" fill="#aaaaaa" /><rect x="592.3333333333333" y="312" width="12.666666666666702" height="85.5" fill="#aaaaaa" /><rect x="59" y="222" width="12.66666666666666" height="85.5" fill="#aaaaaa" /><rect x="72.33333333333333" y="222" width="12.666666666666675" height="85.5" fill="#aaaaaa" /><rect x="85.66666666666667" y="222" width="12.66666666666666" height="85.5" fill="#aaaaaa" /><rect x="99" y="222" width="12.666666666666675" height="85.5" fill="#aaaaaa" /><rect x="112.33333333333334" y="222" width="12.666666666666648" height="85.5" fill="steelblue" /><rect x="125.66666666666666" y="222" width="12.666666666666675" height="85.5" fill="steelblue" /><rect x="139" y="222" width="12.666666666666648" height="85.5" fill="steelblue" /><rect x="152.33333333333331" y="222" width="12.666666666666702" height="85.5" fill="steelblue" /><rect x="165.66666666666669" y="222" width="12.666666666666648" height="85.5" fill="steelblue" /><rect x="179" y="222" width="12.666666666666648" height="85.5" fill="steelblue" /><rect x="192.33333333333331" y="222" width="12.666666666666675" height="85.5" fill="steelblue" /><rect x="205.66666666666666" y="222" width="12.666666666666675" height="85.5" fill="steelblue" /><rect x="219" y="222" width="12.666666666666648" height="85.5" fill="steelblue" /><rect x="232.33333333333331" y="222" width="12.666666666666675" height="85.5" fill="#aaaaaa" /><rect x="245.66666666666666" y="222" width="12.666666666666675" height="85.5" fill="#aaaaaa" /><rect x="259" y="222" width="12.666666666666702" height="85.5" fill="#aaaaaa" /><rect x="272.33333333333337" y="222" width="12.666666666666593" height="85.5" fill="#aaaaaa" /><rect x="285.66666666666663" y="222" width="12.666666666666702" height="85.5" fill="#aaaaaa" /><rect x="299" y="222" width="12.666666666666702" height="85.5" fill="firebrick" /><rect x="312.33333333333337" y="222" width="12.666666666666593" height="85.5" fill="firebrick" /><rect x="325.66666666666663" y="222" width="12.666666666666702" height="85.5" fill="firebrick" /><rect x="339" y="222" width="12.666666666666648" height="85.5" fill="firebrick" /><rect x="352.3333333333333" y="222" width="12.666666666666648" height="85.5" fill="firebrick" /><rect x="365.66666666666663" y="222" width="12.666666666666702" height="85.5" fill="firebrick" /><rect x="379" y="222" width="12.666666666666702" height="85.5" fill="#aaaaaa" /><rect x="392.33333333333337" y="222" width="12.666666666666593" height="85.5" fill="#aaaaaa" /><rect x="405.66666666666663" y="222" width="12.666666666666702" height="85.5" fill="#aaaaaa" /><rect x="419" y="222" width="12.666666666666648" height="85.5" fill="seagreen" /><rect x="432.3333333333333" y="222" width="12.666666666666702" height="85.5" fill="seagreen" /><rect x="445.6666666666667" y="222" width="12.666666666666648" height="85.5" fill="#aaaaaa" /><rect x="459" y="222" width="12.666666666666648" height="85.5" fill="#aaaaaa" /><rect x="472.3333333333333" y="222" width="12.666666666666702" height="85.5" fill="#aaaaaa" /><rect x="485.6666666666667" y="222" width="12.666666666666593" height="85.5" fill="firebrick" /><rect x="498.99999999999994" y="222" width="12.666666666666648" height="85.5" fill="firebrick" /><rect x="512.3333333333333" y="222" width="12.66666666666681" height="85.5" fill="firebrick" /><rect x="525.6666666666667" y="222" width="12.666666666666593" height="85.5" fill="firebrick" /><rect x="539" y="222" width="12.666666666666593" height="85.5" fill="firebrick" /><rect x="552.3333333333333" y="222" width="12.66666666666681" height="85.5" fill="firebrick" /><rect x="565.6666666666667" y="222" width="12.666666666666593" height="85.5" fill="#aaaaaa" /><rect x="579" y="222" width="12.666666666666593" height="85.5" fill="#aaaaaa" /><rect x="592.3333333333333" y="222" width="12.666666666666702" height="85.5" fill="#aaaaaa" /><rect x="59" y="132" width="12.66666666666666" height="85.5" fill="#aaaaaa" /><rect x="72.33333333333333" y="132" width="12.666666666666675" height="85.5" fill="#aaaaaa" /><rect x="85.66666666666667" y="132" width="12.66666666666666" height="85.5" fill="#aaaaaa" /><rect x="99" y="132" width="12.666666666666675" height="85.5" fill="steelblue" /><rect x="112.33333333333334" y="132" width="12.666666666666648" height="85.5" fill="steelblue" /><rect x="125.66666666666666" y="132" width="12.666666666666675" height="85.5" fill="steelblue" /><rect x="139" y="132" width="12.666666666666648" height="85.5" fill="steelblue" /><rect x="152.33333333333331" y="132" width="12.666666666666702" height="85.5" fill="steelblue" /><rect x="165.66666666666669" y="132" width="12.666666666666648" height="85.5" fill="steelblue" /><rect x="179" y="132" width="12.666666666666648" height="85.5" fill="steelblue" /><rect x="192.33333333333331" y="132" width="12.666666666666675" height="85.5" fill="steelblue" /><rect x="205.66666666666666" y="132" width="12.666666666666675" height="85.5" fill="steelblue" /><rect x="219" y="132" width="12.666666666666648" height="85.5" fill="steelblue" /><rect x="232.33333333333331" y="132" width="12.666666666666675" height="85.5" fill="steelblue" /><rect x="245.66666666666666" y="132" width="12.666666666666675" height="85.5" fill="steelblue" /><rect x="259" y="132" width="12.666666666666702" height="85.5" fill="#aaaaaa" /><rect x="272.33333333333337" y="132" width="12.666666666666593" height="85.5" fill="#aaaaaa" /><rect x="285.66666666666663" y="132" width="12.666666666666702" height="85.5" fill="#aaaaaa" /><rect x="299" y="132" width="12.666666666666702" height="85.5" fill="#aaaaaa" /><rect x="312.33333333333337" y="132" width="12.666666666666593" height="85.5" fill="#aaaaaa" /><rect x="325.66666666666663" y="132" width="12.666666666666702" height="85.5" fill="firebrick" /><rect x="339" y="132" width="12.666666666666648" height="85.5" fill="firebrick" /><rect x="352.3333333333333" y="132" width="12.666666666666648" height="85.5" fill="firebrick" /><rect x="365.66666666666663" y="132" width="12.666666666666702" height="85.5" fill="firebrick" /><rect x="379" y="132" width="12.666666666666702" height="85.5" fill="firebrick" /><rect x="392.33333333333337" y="132" width="12.666666666666593" height="85.5" fill="#aaaaaa" /><rect x="405.66666666666663" y="132" width="12.666666666666702" height="85.5" fill="#aaaaaa" /><rect x="419" y="132" width="12.666666666666648" height="85.5" fill="#aaaaaa" /><rect x="432.3333333333333" y="132" width="12.666666666666702" height="85.5" fill="seagreen" /><rect x="445.6666666666667" y="132" width="12.666666666666648" height="85.5" fill="seagreen" /><rect x="459" y="132" width="12.666666666666648" height="85.5" fill="#aaaaaa" /><rect x="472.3333333333333" y="132" width="12.666666666666702" height="85.5" fill="#aaaaaa" /><rect x="485.6666666666667" y="132" width="12.666666666666593" height="85.5" fill="#aaaaaa" /><rect x="498.99999999999994" y="132" width="12.666666666666648" height="85.5" fill="firebrick" /><rect x="512.3333333333333" y="132" width="12.66666666666681" height="85.5" fill="firebrick" /><rect x="525.6666666666667" y="132" width="12.666666666666593" height="85.5" fill="firebrick" /><rect x="539" y="132" width="12.666666666666593" height="85.5" fill="firebrick" /><rect x="552.3333333333333" y="132" width="12.66666666666681" height="85.5" fill="firebrick" /><rect x="565.6666666666667" y="132" width="12.666666666666593" height="85.5" fill="firebrick" /><rect x="579" y="132" width="12.666666666666593" height="85.5" fill="#aaaaaa" /><rect x="592.3333333333333" y="132" width="12.666666666666702" height="85.5" fill="#aaaaaa" /><rect x="605.6666666666666" y="132" width="12.666666666666702" height="85.5" fill="#aaaaaa" /><rect x="59" y="42" width="12.66666666666666" height="85.5" fill="#aaaaaa" /><rect x="72.33333333333333" y="42" width="12.666666666666675" height="85.5" fill="#aaaaaa" /><rect x="85.66666666666667" y="42" width="12.66666666666666" height="85.5" fill="#aaaaaa" /><rect x="99" y="42" width="12.666666666666675" height="85.5" fill="#aaaaaa" /><rect x="112.33333333333334" y="42" width="12.666666666666648" height="85.5" fill="steelblue" /><rect x="125.66666666666666" y="42" width="12.666666666666675" height="85.5" fill="steelblue" /><rect x="139" y="42" width="12.666666666666648" height="85.5" fill="steelblue" /><rect x="152.33333333333331" y="42" width="12.666666666666702" height="85.5" fill="steelblue" /><rect x="165.66666666666669" y="42" width="12.666666666666648" height="85.5" fill="steelblue" /><rect x="179" y="42" width="12.666666666666648" height="85.5" fill="steelblue" /><rect x="192.33333333333331" y="42" width="12.666666666666675" height="85.5" fill="steelblue" /><rect x="205.66666666666666" y="42" width="12.666666666666675" height="85.5" fill="steelblue" /><rect x="219" y="42" width="12.666666666666648" height="85.5" fill="steelblue" /><rect x="232.33333333333331" y="42" width="12.666666666666675" height="85.5" fill="#aaaaaa" /><rect x="245.66666666666666" y="42" width="12.666666666666675" height="85.5" fill="#aaaaaa" /><rect x="259" y="42" width="12.666666666666702" height="85.5" fill="#aaaaaa" /><rect x="272.33333333333337" y="42" width="12.666666666666593" height="85.5" fill="#aaaaaa" /><rect x="285.66666666666663" y="42" width="12.666666666666702" height="85.5" fill="firebrick" /><rect x="299" y="42" width="12.666666666666702" height="85.5" fill="firebrick" /><rect x="312.33333333333337" y="42" width="12.666666666666593" height="85.5" fill="firebrick" /><rect x="325.66666666666663" y="42" width="12.666666666666702" height="85.5" fill="firebrick" /><rect x="339" y="42" width="12.666666666666648" height="85.5" fill="firebrick" /><rect x="352.3333333333333" y="42" width="12.666666666666648" height="85.5" fill="firebrick" /><rect x="365.66666666666663" y="42" width="12.666666666666702" height="85.5" fill="#aaaaaa" /><rect x="379" y="42" width="12.666666666666702" height="85.5" fill="#aaaaaa" /><rect x="392.33333333333337" y="42" width="12.666666666666593" height="85.5" fill="#aaaaaa" /><rect x="405.66666666666663" y="42" width="12.666666666666702" height="85.5" fill="seagreen" /><rect x="419" y="42" width="12.666666666666648" height="85.5" fill="seagreen" /><rect x="432.3333333333333" y="42" width="12.666666666666702" height="85.5" fill="#aaaaaa" /><rect x="445.6666666666667" y="42" width="12.666666666666648" height="85.5" fill="#aaaaaa" /><rect x="459" y="42" width="12.666666666666648" height="85.5" fill="#aaaaaa" /><rect x="472.3333333333333" y="42" width="12.666666666666702" height="85.5" fill="#aaaaaa" /><rect x="485.6666666666667" y="42" width="12.666666666666593" height="85.5" fill="firebrick" /><rect x="498.99999999999994" y="42" width="12.666666666666648" height="85.5" fill="firebrick" /><rect x="512.3333333333333" y="42" width="12.66666666666681" height="85.5" fill="firebrick" /><rect x="525.6666666666667" y="42" width="12.666666666666593" height="85.5" fill="firebrick" /><rect x="539" y="42" width="12.666666666666593" height="85.5" fill="firebrick" /><rect x="552.3333333333333" y="42" width="12.66666666666681" height="85.5" fill="#aaaaaa" /><rect x="565.6666666666667" y="42" width="12.666666666666593" height="85.5" fill="#aaaaaa" /><rect x="579" y="42" width="12.666666666666593" height="85.5" fill="#aaaaaa" /><rect x="592.3333333333333" y="42" width="12.666666666666702" height="85.5" fill="#aaaaaa" /><rect x="605.6666666666666" y="42" width="12.666666666666702" height="85.5" fill="#aaaaaa" /><text x="65.66666666666666" y="447" font-size="12" text-anchor="middle">C</text><text x="79" y="447" font-size="12" text-anchor="middle">C</text><text x="92.33333333333334" y="447" font-size="12" text-anchor="middle">C</text><text x="105.66666666666667" y="447" font-size="12" text-anchor="middle">C</text><text x="119" y="447" font-size="12" text-anchor="middle">C</text><text x="132.33333333333331" y="447" font-size="12" text-anchor="middle">H</text><text x="145.66666666666666" y="447" font-size="12" text-anchor="middle">H</text><text x="159" y="447" font-size="12" text-anchor="middle">H</text><text x="172.33333333333334" y="447" font-size="12" text-anchor="middle">H</text><text x="185.66666666666666" y="447" font-size="12" text-anchor="middle">H</text><text x="199" y="447" font-size="12" text-anchor="middle">H</text><text x="212.33333333333331" y="447" font-size="12" text-anchor="middle">H</text><text x="225.66666666666666" y="447" font-size="12" text-anchor="middle">H</text><text x="239" y="447" font-size="12" text-anchor="middle">H</text><text x="252.33333333333331" y="447" font-size="12" text-anchor="middle">H</text><text x="265.6666666666667" y="447" font-size="12" text-anchor="middle">C</text><text x="279" y="447" font-size="12" text-anchor="middle">C</text><text x="292.3333333333333" y="447" font-size="12" text-anchor="middle">C</text><text x="305.6666666666667" y="447" font-size="12" text-anchor="middle">C</text><text x="319" y="447" font-size="12" text-anchor="middle">E</text><text x="332.3333333333333" y="447" font-size="12" text-anchor="middle">E</text><text x="345.66666666666663" y="447" font-size="12" text-anchor="middle">E</text><text x="359" y="447" font-size="12" text-anchor="middle">E</text><text x="372.3333333333333" y="447" font-size="12" text-anchor="middle">E</text><text x="385.6666666666667" y="447" font-size="12" text-anchor="middle">E</text><text x="399" y="447" font-size="12" text-anchor="middle">C</text><text x="412.3333333333333" y="447" font-size="12" text-anchor="middle">C</text><text x="425.66666666666663" y="447" font-size="12" text-anchor="middle">C</text><text x="439" y="447" font-size="12" text-anchor="middle">T</text><text x="452.33333333333337" y="447" font-size="12" text-anchor="middle">T</text><text x="465.66666666666663" y="447" font-size="12" text-anchor="middle">C</text><text x="479" y="447" font-size="12" text-anchor="middle">C</text><text x="492.3333333333333" y="447" font-size="12" text-anchor="middle">C</text><text x="505.66666666666663" y="447" font-size="12" text-anchor="middle">E</text><text x="519" y="447" font-size="12" text-anchor="middle">E</text><text x="532.3333333333334" y="447" font-size="12" text-anchor="middle">E</text><text x="545.6666666666666" y="447" font-size="12" text-anchor="middle">E</text><text x="559" y="447" font-size="12" text-anchor="middle">E</text><text x="572.3333333333334" y="447" font-size="12" text-anchor="middle">C</text><text x="585.6666666666666" y="447" font-size="12" text-anchor="middle">C</text><text x="599" y="447" font-size="12" text-anchor="middle">C</text><text x="65.66666666666666" y="357" font-size="12" text-anchor="middle">C</text><text x="79" y="357" font-size="12" text-anchor="middle">C</text><text x="92.33333333333334" y="357" font-size="12" text-anchor="middle">C</text><text x="105.66666666666667" y="357" font-size="12" text-anchor="middle">H</text><text x="119" y="357" font-size="12" text-anchor="middle">H</text><text x="132.33333333333331" y="357" font-size="12" text-anchor="middle">H</text><text x="145.66666666666666" y="357" font-size="12" text-anchor="middle">H</text><text x="159" y="357" font-size="12" text-anchor="middle">H</text><text x="172.33333333333334" y="357" font-size="12" text-anchor="middle">H</text><text x="185.66666666666666" y="357" font-size="12" text-anchor="middle">H</text><text x="199" y="357" font-size="12" text-anchor="middle">H</text><text x="212.33333333333331" y="357" font-size="12" text-anchor="middle">H</text><text x="225.66666666666666" y="357" font-size="12" text-anchor="middle">H</text><text x="239" y="357" font-size="12" text-anchor="middle">H</text><text x="252.33333333333331" y="357" font-size="12" text-anchor="middle">H</text><text x="265.6666666666667" y="357" font-size="12" text-anchor="middle">H</text><text x="279" y="357" font-size="12" text-anchor="middle">C</text><text x="292.3333333333333" y="357" font-size="12" text-anchor="middle">C</text><text x="305.6666666666667" y="357" font-size="12" text-anchor="middle">C</text><text x="319" y="357" font-size="12" text-anchor="middle">C</text><text x="332.3333333333333" y="357" font-size="12" text-anchor="middle">E</text><text x="345.66666666666663" y="357" font-size="12" text-anchor="middle">E</text><text x="359" y="357" font-size="12" text-anchor="middle">E</text><text x="372.3333333333333" y="357" font-size="12" text-anchor="middle">E</text><text x="385.6666666666667" y="357" font-size="12" text-anchor="middle">E</text><text x="399" y="357" font-size="12" text-anchor="middle">E</text><text x="412.3333333333333" y="357" font-size="12" text-anchor="middle">E</text><text x="425.66666666666663" y="357" font-size="12" text-anchor="middle">C</text><text x="439" y="357" font-size="12" text-anchor="middle">C</text><text x="452.33333333333337" y="357" font-size="12" text-anchor="middle">T</text><text x="465.66666666666663" y="357" font-size="12" text-anchor="middle">C</text><text x="479" y="357" font-size="12" text-anchor="middle">C</text><text x="492.3333333333333" y="357" font-size="12" text-anchor="middle">C</text><text x="505.66666666666663" y="357" font-size="12" text-anchor="middle">E</text><text x="519" y="357" font-size="12" text-anchor="middle">E</text><text x="532.3333333333334" y="357" font-size="12" text-anchor="middle">E</text><text x="545.6666666666666" y="357" font-size="12" text-anchor="middle">E</text><text x="559" y="357" font-size="12" text-anchor="middle">E</text><text x="572.3333333333334" y="357" font-size="12" text-anchor="middle">C</text><text x="585.6666666666666" y="357" font-size="12" text-anchor="middle">C</text><text x="599" y="357" font-size="12" text-anchor="middle">C</text><text x="65.66666666666666" y="267" font-size="12" text-anchor="middle">C</text><text x="79" y="267" font-size="12" text-anchor="middle">C</text><text x="92.33333333333334" y="267" font-size="12" text-anchor="middle">C</text><text x="105.66666666666667" y="267" font-size="12" text-anchor="middle">C</text><text x="119" y="267" font-size="12" text-anchor="middle">H</text><text x="132.33333333333331" y="267" font-size="12" text-anchor="middle">H</text><text x="145.66666666666666" y="267" font-size="12" text-anchor="middle">H</text><text x="159" y="267" font-size="12" text-anchor="middle">H</text><text x="172.33333333333334" y="267" font-size="12" text-anchor="middle">H</text><text x="185.66666666666666" y="267" font-size="12" text-anchor="middle">H</text><text x="199" y="267" font-size="12" text-anchor="middle">H</text><text x="212.33333333333331" y="267" font-size="12" text-anchor="middle">H</text><text x="225.66666666666666" y="267" font-size="12" text-anchor="middle">H</text><text x="239" y="267" font-size="12" text-anchor="middle">C</text><text x="252.33333333333331" y="267" font-size="12" text-anchor="middle">C</text><text x="265.6666666666667" y="267" font-size="12" text-anchor="middle">C</text><text x="279" y="267" font-size="12" text-anchor="middle">C</text><text x="292.3333333333333" y="267" font-size="12" text-anchor="middle">C</text><text x="305.6666666666667" y="267" font-size="12" text-anchor="middle">E</text><text x="319" y="267" font-size="12" text-anchor="middle">E</text><text x="332.3333333333333" y="267" font-size="12" text-anchor="middle">E</text><text x="345.66666666666663" y="267" font-size="12" text-anchor="middle">E</text><text x="359" y="267" font-size="12" text-anchor="middle">E</text><text x="372.3333333333333" y="267" font-size="12" text-anchor="middle">E</text><text x="385.6666666666667" y="267" font-size="12" text-anchor="middle">C</text><text x="399" y="267" font-size="12" text-anchor="middle">C</text><text x="412.3333333333333" y="267" font-size="12" text-anchor="middle">C</text><text x="425.66666666666663" y="267" font-size="12" text-anchor="middle">T</text><text x="439" y="267" font-size="12" text-anchor="middle">T</text><text x="452.33333333333337" y="267" font-size="12" text-anchor="middle">C</text><text x="465.66666666666663" y="267" font-size="12" text-anchor="middle">C</text><text x="479" y="267" font-size="12" text-anchor="middle">C</text><text x="492.3333333333333" y="267" font-size="12" text-anchor="middle">E</text><text x="505.66666666666663" y="267" font-size="12" text-anchor="middle">E</text><text x="519" y="267" font-size="12" text-anchor="middle">E</text><text x="532.3333333333334" y="267" font-size="12" text-anchor="middle">E</text><text x="545.6666666666666" y="267" font-size="12" text-anchor="middle">E</text><text x="559" y="267" font-size="12" text-anchor="middle">E</text><text x="572.3333333333334" y="267" font-size="12" text-anchor="middle">C</text><text x="585.6666666666666" y="267" font-size="12" text-anchor="middle">C</text><text x="599" y="267" font-size="12" text-anchor="middle">C</text><text x="65.66666666666666" y="177" font-size="12" text-anchor="middle">C</text><text x="79" y="177" font-size="12" text-anchor="middle">C</text><text x="92.33333333333334" y="177" font-size="12" text-anchor="middle">C</text><text x="105.66666666666667" y="177" font-size="12" text-anchor="middle">H</text><text x="119" y="177" font-size="12" text-anchor="middle">H</text><text x="132.33333333333331" y="177" font-size="12" text-anchor="middle">H</text><text x="145.66666666666666" y="177" font-size="12" text-anchor="middle">H</text><text x="159" y="177" font-size="12" text-anchor="middle">H</text><text x="172.33333333333334" y="177" font-size="12" text-anchor="middle">H</text><text x="185.66666666666666" y="177" font-size="12" text-anchor="middle">H</text><text x="199" y="177" font-size="12" text-anchor="middle">H</text><text x="212.33333333333331" y="177" font-size="12" text-anchor="middle">H</text><text x="225.66666666666666" y="177" font-size="12" text-anchor="middle">H</text><text x="239" y="177" font-size="12" text-anchor="middle">H</text><text x="252.33333333333331" y="177" font-size="12" text-anchor="middle">H</text><text x="265.6666666666667" y="177" font-size="12" text-anchor="middle">C</text><text x="279" y="177" font-size="12" text-anchor="middle">C</text><text x="292.3333333333333" y="177" font-size="12" text-anchor="middle">C</text><text x="305.6666666666667" y="177" font-size="12" text-anchor="middle">C</text><text x="319" y="177" font-size="12" text-anchor="middle">C</text><text x="332.3333333333333" y="177" font-size="12" text-anchor="middle">E</text><text x="345.66666666666663" y="177" font-size="12" text-anchor="middle">E</text><text x="359" y="177" font-size="12" text-anchor="middle">E</text><text x="372.3333333333333" y="177" font-size="12" text-anchor="middle">E</text><text x="385.6666666666667" y="177" font-size="12" text-anchor="middle">E</text><text x="399" y="177" font-size="12" text-anchor="middle">C</text><text x="412.3333333333333" y="177" font-size="12" text-anchor="middle">C</text><text x="425.66666666666663" y="177" font-size="12" text-anchor="middle">C</text><text x="439" y="177" font-size="12" text-anchor="middle">T</text><text x="452.33333333333337" y="177" font-size="12" text-anchor="middle">T</text><text x="465.66666666666663" y="177" font-size="12" text-anchor="middle">C</text><text x="479" y="177" font-size="12" text-anchor="middle">C</text><text x="492.3333333333333" y="177" font-size="12" text-anchor="middle">C</text><text x="505.66666666666663" y="177" font-size="12" text-anchor="middle">E</text><text x="519" y="177" font-size="12" text-anchor="middle">E</text><text x="532.3333333333334" y="177" font-size="12" text-anchor="middle">E</text><text x="545.6666666666666" y="177" font-size="12" text-anchor="middle">E</text><text x="559" y="177" font-size="12" text-anchor="middle">E</text><text x="572.3333333333334" y="177" font-size="12" text-anchor="middle">E</text><text x="585.6666666666666" y="177" font-size="12" text-anchor="middle">C</text><text x="599" y="177" font-size="12" text-anchor="middle">C</text><text x="612.3333333333333" y="177" font-size="12" text-anchor="middle">C</text><text x="65.66666666666666" y="87" font-size="12" text-anchor="middle">C</text><text x="79" y="87" font-size="12" text-anchor="middle">C</text><text x="92.33333333333334" y="87" font-size="12" text-anchor="middle">C</text><text x="105.66666666666667" y="87" font-size="12" text-anchor="middle">C</text><text x="119" y="87" font-size="12" text-anchor="middle">H</text><text x="132.33333333333331" y="87" font-size="12" text-anchor="middle">H</text><text x="145.66666666666666" y="87" font-size="12" text-anchor="middle">H</text><text x="159" y="87" font-size="12" text-anchor="middle">H</text><text x="172.33333333333334" y="87" font-size="12" text-anchor="middle">H</text><text x="185.66666666666666" y="87" font-size="12" text-anchor="middle">H</text><text x="199" y="87" font-size="12" text-anchor="middle">H</text><text x="212.33333333333331" y="87" font-size="12" text-anchor="middle">H</text><text x="225.66666666666666" y="87" font-size="12" text-anchor="middle">H</text><text x="239" y="87" font-size="12" text-anchor="middle">C</text><text x="252.33333333333331" y="87" font-size="12" text-anchor="middle">C</text><text x="265.6666666666667" y="87" font-size="12" text-anchor="middle">C</text><text x="279" y="87" font-size="12" text-anchor="middle">C</text><text x="292.3333333333333" y="87" font-size="12" text-anchor="middle">E</text><text x="305.6666666666667" y="87" font-size="12" text-anchor="middle">E</text><text x="319" y="87" font-size="12" text-anchor="middle">E</text><text x="332.3333333333333" y="87" font-size="12" text-anchor="middle">E</text><text x="345.66666666666663" y="87" font-size="12" text-anchor="middle">E</text><text x="359" y="87" font-size="12" text-anchor="middle">E</text><text x="372.3333333333333" y="87" font-size="12" text-anchor="middle">C</text><text x="385.6666666666667" y="87" font-size="12" text-anchor="middle">C</text><text x="399" y="87" font-size="12" text-anchor="middle">C</text><text x="412.3333333333333" y="87" font-size="12" text-anchor="middle">T</text><text x="425.66666666666663" y="87" font-size="12" text-anchor="middle">T</text><text x="439" y="87" font-size="12" text-anchor="middle">C</text><text x="452.33333333333337" y="87" font-size="12" text-anchor="middle">C</text><text x="465.66666666666663" y="87" font-size="12" text-anchor="middle">C</text><text x="479" y="87" font-size="12" text-anchor="middle">C</text><text x="492.3333333333333" y="87" font-size="12" text-anchor="middle">E</text><text x="505.66666666666663" y="87" font-size="12" text-anchor="middle">E</text><text x="519" y="87" font-size="12" text-anchor="middle">E</text><text x="532.3333333333334" y="87" font-size="12" text-anchor="middle">E</text><text x="545.6666666666666" y="87" font-size="12" text-anchor="middle">E</text><text x="559" y="87" font-size="12" text-anchor="middle">C</text><text x="572.3333333333334" y="87" font-size="12" text-anchor="middle">C</text><text x="585.6666666666666" y="87" font-size="12" text-anchor="middle">C</text><text x="599" y="87" font-size="12" text-anchor="middle">C</text><text x="612.3333333333333" y="87" font-size="12" text-anchor="middle">C</text><rect x="664" y="32" width="80" height="92" fill="white" /><rect x="664" y="32" width="80" height="92" fill="none" stroke="black" stroke-width="1" /><text x="694" y="47" font-size="12" text-anchor="start">H</text><rect x="674" y="37" width="12" height="12" fill="steelblue" /><text x="694" y="65" font-size="12" text-anchor="start">E</text><rect x="674" y="55" width="12" height="12" fill="firebrick" /><text x="694" y="83" font-size="12" text-anchor="start">C</text><rect x="674" y="73" width="12" height="12" fill="#aaaaaa" /><text x="694" y="101" font-size="12" text-anchor="start">T</text><rect x="674" y="91" width="12" height="12" fill="seagreen" /></svg>