<svg xmlns="http://www.w3.org/2000/svg" width="753" height="541" fill="black"><rect width="100%" height="100%" fill="white" /><line x1="59" y1="492" x2="659" y2="492" stroke="black" stroke-width="1" /><line x1="59" y1="42" x2="59" y2="492" stroke="black" stroke-width="1" /><text x="49" y="420.5" font-size="10" text-anchor="end">read_1</text><line x1="54" y1="417" x2="59" y2="417" stroke="black" stroke-width="1" /><text x="49" y="345.5" font-size="10" text-anchor="end">read_2</text><line x1="54" y1="342" x2="59" y2="342" stroke="black" stroke-width="1" /><text x="49" y="270.5" font-size="10" text-anchor="end">read_3</text><line x1="54" y1="267" x2="59" y2="267" stroke="black" stroke-width="1" /><text x="49" y="195.5" font-size="10" text-anchor="end">read_4</text><line x1="54" y1="192" x2="59" y2="192" stroke="black" stroke-width="1" /><text x="49" y="120.5" font-size="10" text-anchor="end">read_5</text><line x1="54" y1="117" x2="59" y2="117" stroke="black" stroke-width="1" /><text x="49" y="45.5" font-size="10" text-anchor="end">read_6</text><line x1="54" y1="42" x2="59" y2="42" stroke="black" stroke-width="1" /><line x1="59" y1="492" x2="59" y2="497" stroke="black" stroke-width="1" /><text x="59" y="507" font-size="10" text-anchor="middle">-20</text><line x1="139" y1="492" x2="139" y2="497" stroke="black" stroke-width="1" /><text x="139" y="507" font-size="10" text-anchor="middle">-10</text><line x1="219" y1="492" x2="219" y2="497" stroke="black" stroke-width="1" /><text x="219" y="507" font-size="10" text-anchor="middle">0</text><line x1="299" y1="492" x2="299" y2="497" stroke="black" stroke-width="1" /><text x="299" y="507" font-size="10" text-anchor="middle">10</text><line x1="379" y1="492" x2="379" y2="497" stroke="black" stroke-width="1" /><text x="379" y="507" font-size="10" text-anchor="middle">20</text><line x1="459" y1="492" x2="459" y2="497" stroke="black" stroke-width="1" /><text x="459" y="507" font-size="10" text-anchor="middle">30</text><line x1="539" y1="492" x2="539" y2="497" stroke="black" stroke-width="1" /><text x="539" y="507" font-size="10" text-anchor="middle">40</text><line x1="619" y1="492" x2="619" y2="497" stroke="black" stroke-width="1" /><text x="619" y="507" font-size="10" text-anchor="middle">50</text><text x="376.5" y="21" font-size="16" text-anchor="middle">Brick Plot — DNA Sequences</text><rect x="75" y="417" width="7.6" height="71.25" fill="rgb(0,0,255)" /><rect x="83" y="417" width="7.6" height="71.25" fill="rgb(209,113,5)" /><rect x="91" y="417" width="7.6" height="71.25" fill="rgb(209,113,5)" /><rect x="99" y="417" width="7.6" height="71.25" fill="rgb(0,0,255)" /><rect x="107" y="417" width="7.6" height="71.25" fill="rgb(209,113,5)" /><rect x="115" y="417" width="7.6" height="71.25" fill="rgb(0,150,0)" /><rect x="123" y="417" width="7.6" height="71.25" fill="rgb(255,0,0)" /><rect x="131" y="417" width="7.6" height="71.25" fill="rgb(0,0,255)" /><rect x="139" y="417" width="7.6" height="71.25" fill="rgb(0,150,0)" /><rect x="147" y="417" width="7.6" height="71.25" fill="rgb(209,113,5)" /><rect x="155" y="417" width="7.6" height="71.25" fill="rgb(209,113,5)" /><rect x="163" y="417" width="7.6" height="71.25" fill="rgb(0,0,255)" /><rect x="171" y="417" width="7.6" height="71.25" fill="rgb(0,0,255)" /><rect x="179" y="417" width="7.6" height="71.25" fill="rgb(209,113,5)" /><rect x="187" y="417" width="7.6" height="71.25" fill="rgb(0,0,255)" /><rect x="195" y="417" width="7.6" height="71.25" fill="rgb(0,150,0)" /><rect x="203" y="417" width="7.6" height="71.25" fill="rgb(0,0,255)" /><rect x="211" y="417" width="7.6" height="71.25" fill="rgb(255,0,0)" /><rect x="219" y="417" width="7.600000000000026" height="71.25" fill="rgb(0,0,255)" /><rect x="227.00000000000003" y="417" width="7.599999999999973" height="71.25" fill="rgb(0,150,0)" /><rect x="235" y="417" width="7.6" height="71.25" fill="rgb(255,0,0)" /><rect x="243" y="417" width="7.6" height="71.25" fill="rgb(0,0,255)" /><rect x="251" y="417" width="7.6" height="71.25" fill="rgb(0,150,0)" /><rect x="259" y="417" width="7.6" height="71.25" fill="rgb(255,0,0)" /><rect x="267" y="417" width="7.6" height="71.25" fill="rgb(0,0,255)" /><rect x="275" y="417" width="7.6" height="71.25" fill="rgb(0,150,0)" /><rect x="283" y="417" width="7.6" height="71.25" fill="rgb(255,0,0)" /><rect x="291" y="417" width="7.6" height="71.25" fill="rgb(0,0,255)" /><rect x="299" y="417" width="7.6" height="71.25" fill="rgb(0,150,0)" /><rect x="307" y="417" width="7.6" height="71.25" fill="rgb(255,0,0)" /><rect x="315" y="417" width="7.6" height="71.25" fill="rgb(0,0,255)" /><rect x="323" y="417" width="7.6" height="71.25" fill="rgb(0,150,0)" /><rect x="331" y="417" width="7.6" height="71.25" fill="rgb(255,0,0)" /><rect x="339" y="417" width="7.6" height="71.25" fill="rgb(0,0,255)" /><rect x="347" y="417" width="7.6" height="71.25" fill="rgb(0,150,0)" /><rect x="355" y="417" width="7.6" height="71.25" fill="rgb(255,0,0)" /><rect x="363" y="417" width="7.6" height="71.25" fill="rgb(0,0,255)" /><rect x="371" y="417" width="7.6" height="71.25" fill="rgb(0,150,0)" /><rect x="379" y="417" width="7.6" height="71.25" fill="rgb(255,0,0)" /><rect x="387" y="417" width="7.600000000000054" height="71.25" fill="rgb(0,0,255)" /><rect x="395.00000000000006" y="417" width="7.5999999999999455" height="71.25" fill="rgb(0,150,0)" /><rect x="403" y="417" width="7.6" height="71.25" fill="rgb(255,0,0)" /><rect x="411" y="417" width="7.6" height="71.25" fill="rgb(0,0,255)" /><rect x="419" y="417" width="7.6" height="71.25" fill="rgb(0,150,0)" /><rect x="427" y="417" width="7.6" height="71.25" fill="rgb(255,0,0)" /><rect x="435" y="417" width="7.6" height="71.25" fill="rgb(0,0,255)" /><rect x="443" y="417" width="7.6" height="71.25" fill="rgb(0,150,0)" /><rect x="451" y="417" width="7.6" height="71.25" fill="rgb(255,0,0)" /><rect x="459" y="417" width="7.600000000000054" height="71.25" fill="rgb(0,0,255)" /><rect x="467.00000000000006" y="417" width="7.5999999999999455" height="71.25" fill="rgb(0,150,0)" /><rect x="475" y="417" width="7.6" height="71.25" fill="rgb(255,0,0)" /><rect x="483" y="417" width="7.6" height="71.25" fill="rgb(0,0,255)" /><rect x="491" y="417" width="7.5999999999999455" height="71.25" fill="rgb(0,150,0)" /><rect x="498.99999999999994" y="417" width="7.600000000000054" height="71.25" fill="rgb(255,0,0)" /><rect x="507" y="417" width="7.6" height="71.25" fill="rgb(0,0,255)" /><rect x="515" y="417" width="7.6" height="71.25" fill="rgb(0,150,0)" /><rect x="523" y="417" width="7.6" height="71.25" fill="rgb(255,0,0)" /><rect x="531" y="417" width="7.6" height="71.25" fill="rgb(0,0,255)" /><rect x="539" y="417" width="7.6" height="71.25" fill="rgb(0,150,0)" /><rect x="547" y="417" width="7.6" height="71.25" fill="rgb(255,0,0)" /><rect x="555" y="417" width="7.6" height="71.25" fill="rgb(255,0,0)" /><rect x="563" y="417" width="7.6" height="71.25" fill="rgb(0,0,255)" /><rect x="571" y="417" width="7.6" height="71.25" fill="rgb(0,150,0)" /><rect x="579" y="417" width="7.6" height="71.25" fill="rgb(255,0,0)" /><rect x="75" y="342" width="7.6" height="71.25" fill="rgb(0,0,255)" /><rect x="83" y="342" width="7.6" height="71.25" fill="rgb(209,113,5)" /><rect x="91" y="342" width="7.6" height="71.25" fill="rgb(209,113,5)" /><rect x="99" y="342" width="7.6" height="71.25" fill="rgb(0,0,255)" /><rect x="107" y="342" width="7.6" height="71.25" fill="rgb(209,113,5)" /><rect x="115" y="342" width="7.6" height="71.25" fill="rgb(0,150,0)" /><rect x="123" y="342" width="7.6" height="71.25" fill="rgb(255,0,0)" /><rect x="131" y="342" width="7.6" height="71.25" fill="rgb(0,0,255)" /><rect x="139" y="342" width="7.6" height="71.25" fill="rgb(0,150,0)" /><rect x="147" y="342" width="7.6" height="71.25" fill="rgb(209,113,5)" /><rect x="155" y="342" width="7.6" height="71.25" fill="rgb(209,113,5)" /><rect x="163" y="342" width="7.6" height="71.25" fill="rgb(0,0,255)" /><rect x="171" y="342" width="7.6" height="71.25" fill="rgb(0,0,255)" /><rect x="179" y="342" width="7.6" height="71.25" fill="rgb(209,113,5)" /><rect x="187" y="342" width="7.6" height="71.25" fill="rgb(0,0,255)" /><rect x="195" y="342" width="7.6" height="71.25" fill="rgb(0,150,0)" /><rect x="203" y="342" width="7.6" height="71.25" fill="rgb(0,0,255)" /><rect x="211" y="342" width="7.6" height="71.25" fill="rgb(255,0,0)" /><rect x="219" y="342" width="7.600000000000026" height="71.25" fill="rgb(0,0,255)" /><rect x="227.00000000000003" y="342" width="7.599999999999973" height="71.25" fill="rgb(0,150,0)" /><rect x="235" y="342" width="7.6" height="71.25" fill="rgb(255,0,0)" /><rect x="243" y="342" width="7.6" height="71.25" fill="rgb(0,0,255)" /><rect x="251" y="342" width="7.6" height="71.25" fill="rgb(0,150,0)" /><rect x="259" y="342" width="7.6" height="71.25" fill="rgb(255,0,0)" /><rect x="267" y="342" width="7.6" height="71.25" fill="rgb(0,0,255)" /><rect x="275" y="342" width="7.6" height="71.25" fill="rgb(0,150,0)" /><rect x="283" y="342" width="7.6" height="71.25" fill="rgb(255,0,0)" /><rect x="291" y="342" width="7.6" height="71.25" fill="rgb(0,0,255)" /><rect x="299" y="342" width="7.6" height="71.25" fill="rgb(0,150,0)" /><rect x="307" y="342" width="7.6" height="71.25" fill="rgb(255,0,0)" /><rect x="315" y="342" width="7.6" height="71.25" fill="rgb(0,0,255)" /><rect x="323" y="342" width="7.6" height="71.25" fill="rgb(0,150,0)" /><rect x="331" y="342" width="7.6" height="71.25" fill="rgb(255,0,0)" /><rect x="339" y="342" width="7.6" height="71.25" fill="rgb(0,0,255)" /><rect x="347" y="342" width="7.6" height="71.25" fill="rgb(0,150,0)" /><rect x="355" y="342" width="7.6" height="71.25" fill="rgb(255,0,0)" /><rect x="363" y="342" width="7.6" height="71.25" fill="rgb(0,0,255)" /><rect x="371" y="342" width="7.6" height="71.25" fill="rgb(0,150,0)" /><rect x="379" y="342" width="7.6" height="71.25" fill="rgb(255,0,0)" /><rect x="387" y="342" width="7.600000000000054" height="71.25" fill="rgb(0,0,255)" /><rect x="395.00000000000006" y="342" width="7.5999999999999455" height="71.25" fill="rgb(0,150,0)" /><rect x="403" y="342" width="7.6" height="71.25" fill="rgb(255,0,0)" /><rect x="411" y="342" width="7.6" height="71.25" fill="rgb(0,0,255)" /><rect x="419" y="342" width="7.6" height="71.25" fill="rgb(0,150,0)" /><rect x="427" y="342" width="7.6" height="71.25" fill="rgb(255,0,0)" /><rect x="435" y="342" width="7.6" height="71.25" fill="rgb(0,0,255)" /><rect x="443" y="342" width="7.6" height="71.25" fill="rgb(0,150,0)" /><rect x="451" y="342" width="7.6" height="71.25" fill="rgb(255,0,0)" /><rect x="459" y="342" width="7.600000000000054" height="71.25" fill="rgb(0,0,255)" /><rect x="467.00000000000006" y="342" width="7.5999999999999455" height="71.25" fill="rgb(0,150,0)" /><rect x="475" y="342" width="7.6" height="71.25" fill="rgb(255,0,0)" /><rect x="483" y="342" width="7.6" height="71.25" fill="rgb(0,0,255)" /><rect x="491" y="342" width="7.5999999999999455" height="71.25" fill="rgb(0,150,0)" /><rect x="498.99999999999994" y="342" width="7.600000000000054" height="71.25" fill="rgb(255,0,0)" /><rect x="507" y="342" width="7.6" height="71.25" fill="rgb(0,0,255)" /><rect x="515" y="342" width="7.6" height="71.25" fill="rgb(0,150,0)" /><rect x="523" y="342" width="7.6" height="71.25" fill="rgb(255,0,0)" /><rect x="531" y="342" width="7.6" height="71.25" fill="rgb(255,0,0)" /><rect x="539" y="342" width="7.6" height="71.25" fill="rgb(0,0,255)" /><rect x="547" y="342" width="7.6" height="71.25" fill="rgb(0,150,0)" /><rect x="555" y="342" width="7.6" height="71.25" fill="rgb(255,0,0)" /><rect x="75" y="267" width="7.6" height="71.25" fill="rgb(0,0,255)" /><rect x="83" y="267" width="7.6" height="71.25" fill="rgb(209,113,5)" /><rect x="91" y="267" width="7.6" height="71.25" fill="rgb(209,113,5)" /><rect x="99" y="267" width="7.6" height="71.25" fill="rgb(0,0,255)" /><rect x="107" y="267" width="7.6" height="71.25" fill="rgb(209,113,5)" /><rect x="115" y="267" width="7.6" height="71.25" fill="rgb(0,150,0)" /><rect x="123" y="267" width="7.6" height="71.25" fill="rgb(255,0,0)" /><rect x="131" y="267" width="7.6" height="71.25" fill="rgb(0,0,255)" /><rect x="139" y="267" width="7.6" height="71.25" fill="rgb(0,150,0)" /><rect x="147" y="267" width="7.6" height="71.25" fill="rgb(209,113,5)" /><rect x="155" y="267" width="7.6" height="71.25" fill="rgb(209,113,5)" /><rect x="163" y="267" width="7.6" height="71.25" fill="rgb(0,0,255)" /><rect x="171" y="267" width="7.6" height="71.25" fill="rgb(0,0,255)" /><rect x="179" y="267" width="7.6" height="71.25" fill="rgb(209,113,5)" /><rect x="187" y="267" width="7.6" height="71.25" fill="rgb(0,0,255)" /><rect x="195" y="267" width="7.6" height="71.25" fill="rgb(0,150,0)" /><rect x="203" y="267" width="7.6" height="71.25" fill="rgb(0,0,255)" /><rect x="211" y="267" width="7.6" height="71.25" fill="rgb(255,0,0)" /><rect x="219" y="267" width="7.600000000000026" height="71.25" fill="rgb(0,0,255)" /><rect x="227.00000000000003" y="267" width="7.599999999999973" height="71.25" fill="rgb(0,150,0)" /><rect x="235" y="267" width="7.6" height="71.25" fill="rgb(255,0,0)" /><rect x="243" y="267" width="7.6" height="71.25" fill="rgb(0,0,255)" /><rect x="251" y="267" width="7.6" height="71.25" fill="rgb(0,150,0)" /><rect x="259" y="267" width="7.6" height="71.25" fill="rgb(255,0,0)" /><rect x="267" y="267" width="7.6" height="71.25" fill="rgb(0,0,255)" /><rect x="275" y="267" width="7.6" height="71.25" fill="rgb(0,150,0)" /><rect x="283" y="267" width="7.6" height="71.25" fill="rgb(255,0,0)" /><rect x="291" y="267" width="7.6" height="71.25" fill="rgb(0,0,255)" /><rect x="299" y="267" width="7.6" height="71.25" fill="rgb(0,150,0)" /><rect x="307" y="267" width="7.6" height="71.25" fill="rgb(255,0,0)" /><rect x="315" y="267" width="7.6" height="71.25" fill="rgb(0,0,255)" /><rect x="323" y="267" width="7.6" height="71.25" fill="rgb(0,150,0)" /><rect x="331" y="267" width="7.6" height="71.25" fill="rgb(255,0,0)" /><rect x="339" y="267" width="7.6" height="71.25" fill="rgb(0,0,255)" /><rect x="347" y="267" width="7.6" height="71.25" fill="rgb(0,150,0)" /><rect x="355" y="267" width="7.6" height="71.25" fill="rgb(255,0,0)" /><rect x="363" y="267" width="7.6" height="71.25" fill="rgb(0,0,255)" /><rect x="371" y="267" width="7.6" height="71.25" fill="rgb(0,150,0)" /><rect x="379" y="267" width="7.6" height="71.25" fill="rgb(255,0,0)" /><rect x="387" y="267" width="7.600000000000054" height="71.25" fill="rgb(0,0,255)" /><rect x="395.00000000000006" y="267" width="7.5999999999999455" height="71.25" fill="rgb(0,150,0)" /><rect x="403" y="267" width="7.6" height="71.25" fill="rgb(255,0,0)" /><rect x="411" y="267" width="7.6" height="71.25" fill="rgb(0,0,255)" /><rect x="419" y="267" width="7.6" height="71.25" fill="rgb(0,150,0)" /><rect x="427" y="267" width="7.6" height="71.25" fill="rgb(255,0,0)" /><rect x="435" y="267" width="7.6" height="71.25" fill="rgb(0,0,255)" /><rect x="443" y="267" width="7.6" height="71.25" fill="rgb(0,150,0)" /><rect x="451" y="267" width="7.6" height="71.25" fill="rgb(255,0,0)" /><rect x="459" y="267" width="7.600000000000054" height="71.25" fill="rgb(0,0,255)" /><rect x="467.00000000000006" y="267" width="7.5999999999999455" height="71.25" fill="rgb(0,150,0)" /><rect x="475" y="267" width="7.6" height="71.25" fill="rgb(255,0,0)" /><rect x="483" y="267" width="7.6" height="71.25" fill="rgb(0,0,255)" /><rect x="491" y="267" width="7.5999999999999455" height="71.25" fill="rgb(0,150,0)" /><rect x="498.99999999999994" y="267" width="7.600000000000054" height="71.25" fill="rgb(255,0,0)" /><rect x="507" y="267" width="7.6" height="71.25" fill="rgb(0,0,255)" /><rect x="515" y="267" width="7.6" height="71.25" fill="rgb(0,150,0)" /><rect x="523" y="267" width="7.6" height="71.25" fill="rgb(255,0,0)" /><rect x="531" y="267" width="7.6" height="71.25" fill="rgb(0,0,255)" /><rect x="539" y="267" width="7.6" height="71.25" fill="rgb(0,150,0)" /><rect x="547" y="267" width="7.6" height="71.25" fill="rgb(255,0,0)" /><rect x="555" y="267" width="7.6" height="71.25" fill="rgb(255,0,0)" /><rect x="563" y="267" width="7.6" height="71.25" fill="rgb(0,0,255)" /><rect x="571" y="267" width="7.6" height="71.25" fill="rgb(0,150,0)" /><rect x="579" y="267" width="7.6" height="71.25" fill="rgb(255,0,0)" /><rect x="75" y="192" width="7.6" height="71.25" fill="rgb(0,0,255)" /><rect x="83" y="192" width="7.6" height="71.25" fill="rgb(209,113,5)" /><rect x="91" y="192" width="7.6" height="71.25" fill="rgb(209,113,5)" /><rect x="99" y="192" width="7.6" height="71.25" fill="rgb(0,0,255)" /><rect x="107" y="192" width="7.6" height="71.25" fill="rgb(209,113,5)" /><rect x="115" y="192" width="7.6" height="71.25" fill="rgb(0,150,0)" /><rect x="123" y="192" width="7.6" height="71.25" fill="rgb(255,0,0)" /><rect x="131" y="192" width="7.6" height="71.25" fill="rgb(0,0,255)" /><rect x="139" y="192" width="7.6" height="71.25" fill="rgb(0,150,0)" /><rect x="147" y="192" width="7.6" height="71.25" fill="rgb(209,113,5)" /><rect x="155" y="192" width="7.6" height="71.25" fill="rgb(209,113,5)" /><rect x="163" y="192" width="7.6" height="71.25" fill="rgb(0,0,255)" /><rect x="171" y="192" width="7.6" height="71.25" fill="rgb(0,0,255)" /><rect x="179" y="192" width="7.6" height="71.25" fill="rgb(209,113,5)" /><rect x="187" y="192" width="7.6" height="71.25" fill="rgb(0,0,255)" /><rect x="195" y="192" width="7.6" height="71.25" fill="rgb(0,150,0)" /><rect x="203" y="192" width="7.6" height="71.25" fill="rgb(0,0,255)" /><rect x="211" y="192" width="7.6" height="71.25" fill="rgb(255,0,0)" /><rect x="219" y="192" width="7.600000000000026" height="71.25" fill="rgb(0,0,255)" /><rect x="227.00000000000003" y="192" width="7.599999999999973" height="71.25" fill="rgb(0,150,0)" /><rect x="235" y="192" width="7.6" height="71.25" fill="rgb(255,0,0)" /><rect x="243" y="192" width="7.6" height="71.25" fill="rgb(0,0,255)" /><rect x="251" y="192" width="7.6" height="71.25" fill="rgb(0,150,0)" /><rect x="259" y="192" width="7.6" height="71.25" fill="rgb(255,0,0)" /><rect x="267" y="192" width="7.6" height="71.25" fill="rgb(0,0,255)" /><rect x="275" y="192" width="7.6" height="71.25" fill="rgb(0,150,0)" /><rect x="283" y="192" width="7.6" height="71.25" fill="rgb(255,0,0)" /><rect x="291" y="192" width="7.6" height="71.25" fill="rgb(0,0,255)" /><rect x="299" y="192" width="7.6" height="71.25" fill="rgb(0,150,0)" /><rect x="307" y="192" width="7.6" height="71.25" fill="rgb(255,0,0)" /><rect x="315" y="192" width="7.6" height="71.25" fill="rgb(0,0,255)" /><rect x="323" y="192" width="7.6" height="71.25" fill="rgb(0,150,0)" /><rect x="331" y="192" width="7.6" height="71.25" fill="rgb(255,0,0)" /><rect x="339" y="192" width="7.6" height="71.25" fill="rgb(0,0,255)" /><rect x="347" y="192" width="7.6" height="71.25" fill="rgb(0,150,0)" /><rect x="355" y="192" width="7.6" height="71.25" fill="rgb(255,0,0)" /><rect x="363" y="192" width="7.6" height="71.25" fill="rgb(0,0,255)" /><rect x="371" y="192" width="7.6" height="71.25" fill="rgb(0,150,0)" /><rect x="379" y="192" width="7.6" height="71.25" fill="rgb(255,0,0)" /><rect x="387" y="192" width="7.600000000000054" height="71.25" fill="rgb(0,0,255)" /><rect x="395.00000000000006" y="192" width="7.5999999999999455" height="71.25" fill="rgb(0,150,0)" /><rect x="403" y="192" width="7.6" height="71.25" fill="rgb(255,0,0)" /><rect x="411" y="192" width="7.6" height="71.25" fill="rgb(0,0,255)" /><rect x="419" y="192" width="7.6" height="71.25" fill="rgb(0,150,0)" /><rect x="427" y="192" width="7.6" height="71.25" fill="rgb(255,0,0)" /><rect x="435" y="192" width="7.6" height="71.25" fill="rgb(0,0,255)" /><rect x="443" y="192" width="7.6" height="71.25" fill="rgb(0,150,0)" /><rect x="451" y="192" width="7.6" height="71.25" fill="rgb(255,0,0)" /><rect x="459" y="192" width="7.600000000000054" height="71.25" fill="rgb(0,0,255)" /><rect x="467.00000000000006" y="192" width="7.5999999999999455" height="71.25" fill="rgb(0,0,255)" /><rect x="475" y="192" width="7.6" height="71.25" fill="rgb(0,150,0)" /><rect x="483" y="192" width="7.6" height="71.25" fill="rgb(255,0,0)" /><rect x="491" y="192" width="7.5999999999999455" height="71.25" fill="rgb(0,0,255)" /><rect x="498.99999999999994" y="192" width="7.600000000000054" height="71.25" fill="rgb(0,150,0)" /><rect x="507" y="192" width="7.6" height="71.25" fill="rgb(255,0,0)" /><rect x="515" y="192" width="7.6" height="71.25" fill="rgb(0,0,255)" /><rect x="523" y="192" width="7.6" height="71.25" fill="rgb(0,150,0)" /><rect x="531" y="192" width="7.6" height="71.25" fill="rgb(255,0,0)" /><rect x="539" y="192" width="7.6" height="71.25" fill="rgb(0,0,255)" /><rect x="547" y="192" width="7.6" height="71.25" fill="rgb(0,150,0)" /><rect x="555" y="192" width="7.6" height="71.25" fill="rgb(255,0,0)" /><rect x="563" y="192" width="7.6" height="71.25" fill="rgb(255,0,0)" /><rect x="571" y="192" width="7.6" height="71.25" fill="rgb(0,0,255)" /><rect x="579" y="192" width="7.6" height="71.25" fill="rgb(0,150,0)" /><rect x="587" y="192" width="7.6" height="71.25" fill="rgb(255,0,0)" /><rect x="75" y="117" width="7.6" height="71.25" fill="rgb(0,0,255)" /><rect x="83" y="117" width="7.6" height="71.25" fill="rgb(209,113,5)" /><rect x="91" y="117" width="7.6" height="71.25" fill="rgb(209,113,5)" /><rect x="99" y="117" width="7.6" height="71.25" fill="rgb(0,0,255)" /><rect x="107" y="117" width="7.6" height="71.25" fill="rgb(209,113,5)" /><rect x="115" y="117" width="7.6" height="71.25" fill="rgb(0,150,0)" /><rect x="123" y="117" width="7.6" height="71.25" fill="rgb(255,0,0)" /><rect x="131" y="117" width="7.6" height="71.25" fill="rgb(0,0,255)" /><rect x="139" y="117" width="7.6" height="71.25" fill="rgb(0,150,0)" /><rect x="147" y="117" width="7.6" height="71.25" fill="rgb(209,113,5)" /><rect x="155" y="117" width="7.6" height="71.25" fill="rgb(209,113,5)" /><rect x="163" y="117" width="7.6" height="71.25" fill="rgb(0,0,255)" /><rect x="171" y="117" width="7.6" height="71.25" fill="rgb(0,0,255)" /><rect x="179" y="117" width="7.6" height="71.25" fill="rgb(209,113,5)" /><rect x="187" y="117" width="7.6" height="71.25" fill="rgb(0,0,255)" /><rect x="195" y="117" width="7.6" height="71.25" fill="rgb(0,150,0)" /><rect x="203" y="117" width="7.6" height="71.25" fill="rgb(0,0,255)" /><rect x="211" y="117" width="7.6" height="71.25" fill="rgb(255,0,0)" /><rect x="219" y="117" width="7.600000000000026" height="71.25" fill="rgb(0,0,255)" /><rect x="227.00000000000003" y="117" width="7.599999999999973" height="71.25" fill="rgb(0,150,0)" /><rect x="235" y="117" width="7.6" height="71.25" fill="rgb(255,0,0)" /><rect x="243" y="117" width="7.6" height="71.25" fill="rgb(0,0,255)" /><rect x="251" y="117" width="7.6" height="71.25" fill="rgb(0,150,0)" /><rect x="259" y="117" width="7.6" height="71.25" fill="rgb(255,0,0)" /><rect x="267" y="117" width="7.6" height="71.25" fill="rgb(0,0,255)" /><rect x="275" y="117" width="7.6" height="71.25" fill="rgb(0,150,0)" /><rect x="283" y="117" width="7.6" height="71.25" fill="rgb(255,0,0)" /><rect x="291" y="117" width="7.6" height="71.25" fill="rgb(0,0,255)" /><rect x="299" y="117" width="7.6" height="71.25" fill="rgb(0,150,0)" /><rect x="307" y="117" width="7.6" height="71.25" fill="rgb(255,0,0)" /><rect x="315" y="117" width="7.6" height="71.25" fill="rgb(0,0,255)" /><rect x="323" y="117" width="7.6" height="71.25" fill="rgb(0,150,0)" /><rect x="331" y="117" width="7.6" height="71.25" fill="rgb(255,0,0)" /><rect x="339" y="117" width="7.6" height="71.25" fill="rgb(0,0,255)" /><rect x="347" y="117" width="7.6" height="71.25" fill="rgb(0,150,0)" /><rect x="355" y="117" width="7.6" height="71.25" fill="rgb(255,0,0)" /><rect x="363" y="117" width="7.6" height="71.25" fill="rgb(0,0,255)" /><rect x="371" y="117" width="7.6" height="71.25" fill="rgb(0,150,0)" /><rect x="379" y="117" width="7.6" height="71.25" fill="rgb(255,0,0)" /><rect x="387" y="117" width="7.600000000000054" height="71.25" fill="rgb(0,0,255)" /><rect x="395.00000000000006" y="117" width="7.5999999999999455" height="71.25" fill="rgb(0,150,0)" /><rect x="403" y="117" width="7.6" height="71.25" fill="rgb(255,0,0)" /><rect x="411" y="117" width="7.6" height="71.25" fill="rgb(0,0,255)" /><rect x="419" y="117" width="7.6" height="71.25" fill="rgb(0,150,0)" /><rect x="427" y="117" width="7.6" height="71.25" fill="rgb(255,0,0)" /><rect x="435" y="117" width="7.6" height="71.25" fill="rgb(0,0,255)" /><rect x="443" y="117" width="7.6" height="71.25" fill="rgb(0,150,0)" /><rect x="451" y="117" width="7.6" height="71.25" fill="rgb(255,0,0)" /><rect x="459" y="117" width="7.600000000000054" height="71.25" fill="rgb(0,0,255)" /><rect x="467.00000000000006" y="117" width="7.5999999999999455" height="71.25" fill="rgb(0,0,255)" /><rect x="475" y="117" width="7.6" height="71.25" fill="rgb(0,150,0)" /><rect x="483" y="117" width="7.6" height="71.25" fill="rgb(255,0,0)" /><rect x="491" y="117" width="7.5999999999999455" height="71.25" fill="rgb(0,0,255)" /><rect x="498.99999999999994" y="117" width="7.600000000000054" height="71.25" fill="rgb(0,150,0)" /><rect x="507" y="117" width="7.6" height="71.25" fill="rgb(255,0,0)" /><rect x="515" y="117" width="7.6" height="71.25" fill="rgb(0,0,255)" /><rect x="523" y="117" width="7.6" height="71.25" fill="rgb(0,150,0)" /><rect x="531" y="117" width="7.6" height="71.25" fill="rgb(255,0,0)" /><rect x="539" y="117" width="7.6" height="71.25" fill="rgb(0,0,255)" /><rect x="547" y="117" width="7.6" height="71.25" fill="rgb(0,150,0)" /><rect x="555" y="117" width="7.6" height="71.25" fill="rgb(255,0,0)" /><rect x="563" y="117" width="7.6" height="71.25" fill="rgb(255,0,0)" /><rect x="571" y="117" width="7.6" height="71.25" fill="rgb(0,0,255)" /><rect x="579" y="117" width="7.6" height="71.25" fill="rgb(0,150,0)" /><rect x="587" y="117" width="7.6" height="71.25" fill="rgb(255,0,0)" /><rect x="75" y="42" width="7.6" height="71.25" fill="rgb(0,0,255)" /><rect x="83" y="42" width="7.6" height="71.25" fill="rgb(209,113,5)" /><rect x="91" y="42" width="7.6" height="71.25" fill="rgb(209,113,5)" /><rect x="99" y="42" width="7.6" height="71.25" fill="rgb(0,0,255)" /><rect x="107" y="42" width="7.6" height="71.25" fill="rgb(209,113,5)" /><rect x="115" y="42" width="7.6" height="71.25" fill="rgb(0,150,0)" /><rect x="123" y="42" width="7.6" height="71.25" fill="rgb(255,0,0)" /><rect x="131" y="42" width="7.6" height="71.25" fill="rgb(0,0,255)" /><rect x="139" y="42" width="7.6" height="71.25" fill="rgb(0,150,0)" /><rect x="147" y="42" width="7.6" height="71.25" fill="rgb(209,113,5)" /><rect x="155" y="42" width="7.6" height="71.25" fill="rgb(209,113,5)" /><rect x="163" y="42" width="7.6" height="71.25" fill="rgb(0,0,255)" /><rect x="171" y="42" width="7.6" height="71.25" fill="rgb(0,0,255)" /><rect x="179" y="42" width="7.6" height="71.25" fill="rgb(209,113,5)" /><rect x="187" y="42" width="7.6" height="71.25" fill="rgb(0,0,255)" /><rect x="195" y="42" width="7.6" height="71.25" fill="rgb(0,150,0)" /><rect x="203" y="42" width="7.6" height="71.25" fill="rgb(0,0,255)" /><rect x="211" y="42" width="7.6" height="71.25" fill="rgb(255,0,0)" /><rect x="219" y="42" width="7.600000000000026" height="71.25" fill="rgb(0,0,255)" /><rect x="227.00000000000003" y="42" width="7.599999999999973" height="71.25" fill="rgb(0,150,0)" /><rect x="235" y="42" width="7.6" height="71.25" fill="rgb(255,0,0)" /><rect x="243" y="42" width="7.6" height="71.25" fill="rgb(0,0,255)" /><rect x="251" y="42" width="7.6" height="71.25" fill="rgb(0,150,0)" /><rect x="259" y="42" width="7.6" height="71.25" fill="rgb(255,0,0)" /><rect x="267" y="42" width="7.6" height="71.25" fill="rgb(0,0,255)" /><rect x="275" y="42" width="7.6" height="71.25" fill="rgb(0,150,0)" /><rect x="283" y="42" width="7.6" height="71.25" fill="rgb(255,0,0)" /><rect x="291" y="42" width="7.6" height="71.25" fill="rgb(0,0,255)" /><rect x="299" y="42" width="7.6" height="71.25" fill="rgb(0,150,0)" /><rect x="307" y="42" width="7.6" height="71.25" fill="rgb(255,0,0)" /><rect x="315" y="42" width="7.6" height="71.25" fill="rgb(0,0,255)" /><rect x="323" y="42" width="7.6" height="71.25" fill="rgb(0,150,0)" /><rect x="331" y="42" width="7.6" height="71.25" fill="rgb(255,0,0)" /><rect x="339" y="42" width="7.6" height="71.25" fill="rgb(0,0,255)" /><rect x="347" y="42" width="7.6" height="71.25" fill="rgb(0,150,0)" /><rect x="355" y="42" width="7.6" height="71.25" fill="rgb(255,0,0)" /><rect x="363" y="42" width="7.6" height="71.25" fill="rgb(0,0,255)" /><rect x="371" y="42" width="7.6" height="71.25" fill="rgb(0,150,0)" /><rect x="379" y="42" width="7.6" height="71.25" fill="rgb(255,0,0)" /><rect x="387" y="42" width="7.600000000000054" height="71.25" fill="rgb(0,0,255)" /><rect x="395.00000000000006" y="42" width="7.5999999999999455" height="71.25" fill="rgb(0,150,0)" /><rect x="403" y="42" width="7.6" height="71.25" fill="rgb(255,0,0)" /><rect x="411" y="42" width="7.6" height="71.25" fill="rgb(0,0,255)" /><rect x="419" y="42" width="7.6" height="71.25" fill="rgb(0,150,0)" /><rect x="427" y="42" width="7.6" height="71.25" fill="rgb(255,0,0)" /><rect x="435" y="42" width="7.6" height="71.25" fill="rgb(0,0,255)" /><rect x="443" y="42" width="7.6" height="71.25" fill="rgb(0,150,0)" /><rect x="451" y="42" width="7.6" height="71.25" fill="rgb(255,0,0)" /><rect x="459" y="42" width="7.600000000000054" height="71.25" fill="rgb(0,0,255)" /><rect x="467.00000000000006" y="42" width="7.5999999999999455" height="71.25" fill="rgb(0,0,255)" /><rect x="475" y="42" width="7.6" height="71.25" fill="rgb(0,150,0)" /><rect x="483" y="42" width="7.6" height="71.25" fill="rgb(255,0,0)" /><rect x="491" y="42" width="7.5999999999999455" height="71.25" fill="rgb(0,0,255)" /><rect x="498.99999999999994" y="42" width="7.600000000000054" height="71.25" fill="rgb(0,150,0)" /><rect x="507" y="42" width="7.6" height="71.25" fill="rgb(255,0,0)" /><rect x="515" y="42" width="7.6" height="71.25" fill="rgb(0,0,255)" /><rect x="523" y="42" width="7.6" height="71.25" fill="rgb(0,150,0)" /><rect x="531" y="42" width="7.6" height="71.25" fill="rgb(255,0,0)" /><rect x="539" y="42" width="7.6" height="71.25" fill="rgb(0,0,255)" /><rect x="547" y="42" width="7.6" height="71.25" fill="rgb(0,150,0)" /><rect x="555" y="42" width="7.6" height="71.25" fill="rgb(255,0,0)" /><rect x="563" y="42" width="7.6" height="71.25" fill="rgb(0,0,255)" /><rect x="571" y="42" width="7.6" height="71.25" fill="rgb(0,150,0)" /><rect x="579" y="42" width="7.6" height="71.25" fill="rgb(255,0,0)" /><rect x="587" y="42" width="7.6" height="71.25" fill="rgb(0,0,255)" /><rect x="595" y="42" width="7.6" height="71.25" fill="rgb(0,150,0)" /><rect x="603" y="42" width="7.6" height="71.25" fill="rgb(255,0,0)" /><rect x="611" y="42" width="7.6" height="71.25" fill="rgb(0,0,255)" /><rect x="619" y="42" width="7.6" height="71.25" fill="rgb(0,150,0)" /><rect x="627" y="42" width="7.6" height="71.25" fill="rgb(255,0,0)" /><rect x="664" y="32" width="80" height="92" fill="white" /><rect x="664" y="32" width="80" height="92" fill="none" stroke="black" stroke-width="1" /><text x="694" y="47" font-size="12" text-anchor="start">C</text><rect x="674" y="37" width="12" height="12" fill="rgb(0,0,255)" /><text x="694" y="65" font-size="12" text-anchor="start">T</text><rect x="674" y="55" width="12" height="12" fill="rgb(255,0,0)" /><text x="694" y="83" font-size="12" text-anchor="start">G</text><rect x="674" y="73" width="12" height="12" fill="rgb(209,113,5)" /><text x="694" y="101" font-size="12" text-anchor="start">A</text><rect x="674" y="91" width="12" height="12" fill="rgb(0,150,0)" /></svg>