<svg xmlns="http://www.w3.org/2000/svg" width="753" height="541" fill="black"><rect width="100%" height="100%" fill="white" /><line x1="59" y1="492" x2="659" y2="492" stroke="black" stroke-width="1" /><line x1="59" y1="42" x2="59" y2="492" stroke="black" stroke-width="1" /><text x="49" y="405.5" font-size="10" text-anchor="end">read_1</text><line x1="54" y1="402" x2="59" y2="402" stroke="black" stroke-width="1" /><text x="49" y="315.5" font-size="10" text-anchor="end">read_2</text><line x1="54" y1="312" x2="59" y2="312" stroke="black" stroke-width="1" /><text x="49" y="225.5" font-size="10" text-anchor="end">read_3</text><line x1="54" y1="222" x2="59" y2="222" stroke="black" stroke-width="1" /><text x="49" y="135.5" font-size="10" text-anchor="end">read_4</text><line x1="54" y1="132" x2="59" y2="132" stroke="black" stroke-width="1" /><text x="49" y="45.5" font-size="10" text-anchor="end">read_5</text><line x1="54" y1="42" x2="59" y2="42" stroke="black" stroke-width="1" /><line x1="59" y1="492" x2="59" y2="497" stroke="black" stroke-width="1" /><text x="59" y="507" font-size="10" text-anchor="middle">-20</text><line x1="119" y1="492" x2="119" y2="497" stroke="black" stroke-width="1" /><text x="119" y="507" font-size="10" text-anchor="middle">-15</text><line x1="179" y1="492" x2="179" y2="497" stroke="black" stroke-width="1" /><text x="179" y="507" font-size="10" text-anchor="middle">-10</text><line x1="239" y1="492" x2="239" y2="497" stroke="black" stroke-width="1" /><text x="239" y="507" font-size="10" text-anchor="middle">-5</text><line x1="299" y1="492" x2="299" y2="497" stroke="black" stroke-width="1" /><text x="299" y="507" font-size="10" text-anchor="middle">0</text><line x1="359" y1="492" x2="359" y2="497" stroke="black" stroke-width="1" /><text x="359" y="507" font-size="10" text-anchor="middle">5</text><line x1="419" y1="492" x2="419" y2="497" stroke="black" stroke-width="1" /><text x="419" y="507" font-size="10" text-anchor="middle">10</text><line x1="479" y1="492" x2="479" y2="497" stroke="black" stroke-width="1" /><text x="479" y="507" font-size="10" text-anchor="middle">15</text><line x1="539" y1="492" x2="539" y2="497" stroke="black" stroke-width="1" /><text x="539" y="507" font-size="10" text-anchor="middle">20</text><line x1="599" y1="492" x2="599" y2="497" stroke="black" stroke-width="1" /><text x="599" y="507" font-size="10" text-anchor="middle">25</text><line x1="659" y1="492" x2="659" y2="497" stroke="black" stroke-width="1" /><text x="659" y="507" font-size="10" text-anchor="middle">30</text><text x="376.5" y="21" font-size="16" text-anchor="middle">Brick Plot — Per-row Offsets</text><rect x="83" y="402" width="11.399999999999999" height="85.5" fill="rgb(0,0,255)" /><rect x="95" y="402" width="11.399999999999999" height="85.5" fill="rgb(209,113,5)" /><rect x="107" y="402" width="11.399999999999999" height="85.5" fill="rgb(209,113,5)" /><rect x="119" y="402" width="11.399999999999999" height="85.5" fill="rgb(0,0,255)" /><rect x="131" y="402" width="11.399999999999999" height="85.5" fill="rgb(209,113,5)" /><rect x="143" y="402" width="11.399999999999999" height="85.5" fill="rgb(0,150,0)" /><rect x="155" y="402" width="11.399999999999999" height="85.5" fill="rgb(255,0,0)" /><rect x="167" y="402" width="11.399999999999999" height="85.5" fill="rgb(0,0,255)" /><rect x="179" y="402" width="11.399999999999999" height="85.5" fill="rgb(0,150,0)" /><rect x="191" y="402" width="11.399999999999999" height="85.5" fill="rgb(209,113,5)" /><rect x="203" y="402" width="11.399999999999999" height="85.5" fill="rgb(209,113,5)" /><rect x="215" y="402" width="11.400000000000027" height="85.5" fill="rgb(0,0,255)" /><rect x="227.00000000000003" y="402" width="11.399999999999972" height="85.5" fill="rgb(0,0,255)" /><rect x="239" y="402" width="11.399999999999999" height="85.5" fill="rgb(209,113,5)" /><rect x="251" y="402" width="11.399999999999999" height="85.5" fill="rgb(0,0,255)" /><rect x="263" y="402" width="11.399999999999999" height="85.5" fill="rgb(0,150,0)" /><rect x="275" y="402" width="11.399999999999999" height="85.5" fill="rgb(0,0,255)" /><rect x="287" y="402" width="11.399999999999999" height="85.5" fill="rgb(255,0,0)" /><rect x="299" y="402" width="11.399999999999999" height="85.5" fill="rgb(0,0,255)" /><rect x="311" y="402" width="11.399999999999999" height="85.5" fill="rgb(0,150,0)" /><rect x="323" y="402" width="11.399999999999999" height="85.5" fill="rgb(255,0,0)" /><rect x="335" y="402" width="11.399999999999999" height="85.5" fill="rgb(0,0,255)" /><rect x="347" y="402" width="11.399999999999999" height="85.5" fill="rgb(0,150,0)" /><rect x="359" y="402" width="11.399999999999999" height="85.5" fill="rgb(255,0,0)" /><rect x="371" y="402" width="11.399999999999999" height="85.5" fill="rgb(0,0,255)" /><rect x="383" y="402" width="11.400000000000054" height="85.5" fill="rgb(0,150,0)" /><rect x="395.00000000000006" y="402" width="11.399999999999945" height="85.5" fill="rgb(255,0,0)" /><rect x="407" y="402" width="11.399999999999999" height="85.5" fill="rgb(0,0,255)" /><rect x="419" y="402" width="11.399999999999999" height="85.5" fill="rgb(0,150,0)" /><rect x="431" y="402" width="11.399999999999999" height="85.5" fill="rgb(255,0,0)" /><rect x="443" y="402" width="11.399999999999999" height="85.5" fill="rgb(0,0,255)" /><rect x="455" y="402" width="11.400000000000054" height="85.5" fill="rgb(0,150,0)" /><rect x="467.00000000000006" y="402" width="11.399999999999945" height="85.5" fill="rgb(255,0,0)" /><rect x="479" y="402" width="11.399999999999999" height="85.5" fill="rgb(0,0,255)" /><rect x="491" y="402" width="11.399999999999999" height="85.5" fill="rgb(0,150,0)" /><rect x="503" y="402" width="11.399999999999999" height="85.5" fill="rgb(255,0,0)" /><rect x="515" y="402" width="11.399999999999999" height="85.5" fill="rgb(0,0,255)" /><rect x="527" y="402" width="11.399999999999999" height="85.5" fill="rgb(0,150,0)" /><rect x="539" y="402" width="11.399999999999999" height="85.5" fill="rgb(255,0,0)" /><rect x="551" y="402" width="11.399999999999999" height="85.5" fill="rgb(0,0,255)" /><rect x="563" y="402" width="11.399999999999999" height="85.5" fill="rgb(0,150,0)" /><rect x="575" y="402" width="11.399999999999999" height="85.5" fill="rgb(255,0,0)" /><rect x="179" y="312" width="11.399999999999999" height="85.5" fill="rgb(209,113,5)" /><rect x="191" y="312" width="11.399999999999999" height="85.5" fill="rgb(0,0,255)" /><rect x="203" y="312" width="11.399999999999999" height="85.5" fill="rgb(0,150,0)" /><rect x="215" y="312" width="11.400000000000027" height="85.5" fill="rgb(0,0,255)" /><rect x="227.00000000000003" y="312" width="11.399999999999972" height="85.5" fill="rgb(255,0,0)" /><rect x="239" y="312" width="11.399999999999999" height="85.5" fill="rgb(0,0,255)" /><rect x="251" y="312" width="11.399999999999999" height="85.5" fill="rgb(0,150,0)" /><rect x="263" y="312" width="11.399999999999999" height="85.5" fill="rgb(255,0,0)" /><rect x="275" y="312" width="11.399999999999999" height="85.5" fill="rgb(0,0,255)" /><rect x="287" y="312" width="11.399999999999999" height="85.5" fill="rgb(0,150,0)" /><rect x="299" y="312" width="11.399999999999999" height="85.5" fill="rgb(255,0,0)" /><rect x="311" y="312" width="11.399999999999999" height="85.5" fill="rgb(0,0,255)" /><rect x="323" y="312" width="11.399999999999999" height="85.5" fill="rgb(0,150,0)" /><rect x="335" y="312" width="11.399999999999999" height="85.5" fill="rgb(255,0,0)" /><rect x="347" y="312" width="11.399999999999999" height="85.5" fill="rgb(0,0,255)" /><rect x="359" y="312" width="11.399999999999999" height="85.5" fill="rgb(0,150,0)" /><rect x="371" y="312" width="11.399999999999999" height="85.5" fill="rgb(255,0,0)" /><rect x="383" y="312" width="11.400000000000054" height="85.5" fill="rgb(0,0,255)" /><rect x="395.00000000000006" y="312" width="11.399999999999945" height="85.5" fill="rgb(0,150,0)" /><rect x="407" y="312" width="11.399999999999999" height="85.5" fill="rgb(255,0,0)" /><rect x="419" y="312" width="11.399999999999999" height="85.5" fill="rgb(0,0,255)" /><rect x="431" y="312" width="11.399999999999999" height="85.5" fill="rgb(0,150,0)" /><rect x="443" y="312" width="11.399999999999999" height="85.5" fill="rgb(255,0,0)" /><rect x="455" y="312" width="11.400000000000054" height="85.5" fill="rgb(0,0,255)" /><rect x="467.00000000000006" y="312" width="11.399999999999945" height="85.5" fill="rgb(0,150,0)" /><rect x="479" y="312" width="11.399999999999999" height="85.5" fill="rgb(255,0,0)" /><rect x="491" y="312" width="11.399999999999999" height="85.5" fill="rgb(0,0,255)" /><rect x="503" y="312" width="11.399999999999999" height="85.5" fill="rgb(0,150,0)" /><rect x="515" y="312" width="11.399999999999999" height="85.5" fill="rgb(255,0,0)" /><rect x="527" y="312" width="11.399999999999999" height="85.5" fill="rgb(0,0,255)" /><rect x="539" y="312" width="11.399999999999999" height="85.5" fill="rgb(0,150,0)" /><rect x="551" y="312" width="11.399999999999999" height="85.5" fill="rgb(255,0,0)" /><rect x="563" y="312" width="11.399999999999999" height="85.5" fill="rgb(0,0,255)" /><rect x="575" y="312" width="11.399999999999999" height="85.5" fill="rgb(0,150,0)" /><rect x="587" y="312" width="11.399999999999999" height="85.5" fill="rgb(255,0,0)" /><rect x="107" y="222" width="11.399999999999999" height="85.5" fill="rgb(0,150,0)" /><rect x="119" y="222" width="11.399999999999999" height="85.5" fill="rgb(255,0,0)" /><rect x="131" y="222" width="11.399999999999999" height="85.5" fill="rgb(0,0,255)" /><rect x="143" y="222" width="11.399999999999999" height="85.5" fill="rgb(0,150,0)" /><rect x="155" y="222" width="11.399999999999999" height="85.5" fill="rgb(209,113,5)" /><rect x="167" y="222" width="11.399999999999999" height="85.5" fill="rgb(209,113,5)" /><rect x="179" y="222" width="11.399999999999999" height="85.5" fill="rgb(0,0,255)" /><rect x="191" y="222" width="11.399999999999999" height="85.5" fill="rgb(0,0,255)" /><rect x="203" y="222" width="11.399999999999999" height="85.5" fill="rgb(209,113,5)" /><rect x="215" y="222" width="11.400000000000027" height="85.5" fill="rgb(0,0,255)" /><rect x="227.00000000000003" y="222" width="11.399999999999972" height="85.5" fill="rgb(0,150,0)" /><rect x="239" y="222" width="11.399999999999999" height="85.5" fill="rgb(0,0,255)" /><rect x="251" y="222" width="11.399999999999999" height="85.5" fill="rgb(255,0,0)" /><rect x="263" y="222" width="11.399999999999999" height="85.5" fill="rgb(0,0,255)" /><rect x="275" y="222" width="11.399999999999999" height="85.5" fill="rgb(0,150,0)" /><rect x="287" y="222" width="11.399999999999999" height="85.5" fill="rgb(255,0,0)" /><rect x="299" y="222" width="11.399999999999999" height="85.5" fill="rgb(0,0,255)" /><rect x="311" y="222" width="11.399999999999999" height="85.5" fill="rgb(0,150,0)" /><rect x="323" y="222" width="11.399999999999999" height="85.5" fill="rgb(255,0,0)" /><rect x="335" y="222" width="11.399999999999999" height="85.5" fill="rgb(0,0,255)" /><rect x="347" y="222" width="11.399999999999999" height="85.5" fill="rgb(0,150,0)" /><rect x="359" y="222" width="11.399999999999999" height="85.5" fill="rgb(255,0,0)" /><rect x="371" y="222" width="11.399999999999999" height="85.5" fill="rgb(0,0,255)" /><rect x="383" y="222" width="11.400000000000054" height="85.5" fill="rgb(0,150,0)" /><rect x="395.00000000000006" y="222" width="11.399999999999945" height="85.5" fill="rgb(255,0,0)" /><rect x="407" y="222" width="11.399999999999999" height="85.5" fill="rgb(0,0,255)" /><rect x="419" y="222" width="11.399999999999999" height="85.5" fill="rgb(0,150,0)" /><rect x="431" y="222" width="11.399999999999999" height="85.5" fill="rgb(255,0,0)" /><rect x="443" y="222" width="11.399999999999999" height="85.5" fill="rgb(0,0,255)" /><rect x="455" y="222" width="11.400000000000054" height="85.5" fill="rgb(0,150,0)" /><rect x="467.00000000000006" y="222" width="11.399999999999945" height="85.5" fill="rgb(255,0,0)" /><rect x="479" y="222" width="11.399999999999999" height="85.5" fill="rgb(0,0,255)" /><rect x="491" y="222" width="11.399999999999999" height="85.5" fill="rgb(0,150,0)" /><rect x="503" y="222" width="11.399999999999999" height="85.5" fill="rgb(255,0,0)" /><rect x="515" y="222" width="11.399999999999999" height="85.5" fill="rgb(0,0,255)" /><rect x="527" y="222" width="11.399999999999999" height="85.5" fill="rgb(0,150,0)" /><rect x="539" y="222" width="11.399999999999999" height="85.5" fill="rgb(255,0,0)" /><rect x="551" y="222" width="11.399999999999999" height="85.5" fill="rgb(0,0,255)" /><rect x="563" y="222" width="11.399999999999999" height="85.5" fill="rgb(0,150,0)" /><rect x="575" y="222" width="11.399999999999999" height="85.5" fill="rgb(255,0,0)" /><rect x="239" y="132" width="11.399999999999999" height="85.5" fill="rgb(0,0,255)" /><rect x="251" y="132" width="11.399999999999999" height="85.5" fill="rgb(0,150,0)" /><rect x="263" y="132" width="11.399999999999999" height="85.5" fill="rgb(0,0,255)" /><rect x="275" y="132" width="11.399999999999999" height="85.5" fill="rgb(255,0,0)" /><rect x="287" y="132" width="11.399999999999999" height="85.5" fill="rgb(0,0,255)" /><rect x="299" y="132" width="11.399999999999999" height="85.5" fill="rgb(0,150,0)" /><rect x="311" y="132" width="11.399999999999999" height="85.5" fill="rgb(255,0,0)" /><rect x="323" y="132" width="11.399999999999999" height="85.5" fill="rgb(0,0,255)" /><rect x="335" y="132" width="11.399999999999999" height="85.5" fill="rgb(0,150,0)" /><rect x="347" y="132" width="11.399999999999999" height="85.5" fill="rgb(255,0,0)" /><rect x="359" y="132" width="11.399999999999999" height="85.5" fill="rgb(0,0,255)" /><rect x="371" y="132" width="11.399999999999999" height="85.5" fill="rgb(0,150,0)" /><rect x="383" y="132" width="11.400000000000054" height="85.5" fill="rgb(255,0,0)" /><rect x="395.00000000000006" y="132" width="11.399999999999945" height="85.5" fill="rgb(0,0,255)" /><rect x="407" y="132" width="11.399999999999999" height="85.5" fill="rgb(0,150,0)" /><rect x="419" y="132" width="11.399999999999999" height="85.5" fill="rgb(255,0,0)" /><rect x="431" y="132" width="11.399999999999999" height="85.5" fill="rgb(0,0,255)" /><rect x="443" y="132" width="11.399999999999999" height="85.5" fill="rgb(0,150,0)" /><rect x="455" y="132" width="11.400000000000054" height="85.5" fill="rgb(255,0,0)" /><rect x="467.00000000000006" y="132" width="11.399999999999945" height="85.5" fill="rgb(0,0,255)" /><rect x="479" y="132" width="11.399999999999999" height="85.5" fill="rgb(0,150,0)" /><rect x="491" y="132" width="11.399999999999999" height="85.5" fill="rgb(255,0,0)" /><rect x="155" y="42" width="11.399999999999999" height="85.5" fill="rgb(0,150,0)" /><rect x="167" y="42" width="11.399999999999999" height="85.5" fill="rgb(209,113,5)" /><rect x="179" y="42" width="11.399999999999999" height="85.5" fill="rgb(209,113,5)" /><rect x="191" y="42" width="11.399999999999999" height="85.5" fill="rgb(0,0,255)" /><rect x="203" y="42" width="11.399999999999999" height="85.5" fill="rgb(0,0,255)" /><rect x="215" y="42" width="11.400000000000027" height="85.5" fill="rgb(209,113,5)" /><rect x="227.00000000000003" y="42" width="11.399999999999972" height="85.5" fill="rgb(0,0,255)" /><rect x="239" y="42" width="11.399999999999999" height="85.5" fill="rgb(0,150,0)" /><rect x="251" y="42" width="11.399999999999999" height="85.5" fill="rgb(0,0,255)" /><rect x="263" y="42" width="11.399999999999999" height="85.5" fill="rgb(255,0,0)" /><rect x="275" y="42" width="11.399999999999999" height="85.5" fill="rgb(0,0,255)" /><rect x="287" y="42" width="11.399999999999999" height="85.5" fill="rgb(0,150,0)" /><rect x="299" y="42" width="11.399999999999999" height="85.5" fill="rgb(255,0,0)" /><rect x="311" y="42" width="11.399999999999999" height="85.5" fill="rgb(0,0,255)" /><rect x="323" y="42" width="11.399999999999999" height="85.5" fill="rgb(0,150,0)" /><rect x="335" y="42" width="11.399999999999999" height="85.5" fill="rgb(255,0,0)" /><rect x="347" y="42" width="11.399999999999999" height="85.5" fill="rgb(0,0,255)" /><rect x="359" y="42" width="11.399999999999999" height="85.5" fill="rgb(0,150,0)" /><rect x="371" y="42" width="11.399999999999999" height="85.5" fill="rgb(255,0,0)" /><rect x="383" y="42" width="11.400000000000054" height="85.5" fill="rgb(0,0,255)" /><rect x="395.00000000000006" y="42" width="11.399999999999945" height="85.5" fill="rgb(0,150,0)" /><rect x="407" y="42" width="11.399999999999999" height="85.5" fill="rgb(255,0,0)" /><rect x="419" y="42" width="11.399999999999999" height="85.5" fill="rgb(0,0,255)" /><rect x="431" y="42" width="11.399999999999999" height="85.5" fill="rgb(0,150,0)" /><rect x="443" y="42" width="11.399999999999999" height="85.5" fill="rgb(255,0,0)" /><rect x="455" y="42" width="11.400000000000054" height="85.5" fill="rgb(0,0,255)" /><rect x="467.00000000000006" y="42" width="11.399999999999945" height="85.5" fill="rgb(0,150,0)" /><rect x="479" y="42" width="11.399999999999999" height="85.5" fill="rgb(255,0,0)" /><rect x="491" y="42" width="11.399999999999999" height="85.5" fill="rgb(0,0,255)" /><rect x="503" y="42" width="11.399999999999999" height="85.5" fill="rgb(0,150,0)" /><rect x="515" y="42" width="11.399999999999999" height="85.5" fill="rgb(255,0,0)" /><rect x="527" y="42" width="11.399999999999999" height="85.5" fill="rgb(0,0,255)" /><rect x="539" y="42" width="11.399999999999999" height="85.5" fill="rgb(0,150,0)" /><rect x="551" y="42" width="11.399999999999999" height="85.5" fill="rgb(255,0,0)" /><rect x="563" y="42" width="11.399999999999999" height="85.5" fill="rgb(0,0,255)" /><rect x="575" y="42" width="11.399999999999999" height="85.5" fill="rgb(0,150,0)" /><rect x="587" y="42" width="11.399999999999999" height="85.5" fill="rgb(255,0,0)" /><rect x="599" y="42" width="11.399999999999999" height="85.5" fill="rgb(0,0,255)" /><rect x="611" y="42" width="11.399999999999999" height="85.5" fill="rgb(0,150,0)" /><rect x="623" y="42" width="11.399999999999999" height="85.5" fill="rgb(255,0,0)" /><rect x="664" y="32" width="80" height="92" fill="white" /><rect x="664" y="32" width="80" height="92" fill="none" stroke="black" stroke-width="1" /><text x="694" y="47" font-size="12" text-anchor="start">G</text><rect x="674" y="37" width="12" height="12" fill="rgb(209,113,5)" /><text x="694" y="65" font-size="12" text-anchor="start">C</text><rect x="674" y="55" width="12" height="12" fill="rgb(0,0,255)" /><text x="694" y="83" font-size="12" text-anchor="start">T</text><rect x="674" y="73" width="12" height="12" fill="rgb(255,0,0)" /><text x="694" y="101" font-size="12" text-anchor="start">A</text><rect x="674" y="91" width="12" height="12" fill="rgb(0,150,0)" /></svg>