<svg xmlns="http://www.w3.org/2000/svg" width="753" height="541" fill="black"><rect width="100%" height="100%" fill="white" /><line x1="59" y1="492" x2="659" y2="492" stroke="black" stroke-width="1" /><line x1="59" y1="42" x2="59" y2="492" stroke="black" stroke-width="1" /><text x="49" y="439.25" font-size="10" text-anchor="end">read_1</text><line x1="54" y1="435.75" x2="59" y2="435.75" stroke="black" stroke-width="1" /><text x="49" y="383" font-size="10" text-anchor="end">read_2</text><line x1="54" y1="379.5" x2="59" y2="379.5" stroke="black" stroke-width="1" /><text x="49" y="326.75" font-size="10" text-anchor="end">read_3</text><line x1="54" y1="323.25" x2="59" y2="323.25" stroke="black" stroke-width="1" /><text x="49" y="270.5" font-size="10" text-anchor="end">read_4</text><line x1="54" y1="267" x2="59" y2="267" stroke="black" stroke-width="1" /><text x="49" y="214.25" font-size="10" text-anchor="end">read_5</text><line x1="54" y1="210.75" x2="59" y2="210.75" stroke="black" stroke-width="1" /><text x="49" y="158" font-size="10" text-anchor="end">read_6</text><line x1="54" y1="154.5" x2="59" y2="154.5" stroke="black" stroke-width="1" /><text x="49" y="101.75" font-size="10" text-anchor="end">read_7</text><line x1="54" y1="98.25" x2="59" y2="98.25" stroke="black" stroke-width="1" /><text x="49" y="45.5" font-size="10" text-anchor="end">read_8</text><line x1="54" y1="42" x2="59" y2="42" stroke="black" stroke-width="1" /><line x1="59" y1="492" x2="59" y2="497" stroke="black" stroke-width="1" /><text x="59" y="507" font-size="10" text-anchor="middle">0</text><line x1="139" y1="492" x2="139" y2="497" stroke="black" stroke-width="1" /><text x="139" y="507" font-size="10" text-anchor="middle">10</text><line x1="219" y1="492" x2="219" y2="497" stroke="black" stroke-width="1" /><text x="219" y="507" font-size="10" text-anchor="middle">20</text><line x1="299" y1="492" x2="299" y2="497" stroke="black" stroke-width="1" /><text x="299" y="507" font-size="10" text-anchor="middle">30</text><line x1="379" y1="492" x2="379" y2="497" stroke="black" stroke-width="1" /><text x="379" y="507" font-size="10" text-anchor="middle">40</text><line x1="459" y1="492" x2="459" y2="497" stroke="black" stroke-width="1" /><text x="459" y="507" font-size="10" text-anchor="middle">50</text><line x1="539" y1="492" x2="539" y2="497" stroke="black" stroke-width="1" /><text x="539" y="507" font-size="10" text-anchor="middle">60</text><line x1="619" y1="492" x2="619" y2="497" stroke="black" stroke-width="1" /><text x="619" y="507" font-size="10" text-anchor="middle">70</text><text x="376.5" y="21" font-size="16" text-anchor="middle">Brick Plot — Strigar Mode (CAT repeats)</text><rect x="59" y="435.75" width="22.799999999999997" height="53.4375" fill="rgb(31,119,180)" /><rect x="83" y="435.75" width="22.799999999999997" height="53.4375" fill="rgb(31,119,180)" /><rect x="107" y="435.75" width="22.799999999999997" height="53.4375" fill="rgb(31,119,180)" /><rect x="131" y="435.75" width="22.799999999999997" height="53.4375" fill="rgb(31,119,180)" /><rect x="155" y="435.75" width="22.799999999999997" height="53.4375" fill="rgb(31,119,180)" /><rect x="179" y="435.75" width="22.799999999999997" height="53.4375" fill="rgb(31,119,180)" /><rect x="203" y="435.75" width="22.800000000000026" height="53.4375" fill="rgb(31,119,180)" /><rect x="227.00000000000003" y="435.75" width="22.799999999999972" height="53.4375" fill="rgb(31,119,180)" /><rect x="251" y="435.75" width="22.799999999999997" height="53.4375" fill="rgb(31,119,180)" /><rect x="275" y="435.75" width="22.799999999999997" height="53.4375" fill="rgb(31,119,180)" /><rect x="299" y="435.75" width="7.6" height="53.4375" fill="rgb(44,160,44)" /><rect x="307" y="435.75" width="22.799999999999997" height="53.4375" fill="rgb(31,119,180)" /><rect x="331" y="435.75" width="22.799999999999997" height="53.4375" fill="rgb(31,119,180)" /><rect x="355" y="435.75" width="22.799999999999997" height="53.4375" fill="rgb(31,119,180)" /><rect x="379" y="435.75" width="22.799999999999997" height="53.4375" fill="rgb(31,119,180)" /><rect x="403" y="435.75" width="7.6" height="53.4375" fill="rgb(255,127,14)" /><rect x="411" y="435.75" width="22.799999999999997" height="53.4375" fill="rgb(31,119,180)" /><rect x="59" y="379.5" width="22.799999999999997" height="53.4375" fill="rgb(31,119,180)" /><rect x="83" y="379.5" width="22.799999999999997" height="53.4375" fill="rgb(31,119,180)" /><rect x="107" y="379.5" width="22.799999999999997" height="53.4375" fill="rgb(31,119,180)" /><rect x="131" y="379.5" width="22.799999999999997" height="53.4375" fill="rgb(31,119,180)" /><rect x="155" y="379.5" width="22.799999999999997" height="53.4375" fill="rgb(31,119,180)" /><rect x="179" y="379.5" width="22.799999999999997" height="53.4375" fill="rgb(31,119,180)" /><rect x="203" y="379.5" width="22.800000000000026" height="53.4375" fill="rgb(31,119,180)" /><rect x="227.00000000000003" y="379.5" width="22.799999999999972" height="53.4375" fill="rgb(31,119,180)" /><rect x="251" y="379.5" width="22.799999999999997" height="53.4375" fill="rgb(31,119,180)" /><rect x="275" y="379.5" width="22.799999999999997" height="53.4375" fill="rgb(31,119,180)" /><rect x="299" y="379.5" width="22.799999999999997" height="53.4375" fill="rgb(31,119,180)" /><rect x="323" y="379.5" width="22.799999999999997" height="53.4375" fill="rgb(31,119,180)" /><rect x="347" y="379.5" width="22.799999999999997" height="53.4375" fill="rgb(31,119,180)" /><rect x="371" y="379.5" width="22.800000000000054" height="53.4375" fill="rgb(31,119,180)" /><rect x="395.00000000000006" y="379.5" width="7.5999999999999455" height="53.4375" fill="rgb(255,127,14)" /><rect x="403" y="379.5" width="22.799999999999997" height="53.4375" fill="rgb(31,119,180)" /><rect x="59" y="323.25" width="22.799999999999997" height="53.4375" fill="rgb(31,119,180)" /><rect x="83" y="323.25" width="22.799999999999997" height="53.4375" fill="rgb(31,119,180)" /><rect x="107" y="323.25" width="22.799999999999997" height="53.4375" fill="rgb(31,119,180)" /><rect x="131" y="323.25" width="22.799999999999997" height="53.4375" fill="rgb(31,119,180)" /><rect x="155" y="323.25" width="22.799999999999997" height="53.4375" fill="rgb(31,119,180)" /><rect x="179" y="323.25" width="22.799999999999997" height="53.4375" fill="rgb(31,119,180)" /><rect x="203" y="323.25" width="22.800000000000026" height="53.4375" fill="rgb(31,119,180)" /><rect x="227.00000000000003" y="323.25" width="22.799999999999972" height="53.4375" fill="rgb(31,119,180)" /><rect x="251" y="323.25" width="22.799999999999997" height="53.4375" fill="rgb(31,119,180)" /><rect x="275" y="323.25" width="22.799999999999997" height="53.4375" fill="rgb(31,119,180)" /><rect x="299" y="323.25" width="22.799999999999997" height="53.4375" fill="rgb(31,119,180)" /><rect x="323" y="323.25" width="22.799999999999997" height="53.4375" fill="rgb(31,119,180)" /><rect x="347" y="323.25" width="22.799999999999997" height="53.4375" fill="rgb(31,119,180)" /><rect x="371" y="323.25" width="22.800000000000054" height="53.4375" fill="rgb(31,119,180)" /><rect x="395.00000000000006" y="323.25" width="7.5999999999999455" height="53.4375" fill="rgb(255,127,14)" /><rect x="403" y="323.25" width="22.799999999999997" height="53.4375" fill="rgb(31,119,180)" /><rect x="59" y="267" width="22.799999999999997" height="53.4375" fill="rgb(31,119,180)" /><rect x="83" y="267" width="22.799999999999997" height="53.4375" fill="rgb(31,119,180)" /><rect x="107" y="267" width="22.799999999999997" height="53.4375" fill="rgb(31,119,180)" /><rect x="131" y="267" width="22.799999999999997" height="53.4375" fill="rgb(31,119,180)" /><rect x="155" y="267" width="22.799999999999997" height="53.4375" fill="rgb(31,119,180)" /><rect x="179" y="267" width="22.799999999999997" height="53.4375" fill="rgb(31,119,180)" /><rect x="203" y="267" width="22.800000000000026" height="53.4375" fill="rgb(31,119,180)" /><rect x="227.00000000000003" y="267" width="22.799999999999972" height="53.4375" fill="rgb(31,119,180)" /><rect x="251" y="267" width="22.799999999999997" height="53.4375" fill="rgb(31,119,180)" /><rect x="275" y="267" width="22.799999999999997" height="53.4375" fill="rgb(31,119,180)" /><rect x="299" y="267" width="7.6" height="53.4375" fill="rgb(44,160,44)" /><rect x="307" y="267" width="22.799999999999997" height="53.4375" fill="rgb(31,119,180)" /><rect x="331" y="267" width="22.799999999999997" height="53.4375" fill="rgb(31,119,180)" /><rect x="355" y="267" width="22.799999999999997" height="53.4375" fill="rgb(31,119,180)" /><rect x="379" y="267" width="22.799999999999997" height="53.4375" fill="rgb(31,119,180)" /><rect x="403" y="267" width="7.6" height="53.4375" fill="rgb(255,127,14)" /><rect x="411" y="267" width="22.799999999999997" height="53.4375" fill="rgb(31,119,180)" /><rect x="59" y="210.75" width="22.799999999999997" height="53.4375" fill="rgb(31,119,180)" /><rect x="83" y="210.75" width="22.799999999999997" height="53.4375" fill="rgb(31,119,180)" /><rect x="107" y="210.75" width="22.799999999999997" height="53.4375" fill="rgb(31,119,180)" /><rect x="131" y="210.75" width="22.799999999999997" height="53.4375" fill="rgb(31,119,180)" /><rect x="155" y="210.75" width="22.799999999999997" height="53.4375" fill="rgb(31,119,180)" /><rect x="179" y="210.75" width="22.799999999999997" height="53.4375" fill="rgb(31,119,180)" /><rect x="203" y="210.75" width="22.800000000000026" height="53.4375" fill="rgb(31,119,180)" /><rect x="227.00000000000003" y="210.75" width="22.799999999999972" height="53.4375" fill="rgb(31,119,180)" /><rect x="251" y="210.75" width="22.799999999999997" height="53.4375" fill="rgb(31,119,180)" /><rect x="275" y="210.75" width="22.799999999999997" height="53.4375" fill="rgb(31,119,180)" /><rect x="299" y="210.75" width="7.6" height="53.4375" fill="rgb(44,160,44)" /><rect x="307" y="210.75" width="22.799999999999997" height="53.4375" fill="rgb(31,119,180)" /><rect x="331" y="210.75" width="22.799999999999997" height="53.4375" fill="rgb(31,119,180)" /><rect x="355" y="210.75" width="22.799999999999997" height="53.4375" fill="rgb(31,119,180)" /><rect x="379" y="210.75" width="22.799999999999997" height="53.4375" fill="rgb(31,119,180)" /><rect x="403" y="210.75" width="7.6" height="53.4375" fill="rgb(255,127,14)" /><rect x="411" y="210.75" width="22.799999999999997" height="53.4375" fill="rgb(31,119,180)" /><rect x="59" y="154.5" width="22.799999999999997" height="53.4375" fill="rgb(31,119,180)" /><rect x="83" y="154.5" width="22.799999999999997" height="53.4375" fill="rgb(31,119,180)" /><rect x="107" y="154.5" width="22.799999999999997" height="53.4375" fill="rgb(31,119,180)" /><rect x="131" y="154.5" width="22.799999999999997" height="53.4375" fill="rgb(31,119,180)" /><rect x="155" y="154.5" width="22.799999999999997" height="53.4375" fill="rgb(31,119,180)" /><rect x="179" y="154.5" width="22.799999999999997" height="53.4375" fill="rgb(31,119,180)" /><rect x="203" y="154.5" width="22.800000000000026" height="53.4375" fill="rgb(31,119,180)" /><rect x="227.00000000000003" y="154.5" width="22.799999999999972" height="53.4375" fill="rgb(31,119,180)" /><rect x="251" y="154.5" width="22.799999999999997" height="53.4375" fill="rgb(31,119,180)" /><rect x="275" y="154.5" width="22.799999999999997" height="53.4375" fill="rgb(31,119,180)" /><rect x="299" y="154.5" width="7.6" height="53.4375" fill="rgb(44,160,44)" /><rect x="307" y="154.5" width="22.799999999999997" height="53.4375" fill="rgb(31,119,180)" /><rect x="331" y="154.5" width="22.799999999999997" height="53.4375" fill="rgb(31,119,180)" /><rect x="355" y="154.5" width="22.799999999999997" height="53.4375" fill="rgb(31,119,180)" /><rect x="379" y="154.5" width="22.799999999999997" height="53.4375" fill="rgb(31,119,180)" /><rect x="403" y="154.5" width="22.799999999999997" height="53.4375" fill="rgb(31,119,180)" /><rect x="427" y="154.5" width="22.799999999999997" height="53.4375" fill="rgb(31,119,180)" /><rect x="451" y="154.5" width="22.799999999999997" height="53.4375" fill="rgb(31,119,180)" /><rect x="475" y="154.5" width="22.799999999999944" height="53.4375" fill="rgb(31,119,180)" /><rect x="498.99999999999994" y="154.5" width="22.800000000000054" height="53.4375" fill="rgb(214,39,40)" /><rect x="523" y="154.5" width="22.799999999999997" height="53.4375" fill="rgb(31,119,180)" /><rect x="547" y="154.5" width="22.799999999999997" height="53.4375" fill="rgb(31,119,180)" /><rect x="571" y="154.5" width="22.799999999999997" height="53.4375" fill="rgb(31,119,180)" /><rect x="595" y="154.5" width="22.799999999999997" height="53.4375" fill="rgb(31,119,180)" /><rect x="619" y="154.5" width="22.799999999999997" height="53.4375" fill="rgb(31,119,180)" /><rect x="59" y="98.25" width="22.799999999999997" height="53.4375" fill="rgb(31,119,180)" /><rect x="83" y="98.25" width="22.799999999999997" height="53.4375" fill="rgb(31,119,180)" /><rect x="107" y="98.25" width="22.799999999999997" height="53.4375" fill="rgb(31,119,180)" /><rect x="131" y="98.25" width="22.799999999999997" height="53.4375" fill="rgb(31,119,180)" /><rect x="155" y="98.25" width="22.799999999999997" height="53.4375" fill="rgb(31,119,180)" /><rect x="179" y="98.25" width="22.799999999999997" height="53.4375" fill="rgb(31,119,180)" /><rect x="203" y="98.25" width="22.800000000000026" height="53.4375" fill="rgb(31,119,180)" /><rect x="227.00000000000003" y="98.25" width="22.799999999999972" height="53.4375" fill="rgb(31,119,180)" /><rect x="251" y="98.25" width="22.799999999999997" height="53.4375" fill="rgb(31,119,180)" /><rect x="275" y="98.25" width="22.799999999999997" height="53.4375" fill="rgb(31,119,180)" /><rect x="299" y="98.25" width="7.6" height="53.4375" fill="rgb(44,160,44)" /><rect x="307" y="98.25" width="22.799999999999997" height="53.4375" fill="rgb(31,119,180)" /><rect x="331" y="98.25" width="22.799999999999997" height="53.4375" fill="rgb(31,119,180)" /><rect x="355" y="98.25" width="22.799999999999997" height="53.4375" fill="rgb(31,119,180)" /><rect x="379" y="98.25" width="22.799999999999997" height="53.4375" fill="rgb(31,119,180)" /><rect x="403" y="98.25" width="22.799999999999997" height="53.4375" fill="rgb(31,119,180)" /><rect x="59" y="42" width="22.799999999999997" height="53.4375" fill="rgb(31,119,180)" /><rect x="83" y="42" width="22.799999999999997" height="53.4375" fill="rgb(31,119,180)" /><rect x="107" y="42" width="22.799999999999997" height="53.4375" fill="rgb(31,119,180)" /><rect x="131" y="42" width="22.799999999999997" height="53.4375" fill="rgb(31,119,180)" /><rect x="155" y="42" width="22.799999999999997" height="53.4375" fill="rgb(31,119,180)" /><rect x="179" y="42" width="22.799999999999997" height="53.4375" fill="rgb(31,119,180)" /><rect x="203" y="42" width="22.800000000000026" height="53.4375" fill="rgb(31,119,180)" /><rect x="227.00000000000003" y="42" width="22.799999999999972" height="53.4375" fill="rgb(31,119,180)" /><rect x="251" y="42" width="22.799999999999997" height="53.4375" fill="rgb(31,119,180)" /><rect x="275" y="42" width="22.799999999999997" height="53.4375" fill="rgb(31,119,180)" /><rect x="299" y="42" width="7.6" height="53.4375" fill="rgb(44,160,44)" /><rect x="307" y="42" width="22.799999999999997" height="53.4375" fill="rgb(31,119,180)" /><rect x="331" y="42" width="22.799999999999997" height="53.4375" fill="rgb(31,119,180)" /><rect x="355" y="42" width="22.799999999999997" height="53.4375" fill="rgb(31,119,180)" /><rect x="379" y="42" width="22.799999999999997" height="53.4375" fill="rgb(31,119,180)" /><rect x="403" y="42" width="7.6" height="53.4375" fill="rgb(255,127,14)" /><rect x="411" y="42" width="22.799999999999997" height="53.4375" fill="rgb(31,119,180)" /><rect x="664" y="32" width="80" height="92" fill="white" /><rect x="664" y="32" width="80" height="92" fill="none" stroke="black" stroke-width="1" /><text x="694" y="47" font-size="12" text-anchor="start">C</text><rect x="674" y="37" width="12" height="12" fill="rgb(44,160,44)" /><text x="694" y="65" font-size="12" text-anchor="start">CAT</text><rect x="674" y="55" width="12" height="12" fill="rgb(31,119,180)" /><text x="694" y="83" font-size="12" text-anchor="start">T</text><rect x="674" y="73" width="12" height="12" fill="rgb(255,127,14)" /><text x="694" y="101" font-size="12" text-anchor="start">GGT</text><rect x="674" y="91" width="12" height="12" fill="rgb(214,39,40)" /></svg>