<svg xmlns="http://www.w3.org/2000/svg" width="753" height="541" fill="black"><rect width="100%" height="100%" fill="white" /><line x1="59" y1="492" x2="659" y2="492" stroke="black" stroke-width="1" /><line x1="59" y1="42" x2="59" y2="492" stroke="black" stroke-width="1" /><text x="49" y="455.75" font-size="10" text-anchor="end">read_1</text><line x1="54" y1="435.75" x2="59" y2="435.75" stroke="black" stroke-width="1" /><text x="49" y="399.5" font-size="10" text-anchor="end">read_2</text><line x1="54" y1="379.5" x2="59" y2="379.5" stroke="black" stroke-width="1" /><text x="49" y="343.25" font-size="10" text-anchor="end">read_3</text><line x1="54" y1="323.25" x2="59" y2="323.25" stroke="black" stroke-width="1" /><text x="49" y="287" font-size="10" text-anchor="end">read_4</text><line x1="54" y1="267" x2="59" y2="267" stroke="black" stroke-width="1" /><text x="49" y="230.75" font-size="10" text-anchor="end">read_5</text><line x1="54" y1="210.75" x2="59" y2="210.75" stroke="black" stroke-width="1" /><text x="49" y="174.5" font-size="10" text-anchor="end">read_6</text><line x1="54" y1="154.5" x2="59" y2="154.5" stroke="black" stroke-width="1" /><text x="49" y="118.25" font-size="10" text-anchor="end">read_7</text><line x1="54" y1="98.25" x2="59" y2="98.25" stroke="black" stroke-width="1" /><text x="49" y="62" font-size="10" text-anchor="end">read_8</text><line x1="54" y1="42" x2="59" y2="42" stroke="black" stroke-width="1" /><line x1="59" y1="492" x2="59" y2="497" stroke="black" stroke-width="1" /><text x="59" y="507" font-size="10" text-anchor="middle">0</text><line x1="134" y1="492" x2="134" y2="497" stroke="black" stroke-width="1" /><text x="134" y="507" font-size="10" text-anchor="middle">10</text><line x1="209" y1="492" x2="209" y2="497" stroke="black" stroke-width="1" /><text x="209" y="507" font-size="10" text-anchor="middle">20</text><line x1="284" y1="492" x2="284" y2="497" stroke="black" stroke-width="1" /><text x="284" y="507" font-size="10" text-anchor="middle">30</text><line x1="359" y1="492" x2="359" y2="497" stroke="black" stroke-width="1" /><text x="359" y="507" font-size="10" text-anchor="middle">40</text><line x1="434" y1="492" x2="434" y2="497" stroke="black" stroke-width="1" /><text x="434" y="507" font-size="10" text-anchor="middle">50</text><line x1="509" y1="492" x2="509" y2="497" stroke="black" stroke-width="1" /><text x="509" y="507" font-size="10" text-anchor="middle">60</text><line x1="584" y1="492" x2="584" y2="497" stroke="black" stroke-width="1" /><text x="584" y="507" font-size="10" text-anchor="middle">70</text><line x1="659" y1="492" x2="659" y2="497" stroke="black" stroke-width="1" /><text x="659" y="507" font-size="10" text-anchor="middle">80</text><text x="376.5" y="21" font-size="16" text-anchor="middle">Brick Plot — Strigar Mode (CAT repeats)</text><rect x="59" y="435.75" width="21.375" height="53.4375" fill="rgb(31,119,180)" /><rect x="81.5" y="435.75" width="21.375" height="53.4375" fill="rgb(31,119,180)" /><rect x="104" y="435.75" width="21.375" height="53.4375" fill="rgb(31,119,180)" /><rect x="126.5" y="435.75" width="21.375" height="53.4375" fill="rgb(31,119,180)" /><rect x="149" y="435.75" width="21.375" height="53.4375" fill="rgb(31,119,180)" /><rect x="171.5" y="435.75" width="21.375" height="53.4375" fill="rgb(31,119,180)" /><rect x="194" y="435.75" width="21.375" height="53.4375" fill="rgb(31,119,180)" /><rect x="216.5" y="435.75" width="21.375" height="53.4375" fill="rgb(31,119,180)" /><rect x="239" y="435.75" width="21.375" height="53.4375" fill="rgb(31,119,180)" /><rect x="261.5" y="435.75" width="21.375" height="53.4375" fill="rgb(31,119,180)" /><rect x="284" y="435.75" width="7.125" height="53.4375" fill="rgb(44,160,44)" /><rect x="291.5" y="435.75" width="21.375" height="53.4375" fill="rgb(31,119,180)" /><rect x="314" y="435.75" width="21.375" height="53.4375" fill="rgb(31,119,180)" /><rect x="336.5" y="435.75" width="21.375" height="53.4375" fill="rgb(31,119,180)" /><rect x="359" y="435.75" width="21.375" height="53.4375" fill="rgb(31,119,180)" /><rect x="381.5" y="435.75" width="7.125" height="53.4375" fill="rgb(255,127,14)" /><rect x="389" y="435.75" width="21.375" height="53.4375" fill="rgb(31,119,180)" /><rect x="59" y="379.5" width="21.375" height="53.4375" fill="rgb(31,119,180)" /><rect x="81.5" y="379.5" width="21.375" height="53.4375" fill="rgb(31,119,180)" /><rect x="104" y="379.5" width="21.375" height="53.4375" fill="rgb(31,119,180)" /><rect x="126.5" y="379.5" width="21.375" height="53.4375" fill="rgb(31,119,180)" /><rect x="149" y="379.5" width="21.375" height="53.4375" fill="rgb(31,119,180)" /><rect x="171.5" y="379.5" width="21.375" height="53.4375" fill="rgb(31,119,180)" /><rect x="194" y="379.5" width="21.375" height="53.4375" fill="rgb(31,119,180)" /><rect x="216.5" y="379.5" width="21.375" height="53.4375" fill="rgb(31,119,180)" /><rect x="239" y="379.5" width="21.375" height="53.4375" fill="rgb(31,119,180)" /><rect x="261.5" y="379.5" width="21.375" height="53.4375" fill="rgb(31,119,180)" /><rect x="284" y="379.5" width="21.375" height="53.4375" fill="rgb(31,119,180)" /><rect x="306.5" y="379.5" width="21.375" height="53.4375" fill="rgb(31,119,180)" /><rect x="329" y="379.5" width="21.375" height="53.4375" fill="rgb(31,119,180)" /><rect x="351.5" y="379.5" width="21.375" height="53.4375" fill="rgb(31,119,180)" /><rect x="374" y="379.5" width="7.125" height="53.4375" fill="rgb(255,127,14)" /><rect x="381.5" y="379.5" width="21.375" height="53.4375" fill="rgb(31,119,180)" /><rect x="59" y="323.25" width="21.375" height="53.4375" fill="rgb(31,119,180)" /><rect x="81.5" y="323.25" width="21.375" height="53.4375" fill="rgb(31,119,180)" /><rect x="104" y="323.25" width="21.375" height="53.4375" fill="rgb(31,119,180)" /><rect x="126.5" y="323.25" width="21.375" height="53.4375" fill="rgb(31,119,180)" /><rect x="149" y="323.25" width="21.375" height="53.4375" fill="rgb(31,119,180)" /><rect x="171.5" y="323.25" width="21.375" height="53.4375" fill="rgb(31,119,180)" /><rect x="194" y="323.25" width="21.375" height="53.4375" fill="rgb(31,119,180)" /><rect x="216.5" y="323.25" width="21.375" height="53.4375" fill="rgb(31,119,180)" /><rect x="239" y="323.25" width="21.375" height="53.4375" fill="rgb(31,119,180)" /><rect x="261.5" y="323.25" width="21.375" height="53.4375" fill="rgb(31,119,180)" /><rect x="284" y="323.25" width="21.375" height="53.4375" fill="rgb(31,119,180)" /><rect x="306.5" y="323.25" width="21.375" height="53.4375" fill="rgb(31,119,180)" /><rect x="329" y="323.25" width="21.375" height="53.4375" fill="rgb(31,119,180)" /><rect x="351.5" y="323.25" width="21.375" height="53.4375" fill="rgb(31,119,180)" /><rect x="374" y="323.25" width="7.125" height="53.4375" fill="rgb(255,127,14)" /><rect x="381.5" y="323.25" width="21.375" height="53.4375" fill="rgb(31,119,180)" /><rect x="59" y="267" width="21.375" height="53.4375" fill="rgb(31,119,180)" /><rect x="81.5" y="267" width="21.375" height="53.4375" fill="rgb(31,119,180)" /><rect x="104" y="267" width="21.375" height="53.4375" fill="rgb(31,119,180)" /><rect x="126.5" y="267" width="21.375" height="53.4375" fill="rgb(31,119,180)" /><rect x="149" y="267" width="21.375" height="53.4375" fill="rgb(31,119,180)" /><rect x="171.5" y="267" width="21.375" height="53.4375" fill="rgb(31,119,180)" /><rect x="194" y="267" width="21.375" height="53.4375" fill="rgb(31,119,180)" /><rect x="216.5" y="267" width="21.375" height="53.4375" fill="rgb(31,119,180)" /><rect x="239" y="267" width="21.375" height="53.4375" fill="rgb(31,119,180)" /><rect x="261.5" y="267" width="21.375" height="53.4375" fill="rgb(31,119,180)" /><rect x="284" y="267" width="7.125" height="53.4375" fill="rgb(44,160,44)" /><rect x="291.5" y="267" width="21.375" height="53.4375" fill="rgb(31,119,180)" /><rect x="314" y="267" width="21.375" height="53.4375" fill="rgb(31,119,180)" /><rect x="336.5" y="267" width="21.375" height="53.4375" fill="rgb(31,119,180)" /><rect x="359" y="267" width="21.375" height="53.4375" fill="rgb(31,119,180)" /><rect x="381.5" y="267" width="7.125" height="53.4375" fill="rgb(255,127,14)" /><rect x="389" y="267" width="21.375" height="53.4375" fill="rgb(31,119,180)" /><rect x="59" y="210.75" width="21.375" height="53.4375" fill="rgb(31,119,180)" /><rect x="81.5" y="210.75" width="21.375" height="53.4375" fill="rgb(31,119,180)" /><rect x="104" y="210.75" width="21.375" height="53.4375" fill="rgb(31,119,180)" /><rect x="126.5" y="210.75" width="21.375" height="53.4375" fill="rgb(31,119,180)" /><rect x="149" y="210.75" width="21.375" height="53.4375" fill="rgb(31,119,180)" /><rect x="171.5" y="210.75" width="21.375" height="53.4375" fill="rgb(31,119,180)" /><rect x="194" y="210.75" width="21.375" height="53.4375" fill="rgb(31,119,180)" /><rect x="216.5" y="210.75" width="21.375" height="53.4375" fill="rgb(31,119,180)" /><rect x="239" y="210.75" width="21.375" height="53.4375" fill="rgb(31,119,180)" /><rect x="261.5" y="210.75" width="21.375" height="53.4375" fill="rgb(31,119,180)" /><rect x="284" y="210.75" width="7.125" height="53.4375" fill="rgb(44,160,44)" /><rect x="291.5" y="210.75" width="21.375" height="53.4375" fill="rgb(31,119,180)" /><rect x="314" y="210.75" width="21.375" height="53.4375" fill="rgb(31,119,180)" /><rect x="336.5" y="210.75" width="21.375" height="53.4375" fill="rgb(31,119,180)" /><rect x="359" y="210.75" width="21.375" height="53.4375" fill="rgb(31,119,180)" /><rect x="381.5" y="210.75" width="7.125" height="53.4375" fill="rgb(255,127,14)" /><rect x="389" y="210.75" width="21.375" height="53.4375" fill="rgb(31,119,180)" /><rect x="59" y="154.5" width="21.375" height="53.4375" fill="rgb(31,119,180)" /><rect x="81.5" y="154.5" width="21.375" height="53.4375" fill="rgb(31,119,180)" /><rect x="104" y="154.5" width="21.375" height="53.4375" fill="rgb(31,119,180)" /><rect x="126.5" y="154.5" width="21.375" height="53.4375" fill="rgb(31,119,180)" /><rect x="149" y="154.5" width="21.375" height="53.4375" fill="rgb(31,119,180)" /><rect x="171.5" y="154.5" width="21.375" height="53.4375" fill="rgb(31,119,180)" /><rect x="194" y="154.5" width="21.375" height="53.4375" fill="rgb(31,119,180)" /><rect x="216.5" y="154.5" width="21.375" height="53.4375" fill="rgb(31,119,180)" /><rect x="239" y="154.5" width="21.375" height="53.4375" fill="rgb(31,119,180)" /><rect x="261.5" y="154.5" width="21.375" height="53.4375" fill="rgb(31,119,180)" /><rect x="284" y="154.5" width="7.125" height="53.4375" fill="rgb(44,160,44)" /><rect x="291.5" y="154.5" width="21.375" height="53.4375" fill="rgb(31,119,180)" /><rect x="314" y="154.5" width="21.375" height="53.4375" fill="rgb(31,119,180)" /><rect x="336.5" y="154.5" width="21.375" height="53.4375" fill="rgb(31,119,180)" /><rect x="359" y="154.5" width="21.375" height="53.4375" fill="rgb(31,119,180)" /><rect x="381.5" y="154.5" width="21.375" height="53.4375" fill="rgb(31,119,180)" /><rect x="404" y="154.5" width="21.375" height="53.4375" fill="rgb(31,119,180)" /><rect x="426.5" y="154.5" width="21.375" height="53.4375" fill="rgb(31,119,180)" /><rect x="449" y="154.5" width="21.375" height="53.4375" fill="rgb(31,119,180)" /><rect x="471.5" y="154.5" width="21.375" height="53.4375" fill="rgb(214,39,40)" /><rect x="494" y="154.5" width="21.375" height="53.4375" fill="rgb(31,119,180)" /><rect x="516.5" y="154.5" width="21.375" height="53.4375" fill="rgb(31,119,180)" /><rect x="539" y="154.5" width="21.375" height="53.4375" fill="rgb(31,119,180)" /><rect x="561.5" y="154.5" width="21.375" height="53.4375" fill="rgb(31,119,180)" /><rect x="584" y="154.5" width="21.375" height="53.4375" fill="rgb(31,119,180)" /><rect x="59" y="98.25" width="21.375" height="53.4375" fill="rgb(31,119,180)" /><rect x="81.5" y="98.25" width="21.375" height="53.4375" fill="rgb(31,119,180)" /><rect x="104" y="98.25" width="21.375" height="53.4375" fill="rgb(31,119,180)" /><rect x="126.5" y="98.25" width="21.375" height="53.4375" fill="rgb(31,119,180)" /><rect x="149" y="98.25" width="21.375" height="53.4375" fill="rgb(31,119,180)" /><rect x="171.5" y="98.25" width="21.375" height="53.4375" fill="rgb(31,119,180)" /><rect x="194" y="98.25" width="21.375" height="53.4375" fill="rgb(31,119,180)" /><rect x="216.5" y="98.25" width="21.375" height="53.4375" fill="rgb(31,119,180)" /><rect x="239" y="98.25" width="21.375" height="53.4375" fill="rgb(31,119,180)" /><rect x="261.5" y="98.25" width="21.375" height="53.4375" fill="rgb(31,119,180)" /><rect x="284" y="98.25" width="7.125" height="53.4375" fill="rgb(44,160,44)" /><rect x="291.5" y="98.25" width="21.375" height="53.4375" fill="rgb(31,119,180)" /><rect x="314" y="98.25" width="21.375" height="53.4375" fill="rgb(31,119,180)" /><rect x="336.5" y="98.25" width="21.375" height="53.4375" fill="rgb(31,119,180)" /><rect x="359" y="98.25" width="21.375" height="53.4375" fill="rgb(31,119,180)" /><rect x="381.5" y="98.25" width="21.375" height="53.4375" fill="rgb(31,119,180)" /><rect x="59" y="42" width="21.375" height="53.4375" fill="rgb(31,119,180)" /><rect x="81.5" y="42" width="21.375" height="53.4375" fill="rgb(31,119,180)" /><rect x="104" y="42" width="21.375" height="53.4375" fill="rgb(31,119,180)" /><rect x="126.5" y="42" width="21.375" height="53.4375" fill="rgb(31,119,180)" /><rect x="149" y="42" width="21.375" height="53.4375" fill="rgb(31,119,180)" /><rect x="171.5" y="42" width="21.375" height="53.4375" fill="rgb(31,119,180)" /><rect x="194" y="42" width="21.375" height="53.4375" fill="rgb(31,119,180)" /><rect x="216.5" y="42" width="21.375" height="53.4375" fill="rgb(31,119,180)" /><rect x="239" y="42" width="21.375" height="53.4375" fill="rgb(31,119,180)" /><rect x="261.5" y="42" width="21.375" height="53.4375" fill="rgb(31,119,180)" /><rect x="284" y="42" width="7.125" height="53.4375" fill="rgb(44,160,44)" /><rect x="291.5" y="42" width="21.375" height="53.4375" fill="rgb(31,119,180)" /><rect x="314" y="42" width="21.375" height="53.4375" fill="rgb(31,119,180)" /><rect x="336.5" y="42" width="21.375" height="53.4375" fill="rgb(31,119,180)" /><rect x="359" y="42" width="21.375" height="53.4375" fill="rgb(31,119,180)" /><rect x="381.5" y="42" width="7.125" height="53.4375" fill="rgb(255,127,14)" /><rect x="389" y="42" width="21.375" height="53.4375" fill="rgb(31,119,180)" /><rect x="664" y="32" width="80" height="92" fill="white" /><rect x="664" y="32" width="80" height="92" fill="none" stroke="black" stroke-width="1" /><text x="694" y="47" font-size="12" text-anchor="start">C</text><rect x="674" y="37" width="12" height="12" fill="rgb(44,160,44)" /><text x="694" y="65" font-size="12" text-anchor="start">T</text><rect x="674" y="55" width="12" height="12" fill="rgb(255,127,14)" /><text x="694" y="83" font-size="12" text-anchor="start">GGT</text><rect x="674" y="73" width="12" height="12" fill="rgb(214,39,40)" /><text x="694" y="101" font-size="12" text-anchor="start">CAT</text><rect x="674" y="91" width="12" height="12" fill="rgb(31,119,180)" /></svg>