<svg xmlns="http://www.w3.org/2000/svg" width="673" height="541" fill="black"><rect width="100%" height="100%" fill="white" /><line x1="59" y1="492" x2="659" y2="492" stroke="black" stroke-width="1" /><line x1="59" y1="42" x2="59" y2="492" stroke="black" stroke-width="1" /><line x1="59" y1="454.5" x2="659" y2="454.5" stroke="#ccc" stroke-width="1" /><line x1="59" y1="417" x2="659" y2="417" stroke="#ccc" stroke-width="1" /><line x1="59" y1="379.5" x2="659" y2="379.5" stroke="#ccc" stroke-width="1" /><line x1="59" y1="342" x2="659" y2="342" stroke="#ccc" stroke-width="1" /><line x1="59" y1="304.5" x2="659" y2="304.5" stroke="#ccc" stroke-width="1" /><line x1="59" y1="267" x2="659" y2="267" stroke="#ccc" stroke-width="1" /><line x1="59" y1="229.5" x2="659" y2="229.5" stroke="#ccc" stroke-width="1" /><line x1="59" y1="192" x2="659" y2="192" stroke="#ccc" stroke-width="1" /><line x1="59" y1="154.5" x2="659" y2="154.5" stroke="#ccc" stroke-width="1" /><line x1="59" y1="117" x2="659" y2="117" stroke="#ccc" stroke-width="1" /><line x1="59" y1="79.5" x2="659" y2="79.5" stroke="#ccc" stroke-width="1" /><line x1="59" y1="42" x2="659" y2="42" stroke="#ccc" stroke-width="1" /><text x="134" y="507" font-size="10" text-anchor="middle">Control</text><line x1="134" y1="492" x2="134" y2="497" stroke="black" stroke-width="1" /><text x="284" y="507" font-size="10" text-anchor="middle">Treatment A</text><line x1="284" y1="492" x2="284" y2="497" stroke="black" stroke-width="1" /><text x="434" y="507" font-size="10" text-anchor="middle">Treatment B</text><line x1="434" y1="492" x2="434" y2="497" stroke="black" stroke-width="1" /><text x="584" y="507" font-size="10" text-anchor="middle">Treatment C</text><line x1="584" y1="492" x2="584" y2="497" stroke="black" stroke-width="1" /><line x1="54" y1="492" x2="59" y2="492" stroke="black" stroke-width="1" /><text x="51" y="495.5" font-size="10" text-anchor="end">0</text><line x1="54" y1="454.5" x2="59" y2="454.5" stroke="black" stroke-width="1" /><text x="51" y="458" font-size="10" text-anchor="end">1</text><line x1="54" y1="417" x2="59" y2="417" stroke="black" stroke-width="1" /><text x="51" y="420.5" font-size="10" text-anchor="end">2</text><line x1="54" y1="379.5" x2="59" y2="379.5" stroke="black" stroke-width="1" /><text x="51" y="383" font-size="10" text-anchor="end">3</text><line x1="54" y1="342" x2="59" y2="342" stroke="black" stroke-width="1" /><text x="51" y="345.5" font-size="10" text-anchor="end">4</text><line x1="54" y1="304.5" x2="59" y2="304.5" stroke="black" stroke-width="1" /><text x="51" y="308" font-size="10" text-anchor="end">5</text><line x1="54" y1="267" x2="59" y2="267" stroke="black" stroke-width="1" /><text x="51" y="270.5" font-size="10" text-anchor="end">6</text><line x1="54" y1="229.5" x2="59" y2="229.5" stroke="black" stroke-width="1" /><text x="51" y="233" font-size="10" text-anchor="end">7</text><line x1="54" y1="192" x2="59" y2="192" stroke="black" stroke-width="1" /><text x="51" y="195.5" font-size="10" text-anchor="end">8</text><line x1="54" y1="154.5" x2="59" y2="154.5" stroke="black" stroke-width="1" /><text x="51" y="158" font-size="10" text-anchor="end">9</text><line x1="54" y1="117" x2="59" y2="117" stroke="black" stroke-width="1" /><text x="51" y="120.5" font-size="10" text-anchor="end">10</text><line x1="54" y1="79.5" x2="59" y2="79.5" stroke="black" stroke-width="1" /><text x="51" y="83" font-size="10" text-anchor="end">11</text><line x1="54" y1="42" x2="59" y2="42" stroke="black" stroke-width="1" /><text x="51" y="45.5" font-size="10" text-anchor="end">12</text><text x="14" y="270.5" font-size="14" text-anchor="middle" transform="rotate(-90,14,270.5)">Value</text><text x="336.5" y="21" font-size="16" text-anchor="middle">Box Plot</text><rect x="74" y="289.4522851263607" width="120" height="44.28758626013553" fill="steelblue" /><line x1="74" y1="305.1299498576848" x2="194" y2="305.1299498576848" stroke="white" stroke-width="1.5" /><line x1="134" y1="397.8498204776078" x2="134" y2="333.73987138649625" stroke="steelblue" stroke-width="1" /><line x1="134" y1="289.4522851263607" x2="134" y2="232.1356717378577" stroke="steelblue" stroke-width="1" /><line x1="104" y1="397.8498204776078" x2="164" y2="397.8498204776078" stroke="steelblue" stroke-width="1" /><line x1="104" y1="232.1356717378577" x2="164" y2="232.1356717378577" stroke="steelblue" stroke-width="1" /><rect x="224" y="210.74868619488598" width="120" height="56.499949958470324" fill="steelblue" /><line x1="224" y1="246.04608804982908" x2="344" y2="246.04608804982908" stroke="white" stroke-width="1.5" /><line x1="284" y1="341.679246711237" x2="284" y2="267.2486361533563" stroke="steelblue" stroke-width="1" /><line x1="284" y1="210.74868619488598" x2="284" y2="127.98685378660218" stroke="steelblue" stroke-width="1" /><line x1="254" y1="341.679246711237" x2="314" y2="341.679246711237" stroke="steelblue" stroke-width="1" /><line x1="254" y1="127.98685378660218" x2="314" y2="127.98685378660218" stroke="steelblue" stroke-width="1" /><rect x="374" y="314.05083794821246" width="120" height="52.50500396237908" fill="steelblue" /><line x1="374" y1="335.4260447991861" x2="494" y2="335.4260447991861" stroke="white" stroke-width="1.5" /><line x1="434" y1="422.0394909061589" x2="434" y2="366.55584191059154" stroke="steelblue" stroke-width="1" /><line x1="434" y1="314.05083794821246" x2="434" y2="273.0955039342598" stroke="steelblue" stroke-width="1" /><line x1="404" y1="422.0394909061589" x2="464" y2="422.0394909061589" stroke="steelblue" stroke-width="1" /><line x1="404" y1="273.0955039342598" x2="464" y2="273.0955039342598" stroke="steelblue" stroke-width="1" /><rect x="524" y="188.54098041695238" width="120" height="76.80104165951036" fill="steelblue" /><line x1="524" y1="213.6887775417337" x2="644" y2="213.6887775417337" stroke="white" stroke-width="1.5" /><line x1="584" y1="335.17821250141446" x2="584" y2="265.34202207646274" stroke="steelblue" stroke-width="1" /><line x1="584" y1="188.54098041695238" x2="584" y2="138.57697526745795" stroke="steelblue" stroke-width="1" /><line x1="554" y1="335.17821250141446" x2="614" y2="335.17821250141446" stroke="steelblue" stroke-width="1" /><line x1="554" y1="138.57697526745795" x2="614" y2="138.57697526745795" stroke="steelblue" stroke-width="1" /></svg>