<svg xmlns="http://www.w3.org/2000/svg" width="735.8000000000001" height="545" font-family="DejaVu Sans, Liberation Sans, Arial, sans-serif" fill="black"><rect width="100%" height="100%" fill="white" /><defs><clipPath id="kuva-clip-4"><rect x="114.2" y="44" width="600" height="450"/></clipPath></defs><line x1="114.2" y1="494" x2="714.2" y2="494" stroke="#000000" stroke-width="1" /><line x1="114.2" y1="44" x2="114.2" y2="494" stroke="#000000" stroke-width="1" /><text x="106.2" y="408.2" font-size="12" text-anchor="end">Control</text><line x1="109.2" y1="404" x2="114.2" y2="404" stroke="#000000" stroke-width="1" /><text x="106.2" y="318.2" font-size="12" text-anchor="end">Treatment A</text><line x1="109.2" y1="314" x2="114.2" y2="314" stroke="#000000" stroke-width="1" /><text x="106.2" y="228.20000000000002" font-size="12" text-anchor="end">Treatment B</text><line x1="109.2" y1="224" x2="114.2" y2="224" stroke="#000000" stroke-width="1" /><text x="106.2" y="138.20000000000002" font-size="12" text-anchor="end">Treatment C</text><line x1="109.2" y1="134" x2="114.2" y2="134" stroke="#000000" stroke-width="1" /><line x1="114.2" y1="494" x2="114.2" y2="499" stroke="#000000" stroke-width="1" /><text x="114.2" y="511" font-size="12" text-anchor="middle">0</text><line x1="234.20000000000002" y1="494" x2="234.20000000000002" y2="499" stroke="#000000" stroke-width="1" /><text x="234.20000000000002" y="511" font-size="12" text-anchor="middle">2.5</text><line x1="354.2" y1="494" x2="354.2" y2="499" stroke="#000000" stroke-width="1" /><text x="354.2" y="511" font-size="12" text-anchor="middle">5</text><line x1="474.2" y1="494" x2="474.2" y2="499" stroke="#000000" stroke-width="1" /><text x="474.2" y="511" font-size="12" text-anchor="middle">7.5</text><line x1="594.2" y1="494" x2="594.2" y2="499" stroke="#000000" stroke-width="1" /><text x="594.2" y="511" font-size="12" text-anchor="middle">10</text><line x1="714.2" y1="494" x2="714.2" y2="499" stroke="#000000" stroke-width="1" /><text x="714.2" y="511" font-size="12" text-anchor="middle">12.5</text><text x="414.2" y="538" font-size="14" text-anchor="middle">Value</text><text x="414.2" y="27.400000000000002" font-size="18" text-anchor="middle">Horizontal Box Plot</text><g clip-path="url(#kuva-clip-4)"><rect x="316.77" y="368" width="56.69" height="72" fill="#4682b4" /><line x1="353.39" y1="368" x2="353.39" y2="440" stroke="#ffffff" stroke-width="1.5" /><line x1="234.71" y1="404" x2="316.77" y2="404" stroke="#4682b4" stroke-width="1" /><line x1="373.46" y1="404" x2="446.83" y2="404" stroke="#4682b4" stroke-width="1" /><line x1="234.71" y1="422" x2="234.71" y2="386" stroke="#4682b4" stroke-width="1" /><line x1="446.83" y1="422" x2="446.83" y2="386" stroke="#4682b4" stroke-width="1" /><rect x="401.88" y="278" width="72.32000000000001" height="72" fill="#ff6347" /><line x1="429.02" y1="278" x2="429.02" y2="350" stroke="#ffffff" stroke-width="1.5" /><line x1="306.61" y1="314" x2="401.88" y2="314" stroke="#ff6347" stroke-width="1" /><line x1="474.2" y1="314" x2="580.14" y2="314" stroke="#ff6347" stroke-width="1" /><line x1="306.61" y1="332" x2="306.61" y2="296" stroke="#ff6347" stroke-width="1" /><line x1="580.14" y1="332" x2="580.14" y2="296" stroke="#ff6347" stroke-width="1" /><rect x="274.77" y="188" width="67.21000000000001" height="72" fill="#2e8b57" /><line x1="314.61" y1="188" x2="314.61" y2="260" stroke="#ffffff" stroke-width="1.5" /><line x1="203.75" y1="224" x2="274.77" y2="224" stroke="#2e8b57" stroke-width="1" /><line x1="341.97" y1="224" x2="394.40000000000003" y2="224" stroke="#2e8b57" stroke-width="1" /><line x1="203.75" y1="242" x2="203.75" y2="206" stroke="#2e8b57" stroke-width="1" /><line x1="394.40000000000003" y1="242" x2="394.40000000000003" y2="206" stroke="#2e8b57" stroke-width="1" /><rect x="404.32" y="98" width="98.31" height="72" fill="#daa520" /><line x1="470.44" y1="98" x2="470.44" y2="170" stroke="#ffffff" stroke-width="1.5" /><line x1="314.93" y1="134" x2="404.32" y2="134" stroke="#daa520" stroke-width="1" /><line x1="502.63" y1="134" x2="566.58" y2="134" stroke="#daa520" stroke-width="1" /><line x1="314.93" y1="152" x2="314.93" y2="116" stroke="#daa520" stroke-width="1" /><line x1="566.58" y1="152" x2="566.58" y2="116" stroke="#daa520" stroke-width="1" /></g></svg>