<svg xmlns="http://www.w3.org/2000/svg" width="673" height="541" fill="black"><rect width="100%" height="100%" fill="white" /><line x1="59" y1="492" x2="659" y2="492" stroke="black" stroke-width="1" /><line x1="59" y1="42" x2="59" y2="492" stroke="black" stroke-width="1" /><line x1="59" y1="454.5" x2="659" y2="454.5" stroke="#ccc" stroke-width="1" /><line x1="59" y1="417" x2="659" y2="417" stroke="#ccc" stroke-width="1" /><line x1="59" y1="379.5" x2="659" y2="379.5" stroke="#ccc" stroke-width="1" /><line x1="59" y1="342" x2="659" y2="342" stroke="#ccc" stroke-width="1" /><line x1="59" y1="304.5" x2="659" y2="304.5" stroke="#ccc" stroke-width="1" /><line x1="59" y1="267" x2="659" y2="267" stroke="#ccc" stroke-width="1" /><line x1="59" y1="229.5" x2="659" y2="229.5" stroke="#ccc" stroke-width="1" /><line x1="59" y1="192" x2="659" y2="192" stroke="#ccc" stroke-width="1" /><line x1="59" y1="154.5" x2="659" y2="154.5" stroke="#ccc" stroke-width="1" /><line x1="59" y1="117" x2="659" y2="117" stroke="#ccc" stroke-width="1" /><line x1="59" y1="79.5" x2="659" y2="79.5" stroke="#ccc" stroke-width="1" /><line x1="59" y1="42" x2="659" y2="42" stroke="#ccc" stroke-width="1" /><text x="134" y="507" font-size="10" text-anchor="middle">Control</text><line x1="134" y1="492" x2="134" y2="497" stroke="black" stroke-width="1" /><text x="284" y="507" font-size="10" text-anchor="middle">Treatment A</text><line x1="284" y1="492" x2="284" y2="497" stroke="black" stroke-width="1" /><text x="434" y="507" font-size="10" text-anchor="middle">Treatment B</text><line x1="434" y1="492" x2="434" y2="497" stroke="black" stroke-width="1" /><text x="584" y="507" font-size="10" text-anchor="middle">Treatment C</text><line x1="584" y1="492" x2="584" y2="497" stroke="black" stroke-width="1" /><line x1="54" y1="492" x2="59" y2="492" stroke="black" stroke-width="1" /><text x="51" y="495.5" font-size="10" text-anchor="end">0</text><line x1="54" y1="454.5" x2="59" y2="454.5" stroke="black" stroke-width="1" /><text x="51" y="458" font-size="10" text-anchor="end">1</text><line x1="54" y1="417" x2="59" y2="417" stroke="black" stroke-width="1" /><text x="51" y="420.5" font-size="10" text-anchor="end">2</text><line x1="54" y1="379.5" x2="59" y2="379.5" stroke="black" stroke-width="1" /><text x="51" y="383" font-size="10" text-anchor="end">3</text><line x1="54" y1="342" x2="59" y2="342" stroke="black" stroke-width="1" /><text x="51" y="345.5" font-size="10" text-anchor="end">4</text><line x1="54" y1="304.5" x2="59" y2="304.5" stroke="black" stroke-width="1" /><text x="51" y="308" font-size="10" text-anchor="end">5</text><line x1="54" y1="267" x2="59" y2="267" stroke="black" stroke-width="1" /><text x="51" y="270.5" font-size="10" text-anchor="end">6</text><line x1="54" y1="229.5" x2="59" y2="229.5" stroke="black" stroke-width="1" /><text x="51" y="233" font-size="10" text-anchor="end">7</text><line x1="54" y1="192" x2="59" y2="192" stroke="black" stroke-width="1" /><text x="51" y="195.5" font-size="10" text-anchor="end">8</text><line x1="54" y1="154.5" x2="59" y2="154.5" stroke="black" stroke-width="1" /><text x="51" y="158" font-size="10" text-anchor="end">9</text><line x1="54" y1="117" x2="59" y2="117" stroke="black" stroke-width="1" /><text x="51" y="120.5" font-size="10" text-anchor="end">10</text><line x1="54" y1="79.5" x2="59" y2="79.5" stroke="black" stroke-width="1" /><text x="51" y="83" font-size="10" text-anchor="end">11</text><line x1="54" y1="42" x2="59" y2="42" stroke="black" stroke-width="1" /><text x="51" y="45.5" font-size="10" text-anchor="end">12</text><text x="14" y="270.5" font-size="14" text-anchor="middle" transform="rotate(-90,14,270.5)">Value</text><text x="336.5" y="21" font-size="16" text-anchor="middle">Box Plot + Strip Overlay</text><rect x="74" y="289.4522851263607" width="120" height="44.28758626013553" fill="steelblue" /><line x1="74" y1="305.1299498576848" x2="194" y2="305.1299498576848" stroke="white" stroke-width="1.5" /><line x1="134" y1="397.8498204776078" x2="134" y2="333.73987138649625" stroke="steelblue" stroke-width="1" /><line x1="134" y1="289.4522851263607" x2="134" y2="232.1356717378577" stroke="steelblue" stroke-width="1" /><line x1="104" y1="397.8498204776078" x2="164" y2="397.8498204776078" stroke="steelblue" stroke-width="1" /><line x1="104" y1="232.1356717378577" x2="164" y2="232.1356717378577" stroke="steelblue" stroke-width="1" /><rect x="224" y="210.74868619488598" width="120" height="56.499949958470324" fill="steelblue" /><line x1="224" y1="246.04608804982908" x2="344" y2="246.04608804982908" stroke="white" stroke-width="1.5" /><line x1="284" y1="341.679246711237" x2="284" y2="267.2486361533563" stroke="steelblue" stroke-width="1" /><line x1="284" y1="210.74868619488598" x2="284" y2="127.98685378660218" stroke="steelblue" stroke-width="1" /><line x1="254" y1="341.679246711237" x2="314" y2="341.679246711237" stroke="steelblue" stroke-width="1" /><line x1="254" y1="127.98685378660218" x2="314" y2="127.98685378660218" stroke="steelblue" stroke-width="1" /><rect x="374" y="314.05083794821246" width="120" height="52.50500396237908" fill="steelblue" /><line x1="374" y1="335.4260447991861" x2="494" y2="335.4260447991861" stroke="white" stroke-width="1.5" /><line x1="434" y1="422.0394909061589" x2="434" y2="366.55584191059154" stroke="steelblue" stroke-width="1" /><line x1="434" y1="314.05083794821246" x2="434" y2="273.0955039342598" stroke="steelblue" stroke-width="1" /><line x1="404" y1="422.0394909061589" x2="464" y2="422.0394909061589" stroke="steelblue" stroke-width="1" /><line x1="404" y1="273.0955039342598" x2="464" y2="273.0955039342598" stroke="steelblue" stroke-width="1" /><rect x="524" y="188.54098041695238" width="120" height="76.80104165951036" fill="steelblue" /><line x1="524" y1="213.6887775417337" x2="644" y2="213.6887775417337" stroke="white" stroke-width="1.5" /><line x1="584" y1="335.17821250141446" x2="584" y2="265.34202207646274" stroke="steelblue" stroke-width="1" /><line x1="584" y1="188.54098041695238" x2="584" y2="138.57697526745795" stroke="steelblue" stroke-width="1" /><line x1="554" y1="335.17821250141446" x2="614" y2="335.17821250141446" stroke="steelblue" stroke-width="1" /><line x1="554" y1="138.57697526745795" x2="614" y2="138.57697526745795" stroke="steelblue" stroke-width="1" /><circle cx="143.4291543536873" cy="272.8500519891684" r="3" fill="rgba(0,0,0,0.4)" /><circle cx="128.56463120184983" cy="277.66647327260273" r="3" fill="rgba(0,0,0,0.4)" /><circle cx="148.51682504532465" cy="376.34517913570346" r="3" fill="rgba(0,0,0,0.4)" /><circle cx="140.03406794404265" cy="287.5313823605826" r="3" fill="rgba(0,0,0,0.4)" /><circle cx="142.80513469075188" cy="335.0921702516772" r="3" fill="rgba(0,0,0,0.4)" /><circle cx="136.6429539940268" cy="291.0628073562233" r="3" fill="rgba(0,0,0,0.4)" /><circle cx="122.76057326188227" cy="193.936819864276" r="3" fill="rgba(0,0,0,0.4)" /><circle cx="137.15367345971515" cy="300.3186447315352" r="3" fill="rgba(0,0,0,0.4)" /><circle cx="125.23151514869966" cy="333.8607504992972" r="3" fill="rgba(0,0,0,0.4)" /><circle cx="147.00041352934494" cy="374.9634179394681" r="3" fill="rgba(0,0,0,0.4)" /><circle cx="135.78618418058403" cy="243.1733150279627" r="3" fill="rgba(0,0,0,0.4)" /><circle cx="144.50089478823384" cy="318.46900688966446" r="3" fill="rgba(0,0,0,0.4)" /><circle cx="139.4001941182344" cy="333.9668777789549" r="3" fill="rgba(0,0,0,0.4)" /><circle cx="121.08591413133985" cy="319.87899087517184" r="3" fill="rgba(0,0,0,0.4)" /><circle cx="131.09219902476843" cy="339.60308807913964" r="3" fill="rgba(0,0,0,0.4)" /><circle cx="135.38011517571556" cy="333.69957834889595" r="3" fill="rgba(0,0,0,0.4)" /><circle cx="125.38430725897548" cy="298.8989709032006" r="3" fill="rgba(0,0,0,0.4)" /><circle cx="120.50985643461411" cy="305.68808355573344" r="3" fill="rgba(0,0,0,0.4)" /><circle cx="136.299108622882" cy="258.68438350686256" r="3" fill="rgba(0,0,0,0.4)" /><circle cx="133.00610126008218" cy="283.83880171067506" r="3" fill="rgba(0,0,0,0.4)" /><circle cx="123.85110436377092" cy="355.07625060565397" r="3" fill="rgba(0,0,0,0.4)" /><circle cx="144.88120623848022" cy="240.69749815897" r="3" fill="rgba(0,0,0,0.4)" /><circle cx="138.57667415086348" cy="322.4339292552846" r="3" fill="rgba(0,0,0,0.4)" /><circle cx="134.76488287582882" cy="312.895420134627" r="3" fill="rgba(0,0,0,0.4)" /><circle cx="143.47524645980758" cy="337.57193296746505" r="3" fill="rgba(0,0,0,0.4)" /><circle cx="123.28165575086015" cy="291.81662967355317" r="3" fill="rgba(0,0,0,0.4)" /><circle cx="131.78404979901381" cy="344.48596798528513" r="3" fill="rgba(0,0,0,0.4)" /><circle cx="147.46815958529476" cy="253.3599358125412" r="3" fill="rgba(0,0,0,0.4)" /><circle cx="134.7027866419532" cy="300.43480415913797" r="3" fill="rgba(0,0,0,0.4)" /><circle cx="145.1557547156755" cy="267.84515176640696" r="3" fill="rgba(0,0,0,0.4)" /><circle cx="121.53449527554662" cy="295.95317935895423" r="3" fill="rgba(0,0,0,0.4)" /><circle cx="138.11267107173654" cy="295.14145080471076" r="3" fill="rgba(0,0,0,0.4)" /><circle cx="140.58135991172315" cy="303.620773421642" r="3" fill="rgba(0,0,0,0.4)" /><circle cx="127.37432055076827" cy="301.4702296036731" r="3" fill="rgba(0,0,0,0.4)" /><circle cx="148.52686667917368" cy="232.1356717378577" r="3" fill="rgba(0,0,0,0.4)" /><circle cx="140.46277058125725" cy="326.2446635784775" r="3" fill="rgba(0,0,0,0.4)" /><circle cx="142.66220564686745" cy="314.36451192996645" r="3" fill="rgba(0,0,0,0.4)" /><circle cx="131.18911395113713" cy="291.9694320467536" r="3" fill="rgba(0,0,0,0.4)" /><circle cx="135.16235773905396" cy="287.3709167413972" r="3" fill="rgba(0,0,0,0.4)" /><circle cx="142.98311017211068" cy="279.9111021360538" r="3" fill="rgba(0,0,0,0.4)" /><circle cx="144.59866013941314" cy="306.73291464937665" r="3" fill="rgba(0,0,0,0.4)" /><circle cx="124.08190920281002" cy="304.5718161596361" r="3" fill="rgba(0,0,0,0.4)" /><circle cx="133.0195494480201" cy="310.20659765376257" r="3" fill="rgba(0,0,0,0.4)" /><circle cx="136.75118560254475" cy="240.82212014536057" r="3" fill="rgba(0,0,0,0.4)" /><circle cx="120.43112646555687" cy="296.5166736982291" r="3" fill="rgba(0,0,0,0.4)" /><circle cx="131.43779507615346" cy="290.09258604828676" r="3" fill="rgba(0,0,0,0.4)" /><circle cx="138.32078686018644" cy="290.44962850215205" r="3" fill="rgba(0,0,0,0.4)" /><circle cx="136.35934130703828" cy="319.99719385589583" r="3" fill="rgba(0,0,0,0.4)" /><circle cx="141.69653138087062" cy="370.4282114223737" r="3" fill="rgba(0,0,0,0.4)" /><circle cx="126.26402778570773" cy="397.8498204776078" r="3" fill="rgba(0,0,0,0.4)" /><circle cx="141.31569198468594" cy="269.9829448381064" r="3" fill="rgba(0,0,0,0.4)" /><circle cx="133.6946850475303" cy="293.8740876004979" r="3" fill="rgba(0,0,0,0.4)" /><circle cx="132.59645458740647" cy="308.550838533799" r="3" fill="rgba(0,0,0,0.4)" /><circle cx="143.28890719251245" cy="372.582365150675" r="3" fill="rgba(0,0,0,0.4)" /><circle cx="137.79493089672488" cy="309.60089793555454" r="3" fill="rgba(0,0,0,0.4)" /><circle cx="124.27597704681274" cy="305.8250788288864" r="3" fill="rgba(0,0,0,0.4)" /><circle cx="141.12606600506115" cy="340.0891050578567" r="3" fill="rgba(0,0,0,0.4)" /><circle cx="124.50402721340309" cy="337.8891364601162" r="3" fill="rgba(0,0,0,0.4)" /><circle cx="138.55243564789714" cy="311.06372526642633" r="3" fill="rgba(0,0,0,0.4)" /><circle cx="120.81266136871758" cy="338.3455520592209" r="3" fill="rgba(0,0,0,0.4)" /><circle cx="274.04161483445637" cy="194.30980780041205" r="3" fill="rgba(0,0,0,0.4)" /><circle cx="286.93260708294787" cy="244.78815857697458" r="3" fill="rgba(0,0,0,0.4)" /><circle cx="295.28574687177183" cy="234.69970315803494" r="3" fill="rgba(0,0,0,0.4)" /><circle cx="297.3505277193765" cy="278.5395556780449" r="3" fill="rgba(0,0,0,0.4)" /><circle cx="283.23134370706816" cy="248.6658244496082" r="3" fill="rgba(0,0,0,0.4)" /><circle cx="279.1379392659021" cy="186.36275454473764" r="3" fill="rgba(0,0,0,0.4)" /><circle cx="269.4561422135827" cy="267.0001035049852" r="3" fill="rgba(0,0,0,0.4)" /><circle cx="275.1286594468452" cy="192.9195174095335" r="3" fill="rgba(0,0,0,0.4)" /><circle cx="298.24659769926166" cy="252.92734140928061" r="3" fill="rgba(0,0,0,0.4)" /><circle cx="276.7684757771277" cy="184.8538696504557" r="3" fill="rgba(0,0,0,0.4)" /><circle cx="290.198958661457" cy="247.30401752268372" r="3" fill="rgba(0,0,0,0.4)" /><circle cx="282.58182527634784" cy="233.8167450460549" r="3" fill="rgba(0,0,0,0.4)" /><circle cx="274.76367754426076" cy="217.08412918959033" r="3" fill="rgba(0,0,0,0.4)" /><circle cx="270.3484858922069" cy="215.3578243018896" r="3" fill="rgba(0,0,0,0.4)" /><circle cx="281.10606910270405" cy="173.01178405753978" r="3" fill="rgba(0,0,0,0.4)" /><circle cx="271.0547568395958" cy="253.91922557255936" r="3" fill="rgba(0,0,0,0.4)" /><circle cx="272.9527924396548" cy="237.24469930962186" r="3" fill="rgba(0,0,0,0.4)" /><circle cx="279.00966294845045" cy="263.7906943788742" r="3" fill="rgba(0,0,0,0.4)" /><circle cx="297.51425236565035" cy="279.02566410030613" r="3" fill="rgba(0,0,0,0.4)" /><circle cx="291.4724139358326" cy="304.6282633070216" r="3" fill="rgba(0,0,0,0.4)" /><circle cx="278.3795447020543" cy="239.32353459777318" r="3" fill="rgba(0,0,0,0.4)" /><circle cx="279.6327808624064" cy="238.7590751365685" r="3" fill="rgba(0,0,0,0.4)" /><circle cx="290.70343323213837" cy="236.34026534629567" r="3" fill="rgba(0,0,0,0.4)" /><circle cx="285.4595251511862" cy="127.98685378660218" r="3" fill="rgba(0,0,0,0.4)" /><circle cx="273.79808205255506" cy="305.09761525605654" r="3" fill="rgba(0,0,0,0.4)" /><circle cx="279.88421805976037" cy="258.41279365391244" r="3" fill="rgba(0,0,0,0.4)" /><circle cx="283.68662886791617" cy="281.52153415939813" r="3" fill="rgba(0,0,0,0.4)" /><circle cx="298.41793088756543" cy="316.26959914686745" r="3" fill="rgba(0,0,0,0.4)" /><circle cx="271.11888305725336" cy="264.8962869249325" r="3" fill="rgba(0,0,0,0.4)" /><circle cx="277.78719572159105" cy="195.64849513448712" r="3" fill="rgba(0,0,0,0.4)" /><circle cx="294.80452293667383" cy="264.8713813356235" r="3" fill="rgba(0,0,0,0.4)" /><circle cx="271.5812018711604" cy="251.36934550336238" r="3" fill="rgba(0,0,0,0.4)" /><circle cx="285.96541069595673" cy="239.65163808411384" r="3" fill="rgba(0,0,0,0.4)" /><circle cx="292.45431202672694" cy="203.22009805961488" r="3" fill="rgba(0,0,0,0.4)" /><circle cx="285.11124772662106" cy="293.7194382257304" r="3" fill="rgba(0,0,0,0.4)" /><circle cx="276.06771382075885" cy="198.2748778504431" r="3" fill="rgba(0,0,0,0.4)" /><circle cx="294.7563321719007" cy="194.67506432806044" r="3" fill="rgba(0,0,0,0.4)" /><circle cx="274.0435589189492" cy="304.4895799763798" r="3" fill="rgba(0,0,0,0.4)" /><circle cx="273.6791432656798" cy="220.97705273363016" r="3" fill="rgba(0,0,0,0.4)" /><circle cx="295.3616328479492" cy="286.4838913613821" r="3" fill="rgba(0,0,0,0.4)" /><circle cx="271.78290329007683" cy="243.55313767920177" r="3" fill="rgba(0,0,0,0.4)" /><circle cx="269.6571680947786" cy="273.685214831308" r="3" fill="rgba(0,0,0,0.4)" /><circle cx="270.03155843938146" cy="341.679246711237" r="3" fill="rgba(0,0,0,0.4)" /><circle cx="294.4893424182901" cy="183.78731821682635" r="3" fill="rgba(0,0,0,0.4)" /><circle cx="278.1976061659969" cy="256.3618611607056" r="3" fill="rgba(0,0,0,0.4)" /><circle cx="276.89547744944036" cy="209.0304367913384" r="3" fill="rgba(0,0,0,0.4)" /><circle cx="280.2575796250313" cy="278.35559205015386" r="3" fill="rgba(0,0,0,0.4)" /><circle cx="295.9249674431965" cy="249.99491415304053" r="3" fill="rgba(0,0,0,0.4)" /><circle cx="269.75456700251175" cy="192.15364591723613" r="3" fill="rgba(0,0,0,0.4)" /><circle cx="295.724616811519" cy="259.5435696867761" r="3" fill="rgba(0,0,0,0.4)" /><circle cx="289.1842060731251" cy="178.13923804567094" r="3" fill="rgba(0,0,0,0.4)" /><circle cx="269.33908539582853" cy="267.9942340984697" r="3" fill="rgba(0,0,0,0.4)" /><circle cx="281.2716007709099" cy="298.38816486678763" r="3" fill="rgba(0,0,0,0.4)" /><circle cx="288.3913432816704" cy="271.13862145754297" r="3" fill="rgba(0,0,0,0.4)" /><circle cx="270.7799603713044" cy="219.03337198586746" r="3" fill="rgba(0,0,0,0.4)" /><circle cx="281.868678209678" cy="264.22174731608357" r="3" fill="rgba(0,0,0,0.4)" /><circle cx="278.67316069667334" cy="206.79663652049499" r="3" fill="rgba(0,0,0,0.4)" /><circle cx="295.11061921301007" cy="211.32143599606843" r="3" fill="rgba(0,0,0,0.4)" /><circle cx="283.7772758822148" cy="263.4688666117718" r="3" fill="rgba(0,0,0,0.4)" /><circle cx="277.91372753770304" cy="228.91823953219836" r="3" fill="rgba(0,0,0,0.4)" /><circle cx="419.0366187473215" cy="403.2927102901104" r="3" fill="rgba(0,0,0,0.4)" /><circle cx="441.7171676618123" cy="311.15643089866575" r="3" fill="rgba(0,0,0,0.4)" /><circle cx="445.01560112569047" cy="301.61650163890624" r="3" fill="rgba(0,0,0,0.4)" /><circle cx="443.80042381586" cy="285.3028550103684" r="3" fill="rgba(0,0,0,0.4)" /><circle cx="431.65078518355745" cy="317.6282545202328" r="3" fill="rgba(0,0,0,0.4)" /><circle cx="448.21369331856636" cy="378.6188592713397" r="3" fill="rgba(0,0,0,0.4)" /><circle cx="432.1073551652755" cy="379.6907097780155" r="3" fill="rgba(0,0,0,0.4)" /><circle cx="445.9988527575664" cy="322.8925209640375" r="3" fill="rgba(0,0,0,0.4)" /><circle cx="443.84979201199366" cy="325.8042036390846" r="3" fill="rgba(0,0,0,0.4)" /><circle cx="420.05402072233795" cy="422.0394909061589" r="3" fill="rgba(0,0,0,0.4)" /><circle cx="437.1647906906388" cy="328.9030684538776" r="3" fill="rgba(0,0,0,0.4)" /><circle cx="434.8803539276133" cy="360.48134645035964" r="3" fill="rgba(0,0,0,0.4)" /><circle cx="427.2887244941126" cy="341.1253030219573" r="3" fill="rgba(0,0,0,0.4)" /><circle cx="419.10433541968894" cy="336.90047939797273" r="3" fill="rgba(0,0,0,0.4)" /><circle cx="427.6960314913981" cy="366.39225491297645" r="3" fill="rgba(0,0,0,0.4)" /><circle cx="424.43966536373296" cy="334.79104266415936" r="3" fill="rgba(0,0,0,0.4)" /><circle cx="421.66437069947705" cy="394.0791251847556" r="3" fill="rgba(0,0,0,0.4)" /><circle cx="444.20801662176075" cy="307.8408327985105" r="3" fill="rgba(0,0,0,0.4)" /><circle cx="448.7927432483194" cy="314.4094712232809" r="3" fill="rgba(0,0,0,0.4)" /><circle cx="430.9730170983305" cy="327.78115168247416" r="3" fill="rgba(0,0,0,0.4)" /><circle cx="428.0948087901372" cy="361.9051504268433" r="3" fill="rgba(0,0,0,0.4)" /><circle cx="420.10603967565595" cy="352.8052342862326" r="3" fill="rgba(0,0,0,0.4)" /><circle cx="423.72924761968227" cy="370.02653815101746" r="3" fill="rgba(0,0,0,0.4)" /><circle cx="421.81241543914297" cy="397.6321597312621" r="3" fill="rgba(0,0,0,0.4)" /><circle cx="439.94524203530636" cy="273.0955039342598" r="3" fill="rgba(0,0,0,0.4)" /><circle cx="441.9879671687996" cy="327.32783450273723" r="3" fill="rgba(0,0,0,0.4)" /><circle cx="435.52013567557213" cy="284.8806234750815" r="3" fill="rgba(0,0,0,0.4)" /><circle cx="424.550114268694" cy="304.0812568996747" r="3" fill="rgba(0,0,0,0.4)" /><circle cx="421.07659997890494" cy="350.6284707501161" r="3" fill="rgba(0,0,0,0.4)" /><circle cx="448.1590714272086" cy="364.1505522433957" r="3" fill="rgba(0,0,0,0.4)" /><circle cx="438.61995386461183" cy="232.76056471292407" r="3" fill="rgba(0,0,0,0.4)" /><circle cx="438.81786045231405" cy="350.8990041168797" r="3" fill="rgba(0,0,0,0.4)" /><circle cx="438.8136593350861" cy="299.97367490079455" r="3" fill="rgba(0,0,0,0.4)" /><circle cx="430.61225448234956" cy="352.8318775353688" r="3" fill="rgba(0,0,0,0.4)" /><circle cx="429.71708250187817" cy="295.1995543053863" r="3" fill="rgba(0,0,0,0.4)" /><circle cx="431.9311671269067" cy="382.1344506590841" r="3" fill="rgba(0,0,0,0.4)" /><circle cx="447.1252240268264" cy="350.5170200776032" r="3" fill="rgba(0,0,0,0.4)" /><circle cx="434.15760296703155" cy="367.04660290343696" r="3" fill="rgba(0,0,0,0.4)" /><circle cx="432.2650269368921" cy="354.61120393185" r="3" fill="rgba(0,0,0,0.4)" /><circle cx="434.74038363887485" cy="273.6628292280092" r="3" fill="rgba(0,0,0,0.4)" /><circle cx="443.4671121330684" cy="333.9214030852898" r="3" fill="rgba(0,0,0,0.4)" /><circle cx="446.776525038891" cy="336.0045773190142" r="3" fill="rgba(0,0,0,0.4)" /><circle cx="427.1884393971255" cy="384.7208689087473" r="3" fill="rgba(0,0,0,0.4)" /><circle cx="446.7409174037181" cy="334.84751227935806" r="3" fill="rgba(0,0,0,0.4)" /><circle cx="447.6611533451966" cy="322.8224396780629" r="3" fill="rgba(0,0,0,0.4)" /><circle cx="448.2997950822842" cy="316.0582893449955" r="3" fill="rgba(0,0,0,0.4)" /><circle cx="429.1626356800556" cy="297.34514447301115" r="3" fill="rgba(0,0,0,0.4)" /><circle cx="430.61440816190657" cy="312.97901509628366" r="3" fill="rgba(0,0,0,0.4)" /><circle cx="423.5888859137891" cy="326.07583904443317" r="3" fill="rgba(0,0,0,0.4)" /><circle cx="445.47975444816245" cy="376.0288689545695" r="3" fill="rgba(0,0,0,0.4)" /><circle cx="422.0228317940349" cy="288.3116049464973" r="3" fill="rgba(0,0,0,0.4)" /><circle cx="422.82859709578383" cy="314.4081122321887" r="3" fill="rgba(0,0,0,0.4)" /><circle cx="448.065403405724" cy="369.6399981555899" r="3" fill="rgba(0,0,0,0.4)" /><circle cx="437.07648391789826" cy="374.0140935905307" r="3" fill="rgba(0,0,0,0.4)" /><circle cx="434.03416914408353" cy="386.52573469803207" r="3" fill="rgba(0,0,0,0.4)" /><circle cx="419.9949794647347" cy="367.43715639332174" r="3" fill="rgba(0,0,0,0.4)" /><circle cx="426.665624261112" cy="349.45320830999276" r="3" fill="rgba(0,0,0,0.4)" /><circle cx="434.5053572473824" cy="308.80156796492787" r="3" fill="rgba(0,0,0,0.4)" /><circle cx="432.6620752366739" cy="337.72950590565085" r="3" fill="rgba(0,0,0,0.4)" /><circle cx="421.10427421603055" cy="316.91499846943003" r="3" fill="rgba(0,0,0,0.4)" /><circle cx="583.6306265396605" cy="181.75586652366258" r="3" fill="rgba(0,0,0,0.4)" /><circle cx="584.3898900507425" cy="200.12753193625616" r="3" fill="rgba(0,0,0,0.4)" /><circle cx="581.9913816424362" cy="335.17821250141446" r="3" fill="rgba(0,0,0,0.4)" /><circle cx="585.2118660580933" cy="187.47042141689468" r="3" fill="rgba(0,0,0,0.4)" /><circle cx="572.7395153861513" cy="284.003841267471" r="3" fill="rgba(0,0,0,0.4)" /><circle cx="596.8448147275197" cy="171.9819187714089" r="3" fill="rgba(0,0,0,0.4)" /><circle cx="595.5346263306627" cy="210.9311186342996" r="3" fill="rgba(0,0,0,0.4)" /><circle cx="598.8040703252974" cy="183.70978692402764" r="3" fill="rgba(0,0,0,0.4)" /><circle cx="574.4532407461294" cy="235.90328365849723" r="3" fill="rgba(0,0,0,0.4)" /><circle cx="592.4151101709759" cy="271.5887328826284" r="3" fill="rgba(0,0,0,0.4)" /><circle cx="589.761989039416" cy="282.7151028015634" r="3" fill="rgba(0,0,0,0.4)" /><circle cx="573.9933329621966" cy="184.11404333636273" r="3" fill="rgba(0,0,0,0.4)" /><circle cx="575.9451642008452" cy="195.45717713456992" r="3" fill="rgba(0,0,0,0.4)" /><circle cx="583.1271753464205" cy="206.46503484456298" r="3" fill="rgba(0,0,0,0.4)" /><circle cx="575.5851779331967" cy="334.42752311197125" r="3" fill="rgba(0,0,0,0.4)" /><circle cx="576.5385842262718" cy="205.56523276421694" r="3" fill="rgba(0,0,0,0.4)" /><circle cx="589.9249266757348" cy="292.8543147324251" r="3" fill="rgba(0,0,0,0.4)" /><circle cx="592.1378971766896" cy="194.70925140952727" r="3" fill="rgba(0,0,0,0.4)" /><circle cx="590.6541829808971" cy="214.12060979149578" r="3" fill="rgba(0,0,0,0.4)" /><circle cx="577.4739168571608" cy="207.52419609959617" r="3" fill="rgba(0,0,0,0.4)" /><circle cx="576.797857169006" cy="230.7509240972434" r="3" fill="rgba(0,0,0,0.4)" /><circle cx="594.8641425820433" cy="234.68659507083316" r="3" fill="rgba(0,0,0,0.4)" /><circle cx="585.9432938724451" cy="243.42322367357792" r="3" fill="rgba(0,0,0,0.4)" /><circle cx="576.86301088409" cy="222.33848805137404" r="3" fill="rgba(0,0,0,0.4)" /><circle cx="598.8722328001899" cy="189.09721073000492" r="3" fill="rgba(0,0,0,0.4)" /><circle cx="577.0974013357687" cy="264.34268885307495" r="3" fill="rgba(0,0,0,0.4)" /><circle cx="583.4876841119823" cy="206.6303535437695" r="3" fill="rgba(0,0,0,0.4)" /><circle cx="593.5210206788381" cy="179.8695759977822" r="3" fill="rgba(0,0,0,0.4)" /><circle cx="570.2797607858447" cy="216.3281546501375" r="3" fill="rgba(0,0,0,0.4)" /><circle cx="577.579985258301" cy="181.91379597074342" r="3" fill="rgba(0,0,0,0.4)" /><circle cx="573.9828602534662" cy="145.95351565528858" r="3" fill="rgba(0,0,0,0.4)" /><circle cx="596.329549251659" cy="166.7485171506674" r="3" fill="rgba(0,0,0,0.4)" /><circle cx="590.2685534664607" cy="225.44819693857522" r="3" fill="rgba(0,0,0,0.4)" /><circle cx="597.5616429026643" cy="279.6136324375134" r="3" fill="rgba(0,0,0,0.4)" /><circle cx="569.8941375922175" cy="213.2569452919717" r="3" fill="rgba(0,0,0,0.4)" /><circle cx="577.4664590374385" cy="253.72677338152243" r="3" fill="rgba(0,0,0,0.4)" /><circle cx="591.5166679041613" cy="138.57697526745795" r="3" fill="rgba(0,0,0,0.4)" /><circle cx="589.3848270902284" cy="284.2482475759798" r="3" fill="rgba(0,0,0,0.4)" /><circle cx="572.7080080968511" cy="271.3608095941454" r="3" fill="rgba(0,0,0,0.4)" /><circle cx="579.5472098692717" cy="220.51462786813863" r="3" fill="rgba(0,0,0,0.4)" /><circle cx="592.1960214845395" cy="188.8978334169717" r="3" fill="rgba(0,0,0,0.4)" /><circle cx="582.2550458083155" cy="253.13763331781496" r="3" fill="rgba(0,0,0,0.4)" /><circle cx="576.8424266458811" cy="191.34936252296643" r="3" fill="rgba(0,0,0,0.4)" /><circle cx="598.707364854491" cy="268.3400217466261" r="3" fill="rgba(0,0,0,0.4)" /><circle cx="592.1573006545289" cy="208.0958791635647" r="3" fill="rgba(0,0,0,0.4)" /><circle cx="598.4091224816074" cy="172.67375798831625" r="3" fill="rgba(0,0,0,0.4)" /><circle cx="586.9778280307722" cy="276.95580130932404" r="3" fill="rgba(0,0,0,0.4)" /><circle cx="578.7094618391583" cy="254.2832068060759" r="3" fill="rgba(0,0,0,0.4)" /><circle cx="598.2243441853054" cy="290.4559309807172" r="3" fill="rgba(0,0,0,0.4)" /><circle cx="594.8834317316955" cy="289.52492232472207" r="3" fill="rgba(0,0,0,0.4)" /><circle cx="574.0655294910771" cy="225.7023337061898" r="3" fill="rgba(0,0,0,0.4)" /><circle cx="592.5538407218515" cy="250.00050205119013" r="3" fill="rgba(0,0,0,0.4)" /><circle cx="597.3011116152838" cy="187.06763434540488" r="3" fill="rgba(0,0,0,0.4)" /><circle cx="587.4640771550612" cy="195.72672708884204" r="3" fill="rgba(0,0,0,0.4)" /><circle cx="598.3543571972913" cy="191.0876578380089" r="3" fill="rgba(0,0,0,0.4)" /><circle cx="581.3063287352567" cy="302.19783608822354" r="3" fill="rgba(0,0,0,0.4)" /><circle cx="598.7220140310889" cy="171.8941014762246" r="3" fill="rgba(0,0,0,0.4)" /><circle cx="576.7147014426075" cy="183.36090900853122" r="3" fill="rgba(0,0,0,0.4)" /><circle cx="575.7570584841858" cy="158.68224744585223" r="3" fill="rgba(0,0,0,0.4)" /><circle cx="593.1801044956939" cy="294.62389054176924" r="3" fill="rgba(0,0,0,0.4)" /></svg>