<svg xmlns="http://www.w3.org/2000/svg" width="673" height="541" fill="black"><rect width="100%" height="100%" fill="white" /><line x1="59" y1="492" x2="659" y2="492" stroke="black" stroke-width="1" /><line x1="59" y1="42" x2="59" y2="492" stroke="black" stroke-width="1" /><line x1="59" y1="454.5" x2="659" y2="454.5" stroke="#ccc" stroke-width="1" /><line x1="59" y1="417" x2="659" y2="417" stroke="#ccc" stroke-width="1" /><line x1="59" y1="379.5" x2="659" y2="379.5" stroke="#ccc" stroke-width="1" /><line x1="59" y1="342" x2="659" y2="342" stroke="#ccc" stroke-width="1" /><line x1="59" y1="304.5" x2="659" y2="304.5" stroke="#ccc" stroke-width="1" /><line x1="59" y1="267" x2="659" y2="267" stroke="#ccc" stroke-width="1" /><line x1="59" y1="229.5" x2="659" y2="229.5" stroke="#ccc" stroke-width="1" /><line x1="59" y1="192" x2="659" y2="192" stroke="#ccc" stroke-width="1" /><line x1="59" y1="154.5" x2="659" y2="154.5" stroke="#ccc" stroke-width="1" /><line x1="59" y1="117" x2="659" y2="117" stroke="#ccc" stroke-width="1" /><line x1="59" y1="79.5" x2="659" y2="79.5" stroke="#ccc" stroke-width="1" /><line x1="59" y1="42" x2="659" y2="42" stroke="#ccc" stroke-width="1" /><text x="134" y="507" font-size="10" text-anchor="middle">Control</text><line x1="134" y1="492" x2="134" y2="497" stroke="black" stroke-width="1" /><text x="284" y="507" font-size="10" text-anchor="middle">Treatment A</text><line x1="284" y1="492" x2="284" y2="497" stroke="black" stroke-width="1" /><text x="434" y="507" font-size="10" text-anchor="middle">Treatment B</text><line x1="434" y1="492" x2="434" y2="497" stroke="black" stroke-width="1" /><text x="584" y="507" font-size="10" text-anchor="middle">Treatment C</text><line x1="584" y1="492" x2="584" y2="497" stroke="black" stroke-width="1" /><line x1="54" y1="492" x2="59" y2="492" stroke="black" stroke-width="1" /><text x="51" y="495.5" font-size="10" text-anchor="end">0</text><line x1="54" y1="454.5" x2="59" y2="454.5" stroke="black" stroke-width="1" /><text x="51" y="458" font-size="10" text-anchor="end">1</text><line x1="54" y1="417" x2="59" y2="417" stroke="black" stroke-width="1" /><text x="51" y="420.5" font-size="10" text-anchor="end">2</text><line x1="54" y1="379.5" x2="59" y2="379.5" stroke="black" stroke-width="1" /><text x="51" y="383" font-size="10" text-anchor="end">3</text><line x1="54" y1="342" x2="59" y2="342" stroke="black" stroke-width="1" /><text x="51" y="345.5" font-size="10" text-anchor="end">4</text><line x1="54" y1="304.5" x2="59" y2="304.5" stroke="black" stroke-width="1" /><text x="51" y="308" font-size="10" text-anchor="end">5</text><line x1="54" y1="267" x2="59" y2="267" stroke="black" stroke-width="1" /><text x="51" y="270.5" font-size="10" text-anchor="end">6</text><line x1="54" y1="229.5" x2="59" y2="229.5" stroke="black" stroke-width="1" /><text x="51" y="233" font-size="10" text-anchor="end">7</text><line x1="54" y1="192" x2="59" y2="192" stroke="black" stroke-width="1" /><text x="51" y="195.5" font-size="10" text-anchor="end">8</text><line x1="54" y1="154.5" x2="59" y2="154.5" stroke="black" stroke-width="1" /><text x="51" y="158" font-size="10" text-anchor="end">9</text><line x1="54" y1="117" x2="59" y2="117" stroke="black" stroke-width="1" /><text x="51" y="120.5" font-size="10" text-anchor="end">10</text><line x1="54" y1="79.5" x2="59" y2="79.5" stroke="black" stroke-width="1" /><text x="51" y="83" font-size="10" text-anchor="end">11</text><line x1="54" y1="42" x2="59" y2="42" stroke="black" stroke-width="1" /><text x="51" y="45.5" font-size="10" text-anchor="end">12</text><text x="14" y="270.5" font-size="14" text-anchor="middle" transform="rotate(-90,14,270.5)">Value</text><text x="336.5" y="21" font-size="16" text-anchor="middle">Box Plot + Swarm Overlay</text><rect x="74" y="289.4522851263607" width="120" height="44.28758626013553" fill="steelblue" /><line x1="74" y1="305.1299498576848" x2="194" y2="305.1299498576848" stroke="white" stroke-width="1.5" /><line x1="134" y1="397.8498204776078" x2="134" y2="333.73987138649625" stroke="steelblue" stroke-width="1" /><line x1="134" y1="289.4522851263607" x2="134" y2="232.1356717378577" stroke="steelblue" stroke-width="1" /><line x1="104" y1="397.8498204776078" x2="164" y2="397.8498204776078" stroke="steelblue" stroke-width="1" /><line x1="104" y1="232.1356717378577" x2="164" y2="232.1356717378577" stroke="steelblue" stroke-width="1" /><rect x="224" y="210.74868619488598" width="120" height="56.499949958470324" fill="steelblue" /><line x1="224" y1="246.04608804982908" x2="344" y2="246.04608804982908" stroke="white" stroke-width="1.5" /><line x1="284" y1="341.679246711237" x2="284" y2="267.2486361533563" stroke="steelblue" stroke-width="1" /><line x1="284" y1="210.74868619488598" x2="284" y2="127.98685378660218" stroke="steelblue" stroke-width="1" /><line x1="254" y1="341.679246711237" x2="314" y2="341.679246711237" stroke="steelblue" stroke-width="1" /><line x1="254" y1="127.98685378660218" x2="314" y2="127.98685378660218" stroke="steelblue" stroke-width="1" /><rect x="374" y="314.05083794821246" width="120" height="52.50500396237908" fill="steelblue" /><line x1="374" y1="335.4260447991861" x2="494" y2="335.4260447991861" stroke="white" stroke-width="1.5" /><line x1="434" y1="422.0394909061589" x2="434" y2="366.55584191059154" stroke="steelblue" stroke-width="1" /><line x1="434" y1="314.05083794821246" x2="434" y2="273.0955039342598" stroke="steelblue" stroke-width="1" /><line x1="404" y1="422.0394909061589" x2="464" y2="422.0394909061589" stroke="steelblue" stroke-width="1" /><line x1="404" y1="273.0955039342598" x2="464" y2="273.0955039342598" stroke="steelblue" stroke-width="1" /><rect x="524" y="188.54098041695238" width="120" height="76.80104165951036" fill="steelblue" /><line x1="524" y1="213.6887775417337" x2="644" y2="213.6887775417337" stroke="white" stroke-width="1.5" /><line x1="584" y1="335.17821250141446" x2="584" y2="265.34202207646274" stroke="steelblue" stroke-width="1" /><line x1="584" y1="188.54098041695238" x2="584" y2="138.57697526745795" stroke="steelblue" stroke-width="1" /><line x1="554" y1="335.17821250141446" x2="614" y2="335.17821250141446" stroke="steelblue" stroke-width="1" /><line x1="554" y1="138.57697526745795" x2="614" y2="138.57697526745795" stroke="steelblue" stroke-width="1" /><circle cx="128" cy="272.8500519891684" r="3" fill="rgba(0,0,0,0.4)" /><circle cx="134" cy="277.66647327260273" r="3" fill="rgba(0,0,0,0.4)" /><circle cx="146" cy="376.34517913570346" r="3" fill="rgba(0,0,0,0.4)" /><circle cx="128" cy="287.5313823605826" r="3" fill="rgba(0,0,0,0.4)" /><circle cx="146" cy="335.0921702516772" r="3" fill="rgba(0,0,0,0.4)" /><circle cx="122" cy="291.0628073562233" r="3" fill="rgba(0,0,0,0.4)" /><circle cx="134" cy="193.936819864276" r="3" fill="rgba(0,0,0,0.4)" /><circle cx="140" cy="300.3186447315352" r="3" fill="rgba(0,0,0,0.4)" /><circle cx="140" cy="333.8607504992972" r="3" fill="rgba(0,0,0,0.4)" /><circle cx="128" cy="374.9634179394681" r="3" fill="rgba(0,0,0,0.4)" /><circle cx="128" cy="243.1733150279627" r="3" fill="rgba(0,0,0,0.4)" /><circle cx="134" cy="318.46900688966446" r="3" fill="rgba(0,0,0,0.4)" /><circle cx="128" cy="333.9668777789549" r="3" fill="rgba(0,0,0,0.4)" /><circle cx="140" cy="319.87899087517184" r="3" fill="rgba(0,0,0,0.4)" /><circle cx="137" cy="339.60308807913964" r="3" fill="rgba(0,0,0,0.4)" /><circle cx="134" cy="333.69957834889595" r="3" fill="rgba(0,0,0,0.4)" /><circle cx="146" cy="298.8989709032006" r="3" fill="rgba(0,0,0,0.4)" /><circle cx="128" cy="305.68808355573344" r="3" fill="rgba(0,0,0,0.4)" /><circle cx="137" cy="258.68438350686256" r="3" fill="rgba(0,0,0,0.4)" /><circle cx="134" cy="283.83880171067506" r="3" fill="rgba(0,0,0,0.4)" /><circle cx="134" cy="355.07625060565397" r="3" fill="rgba(0,0,0,0.4)" /><circle cx="134" cy="240.69749815897" r="3" fill="rgba(0,0,0,0.4)" /><circle cx="146" cy="322.4339292552846" r="3" fill="rgba(0,0,0,0.4)" /><circle cx="143" cy="312.895420134627" r="3" fill="rgba(0,0,0,0.4)" /><circle cx="122" cy="337.57193296746505" r="3" fill="rgba(0,0,0,0.4)" /><circle cx="152" cy="291.81662967355317" r="3" fill="rgba(0,0,0,0.4)" /><circle cx="143" cy="344.48596798528513" r="3" fill="rgba(0,0,0,0.4)" /><circle cx="134" cy="253.3599358125412" r="3" fill="rgba(0,0,0,0.4)" /><circle cx="125" cy="300.43480415913797" r="3" fill="rgba(0,0,0,0.4)" /><circle cx="134" cy="267.84515176640696" r="3" fill="rgba(0,0,0,0.4)" /><circle cx="158" cy="295.95317935895423" r="3" fill="rgba(0,0,0,0.4)" /><circle cx="128" cy="295.14145080471076" r="3" fill="rgba(0,0,0,0.4)" /><circle cx="134" cy="303.620773421642" r="3" fill="rgba(0,0,0,0.4)" /><circle cx="119" cy="301.4702296036731" r="3" fill="rgba(0,0,0,0.4)" /><circle cx="134" cy="232.1356717378577" r="3" fill="rgba(0,0,0,0.4)" /><circle cx="134" cy="326.2446635784775" r="3" fill="rgba(0,0,0,0.4)" /><circle cx="125" cy="314.36451192996645" r="3" fill="rgba(0,0,0,0.4)" /><circle cx="116" cy="291.9694320467536" r="3" fill="rgba(0,0,0,0.4)" /><circle cx="140" cy="287.3709167413972" r="3" fill="rgba(0,0,0,0.4)" /><circle cx="140" cy="279.9111021360538" r="3" fill="rgba(0,0,0,0.4)" /><circle cx="122" cy="306.73291464937665" r="3" fill="rgba(0,0,0,0.4)" /><circle cx="149" cy="304.5718161596361" r="3" fill="rgba(0,0,0,0.4)" /><circle cx="152" cy="310.20659765376257" r="3" fill="rgba(0,0,0,0.4)" /><circle cx="140" cy="240.82212014536057" r="3" fill="rgba(0,0,0,0.4)" /><circle cx="134" cy="296.5166736982291" r="3" fill="rgba(0,0,0,0.4)" /><circle cx="134" cy="290.09258604828676" r="3" fill="rgba(0,0,0,0.4)" /><circle cx="146" cy="290.44962850215205" r="3" fill="rgba(0,0,0,0.4)" /><circle cx="128" cy="319.99719385589583" r="3" fill="rgba(0,0,0,0.4)" /><circle cx="134" cy="370.4282114223737" r="3" fill="rgba(0,0,0,0.4)" /><circle cx="134" cy="397.8498204776078" r="3" fill="rgba(0,0,0,0.4)" /><circle cx="140" cy="269.9829448381064" r="3" fill="rgba(0,0,0,0.4)" /><circle cx="140" cy="293.8740876004979" r="3" fill="rgba(0,0,0,0.4)" /><circle cx="116" cy="308.550838533799" r="3" fill="rgba(0,0,0,0.4)" /><circle cx="140" cy="372.582365150675" r="3" fill="rgba(0,0,0,0.4)" /><circle cx="137" cy="309.60089793555454" r="3" fill="rgba(0,0,0,0.4)" /><circle cx="143" cy="305.8250788288864" r="3" fill="rgba(0,0,0,0.4)" /><circle cx="131" cy="340.0891050578567" r="3" fill="rgba(0,0,0,0.4)" /><circle cx="152" cy="337.8891364601162" r="3" fill="rgba(0,0,0,0.4)" /><circle cx="131" cy="311.06372526642633" r="3" fill="rgba(0,0,0,0.4)" /><circle cx="116" cy="338.3455520592209" r="3" fill="rgba(0,0,0,0.4)" /><circle cx="278" cy="194.30980780041205" r="3" fill="rgba(0,0,0,0.4)" /><circle cx="290" cy="244.78815857697458" r="3" fill="rgba(0,0,0,0.4)" /><circle cx="281" cy="234.69970315803494" r="3" fill="rgba(0,0,0,0.4)" /><circle cx="278" cy="278.5395556780449" r="3" fill="rgba(0,0,0,0.4)" /><circle cx="296" cy="248.6658244496082" r="3" fill="rgba(0,0,0,0.4)" /><circle cx="278" cy="186.36275454473764" r="3" fill="rgba(0,0,0,0.4)" /><circle cx="278" cy="267.0001035049852" r="3" fill="rgba(0,0,0,0.4)" /><circle cx="290" cy="192.9195174095335" r="3" fill="rgba(0,0,0,0.4)" /><circle cx="278" cy="252.92734140928061" r="3" fill="rgba(0,0,0,0.4)" /><circle cx="290" cy="184.8538696504557" r="3" fill="rgba(0,0,0,0.4)" /><circle cx="275" cy="247.30401752268372" r="3" fill="rgba(0,0,0,0.4)" /><circle cx="290" cy="233.8167450460549" r="3" fill="rgba(0,0,0,0.4)" /><circle cx="278" cy="217.08412918959033" r="3" fill="rgba(0,0,0,0.4)" /><circle cx="284" cy="215.3578243018896" r="3" fill="rgba(0,0,0,0.4)" /><circle cx="284" cy="173.01178405753978" r="3" fill="rgba(0,0,0,0.4)" /><circle cx="272" cy="253.91922557255936" r="3" fill="rgba(0,0,0,0.4)" /><circle cx="296" cy="237.24469930962186" r="3" fill="rgba(0,0,0,0.4)" /><circle cx="293" cy="263.7906943788742" r="3" fill="rgba(0,0,0,0.4)" /><circle cx="293" cy="279.02566410030613" r="3" fill="rgba(0,0,0,0.4)" /><circle cx="290" cy="304.6282633070216" r="3" fill="rgba(0,0,0,0.4)" /><circle cx="287" cy="239.32353459777318" r="3" fill="rgba(0,0,0,0.4)" /><circle cx="269" cy="238.7590751365685" r="3" fill="rgba(0,0,0,0.4)" /><circle cx="275" cy="236.34026534629567" r="3" fill="rgba(0,0,0,0.4)" /><circle cx="284" cy="127.98685378660218" r="3" fill="rgba(0,0,0,0.4)" /><circle cx="278" cy="305.09761525605654" r="3" fill="rgba(0,0,0,0.4)" /><circle cx="290" cy="258.41279365391244" r="3" fill="rgba(0,0,0,0.4)" /><circle cx="272" cy="281.52153415939813" r="3" fill="rgba(0,0,0,0.4)" /><circle cx="284" cy="316.26959914686745" r="3" fill="rgba(0,0,0,0.4)" /><circle cx="266" cy="264.8962869249325" r="3" fill="rgba(0,0,0,0.4)" /><circle cx="272" cy="195.64849513448712" r="3" fill="rgba(0,0,0,0.4)" /><circle cx="299" cy="264.8713813356235" r="3" fill="rgba(0,0,0,0.4)" /><circle cx="290" cy="251.36934550336238" r="3" fill="rgba(0,0,0,0.4)" /><circle cx="302" cy="239.65163808411384" r="3" fill="rgba(0,0,0,0.4)" /><circle cx="290" cy="203.22009805961488" r="3" fill="rgba(0,0,0,0.4)" /><circle cx="284" cy="293.7194382257304" r="3" fill="rgba(0,0,0,0.4)" /><circle cx="284" cy="198.2748778504431" r="3" fill="rgba(0,0,0,0.4)" /><circle cx="296" cy="194.67506432806044" r="3" fill="rgba(0,0,0,0.4)" /><circle cx="284" cy="304.4895799763798" r="3" fill="rgba(0,0,0,0.4)" /><circle cx="296" cy="220.97705273363016" r="3" fill="rgba(0,0,0,0.4)" /><circle cx="284" cy="286.4838913613821" r="3" fill="rgba(0,0,0,0.4)" /><circle cx="281" cy="243.55313767920177" r="3" fill="rgba(0,0,0,0.4)" /><circle cx="290" cy="273.685214831308" r="3" fill="rgba(0,0,0,0.4)" /><circle cx="284" cy="341.679246711237" r="3" fill="rgba(0,0,0,0.4)" /><circle cx="284" cy="183.78731821682635" r="3" fill="rgba(0,0,0,0.4)" /><circle cx="284" cy="256.3618611607056" r="3" fill="rgba(0,0,0,0.4)" /><circle cx="278" cy="209.0304367913384" r="3" fill="rgba(0,0,0,0.4)" /><circle cx="284" cy="278.35559205015386" r="3" fill="rgba(0,0,0,0.4)" /><circle cx="284" cy="249.99491415304053" r="3" fill="rgba(0,0,0,0.4)" /><circle cx="284" cy="192.15364591723613" r="3" fill="rgba(0,0,0,0.4)" /><circle cx="278" cy="259.5435696867761" r="3" fill="rgba(0,0,0,0.4)" /><circle cx="290" cy="178.13923804567094" r="3" fill="rgba(0,0,0,0.4)" /><circle cx="305" cy="267.9942340984697" r="3" fill="rgba(0,0,0,0.4)" /><circle cx="290" cy="298.38816486678763" r="3" fill="rgba(0,0,0,0.4)" /><circle cx="284" cy="271.13862145754297" r="3" fill="rgba(0,0,0,0.4)" /><circle cx="290" cy="219.03337198586746" r="3" fill="rgba(0,0,0,0.4)" /><circle cx="272" cy="264.22174731608357" r="3" fill="rgba(0,0,0,0.4)" /><circle cx="284" cy="206.79663652049499" r="3" fill="rgba(0,0,0,0.4)" /><circle cx="290" cy="211.32143599606843" r="3" fill="rgba(0,0,0,0.4)" /><circle cx="284" cy="263.4688666117718" r="3" fill="rgba(0,0,0,0.4)" /><circle cx="284" cy="228.91823953219836" r="3" fill="rgba(0,0,0,0.4)" /><circle cx="434" cy="403.2927102901104" r="3" fill="rgba(0,0,0,0.4)" /><circle cx="440" cy="311.15643089866575" r="3" fill="rgba(0,0,0,0.4)" /><circle cx="434" cy="301.61650163890624" r="3" fill="rgba(0,0,0,0.4)" /><circle cx="440" cy="285.3028550103684" r="3" fill="rgba(0,0,0,0.4)" /><circle cx="440" cy="317.6282545202328" r="3" fill="rgba(0,0,0,0.4)" /><circle cx="428" cy="378.6188592713397" r="3" fill="rgba(0,0,0,0.4)" /><circle cx="446" cy="379.6907097780155" r="3" fill="rgba(0,0,0,0.4)" /><circle cx="428" cy="322.8925209640375" r="3" fill="rgba(0,0,0,0.4)" /><circle cx="440" cy="325.8042036390846" r="3" fill="rgba(0,0,0,0.4)" /><circle cx="434" cy="422.0394909061589" r="3" fill="rgba(0,0,0,0.4)" /><circle cx="434" cy="328.9030684538776" r="3" fill="rgba(0,0,0,0.4)" /><circle cx="434" cy="360.48134645035964" r="3" fill="rgba(0,0,0,0.4)" /><circle cx="434" cy="341.1253030219573" r="3" fill="rgba(0,0,0,0.4)" /><circle cx="419" cy="336.90047939797273" r="3" fill="rgba(0,0,0,0.4)" /><circle cx="446" cy="366.39225491297645" r="3" fill="rgba(0,0,0,0.4)" /><circle cx="431" cy="334.79104266415936" r="3" fill="rgba(0,0,0,0.4)" /><circle cx="434" cy="394.0791251847556" r="3" fill="rgba(0,0,0,0.4)" /><circle cx="434" cy="307.8408327985105" r="3" fill="rgba(0,0,0,0.4)" /><circle cx="425" cy="314.4094712232809" r="3" fill="rgba(0,0,0,0.4)" /><circle cx="452" cy="327.78115168247416" r="3" fill="rgba(0,0,0,0.4)" /><circle cx="440" cy="361.9051504268433" r="3" fill="rgba(0,0,0,0.4)" /><circle cx="422" cy="352.8052342862326" r="3" fill="rgba(0,0,0,0.4)" /><circle cx="452" cy="370.02653815101746" r="3" fill="rgba(0,0,0,0.4)" /><circle cx="440" cy="397.6321597312621" r="3" fill="rgba(0,0,0,0.4)" /><circle cx="434" cy="273.0955039342598" r="3" fill="rgba(0,0,0,0.4)" /><circle cx="422" cy="327.32783450273723" r="3" fill="rgba(0,0,0,0.4)" /><circle cx="434" cy="284.8806234750815" r="3" fill="rgba(0,0,0,0.4)" /><circle cx="440" cy="304.0812568996747" r="3" fill="rgba(0,0,0,0.4)" /><circle cx="428" cy="350.6284707501161" r="3" fill="rgba(0,0,0,0.4)" /><circle cx="428" cy="364.1505522433957" r="3" fill="rgba(0,0,0,0.4)" /><circle cx="434" cy="232.76056471292407" r="3" fill="rgba(0,0,0,0.4)" /><circle cx="446" cy="350.8990041168797" r="3" fill="rgba(0,0,0,0.4)" /><circle cx="428" cy="299.97367490079455" r="3" fill="rgba(0,0,0,0.4)" /><circle cx="452" cy="352.8318775353688" r="3" fill="rgba(0,0,0,0.4)" /><circle cx="434" cy="295.1995543053863" r="3" fill="rgba(0,0,0,0.4)" /><circle cx="434" cy="382.1344506590841" r="3" fill="rgba(0,0,0,0.4)" /><circle cx="440" cy="350.5170200776032" r="3" fill="rgba(0,0,0,0.4)" /><circle cx="434" cy="367.04660290343696" r="3" fill="rgba(0,0,0,0.4)" /><circle cx="416" cy="354.61120393185" r="3" fill="rgba(0,0,0,0.4)" /><circle cx="440" cy="273.6628292280092" r="3" fill="rgba(0,0,0,0.4)" /><circle cx="440" cy="333.9214030852898" r="3" fill="rgba(0,0,0,0.4)" /><circle cx="446" cy="336.0045773190142" r="3" fill="rgba(0,0,0,0.4)" /><circle cx="440" cy="384.7208689087473" r="3" fill="rgba(0,0,0,0.4)" /><circle cx="425" cy="334.84751227935806" r="3" fill="rgba(0,0,0,0.4)" /><circle cx="434" cy="322.8224396780629" r="3" fill="rgba(0,0,0,0.4)" /><circle cx="419" cy="316.0582893449955" r="3" fill="rgba(0,0,0,0.4)" /><circle cx="440" cy="297.34514447301115" r="3" fill="rgba(0,0,0,0.4)" /><circle cx="446" cy="312.97901509628366" r="3" fill="rgba(0,0,0,0.4)" /><circle cx="446" cy="326.07583904443317" r="3" fill="rgba(0,0,0,0.4)" /><circle cx="440" cy="376.0288689545695" r="3" fill="rgba(0,0,0,0.4)" /><circle cx="428" cy="288.3116049464973" r="3" fill="rgba(0,0,0,0.4)" /><circle cx="434" cy="314.4081122321887" r="3" fill="rgba(0,0,0,0.4)" /><circle cx="440" cy="369.6399981555899" r="3" fill="rgba(0,0,0,0.4)" /><circle cx="434" cy="374.0140935905307" r="3" fill="rgba(0,0,0,0.4)" /><circle cx="428" cy="386.52573469803207" r="3" fill="rgba(0,0,0,0.4)" /><circle cx="422" cy="367.43715639332174" r="3" fill="rgba(0,0,0,0.4)" /><circle cx="434" cy="349.45320830999276" r="3" fill="rgba(0,0,0,0.4)" /><circle cx="428" cy="308.80156796492787" r="3" fill="rgba(0,0,0,0.4)" /><circle cx="452" cy="337.72950590565085" r="3" fill="rgba(0,0,0,0.4)" /><circle cx="452" cy="316.91499846943003" r="3" fill="rgba(0,0,0,0.4)" /><circle cx="590" cy="181.75586652366258" r="3" fill="rgba(0,0,0,0.4)" /><circle cx="596" cy="200.12753193625616" r="3" fill="rgba(0,0,0,0.4)" /><circle cx="590" cy="335.17821250141446" r="3" fill="rgba(0,0,0,0.4)" /><circle cx="566" cy="187.47042141689468" r="3" fill="rgba(0,0,0,0.4)" /><circle cx="575" cy="284.003841267471" r="3" fill="rgba(0,0,0,0.4)" /><circle cx="581" cy="171.9819187714089" r="3" fill="rgba(0,0,0,0.4)" /><circle cx="602" cy="210.9311186342996" r="3" fill="rgba(0,0,0,0.4)" /><circle cx="572" cy="183.70978692402764" r="3" fill="rgba(0,0,0,0.4)" /><circle cx="578" cy="235.90328365849723" r="3" fill="rgba(0,0,0,0.4)" /><circle cx="578" cy="271.5887328826284" r="3" fill="rgba(0,0,0,0.4)" /><circle cx="590" cy="282.7151028015634" r="3" fill="rgba(0,0,0,0.4)" /><circle cx="602" cy="184.11404333636273" r="3" fill="rgba(0,0,0,0.4)" /><circle cx="590" cy="195.45717713456992" r="3" fill="rgba(0,0,0,0.4)" /><circle cx="590" cy="206.46503484456298" r="3" fill="rgba(0,0,0,0.4)" /><circle cx="584" cy="334.42752311197125" r="3" fill="rgba(0,0,0,0.4)" /><circle cx="584" cy="205.56523276421694" r="3" fill="rgba(0,0,0,0.4)" /><circle cx="578" cy="292.8543147324251" r="3" fill="rgba(0,0,0,0.4)" /><circle cx="584" cy="194.70925140952727" r="3" fill="rgba(0,0,0,0.4)" /><circle cx="590" cy="214.12060979149578" r="3" fill="rgba(0,0,0,0.4)" /><circle cx="596" cy="207.52419609959617" r="3" fill="rgba(0,0,0,0.4)" /><circle cx="584" cy="230.7509240972434" r="3" fill="rgba(0,0,0,0.4)" /><circle cx="590" cy="234.68659507083316" r="3" fill="rgba(0,0,0,0.4)" /><circle cx="584" cy="243.42322367357792" r="3" fill="rgba(0,0,0,0.4)" /><circle cx="590" cy="222.33848805137404" r="3" fill="rgba(0,0,0,0.4)" /><circle cx="578" cy="189.09721073000492" r="3" fill="rgba(0,0,0,0.4)" /><circle cx="584" cy="264.34268885307495" r="3" fill="rgba(0,0,0,0.4)" /><circle cx="578" cy="206.6303535437695" r="3" fill="rgba(0,0,0,0.4)" /><circle cx="584" cy="179.8695759977822" r="3" fill="rgba(0,0,0,0.4)" /><circle cx="578" cy="216.3281546501375" r="3" fill="rgba(0,0,0,0.4)" /><circle cx="578" cy="181.91379597074342" r="3" fill="rgba(0,0,0,0.4)" /><circle cx="584" cy="145.95351565528858" r="3" fill="rgba(0,0,0,0.4)" /><circle cx="584" cy="166.7485171506674" r="3" fill="rgba(0,0,0,0.4)" /><circle cx="578" cy="225.44819693857522" r="3" fill="rgba(0,0,0,0.4)" /><circle cx="581" cy="279.6136324375134" r="3" fill="rgba(0,0,0,0.4)" /><circle cx="584" cy="213.2569452919717" r="3" fill="rgba(0,0,0,0.4)" /><circle cx="578" cy="253.72677338152243" r="3" fill="rgba(0,0,0,0.4)" /><circle cx="584" cy="138.57697526745795" r="3" fill="rgba(0,0,0,0.4)" /><circle cx="596" cy="284.2482475759798" r="3" fill="rgba(0,0,0,0.4)" /><circle cx="584" cy="271.3608095941454" r="3" fill="rgba(0,0,0,0.4)" /><circle cx="584" cy="220.51462786813863" r="3" fill="rgba(0,0,0,0.4)" /><circle cx="590" cy="188.8978334169717" r="3" fill="rgba(0,0,0,0.4)" /><circle cx="590" cy="253.13763331781496" r="3" fill="rgba(0,0,0,0.4)" /><circle cx="572" cy="191.34936252296643" r="3" fill="rgba(0,0,0,0.4)" /><circle cx="590" cy="268.3400217466261" r="3" fill="rgba(0,0,0,0.4)" /><circle cx="572" cy="208.0958791635647" r="3" fill="rgba(0,0,0,0.4)" /><circle cx="575" cy="172.67375798831625" r="3" fill="rgba(0,0,0,0.4)" /><circle cx="587" cy="276.95580130932404" r="3" fill="rgba(0,0,0,0.4)" /><circle cx="596" cy="254.2832068060759" r="3" fill="rgba(0,0,0,0.4)" /><circle cx="590" cy="290.4559309807172" r="3" fill="rgba(0,0,0,0.4)" /><circle cx="584" cy="289.52492232472207" r="3" fill="rgba(0,0,0,0.4)" /><circle cx="596" cy="225.7023337061898" r="3" fill="rgba(0,0,0,0.4)" /><circle cx="584" cy="250.00050205119013" r="3" fill="rgba(0,0,0,0.4)" /><circle cx="584" cy="187.06763434540488" r="3" fill="rgba(0,0,0,0.4)" /><circle cx="578" cy="195.72672708884204" r="3" fill="rgba(0,0,0,0.4)" /><circle cx="596" cy="191.0876578380089" r="3" fill="rgba(0,0,0,0.4)" /><circle cx="584" cy="302.19783608822354" r="3" fill="rgba(0,0,0,0.4)" /><circle cx="590" cy="171.8941014762246" r="3" fill="rgba(0,0,0,0.4)" /><circle cx="596" cy="183.36090900853122" r="3" fill="rgba(0,0,0,0.4)" /><circle cx="584" cy="158.68224744585223" r="3" fill="rgba(0,0,0,0.4)" /><circle cx="596" cy="294.62389054176924" r="3" fill="rgba(0,0,0,0.4)" /></svg>