<svg xmlns="http://www.w3.org/2000/svg" width="673" height="541" fill="black"><rect width="100%" height="100%" fill="white" /><line x1="59" y1="492" x2="659" y2="492" stroke="black" stroke-width="1" /><line x1="59" y1="42" x2="59" y2="492" stroke="black" stroke-width="1" /><line x1="59" y1="447" x2="659" y2="447" stroke="#ccc" stroke-width="1" /><line x1="59" y1="402" x2="659" y2="402" stroke="#ccc" stroke-width="1" /><line x1="59" y1="357" x2="659" y2="357" stroke="#ccc" stroke-width="1" /><line x1="59" y1="312" x2="659" y2="312" stroke="#ccc" stroke-width="1" /><line x1="59" y1="267" x2="659" y2="267" stroke="#ccc" stroke-width="1" /><line x1="59" y1="222" x2="659" y2="222" stroke="#ccc" stroke-width="1" /><line x1="59" y1="177" x2="659" y2="177" stroke="#ccc" stroke-width="1" /><line x1="59" y1="132" x2="659" y2="132" stroke="#ccc" stroke-width="1" /><line x1="59" y1="87" x2="659" y2="87" stroke="#ccc" stroke-width="1" /><line x1="59" y1="42" x2="659" y2="42" stroke="#ccc" stroke-width="1" /><text x="359" y="507" font-size="10" text-anchor="middle"></text><line x1="359" y1="492" x2="359" y2="497" stroke="black" stroke-width="1" /><line x1="54" y1="492" x2="59" y2="492" stroke="black" stroke-width="1" /><text x="51" y="495.5" font-size="10" text-anchor="end">-5</text><line x1="54" y1="447" x2="59" y2="447" stroke="black" stroke-width="1" /><text x="51" y="450.5" font-size="10" text-anchor="end">-4</text><line x1="54" y1="402" x2="59" y2="402" stroke="black" stroke-width="1" /><text x="51" y="405.5" font-size="10" text-anchor="end">-3</text><line x1="54" y1="357" x2="59" y2="357" stroke="black" stroke-width="1" /><text x="51" y="360.5" font-size="10" text-anchor="end">-2</text><line x1="54" y1="312" x2="59" y2="312" stroke="black" stroke-width="1" /><text x="51" y="315.5" font-size="10" text-anchor="end">-1</text><line x1="54" y1="267" x2="59" y2="267" stroke="black" stroke-width="1" /><text x="51" y="270.5" font-size="10" text-anchor="end">0</text><line x1="54" y1="222" x2="59" y2="222" stroke="black" stroke-width="1" /><text x="51" y="225.5" font-size="10" text-anchor="end">1</text><line x1="54" y1="177" x2="59" y2="177" stroke="black" stroke-width="1" /><text x="51" y="180.5" font-size="10" text-anchor="end">2</text><line x1="54" y1="132" x2="59" y2="132" stroke="black" stroke-width="1" /><text x="51" y="135.5" font-size="10" text-anchor="end">3</text><line x1="54" y1="87" x2="59" y2="87" stroke="black" stroke-width="1" /><text x="51" y="90.5" font-size="10" text-anchor="end">4</text><line x1="54" y1="42" x2="59" y2="42" stroke="black" stroke-width="1" /><text x="51" y="45.5" font-size="10" text-anchor="end">5</text><text x="336.5" y="21" font-size="16" text-anchor="middle">Auto (Silverman)</text><path d="M 358.99577270797533 419.4226684054632 L 358.9938732489766 417.92025275280713 L 358.9912493404918 416.4178371001511 L 358.98768208939083 414.91542144749496 L 358.9829089919913 413.4130057948389 L 358.9766230663726 411.91059014218285 L 358.96847475331623 410.4081744895268 L 358.9580772078912 408.90575883687075 L 358.9450153974419 407.4033431842147 L 358.92885909801913 405.90092753155864 L 358.9091794551092 404.3985118789025 L 358.88556828250245 402.89609622624647 L 358.8576587727097 401.3936805735904 L 358.8251458563101 399.89126492093436 L 358.7878041544394 398.3888492682783 L 358.74550138932767 396.88643361562225 L 358.69820530173644 395.3840179629662 L 358.6459825865799 393.8816023103101 L 358.58898907222874 392.37918665765403 L 358.52745126543715 390.876771004998 L 358.4616403571553 389.3743553523419 L 358.3918407076984 387.87193969968587 L 358.31831557310164 386.3695240470298 L 358.2412732853313 384.86710839437376 L 358.16083717876927 383.3646927417177 L 358.0770222304631 381.86227708906165 L 357.989720666891 380.3598614364056 L 357.8986977451388 378.8574457837495 L 357.80359763777886 377.35503013109343 L 357.70395796159414 375.8526144784374 L 357.5992301322025 374.3501988257813 L 357.48880155348417 372.84778317312526 L 357.372014823977 371.3453675204692 L 357.2481788246945 369.8429518678131 L 357.1165668957012 368.34053621515704 L 356.97639843141883 366.838120562501 L 356.8268021830484 365.33570490984494 L 356.6667623066905 363.8332892571889 L 356.49505155907895 362.3308736045328 L 356.31015968459366 360.82845795187677 L 356.11022847044967 359.3260422992207 L 355.8930075707619 357.8236266465646 L 355.6558463752798 356.32121099390855 L 355.39573635454786 354.81879534125244 L 355.1094150723112 353.31637968859644 L 354.79353735075915 351.8139640359404 L 354.4449112327083 350.3115483832843 L 354.06078715825714 348.8091327306282 L 353.63917928934455 347.30671707797217 L 353.1791895522231 345.8043014253161 L 352.6812991605222 344.30188577266006 L 352.1475903881883 342.799470120004 L 351.58186402506055 341.29705446734795 L 350.98962549993246 339.7946388146919 L 350.3779246039535 338.29222316203584 L 349.7550488736984 336.7898075093797 L 349.13008718115964 335.2873918567237 L 348.51239575098134 333.78497620406756 L 347.9110114705745 332.28256055141156 L 347.33406508079787 330.78014489875545 L 346.7882483793415 329.2777292460994 L 346.2783845559073 327.77531359344334 L 345.80713979699925 326.2728979407873 L 345.3748988386979 324.77048228813123 L 344.9798093727029 323.2680666354752 L 344.6179826146173 321.7656509828191 L 344.283822330796 320.26323533016307 L 343.97044411934485 318.760819677507 L 343.67014189507057 317.25840402485096 L 343.37485953477346 315.7559883721949 L 343.07663176389934 314.2535727195388 L 342.7679681229622 312.75115706688274 L 342.44216531253016 311.2487414142267 L 342.09354437129264 309.74632576157063 L 341.7176182595886 308.2439101089146 L 341.311201313591 306.74149445625847 L 340.8724742085678 305.2390788036024 L 340.40101672908065 303.73666315094636 L 339.89781658081074 302.2342474982903 L 339.3652568705028 300.73183184563425 L 338.80707905734414 299.2294161929782 L 338.2283134003355 297.72700054032214 L 337.6351662013906 296.2245848876661 L 337.0348531127673 294.72216923501 L 336.4353706496634 293.219753582354 L 335.8452035943911 291.7173379296979 L 335.2729735584862 290.2149222770418 L 334.7270426008513 288.71250662438575 L 334.21509425733467 287.2100909717297 L 333.7437212870972 285.70767531907364 L 333.31805361666306 284.20525966641753 L 332.9414603587434 282.7028440137615 L 332.6153558510538 281.2004283611054 L 332.33913146275006 279.69801270844937 L 332.11022320039893 278.1955970557933 L 331.92431130505383 276.69318140313726 L 331.77563393967773 275.1907657504812 L 331.6573847942626 273.6883500978251 L 331.5621559077602 272.18593444516904 L 331.4823836420119 270.683518792513 L 331.4107581765812 269.1811031398569 L 331.3405648180932 267.6786874872009 L 331.26593760459804 266.17627183454476 L 331.18202017466245 264.6738561818887 L 331.08504330123503 263.17144052923265 L 330.97234050468694 261.6690248765766 L 330.8423308065847 260.16660922392055 L 330.69449974374 258.6641935712645 L 330.52940592671854 257.16177791860844 L 330.34873133958394 255.65936226595238 L 330.1553806985511 254.1569466132963 L 329.95362054982013 252.65453096064024 L 329.74923468321924 251.15211530798416 L 329.549661091759 249.6496996553281 L 329.3640689790323 248.14728400267208 L 329.2033334784886 246.64486835001597 L 329.0798713377041 245.14245269735994 L 329.0073125758419 243.64003704470386 L 329 242.13762139204775 L 329.0723287263602 240.63520573939172 L 329.2379592120634 239.1327900867356 L 329.50895715412435 237.63037443407958 L 329.8949292913781 236.12795878142353 L 330.40223326041104 234.62554312876745 L 331.03334041446635 233.1231274761114 L 331.78642203290696 231.62071182345534 L 332.6552118827939 230.11829617079928 L 333.6291731289775 228.61588051814323 L 334.6939677583143 227.11346486548712 L 335.8321954947716 225.61104921283112 L 337.0243405713224 224.108633560175 L 338.24984249666034 222.60621790751895 L 339.4881941980071 221.1038022548629 L 340.71996949788337 219.60138660220684 L 341.92769209399574 218.0989709495508 L 343.0964787071824 216.59655529689468 L 344.21441702155704 215.09413964423868 L 345.27267059886486 213.59172399158263 L 346.26533379884415 212.08930833892651 L 347.1890857998822 210.58689268627046 L 348.04271085665687 209.0844770336144 L 348.82656002817066 207.58206138095835 L 349.542027370417 206.0796457283023 L 350.191102125265 204.57723007564618 L 350.77604009328115 203.0748144229902 L 351.299175276286 201.57239877033408 L 351.76287038479853 200.06998311767802 L 352.169585019319 198.56756746502202 L 352.52202564555233 197.0651518123659 L 352.8233333178375 195.56273615970986 L 353.0772638344183 194.06032050705375 L 353.2883200347664 192.55790485439775 L 353.4618059184714 191.0554892017417 L 353.60378535517293 189.55307354908558 L 353.72094238209763 188.05065789642953 L 353.8203535789067 186.54824224377347 L 353.9091942188845 185.04582659111742 L 353.9944077216623 183.54341093846136 L 354.08237177944864 182.0409952858053 L 354.1785942928084 180.53857963314925 L 354.2874682686051 179.03616398049314 L 354.4121077942847 177.5337483278371 L 354.5542780631934 176.0313326751811 L 354.7144222967942 174.52891702252498 L 354.89177845188544 173.02650136986892 L 355.08456991118294 171.52408571721287 L 355.2902478565664 170.02167006455682 L 355.5057593640226 168.51925441190076 L 355.72781473449174 167.01683875924465 L 355.95313009152534 165.51442310658865 L 356.1786263606117 164.01200745393254 L 356.4015726057166 162.50959180127649 L 356.61966934226047 161.00717614862043 L 356.8310748216232 159.50476049596438 L 357.0343834385987 158.00234484330832 L 357.2285696361073 156.4999291906522 L 357.4129125916638 154.9975135379962 L 357.5869165609552 153.49509788534016 L 357.75023936502487 151.99268223268405 L 357.9026377417307 150.490266580028 L 358.0439338833661 148.98785092737194 L 358.1740032004198 147.48543527471588 L 358.29277981867426 145.98301962205983 L 358.4002739584261 144.48060396940372 L 358.4965943358697 142.97818831674772 L 358.5819689994322 141.4757726640916 L 358.65675930453773 139.97335701143555 L 358.72146365533047 138.47094135877956 L 358.7767097822041 136.96852570612344 L 358.8232363015967 135.4661100534674 L 358.86186583852924 133.96369440081128 L 358.8934729275261 132.46127874815528 L 358.9189502152771 130.95886309549923 L 358.939176245442 129.45644744284306 L 358.95498745934805 127.954031790187 L 358.9671561735358 126.45161613753095 L 358.9763753684059 124.94920048487484 L 358.98325028200503 123.44678483221878 L 358.9882961431491 121.94436917956278 L 358.99194094291556 120.44195352690667 L 359.00805905708444 120.44195352690667 L 359.0117038568509 121.94436917956278 L 359.01674971799497 123.44678483221878 L 359.0236246315941 124.94920048487484 L 359.0328438264642 126.45161613753095 L 359.04501254065195 127.954031790187 L 359.060823754558 129.45644744284306 L 359.0810497847229 130.95886309549923 L 359.1065270724739 132.46127874815528 L 359.13813416147076 133.96369440081128 L 359.1767636984033 135.4661100534674 L 359.2232902177959 136.96852570612344 L 359.27853634466953 138.47094135877956 L 359.34324069546227 139.97335701143555 L 359.4180310005678 141.4757726640916 L 359.5034056641303 142.97818831674772 L 359.5997260415739 144.48060396940372 L 359.70722018132574 145.98301962205983 L 359.8259967995802 147.48543527471588 L 359.9560661166339 148.98785092737194 L 360.0973622582693 150.490266580028 L 360.24976063497513 151.99268223268405 L 360.4130834390448 153.49509788534016 L 360.5870874083362 154.9975135379962 L 360.7714303638927 156.4999291906522 L 360.9656165614013 158.00234484330832 L 361.1689251783768 159.50476049596438 L 361.38033065773953 161.00717614862043 L 361.5984273942834 162.50959180127649 L 361.8213736393883 164.01200745393254 L 362.04686990847466 165.51442310658865 L 362.27218526550826 167.01683875924465 L 362.4942406359774 168.51925441190076 L 362.7097521434336 170.02167006455682 L 362.91543008881706 171.52408571721287 L 363.10822154811456 173.02650136986892 L 363.2855777032058 174.52891702252498 L 363.4457219368066 176.0313326751811 L 363.5878922057153 177.5337483278371 L 363.7125317313949 179.03616398049314 L 363.8214057071916 180.53857963314925 L 363.91762822055136 182.0409952858053 L 364.0055922783377 183.54341093846136 L 364.0908057811155 185.04582659111742 L 364.1796464210933 186.54824224377347 L 364.27905761790237 188.05065789642953 L 364.39621464482707 189.55307354908558 L 364.5381940815286 191.0554892017417 L 364.7116799652336 192.55790485439775 L 364.9227361655817 194.06032050705375 L 365.1766666821625 195.56273615970986 L 365.47797435444767 197.0651518123659 L 365.830414980681 198.56756746502202 L 366.23712961520147 200.06998311767802 L 366.700824723714 201.57239877033408 L 367.22395990671885 203.0748144229902 L 367.808897874735 204.57723007564618 L 368.457972629583 206.0796457283023 L 369.17343997182934 207.58206138095835 L 369.95728914334313 209.0844770336144 L 370.8109142001178 210.58689268627046 L 371.73466620115585 212.08930833892651 L 372.72732940113514 213.59172399158263 L 373.78558297844296 215.09413964423868 L 374.9035212928176 216.59655529689468 L 376.07230790600426 218.0989709495508 L 377.28003050211663 219.60138660220684 L 378.5118058019929 221.1038022548629 L 379.75015750333966 222.60621790751895 L 380.9756594286776 224.108633560175 L 382.1678045052284 225.61104921283112 L 383.3060322416857 227.11346486548712 L 384.3708268710225 228.61588051814323 L 385.3447881172061 230.11829617079928 L 386.21357796709304 231.62071182345534 L 386.96665958553365 233.1231274761114 L 387.59776673958896 234.62554312876745 L 388.1050707086219 236.12795878142353 L 388.49104284587565 237.63037443407958 L 388.7620407879366 239.1327900867356 L 388.9276712736398 240.63520573939172 L 389 242.13762139204775 L 388.9926874241581 243.64003704470386 L 388.9201286622959 245.14245269735994 L 388.7966665215114 246.64486835001597 L 388.6359310209677 248.14728400267208 L 388.450338908241 249.6496996553281 L 388.25076531678076 251.15211530798416 L 388.04637945017987 252.65453096064024 L 387.8446193014489 254.1569466132963 L 387.65126866041606 255.65936226595238 L 387.47059407328146 257.16177791860844 L 387.30550025626 258.6641935712645 L 387.1576691934153 260.16660922392055 L 387.02765949531306 261.6690248765766 L 386.91495669876497 263.17144052923265 L 386.81797982533755 264.6738561818887 L 386.73406239540196 266.17627183454476 L 386.6594351819068 267.6786874872009 L 386.5892418234188 269.1811031398569 L 386.5176163579881 270.683518792513 L 386.4378440922398 272.18593444516904 L 386.3426152057374 273.6883500978251 L 386.22436606032227 275.1907657504812 L 386.07568869494617 276.69318140313726 L 385.88977679960107 278.1955970557933 L 385.66086853724994 279.69801270844937 L 385.3846441489462 281.2004283611054 L 385.0585396412566 282.7028440137615 L 384.68194638333694 284.20525966641753 L 384.2562787129028 285.70767531907364 L 383.78490574266533 287.2100909717297 L 383.2729573991487 288.71250662438575 L 382.7270264415138 290.2149222770418 L 382.1547964056089 291.7173379296979 L 381.5646293503366 293.219753582354 L 380.9651468872327 294.72216923501 L 380.3648337986094 296.2245848876661 L 379.7716865996645 297.72700054032214 L 379.19292094265586 299.2294161929782 L 378.6347431294972 300.73183184563425 L 378.10218341918926 302.2342474982903 L 377.59898327091935 303.73666315094636 L 377.1275257914322 305.2390788036024 L 376.688798686409 306.74149445625847 L 376.2823817404114 308.2439101089146 L 375.90645562870736 309.74632576157063 L 375.55783468746984 311.2487414142267 L 375.2320318770378 312.75115706688274 L 374.92336823610066 314.2535727195388 L 374.62514046522654 315.7559883721949 L 374.32985810492943 317.25840402485096 L 374.02955588065515 318.760819677507 L 373.716177669204 320.26323533016307 L 373.3820173853827 321.7656509828191 L 373.0201906272971 323.2680666354752 L 372.6251011613021 324.77048228813123 L 372.19286020300075 326.2728979407873 L 371.7216154440927 327.77531359344334 L 371.2117516206585 329.2777292460994 L 370.66593491920213 330.78014489875545 L 370.0889885294255 332.28256055141156 L 369.48760424901866 333.78497620406756 L 368.86991281884036 335.2873918567237 L 368.2449511263016 336.7898075093797 L 367.6220753960465 338.29222316203584 L 367.01037450006754 339.7946388146919 L 366.41813597493945 341.29705446734795 L 365.8524096118117 342.799470120004 L 365.3187008394778 344.30188577266006 L 364.8208104477769 345.8043014253161 L 364.36082071065545 347.30671707797217 L 363.93921284174286 348.8091327306282 L 363.5550887672917 350.3115483832843 L 363.20646264924085 351.8139640359404 L 362.8905849276888 353.31637968859644 L 362.60426364545214 354.81879534125244 L 362.3441536247202 356.32121099390855 L 362.1069924292381 357.8236266465646 L 361.88977152955033 359.3260422992207 L 361.68984031540634 360.82845795187677 L 361.50494844092105 362.3308736045328 L 361.3332376933095 363.8332892571889 L 361.1731978169516 365.33570490984494 L 361.02360156858117 366.838120562501 L 360.8834331042988 368.34053621515704 L 360.7518211753055 369.8429518678131 L 360.627985176023 371.3453675204692 L 360.51119844651583 372.84778317312526 L 360.4007698677975 374.3501988257813 L 360.29604203840586 375.8526144784374 L 360.19640236222114 377.35503013109343 L 360.1013022548612 378.8574457837495 L 360.010279333109 380.3598614364056 L 359.9229777695369 381.86227708906165 L 359.83916282123073 383.3646927417177 L 359.7587267146687 384.86710839437376 L 359.68168442689836 386.3695240470298 L 359.6081592923016 387.87193969968587 L 359.5383596428447 389.3743553523419 L 359.47254873456285 390.876771004998 L 359.41101092777126 392.37918665765403 L 359.3540174134201 393.8816023103101 L 359.30179469826356 395.3840179629662 L 359.25449861067233 396.88643361562225 L 359.2121958455606 398.3888492682783 L 359.1748541436899 399.89126492093436 L 359.1423412272903 401.3936805735904 L 359.11443171749755 402.89609622624647 L 359.0908205448908 404.3985118789025 L 359.07114090198087 405.90092753155864 L 359.0549846025581 407.4033431842147 L 359.0419227921088 408.90575883687075 L 359.03152524668377 410.4081744895268 L 359.0233769336274 411.91059014218285 L 359.0170910080087 413.4130057948389 L 359.01231791060917 414.91542144749496 L 359.0087506595082 416.4178371001511 L 359.0061267510234 417.92025275280713 L 359.00422729202467 419.4226684054632 Z" stroke="black" stroke-width="0.5" fill="steelblue" /></svg>