<svg xmlns="http://www.w3.org/2000/svg" width="673" height="541" fill="black"><rect width="100%" height="100%" fill="white" /><line x1="59" y1="492" x2="659" y2="492" stroke="black" stroke-width="1" /><line x1="59" y1="42" x2="59" y2="492" stroke="black" stroke-width="1" /><line x1="59" y1="442" x2="659" y2="442" stroke="#ccc" stroke-width="1" /><line x1="59" y1="392" x2="659" y2="392" stroke="#ccc" stroke-width="1" /><line x1="59" y1="342" x2="659" y2="342" stroke="#ccc" stroke-width="1" /><line x1="59" y1="292" x2="659" y2="292" stroke="#ccc" stroke-width="1" /><line x1="59" y1="242" x2="659" y2="242" stroke="#ccc" stroke-width="1" /><line x1="59" y1="192" x2="659" y2="192" stroke="#ccc" stroke-width="1" /><line x1="59" y1="142" x2="659" y2="142" stroke="#ccc" stroke-width="1" /><line x1="59" y1="92" x2="659" y2="92" stroke="#ccc" stroke-width="1" /><line x1="59" y1="42" x2="659" y2="42" stroke="#ccc" stroke-width="1" /><text x="359" y="507" font-size="10" text-anchor="middle"></text><line x1="359" y1="492" x2="359" y2="497" stroke="black" stroke-width="1" /><line x1="54" y1="492" x2="59" y2="492" stroke="black" stroke-width="1" /><text x="51" y="495.5" font-size="10" text-anchor="end">-5</text><line x1="54" y1="442" x2="59" y2="442" stroke="black" stroke-width="1" /><text x="51" y="445.5" font-size="10" text-anchor="end">-4</text><line x1="54" y1="392" x2="59" y2="392" stroke="black" stroke-width="1" /><text x="51" y="395.5" font-size="10" text-anchor="end">-3</text><line x1="54" y1="342" x2="59" y2="342" stroke="black" stroke-width="1" /><text x="51" y="345.5" font-size="10" text-anchor="end">-2</text><line x1="54" y1="292" x2="59" y2="292" stroke="black" stroke-width="1" /><text x="51" y="295.5" font-size="10" text-anchor="end">-1</text><line x1="54" y1="242" x2="59" y2="242" stroke="black" stroke-width="1" /><text x="51" y="245.5" font-size="10" text-anchor="end">0</text><line x1="54" y1="192" x2="59" y2="192" stroke="black" stroke-width="1" /><text x="51" y="195.5" font-size="10" text-anchor="end">1</text><line x1="54" y1="142" x2="59" y2="142" stroke="black" stroke-width="1" /><text x="51" y="145.5" font-size="10" text-anchor="end">2</text><line x1="54" y1="92" x2="59" y2="92" stroke="black" stroke-width="1" /><text x="51" y="95.5" font-size="10" text-anchor="end">3</text><line x1="54" y1="42" x2="59" y2="42" stroke="black" stroke-width="1" /><text x="51" y="45.5" font-size="10" text-anchor="end">4</text><text x="336.5" y="21" font-size="16" text-anchor="middle">Narrow (h = 0.15)</text><path d="M 358.99352663440135 393.5297985443426 L 358.9884705062891 392.03963095390463 L 358.9802535127737 390.5494633634666 L 358.9674745444096 389.0592957730286 L 358.94846695084647 387.5691281825906 L 358.9214437960427 386.0789605921526 L 358.8847477294661 384.58879300171463 L 358.8371873335896 383.0986254112766 L 358.77840277159294 381.60845782083857 L 358.7091672421219 380.1182902304006 L 358.6315142167499 378.62812263996256 L 358.5485993685352 377.1379550495246 L 358.4642661598948 375.64778745908654 L 358.38237404816306 374.15761986864857 L 358.3060397324766 372.6674522782106 L 358.2369976583468 371.17728468777256 L 358.1752758204014 369.6871170973346 L 358.11929919847927 368.19694950689654 L 358.0663988707999 366.70678191645857 L 358.01356747708803 365.21661432602053 L 357.95821474764557 363.7264467355825 L 357.89867658236386 362.2362791451445 L 357.834320180664 360.74611155470654 L 357.7652329708218 359.2559439642685 L 357.69162997719707 357.7657763738305 L 357.6132094823876 356.2756087833925 L 357.52869937193424 354.78544119295447 L 357.4357679358889 353.2952736025165 L 357.3313535050049 351.80510601207845 L 357.2123415659658 350.3149384216405 L 357.0764257759075 348.8247708312025 L 356.92295102225074 347.33460324076447 L 356.75354836701393 345.84443565032643 L 356.57241175376555 344.35426805988845 L 356.3861109835092 342.8641004694505 L 356.20287507340095 341.3739328790125 L 356.0313263668033 339.88376528857447 L 355.8787231266303 338.39359769813643 L 355.74889237830627 336.90343010769845 L 355.6401895493032 335.4132625172604 L 355.5439524657764 333.92309492682244 L 355.4439496857774 332.4329273363844 L 355.3172003286302 330.94275974594643 L 355.13626479066176 329.4525921555084 L 354.87274501951396 327.96242456507036 L 354.5014105184817 326.4722569746324 L 354.00419990922336 324.9820893841944 L 353.37339616942285 323.4919217937564 L 352.6135059743462 322.00175420331834 L 351.7416846424515 320.51158661288036 L 350.786810371046 319.02141902244233 L 349.78743794736073 317.5312514320044 L 348.7888480752925 316.0410838415663 L 347.8393286153212 314.55091625112834 L 346.9857885987738 313.06074866069036 L 346.26889773229203 311.57058107025233 L 345.7181694938169 310.0804134798143 L 345.34768299060653 308.5902458893763 L 345.15332926924077 307.10007829893834 L 345.1124369657819 305.60991070850037 L 345.18631018579094 304.11974311806233 L 345.3256310080259 302.6295755276243 L 345.47797522263335 301.1394079371863 L 345.5960635984451 299.6492403467483 L 345.64502735138234 298.15907275631025 L 345.60704891321177 296.6689051658723 L 345.482276733874 295.1787375754343 L 345.2857982630775 293.6885699849963 L 345.0414617670788 292.19840239455823 L 344.77417694928755 290.70823480412025 L 344.5027328547446 289.2180672136823 L 344.23500083693233 287.7278996232443 L 343.9666695879067 286.2377320328062 L 343.68360056049903 284.7475644423683 L 343.3668286688664 283.2573968519302 L 342.9985061416543 281.7672292614923 L 342.5669241404163 280.2770616710542 L 342.06917941756444 278.7868940806162 L 341.5109124973289 277.29672649017823 L 340.90352811174967 275.80655889974025 L 340.2600968053053 274.3163913093022 L 339.59149518515386 272.8262237188642 L 338.9041880624908 271.3360561284262 L 338.20046195837494 269.84588853798823 L 337.4810780788909 268.3557209475502 L 336.74947578000257 266.86555335711216 L 336.0160733129529 265.3753857666742 L 335.3010651901274 263.88521817623615 L 334.63447000693895 262.3950505857981 L 334.0529529499638 260.90488299536014 L 333.5939068295771 259.41471540492216 L 333.28812260747895 257.92454781448413 L 333.1528440888139 256.4343802240462 L 333.18694405021233 254.94421263360812 L 333.36942522091164 253.45404504317017 L 333.66163566294495 251.96387745273208 L 334.01274975436996 250.47370986229413 L 334.3674145185328 248.9835422718561 L 334.6741031057048 247.49337468141815 L 334.89265888020435 246.0032070909801 L 334.9997083748046 244.5130395005421 L 334.9910178977784 243.02287191010404 L 334.8804223362335 241.53270431966612 L 334.6956039664308 240.04253672922812 L 334.47163556306214 238.55236913879006 L 334.24367353821964 237.06220154835208 L 334.0403448193907 235.57203395791407 L 333.879141914453 234.0818663674761 L 333.7645754616872 232.591698777038 L 333.68910427558285 231.10153118660003 L 333.63619866304464 229.61136359616205 L 333.58448979407353 228.12119600572402 L 333.5119064323412 226.63102841528604 L 333.39896195094155 225.14086082484806 L 333.23079388745987 223.65069323441003 L 332.99800720808395 222.16052564397205 L 332.69669450127486 220.67035805353402 L 332.3281357609521 219.18019046309604 L 331.8986265618654 217.69002287265795 L 331.419706735962 216.19985528222003 L 330.90883731584574 214.709687691782 L 330.39036020589344 213.21952010134396 L 329.89640210077016 211.72935251090593 L 329.4672606746513 210.239184920468 L 329.1507484384505 208.74901733002997 L 329 207.258849739592 L 329.06942087909243 205.76868214915396 L 329.408805700557 204.27851455871593 L 330.0561576704106 202.78834696827795 L 331.0302905287724 201.29817937783997 L 332.32470727645017 199.80801178740194 L 333.9043356203542 198.3178441969639 L 335.70634379146446 196.82767660652593 L 337.64549228919674 195.33750901608795 L 339.62348220457824 193.84734142564992 L 341.54082060773567 192.35717383521188 L 343.3091136192813 190.8670062447739 L 344.86158812867774 189.37683865433587 L 346.1600448063609 187.8866710638979 L 347.19722188315535 186.39650347345992 L 347.9944796313001 184.90633588302188 L 348.5955714112097 183.4161682925839 L 349.05787600784157 181.92600070214593 L 349.44274044881763 180.43583311170784 L 349.8065200687643 178.94566552126986 L 350.1935676676956 177.45549793083188 L 350.6319229880933 175.96533034039385 L 351.13190984231306 174.47516274995587 L 351.6873716092201 172.98499515951784 L 352.27894085733817 171.49482756907986 L 352.8785706050999 170.00465997864183 L 353.4545334793084 168.51449238820385 L 353.97617676761575 167.02432479776581 L 354.4178630516942 165.53415720732778 L 354.76170163210264 164.0439896168898 L 354.99887512736717 162.55382202645183 L 355.12958048742183 161.0636544360138 L 355.1618142865474 159.57348684557576 L 355.1094032604855 158.08331925513778 L 354.9897720246202 156.59315166469975 L 354.82192203987074 155.10298407426183 L 354.6249669055925 153.6128164838238 L 354.41735829698047 152.12264889338576 L 354.2166998592171 150.63248130294778 L 354.0398512039429 149.1423137125098 L 353.9029328446322 147.65214612207177 L 353.8208913606816 146.16197853163374 L 353.8064658905526 144.67181094119576 L 353.8686585143871 143.18164335075778 L 354.0110635923384 141.69147576031975 L 354.23056070269297 140.2013081698817 L 354.51685994697647 138.71114057944374 L 354.85320363622526 137.2209729890057 L 355.21823430498875 135.73080539856772 L 355.5887344844043 134.2406378081297 L 355.942726169533 132.75047021769166 L 356.26234556691753 131.26030262725368 L 356.53598324559476 129.7701350368157 L 356.7593566407771 128.27996744637767 L 356.9353983774851 126.78979985593963 L 357.0730482985692 125.29963226550166 L 357.18520214136845 123.80946467506368 L 357.28618750811324 122.3192970846257 L 357.389204037407 120.82912949418767 L 357.5041685489088 119.33896190374969 L 357.6363327956605 117.84879431331166 L 357.7858881085772 116.35862672287368 L 357.94856066014466 114.86845913243565 L 358.11698418792264 113.37829154199761 L 358.28247662649045 111.88812395155963 L 358.43679186126747 110.39795636112166 L 358.5734803893857 108.90778877068362 L 358.68864425087975 107.41762118024559 L 358.78105545316913 105.92745358980761 L 358.8517632315217 104.43728599936958 L 358.9034034798805 102.9471184089316 L 358.93943388511457 101.45695081849357 L 358.96346836504244 99.96678322805559 L 358.9788061354869 98.47661563761756 L 358.9881750346519 96.98644804717958 L 359.0118249653481 96.98644804717958 L 359.0211938645131 98.47661563761756 L 359.03653163495756 99.96678322805559 L 359.06056611488543 101.45695081849357 L 359.0965965201195 102.9471184089316 L 359.1482367684783 104.43728599936958 L 359.21894454683087 105.92745358980761 L 359.31135574912025 107.41762118024559 L 359.4265196106143 108.90778877068362 L 359.56320813873253 110.39795636112166 L 359.71752337350955 111.88812395155963 L 359.88301581207736 113.37829154199761 L 360.05143933985534 114.86845913243565 L 360.2141118914228 116.35862672287368 L 360.3636672043395 117.84879431331166 L 360.4958314510912 119.33896190374969 L 360.610795962593 120.82912949418767 L 360.71381249188676 122.3192970846257 L 360.81479785863155 123.80946467506368 L 360.9269517014308 125.29963226550166 L 361.0646016225149 126.78979985593963 L 361.2406433592229 128.27996744637767 L 361.46401675440524 129.7701350368157 L 361.73765443308247 131.26030262725368 L 362.057273830467 132.75047021769166 L 362.4112655155957 134.2406378081297 L 362.78176569501125 135.73080539856772 L 363.14679636377474 137.2209729890057 L 363.48314005302353 138.71114057944374 L 363.76943929730703 140.2013081698817 L 363.9889364076616 141.69147576031975 L 364.1313414856129 143.18164335075778 L 364.1935341094474 144.67181094119576 L 364.1791086393184 146.16197853163374 L 364.0970671553678 147.65214612207177 L 363.9601487960571 149.1423137125098 L 363.7833001407829 150.63248130294778 L 363.58264170301953 152.12264889338576 L 363.3750330944075 153.6128164838238 L 363.17807796012926 155.10298407426183 L 363.0102279753798 156.59315166469975 L 362.8905967395145 158.08331925513778 L 362.8381857134526 159.57348684557576 L 362.87041951257817 161.0636544360138 L 363.00112487263283 162.55382202645183 L 363.23829836789736 164.0439896168898 L 363.5821369483058 165.53415720732778 L 364.02382323238425 167.02432479776581 L 364.5454665206916 168.51449238820385 L 365.1214293949001 170.00465997864183 L 365.72105914266183 171.49482756907986 L 366.3126283907799 172.98499515951784 L 366.86809015768694 174.47516274995587 L 367.3680770119067 175.96533034039385 L 367.8064323323044 177.45549793083188 L 368.1934799312357 178.94566552126986 L 368.55725955118237 180.43583311170784 L 368.94212399215843 181.92600070214593 L 369.4044285887903 183.4161682925839 L 370.0055203686999 184.90633588302188 L 370.80277811684465 186.39650347345992 L 371.8399551936391 187.8866710638979 L 373.13841187132226 189.37683865433587 L 374.6908863807187 190.8670062447739 L 376.45917939226433 192.35717383521188 L 378.37651779542176 193.84734142564992 L 380.35450771080326 195.33750901608795 L 382.29365620853554 196.82767660652593 L 384.0956643796458 198.3178441969639 L 385.67529272354983 199.80801178740194 L 386.9697094712276 201.29817937783997 L 387.9438423295894 202.78834696827795 L 388.591194299443 204.27851455871593 L 388.93057912090757 205.76868214915396 L 389 207.258849739592 L 388.8492515615495 208.74901733002997 L 388.5327393253487 210.239184920468 L 388.10359789922984 211.72935251090593 L 387.60963979410656 213.21952010134396 L 387.09116268415426 214.709687691782 L 386.580293264038 216.19985528222003 L 386.1013734381346 217.69002287265795 L 385.6718642390479 219.18019046309604 L 385.30330549872514 220.67035805353402 L 385.00199279191605 222.16052564397205 L 384.76920611254013 223.65069323441003 L 384.60103804905845 225.14086082484806 L 384.4880935676588 226.63102841528604 L 384.41551020592647 228.12119600572402 L 384.36380133695536 229.61136359616205 L 384.31089572441715 231.10153118660003 L 384.2354245383128 232.591698777038 L 384.120858085547 234.0818663674761 L 383.9596551806093 235.57203395791407 L 383.75632646178036 237.06220154835208 L 383.52836443693786 238.55236913879006 L 383.3043960335692 240.04253672922812 L 383.1195776637665 241.53270431966612 L 383.0089821022216 243.02287191010404 L 383.0002916251954 244.5130395005421 L 383.10734111979565 246.0032070909801 L 383.3258968942952 247.49337468141815 L 383.6325854814672 248.9835422718561 L 383.98725024563004 250.47370986229413 L 384.33836433705505 251.96387745273208 L 384.63057477908836 253.45404504317017 L 384.81305594978767 254.94421263360812 L 384.8471559111861 256.4343802240462 L 384.71187739252105 257.92454781448413 L 384.4060931704229 259.41471540492216 L 383.9470470500362 260.90488299536014 L 383.36552999306105 262.3950505857981 L 382.6989348098726 263.88521817623615 L 381.9839266870471 265.3753857666742 L 381.25052421999743 266.86555335711216 L 380.5189219211091 268.3557209475502 L 379.79953804162506 269.84588853798823 L 379.0958119375092 271.3360561284262 L 378.40850481484614 272.8262237188642 L 377.7399031946947 274.3163913093022 L 377.09647188825033 275.80655889974025 L 376.4890875026711 277.29672649017823 L 375.93082058243556 278.7868940806162 L 375.4330758595837 280.2770616710542 L 375.0014938583457 281.7672292614923 L 374.6331713311336 283.2573968519302 L 374.31639943950097 284.7475644423683 L 374.0333304120933 286.2377320328062 L 373.76499916306767 287.7278996232443 L 373.4972671452554 289.2180672136823 L 373.22582305071245 290.70823480412025 L 372.9585382329212 292.19840239455823 L 372.7142017369225 293.6885699849963 L 372.517723266126 295.1787375754343 L 372.39295108678823 296.6689051658723 L 372.35497264861766 298.15907275631025 L 372.4039364015549 299.6492403467483 L 372.52202477736665 301.1394079371863 L 372.6743689919741 302.6295755276243 L 372.81368981420906 304.11974311806233 L 372.8875630342181 305.60991070850037 L 372.84667073075923 307.10007829893834 L 372.65231700939347 308.5902458893763 L 372.2818305061831 310.0804134798143 L 371.73110226770797 311.57058107025233 L 371.0142114012262 313.06074866069036 L 370.1606713846788 314.55091625112834 L 369.2111519247075 316.0410838415663 L 368.21256205263927 317.5312514320044 L 367.213189628954 319.02141902244233 L 366.2583153575485 320.51158661288036 L 365.3864940256538 322.00175420331834 L 364.62660383057715 323.4919217937564 L 363.99580009077664 324.9820893841944 L 363.4985894815183 326.4722569746324 L 363.12725498048604 327.96242456507036 L 362.86373520933824 329.4525921555084 L 362.6827996713698 330.94275974594643 L 362.5560503142226 332.4329273363844 L 362.4560475342236 333.92309492682244 L 362.3598104506968 335.4132625172604 L 362.25110762169373 336.90343010769845 L 362.1212768733697 338.39359769813643 L 361.9686736331967 339.88376528857447 L 361.79712492659905 341.3739328790125 L 361.6138890164908 342.8641004694505 L 361.42758824623445 344.35426805988845 L 361.24645163298607 345.84443565032643 L 361.07704897774926 347.33460324076447 L 360.9235742240925 348.8247708312025 L 360.7876584340342 350.3149384216405 L 360.6686464949951 351.80510601207845 L 360.5642320641111 353.2952736025165 L 360.47130062806576 354.78544119295447 L 360.3867905176124 356.2756087833925 L 360.30837002280293 357.7657763738305 L 360.2347670291782 359.2559439642685 L 360.165679819336 360.74611155470654 L 360.10132341763614 362.2362791451445 L 360.04178525235443 363.7264467355825 L 359.98643252291197 365.21661432602053 L 359.9336011292001 366.70678191645857 L 359.88070080152073 368.19694950689654 L 359.8247241795986 369.6871170973346 L 359.7630023416532 371.17728468777256 L 359.6939602675234 372.6674522782106 L 359.61762595183694 374.15761986864857 L 359.5357338401052 375.64778745908654 L 359.4514006314648 377.1379550495246 L 359.3684857832501 378.62812263996256 L 359.2908327578781 380.1182902304006 L 359.22159722840706 381.60845782083857 L 359.1628126664104 383.0986254112766 L 359.1152522705339 384.58879300171463 L 359.0785562039573 386.0789605921526 L 359.05153304915353 387.5691281825906 L 359.0325254555904 389.0592957730286 L 359.0197464872263 390.5494633634666 L 359.0115294937109 392.03963095390463 L 359.00647336559865 393.5297985443426 Z" stroke="black" stroke-width="0.5" fill="steelblue" /></svg>