<svg xmlns="http://www.w3.org/2000/svg" width="673" height="545" font-family="DejaVu Sans, Liberation Sans, Arial, sans-serif" fill="black"><rect width="100%" height="100%" fill="white" /><defs><clipPath id="kuva-clip-1"><rect x="59" y="44" width="600" height="450"/></clipPath></defs><line x1="59" y1="429.71000000000004" x2="659" y2="429.71000000000004" stroke="#cccccc" stroke-width="1" /><line x1="59" y1="365.43" x2="659" y2="365.43" stroke="#cccccc" stroke-width="1" /><line x1="59" y1="301.14" x2="659" y2="301.14" stroke="#cccccc" stroke-width="1" /><line x1="59" y1="236.86" x2="659" y2="236.86" stroke="#cccccc" stroke-width="1" /><line x1="59" y1="172.57" x2="659" y2="172.57" stroke="#cccccc" stroke-width="1" /><line x1="59" y1="108.29" x2="659" y2="108.29" stroke="#cccccc" stroke-width="1" /><line x1="59" y1="44" x2="659" y2="44" stroke="#cccccc" stroke-width="1" /><line x1="59" y1="494" x2="659" y2="494" stroke="#000000" stroke-width="1" /><line x1="59" y1="44" x2="59" y2="494" stroke="#000000" stroke-width="1" /><text x="359" y="511" font-size="12" text-anchor="middle"></text><line x1="359" y1="494" x2="359" y2="499" stroke="#000000" stroke-width="1" /><line x1="54" y1="494" x2="59" y2="494" stroke="#000000" stroke-width="1" /><text x="51" y="498.2" font-size="12" text-anchor="end">-4</text><line x1="54" y1="429.71000000000004" x2="59" y2="429.71000000000004" stroke="#000000" stroke-width="1" /><text x="51" y="433.91" font-size="12" text-anchor="end">-3</text><line x1="54" y1="365.43" x2="59" y2="365.43" stroke="#000000" stroke-width="1" /><text x="51" y="369.63" font-size="12" text-anchor="end">-2</text><line x1="54" y1="301.14" x2="59" y2="301.14" stroke="#000000" stroke-width="1" /><text x="51" y="305.34000000000003" font-size="12" text-anchor="end">-1</text><line x1="54" y1="236.86" x2="59" y2="236.86" stroke="#000000" stroke-width="1" /><text x="51" y="241.06" font-size="12" text-anchor="end">0</text><line x1="54" y1="172.57" x2="59" y2="172.57" stroke="#000000" stroke-width="1" /><text x="51" y="176.77" font-size="12" text-anchor="end">1</text><line x1="54" y1="108.29" x2="59" y2="108.29" stroke="#000000" stroke-width="1" /><text x="51" y="112.49000000000001" font-size="12" text-anchor="end">2</text><line x1="54" y1="44" x2="59" y2="44" stroke="#000000" stroke-width="1" /><text x="51" y="48.2" font-size="12" text-anchor="end">3</text><text x="359" y="27.400000000000002" font-size="18" text-anchor="middle">Narrow (h = 0.15)</text><g clip-path="url(#kuva-clip-1)"><path d="M 358.96 431.68 L 358.92 429.77 L 358.87 427.85 L 358.78000000000003 425.93 L 358.66 424.02 L 358.48 422.1 L 358.23 420.19 L 357.92 418.27 L 357.52 416.35 L 357.06 414.44 L 356.54 412.52 L 355.99 410.61 L 355.43 408.69 L 354.88 406.77 L 354.37 404.86 L 353.91 402.94 L 353.5 401.03000000000003 L 353.13 399.11 L 352.78000000000003 397.19 L 352.43 395.28000000000003 L 352.06 393.36 L 351.66 391.45 L 351.23 389.53000000000003 L 350.77 387.61 L 350.28000000000003 385.7 L 349.75 383.78000000000003 L 349.19 381.87 L 348.57 379.95 L 347.88 378.04 L 347.08 376.12 L 346.18 374.2 L 345.15000000000003 372.29 L 344.03000000000003 370.37 L 342.82 368.46 L 341.58 366.54 L 340.36 364.62 L 339.21 362.71 L 338.19 360.79 L 337.33 358.88 L 336.6 356.96 L 335.96 355.04 L 335.29 353.13 L 334.45 351.21 L 333.24 349.3 L 331.49 347.38 L 329.01 345.46 L 325.7 343.55 L 321.49 341.63 L 316.43 339.72 L 310.62 337.8 L 304.25 335.88 L 297.58 333.97 L 290.93 332.05 L 284.59000000000003 330.14 L 278.91 328.22 L 274.13 326.31 L 270.45 324.39 L 267.98 322.47 L 266.69 320.56 L 266.42 318.64 L 266.91 316.73 L 267.84000000000003 314.81 L 268.86 312.89 L 269.64 310.98 L 269.97 309.06 L 269.71 307.15000000000003 L 268.88 305.23 L 267.57 303.31 L 265.95 301.40000000000003 L 264.17 299.48 L 262.36 297.57 L 260.57 295.65000000000003 L 258.78000000000003 293.73 L 256.89 291.82 L 254.78 289.90000000000003 L 252.32 287.99 L 249.45000000000002 286.07 L 246.13 284.15000000000003 L 242.41 282.24 L 238.36 280.32 L 234.07 278.41 L 229.61 276.49 L 225.03 274.57 L 220.34 272.66 L 215.54 270.74 L 210.66 268.83 L 205.78 266.91 L 201.01 265.0 L 196.56 263.08 L 192.69 261.16 L 189.63 259.25 L 187.59 257.33 L 186.69 255.42000000000002 L 186.92000000000002 253.5 L 188.13 251.58 L 190.08 249.67000000000002 L 192.42000000000002 247.75 L 194.79 245.84 L 196.83 243.92000000000002 L 198.29 242.0 L 199.0 240.09 L 198.94 238.17000000000002 L 198.20000000000002 236.26 L 196.98000000000002 234.34 L 195.48000000000002 232.42000000000002 L 193.96 230.51 L 192.61 228.59 L 191.53 226.68 L 190.76 224.76 L 190.27 222.84 L 189.91 220.93 L 189.57 219.01 L 189.08 217.1 L 188.33 215.18 L 187.20000000000002 213.27 L 185.66 211.35 L 183.64000000000001 209.43 L 181.19 207.52 L 178.32 205.6 L 175.13 203.69 L 171.72 201.77 L 168.27 199.85 L 164.97 197.94 L 162.11 196.02 L 160.0 194.11 L 159.0 192.19 L 159.46 190.27 L 161.72 188.36 L 166.04 186.44 L 172.54 184.53 L 181.16 182.61 L 191.69 180.69 L 203.71 178.78 L 216.64000000000001 176.86 L 229.82 174.95000000000002 L 242.61 173.03 L 254.4 171.11 L 264.75 169.20000000000002 L 273.40000000000003 167.28 L 280.32 165.37 L 285.63 163.45000000000002 L 289.64 161.54 L 292.72 159.62 L 295.29 157.70000000000002 L 297.72 155.79 L 300.3 153.87 L 303.22 151.96 L 306.55 150.04 L 310.26 148.12 L 314.2 146.21 L 318.2 144.29 L 322.04 142.38 L 325.52 140.46 L 328.46 138.54 L 330.75 136.63 L 332.33 134.71 L 333.2 132.8 L 333.41 130.88 L 333.06 128.96 L 332.27 127.05 L 331.15000000000003 125.13000000000001 L 329.83 123.22 L 328.45 121.3 L 327.11 119.38 L 325.93 117.47 L 325.02 115.55 L 324.47 113.64 L 324.38 111.72 L 324.79 109.8 L 325.74 107.89 L 327.21 105.97 L 329.11 104.06 L 331.35 102.14 L 333.79 100.23 L 336.26 98.31 L 338.62 96.39 L 340.75 94.48 L 342.57 92.56 L 344.06 90.65 L 345.24 88.73 L 346.15000000000003 86.81 L 346.90000000000003 84.9 L 347.58 82.98 L 348.26 81.07000000000001 L 349.03000000000003 79.15 L 349.91 77.23 L 350.91 75.32000000000001 L 351.99 73.4 L 353.11 71.49 L 354.22 69.57000000000001 L 355.25 67.65 L 356.16 65.74 L 356.93 63.82 L 357.54 61.910000000000004 L 358.01 59.99 L 358.36 58.07 L 358.6 56.160000000000004 L 358.76 54.24 L 358.86 52.33 L 358.92 50.410000000000004 L 359.08 50.410000000000004 L 359.14 52.33 L 359.24 54.24 L 359.40000000000003 56.160000000000004 L 359.64 58.07 L 359.99 59.99 L 360.46 61.910000000000004 L 361.07 63.82 L 361.84000000000003 65.74 L 362.75 67.65 L 363.78000000000003 69.57000000000001 L 364.89 71.49 L 366.01 73.4 L 367.09000000000003 75.32000000000001 L 368.09000000000003 77.23 L 368.97 79.15 L 369.74 81.07000000000001 L 370.42 82.98 L 371.1 84.9 L 371.85 86.81 L 372.76 88.73 L 373.94 90.65 L 375.43 92.56 L 377.25 94.48 L 379.38 96.39 L 381.74 98.31 L 384.21000000000004 100.23 L 386.65000000000003 102.14 L 388.89 104.06 L 390.79 105.97 L 392.26 107.89 L 393.21000000000004 109.8 L 393.62 111.72 L 393.53000000000003 113.64 L 392.98 115.55 L 392.07 117.47 L 390.89 119.38 L 389.55 121.3 L 388.17 123.22 L 386.85 125.13000000000001 L 385.73 127.05 L 384.94 128.96 L 384.59000000000003 130.88 L 384.8 132.8 L 385.67 134.71 L 387.25 136.63 L 389.54 138.54 L 392.48 140.46 L 395.96000000000004 142.38 L 399.8 144.29 L 403.8 146.21 L 407.74 148.12 L 411.45 150.04 L 414.78000000000003 151.96 L 417.7 153.87 L 420.28000000000003 155.79 L 422.71000000000004 157.70000000000002 L 425.28000000000003 159.62 L 428.36 161.54 L 432.37 163.45000000000002 L 437.68 165.37 L 444.6 167.28 L 453.25 169.20000000000002 L 463.6 171.11 L 475.39 173.03 L 488.18 174.95000000000002 L 501.36 176.86 L 514.29 178.78 L 526.3100000000001 180.69 L 536.84 182.61 L 545.46 184.53 L 551.96 186.44 L 556.28 188.36 L 558.54 190.27 L 559.0 192.19 L 558.0 194.11 L 555.89 196.02 L 553.03 197.94 L 549.73 199.85 L 546.28 201.77 L 542.87 203.69 L 539.6800000000001 205.6 L 536.8100000000001 207.52 L 534.36 209.43 L 532.34 211.35 L 530.8 213.27 L 529.67 215.18 L 528.92 217.1 L 528.4300000000001 219.01 L 528.09 220.93 L 527.73 222.84 L 527.24 224.76 L 526.47 226.68 L 525.39 228.59 L 524.04 230.51 L 522.52 232.42000000000002 L 521.02 234.34 L 519.8 236.26 L 519.0600000000001 238.17000000000002 L 519.0 240.09 L 519.71 242.0 L 521.17 243.92000000000002 L 523.21 245.84 L 525.58 247.75 L 527.92 249.67000000000002 L 529.87 251.58 L 531.08 253.5 L 531.3100000000001 255.42000000000002 L 530.41 257.33 L 528.37 259.25 L 525.3100000000001 261.16 L 521.44 263.08 L 516.99 265.0 L 512.22 266.91 L 507.34000000000003 268.83 L 502.46000000000004 270.74 L 497.66 272.66 L 492.97 274.57 L 488.39 276.49 L 483.93 278.41 L 479.64 280.32 L 475.59000000000003 282.24 L 471.87 284.15000000000003 L 468.55 286.07 L 465.68 287.99 L 463.22 289.90000000000003 L 461.11 291.82 L 459.22 293.73 L 457.43 295.65000000000003 L 455.64 297.57 L 453.83 299.48 L 452.05 301.40000000000003 L 450.43 303.31 L 449.12 305.23 L 448.29 307.15000000000003 L 448.03000000000003 309.06 L 448.36 310.98 L 449.14 312.89 L 450.16 314.81 L 451.09000000000003 316.73 L 451.58 318.64 L 451.31 320.56 L 450.02 322.47 L 447.55 324.39 L 443.87 326.31 L 439.09000000000003 328.22 L 433.41 330.14 L 427.07 332.05 L 420.42 333.97 L 413.75 335.88 L 407.38 337.8 L 401.57 339.72 L 396.51 341.63 L 392.3 343.55 L 388.99 345.46 L 386.51 347.38 L 384.76 349.3 L 383.55 351.21 L 382.71000000000004 353.13 L 382.04 355.04 L 381.40000000000003 356.96 L 380.67 358.88 L 379.81 360.79 L 378.79 362.71 L 377.64 364.62 L 376.42 366.54 L 375.18 368.46 L 373.97 370.37 L 372.85 372.29 L 371.82 374.2 L 370.92 376.12 L 370.12 378.04 L 369.43 379.95 L 368.81 381.87 L 368.25 383.78000000000003 L 367.72 385.7 L 367.23 387.61 L 366.77 389.53000000000003 L 366.34000000000003 391.45 L 365.94 393.36 L 365.57 395.28000000000003 L 365.22 397.19 L 364.87 399.11 L 364.5 401.03000000000003 L 364.09000000000003 402.94 L 363.63 404.86 L 363.12 406.77 L 362.57 408.69 L 362.01 410.61 L 361.46 412.52 L 360.94 414.44 L 360.48 416.35 L 360.08 418.27 L 359.77 420.19 L 359.52 422.1 L 359.34000000000003 424.02 L 359.22 425.93 L 359.13 427.85 L 359.08 429.77 L 359.04 431.68 Z" stroke="#000000" stroke-width="0.5" fill="#4682b4" /></g></svg>