<svg xmlns="http://www.w3.org/2000/svg" width="673" height="541" fill="black"><rect width="100%" height="100%" fill="white" /><line x1="59" y1="492" x2="659" y2="492" stroke="black" stroke-width="1" /><line x1="59" y1="42" x2="59" y2="492" stroke="black" stroke-width="1" /><line x1="59" y1="459.8571428571429" x2="659" y2="459.8571428571429" stroke="#ccc" stroke-width="1" /><line x1="59" y1="427.7142857142857" x2="659" y2="427.7142857142857" stroke="#ccc" stroke-width="1" /><line x1="59" y1="395.57142857142856" x2="659" y2="395.57142857142856" stroke="#ccc" stroke-width="1" /><line x1="59" y1="363.42857142857144" x2="659" y2="363.42857142857144" stroke="#ccc" stroke-width="1" /><line x1="59" y1="331.2857142857143" x2="659" y2="331.2857142857143" stroke="#ccc" stroke-width="1" /><line x1="59" y1="299.14285714285717" x2="659" y2="299.14285714285717" stroke="#ccc" stroke-width="1" /><line x1="59" y1="267" x2="659" y2="267" stroke="#ccc" stroke-width="1" /><line x1="59" y1="234.8571428571429" x2="659" y2="234.8571428571429" stroke="#ccc" stroke-width="1" /><line x1="59" y1="202.71428571428567" x2="659" y2="202.71428571428567" stroke="#ccc" stroke-width="1" /><line x1="59" y1="170.57142857142856" x2="659" y2="170.57142857142856" stroke="#ccc" stroke-width="1" /><line x1="59" y1="138.42857142857144" x2="659" y2="138.42857142857144" stroke="#ccc" stroke-width="1" /><line x1="59" y1="106.28571428571433" x2="659" y2="106.28571428571433" stroke="#ccc" stroke-width="1" /><line x1="59" y1="74.14285714285711" x2="659" y2="74.14285714285711" stroke="#ccc" stroke-width="1" /><line x1="59" y1="42" x2="659" y2="42" stroke="#ccc" stroke-width="1" /><text x="359" y="507" font-size="10" text-anchor="middle"></text><line x1="359" y1="492" x2="359" y2="497" stroke="black" stroke-width="1" /><line x1="54" y1="492" x2="59" y2="492" stroke="black" stroke-width="1" /><text x="51" y="495.5" font-size="10" text-anchor="end">-3.5</text><line x1="54" y1="459.8571428571429" x2="59" y2="459.8571428571429" stroke="black" stroke-width="1" /><text x="51" y="463.3571428571429" font-size="10" text-anchor="end">-3</text><line x1="54" y1="427.7142857142857" x2="59" y2="427.7142857142857" stroke="black" stroke-width="1" /><text x="51" y="431.2142857142857" font-size="10" text-anchor="end">-2.5</text><line x1="54" y1="395.57142857142856" x2="59" y2="395.57142857142856" stroke="black" stroke-width="1" /><text x="51" y="399.07142857142856" font-size="10" text-anchor="end">-2</text><line x1="54" y1="363.42857142857144" x2="59" y2="363.42857142857144" stroke="black" stroke-width="1" /><text x="51" y="366.92857142857144" font-size="10" text-anchor="end">-1.5</text><line x1="54" y1="331.2857142857143" x2="59" y2="331.2857142857143" stroke="black" stroke-width="1" /><text x="51" y="334.7857142857143" font-size="10" text-anchor="end">-1</text><line x1="54" y1="299.14285714285717" x2="59" y2="299.14285714285717" stroke="black" stroke-width="1" /><text x="51" y="302.64285714285717" font-size="10" text-anchor="end">-0.5</text><line x1="54" y1="267" x2="59" y2="267" stroke="black" stroke-width="1" /><text x="51" y="270.5" font-size="10" text-anchor="end">0</text><line x1="54" y1="234.8571428571429" x2="59" y2="234.8571428571429" stroke="black" stroke-width="1" /><text x="51" y="238.3571428571429" font-size="10" text-anchor="end">0.5</text><line x1="54" y1="202.71428571428567" x2="59" y2="202.71428571428567" stroke="black" stroke-width="1" /><text x="51" y="206.21428571428567" font-size="10" text-anchor="end">1</text><line x1="54" y1="170.57142857142856" x2="59" y2="170.57142857142856" stroke="black" stroke-width="1" /><text x="51" y="174.07142857142856" font-size="10" text-anchor="end">1.5</text><line x1="54" y1="138.42857142857144" x2="59" y2="138.42857142857144" stroke="black" stroke-width="1" /><text x="51" y="141.92857142857144" font-size="10" text-anchor="end">2</text><line x1="54" y1="106.28571428571433" x2="59" y2="106.28571428571433" stroke="black" stroke-width="1" /><text x="51" y="109.78571428571433" font-size="10" text-anchor="end">2.5</text><line x1="54" y1="74.14285714285711" x2="59" y2="74.14285714285711" stroke="black" stroke-width="1" /><text x="51" y="77.64285714285711" font-size="10" text-anchor="end">3</text><line x1="54" y1="42" x2="59" y2="42" stroke="black" stroke-width="1" /><text x="51" y="45.5" font-size="10" text-anchor="end">3.5</text><text x="336.5" y="21" font-size="16" text-anchor="middle">Auto (Silverman)</text><path d="M 358.99577270797533 484.7466691506617 L 358.9938732489766 482.60036107543874 L 358.9912493404918 480.4540530002158 L 358.98768208939083 478.30774492499285 L 358.9829089919913 476.1614368497699 L 358.9766230663726 474.01512877454695 L 358.96847475331623 471.86882069932403 L 358.9580772078912 469.72251262410106 L 358.9450153974419 467.57620454887814 L 358.92885909801913 465.42989647365516 L 358.9091794551092 463.2835883984322 L 358.88556828250245 461.13728032320927 L 358.8576587727097 458.9909722479863 L 358.8251458563101 456.8446641727634 L 358.7878041544394 454.69835609754045 L 358.74550138932767 452.5520480223175 L 358.69820530173644 450.40573994709456 L 358.6459825865799 448.2594318718716 L 358.58898907222874 446.11312379664867 L 358.52745126543715 443.9668157214257 L 358.4616403571553 441.82050764620277 L 358.3918407076984 439.6741995709798 L 358.31831557310164 437.5278914957569 L 358.2412732853313 435.38158342053396 L 358.16083717876927 433.235275345311 L 358.0770222304631 431.088967270088 L 357.989720666891 428.9426591948651 L 357.8986977451388 426.79635111964217 L 357.80359763777886 424.6500430444192 L 357.70395796159414 422.5037349691962 L 357.5992301322025 420.3574268939733 L 357.48880155348417 418.2111188187504 L 357.372014823977 416.0648107435274 L 357.2481788246945 413.9185026683045 L 357.1165668957012 411.7721945930815 L 356.97639843141883 409.6258865178586 L 356.8268021830484 407.4795784426356 L 356.6667623066905 405.3332703674127 L 356.49505155907895 403.1869622921897 L 356.31015968459366 401.04065421696674 L 356.11022847044967 398.8943461417438 L 355.8930075707619 396.74803806652085 L 355.6558463752798 394.60172999129793 L 355.39573635454786 392.455421916075 L 355.1094150723112 390.30911384085204 L 354.79353735075915 388.1628057656291 L 354.4449112327083 386.01649769040614 L 354.06078715825714 383.8701896151832 L 353.63917928934455 381.72388153996025 L 353.1791895522231 379.57757346473727 L 352.6812991605222 377.43126538951435 L 352.1475903881883 375.28495731429143 L 351.58186402506055 373.13864923906846 L 350.98962549993246 370.99234116384554 L 350.3779246039535 368.84603308862256 L 349.7550488736984 366.69972501339964 L 349.13008718115964 364.55341693817667 L 348.51239575098134 362.4071088629537 L 347.9110114705745 360.2608007877308 L 347.33406508079787 358.11449271250785 L 346.7882483793415 355.96818463728493 L 346.2783845559073 353.82187656206196 L 345.80713979699925 351.675568486839 L 345.3748988386979 349.52926041161606 L 344.9798093727029 347.38295233639315 L 344.6179826146173 345.23664426117017 L 344.283822330796 343.0903361859472 L 343.97044411934485 340.9440281107243 L 343.67014189507057 338.79772003550136 L 343.37485953477346 336.6514119602784 L 343.07663176389934 334.5051038850554 L 342.7679681229622 332.3587958098325 L 342.44216531253016 330.21248773460957 L 342.09354437129264 328.0661796593866 L 341.7176182595886 325.9198715841637 L 341.311201313591 323.7735635089407 L 340.8724742085678 321.6272554337178 L 340.40101672908065 319.48094735849475 L 339.89781658081074 317.3346392832718 L 339.3652568705028 315.1883312080489 L 338.80707905734414 313.042023132826 L 338.2283134003355 310.895715057603 L 337.6351662013906 308.74940698238004 L 337.0348531127673 306.6030989071571 L 336.4353706496634 304.4567908319342 L 335.8452035943911 302.3104827567113 L 335.2729735584862 300.16417468148825 L 334.7270426008513 298.01786660626533 L 334.21509425733467 295.8715585310424 L 333.7437212870972 293.7252504558195 L 333.31805361666306 291.5789423805965 L 332.9414603587434 289.43263430537354 L 332.6153558510538 287.2863262301506 L 332.33913146275006 285.1400181549277 L 332.11022320039893 282.9937100797047 L 331.92431130505383 280.84740200448175 L 331.77563393967773 278.70109392925883 L 331.6573847942626 276.55478585403586 L 331.5621559077602 274.4084777788129 L 331.4823836420119 272.26216970358996 L 331.4107581765812 270.11586162836704 L 331.3405648180932 267.96955355314407 L 331.26593760459804 265.8232454779211 L 331.18202017466245 263.6769374026982 L 331.08504330123503 261.53062932747525 L 330.97234050468694 259.38432125225233 L 330.8423308065847 257.23801317702936 L 330.69449974374 255.0917051018064 L 330.52940592671854 252.94539702658346 L 330.34873133958394 250.79908895136052 L 330.1553806985511 248.65278087613754 L 329.95362054982013 246.5064728009146 L 329.74923468321924 244.3601647256917 L 329.549661091759 242.21385665046876 L 329.3640689790323 240.06754857524578 L 329.2033334784886 237.92124050002283 L 329.0798713377041 235.77493242479989 L 329.0073125758419 233.6286243495769 L 329 231.48231627435393 L 329.0723287263602 229.33600819913096 L 329.2379592120634 227.1897001239081 L 329.50895715412435 225.04339204868512 L 329.8949292913781 222.8970839734622 L 330.40223326041104 220.75077589823923 L 331.03334041446635 218.60446782301625 L 331.78642203290696 216.45815974779333 L 332.6552118827939 214.31185167257036 L 333.6291731289775 212.16554359734744 L 334.6939677583143 210.01923552212452 L 335.8321954947716 207.87292744690154 L 337.0243405713224 205.72661937167862 L 338.24984249666034 203.58031129645565 L 339.4881941980071 201.43400322123273 L 340.71996949788337 199.28769514600975 L 341.92769209399574 197.14138707078683 L 343.0964787071824 194.99507899556392 L 344.21441702155704 192.84877092034094 L 345.27267059886486 190.70246284511796 L 346.26533379884415 188.55615476989504 L 347.1890857998822 186.40984669467207 L 348.04271085665687 184.26353861944915 L 348.82656002817066 182.11723054422623 L 349.542027370417 179.97092246900326 L 350.191102125265 177.82461439378034 L 350.77604009328115 175.67830631855736 L 351.299175276286 173.53199824333444 L 351.76287038479853 171.38569016811147 L 352.169585019319 169.2393820928885 L 352.52202564555233 167.09307401766563 L 352.8233333178375 164.94676594244265 L 353.0772638344183 162.80045786721973 L 353.2883200347664 160.65414979199676 L 353.4618059184714 158.50784171677378 L 353.60378535517293 156.36153364155086 L 353.72094238209763 154.2152255663279 L 353.8203535789067 152.06891749110497 L 353.9091942188845 149.92260941588205 L 353.9944077216623 147.77630134065907 L 354.08237177944864 145.62999326543616 L 354.1785942928084 143.48368519021318 L 354.2874682686051 141.33737711499026 L 354.4121077942847 139.19106903976729 L 354.5542780631934 137.04476096454437 L 354.7144222967942 134.89845288932145 L 354.89177845188544 132.75214481409847 L 355.08456991118294 130.6058367388755 L 355.2902478565664 128.45952866365258 L 355.5057593640226 126.3132205884296 L 355.72781473449174 124.16691251320668 L 355.95313009152534 122.02060443798376 L 356.1786263606117 119.87429636276079 L 356.4015726057166 117.72798828753787 L 356.61966934226047 115.5816802123149 L 356.8310748216232 113.43537213709197 L 357.0343834385987 111.289064061869 L 357.2285696361073 109.14275598664602 L 357.4129125916638 106.99644791142316 L 357.5869165609552 104.85013983620019 L 357.75023936502487 102.70383176097727 L 357.9026377417307 100.55752368575429 L 358.0439338833661 98.41121561053131 L 358.1740032004198 96.2649075353084 L 358.29277981867426 94.11859946008542 L 358.4002739584261 91.9722913848625 L 358.4965943358697 89.82598330963958 L 358.5819689994322 87.6796752344166 L 358.65675930453773 85.53336715919369 L 358.72146365533047 83.38705908397071 L 358.7767097822041 81.2407510087478 L 358.8232363015967 79.09444293352482 L 358.86186583852924 76.9481348583019 L 358.8934729275261 74.80182678307898 L 358.9189502152771 72.655518707856 L 358.939176245442 70.50921063263297 L 358.95498745934805 68.36290255741 L 358.9671561735358 66.21659448218702 L 358.9763753684059 64.0702864069641 L 358.98325028200503 61.923978331741125 L 358.9882961431491 59.777670256518206 L 358.99194094291556 57.63136218129529 L 359.00805905708444 57.63136218129529 L 359.0117038568509 59.777670256518206 L 359.01674971799497 61.923978331741125 L 359.0236246315941 64.0702864069641 L 359.0328438264642 66.21659448218702 L 359.04501254065195 68.36290255741 L 359.060823754558 70.50921063263297 L 359.0810497847229 72.655518707856 L 359.1065270724739 74.80182678307898 L 359.13813416147076 76.9481348583019 L 359.1767636984033 79.09444293352482 L 359.2232902177959 81.2407510087478 L 359.27853634466953 83.38705908397071 L 359.34324069546227 85.53336715919369 L 359.4180310005678 87.6796752344166 L 359.5034056641303 89.82598330963958 L 359.5997260415739 91.9722913848625 L 359.70722018132574 94.11859946008542 L 359.8259967995802 96.2649075353084 L 359.9560661166339 98.41121561053131 L 360.0973622582693 100.55752368575429 L 360.24976063497513 102.70383176097727 L 360.4130834390448 104.85013983620019 L 360.5870874083362 106.99644791142316 L 360.7714303638927 109.14275598664602 L 360.9656165614013 111.289064061869 L 361.1689251783768 113.43537213709197 L 361.38033065773953 115.5816802123149 L 361.5984273942834 117.72798828753787 L 361.8213736393883 119.87429636276079 L 362.04686990847466 122.02060443798376 L 362.27218526550826 124.16691251320668 L 362.4942406359774 126.3132205884296 L 362.7097521434336 128.45952866365258 L 362.91543008881706 130.6058367388755 L 363.10822154811456 132.75214481409847 L 363.2855777032058 134.89845288932145 L 363.4457219368066 137.04476096454437 L 363.5878922057153 139.19106903976729 L 363.7125317313949 141.33737711499026 L 363.8214057071916 143.48368519021318 L 363.91762822055136 145.62999326543616 L 364.0055922783377 147.77630134065907 L 364.0908057811155 149.92260941588205 L 364.1796464210933 152.06891749110497 L 364.27905761790237 154.2152255663279 L 364.39621464482707 156.36153364155086 L 364.5381940815286 158.50784171677378 L 364.7116799652336 160.65414979199676 L 364.9227361655817 162.80045786721973 L 365.1766666821625 164.94676594244265 L 365.47797435444767 167.09307401766563 L 365.830414980681 169.2393820928885 L 366.23712961520147 171.38569016811147 L 366.700824723714 173.53199824333444 L 367.22395990671885 175.67830631855736 L 367.808897874735 177.82461439378034 L 368.457972629583 179.97092246900326 L 369.17343997182934 182.11723054422623 L 369.95728914334313 184.26353861944915 L 370.8109142001178 186.40984669467207 L 371.73466620115585 188.55615476989504 L 372.72732940113514 190.70246284511796 L 373.78558297844296 192.84877092034094 L 374.9035212928176 194.99507899556392 L 376.07230790600426 197.14138707078683 L 377.28003050211663 199.28769514600975 L 378.5118058019929 201.43400322123273 L 379.75015750333966 203.58031129645565 L 380.9756594286776 205.72661937167862 L 382.1678045052284 207.87292744690154 L 383.3060322416857 210.01923552212452 L 384.3708268710225 212.16554359734744 L 385.3447881172061 214.31185167257036 L 386.21357796709304 216.45815974779333 L 386.96665958553365 218.60446782301625 L 387.59776673958896 220.75077589823923 L 388.1050707086219 222.8970839734622 L 388.49104284587565 225.04339204868512 L 388.7620407879366 227.1897001239081 L 388.9276712736398 229.33600819913096 L 389 231.48231627435393 L 388.9926874241581 233.6286243495769 L 388.9201286622959 235.77493242479989 L 388.7966665215114 237.92124050002283 L 388.6359310209677 240.06754857524578 L 388.450338908241 242.21385665046876 L 388.25076531678076 244.3601647256917 L 388.04637945017987 246.5064728009146 L 387.8446193014489 248.65278087613754 L 387.65126866041606 250.79908895136052 L 387.47059407328146 252.94539702658346 L 387.30550025626 255.0917051018064 L 387.1576691934153 257.23801317702936 L 387.02765949531306 259.38432125225233 L 386.91495669876497 261.53062932747525 L 386.81797982533755 263.6769374026982 L 386.73406239540196 265.8232454779211 L 386.6594351819068 267.96955355314407 L 386.5892418234188 270.11586162836704 L 386.5176163579881 272.26216970358996 L 386.4378440922398 274.4084777788129 L 386.3426152057374 276.55478585403586 L 386.22436606032227 278.70109392925883 L 386.07568869494617 280.84740200448175 L 385.88977679960107 282.9937100797047 L 385.66086853724994 285.1400181549277 L 385.3846441489462 287.2863262301506 L 385.0585396412566 289.43263430537354 L 384.68194638333694 291.5789423805965 L 384.2562787129028 293.7252504558195 L 383.78490574266533 295.8715585310424 L 383.2729573991487 298.01786660626533 L 382.7270264415138 300.16417468148825 L 382.1547964056089 302.3104827567113 L 381.5646293503366 304.4567908319342 L 380.9651468872327 306.6030989071571 L 380.3648337986094 308.74940698238004 L 379.7716865996645 310.895715057603 L 379.19292094265586 313.042023132826 L 378.6347431294972 315.1883312080489 L 378.10218341918926 317.3346392832718 L 377.59898327091935 319.48094735849475 L 377.1275257914322 321.6272554337178 L 376.688798686409 323.7735635089407 L 376.2823817404114 325.9198715841637 L 375.90645562870736 328.0661796593866 L 375.55783468746984 330.21248773460957 L 375.2320318770378 332.3587958098325 L 374.92336823610066 334.5051038850554 L 374.62514046522654 336.6514119602784 L 374.32985810492943 338.79772003550136 L 374.02955588065515 340.9440281107243 L 373.716177669204 343.0903361859472 L 373.3820173853827 345.23664426117017 L 373.0201906272971 347.38295233639315 L 372.6251011613021 349.52926041161606 L 372.19286020300075 351.675568486839 L 371.7216154440927 353.82187656206196 L 371.2117516206585 355.96818463728493 L 370.66593491920213 358.11449271250785 L 370.0889885294255 360.2608007877308 L 369.48760424901866 362.4071088629537 L 368.86991281884036 364.55341693817667 L 368.2449511263016 366.69972501339964 L 367.6220753960465 368.84603308862256 L 367.01037450006754 370.99234116384554 L 366.41813597493945 373.13864923906846 L 365.8524096118117 375.28495731429143 L 365.3187008394778 377.43126538951435 L 364.8208104477769 379.57757346473727 L 364.36082071065545 381.72388153996025 L 363.93921284174286 383.8701896151832 L 363.5550887672917 386.01649769040614 L 363.20646264924085 388.1628057656291 L 362.8905849276888 390.30911384085204 L 362.60426364545214 392.455421916075 L 362.3441536247202 394.60172999129793 L 362.1069924292381 396.74803806652085 L 361.88977152955033 398.8943461417438 L 361.68984031540634 401.04065421696674 L 361.50494844092105 403.1869622921897 L 361.3332376933095 405.3332703674127 L 361.1731978169516 407.4795784426356 L 361.02360156858117 409.6258865178586 L 360.8834331042988 411.7721945930815 L 360.7518211753055 413.9185026683045 L 360.627985176023 416.0648107435274 L 360.51119844651583 418.2111188187504 L 360.4007698677975 420.3574268939733 L 360.29604203840586 422.5037349691962 L 360.19640236222114 424.6500430444192 L 360.1013022548612 426.79635111964217 L 360.010279333109 428.9426591948651 L 359.9229777695369 431.088967270088 L 359.83916282123073 433.235275345311 L 359.7587267146687 435.38158342053396 L 359.68168442689836 437.5278914957569 L 359.6081592923016 439.6741995709798 L 359.5383596428447 441.82050764620277 L 359.47254873456285 443.9668157214257 L 359.41101092777126 446.11312379664867 L 359.3540174134201 448.2594318718716 L 359.30179469826356 450.40573994709456 L 359.25449861067233 452.5520480223175 L 359.2121958455606 454.69835609754045 L 359.1748541436899 456.8446641727634 L 359.1423412272903 458.9909722479863 L 359.11443171749755 461.13728032320927 L 359.0908205448908 463.2835883984322 L 359.07114090198087 465.42989647365516 L 359.0549846025581 467.57620454887814 L 359.0419227921088 469.72251262410106 L 359.03152524668377 471.86882069932403 L 359.0233769336274 474.01512877454695 L 359.0170910080087 476.1614368497699 L 359.01231791060917 478.30774492499285 L 359.0087506595082 480.4540530002158 L 359.0061267510234 482.60036107543874 L 359.00422729202467 484.7466691506617 Z" stroke="black" stroke-width="0.5" fill="steelblue" /></svg>