<svg xmlns="http://www.w3.org/2000/svg" width="673" height="545" font-family="DejaVu Sans, Liberation Sans, Arial, sans-serif" fill="black"><rect width="100%" height="100%" fill="white" /><defs><clipPath id="kuva-clip-2"><rect x="59" y="44" width="600" height="450"/></clipPath></defs><line x1="59" y1="381.5" x2="659" y2="381.5" stroke="#cccccc" stroke-width="1" /><line x1="59" y1="269" x2="659" y2="269" stroke="#cccccc" stroke-width="1" /><line x1="59" y1="156.5" x2="659" y2="156.5" stroke="#cccccc" stroke-width="1" /><line x1="59" y1="44" x2="659" y2="44" stroke="#cccccc" stroke-width="1" /><line x1="59" y1="494" x2="659" y2="494" stroke="#000000" stroke-width="1" /><line x1="59" y1="44" x2="59" y2="494" stroke="#000000" stroke-width="1" /><text x="359" y="511" font-size="12" text-anchor="middle"></text><line x1="359" y1="494" x2="359" y2="499" stroke="#000000" stroke-width="1" /><line x1="54" y1="494" x2="59" y2="494" stroke="#000000" stroke-width="1" /><text x="51" y="498.2" font-size="12" text-anchor="end">-4</text><line x1="54" y1="381.5" x2="59" y2="381.5" stroke="#000000" stroke-width="1" /><text x="51" y="385.7" font-size="12" text-anchor="end">-2</text><line x1="54" y1="269" x2="59" y2="269" stroke="#000000" stroke-width="1" /><text x="51" y="273.2" font-size="12" text-anchor="end">0</text><line x1="54" y1="156.5" x2="59" y2="156.5" stroke="#000000" stroke-width="1" /><text x="51" y="160.70000000000002" font-size="12" text-anchor="end">2</text><line x1="54" y1="44" x2="59" y2="44" stroke="#000000" stroke-width="1" /><text x="51" y="48.2" font-size="12" text-anchor="end">4</text><text x="359" y="27.400000000000002" font-size="18" text-anchor="middle">Auto (Silverman)</text><g clip-path="url(#kuva-clip-2)"><path d="M 358.97 459.53000000000003 L 358.96 457.65000000000003 L 358.94 455.77 L 358.92 453.89 L 358.89 452.02 L 358.84000000000003 450.14 L 358.79 448.26 L 358.72 446.38 L 358.63 444.5 L 358.53000000000003 442.63 L 358.39 440.75 L 358.24 438.87 L 358.05 436.99 L 357.84000000000003 435.11 L 357.59000000000003 433.24 L 357.3 431.36 L 356.99 429.48 L 356.64 427.6 L 356.26 425.72 L 355.85 423.85 L 355.41 421.97 L 354.95 420.09000000000003 L 354.46 418.21000000000004 L 353.94 416.33 L 353.41 414.46000000000004 L 352.85 412.58 L 352.27 410.7 L 351.66 408.82 L 351.03000000000003 406.94 L 350.36 405.07 L 349.66 403.19 L 348.93 401.31 L 348.15000000000003 399.43 L 347.32 397.55 L 346.45 395.68 L 345.51 393.8 L 344.51 391.92 L 343.45 390.04 L 342.3 388.16 L 341.07 386.29 L 339.74 384.41 L 338.29 382.53000000000003 L 336.71 380.65000000000003 L 334.97 378.77 L 333.06 376.90000000000003 L 330.96 375.02 L 328.64 373.14 L 326.07 371.26 L 323.27 369.38 L 320.2 367.51 L 316.88 365.63 L 313.32 363.75 L 309.55 361.87 L 305.6 359.99 L 301.52 358.12 L 297.37 356.24 L 293.2 354.36 L 289.09000000000003 352.48 L 285.08 350.6 L 281.23 348.73 L 277.59000000000003 346.85 L 274.19 344.97 L 271.05 343.09000000000003 L 268.17 341.21 L 265.53000000000003 339.34000000000003 L 263.12 337.46 L 260.9 335.58 L 258.8 333.7 L 256.8 331.82 L 254.83 329.94 L 252.85 328.07 L 250.79 326.19 L 248.62 324.31 L 246.29 322.43 L 243.79 320.55 L 241.08 318.68 L 238.15 316.8 L 235.01 314.92 L 231.65 313.04 L 228.1 311.16 L 224.38 309.29 L 220.52 307.41 L 216.57 305.53000000000003 L 212.57 303.65000000000003 L 208.57 301.77 L 204.64000000000001 299.90000000000003 L 200.82 298.02 L 197.18 296.14 L 193.77 294.26 L 190.63 292.38 L 187.79 290.51 L 185.28 288.63 L 183.11 286.75 L 181.27 284.87 L 179.74 282.99 L 178.5 281.12 L 177.5 279.24 L 176.72 277.36 L 176.08 275.48 L 175.55 273.6 L 175.07 271.73 L 174.6 269.85 L 174.1 267.97 L 173.54 266.09000000000003 L 172.9 264.21 L 172.15 262.34000000000003 L 171.28 260.46 L 170.3 258.58 L 169.20000000000002 256.7 L 167.99 254.82 L 166.70000000000002 252.95000000000002 L 165.36 251.07 L 163.99 249.19 L 162.66 247.31 L 161.43 245.43 L 160.35 243.56 L 159.53 241.68 L 159.05 239.8 L 159.0 237.92000000000002 L 159.48 236.04 L 160.59 234.17000000000002 L 162.39000000000001 232.29 L 164.96 230.41 L 168.35 228.53 L 172.56 226.65 L 177.58 224.78 L 183.37 222.9 L 189.86 221.02 L 196.96 219.14000000000001 L 204.55 217.26 L 212.5 215.39000000000001 L 220.67000000000002 213.51 L 228.92000000000002 211.63 L 237.13 209.75 L 245.18 207.87 L 252.98000000000002 206.0 L 260.43 204.12 L 267.49 202.24 L 274.11 200.36 L 280.26 198.48000000000002 L 285.96 196.61 L 291.18 194.73000000000002 L 295.95 192.85 L 300.28000000000003 190.97 L 304.18 189.09 L 307.67 187.22 L 310.76 185.34 L 313.47 183.46 L 315.82 181.58 L 317.83 179.70000000000002 L 319.52 177.83 L 320.93 175.95000000000002 L 322.08 174.07 L 323.03000000000003 172.19 L 323.81 170.31 L 324.47 168.44 L 325.07 166.56 L 325.64 164.68 L 326.22 162.8 L 326.86 160.92000000000002 L 327.59000000000003 159.05 L 328.42 157.17000000000002 L 329.37 155.29 L 330.43 153.41 L 331.61 151.53 L 332.90000000000003 149.66 L 334.27 147.78 L 335.71 145.9 L 337.19 144.02 L 338.69 142.14000000000001 L 340.19 140.27 L 341.68 138.39000000000001 L 343.13 136.51 L 344.54 134.63 L 345.90000000000003 132.75 L 347.19 130.87 L 348.42 129.0 L 349.58 127.12 L 350.67 125.24000000000001 L 351.69 123.36 L 352.63 121.48 L 353.49 119.61 L 354.29 117.73 L 355.0 115.85000000000001 L 355.64 113.97 L 356.21 112.09 L 356.71 110.22 L 357.14 108.34 L 357.51 106.46000000000001 L 357.82 104.58 L 358.08 102.7 L 358.29 100.83 L 358.46 98.95 L 358.6 97.07000000000001 L 358.7 95.19 L 358.78000000000003 93.31 L 358.84000000000003 91.44 L 358.89 89.56 L 358.92 87.68 L 358.95 85.8 L 359.05 85.8 L 359.08 87.68 L 359.11 89.56 L 359.16 91.44 L 359.22 93.31 L 359.3 95.19 L 359.40000000000003 97.07000000000001 L 359.54 98.95 L 359.71 100.83 L 359.92 102.7 L 360.18 104.58 L 360.49 106.46000000000001 L 360.86 108.34 L 361.29 110.22 L 361.79 112.09 L 362.36 113.97 L 363.0 115.85000000000001 L 363.71 117.73 L 364.51 119.61 L 365.37 121.48 L 366.31 123.36 L 367.33 125.24000000000001 L 368.42 127.12 L 369.58 129.0 L 370.81 130.87 L 372.1 132.75 L 373.46 134.63 L 374.87 136.51 L 376.32 138.39000000000001 L 377.81 140.27 L 379.31 142.14000000000001 L 380.81 144.02 L 382.29 145.9 L 383.73 147.78 L 385.1 149.66 L 386.39 151.53 L 387.57 153.41 L 388.63 155.29 L 389.58 157.17000000000002 L 390.41 159.05 L 391.14 160.92000000000002 L 391.78000000000003 162.8 L 392.36 164.68 L 392.93 166.56 L 393.53000000000003 168.44 L 394.19 170.31 L 394.97 172.19 L 395.92 174.07 L 397.07 175.95000000000002 L 398.48 177.83 L 400.17 179.70000000000002 L 402.18 181.58 L 404.53000000000003 183.46 L 407.24 185.34 L 410.33 187.22 L 413.82 189.09 L 417.72 190.97 L 422.05 192.85 L 426.82 194.73000000000002 L 432.04 196.61 L 437.74 198.48000000000002 L 443.89 200.36 L 450.51 202.24 L 457.57 204.12 L 465.02 206.0 L 472.82 207.87 L 480.87 209.75 L 489.08 211.63 L 497.33 213.51 L 505.5 215.39000000000001 L 513.45 217.26 L 521.04 219.14000000000001 L 528.14 221.02 L 534.63 222.9 L 540.42 224.78 L 545.44 226.65 L 549.65 228.53 L 553.04 230.41 L 555.61 232.29 L 557.41 234.17000000000002 L 558.52 236.04 L 559.0 237.92000000000002 L 558.95 239.8 L 558.47 241.68 L 557.65 243.56 L 556.57 245.43 L 555.34 247.31 L 554.01 249.19 L 552.64 251.07 L 551.3000000000001 252.95000000000002 L 550.01 254.82 L 548.8000000000001 256.7 L 547.7 258.58 L 546.72 260.46 L 545.85 262.34000000000003 L 545.1 264.21 L 544.46 266.09000000000003 L 543.9 267.97 L 543.4 269.85 L 542.9300000000001 271.73 L 542.45 273.6 L 541.92 275.48 L 541.28 277.36 L 540.5 279.24 L 539.5 281.12 L 538.26 282.99 L 536.73 284.87 L 534.89 286.75 L 532.72 288.63 L 530.21 290.51 L 527.37 292.38 L 524.23 294.26 L 520.82 296.14 L 517.1800000000001 298.02 L 513.36 299.90000000000003 L 509.43 301.77 L 505.43 303.65000000000003 L 501.43 305.53000000000003 L 497.48 307.41 L 493.62 309.29 L 489.90000000000003 311.16 L 486.35 313.04 L 482.99 314.92 L 479.85 316.8 L 476.92 318.68 L 474.21000000000004 320.55 L 471.71000000000004 322.43 L 469.38 324.31 L 467.21000000000004 326.19 L 465.15000000000003 328.07 L 463.17 329.94 L 461.2 331.82 L 459.2 333.7 L 457.1 335.58 L 454.88 337.46 L 452.47 339.34000000000003 L 449.83 341.21 L 446.95 343.09000000000003 L 443.81 344.97 L 440.41 346.85 L 436.77 348.73 L 432.92 350.6 L 428.91 352.48 L 424.8 354.36 L 420.63 356.24 L 416.48 358.12 L 412.40000000000003 359.99 L 408.45 361.87 L 404.68 363.75 L 401.12 365.63 L 397.8 367.51 L 394.73 369.38 L 391.93 371.26 L 389.36 373.14 L 387.04 375.02 L 384.94 376.90000000000003 L 383.03000000000003 378.77 L 381.29 380.65000000000003 L 379.71 382.53000000000003 L 378.26 384.41 L 376.93 386.29 L 375.7 388.16 L 374.55 390.04 L 373.49 391.92 L 372.49 393.8 L 371.55 395.68 L 370.68 397.55 L 369.85 399.43 L 369.07 401.31 L 368.34000000000003 403.19 L 367.64 405.07 L 366.97 406.94 L 366.34000000000003 408.82 L 365.73 410.7 L 365.15000000000003 412.58 L 364.59000000000003 414.46000000000004 L 364.06 416.33 L 363.54 418.21000000000004 L 363.05 420.09000000000003 L 362.59000000000003 421.97 L 362.15000000000003 423.85 L 361.74 425.72 L 361.36 427.6 L 361.01 429.48 L 360.7 431.36 L 360.41 433.24 L 360.16 435.11 L 359.95 436.99 L 359.76 438.87 L 359.61 440.75 L 359.47 442.63 L 359.37 444.5 L 359.28000000000003 446.38 L 359.21 448.26 L 359.16 450.14 L 359.11 452.02 L 359.08 453.89 L 359.06 455.77 L 359.04 457.65000000000003 L 359.03000000000003 459.53000000000003 Z" stroke="#000000" stroke-width="0.5" fill="#4682b4" /></g></svg>