<svg xmlns="http://www.w3.org/2000/svg" width="673" height="541" fill="black"><rect width="100%" height="100%" fill="white" /><line x1="59" y1="492" x2="659" y2="492" stroke="black" stroke-width="1" /><line x1="59" y1="42" x2="59" y2="492" stroke="black" stroke-width="1" /><line x1="59" y1="447" x2="659" y2="447" stroke="#ccc" stroke-width="1" /><line x1="59" y1="402" x2="659" y2="402" stroke="#ccc" stroke-width="1" /><line x1="59" y1="357" x2="659" y2="357" stroke="#ccc" stroke-width="1" /><line x1="59" y1="312" x2="659" y2="312" stroke="#ccc" stroke-width="1" /><line x1="59" y1="267" x2="659" y2="267" stroke="#ccc" stroke-width="1" /><line x1="59" y1="222" x2="659" y2="222" stroke="#ccc" stroke-width="1" /><line x1="59" y1="177" x2="659" y2="177" stroke="#ccc" stroke-width="1" /><line x1="59" y1="132" x2="659" y2="132" stroke="#ccc" stroke-width="1" /><line x1="59" y1="87" x2="659" y2="87" stroke="#ccc" stroke-width="1" /><line x1="59" y1="42" x2="659" y2="42" stroke="#ccc" stroke-width="1" /><text x="359" y="507" font-size="10" text-anchor="middle"></text><line x1="359" y1="492" x2="359" y2="497" stroke="black" stroke-width="1" /><line x1="54" y1="492" x2="59" y2="492" stroke="black" stroke-width="1" /><text x="51" y="495.5" font-size="10" text-anchor="end">-10</text><line x1="54" y1="447" x2="59" y2="447" stroke="black" stroke-width="1" /><text x="51" y="450.5" font-size="10" text-anchor="end">-8</text><line x1="54" y1="402" x2="59" y2="402" stroke="black" stroke-width="1" /><text x="51" y="405.5" font-size="10" text-anchor="end">-6</text><line x1="54" y1="357" x2="59" y2="357" stroke="black" stroke-width="1" /><text x="51" y="360.5" font-size="10" text-anchor="end">-4</text><line x1="54" y1="312" x2="59" y2="312" stroke="black" stroke-width="1" /><text x="51" y="315.5" font-size="10" text-anchor="end">-2</text><line x1="54" y1="267" x2="59" y2="267" stroke="black" stroke-width="1" /><text x="51" y="270.5" font-size="10" text-anchor="end">0</text><line x1="54" y1="222" x2="59" y2="222" stroke="black" stroke-width="1" /><text x="51" y="225.5" font-size="10" text-anchor="end">2</text><line x1="54" y1="177" x2="59" y2="177" stroke="black" stroke-width="1" /><text x="51" y="180.5" font-size="10" text-anchor="end">4</text><line x1="54" y1="132" x2="59" y2="132" stroke="black" stroke-width="1" /><text x="51" y="135.5" font-size="10" text-anchor="end">6</text><line x1="54" y1="87" x2="59" y2="87" stroke="black" stroke-width="1" /><text x="51" y="90.5" font-size="10" text-anchor="end">8</text><line x1="54" y1="42" x2="59" y2="42" stroke="black" stroke-width="1" /><text x="51" y="45.5" font-size="10" text-anchor="end">10</text><text x="336.5" y="21" font-size="16" text-anchor="middle">Wide (h = 2.0)</text><path d="M 358.9857029602191 460.06340934495415 L 358.98334816755073 458.1378088036289 L 358.98063618379814 456.21220826230365 L 358.97751806818496 454.28660772097845 L 358.973939016706 452.3610071796532 L 358.96983778668874 450.435406638328 L 358.96514608293546 448.50980609700275 L 358.95978790540636 446.5842055556775 L 358.9536788588301 444.65860501435225 L 358.9467254251159 442.733004473027 L 358.93882419999244 440.80740393170174 L 358.9298610959095 438.8818033903765 L 358.9197105139202 436.95620284905124 L 358.9082344880013 435.030602307726 L 358.8952818060738 433.10500176640073 L 358.8806871128541 431.17940122507554 L 358.8642700005837 429.2538006837503 L 358.84583409466086 427.32820014242503 L 358.8251661422124 425.4025996010998 L 358.80203511269787 423.4769990597746 L 358.776191320714 421.55139851844933 L 358.7473655822623 419.6257979771241 L 358.7152684168303 417.7001974357988 L 358.67958930871845 415.7745968944736 L 358.6399960420831 413.8489963531483 L 358.5961341251645 411.92339581182307 L 358.5476263200849 409.9977952704978 L 358.4940722954355 408.0721947291726 L 358.43504841957855 406.14659418784737 L 358.37010771316784 404.2209936465221 L 358.29877997979804 402.29539310519687 L 358.2205721339144 400.3697925638716 L 358.13496874512384 398.4441920225464 L 358.0414328178162 396.51859148122116 L 357.939406824521 394.5929909398959 L 357.8283140106496 392.66739039857066 L 357.707559987208 390.7417898572454 L 357.57653462667326 388.81618931592016 L 357.4346142755106 386.8905887745949 L 357.28116429474676 384.9649882332697 L 357.1155419376075 383.03938769194446 L 356.9370995704721 381.1137871506192 L 356.74518824029565 379.188186609294 L 356.5391615882149 377.26258606796875 L 356.31838010529844 375.3369855266435 L 356.0822157223483 373.41138498531825 L 355.8300567213384 371.485784443993 L 355.56131295151766 369.56018390266775 L 355.2754213284581 367.6345833613425 L 354.97185158943114 365.70898282001724 L 354.6501122735151 363.783382278692 L 354.3097568898194 361.8577817373668 L 353.95039023223586 359.9321811960415 L 353.57167479425516 358.0065806547163 L 353.1733372326982 356.08098011339104 L 352.7551748247812 354.15537957206584 L 352.31706185884264 352.2297790307406 L 351.8589558953905 350.30417848941534 L 351.38090383195646 348.3785779480901 L 350.88304770265387 346.45297740676483 L 350.3656301414016 344.5273768654396 L 349.82899943656514 342.6017763241143 L 349.27361410435145 340.6761757827891 L 348.70004690872497 338.7505752414638 L 348.108988256945 336.8249747001386 L 347.5012489020912 334.8993741588133 L 346.8777618871789 332.9737736174882 L 346.2395836696751 331.04817307616287 L 345.5878943704177 329.1225725348377 L 344.92399709709633 327.1969719935124 L 344.24931629954295 325.27137145218717 L 343.5653951220666 323.3457709108619 L 342.87389172687756 321.42017036953666 L 342.17657457221793 319.4945698282114 L 341.4753166390466 317.56896928688616 L 340.7720886109208 315.64336874556096 L 340.0689510229454 313.71776820423565 L 339.3680454072028 311.7921676629104 L 338.67158447378415 309.8665671215852 L 337.98184137826445 307.94096658026 L 337.3011381380519 306.0153660389347 L 336.6318332713226 304.0897654976095 L 335.97630874307015 302.16416495628425 L 335.33695631299474 300.238564414959 L 334.7161633893564 298.31296387363375 L 334.1162985013883 296.3873633323085 L 333.5396965102463 294.46176279098324 L 332.9886436846349 292.536162249658 L 332.4653627720837 290.6105617083328 L 331.9719982002374 288.6849611670075 L 331.51060154439296 286.75936062568235 L 331.08311739780237 284.83376008435704 L 330.691369779915 282.90815954303184 L 330.33704921474526 280.9825590017066 L 330.02170060692185 279.05695846038134 L 329.7467120367385 277.1313579190561 L 329.51330458773174 275.20575737773083 L 329.3225233110466 273.2801568364056 L 329.1752294202097 271.35455629508033 L 329.07209379804397 269.4289557537551 L 329.0135918844687 267.5033552124298 L 329 265.5777546711046 L 329.0313931450768 263.6521541297794 L 329.1076443000803 261.7265535884542 L 329.22842523529005 259.8009530471289 L 329.39320882423567 257.8753525058036 L 329.60127283817815 255.94975196447837 L 329.85170518398854 254.0241514231532 L 330.1434105327038 252.09855088182795 L 330.4751182717269 250.17295034050267 L 330.845391700188 248.2473497991774 L 331.2526383745778 246.3217492578522 L 331.69512150056136 244.39614871652694 L 332.1709722570229 242.4705481752017 L 332.67820292999846 240.54494763387646 L 333.21472072732246 238.6193470925512 L 333.77834213962143 236.69374655122598 L 334.3668077097727 234.76814600990076 L 334.97779707114165 232.84254546857545 L 335.6089441148023 230.91694492725026 L 336.25785214750937 228.991344385925 L 336.9221089053714 227.0657438445998 L 337.5993012928933 225.1401433032745 L 338.28702972321673 223.21454276194925 L 338.9829219428694 221.288942220624 L 339.6846462330063 219.3633416792988 L 340.3899238888339 217.43774113797355 L 341.09654088949605 215.5121405966483 L 341.8023586819977 213.58654005532304 L 342.5053240145737 211.6609395139978 L 343.20347776709866 209.7353389726726 L 343.89496273850597 207.80973843134728 L 344.57803036356347 205.8841378900221 L 345.25104634357797 203.95853734869684 L 345.9124951875079 202.03293680737164 L 346.5609836714108 200.10733626604633 L 347.19524323500633 198.18173572472108 L 347.81413134427027 196.25613518339583 L 348.41663185830083 194.33053464207063 L 349.00185444711286 192.40493410074538 L 349.56903311446575 190.47933355942013 L 350.11752388625365 188.55373301809487 L 350.64680173035856 186.62813247676962 L 351.15645677816474 184.70253193544443 L 351.6461899211646 182.77693139411917 L 352.1158078582657 180.85133085279392 L 352.5652176705653 178.92573031146867 L 352.994421000544 177.00012977014347 L 353.4035079118959 175.07452922881816 L 353.7926505046251 173.1489286874929 L 354.16209635767814 171.22332814616772 L 354.51216186832573 169.29772760484246 L 354.84322555384415 167.3721270635172 L 355.15572137686706 165.44652652219196 L 355.4501321511717 163.5209259808667 L 355.7269830797242 161.5953254395415 L 355.9868354716211 159.66972489821626 L 356.2302806792227 157.744124356891 L 356.4579342913523 155.81852381556575 L 356.67043061301564 153.8929232742405 L 356.8684174567531 151.9673227329153 L 357.052551265522 150.04172219159 L 357.2234925819991 148.1161216502648 L 357.3819018744164 146.19052110893955 L 357.52843572456544 144.26492056761435 L 357.6637433794373 142.33932002628904 L 357.78846366415326 140.4137194849638 L 357.9032222503887 138.48811894363854 L 358.0086292714233 136.56251840231334 L 358.10527727226406 134.6369178609881 L 358.1937394809837 132.71131731966284 L 358.27456838549233 130.7857167783376 L 358.3482945984012 128.8601162370124 L 358.4154259914309 126.93451569568714 L 358.4764470799403 125.00891515436189 L 358.53181863759113 123.08331461303658 L 358.58197752088427 121.15771407171138 L 358.62733668328923 119.23211353038619 L 358.66828535890846 117.30651298906088 L 358.7051893960401 115.38091244773557 L 358.7383917216128 113.45531190641037 L 358.76821291821864 111.52971136508518 L 358.79495189635844 109.60411082375998 L 358.81888664549314 107.67851028243467 L 358.8402750485605 105.75290974110936 L 358.8593557457281 103.82730919978417 L 358.8763490343056 101.90170865845897 L 358.89145779290294 99.97610811713378 L 358.9048684190861 98.05050757580835 L 358.9167517709273 96.12490703448316 L 358.927264103968 94.19930649315802 L 358.9365479961904 92.27370595183277 L 358.944733254625 90.34810541050757 L 358.95193779819607 88.42250486918215 L 358.95826851232175 86.49690432785701 L 358.9638220716341 84.57130378653176 L 358.96868572796643 82.64570324520656 L 358.9729380614668 80.72010270388137 L 358.9766496933434 78.794502162556 L 358.97988395932026 76.8689016212308 L 359.02011604067974 76.8689016212308 L 359.0233503066566 78.794502162556 L 359.0270619385332 80.72010270388137 L 359.03131427203357 82.64570324520656 L 359.0361779283659 84.57130378653176 L 359.04173148767825 86.49690432785701 L 359.04806220180393 88.42250486918215 L 359.055266745375 90.34810541050757 L 359.0634520038096 92.27370595183277 L 359.072735896032 94.19930649315802 L 359.0832482290727 96.12490703448316 L 359.0951315809139 98.05050757580835 L 359.10854220709706 99.97610811713378 L 359.1236509656944 101.90170865845897 L 359.1406442542719 103.82730919978417 L 359.1597249514395 105.75290974110936 L 359.18111335450686 107.67851028243467 L 359.20504810364156 109.60411082375998 L 359.23178708178136 111.52971136508518 L 359.2616082783872 113.45531190641037 L 359.2948106039599 115.38091244773557 L 359.33171464109154 117.30651298906088 L 359.37266331671077 119.23211353038619 L 359.41802247911573 121.15771407171138 L 359.46818136240887 123.08331461303658 L 359.5235529200597 125.00891515436189 L 359.5845740085691 126.93451569568714 L 359.6517054015988 128.8601162370124 L 359.72543161450767 130.7857167783376 L 359.8062605190163 132.71131731966284 L 359.89472272773594 134.6369178609881 L 359.9913707285767 136.56251840231334 L 360.0967777496113 138.48811894363854 L 360.21153633584674 140.4137194849638 L 360.3362566205627 142.33932002628904 L 360.47156427543456 144.26492056761435 L 360.6180981255836 146.19052110893955 L 360.7765074180009 148.1161216502648 L 360.947448734478 150.04172219159 L 361.1315825432469 151.9673227329153 L 361.32956938698436 153.8929232742405 L 361.5420657086477 155.81852381556575 L 361.7697193207773 157.744124356891 L 362.0131645283789 159.66972489821626 L 362.2730169202758 161.5953254395415 L 362.5498678488283 163.5209259808667 L 362.84427862313294 165.44652652219196 L 363.15677444615585 167.3721270635172 L 363.48783813167427 169.29772760484246 L 363.83790364232186 171.22332814616772 L 364.2073494953749 173.1489286874929 L 364.5964920881041 175.07452922881816 L 365.005578999456 177.00012977014347 L 365.4347823294347 178.92573031146867 L 365.8841921417343 180.85133085279392 L 366.3538100788354 182.77693139411917 L 366.84354322183526 184.70253193544443 L 367.35319826964144 186.62813247676962 L 367.88247611374635 188.55373301809487 L 368.43096688553425 190.47933355942013 L 368.99814555288714 192.40493410074538 L 369.58336814169917 194.33053464207063 L 370.18586865572973 196.25613518339583 L 370.80475676499367 198.18173572472108 L 371.4390163285892 200.10733626604633 L 372.0875048124921 202.03293680737164 L 372.74895365642203 203.95853734869684 L 373.42196963643653 205.8841378900221 L 374.10503726149403 207.80973843134728 L 374.79652223290134 209.7353389726726 L 375.4946759854263 211.6609395139978 L 376.1976413180023 213.58654005532304 L 376.90345911050395 215.5121405966483 L 377.6100761111661 217.43774113797355 L 378.3153537669937 219.3633416792988 L 379.0170780571306 221.288942220624 L 379.71297027678327 223.21454276194925 L 380.4006987071067 225.1401433032745 L 381.0778910946286 227.0657438445998 L 381.74214785249063 228.991344385925 L 382.3910558851977 230.91694492725026 L 383.02220292885835 232.84254546857545 L 383.6331922902273 234.76814600990076 L 384.22165786037857 236.69374655122598 L 384.78527927267754 238.6193470925512 L 385.32179707000154 240.54494763387646 L 385.8290277429771 242.4705481752017 L 386.30487849943864 244.39614871652694 L 386.7473616254222 246.3217492578522 L 387.154608299812 248.2473497991774 L 387.5248817282731 250.17295034050267 L 387.8565894672962 252.09855088182795 L 388.14829481601146 254.0241514231532 L 388.39872716182185 255.94975196447837 L 388.60679117576433 257.8753525058036 L 388.77157476470995 259.8009530471289 L 388.8923556999197 261.7265535884542 L 388.9686068549232 263.6521541297794 L 389 265.5777546711046 L 388.9864081155313 267.5033552124298 L 388.92790620195603 269.4289557537551 L 388.8247705797903 271.35455629508033 L 388.6774766889534 273.2801568364056 L 388.48669541226826 275.20575737773083 L 388.2532879632615 277.1313579190561 L 387.97829939307815 279.05695846038134 L 387.66295078525474 280.9825590017066 L 387.308630220085 282.90815954303184 L 386.91688260219763 284.83376008435704 L 386.48939845560704 286.75936062568235 L 386.0280017997626 288.6849611670075 L 385.5346372279163 290.6105617083328 L 385.0113563153651 292.536162249658 L 384.4603034897537 294.46176279098324 L 383.8837014986117 296.3873633323085 L 383.2838366106436 298.31296387363375 L 382.66304368700526 300.238564414959 L 382.02369125692985 302.16416495628425 L 381.3681667286774 304.0897654976095 L 380.6988618619481 306.0153660389347 L 380.01815862173555 307.94096658026 L 379.32841552621585 309.8665671215852 L 378.6319545927972 311.7921676629104 L 377.9310489770546 313.71776820423565 L 377.2279113890792 315.64336874556096 L 376.5246833609534 317.56896928688616 L 375.82342542778207 319.4945698282114 L 375.12610827312244 321.42017036953666 L 374.4346048779334 323.3457709108619 L 373.75068370045705 325.27137145218717 L 373.07600290290367 327.1969719935124 L 372.4121056295823 329.1225725348377 L 371.7604163303249 331.04817307616287 L 371.1222381128211 332.9737736174882 L 370.4987510979088 334.8993741588133 L 369.891011743055 336.8249747001386 L 369.29995309127503 338.7505752414638 L 368.72638589564855 340.6761757827891 L 368.17100056343486 342.6017763241143 L 367.6343698585984 344.5273768654396 L 367.11695229734613 346.45297740676483 L 366.61909616804354 348.3785779480901 L 366.1410441046095 350.30417848941534 L 365.68293814115736 352.2297790307406 L 365.2448251752188 354.15537957206584 L 364.8266627673018 356.08098011339104 L 364.42832520574484 358.0065806547163 L 364.04960976776414 359.9321811960415 L 363.6902431101806 361.8577817373668 L 363.3498877264849 363.783382278692 L 363.02814841056886 365.70898282001724 L 362.7245786715419 367.6345833613425 L 362.43868704848234 369.56018390266775 L 362.1699432786616 371.485784443993 L 361.9177842776517 373.41138498531825 L 361.68161989470156 375.3369855266435 L 361.4608384117851 377.26258606796875 L 361.25481175970435 379.188186609294 L 361.0629004295279 381.1137871506192 L 360.8844580623925 383.03938769194446 L 360.71883570525324 384.9649882332697 L 360.5653857244894 386.8905887745949 L 360.42346537332674 388.81618931592016 L 360.292440012792 390.7417898572454 L 360.1716859893504 392.66739039857066 L 360.060593175479 394.5929909398959 L 359.9585671821838 396.51859148122116 L 359.86503125487616 398.4441920225464 L 359.7794278660856 400.3697925638716 L 359.70122002020196 402.29539310519687 L 359.62989228683216 404.2209936465221 L 359.56495158042145 406.14659418784737 L 359.5059277045645 408.0721947291726 L 359.4523736799151 409.9977952704978 L 359.4038658748355 411.92339581182307 L 359.3600039579169 413.8489963531483 L 359.32041069128155 415.7745968944736 L 359.2847315831697 417.7001974357988 L 359.2526344177377 419.6257979771241 L 359.223808679286 421.55139851844933 L 359.19796488730213 423.4769990597746 L 359.1748338577876 425.4025996010998 L 359.15416590533914 427.32820014242503 L 359.1357299994163 429.2538006837503 L 359.1193128871459 431.17940122507554 L 359.1047181939262 433.10500176640073 L 359.0917655119987 435.030602307726 L 359.0802894860798 436.95620284905124 L 359.0701389040905 438.8818033903765 L 359.06117580000756 440.80740393170174 L 359.0532745748841 442.733004473027 L 359.0463211411699 444.65860501435225 L 359.04021209459364 446.5842055556775 L 359.03485391706454 448.50980609700275 L 359.03016221331126 450.435406638328 L 359.026060983294 452.3610071796532 L 359.02248193181504 454.28660772097845 L 359.01936381620186 456.21220826230365 L 359.01665183244927 458.1378088036289 L 359.0142970397809 460.06340934495415 Z" stroke="black" stroke-width="0.5" fill="steelblue" /></svg>