<svg xmlns="http://www.w3.org/2000/svg" width="673" height="541" fill="black"><rect width="100%" height="100%" fill="white" /><line x1="59" y1="492" x2="659" y2="492" stroke="black" stroke-width="1" /><line x1="59" y1="42" x2="59" y2="492" stroke="black" stroke-width="1" /><line x1="59" y1="457.38461538461536" x2="659" y2="457.38461538461536" stroke="#ccc" stroke-width="1" /><line x1="59" y1="422.7692307692308" x2="659" y2="422.7692307692308" stroke="#ccc" stroke-width="1" /><line x1="59" y1="388.15384615384613" x2="659" y2="388.15384615384613" stroke="#ccc" stroke-width="1" /><line x1="59" y1="353.53846153846155" x2="659" y2="353.53846153846155" stroke="#ccc" stroke-width="1" /><line x1="59" y1="318.9230769230769" x2="659" y2="318.9230769230769" stroke="#ccc" stroke-width="1" /><line x1="59" y1="284.30769230769226" x2="659" y2="284.30769230769226" stroke="#ccc" stroke-width="1" /><line x1="59" y1="249.6923076923077" x2="659" y2="249.6923076923077" stroke="#ccc" stroke-width="1" /><line x1="59" y1="215.07692307692304" x2="659" y2="215.07692307692304" stroke="#ccc" stroke-width="1" /><line x1="59" y1="180.46153846153845" x2="659" y2="180.46153846153845" stroke="#ccc" stroke-width="1" /><line x1="59" y1="145.8461538461538" x2="659" y2="145.8461538461538" stroke="#ccc" stroke-width="1" /><line x1="59" y1="111.23076923076923" x2="659" y2="111.23076923076923" stroke="#ccc" stroke-width="1" /><line x1="59" y1="76.61538461538458" x2="659" y2="76.61538461538458" stroke="#ccc" stroke-width="1" /><line x1="59" y1="42" x2="659" y2="42" stroke="#ccc" stroke-width="1" /><text x="359" y="507" font-size="10" text-anchor="middle"></text><line x1="359" y1="492" x2="359" y2="497" stroke="black" stroke-width="1" /><line x1="54" y1="492" x2="59" y2="492" stroke="black" stroke-width="1" /><text x="51" y="495.5" font-size="10" text-anchor="end">-3.5</text><line x1="54" y1="457.38461538461536" x2="59" y2="457.38461538461536" stroke="black" stroke-width="1" /><text x="51" y="460.88461538461536" font-size="10" text-anchor="end">-3</text><line x1="54" y1="422.7692307692308" x2="59" y2="422.7692307692308" stroke="black" stroke-width="1" /><text x="51" y="426.2692307692308" font-size="10" text-anchor="end">-2.5</text><line x1="54" y1="388.15384615384613" x2="59" y2="388.15384615384613" stroke="black" stroke-width="1" /><text x="51" y="391.65384615384613" font-size="10" text-anchor="end">-2</text><line x1="54" y1="353.53846153846155" x2="59" y2="353.53846153846155" stroke="black" stroke-width="1" /><text x="51" y="357.03846153846155" font-size="10" text-anchor="end">-1.5</text><line x1="54" y1="318.9230769230769" x2="59" y2="318.9230769230769" stroke="black" stroke-width="1" /><text x="51" y="322.4230769230769" font-size="10" text-anchor="end">-1</text><line x1="54" y1="284.30769230769226" x2="59" y2="284.30769230769226" stroke="black" stroke-width="1" /><text x="51" y="287.80769230769226" font-size="10" text-anchor="end">-0.5</text><line x1="54" y1="249.6923076923077" x2="59" y2="249.6923076923077" stroke="black" stroke-width="1" /><text x="51" y="253.1923076923077" font-size="10" text-anchor="end">0</text><line x1="54" y1="215.07692307692304" x2="59" y2="215.07692307692304" stroke="black" stroke-width="1" /><text x="51" y="218.57692307692304" font-size="10" text-anchor="end">0.5</text><line x1="54" y1="180.46153846153845" x2="59" y2="180.46153846153845" stroke="black" stroke-width="1" /><text x="51" y="183.96153846153845" font-size="10" text-anchor="end">1</text><line x1="54" y1="145.8461538461538" x2="59" y2="145.8461538461538" stroke="black" stroke-width="1" /><text x="51" y="149.3461538461538" font-size="10" text-anchor="end">1.5</text><line x1="54" y1="111.23076923076923" x2="59" y2="111.23076923076923" stroke="black" stroke-width="1" /><text x="51" y="114.73076923076923" font-size="10" text-anchor="end">2</text><line x1="54" y1="76.61538461538458" x2="59" y2="76.61538461538458" stroke="black" stroke-width="1" /><text x="51" y="80.11538461538458" font-size="10" text-anchor="end">2.5</text><line x1="54" y1="42" x2="59" y2="42" stroke="black" stroke-width="1" /><text x="51" y="45.5" font-size="10" text-anchor="end">3</text><text x="336.5" y="21" font-size="16" text-anchor="middle">Narrow (h = 0.15)</text><path d="M 358.99352663440135 459.5027979844744 L 358.9884705062891 457.4394890130987 L 358.9802535127737 455.376180041723 L 358.9674745444096 453.3128710703473 L 358.94846695084647 451.2495620989716 L 358.9214437960427 449.18625312759593 L 358.8847477294661 447.1229441562202 L 358.8371873335896 445.0596351848445 L 358.77840277159294 442.9963262134688 L 358.7091672421219 440.9330172420931 L 358.6315142167499 438.8697082707174 L 358.5485993685352 436.8063992993417 L 358.4642661598948 434.743090327966 L 358.38237404816306 432.6797813565903 L 358.3060397324766 430.6164723852146 L 358.2369976583468 428.5531634138389 L 358.1752758204014 426.48985444246324 L 358.11929919847927 424.42654547108754 L 358.0663988707999 422.36323649971183 L 358.01356747708803 420.2999275283361 L 357.95821474764557 418.2366185569604 L 357.89867658236386 416.1733095855847 L 357.834320180664 414.110000614209 L 357.7652329708218 412.0466916428333 L 357.69162997719707 409.9833826714576 L 357.6132094823876 407.9200737000819 L 357.52869937193424 405.8567647287062 L 357.4357679358889 403.7934557573305 L 357.3313535050049 401.7301467859548 L 357.2123415659658 399.66683781457914 L 357.0764257759075 397.60352884320343 L 356.92295102225074 395.54021987182773 L 356.75354836701393 393.476910900452 L 356.57241175376555 391.4136019290763 L 356.3861109835092 389.3502929577006 L 356.20287507340095 387.2869839863249 L 356.0313263668033 385.2236750149492 L 355.8787231266303 383.1603660435735 L 355.74889237830627 381.0970570721978 L 355.6401895493032 379.0337481008221 L 355.5439524657764 376.97043912944645 L 355.4439496857774 374.90713015807074 L 355.3172003286302 372.84382118669504 L 355.13626479066176 370.78051221531933 L 354.87274501951396 368.71720324394363 L 354.5014105184817 366.6538942725679 L 354.00419990922336 364.5905853011922 L 353.37339616942285 362.5272763298165 L 352.6135059743462 360.46396735844087 L 351.7416846424515 358.40065838706516 L 350.786810371046 356.3373494156894 L 349.78743794736073 354.27404044431375 L 348.7888480752925 352.21073147293805 L 347.8393286153212 350.14742250156235 L 346.9857885987738 348.08411353018664 L 346.26889773229203 346.02080455881094 L 345.7181694938169 343.95749558743523 L 345.34768299060653 341.8941866160595 L 345.15332926924077 339.8308776446838 L 345.1124369657819 337.7675686733081 L 345.18631018579094 335.7042597019324 L 345.3256310080259 333.6409507305567 L 345.47797522263335 331.577641759181 L 345.5960635984451 329.5143327878053 L 345.64502735138234 327.4510238164296 L 345.60704891321177 325.38771484505395 L 345.482276733874 323.3244058736782 L 345.2857982630775 321.2610969023025 L 345.0414617670788 319.19778793092684 L 344.77417694928755 317.13447895955113 L 344.5027328547446 315.0711699881755 L 344.23500083693233 313.0078610167998 L 343.9666695879067 310.9445520454241 L 343.68360056049903 308.88124307404837 L 343.3668286688664 306.81793410267267 L 342.9985061416543 304.75462513129696 L 342.5669241404163 302.69131615992126 L 342.06917941756444 300.62800718854555 L 341.5109124973289 298.56469821716985 L 340.90352811174967 296.50138924579414 L 340.2600968053053 294.43808027441844 L 339.59149518515386 292.37477130304273 L 338.9041880624908 290.31146233166703 L 338.20046195837494 288.2481533602913 L 337.4810780788909 286.1848443889156 L 336.74947578000257 284.1215354175399 L 336.0160733129529 282.0582264461642 L 335.3010651901274 279.9949174747885 L 334.63447000693895 277.9316085034128 L 334.0529529499638 275.8682995320371 L 333.5939068295771 273.8049905606614 L 333.28812260747895 271.74168158928575 L 333.1528440888139 269.6783726179101 L 333.18694405021233 267.61506364653434 L 333.36942522091164 265.5517546751587 L 333.66163566294495 263.488445703783 L 334.01274975436996 261.4251367324073 L 334.3674145185328 259.3618277610315 L 334.6741031057048 257.2985187896558 L 334.89265888020435 255.2352098182801 L 334.9997083748046 253.17190084690446 L 334.9910178977784 251.10859187552873 L 334.8804223362335 249.04528290415308 L 334.6956039664308 246.98197393277738 L 334.47163556306214 244.91866496140167 L 334.24367353821964 242.85535599002594 L 334.0403448193907 240.79204701865024 L 333.879141914453 238.72873804727453 L 333.7645754616872 236.66542907589883 L 333.68910427558285 234.60212010452318 L 333.63619866304464 232.53881113314748 L 333.58448979407353 230.47550216177171 L 333.5119064323412 228.412193190396 L 333.39896195094155 226.34888421902036 L 333.23079388745987 224.28557524764466 L 332.99800720808395 222.22226627626895 L 332.69669450127486 220.15895730489325 L 332.3281357609521 218.09564833351754 L 331.8986265618654 216.0323393621419 L 331.419706735962 213.96903039076614 L 330.90883731584574 211.90572141939037 L 330.39036020589344 209.84241244801478 L 329.89640210077016 207.77910347663902 L 329.4672606746513 205.71579450526337 L 329.1507484384505 203.65248553388767 L 329 201.58917656251197 L 329.06942087909243 199.52586759113626 L 329.408805700557 197.46255861976056 L 330.0561576704106 195.39924964838485 L 331.0302905287724 193.33594067700915 L 332.32470727645017 191.27263170563344 L 333.9043356203542 189.20932273425774 L 335.70634379146446 187.14601376288203 L 337.64549228919674 185.0827047915064 L 339.62348220457824 183.01939582013068 L 341.54082060773567 180.95608684875492 L 343.3091136192813 178.89277787737922 L 344.86158812867774 176.8294689060035 L 346.1600448063609 174.7661599346278 L 347.19722188315535 172.70285096325222 L 347.9944796313001 170.6395419918765 L 348.5955714112097 168.5762330205008 L 349.05787600784157 166.51292404912505 L 349.44274044881763 164.44961507774934 L 349.8065200687643 162.38630610637364 L 350.1935676676956 160.322997134998 L 350.6319229880933 158.2596881636223 L 351.13190984231306 156.19637919224658 L 351.6873716092201 154.13307022087088 L 352.27894085733817 152.06976124949517 L 352.8785706050999 150.00645227811947 L 353.4545334793084 147.94314330674376 L 353.97617676761575 145.87983433536806 L 354.4178630516942 143.81652536399235 L 354.76170163210264 141.75321639261665 L 354.99887512736717 139.68990742124095 L 355.12958048742183 137.62659844986524 L 355.1618142865474 135.56328947848954 L 355.1094032604855 133.49998050711383 L 354.9897720246202 131.43667153573813 L 354.82192203987074 129.37336256436248 L 354.6249669055925 127.31005359298678 L 354.41735829698047 125.24674462161107 L 354.2166998592171 123.18343565023542 L 354.0398512039429 121.12012667885972 L 353.9029328446322 119.05681770748402 L 353.8208913606816 116.99350873610825 L 353.8064658905526 114.93019976473255 L 353.8686585143871 112.86689079335684 L 354.0110635923384 110.8035818219812 L 354.23056070269297 108.74027285060549 L 354.51685994697647 106.67696387922979 L 354.85320363622526 104.61365490785408 L 355.21823430498875 102.55034593647838 L 355.5887344844043 100.48703696510262 L 355.942726169533 98.42372799372691 L 356.26234556691753 96.36041902235127 L 356.53598324559476 94.29711005097556 L 356.7593566407771 92.23380107959986 L 356.9353983774851 90.17049210822415 L 357.0730482985692 88.10718313684845 L 357.18520214136845 86.04387416547274 L 357.28618750811324 83.9805651940971 L 357.389204037407 81.91725622272139 L 357.5041685489088 79.85394725134569 L 357.6363327956605 77.79063827996998 L 357.7858881085772 75.72732930859428 L 357.94856066014466 73.66402033721863 L 358.11698418792264 71.60071136584293 L 358.28247662649045 69.53740239446716 L 358.43679186126747 67.47409342309146 L 358.5734803893857 65.41078445171576 L 358.68864425087975 63.34747548034005 L 358.78105545316913 61.28416650896435 L 358.8517632315217 59.2208575375887 L 358.9034034798805 57.157548566212995 L 358.93943388511457 55.09423959483729 L 358.96346836504244 53.030930623461586 L 358.9788061354869 50.967621652085825 L 358.9881750346519 48.90431268071012 L 359.0118249653481 48.90431268071012 L 359.0211938645131 50.967621652085825 L 359.03653163495756 53.030930623461586 L 359.06056611488543 55.09423959483729 L 359.0965965201195 57.157548566212995 L 359.1482367684783 59.2208575375887 L 359.21894454683087 61.28416650896435 L 359.31135574912025 63.34747548034005 L 359.4265196106143 65.41078445171576 L 359.56320813873253 67.47409342309146 L 359.71752337350955 69.53740239446716 L 359.88301581207736 71.60071136584293 L 360.05143933985534 73.66402033721863 L 360.2141118914228 75.72732930859428 L 360.3636672043395 77.79063827996998 L 360.4958314510912 79.85394725134569 L 360.610795962593 81.91725622272139 L 360.71381249188676 83.9805651940971 L 360.81479785863155 86.04387416547274 L 360.9269517014308 88.10718313684845 L 361.0646016225149 90.17049210822415 L 361.2406433592229 92.23380107959986 L 361.46401675440524 94.29711005097556 L 361.73765443308247 96.36041902235127 L 362.057273830467 98.42372799372691 L 362.4112655155957 100.48703696510262 L 362.78176569501125 102.55034593647838 L 363.14679636377474 104.61365490785408 L 363.48314005302353 106.67696387922979 L 363.76943929730703 108.74027285060549 L 363.9889364076616 110.8035818219812 L 364.1313414856129 112.86689079335684 L 364.1935341094474 114.93019976473255 L 364.1791086393184 116.99350873610825 L 364.0970671553678 119.05681770748402 L 363.9601487960571 121.12012667885972 L 363.7833001407829 123.18343565023542 L 363.58264170301953 125.24674462161107 L 363.3750330944075 127.31005359298678 L 363.17807796012926 129.37336256436248 L 363.0102279753798 131.43667153573813 L 362.8905967395145 133.49998050711383 L 362.8381857134526 135.56328947848954 L 362.87041951257817 137.62659844986524 L 363.00112487263283 139.68990742124095 L 363.23829836789736 141.75321639261665 L 363.5821369483058 143.81652536399235 L 364.02382323238425 145.87983433536806 L 364.5454665206916 147.94314330674376 L 365.1214293949001 150.00645227811947 L 365.72105914266183 152.06976124949517 L 366.3126283907799 154.13307022087088 L 366.86809015768694 156.19637919224658 L 367.3680770119067 158.2596881636223 L 367.8064323323044 160.322997134998 L 368.1934799312357 162.38630610637364 L 368.55725955118237 164.44961507774934 L 368.94212399215843 166.51292404912505 L 369.4044285887903 168.5762330205008 L 370.0055203686999 170.6395419918765 L 370.80277811684465 172.70285096325222 L 371.8399551936391 174.7661599346278 L 373.13841187132226 176.8294689060035 L 374.6908863807187 178.89277787737922 L 376.45917939226433 180.95608684875492 L 378.37651779542176 183.01939582013068 L 380.35450771080326 185.0827047915064 L 382.29365620853554 187.14601376288203 L 384.0956643796458 189.20932273425774 L 385.67529272354983 191.27263170563344 L 386.9697094712276 193.33594067700915 L 387.9438423295894 195.39924964838485 L 388.591194299443 197.46255861976056 L 388.93057912090757 199.52586759113626 L 389 201.58917656251197 L 388.8492515615495 203.65248553388767 L 388.5327393253487 205.71579450526337 L 388.10359789922984 207.77910347663902 L 387.60963979410656 209.84241244801478 L 387.09116268415426 211.90572141939037 L 386.580293264038 213.96903039076614 L 386.1013734381346 216.0323393621419 L 385.6718642390479 218.09564833351754 L 385.30330549872514 220.15895730489325 L 385.00199279191605 222.22226627626895 L 384.76920611254013 224.28557524764466 L 384.60103804905845 226.34888421902036 L 384.4880935676588 228.412193190396 L 384.41551020592647 230.47550216177171 L 384.36380133695536 232.53881113314748 L 384.31089572441715 234.60212010452318 L 384.2354245383128 236.66542907589883 L 384.120858085547 238.72873804727453 L 383.9596551806093 240.79204701865024 L 383.75632646178036 242.85535599002594 L 383.52836443693786 244.91866496140167 L 383.3043960335692 246.98197393277738 L 383.1195776637665 249.04528290415308 L 383.0089821022216 251.10859187552873 L 383.0002916251954 253.17190084690446 L 383.10734111979565 255.2352098182801 L 383.3258968942952 257.2985187896558 L 383.6325854814672 259.3618277610315 L 383.98725024563004 261.4251367324073 L 384.33836433705505 263.488445703783 L 384.63057477908836 265.5517546751587 L 384.81305594978767 267.61506364653434 L 384.8471559111861 269.6783726179101 L 384.71187739252105 271.74168158928575 L 384.4060931704229 273.8049905606614 L 383.9470470500362 275.8682995320371 L 383.36552999306105 277.9316085034128 L 382.6989348098726 279.9949174747885 L 381.9839266870471 282.0582264461642 L 381.25052421999743 284.1215354175399 L 380.5189219211091 286.1848443889156 L 379.79953804162506 288.2481533602913 L 379.0958119375092 290.31146233166703 L 378.40850481484614 292.37477130304273 L 377.7399031946947 294.43808027441844 L 377.09647188825033 296.50138924579414 L 376.4890875026711 298.56469821716985 L 375.93082058243556 300.62800718854555 L 375.4330758595837 302.69131615992126 L 375.0014938583457 304.75462513129696 L 374.6331713311336 306.81793410267267 L 374.31639943950097 308.88124307404837 L 374.0333304120933 310.9445520454241 L 373.76499916306767 313.0078610167998 L 373.4972671452554 315.0711699881755 L 373.22582305071245 317.13447895955113 L 372.9585382329212 319.19778793092684 L 372.7142017369225 321.2610969023025 L 372.517723266126 323.3244058736782 L 372.39295108678823 325.38771484505395 L 372.35497264861766 327.4510238164296 L 372.4039364015549 329.5143327878053 L 372.52202477736665 331.577641759181 L 372.6743689919741 333.6409507305567 L 372.81368981420906 335.7042597019324 L 372.8875630342181 337.7675686733081 L 372.84667073075923 339.8308776446838 L 372.65231700939347 341.8941866160595 L 372.2818305061831 343.95749558743523 L 371.73110226770797 346.02080455881094 L 371.0142114012262 348.08411353018664 L 370.1606713846788 350.14742250156235 L 369.2111519247075 352.21073147293805 L 368.21256205263927 354.27404044431375 L 367.213189628954 356.3373494156894 L 366.2583153575485 358.40065838706516 L 365.3864940256538 360.46396735844087 L 364.62660383057715 362.5272763298165 L 363.99580009077664 364.5905853011922 L 363.4985894815183 366.6538942725679 L 363.12725498048604 368.71720324394363 L 362.86373520933824 370.78051221531933 L 362.6827996713698 372.84382118669504 L 362.5560503142226 374.90713015807074 L 362.4560475342236 376.97043912944645 L 362.3598104506968 379.0337481008221 L 362.25110762169373 381.0970570721978 L 362.1212768733697 383.1603660435735 L 361.9686736331967 385.2236750149492 L 361.79712492659905 387.2869839863249 L 361.6138890164908 389.3502929577006 L 361.42758824623445 391.4136019290763 L 361.24645163298607 393.476910900452 L 361.07704897774926 395.54021987182773 L 360.9235742240925 397.60352884320343 L 360.7876584340342 399.66683781457914 L 360.6686464949951 401.7301467859548 L 360.5642320641111 403.7934557573305 L 360.47130062806576 405.8567647287062 L 360.3867905176124 407.9200737000819 L 360.30837002280293 409.9833826714576 L 360.2347670291782 412.0466916428333 L 360.165679819336 414.110000614209 L 360.10132341763614 416.1733095855847 L 360.04178525235443 418.2366185569604 L 359.98643252291197 420.2999275283361 L 359.9336011292001 422.36323649971183 L 359.88070080152073 424.42654547108754 L 359.8247241795986 426.48985444246324 L 359.7630023416532 428.5531634138389 L 359.6939602675234 430.6164723852146 L 359.61762595183694 432.6797813565903 L 359.5357338401052 434.743090327966 L 359.4514006314648 436.8063992993417 L 359.3684857832501 438.8697082707174 L 359.2908327578781 440.9330172420931 L 359.22159722840706 442.9963262134688 L 359.1628126664104 445.0596351848445 L 359.1152522705339 447.1229441562202 L 359.0785562039573 449.18625312759593 L 359.05153304915353 451.2495620989716 L 359.0325254555904 453.3128710703473 L 359.0197464872263 455.376180041723 L 359.0115294937109 457.4394890130987 L 359.00647336559865 459.5027979844744 Z" stroke="black" stroke-width="0.5" fill="steelblue" /></svg>