<svg xmlns="http://www.w3.org/2000/svg" width="677.8000000000001" height="545" font-family="DejaVu Sans, Liberation Sans, Arial, sans-serif" fill="black"><rect width="100%" height="100%" fill="white" /><defs><clipPath id="kuva-clip-3"><rect x="63.800000000000004" y="44" width="600" height="450"/></clipPath></defs><line x1="63.800000000000004" y1="381.5" x2="663.8000000000001" y2="381.5" stroke="#cccccc" stroke-width="1" /><line x1="63.800000000000004" y1="269" x2="663.8000000000001" y2="269" stroke="#cccccc" stroke-width="1" /><line x1="63.800000000000004" y1="156.5" x2="663.8000000000001" y2="156.5" stroke="#cccccc" stroke-width="1" /><line x1="63.800000000000004" y1="44" x2="663.8000000000001" y2="44" stroke="#cccccc" stroke-width="1" /><line x1="63.800000000000004" y1="494" x2="663.8000000000001" y2="494" stroke="#000000" stroke-width="1" /><line x1="63.800000000000004" y1="44" x2="63.800000000000004" y2="494" stroke="#000000" stroke-width="1" /><text x="363.8" y="511" font-size="12" text-anchor="middle"></text><line x1="363.8" y1="494" x2="363.8" y2="499" stroke="#000000" stroke-width="1" /><line x1="58.800000000000004" y1="494" x2="63.800000000000004" y2="494" stroke="#000000" stroke-width="1" /><text x="55.800000000000004" y="498.2" font-size="12" text-anchor="end">-10</text><line x1="58.800000000000004" y1="381.5" x2="63.800000000000004" y2="381.5" stroke="#000000" stroke-width="1" /><text x="55.800000000000004" y="385.7" font-size="12" text-anchor="end">-5</text><line x1="58.800000000000004" y1="269" x2="63.800000000000004" y2="269" stroke="#000000" stroke-width="1" /><text x="55.800000000000004" y="273.2" font-size="12" text-anchor="end">0</text><line x1="58.800000000000004" y1="156.5" x2="63.800000000000004" y2="156.5" stroke="#000000" stroke-width="1" /><text x="55.800000000000004" y="160.70000000000002" font-size="12" text-anchor="end">5</text><line x1="58.800000000000004" y1="44" x2="63.800000000000004" y2="44" stroke="#000000" stroke-width="1" /><text x="55.800000000000004" y="48.2" font-size="12" text-anchor="end">10</text><text x="363.8" y="27.400000000000002" font-size="18" text-anchor="middle">Wide (h = 2.0)</text><g clip-path="url(#kuva-clip-3)"><path d="M 363.72 462.06 L 363.7 460.14 L 363.69 458.21000000000004 L 363.66 456.29 L 363.64 454.36 L 363.61 452.44 L 363.58 450.51 L 363.55 448.58 L 363.5 446.66 L 363.46 444.73 L 363.40000000000003 442.81 L 363.34000000000003 440.88 L 363.28000000000003 438.96000000000004 L 363.2 437.03000000000003 L 363.11 435.11 L 363.01 433.18 L 362.90000000000003 431.25 L 362.78000000000003 429.33 L 362.64 427.40000000000003 L 362.48 425.48 L 362.31 423.55 L 362.12 421.63 L 361.90000000000003 419.7 L 361.67 417.77 L 361.40000000000003 415.85 L 361.11 413.92 L 360.79 412.0 L 360.43 410.07 L 360.04 408.15000000000003 L 359.6 406.22 L 359.13 404.3 L 358.6 402.37 L 358.03000000000003 400.44 L 357.41 398.52 L 356.73 396.59000000000003 L 355.99 394.67 L 355.18 392.74 L 354.31 390.82 L 353.36 388.89 L 352.34000000000003 386.96000000000004 L 351.24 385.04 L 350.05 383.11 L 348.77 381.19 L 347.39 379.26 L 345.92 377.34000000000003 L 344.35 375.41 L 342.67 373.49 L 340.88 371.56 L 338.97 369.63 L 336.95 367.71 L 334.8 365.78000000000003 L 332.53000000000003 363.86 L 330.14 361.93 L 327.61 360.01 L 324.96 358.08 L 322.17 356.16 L 319.25 354.23 L 316.19 352.3 L 313.01 350.38 L 309.69 348.45 L 306.24 346.53000000000003 L 302.66 344.6 L 298.96 342.68 L 295.13 340.75 L 291.19 338.82 L 287.14 336.90000000000003 L 282.99 334.97 L 278.73 333.05 L 274.39 331.12 L 269.96 329.2 L 265.46 327.27 L 260.9 325.35 L 256.29 323.42 L 251.64000000000001 321.49 L 246.97 319.57 L 242.28 317.64 L 237.59 315.72 L 232.92000000000002 313.79 L 228.28 311.87 L 223.68 309.94 L 219.14000000000001 308.02 L 214.68 306.09000000000003 L 210.31 304.16 L 206.05 302.24 L 201.91 300.31 L 197.91 298.39 L 194.06 296.46 L 190.39000000000001 294.54 L 186.9 292.61 L 183.61 290.68 L 180.54 288.76 L 177.69 286.83 L 175.08 284.91 L 172.71 282.98 L 170.61 281.06 L 168.78 279.13 L 167.22 277.21 L 165.95000000000002 275.28000000000003 L 164.97 273.35 L 164.28 271.43 L 163.89000000000001 269.5 L 163.8 267.58 L 164.01 265.65 L 164.52 263.73 L 165.32 261.8 L 166.42000000000002 259.88 L 167.81 257.95 L 169.48 256.02 L 171.42000000000002 254.1 L 173.63 252.17000000000002 L 176.1 250.25 L 178.82 248.32 L 181.77 246.4 L 184.94 244.47 L 188.32 242.54 L 191.9 240.62 L 195.66 238.69 L 199.58 236.77 L 203.65 234.84 L 207.86 232.92000000000002 L 212.19 230.99 L 216.61 229.07 L 221.13 227.14000000000001 L 225.71 225.21 L 230.35 223.29 L 235.03 221.36 L 239.73000000000002 219.44 L 244.44 217.51 L 249.15 215.59 L 253.84 213.66 L 258.49 211.74 L 263.1 209.81 L 267.65 207.88 L 272.14 205.96 L 276.55 204.03 L 280.87 202.11 L 285.1 200.18 L 289.23 198.26 L 293.24 196.33 L 297.15000000000003 194.4 L 300.93 192.48000000000002 L 304.58 190.55 L 308.11 188.63 L 311.51 186.70000000000002 L 314.77 184.78 L 317.91 182.85 L 320.90000000000003 180.93 L 323.76 179.0 L 326.49 177.07 L 329.08 175.15 L 331.55 173.22 L 333.88 171.3 L 336.09000000000003 169.37 L 338.17 167.45000000000002 L 340.13 165.52 L 341.98 163.6 L 343.71 161.67000000000002 L 345.34000000000003 159.74 L 346.85 157.82 L 348.27 155.89000000000001 L 349.59000000000003 153.97 L 350.82 152.04 L 351.96 150.12 L 353.01 148.19 L 353.99 146.26 L 354.89 144.34 L 355.72 142.41 L 356.49 140.49 L 357.19 138.56 L 357.84000000000003 136.64000000000001 L 358.43 134.71 L 358.96 132.79 L 359.46 130.86 L 359.90000000000003 128.93 L 360.31 127.01 L 360.68 125.08 L 361.01 123.16 L 361.32 121.23 L 361.59000000000003 119.31 L 361.84000000000003 117.38 L 362.06 115.46000000000001 L 362.26 113.53 L 362.44 111.60000000000001 L 362.6 109.68 L 362.74 107.75 L 362.87 105.83 L 362.98 103.9 L 363.08 101.98 L 363.17 100.05 L 363.25 98.12 L 363.33 96.2 L 363.39 94.27 L 363.44 92.35000000000001 L 363.49 90.42 L 363.53000000000003 88.5 L 363.57 86.57000000000001 L 363.6 84.65 L 363.63 82.72 L 363.66 80.79 L 363.68 78.87 L 363.92 78.87 L 363.94 80.79 L 363.97 82.72 L 364.0 84.65 L 364.03000000000003 86.57000000000001 L 364.07 88.5 L 364.11 90.42 L 364.16 92.35000000000001 L 364.21 94.27 L 364.27 96.2 L 364.35 98.12 L 364.43 100.05 L 364.52 101.98 L 364.62 103.9 L 364.73 105.83 L 364.86 107.75 L 365.0 109.68 L 365.16 111.60000000000001 L 365.34000000000003 113.53 L 365.54 115.46000000000001 L 365.76 117.38 L 366.01 119.31 L 366.28000000000003 121.23 L 366.59000000000003 123.16 L 366.92 125.08 L 367.29 127.01 L 367.7 128.93 L 368.14 130.86 L 368.64 132.79 L 369.17 134.71 L 369.76 136.64000000000001 L 370.41 138.56 L 371.11 140.49 L 371.88 142.41 L 372.71 144.34 L 373.61 146.26 L 374.59000000000003 148.19 L 375.64 150.12 L 376.78000000000003 152.04 L 378.01 153.97 L 379.33 155.89000000000001 L 380.75 157.82 L 382.26 159.74 L 383.89 161.67000000000002 L 385.62 163.6 L 387.47 165.52 L 389.43 167.45000000000002 L 391.51 169.37 L 393.72 171.3 L 396.05 173.22 L 398.52 175.15 L 401.11 177.07 L 403.84000000000003 179.0 L 406.7 180.93 L 409.69 182.85 L 412.83 184.78 L 416.09000000000003 186.70000000000002 L 419.49 188.63 L 423.02 190.55 L 426.67 192.48000000000002 L 430.45 194.4 L 434.36 196.33 L 438.37 198.26 L 442.5 200.18 L 446.73 202.11 L 451.05 204.03 L 455.46000000000004 205.96 L 459.95 207.88 L 464.5 209.81 L 469.11 211.74 L 473.76 213.66 L 478.45 215.59 L 483.16 217.51 L 487.87 219.44 L 492.57 221.36 L 497.25 223.29 L 501.89 225.21 L 506.47 227.14000000000001 L 510.99 229.07 L 515.41 230.99 L 519.74 232.92000000000002 L 523.95 234.84 L 528.02 236.77 L 531.94 238.69 L 535.7 240.62 L 539.28 242.54 L 542.66 244.47 L 545.83 246.4 L 548.78 248.32 L 551.5 250.25 L 553.97 252.17000000000002 L 556.1800000000001 254.1 L 558.12 256.02 L 559.79 257.95 L 561.1800000000001 259.88 L 562.28 261.8 L 563.08 263.73 L 563.59 265.65 L 563.8000000000001 267.58 L 563.71 269.5 L 563.32 271.43 L 562.63 273.35 L 561.65 275.28000000000003 L 560.38 277.21 L 558.82 279.13 L 556.99 281.06 L 554.89 282.98 L 552.52 284.91 L 549.91 286.83 L 547.0600000000001 288.76 L 543.99 290.68 L 540.7 292.61 L 537.21 294.54 L 533.54 296.46 L 529.69 298.39 L 525.69 300.31 L 521.55 302.24 L 517.29 304.16 L 512.92 306.09000000000003 L 508.46000000000004 308.02 L 503.92 309.94 L 499.32 311.87 L 494.68 313.79 L 490.01 315.72 L 485.32 317.64 L 480.63 319.57 L 475.96000000000004 321.49 L 471.31 323.42 L 466.7 325.35 L 462.14 327.27 L 457.64 329.2 L 453.21000000000004 331.12 L 448.87 333.05 L 444.61 334.97 L 440.46000000000004 336.90000000000003 L 436.41 338.82 L 432.47 340.75 L 428.64 342.68 L 424.94 344.6 L 421.36 346.53000000000003 L 417.91 348.45 L 414.59000000000003 350.38 L 411.41 352.3 L 408.35 354.23 L 405.43 356.16 L 402.64 358.08 L 399.99 360.01 L 397.46000000000004 361.93 L 395.07 363.86 L 392.8 365.78000000000003 L 390.65000000000003 367.71 L 388.63 369.63 L 386.72 371.56 L 384.93 373.49 L 383.25 375.41 L 381.68 377.34000000000003 L 380.21 379.26 L 378.83 381.19 L 377.55 383.11 L 376.36 385.04 L 375.26 386.96000000000004 L 374.24 388.89 L 373.29 390.82 L 372.42 392.74 L 371.61 394.67 L 370.87 396.59000000000003 L 370.19 398.52 L 369.57 400.44 L 369.0 402.37 L 368.47 404.3 L 368.0 406.22 L 367.56 408.15000000000003 L 367.17 410.07 L 366.81 412.0 L 366.49 413.92 L 366.2 415.85 L 365.93 417.77 L 365.7 419.7 L 365.48 421.63 L 365.29 423.55 L 365.12 425.48 L 364.96 427.40000000000003 L 364.82 429.33 L 364.7 431.25 L 364.59000000000003 433.18 L 364.49 435.11 L 364.40000000000003 437.03000000000003 L 364.32 438.96000000000004 L 364.26 440.88 L 364.2 442.81 L 364.14 444.73 L 364.1 446.66 L 364.05 448.58 L 364.02 450.51 L 363.99 452.44 L 363.96 454.36 L 363.94 456.29 L 363.91 458.21000000000004 L 363.90000000000003 460.14 L 363.88 462.06 Z" stroke="#000000" stroke-width="0.5" fill="#4682b4" /></g></svg>