<svg xmlns="http://www.w3.org/2000/svg" width="677.8000000000001" height="545" font-family="DejaVu Sans, Liberation Sans, Arial, sans-serif" fill="black"><rect width="100%" height="100%" fill="white" /><defs><clipPath id="kuva-clip-0"><rect x="63.800000000000004" y="44" width="600" height="450"/></clipPath></defs><line x1="63.800000000000004" y1="429.71000000000004" x2="663.8000000000001" y2="429.71000000000004" stroke="#cccccc" stroke-width="1" /><line x1="63.800000000000004" y1="301.14" x2="663.8000000000001" y2="301.14" stroke="#cccccc" stroke-width="1" /><line x1="63.800000000000004" y1="172.57" x2="663.8000000000001" y2="172.57" stroke="#cccccc" stroke-width="1" /><line x1="63.800000000000004" y1="44" x2="663.8000000000001" y2="44" stroke="#cccccc" stroke-width="1" /><line x1="63.800000000000004" y1="494" x2="663.8000000000001" y2="494" stroke="#000000" stroke-width="1" /><line x1="63.800000000000004" y1="44" x2="63.800000000000004" y2="494" stroke="#000000" stroke-width="1" /><text x="163.8" y="511" font-size="12" text-anchor="middle">Normal</text><line x1="163.8" y1="494" x2="163.8" y2="499" stroke="#000000" stroke-width="1" /><text x="363.8" y="511" font-size="12" text-anchor="middle">Bimodal</text><line x1="363.8" y1="494" x2="363.8" y2="499" stroke="#000000" stroke-width="1" /><text x="563.8000000000001" y="511" font-size="12" text-anchor="middle">Skewed</text><line x1="563.8000000000001" y1="494" x2="563.8000000000001" y2="499" stroke="#000000" stroke-width="1" /><line x1="58.800000000000004" y1="429.71000000000004" x2="63.800000000000004" y2="429.71000000000004" stroke="#000000" stroke-width="1" /><text x="55.800000000000004" y="433.91" font-size="12" text-anchor="end">-5</text><line x1="58.800000000000004" y1="301.14" x2="63.800000000000004" y2="301.14" stroke="#000000" stroke-width="1" /><text x="55.800000000000004" y="305.34000000000003" font-size="12" text-anchor="end">0</text><line x1="58.800000000000004" y1="172.57" x2="63.800000000000004" y2="172.57" stroke="#000000" stroke-width="1" /><text x="55.800000000000004" y="176.77" font-size="12" text-anchor="end">5</text><line x1="58.800000000000004" y1="44" x2="63.800000000000004" y2="44" stroke="#000000" stroke-width="1" /><text x="55.800000000000004" y="48.2" font-size="12" text-anchor="end">10</text><text x="15" y="269" font-size="14" text-anchor="middle" transform="rotate(-90,15,269)">Value</text><text x="363.8" y="27.400000000000002" font-size="18" text-anchor="middle">Violin Plot</text><g clip-path="url(#kuva-clip-0)"><path d="M 163.79 397.46000000000004 L 163.79 396.5 L 163.78 395.54 L 163.78 394.58 L 163.77 393.61 L 163.75 392.65000000000003 L 163.73 391.69 L 163.71 390.73 L 163.68 389.76 L 163.65 388.8 L 163.61 387.84000000000003 L 163.56 386.87 L 163.51 385.91 L 163.45000000000002 384.95 L 163.39000000000001 383.99 L 163.33 383.02 L 163.27 382.06 L 163.21 381.1 L 163.16 380.14 L 163.1 379.17 L 163.05 378.21 L 162.99 377.25 L 162.93 376.29 L 162.86 375.32 L 162.77 374.36 L 162.66 373.40000000000003 L 162.53 372.43 L 162.36 371.47 L 162.15 370.51 L 161.91 369.55 L 161.63 368.58 L 161.3 367.62 L 160.95000000000002 366.66 L 160.56 365.7 L 160.14000000000001 364.73 L 159.70000000000002 363.77 L 159.25 362.81 L 158.78 361.85 L 158.29 360.88 L 157.81 359.92 L 157.31 358.96 L 156.8 358.0 L 156.28 357.03000000000003 L 155.75 356.07 L 155.20000000000002 355.11 L 154.61 354.14 L 154.0 353.18 L 153.33 352.22 L 152.61 351.26 L 151.83 350.29 L 150.97 349.33 L 150.03 348.37 L 149.0 347.41 L 147.9 346.44 L 146.72 345.48 L 145.49 344.52 L 144.21 343.56 L 142.92000000000002 342.59000000000003 L 141.64000000000001 341.63 L 140.38 340.67 L 139.16 339.71 L 137.98 338.74 L 136.86 337.78000000000003 L 135.75 336.82 L 134.66 335.85 L 133.54 334.89 L 132.35 333.93 L 131.06 332.97 L 129.63 332.0 L 128.04 331.04 L 126.27 330.08 L 124.32000000000001 329.12 L 122.2 328.15000000000003 L 119.94 327.19 L 117.59 326.23 L 115.17 325.27 L 112.75 324.3 L 110.38 323.34000000000003 L 108.08 322.38 L 105.89 321.41 L 103.84 320.45 L 101.93 319.49 L 100.15 318.53000000000003 L 98.49000000000001 317.56 L 96.94 316.6 L 95.48 315.64 L 94.09 314.68 L 92.76 313.71 L 91.47 312.75 L 90.24 311.79 L 89.08 310.83 L 87.98 309.86 L 86.98 308.90000000000003 L 86.09 307.94 L 85.33 306.98 L 84.71000000000001 306.01 L 84.24 305.05 L 83.94 304.09000000000003 L 83.8 303.12 L 83.83 302.16 L 84.01 301.2 L 84.36 300.24 L 84.86 299.27 L 85.52 298.31 L 86.34 297.35 L 87.3 296.39 L 88.43 295.42 L 89.69 294.46 L 91.11 293.5 L 92.65 292.54 L 94.32000000000001 291.57 L 96.07000000000001 290.61 L 97.9 289.65000000000003 L 99.76 288.69 L 101.62 287.72 L 103.47 286.76 L 105.25 285.8 L 106.97 284.83 L 108.60000000000001 283.87 L 110.14 282.91 L 111.60000000000001 281.95 L 112.98 280.98 L 114.31 280.02 L 115.61 279.06 L 116.91 278.1 L 118.22 277.13 L 119.57000000000001 276.17 L 120.98 275.21 L 122.44 274.25 L 123.95 273.28000000000003 L 125.51 272.32 L 127.09 271.36 L 128.68 270.39 L 130.24 269.43 L 131.76 268.47 L 133.21 267.51 L 134.58 266.54 L 135.86 265.58 L 137.06 264.62 L 138.17000000000002 263.66 L 139.23 262.69 L 140.23 261.73 L 141.21 260.77 L 142.19 259.81 L 143.17000000000002 258.84000000000003 L 144.17000000000002 257.88 L 145.20000000000002 256.92 L 146.25 255.96 L 147.31 254.99 L 148.38 254.03 L 149.44 253.07 L 150.47 252.1 L 151.47 251.14000000000001 L 152.41 250.18 L 153.3 249.22 L 154.13 248.25 L 154.9 247.29 L 155.61 246.33 L 156.27 245.37 L 156.88 244.4 L 157.45000000000002 243.44 L 157.99 242.48000000000002 L 158.49 241.52 L 158.95000000000002 240.55 L 159.39000000000001 239.59 L 159.79 238.63 L 160.16 237.66 L 160.48 236.70000000000002 L 160.75 235.74 L 160.99 234.78 L 161.18 233.81 L 161.33 232.85 L 161.44 231.89000000000001 L 161.53 230.93 L 161.6 229.96 L 161.66 229.0 L 161.72 228.04 L 161.79 227.08 L 161.87 226.11 L 161.97 225.15 L 162.09 224.19 L 162.23 223.23000000000002 L 162.38 222.26 L 162.54 221.3 L 162.70000000000002 220.34 L 162.86 219.37 L 163.01 218.41 L 163.15 217.45000000000002 L 163.28 216.49 L 163.39000000000001 215.52 L 163.48 214.56 L 163.56 213.6 L 163.62 212.64000000000001 L 163.67000000000002 211.67000000000002 L 163.71 210.71 L 163.74 209.75 L 163.76 208.79 L 163.77 207.82 L 163.78 206.86 L 163.79 205.9 L 163.81 205.9 L 163.82 206.86 L 163.83 207.82 L 163.84 208.79 L 163.86 209.75 L 163.89000000000001 210.71 L 163.93 211.67000000000002 L 163.98 212.64000000000001 L 164.04 213.6 L 164.12 214.56 L 164.21 215.52 L 164.32 216.49 L 164.45000000000002 217.45000000000002 L 164.59 218.41 L 164.74 219.37 L 164.9 220.34 L 165.06 221.3 L 165.22 222.26 L 165.37 223.23000000000002 L 165.51 224.19 L 165.63 225.15 L 165.73 226.11 L 165.81 227.08 L 165.88 228.04 L 165.94 229.0 L 166.0 229.96 L 166.07 230.93 L 166.16 231.89000000000001 L 166.27 232.85 L 166.42000000000002 233.81 L 166.61 234.78 L 166.85 235.74 L 167.12 236.70000000000002 L 167.44 237.66 L 167.81 238.63 L 168.21 239.59 L 168.65 240.55 L 169.11 241.52 L 169.61 242.48000000000002 L 170.15 243.44 L 170.72 244.4 L 171.33 245.37 L 171.99 246.33 L 172.70000000000002 247.29 L 173.47 248.25 L 174.3 249.22 L 175.19 250.18 L 176.13 251.14000000000001 L 177.13 252.1 L 178.16 253.07 L 179.22 254.03 L 180.29 254.99 L 181.35 255.96 L 182.4 256.92 L 183.43 257.88 L 184.43 258.84000000000003 L 185.41 259.81 L 186.39000000000001 260.77 L 187.37 261.73 L 188.37 262.69 L 189.43 263.66 L 190.54 264.62 L 191.74 265.58 L 193.02 266.54 L 194.39000000000001 267.51 L 195.84 268.47 L 197.36 269.43 L 198.92000000000002 270.39 L 200.51 271.36 L 202.09 272.32 L 203.65 273.28000000000003 L 205.16 274.25 L 206.62 275.21 L 208.03 276.17 L 209.38 277.13 L 210.69 278.1 L 211.99 279.06 L 213.29 280.02 L 214.62 280.98 L 216.0 281.95 L 217.46 282.91 L 219.0 283.87 L 220.63 284.83 L 222.35 285.8 L 224.13 286.76 L 225.98000000000002 287.72 L 227.84 288.69 L 229.70000000000002 289.65000000000003 L 231.53 290.61 L 233.28 291.57 L 234.95000000000002 292.54 L 236.49 293.5 L 237.91 294.46 L 239.17000000000002 295.42 L 240.3 296.39 L 241.26 297.35 L 242.08 298.31 L 242.74 299.27 L 243.24 300.24 L 243.59 301.2 L 243.77 302.16 L 243.8 303.12 L 243.66 304.09000000000003 L 243.36 305.05 L 242.89000000000001 306.01 L 242.27 306.98 L 241.51 307.94 L 240.62 308.90000000000003 L 239.62 309.86 L 238.52 310.83 L 237.36 311.79 L 236.13 312.75 L 234.84 313.71 L 233.51 314.68 L 232.12 315.64 L 230.66 316.6 L 229.11 317.56 L 227.45000000000002 318.53000000000003 L 225.67000000000002 319.49 L 223.76 320.45 L 221.71 321.41 L 219.52 322.38 L 217.22 323.34000000000003 L 214.85 324.3 L 212.43 325.27 L 210.01 326.23 L 207.66 327.19 L 205.4 328.15000000000003 L 203.28 329.12 L 201.33 330.08 L 199.56 331.04 L 197.97 332.0 L 196.54 332.97 L 195.25 333.93 L 194.06 334.89 L 192.94 335.85 L 191.85 336.82 L 190.74 337.78000000000003 L 189.62 338.74 L 188.44 339.71 L 187.22 340.67 L 185.96 341.63 L 184.68 342.59000000000003 L 183.39000000000001 343.56 L 182.11 344.52 L 180.88 345.48 L 179.70000000000002 346.44 L 178.6 347.41 L 177.57 348.37 L 176.63 349.33 L 175.77 350.29 L 174.99 351.26 L 174.27 352.22 L 173.6 353.18 L 172.99 354.14 L 172.4 355.11 L 171.85 356.07 L 171.32 357.03000000000003 L 170.8 358.0 L 170.29 358.96 L 169.79 359.92 L 169.31 360.88 L 168.82 361.85 L 168.35 362.81 L 167.9 363.77 L 167.46 364.73 L 167.04 365.7 L 166.65 366.66 L 166.3 367.62 L 165.97 368.58 L 165.69 369.55 L 165.45000000000002 370.51 L 165.24 371.47 L 165.07 372.43 L 164.94 373.40000000000003 L 164.83 374.36 L 164.74 375.32 L 164.67000000000002 376.29 L 164.61 377.25 L 164.55 378.21 L 164.5 379.17 L 164.44 380.14 L 164.39000000000001 381.1 L 164.33 382.06 L 164.27 383.02 L 164.21 383.99 L 164.15 384.95 L 164.09 385.91 L 164.04 386.87 L 163.99 387.84000000000003 L 163.95000000000002 388.8 L 163.92000000000002 389.76 L 163.89000000000001 390.73 L 163.87 391.69 L 163.85 392.65000000000003 L 163.83 393.61 L 163.82 394.58 L 163.82 395.54 L 163.81 396.5 L 163.81 397.46000000000004 Z" stroke="#000000" stroke-width="0.5" fill="#4682b4" /><path d="M 363.77 426.27 L 363.76 424.96000000000004 L 363.74 423.66 L 363.73 422.35 L 363.7 421.05 L 363.67 419.74 L 363.62 418.44 L 363.57 417.13 L 363.5 415.83 L 363.41 414.52 L 363.3 413.22 L 363.16 411.91 L 362.99 410.61 L 362.78000000000003 409.3 L 362.53000000000003 408.0 L 362.23 406.69 L 361.87 405.39 L 361.44 404.09000000000003 L 360.94 402.78000000000003 L 360.35 401.48 L 359.66 400.17 L 358.87 398.87 L 357.96 397.56 L 356.92 396.26 L 355.75 394.95 L 354.43 393.65000000000003 L 352.96 392.34000000000003 L 351.32 391.04 L 349.52 389.73 L 347.55 388.43 L 345.41 387.12 L 343.09000000000003 385.82 L 340.61 384.51 L 337.96 383.21000000000004 L 335.17 381.91 L 332.23 380.6 L 329.17 379.3 L 326.01 377.99 L 322.76 376.69 L 319.46 375.38 L 316.13 374.08 L 312.8 372.77 L 309.5 371.47 L 306.27 370.16 L 303.14 368.86 L 300.15000000000003 367.55 L 297.33 366.25 L 294.7 364.94 L 292.31 363.64 L 290.17 362.33 L 288.31 361.03000000000003 L 286.76 359.73 L 285.52 358.42 L 284.62 357.12 L 284.04 355.81 L 283.81 354.51 L 283.91 353.2 L 284.33 351.90000000000003 L 285.08 350.59000000000003 L 286.12 349.29 L 287.46 347.98 L 289.05 346.68 L 290.89 345.37 L 292.95 344.07 L 295.2 342.76 L 297.62 341.46 L 300.18 340.16 L 302.86 338.85 L 305.63 337.55 L 308.47 336.24 L 311.35 334.94 L 314.26 333.63 L 317.18 332.33 L 320.07 331.02 L 322.94 329.72 L 325.75 328.41 L 328.5 327.11 L 331.17 325.8 L 333.75 324.5 L 336.23 323.19 L 338.6 321.89 L 340.85 320.58 L 342.97 319.28000000000003 L 344.96 317.98 L 346.82 316.67 L 348.54 315.37 L 350.12 314.06 L 351.55 312.76 L 352.85 311.45 L 353.99 310.15000000000003 L 355.0 308.84000000000003 L 355.86 307.54 L 356.58 306.23 L 357.15000000000003 304.93 L 357.58 303.62 L 357.87 302.32 L 358.0 301.01 L 357.99 299.71 L 357.82 298.40000000000003 L 357.5 297.1 L 357.02 295.8 L 356.37 294.49 L 355.56 293.19 L 354.57 291.88 L 353.40000000000003 290.58 L 352.04 289.27 L 350.5 287.97 L 348.78000000000003 286.66 L 346.86 285.36 L 344.76 284.05 L 342.48 282.75 L 340.01 281.44 L 337.38 280.14 L 334.59000000000003 278.83 L 331.66 277.53000000000003 L 328.6 276.22 L 325.43 274.92 L 322.19 273.62 L 318.89 272.31 L 315.56 271.01 L 312.24 269.7 L 308.95 268.4 L 305.74 267.09000000000003 L 302.64 265.79 L 299.67 264.48 L 296.88 263.18 L 294.29 261.87 L 291.94 260.57 L 289.84000000000003 259.26 L 288.04 257.96 L 286.54 256.65 L 285.35 255.35 L 284.5 254.04 L 283.98 252.74 L 283.8 251.44 L 283.95 250.13 L 284.43 248.83 L 285.23 247.52 L 286.32 246.22 L 287.7 244.91 L 289.34000000000003 243.61 L 291.21 242.3 L 293.3 241.0 L 295.59000000000003 239.69 L 298.03000000000003 238.39000000000001 L 300.61 237.08 L 303.31 235.78 L 306.09000000000003 234.47 L 308.94 233.17000000000002 L 311.83 231.86 L 314.74 230.56 L 317.66 229.26 L 320.55 227.95000000000002 L 323.41 226.65 L 326.21 225.34 L 328.95 224.04 L 331.62 222.73000000000002 L 334.19 221.43 L 336.66 220.12 L 339.02 218.82 L 341.27 217.51 L 343.39 216.21 L 345.39 214.9 L 347.26 213.6 L 349.0 212.29 L 350.62 210.99 L 352.11 209.68 L 353.47 208.38 L 354.71 207.08 L 355.84000000000003 205.77 L 356.86 204.47 L 357.77 203.16 L 358.59000000000003 201.86 L 359.32 200.55 L 359.96 199.25 L 360.52 197.94 L 361.02 196.64000000000001 L 361.45 195.33 L 361.82 194.03 L 362.14 192.72 L 362.42 191.42000000000002 L 362.65000000000003 190.11 L 362.85 188.81 L 363.02 187.5 L 363.17 186.20000000000002 L 363.28000000000003 184.9 L 363.38 183.59 L 363.47 182.29 L 363.53000000000003 180.98 L 363.59000000000003 179.68 L 363.63 178.37 L 363.67 177.07 L 363.7 175.76 L 363.72 174.46 L 363.74 173.15 L 363.75 171.85 L 363.77 170.54 L 363.77 169.24 L 363.78000000000003 167.93 L 363.79 166.63 L 363.81 166.63 L 363.82 167.93 L 363.83 169.24 L 363.83 170.54 L 363.85 171.85 L 363.86 173.15 L 363.88 174.46 L 363.90000000000003 175.76 L 363.93 177.07 L 363.97 178.37 L 364.01 179.68 L 364.07 180.98 L 364.13 182.29 L 364.22 183.59 L 364.32 184.9 L 364.43 186.20000000000002 L 364.58 187.5 L 364.75 188.81 L 364.95 190.11 L 365.18 191.42000000000002 L 365.46 192.72 L 365.78000000000003 194.03 L 366.15000000000003 195.33 L 366.58 196.64000000000001 L 367.08 197.94 L 367.64 199.25 L 368.28000000000003 200.55 L 369.01 201.86 L 369.83 203.16 L 370.74 204.47 L 371.76 205.77 L 372.89 207.08 L 374.13 208.38 L 375.49 209.68 L 376.98 210.99 L 378.6 212.29 L 380.34000000000003 213.6 L 382.21 214.9 L 384.21000000000004 216.21 L 386.33 217.51 L 388.58 218.82 L 390.94 220.12 L 393.41 221.43 L 395.98 222.73000000000002 L 398.65000000000003 224.04 L 401.39 225.34 L 404.19 226.65 L 407.05 227.95000000000002 L 409.94 229.26 L 412.86 230.56 L 415.77 231.86 L 418.66 233.17000000000002 L 421.51 234.47 L 424.29 235.78 L 426.99 237.08 L 429.57 238.39000000000001 L 432.01 239.69 L 434.3 241.0 L 436.39 242.3 L 438.26 243.61 L 439.90000000000003 244.91 L 441.28000000000003 246.22 L 442.37 247.52 L 443.17 248.83 L 443.65000000000003 250.13 L 443.8 251.44 L 443.62 252.74 L 443.1 254.04 L 442.25 255.35 L 441.06 256.65 L 439.56 257.96 L 437.76 259.26 L 435.66 260.57 L 433.31 261.87 L 430.72 263.18 L 427.93 264.48 L 424.96000000000004 265.79 L 421.86 267.09000000000003 L 418.65000000000003 268.4 L 415.36 269.7 L 412.04 271.01 L 408.71000000000004 272.31 L 405.41 273.62 L 402.17 274.92 L 399.0 276.22 L 395.94 277.53000000000003 L 393.01 278.83 L 390.22 280.14 L 387.59000000000003 281.44 L 385.12 282.75 L 382.84000000000003 284.05 L 380.74 285.36 L 378.82 286.66 L 377.1 287.97 L 375.56 289.27 L 374.2 290.58 L 373.03000000000003 291.88 L 372.04 293.19 L 371.23 294.49 L 370.58 295.8 L 370.1 297.1 L 369.78000000000003 298.40000000000003 L 369.61 299.71 L 369.6 301.01 L 369.73 302.32 L 370.02 303.62 L 370.45 304.93 L 371.02 306.23 L 371.74 307.54 L 372.6 308.84000000000003 L 373.61 310.15000000000003 L 374.75 311.45 L 376.05 312.76 L 377.48 314.06 L 379.06 315.37 L 380.78000000000003 316.67 L 382.64 317.98 L 384.63 319.28000000000003 L 386.75 320.58 L 389.0 321.89 L 391.37 323.19 L 393.85 324.5 L 396.43 325.8 L 399.1 327.11 L 401.85 328.41 L 404.66 329.72 L 407.53000000000003 331.02 L 410.42 332.33 L 413.34000000000003 333.63 L 416.25 334.94 L 419.13 336.24 L 421.97 337.55 L 424.74 338.85 L 427.42 340.16 L 429.98 341.46 L 432.40000000000003 342.76 L 434.65000000000003 344.07 L 436.71000000000004 345.37 L 438.55 346.68 L 440.14 347.98 L 441.48 349.29 L 442.52 350.59000000000003 L 443.27 351.90000000000003 L 443.69 353.2 L 443.79 354.51 L 443.56 355.81 L 442.98 357.12 L 442.08 358.42 L 440.84000000000003 359.73 L 439.29 361.03000000000003 L 437.43 362.33 L 435.29 363.64 L 432.90000000000003 364.94 L 430.27 366.25 L 427.45 367.55 L 424.46000000000004 368.86 L 421.33 370.16 L 418.1 371.47 L 414.8 372.77 L 411.47 374.08 L 408.14 375.38 L 404.84000000000003 376.69 L 401.59000000000003 377.99 L 398.43 379.3 L 395.37 380.6 L 392.43 381.91 L 389.64 383.21000000000004 L 386.99 384.51 L 384.51 385.82 L 382.19 387.12 L 380.05 388.43 L 378.08 389.73 L 376.28000000000003 391.04 L 374.64 392.34000000000003 L 373.17 393.65000000000003 L 371.85 394.95 L 370.68 396.26 L 369.64 397.56 L 368.73 398.87 L 367.94 400.17 L 367.25 401.48 L 366.66 402.78000000000003 L 366.16 404.09000000000003 L 365.73 405.39 L 365.37 406.69 L 365.07 408.0 L 364.82 409.3 L 364.61 410.61 L 364.44 411.91 L 364.3 413.22 L 364.19 414.52 L 364.1 415.83 L 364.03000000000003 417.13 L 363.98 418.44 L 363.93 419.74 L 363.90000000000003 421.05 L 363.87 422.35 L 363.86 423.66 L 363.84000000000003 424.96000000000004 L 363.83 426.27 Z" stroke="#000000" stroke-width="0.5" fill="#4682b4" /><path d="M 563.66 322.78000000000003 L 563.5600000000001 321.54 L 563.4 320.31 L 563.14 319.07 L 562.75 317.83 L 562.17 316.6 L 561.33 315.36 L 560.17 314.13 L 558.58 312.89 L 556.5 311.65000000000003 L 553.83 310.42 L 550.51 309.18 L 546.51 307.95 L 541.82 306.71 L 536.49 305.47 L 530.62 304.24 L 524.36 303.0 L 517.9 301.77 L 511.45 300.53000000000003 L 505.26 299.29 L 499.55 298.06 L 494.54 296.82 L 490.39 295.59000000000003 L 487.22 294.35 L 485.07 293.11 L 483.96000000000004 291.88 L 483.8 290.64 L 484.5 289.41 L 485.92 288.17 L 487.90000000000003 286.93 L 490.28000000000003 285.7 L 492.92 284.46 L 495.7 283.23 L 498.51 281.99 L 501.28000000000003 280.75 L 503.97 279.52 L 506.57 278.28000000000003 L 509.06 277.05 L 511.44 275.81 L 513.72 274.57 L 515.9 273.34000000000003 L 517.96 272.1 L 519.89 270.87 L 521.67 269.63 L 523.29 268.39 L 524.72 267.16 L 525.97 265.92 L 527.04 264.69 L 527.95 263.45 L 528.72 262.21 L 529.38 260.98 L 529.97 259.74 L 530.51 258.51 L 531.05 257.27 L 531.61 256.03000000000003 L 532.22 254.8 L 532.89 253.56 L 533.65 252.33 L 534.49 251.09 L 535.42 249.85 L 536.42 248.62 L 537.48 247.38 L 538.57 246.15 L 539.67 244.91 L 540.76 243.67000000000002 L 541.82 242.44 L 542.84 241.20000000000002 L 543.8100000000001 239.97 L 544.75 238.73000000000002 L 545.66 237.49 L 546.5500000000001 236.26 L 547.42 235.02 L 548.28 233.78 L 549.13 232.55 L 549.95 231.31 L 550.74 230.08 L 551.49 228.84 L 552.2 227.6 L 552.86 226.37 L 553.48 225.13 L 554.0600000000001 223.9 L 554.6 222.66 L 555.12 221.42000000000002 L 555.62 220.19 L 556.09 218.95000000000002 L 556.5500000000001 217.72 L 556.97 216.48000000000002 L 557.36 215.24 L 557.71 214.01 L 558.02 212.77 L 558.28 211.54 L 558.51 210.3 L 558.71 209.06 L 558.88 207.83 L 559.0500000000001 206.59 L 559.22 205.36 L 559.41 204.12 L 559.6 202.88 L 559.8000000000001 201.65 L 560.01 200.41 L 560.21 199.18 L 560.4 197.94 L 560.57 196.70000000000002 L 560.71 195.47 L 560.82 194.23000000000002 L 560.89 193.0 L 560.91 191.76 L 560.9 190.52 L 560.85 189.29 L 560.77 188.05 L 560.67 186.82 L 560.5500000000001 185.58 L 560.4300000000001 184.34 L 560.33 183.11 L 560.25 181.87 L 560.2 180.64000000000001 L 560.21 179.4 L 560.27 178.16 L 560.38 176.93 L 560.5500000000001 175.69 L 560.77 174.46 L 561.02 173.22 L 561.3000000000001 171.98 L 561.59 170.75 L 561.87 169.51 L 562.13 168.28 L 562.35 167.04 L 562.53 165.8 L 562.66 164.57 L 562.73 163.33 L 562.74 162.1 L 562.7 160.86 L 562.61 159.62 L 562.49 158.39000000000001 L 562.35 157.15 L 562.19 155.92000000000002 L 562.03 154.68 L 561.88 153.44 L 561.75 152.21 L 561.65 150.97 L 561.58 149.74 L 561.5600000000001 148.5 L 561.57 147.26 L 561.63 146.03 L 561.72 144.79 L 561.84 143.56 L 561.97 142.32 L 562.12 141.08 L 562.28 139.85 L 562.4300000000001 138.61 L 562.58 137.38 L 562.72 136.14000000000001 L 562.85 134.9 L 562.97 133.67000000000002 L 563.08 132.43 L 563.1800000000001 131.2 L 563.26 129.96 L 563.34 128.72 L 563.4 127.49000000000001 L 563.45 126.25 L 563.48 125.01 L 563.49 123.78 L 563.48 122.54 L 563.45 121.31 L 563.39 120.07000000000001 L 563.3000000000001 118.83 L 563.19 117.60000000000001 L 563.0500000000001 116.36 L 562.88 115.13 L 562.7 113.89 L 562.51 112.65 L 562.3000000000001 111.42 L 562.11 110.18 L 561.9300000000001 108.95 L 561.77 107.71000000000001 L 561.65 106.47 L 561.58 105.24000000000001 L 561.5500000000001 104.0 L 561.58 102.77 L 561.66 101.53 L 561.78 100.29 L 561.94 99.06 L 562.13 97.82000000000001 L 562.33 96.59 L 562.54 95.35000000000001 L 562.75 94.11 L 562.94 92.88 L 563.12 91.64 L 563.27 90.41 L 563.4 89.17 L 563.5 87.93 L 563.59 86.7 L 563.65 85.46000000000001 L 563.7 84.23 L 563.73 82.99 L 563.76 81.75 L 563.77 80.52 L 563.78 79.28 L 563.79 78.05 L 563.79 76.81 L 563.8100000000001 76.81 L 563.8100000000001 78.05 L 563.82 79.28 L 563.83 80.52 L 563.84 81.75 L 563.87 82.99 L 563.9 84.23 L 563.95 85.46000000000001 L 564.01 86.7 L 564.1 87.93 L 564.2 89.17 L 564.33 90.41 L 564.48 91.64 L 564.66 92.88 L 564.85 94.11 L 565.0600000000001 95.35000000000001 L 565.27 96.59 L 565.47 97.82000000000001 L 565.66 99.06 L 565.82 100.29 L 565.94 101.53 L 566.02 102.77 L 566.0500000000001 104.0 L 566.02 105.24000000000001 L 565.95 106.47 L 565.83 107.71000000000001 L 565.67 108.95 L 565.49 110.18 L 565.3000000000001 111.42 L 565.09 112.65 L 564.9 113.89 L 564.72 115.13 L 564.5500000000001 116.36 L 564.41 117.60000000000001 L 564.3000000000001 118.83 L 564.21 120.07000000000001 L 564.15 121.31 L 564.12 122.54 L 564.11 123.78 L 564.12 125.01 L 564.15 126.25 L 564.2 127.49000000000001 L 564.26 128.72 L 564.34 129.96 L 564.42 131.2 L 564.52 132.43 L 564.63 133.67000000000002 L 564.75 134.9 L 564.88 136.14000000000001 L 565.02 137.38 L 565.17 138.61 L 565.32 139.85 L 565.48 141.08 L 565.63 142.32 L 565.76 143.56 L 565.88 144.79 L 565.97 146.03 L 566.03 147.26 L 566.04 148.5 L 566.02 149.74 L 565.95 150.97 L 565.85 152.21 L 565.72 153.44 L 565.57 154.68 L 565.41 155.92000000000002 L 565.25 157.15 L 565.11 158.39000000000001 L 564.99 159.62 L 564.9 160.86 L 564.86 162.1 L 564.87 163.33 L 564.94 164.57 L 565.07 165.8 L 565.25 167.04 L 565.47 168.28 L 565.73 169.51 L 566.01 170.75 L 566.3000000000001 171.98 L 566.58 173.22 L 566.83 174.46 L 567.0500000000001 175.69 L 567.22 176.93 L 567.33 178.16 L 567.39 179.4 L 567.4 180.64000000000001 L 567.35 181.87 L 567.27 183.11 L 567.17 184.34 L 567.0500000000001 185.58 L 566.9300000000001 186.82 L 566.83 188.05 L 566.75 189.29 L 566.7 190.52 L 566.69 191.76 L 566.71 193.0 L 566.78 194.23000000000002 L 566.89 195.47 L 567.03 196.70000000000002 L 567.2 197.94 L 567.39 199.18 L 567.59 200.41 L 567.8000000000001 201.65 L 568.0 202.88 L 568.19 204.12 L 568.38 205.36 L 568.5500000000001 206.59 L 568.72 207.83 L 568.89 209.06 L 569.09 210.3 L 569.32 211.54 L 569.58 212.77 L 569.89 214.01 L 570.24 215.24 L 570.63 216.48000000000002 L 571.0500000000001 217.72 L 571.51 218.95000000000002 L 571.98 220.19 L 572.48 221.42000000000002 L 573.0 222.66 L 573.54 223.9 L 574.12 225.13 L 574.74 226.37 L 575.4 227.6 L 576.11 228.84 L 576.86 230.08 L 577.65 231.31 L 578.47 232.55 L 579.32 233.78 L 580.1800000000001 235.02 L 581.0500000000001 236.26 L 581.94 237.49 L 582.85 238.73000000000002 L 583.79 239.97 L 584.76 241.20000000000002 L 585.78 242.44 L 586.84 243.67000000000002 L 587.9300000000001 244.91 L 589.03 246.15 L 590.12 247.38 L 591.1800000000001 248.62 L 592.1800000000001 249.85 L 593.11 251.09 L 593.95 252.33 L 594.71 253.56 L 595.38 254.8 L 595.99 256.03000000000003 L 596.5500000000001 257.27 L 597.09 258.51 L 597.63 259.74 L 598.22 260.98 L 598.88 262.21 L 599.65 263.45 L 600.5600000000001 264.69 L 601.63 265.92 L 602.88 267.16 L 604.3100000000001 268.39 L 605.9300000000001 269.63 L 607.71 270.87 L 609.64 272.1 L 611.7 273.34000000000003 L 613.88 274.57 L 616.16 275.81 L 618.54 277.05 L 621.03 278.28000000000003 L 623.63 279.52 L 626.32 280.75 L 629.09 281.99 L 631.9 283.23 L 634.6800000000001 284.46 L 637.32 285.7 L 639.7 286.93 L 641.6800000000001 288.17 L 643.1 289.41 L 643.8000000000001 290.64 L 643.64 291.88 L 642.53 293.11 L 640.38 294.35 L 637.21 295.59000000000003 L 633.0600000000001 296.82 L 628.0500000000001 298.06 L 622.34 299.29 L 616.15 300.53000000000003 L 609.7 301.77 L 603.24 303.0 L 596.98 304.24 L 591.11 305.47 L 585.78 306.71 L 581.09 307.95 L 577.09 309.18 L 573.77 310.42 L 571.1 311.65000000000003 L 569.02 312.89 L 567.4300000000001 314.13 L 566.27 315.36 L 565.4300000000001 316.6 L 564.85 317.83 L 564.46 319.07 L 564.2 320.31 L 564.04 321.54 L 563.94 322.78000000000003 Z" stroke="#000000" stroke-width="0.5" fill="#4682b4" /></g></svg>