<svg xmlns="http://www.w3.org/2000/svg" width="673" height="541" fill="black"><rect width="100%" height="100%" fill="white" /><line x1="59" y1="492" x2="659" y2="492" stroke="black" stroke-width="1" /><line x1="59" y1="42" x2="59" y2="492" stroke="black" stroke-width="1" /><line x1="59" y1="432" x2="659" y2="432" stroke="#ccc" stroke-width="1" /><line x1="59" y1="372" x2="659" y2="372" stroke="#ccc" stroke-width="1" /><line x1="59" y1="312" x2="659" y2="312" stroke="#ccc" stroke-width="1" /><line x1="59" y1="252" x2="659" y2="252" stroke="#ccc" stroke-width="1" /><line x1="59" y1="192" x2="659" y2="192" stroke="#ccc" stroke-width="1" /><line x1="59" y1="132" x2="659" y2="132" stroke="#ccc" stroke-width="1" /><line x1="59" y1="72" x2="659" y2="72" stroke="#ccc" stroke-width="1" /><text x="159" y="507" font-size="10" text-anchor="middle">Normal</text><line x1="159" y1="492" x2="159" y2="497" stroke="black" stroke-width="1" /><text x="359" y="507" font-size="10" text-anchor="middle">Bimodal</text><line x1="359" y1="492" x2="359" y2="497" stroke="black" stroke-width="1" /><text x="559" y="507" font-size="10" text-anchor="middle">Skewed</text><line x1="559" y1="492" x2="559" y2="497" stroke="black" stroke-width="1" /><line x1="54" y1="492" x2="59" y2="492" stroke="black" stroke-width="1" /><text x="51" y="495.5" font-size="10" text-anchor="end">-6</text><line x1="54" y1="432" x2="59" y2="432" stroke="black" stroke-width="1" /><text x="51" y="435.5" font-size="10" text-anchor="end">-4</text><line x1="54" y1="372" x2="59" y2="372" stroke="black" stroke-width="1" /><text x="51" y="375.5" font-size="10" text-anchor="end">-2</text><line x1="54" y1="312" x2="59" y2="312" stroke="black" stroke-width="1" /><text x="51" y="315.5" font-size="10" text-anchor="end">0</text><line x1="54" y1="252" x2="59" y2="252" stroke="black" stroke-width="1" /><text x="51" y="255.5" font-size="10" text-anchor="end">2</text><line x1="54" y1="192" x2="59" y2="192" stroke="black" stroke-width="1" /><text x="51" y="195.5" font-size="10" text-anchor="end">4</text><line x1="54" y1="132" x2="59" y2="132" stroke="black" stroke-width="1" /><text x="51" y="135.5" font-size="10" text-anchor="end">6</text><line x1="54" y1="72" x2="59" y2="72" stroke="black" stroke-width="1" /><text x="51" y="75.5" font-size="10" text-anchor="end">8</text><text x="14" y="270.5" font-size="14" text-anchor="middle" transform="rotate(-90,14,270.5)">Value</text><text x="336.5" y="21" font-size="16" text-anchor="middle">Violin Plot</text><path d="M 158.99748427885478 424.37432069222757 L 158.99611334853367 423.25123693393743 L 158.994126218723 422.1281531756473 L 158.99131644659943 421.0050694173572 L 158.9874418300213 419.88198565906714 L 158.98223274129262 418.758901900777 L 158.97540755063804 417.63581814248687 L 158.96669565015767 416.5127343841968 L 158.9558673341079 415.3896506259067 L 158.9427681429185 414.2665668676166 L 158.92735345459602 413.14348310932644 L 158.90971745748865 412.02039935103636 L 158.89010959886352 410.8973155927462 L 158.86893161183315 409.77423183445615 L 158.84670960453153 408.651148076166 L 158.8240385484132 407.52806431787593 L 158.80150061370995 406.4049805595858 L 158.77956362287776 405.2818968012957 L 158.7584706085667 404.1588130430056 L 158.7381351217067 403.03572928471544 L 158.71805865307624 401.91264552642537 L 158.69728569359776 400.78956176813523 L 158.67440838284693 399.66647800984515 L 158.64762671039793 398.543394251555 L 158.61486264974306 397.42031049326494 L 158.57391857836586 396.2972267349748 L 158.52266317665672 395.1741429766847 L 158.45922292813307 394.0510592183946 L 158.38215529614487 392.92797546010445 L 158.29058110558717 391.80489170181437 L 158.1842585429035 390.68180794352423 L 158.06358887173025 389.55872418523415 L 157.9295533115767 388.435640426944 L 157.78359004860994 387.3125566686539 L 157.62742840289832 386.1894729103638 L 157.4629022666377 385.0663891520737 L 157.29176600993233 383.9433053937836 L 157.1155328281959 382.82022163549345 L 156.93534861324238 381.6971378772034 L 156.75190543211383 380.57405411891324 L 156.56538984094004 379.45097036062316 L 156.37545499601572 378.327886602333 L 156.18120386913674 377.2048028440429 L 155.98117477710196 376.0817190857528 L 155.77332932008218 374.95863532746273 L 155.5550544901194 373.8355515691726 L 155.32320168287643 372.71246781088246 L 155.07419164154797 371.5893840525924 L 154.80421253826327 370.4663002943023 L 154.50952661318016 369.34321653601216 L 154.1868795976454 368.22013277772203 L 153.83397976853126 367.09704901943195 L 153.44998542861734 365.9739652611418 L 153.0359176658961 364.85088150285173 L 152.5949059943032 363.7277977445616 L 152.13218268564583 362.60471398627146 L 151.65476884004056 361.4816302279814 L 151.17083910015893 360.3585464696913 L 150.68880604602919 359.23546271140117 L 150.21622037672637 358.11237895311103 L 149.7586283825427 356.98929519482095 L 149.3185541947792 355.8662114365308 L 148.89477410941927 354.74312767824074 L 148.48202172553056 353.6200439199506 L 148.07120877674637 352.49696016166047 L 147.65017524819976 351.3738764033704 L 147.20490493209581 350.2507926450803 L 146.72107151395207 349.1277088867902 L 146.1857270734813 348.00462512850004 L 145.58891795692494 346.88154137020996 L 144.92501644148493 345.7584576119198 L 144.19358988085662 344.63537385362974 L 143.3996872495993 343.5122900953396 L 142.5534980955848 342.3892063370495 L 141.66942077186042 341.2661225787594 L 140.76465463427354 340.1430388204693 L 139.8574942880012 339.0199550621792 L 138.96554411382533 337.89687130388904 L 138.10408198691786 336.77378754559896 L 137.28477975407483 335.6507037873089 L 136.5149365908392 334.52762002901875 L 135.79730658097395 333.4045362707286 L 135.1305148475749 332.2814525124385 L 134.5099712385107 331.1583687541484 L 133.92912123909096 330.0352849958583 L 133.38083226427224 328.9122012375682 L 132.8587064627424 327.78911747927805 L 132.3581386226188 326.66603372098797 L 131.8769929388182 325.5429499626979 L 131.4158434128771 324.41986620440775 L 130.97779539677668 323.2967824461176 L 130.56796720447113 322.1736986878275 L 130.19275155777527 321.0506149295374 L 129.85899298435046 319.9275311712473 L 129.57321047817106 318.8044474129572 L 129.34096996746956 317.68136365466705 L 129.166475407055 316.558279896377 L 129.05240744330794 315.4351961380869 L 129 314.31211237979676 L 129.00931152127563 313.1890286215066 L 129.07962150207294 312.0659448632166 L 129.20986638920394 310.9428611049264 L 129.39902396472024 309.81977734663633 L 129.6463636749695 308.6966935883462 L 129.95150266408086 307.57360983005606 L 130.31424191925132 306.450526071766 L 130.73419942771437 305.3274423134759 L 131.21030033721925 304.20435855518576 L 131.74021908980123 303.0812747968956 L 132.31988726909054 301.95819103860555 L 132.943178264339 300.83510728031547 L 133.60185517732938 299.71202352202533 L 134.28582606676076 298.5889397637352 L 134.98369905278412 297.4658560054451 L 135.68357929449414 296.342772247155 L 136.37400998939174 295.2196884888649 L 137.04493694622334 294.09660473057477 L 137.68857338527957 292.97352097228463 L 138.30005674027936 291.85043721399455 L 138.8778177385451 290.7273534557045 L 139.4236180505529 289.60426969741434 L 139.9422508283594 288.4811859391242 L 140.4409343586309 287.3581021808341 L 140.92846024155332 286.235018422544 L 141.41418243511526 285.1119346642539 L 141.90695097302395 283.9888509059638 L 142.41410277361922 282.86576714767364 L 142.940620068602 281.74268338938356 L 143.48855320988162 280.6195996310935 L 144.05677863480787 279.49651587280334 L 144.6411260706679 278.3734321145132 L 145.2348652820814 277.2503483562231 L 145.82949734451233 276.127264597933 L 146.41575512969087 275.0041808396429 L 146.9846887797303 273.8810970813528 L 147.5286993193483 272.7580133230627 L 148.04238964549367 271.63492956477256 L 148.5231264373197 270.5118458064825 L 148.9712456903652 269.38876204819235 L 149.38988296614147 268.2656782899022 L 149.78446006845684 267.14259453161213 L 150.16190542038166 266.01951077332205 L 150.52971939919607 264.8964270150319 L 150.89501348304378 263.7733432567418 L 151.2636509017557 262.6502594984517 L 151.63959703773617 261.5271757401615 L 152.0245534011871 260.4040919818715 L 152.41790528126268 259.28100822358135 L 152.81696726372715 258.1579244652912 L 153.2174700112545 257.03484070700114 L 153.61420219128968 255.91175694871106 L 154.00170711883317 254.7886731904209 L 154.3749355771101 253.6655894321308 L 154.72977251972628 252.5425056738407 L 155.06338181129564 251.41942191555054 L 155.37434448671857 250.29633815726046 L 155.66259683220838 249.17325439897036 L 155.92920051899773 248.05017064068025 L 156.1759952330796 246.9270868823901 L 156.40519361933227 245.80400312410006 L 156.6189792020822 244.68091936580993 L 156.8191615100518 243.55783560751976 L 157.006930635678 242.4347518492297 L 157.18273772755003 241.3116680909396 L 157.34631024724874 240.18858433264947 L 157.49679297881156 239.06550057435936 L 157.632989525514 237.94241681606928 L 157.7536661138284 236.81933305777912 L 157.85787154144285 235.69624929948907 L 157.9452252428161 234.57316554119893 L 158.0161301965591 233.4500817829088 L 158.07187834061446 232.32699802461872 L 158.1146318818485 231.20391426632858 L 158.1472821205547 230.0808305080385 L 158.17320537172702 228.95774674974837 L 158.19595042072297 227.8346629914583 L 158.21890133495066 226.71157923316815 L 158.24496191210247 225.58849547487807 L 158.2763033189003 224.46541171658794 L 158.31420554673537 223.3423279582978 L 158.35900821902695 222.21924420000772 L 158.41016972023124 221.0961604417176 L 158.46641839906422 219.97307668342745 L 158.52596814305068 218.84999292513737 L 158.5867645008011 217.7269091668473 L 158.64672723129763 216.60382540855716 L 158.70396008605456 215.48074165026708 L 158.7569073120531 214.35765789197694 L 158.80444684435554 213.2345741336868 L 158.8459204331533 212.11149037539673 L 158.88110936450468 210.9884066171066 L 158.91016994588432 209.8653228588165 L 158.93354520670698 208.74223910052638 L 158.95186862172685 207.6191553422363 L 158.96587286452817 206.49607158394616 L 158.97631260808205 205.37298782565608 L 158.98390615057573 204.24990406736595 L 158.98929689795412 203.1268203090758 L 158.9930329321373 202.00373655078573 L 158.99556119456176 200.8806527924956 L 159.00443880543824 200.8806527924956 L 159.0069670678627 202.00373655078573 L 159.01070310204588 203.1268203090758 L 159.01609384942427 204.24990406736595 L 159.02368739191795 205.37298782565608 L 159.03412713547183 206.49607158394616 L 159.04813137827315 207.6191553422363 L 159.06645479329302 208.74223910052638 L 159.08983005411568 209.8653228588165 L 159.11889063549532 210.9884066171066 L 159.1540795668467 212.11149037539673 L 159.19555315564446 213.2345741336868 L 159.2430926879469 214.35765789197694 L 159.29603991394544 215.48074165026708 L 159.35327276870237 216.60382540855716 L 159.4132354991989 217.7269091668473 L 159.47403185694932 218.84999292513737 L 159.53358160093578 219.97307668342745 L 159.58983027976876 221.0961604417176 L 159.64099178097305 222.21924420000772 L 159.68579445326463 223.3423279582978 L 159.7236966810997 224.46541171658794 L 159.75503808789753 225.58849547487807 L 159.78109866504934 226.71157923316815 L 159.80404957927703 227.8346629914583 L 159.82679462827298 228.95774674974837 L 159.8527178794453 230.0808305080385 L 159.8853681181515 231.20391426632858 L 159.92812165938554 232.32699802461872 L 159.9838698034409 233.4500817829088 L 160.0547747571839 234.57316554119893 L 160.14212845855715 235.69624929948907 L 160.2463338861716 236.81933305777912 L 160.367010474486 237.94241681606928 L 160.50320702118844 239.06550057435936 L 160.65368975275126 240.18858433264947 L 160.81726227244997 241.3116680909396 L 160.993069364322 242.4347518492297 L 161.1808384899482 243.55783560751976 L 161.3810207979178 244.68091936580993 L 161.59480638066773 245.80400312410006 L 161.8240047669204 246.9270868823901 L 162.07079948100227 248.05017064068025 L 162.33740316779162 249.17325439897036 L 162.62565551328143 250.29633815726046 L 162.93661818870436 251.41942191555054 L 163.27022748027372 252.5425056738407 L 163.6250644228899 253.6655894321308 L 163.99829288116683 254.7886731904209 L 164.38579780871032 255.91175694871106 L 164.7825299887455 257.03484070700114 L 165.18303273627285 258.1579244652912 L 165.58209471873732 259.28100822358135 L 165.9754465988129 260.4040919818715 L 166.36040296226383 261.5271757401615 L 166.7363490982443 262.6502594984517 L 167.10498651695622 263.7733432567418 L 167.47028060080393 264.8964270150319 L 167.83809457961834 266.01951077332205 L 168.21553993154316 267.14259453161213 L 168.61011703385853 268.2656782899022 L 169.0287543096348 269.38876204819235 L 169.4768735626803 270.5118458064825 L 169.95761035450633 271.63492956477256 L 170.4713006806517 272.7580133230627 L 171.0153112202697 273.8810970813528 L 171.58424487030913 275.0041808396429 L 172.17050265548767 276.127264597933 L 172.7651347179186 277.2503483562231 L 173.3588739293321 278.3734321145132 L 173.94322136519213 279.49651587280334 L 174.51144679011838 280.6195996310935 L 175.059379931398 281.74268338938356 L 175.58589722638078 282.86576714767364 L 176.09304902697605 283.9888509059638 L 176.58581756488474 285.1119346642539 L 177.07153975844668 286.235018422544 L 177.5590656413691 287.3581021808341 L 178.0577491716406 288.4811859391242 L 178.5763819494471 289.60426969741434 L 179.1221822614549 290.7273534557045 L 179.69994325972064 291.85043721399455 L 180.31142661472043 292.97352097228463 L 180.95506305377666 294.09660473057477 L 181.62599001060826 295.2196884888649 L 182.31642070550586 296.342772247155 L 183.01630094721588 297.4658560054451 L 183.71417393323924 298.5889397637352 L 184.39814482267062 299.71202352202533 L 185.056821735661 300.83510728031547 L 185.68011273090946 301.95819103860555 L 186.25978091019877 303.0812747968956 L 186.78969966278075 304.20435855518576 L 187.26580057228563 305.3274423134759 L 187.68575808074868 306.450526071766 L 188.04849733591914 307.57360983005606 L 188.3536363250305 308.6966935883462 L 188.60097603527976 309.81977734663633 L 188.79013361079606 310.9428611049264 L 188.92037849792706 312.0659448632166 L 188.99068847872437 313.1890286215066 L 189 314.31211237979676 L 188.94759255669206 315.4351961380869 L 188.833524592945 316.558279896377 L 188.65903003253044 317.68136365466705 L 188.42678952182894 318.8044474129572 L 188.14100701564954 319.9275311712473 L 187.80724844222473 321.0506149295374 L 187.43203279552887 322.1736986878275 L 187.02220460322332 323.2967824461176 L 186.5841565871229 324.41986620440775 L 186.1230070611818 325.5429499626979 L 185.6418613773812 326.66603372098797 L 185.1412935372576 327.78911747927805 L 184.61916773572776 328.9122012375682 L 184.07087876090904 330.0352849958583 L 183.4900287614893 331.1583687541484 L 182.8694851524251 332.2814525124385 L 182.20269341902605 333.4045362707286 L 181.4850634091608 334.52762002901875 L 180.71522024592517 335.6507037873089 L 179.89591801308214 336.77378754559896 L 179.03445588617467 337.89687130388904 L 178.1425057119988 339.0199550621792 L 177.23534536572646 340.1430388204693 L 176.33057922813958 341.2661225787594 L 175.4465019044152 342.3892063370495 L 174.6003127504007 343.5122900953396 L 173.80641011914338 344.63537385362974 L 173.07498355851507 345.7584576119198 L 172.41108204307506 346.88154137020996 L 171.8142729265187 348.00462512850004 L 171.27892848604793 349.1277088867902 L 170.79509506790419 350.2507926450803 L 170.34982475180024 351.3738764033704 L 169.92879122325363 352.49696016166047 L 169.51797827446944 353.6200439199506 L 169.10522589058073 354.74312767824074 L 168.6814458052208 355.8662114365308 L 168.2413716174573 356.98929519482095 L 167.78377962327363 358.11237895311103 L 167.31119395397081 359.23546271140117 L 166.82916089984107 360.3585464696913 L 166.34523115995944 361.4816302279814 L 165.86781731435417 362.60471398627146 L 165.4050940056968 363.7277977445616 L 164.9640823341039 364.85088150285173 L 164.55001457138266 365.9739652611418 L 164.16602023146874 367.09704901943195 L 163.8131204023546 368.22013277772203 L 163.49047338681984 369.34321653601216 L 163.19578746173673 370.4663002943023 L 162.92580835845203 371.5893840525924 L 162.67679831712357 372.71246781088246 L 162.4449455098806 373.8355515691726 L 162.22667067991782 374.95863532746273 L 162.01882522289804 376.0817190857528 L 161.81879613086326 377.2048028440429 L 161.62454500398428 378.327886602333 L 161.43461015905996 379.45097036062316 L 161.24809456788617 380.57405411891324 L 161.06465138675762 381.6971378772034 L 160.8844671718041 382.82022163549345 L 160.70823399006767 383.9433053937836 L 160.5370977333623 385.0663891520737 L 160.37257159710168 386.1894729103638 L 160.21640995139006 387.3125566686539 L 160.0704466884233 388.435640426944 L 159.93641112826975 389.55872418523415 L 159.8157414570965 390.68180794352423 L 159.70941889441283 391.80489170181437 L 159.61784470385513 392.92797546010445 L 159.54077707186693 394.0510592183946 L 159.47733682334328 395.1741429766847 L 159.42608142163414 396.2972267349748 L 159.38513735025694 397.42031049326494 L 159.35237328960207 398.543394251555 L 159.32559161715307 399.66647800984515 L 159.30271430640224 400.78956176813523 L 159.28194134692376 401.91264552642537 L 159.2618648782933 403.03572928471544 L 159.2415293914333 404.1588130430056 L 159.22043637712224 405.2818968012957 L 159.19849938629005 406.4049805595858 L 159.1759614515868 407.52806431787593 L 159.15329039546847 408.651148076166 L 159.13106838816685 409.77423183445615 L 159.10989040113648 410.8973155927462 L 159.09028254251135 412.02039935103636 L 159.07264654540398 413.14348310932644 L 159.0572318570815 414.2665668676166 L 159.0441326658921 415.3896506259067 L 159.03330434984233 416.5127343841968 L 159.02459244936196 417.63581814248687 L 159.01776725870738 418.758901900777 L 159.0125581699787 419.88198565906714 L 159.00868355340057 421.0050694173572 L 159.005873781277 422.1281531756473 L 159.00388665146633 423.25123693393743 L 159.00251572114522 424.37432069222757 Z" stroke="black" stroke-width="0.5" fill="steelblue" /><path d="M 358.9883821794993 457.97619035757623 L 358.98411832773945 456.4540389341888 L 358.97845299746473 454.93188751080135 L 358.97098503417453 453.40973608741393 L 358.96121815983753 451.8875846640265 L 358.9485442904652 450.36543324063905 L 358.93222550671265 448.84328181725164 L 358.91137498160373 447.3211303938642 L 358.8849372920154 445.79897897047675 L 358.85166867115066 444.2768275470894 L 358.81011789260276 442.7546761237019 L 358.7586086064208 441.2325247003145 L 358.69522406667573 439.71037327692704 L 358.6177952908197 438.18822185353963 L 358.52389376603156 436.6660704301522 L 358.41082985960753 435.1439190067648 L 358.275658092994 433.62176758337733 L 358.1151903972244 432.0996161599899 L 357.92601837770695 430.5774647366025 L 357.704545476528 429.05531331321504 L 357.4470297302541 427.5331618898276 L 357.14963758166294 426.0110104664402 L 356.8085089172022 424.4888590430528 L 356.41983317163806 422.9667076196653 L 355.97993597164407 421.4445561962779 L 355.48537538630904 419.92240477289045 L 354.93304642122973 418.40025334950303 L 354.32029194209974 416.8781019261156 L 353.6450177538189 415.3559505027282 L 352.90580910526285 413.8337990793408 L 352.10204545461244 412.3116476559533 L 351.23400993609806 410.7894962325659 L 350.3029896406982 409.26734480917844 L 349.31136258877 407.745193385791 L 348.26266716213564 406.2230419624036 L 347.1616498076098 404.7008905390162 L 346.01428705200124 403.17873911562873 L 344.827778303682 401.6565876922413 L 343.6105065726496 400.1344362688539 L 342.3719651223437 398.6122848454665 L 341.1226491601362 397.090133422079 L 339.87391295024463 395.5679819986916 L 338.6377941460111 394.0458305753042 L 337.4268086243492 392.5236791519167 L 336.2537205857184 391.0015277285293 L 335.13129407024275 389.47937630514184 L 334.07203324235184 387.9572248817544 L 333.0879197230929 386.435073458367 L 332.19015582170516 384.9129220349796 L 331.38892267435125 383.3907706115922 L 330.69316200021797 381.8686191882047 L 330.11038942466075 380.3464677648173 L 329.64654611849164 378.82431634142984 L 329.30589391675215 377.3021649180424 L 329.090957193686 375.780013494655 L 329.0025126918101 374.2578620712676 L 329.0396263575255 372.7357106478801 L 329.19973415679607 371.2135592244927 L 329.47876196271625 369.6914078011053 L 329.87127804010083 368.16925637771783 L 330.3706704961385 366.6471049543304 L 330.9693413862183 365.124953530943 L 331.6589089905535 363.6028021075556 L 332.4304101028593 362.0806506841682 L 333.27449495298265 360.5584992607807 L 334.1816085441999 359.03634783739324 L 335.1421536200835 357.5141964140058 L 336.14663206568827 355.9920449906184 L 337.1857631670129 354.469893567231 L 338.2505786791576 352.9477421438436 L 339.33249597961435 351.42559072045617 L 340.42337162399684 349.9034392970687 L 341.5155383219251 348.38128787368123 L 342.6018286882272 346.8591364502938 L 343.6755891097842 345.3369850269064 L 344.7306867423021 343.814833603519 L 345.76151208009134 342.2926821801316 L 346.7629788089596 340.77053075674417 L 347.73052184953826 339.24837933335675 L 348.66009371702336 337.7262279099693 L 349.548158645435 336.2040764865818 L 350.39168341561367 334.6819250631944 L 351.18812353021724 333.159773639807 L 351.9354033156326 331.6376222164195 L 352.6318886952943 330.1154707930321 L 353.27635174472334 328.5933193696447 L 353.8679266612709 327.0711679462572 L 354.4060574047414 325.5490165228698 L 354.8904379268752 324.0268650994824 L 355.32094654703695 322.504713676095 L 355.69757659380497 320.9825622527075 L 356.02036587385993 319.46041082932015 L 356.28932782078016 317.9382594059327 L 356.5043873021816 316.4161079825452 L 356.66532402366664 314.8939565591578 L 356.77172627441377 313.3718051357704 L 356.82295743378035 311.849653712383 L 356.81813722897425 310.32750228899556 L 356.75613923121796 308.80535086560815 L 356.6356055315953 307.2831994422207 L 356.4549789741543 305.7610480188332 L 356.2125527636733 304.2388965954458 L 355.90653672335355 302.7167451720584 L 355.5351389619724 301.19459374867097 L 355.0966612238684 299.67244232528355 L 354.58960573809117 298.1502909018961 L 354.0127909531695 296.6281394785086 L 353.36547314001746 295.1059880551212 L 352.64747046919643 293.5838366317338 L 351.85928582645573 292.0616852083464 L 351.00222433445333 290.53953378495896 L 350.07850131731476 289.01738236157155 L 349.0913363024842 287.4952309381841 L 348.0450286296366 285.9730795147966 L 346.9450103595735 284.4509280914092 L 345.7978724760003 282.9287766680218 L 344.61136087381857 281.40662524463437 L 343.3943393441095 279.88447382124696 L 342.1567177007844 278.3623223978595 L 340.909344333793 276.840170974472 L 339.66386378809386 275.3180195510846 L 338.43254140747985 273.7958681276972 L 337.2280585820411 272.2737167043098 L 336.0632836177165 270.75156528092236 L 334.9510246168762 269.2294138575349 L 333.90377192775117 267.7072624341475 L 332.9334385992513 266.1851110107601 L 332.0511077891903 264.6629595873726 L 331.26679615979026 263.1408081639852 L 330.58924192123703 261.61865674059777 L 330.02572534829756 260.0965053172103 L 329.58192832493927 258.5743538938229 L 329.2618378276708 257.05220247043553 L 329.06769632897385 255.53005104704803 L 329 254.00789962366062 L 329.05754344440254 252.48574820027318 L 329.2375076364884 250.9635967768857 L 329.5355858962504 249.44144535349835 L 329.9461412262533 247.9192939301109 L 330.4623872520536 246.3971425067235 L 331.0765844090546 244.87499108333603 L 331.78024292874346 243.35283965994861 L 332.56432458274634 241.83068823656117 L 333.41943599436865 240.30853681317382 L 334.3360075427576 238.78638538978635 L 335.30445335842336 237.26423396639893 L 336.3153095191712 235.74208254301146 L 337.3593491762573 234.21993111962405 L 338.42767485140223 232.69777969623664 L 339.5117894416193 231.17562827284917 L 340.6036484701882 229.65347684946175 L 341.69569677802906 228.13132542607428 L 342.78089314260063 226.60917400268687 L 343.85272625627096 225.08702257929946 L 344.9052251373388 223.56487115591204 L 345.932966452447 222.04271973252457 L 346.9310804826893 220.52056830913716 L 347.8952566576869 218.9984168857497 L 348.82174880044727 217.47626546236233 L 349.7073795484534 215.95411403897486 L 350.54954290339714 214.43196261558745 L 351.34620355162986 212.90981119220004 L 352.09589150424233 211.38765976881263 L 352.7976907208703 209.86550834542516 L 353.4512206756058 208.34335692203769 L 354.0566102518751 206.82120549865027 L 354.6144638612847 205.2990540752628 L 355.1258202114919 203.77690265187545 L 355.5921046454289 202.25475122848798 L 356.01507639229516 200.73259980510062 L 356.3967723754477 199.21044838171315 L 356.7394493938818 197.68829695832574 L 357.04552652745576 196.16614553493827 L 357.31752952008696 194.64399411155085 L 357.55803868970304 193.12184268816344 L 357.76964162646277 191.59969126477603 L 357.9548916033735 190.07753984138856 L 358.1162722680287 188.55538841800114 L 358.25616884000345 187.03323699461367 L 358.3768457294505 185.51108557122626 L 358.4804302358087 183.9889341478388 L 358.56890179110263 182.46678272445143 L 358.644086082877 180.94463130106402 L 358.70765332412867 179.42247987767655 L 358.76111992385296 177.90032845428914 L 358.80585284124413 176.37817703090167 L 358.8430759671575 174.85602560751425 L 358.8738779562589 173.33387418412684 L 358.8992210217627 171.81172276073943 L 358.9199502931852 170.28957133735196 L 358.9368034198809 168.76741991396455 L 358.9504201753997 167.24526849057708 L 358.96135187813377 165.72311706718966 L 358.97007049223123 164.20096564380225 L 358.97697731043354 162.67881422041484 L 358.9824111491403 161.15666279702742 L 358.98665600766253 159.63451137364 L 358.9899481602472 158.11235995025254 L 358.9924826627129 156.59020852686513 L 358.99441926665554 155.06805710347766 L 359.00558073334446 155.06805710347766 L 359.0075173372871 156.59020852686513 L 359.0100518397528 158.11235995025254 L 359.01334399233747 159.63451137364 L 359.0175888508597 161.15666279702742 L 359.02302268956646 162.67881422041484 L 359.02992950776877 164.20096564380225 L 359.03864812186623 165.72311706718966 L 359.0495798246003 167.24526849057708 L 359.0631965801191 168.76741991396455 L 359.0800497068148 170.28957133735196 L 359.1007789782373 171.81172276073943 L 359.1261220437411 173.33387418412684 L 359.1569240328425 174.85602560751425 L 359.19414715875587 176.37817703090167 L 359.23888007614704 177.90032845428914 L 359.29234667587133 179.42247987767655 L 359.355913917123 180.94463130106402 L 359.43109820889737 182.46678272445143 L 359.5195697641913 183.9889341478388 L 359.6231542705495 185.51108557122626 L 359.74383115999655 187.03323699461367 L 359.8837277319713 188.55538841800114 L 360.0451083966265 190.07753984138856 L 360.23035837353723 191.59969126477603 L 360.44196131029696 193.12184268816344 L 360.68247047991304 194.64399411155085 L 360.95447347254424 196.16614553493827 L 361.2605506061182 197.68829695832574 L 361.6032276245523 199.21044838171315 L 361.98492360770484 200.73259980510062 L 362.4078953545711 202.25475122848798 L 362.8741797885081 203.77690265187545 L 363.3855361387153 205.2990540752628 L 363.9433897481249 206.82120549865027 L 364.5487793243942 208.34335692203769 L 365.2023092791297 209.86550834542516 L 365.90410849575767 211.38765976881263 L 366.65379644837014 212.90981119220004 L 367.45045709660286 214.43196261558745 L 368.2926204515466 215.95411403897486 L 369.17825119955273 217.47626546236233 L 370.1047433423131 218.9984168857497 L 371.0689195173107 220.52056830913716 L 372.067033547553 222.04271973252457 L 373.0947748626612 223.56487115591204 L 374.14727374372904 225.08702257929946 L 375.21910685739937 226.60917400268687 L 376.30430322197094 228.13132542607428 L 377.3963515298118 229.65347684946175 L 378.4882105583807 231.17562827284917 L 379.57232514859777 232.69777969623664 L 380.6406508237427 234.21993111962405 L 381.6846904808288 235.74208254301146 L 382.69554664157664 237.26423396639893 L 383.6639924572424 238.78638538978635 L 384.58056400563135 240.30853681317382 L 385.43567541725366 241.83068823656117 L 386.21975707125654 243.35283965994861 L 386.9234155909454 244.87499108333603 L 387.5376127479464 246.3971425067235 L 388.0538587737467 247.9192939301109 L 388.4644141037496 249.44144535349835 L 388.7624923635116 250.9635967768857 L 388.94245655559746 252.48574820027318 L 389 254.00789962366062 L 388.93230367102615 255.53005104704803 L 388.7381621723292 257.05220247043553 L 388.41807167506073 258.5743538938229 L 387.97427465170244 260.0965053172103 L 387.41075807876297 261.61865674059777 L 386.73320384020974 263.1408081639852 L 385.9488922108097 264.6629595873726 L 385.0665614007487 266.1851110107601 L 384.09622807224883 267.7072624341475 L 383.0489753831238 269.2294138575349 L 381.9367163822835 270.75156528092236 L 380.7719414179589 272.2737167043098 L 379.56745859252015 273.7958681276972 L 378.33613621190614 275.3180195510846 L 377.090655666207 276.840170974472 L 375.8432822992156 278.3623223978595 L 374.6056606558905 279.88447382124696 L 373.38863912618143 281.40662524463437 L 372.2021275239997 282.9287766680218 L 371.0549896404265 284.4509280914092 L 369.9549713703634 285.9730795147966 L 368.9086636975158 287.4952309381841 L 367.92149868268524 289.01738236157155 L 366.99777566554667 290.53953378495896 L 366.14071417354427 292.0616852083464 L 365.35252953080357 293.5838366317338 L 364.63452685998254 295.1059880551212 L 363.9872090468305 296.6281394785086 L 363.41039426190883 298.1502909018961 L 362.9033387761316 299.67244232528355 L 362.4648610380276 301.19459374867097 L 362.09346327664645 302.7167451720584 L 361.7874472363267 304.2388965954458 L 361.5450210258457 305.7610480188332 L 361.3643944684047 307.2831994422207 L 361.24386076878204 308.80535086560815 L 361.18186277102575 310.32750228899556 L 361.17704256621965 311.849653712383 L 361.22827372558623 313.3718051357704 L 361.33467597633336 314.8939565591578 L 361.4956126978184 316.4161079825452 L 361.71067217921984 317.9382594059327 L 361.97963412614007 319.46041082932015 L 362.30242340619503 320.9825622527075 L 362.67905345296305 322.504713676095 L 363.1095620731248 324.0268650994824 L 363.5939425952586 325.5490165228698 L 364.1320733387291 327.0711679462572 L 364.72364825527666 328.5933193696447 L 365.3681113047057 330.1154707930321 L 366.0645966843674 331.6376222164195 L 366.81187646978276 333.159773639807 L 367.60831658438633 334.6819250631944 L 368.451841354565 336.2040764865818 L 369.33990628297664 337.7262279099693 L 370.26947815046174 339.24837933335675 L 371.2370211910404 340.77053075674417 L 372.23848791990866 342.2926821801316 L 373.2693132576979 343.814833603519 L 374.3244108902158 345.3369850269064 L 375.3981713117728 346.8591364502938 L 376.4844616780749 348.38128787368123 L 377.57662837600316 349.9034392970687 L 378.66750402038565 351.42559072045617 L 379.7494213208424 352.9477421438436 L 380.8142368329871 354.469893567231 L 381.85336793431173 355.9920449906184 L 382.8578463799165 357.5141964140058 L 383.8183914558001 359.03634783739324 L 384.72550504701735 360.5584992607807 L 385.5695898971407 362.0806506841682 L 386.3410910094465 363.6028021075556 L 387.0306586137817 365.124953530943 L 387.6293295038615 366.6471049543304 L 388.12872195989917 368.16925637771783 L 388.52123803728375 369.6914078011053 L 388.80026584320393 371.2135592244927 L 388.9603736424745 372.7357106478801 L 388.9974873081899 374.2578620712676 L 388.909042806314 375.780013494655 L 388.69410608324785 377.3021649180424 L 388.35345388150836 378.82431634142984 L 387.88961057533925 380.3464677648173 L 387.30683799978203 381.8686191882047 L 386.61107732564875 383.3907706115922 L 385.80984417829484 384.9129220349796 L 384.9120802769071 386.435073458367 L 383.92796675764816 387.9572248817544 L 382.86870592975725 389.47937630514184 L 381.7462794142816 391.0015277285293 L 380.5731913756508 392.5236791519167 L 379.3622058539889 394.0458305753042 L 378.12608704975537 395.5679819986916 L 376.8773508398638 397.090133422079 L 375.6280348776563 398.6122848454665 L 374.3894934273504 400.1344362688539 L 373.172221696318 401.6565876922413 L 371.98571294799876 403.17873911562873 L 370.8383501923902 404.7008905390162 L 369.73733283786436 406.2230419624036 L 368.68863741123 407.745193385791 L 367.6970103593018 409.26734480917844 L 366.76599006390194 410.7894962325659 L 365.89795454538756 412.3116476559533 L 365.09419089473715 413.8337990793408 L 364.3549822461811 415.3559505027282 L 363.67970805790026 416.8781019261156 L 363.06695357877027 418.40025334950303 L 362.51462461369096 419.92240477289045 L 362.02006402835593 421.4445561962779 L 361.58016682836194 422.9667076196653 L 361.1914910827978 424.4888590430528 L 360.85036241833706 426.0110104664402 L 360.5529702697459 427.5331618898276 L 360.295454523472 429.05531331321504 L 360.07398162229305 430.5774647366025 L 359.8848096027756 432.0996161599899 L 359.724341907006 433.62176758337733 L 359.58917014039247 435.1439190067648 L 359.47610623396844 436.6660704301522 L 359.3822047091803 438.18822185353963 L 359.30477593332427 439.71037327692704 L 359.2413913935792 441.2325247003145 L 359.18988210739724 442.7546761237019 L 359.14833132884934 444.2768275470894 L 359.1150627079846 445.79897897047675 L 359.08862501839627 447.3211303938642 L 359.06777449328735 448.84328181725164 L 359.0514557095348 450.36543324063905 L 359.03878184016247 451.8875846640265 L 359.02901496582547 453.40973608741393 L 359.02154700253527 454.93188751080135 L 359.01588167226055 456.4540389341888 L 359.0116178205007 457.97619035757623 Z" stroke="black" stroke-width="0.5" fill="steelblue" /><path d="M 558.9474964636778 337.24165547230257 L 558.9094536450117 335.79962898767997 L 558.8479953860967 334.3576025030573 L 558.7515542331893 332.91557601843465 L 558.6045520365266 331.47354953381205 L 558.386897861416 330.03152304918933 L 558.0738643049594 328.58949656456673 L 557.6365544115537 327.1474700799441 L 557.0431530127452 325.7054435953214 L 556.2610851201532 324.2634171106988 L 555.260076225296 322.8213906260762 L 554.015935936926 321.37936414145355 L 552.5146948540485 319.9373376568309 L 550.7565560338217 318.4953111722083 L 548.7590230688863 317.05328468758563 L 546.558575604291 315.611258202963 L 544.2103990539999 314.1692317183403 L 541.7859283598293 312.7272052337177 L 539.3682956139918 311.28517874909505 L 537.0461152638132 309.8431522644724 L 534.9063276820032 308.40112577984974 L 533.0269916169651 306.95909929522713 L 531.4709337549724 305.51707281060453 L 530.2810287756295 304.0750463259818 L 529.4776281071669 302.6330198413592 L 529.0583350132647 301.1909933567366 L 529 299.7489668721139 L 529.2625381379753 298.3069403874913 L 529.7939840885565 296.8649139028687 L 530.5361139276894 295.422887418246 L 531.429968280164 293.9808609336234 L 532.4206902640782 292.5388344490008 L 533.4612229998742 291.09680796437806 L 534.5145768713977 289.65478147975546 L 535.5545625683317 288.21275499513285 L 536.5650794615774 286.7707285105102 L 537.5382334475855 285.32870202588754 L 538.4717106950608 283.8866755412649 L 539.3659258049356 282.4446490566422 L 540.2214698186873 281.0026225720196 L 541.0372938079774 279.56059608739696 L 541.8098881119939 278.1185696027743 L 542.5334906331411 276.6765431181517 L 543.2011324829114 275.23451663352904 L 543.8061613168903 273.7924901489064 L 544.343813283521 272.3504636642838 L 544.8124469498905 270.9084371796612 L 545.214187358359 269.46641069503846 L 545.5549096429924 268.02438421041586 L 545.8436626801928 266.5823577257932 L 546.0917454699365 265.14033124117054 L 546.311677399179 263.69830475654794 L 546.5162535505139 262.25627827192534 L 546.7177790545363 260.8142517873026 L 546.9274761470264 259.37222530268 L 547.154993920278 257.9301988180574 L 547.4079451046192 256.4881723334347 L 547.6914427298183 255.0461458488121 L 548.0076860489904 253.60411936418944 L 548.3557122304345 252.1620928795668 L 548.7314541120379 250.7200663949442 L 549.1282074457 249.2780399103215 L 549.5375195810161 247.8360134256989 L 549.9503930624059 246.39398694107626 L 550.3585917750183 244.9519604564536 L 550.7557818949916 243.50993397183095 L 551.1382577374083 242.06790748720834 L 551.505093215778 240.62588100258566 L 551.8576991137747 239.18385451796306 L 552.1989148779455 237.7418280333404 L 552.5318781312014 236.29980154871777 L 552.8589629231172 234.8577750640951 L 553.1810465018152 233.41574857947245 L 553.4972651630686 231.97372209484985 L 553.8052826596078 230.5316956102272 L 554.1019590664794 229.0896691256046 L 554.3842104158922 227.64764264098193 L 554.6498134112095 226.20561615635933 L 554.8979403232898 224.76358967173667 L 555.129293953274 223.321563187114 L 555.3458256410183 221.8795367024913 L 555.5501300162967 220.4375102178687 L 555.744690876751 218.9954837332461 L 555.9311849148642 217.55345724862343 L 556.11002848326 216.11143076400083 L 556.2802848234146 214.66940427937817 L 556.4399535753927 213.2273777947555 L 556.5865654978365 211.78535131013285 L 556.7179280259089 210.34332482551025 L 556.8328307202213 208.9012983408876 L 556.9315323853024 207.459271856265 L 557.0159093557985 206.01724537164233 L 557.0892310530228 204.57521888701967 L 557.1556209090272 203.13319240239707 L 557.2193338869359 201.69116591777436 L 557.2840179545032 200.24913943315175 L 557.3521189264029 198.80711294852915 L 557.4245415755468 197.3650864639065 L 557.5006105123689 195.92305997928383 L 557.5783026161753 194.48103349466123 L 557.654667849863 193.03900701003852 L 557.726329309318 191.59698052541592 L 557.7899589250911 190.15495404079326 L 557.8426556915015 188.71292755617065 L 557.882195865249 187.27090107154805 L 557.9071648744763 185.82887458692534 L 557.9170071659393 184.38684810230274 L 557.9120372182966 182.94482161768008 L 557.8934435976453 181.50279513305742 L 557.863295002403 180.06076864843476 L 557.8245324681777 178.61874216381216 L 557.780914697472 177.1767156791895 L 557.73688010025 175.7346891945669 L 557.6973010181232 174.29266270994424 L 557.6671292864837 172.85063622532158 L 557.6509607484255 171.40860974069898 L 557.6525713030458 169.96658325607626 L 557.6744914997444 168.52455677145372 L 557.7176866589733 167.08253028683106 L 557.7813950635436 165.6405038022084 L 557.8631516117475 164.19847731758574 L 557.9589944864191 162.75645083296314 L 558.0638244920586 161.31442434834042 L 558.1718662685996 159.87239786371782 L 558.2771708494721 158.43037137909522 L 558.3741004964457 156.98834489447256 L 558.4577474371375 155.54631840984996 L 558.5242544104916 154.10429192522724 L 558.5710225834521 152.66226544060464 L 558.5968077527544 151.22023895598198 L 558.6017164296958 149.77821247135932 L 558.5871187314625 148.33618598673672 L 558.5554957826463 146.89415950211412 L 558.5102373220644 145.4521330174914 L 558.4554023902177 144.0101065328688 L 558.3954539136927 142.56808004824614 L 558.3349775330523 141.1260535636235 L 558.2783962130698 139.68402707900088 L 558.2296945494913 138.24200059437823 L 558.1921694563214 136.79997410975562 L 558.168226134856 135.35794762513297 L 558.1592388400544 133.9159211405103 L 558.1654938893191 132.47389465588765 L 558.186226710749 131.03186817126505 L 558.2197552021601 129.5898416866424 L 558.2636990108848 128.14781520201973 L 558.3152605685481 126.70578871739713 L 558.3715318983626 125.26376223277447 L 558.4297847184798 123.82173574815187 L 558.4877027371026 122.37970926352915 L 558.5435249494395 120.93768277890655 L 558.5960854860562 119.49565629428389 L 558.6447553058299 118.05362980966129 L 558.6893089266912 116.61160332503863 L 558.7297510723068 115.16957684041603 L 558.7661410653636 113.72755035579337 L 558.7984470923851 112.28552387117071 L 558.8264506060842 110.84349738654805 L 558.8497070901857 109.40147090192539 L 558.8675572519907 107.95944441730279 L 558.8791753206174 106.51741793268013 L 558.8836395005203 105.07539144805753 L 558.8800128230891 103.63336496343487 L 558.867428380359 102.19133847881221 L 558.8451785017177 100.74931199418955 L 558.8128105597875 99.30728550956695 L 558.7702314887998 97.8652590249443 L 558.7178187258922 96.42323254032169 L 558.6565282531986 94.98120605569903 L 558.5879827091103 93.53917957107637 L 558.5145166088595 92.09715308645377 L 558.4391540097182 90.65512660183111 L 558.3654983165522 89.21310011720846 L 558.2975249706649 87.77107363258585 L 558.239284402295 86.3290471479632 L 558.194541901917 84.88702066334059 L 558.1663985940978 83.44499417871793 L 558.156948689951 82.00296769409528 L 558.16702885199 80.56094120947262 L 558.1961043464366 79.11891472484996 L 558.2423152554217 77.67688824022736 L 558.3026788048097 76.23486175560475 L 558.3734169739867 74.7928352709821 L 558.4503581096736 73.35080878635944 L 558.5293516302027 71.90878230173684 L 558.6066375508162 70.46675581711412 L 558.6791258651992 69.02472933249152 L 558.7445608037523 67.58270284786886 L 558.8015666381802 66.14067636324626 L 558.8495903865804 64.6986498786236 L 558.8887693343216 63.25662339400094 L 558.9197565150931 61.81459690937828 L 558.9435358055806 60.37257042475568 L 558.9612519449938 58.93054394013302 L 558.9740719870935 57.48851745551036 L 558.9830856725613 56.04649097088776 L 558.9892446291267 54.6044644862651 L 558.9933350543406 53.1624380016425 L 558.9959757831026 51.72041151701984 L 558.9976330372939 50.27838503239718 L 559.0023669627061 50.27838503239718 L 559.0040242168974 51.72041151701984 L 559.0066649456594 53.1624380016425 L 559.0107553708733 54.6044644862651 L 559.0169143274387 56.04649097088776 L 559.0259280129065 57.48851745551036 L 559.0387480550062 58.93054394013302 L 559.0564641944194 60.37257042475568 L 559.0802434849069 61.81459690937828 L 559.1112306656784 63.25662339400094 L 559.1504096134196 64.6986498786236 L 559.1984333618198 66.14067636324626 L 559.2554391962477 67.58270284786886 L 559.3208741348008 69.02472933249152 L 559.3933624491838 70.46675581711412 L 559.4706483697973 71.90878230173684 L 559.5496418903264 73.35080878635944 L 559.6265830260133 74.7928352709821 L 559.6973211951903 76.23486175560475 L 559.7576847445783 77.67688824022736 L 559.8038956535634 79.11891472484996 L 559.83297114801 80.56094120947262 L 559.843051310049 82.00296769409528 L 559.8336014059022 83.44499417871793 L 559.805458098083 84.88702066334059 L 559.760715597705 86.3290471479632 L 559.7024750293351 87.77107363258585 L 559.6345016834478 89.21310011720846 L 559.5608459902818 90.65512660183111 L 559.4854833911405 92.09715308645377 L 559.4120172908897 93.53917957107637 L 559.3434717468014 94.98120605569903 L 559.2821812741078 96.42323254032169 L 559.2297685112002 97.8652590249443 L 559.1871894402125 99.30728550956695 L 559.1548214982823 100.74931199418955 L 559.132571619641 102.19133847881221 L 559.1199871769109 103.63336496343487 L 559.1163604994797 105.07539144805753 L 559.1208246793826 106.51741793268013 L 559.1324427480093 107.95944441730279 L 559.1502929098143 109.40147090192539 L 559.1735493939158 110.84349738654805 L 559.2015529076149 112.28552387117071 L 559.2338589346364 113.72755035579337 L 559.2702489276932 115.16957684041603 L 559.3106910733088 116.61160332503863 L 559.3552446941701 118.05362980966129 L 559.4039145139438 119.49565629428389 L 559.4564750505605 120.93768277890655 L 559.5122972628974 122.37970926352915 L 559.5702152815202 123.82173574815187 L 559.6284681016374 125.26376223277447 L 559.6847394314519 126.70578871739713 L 559.7363009891152 128.14781520201973 L 559.7802447978399 129.5898416866424 L 559.813773289251 131.03186817126505 L 559.8345061106809 132.47389465588765 L 559.8407611599456 133.9159211405103 L 559.831773865144 135.35794762513297 L 559.8078305436786 136.79997410975562 L 559.7703054505087 138.24200059437823 L 559.7216037869302 139.68402707900088 L 559.6650224669477 141.1260535636235 L 559.6045460863073 142.56808004824614 L 559.5445976097823 144.0101065328688 L 559.4897626779356 145.4521330174914 L 559.4445042173537 146.89415950211412 L 559.4128812685375 148.33618598673672 L 559.3982835703042 149.77821247135932 L 559.4031922472456 151.22023895598198 L 559.4289774165479 152.66226544060464 L 559.4757455895084 154.10429192522724 L 559.5422525628625 155.54631840984996 L 559.6258995035543 156.98834489447256 L 559.7228291505279 158.43037137909522 L 559.8281337314004 159.87239786371782 L 559.9361755079414 161.31442434834042 L 560.0410055135809 162.75645083296314 L 560.1368483882525 164.19847731758574 L 560.2186049364564 165.6405038022084 L 560.2823133410267 167.08253028683106 L 560.3255085002556 168.52455677145372 L 560.3474286969542 169.96658325607626 L 560.3490392515745 171.40860974069898 L 560.3328707135163 172.85063622532158 L 560.3026989818768 174.29266270994424 L 560.26311989975 175.7346891945669 L 560.219085302528 177.1767156791895 L 560.1754675318223 178.61874216381216 L 560.136704997597 180.06076864843476 L 560.1065564023547 181.50279513305742 L 560.0879627817034 182.94482161768008 L 560.0829928340607 184.38684810230274 L 560.0928351255237 185.82887458692534 L 560.117804134751 187.27090107154805 L 560.1573443084985 188.71292755617065 L 560.2100410749089 190.15495404079326 L 560.273670690682 191.59698052541592 L 560.345332150137 193.03900701003852 L 560.4216973838247 194.48103349466123 L 560.4993894876311 195.92305997928383 L 560.5754584244532 197.3650864639065 L 560.6478810735971 198.80711294852915 L 560.7159820454968 200.24913943315175 L 560.7806661130641 201.69116591777436 L 560.8443790909728 203.13319240239707 L 560.9107689469772 204.57521888701967 L 560.9840906442015 206.01724537164233 L 561.0684676146976 207.459271856265 L 561.1671692797787 208.9012983408876 L 561.2820719740911 210.34332482551025 L 561.4134345021635 211.78535131013285 L 561.5600464246073 213.2273777947555 L 561.7197151765854 214.66940427937817 L 561.88997151674 216.11143076400083 L 562.0688150851358 217.55345724862343 L 562.255309123249 218.9954837332461 L 562.4498699837033 220.4375102178687 L 562.6541743589817 221.8795367024913 L 562.870706046726 223.321563187114 L 563.1020596767102 224.76358967173667 L 563.3501865887905 226.20561615635933 L 563.6157895841078 227.64764264098193 L 563.8980409335206 229.0896691256046 L 564.1947173403922 230.5316956102272 L 564.5027348369314 231.97372209484985 L 564.8189534981848 233.41574857947245 L 565.1410370768828 234.8577750640951 L 565.4681218687986 236.29980154871777 L 565.8010851220545 237.7418280333404 L 566.1423008862253 239.18385451796306 L 566.494906784222 240.62588100258566 L 566.8617422625917 242.06790748720834 L 567.2442181050084 243.50993397183095 L 567.6414082249817 244.9519604564536 L 568.0496069375941 246.39398694107626 L 568.4624804189839 247.8360134256989 L 568.8717925543 249.2780399103215 L 569.2685458879621 250.7200663949442 L 569.6442877695655 252.1620928795668 L 569.9923139510096 253.60411936418944 L 570.3085572701817 255.0461458488121 L 570.5920548953808 256.4881723334347 L 570.845006079722 257.9301988180574 L 571.0725238529736 259.37222530268 L 571.2822209454637 260.8142517873026 L 571.4837464494861 262.25627827192534 L 571.688322600821 263.69830475654794 L 571.9082545300635 265.14033124117054 L 572.1563373198072 266.5823577257932 L 572.4450903570076 268.02438421041586 L 572.785812641641 269.46641069503846 L 573.1875530501095 270.9084371796612 L 573.656186716479 272.3504636642838 L 574.1938386831097 273.7924901489064 L 574.7988675170886 275.23451663352904 L 575.4665093668589 276.6765431181517 L 576.1901118880061 278.1185696027743 L 576.9627061920226 279.56059608739696 L 577.7785301813127 281.0026225720196 L 578.6340741950644 282.4446490566422 L 579.5282893049392 283.8866755412649 L 580.4617665524145 285.32870202588754 L 581.4349205384226 286.7707285105102 L 582.4454374316683 288.21275499513285 L 583.4854231286023 289.65478147975546 L 584.5387770001258 291.09680796437806 L 585.5793097359218 292.5388344490008 L 586.570031719836 293.9808609336234 L 587.4638860723106 295.422887418246 L 588.2060159114435 296.8649139028687 L 588.7374618620247 298.3069403874913 L 589 299.7489668721139 L 588.9416649867353 301.1909933567366 L 588.5223718928331 302.6330198413592 L 587.7189712243705 304.0750463259818 L 586.5290662450276 305.51707281060453 L 584.9730083830349 306.95909929522713 L 583.0936723179968 308.40112577984974 L 580.9538847361868 309.8431522644724 L 578.6317043860082 311.28517874909505 L 576.2140716401707 312.7272052337177 L 573.7896009460001 314.1692317183403 L 571.441424395709 315.611258202963 L 569.2409769311137 317.05328468758563 L 567.2434439661783 318.4953111722083 L 565.4853051459515 319.9373376568309 L 563.984064063074 321.37936414145355 L 562.739923774704 322.8213906260762 L 561.7389148798468 324.2634171106988 L 560.9568469872548 325.7054435953214 L 560.3634455884463 327.1474700799441 L 559.9261356950406 328.58949656456673 L 559.613102138584 330.03152304918933 L 559.3954479634734 331.47354953381205 L 559.2484457668107 332.91557601843465 L 559.1520046139033 334.3576025030573 L 559.0905463549883 335.79962898767997 L 559.0525035363222 337.24165547230257 Z" stroke="black" stroke-width="0.5" fill="steelblue" /></svg>