<svg xmlns="http://www.w3.org/2000/svg" width="673" height="541" fill="black"><rect width="100%" height="100%" fill="white" /><line x1="59" y1="492" x2="659" y2="492" stroke="black" stroke-width="1" /><line x1="59" y1="42" x2="59" y2="492" stroke="black" stroke-width="1" /><line x1="59" y1="435.75" x2="659" y2="435.75" stroke="#ccc" stroke-width="1" /><line x1="59" y1="379.5" x2="659" y2="379.5" stroke="#ccc" stroke-width="1" /><line x1="59" y1="323.25" x2="659" y2="323.25" stroke="#ccc" stroke-width="1" /><line x1="59" y1="267" x2="659" y2="267" stroke="#ccc" stroke-width="1" /><line x1="59" y1="210.75" x2="659" y2="210.75" stroke="#ccc" stroke-width="1" /><line x1="59" y1="154.5" x2="659" y2="154.5" stroke="#ccc" stroke-width="1" /><line x1="59" y1="98.25" x2="659" y2="98.25" stroke="#ccc" stroke-width="1" /><line x1="59" y1="42" x2="659" y2="42" stroke="#ccc" stroke-width="1" /><text x="159" y="507" font-size="10" text-anchor="middle">Normal</text><line x1="159" y1="492" x2="159" y2="497" stroke="black" stroke-width="1" /><text x="359" y="507" font-size="10" text-anchor="middle">Bimodal</text><line x1="359" y1="492" x2="359" y2="497" stroke="black" stroke-width="1" /><text x="559" y="507" font-size="10" text-anchor="middle">Skewed</text><line x1="559" y1="492" x2="559" y2="497" stroke="black" stroke-width="1" /><line x1="54" y1="492" x2="59" y2="492" stroke="black" stroke-width="1" /><text x="51" y="495.5" font-size="10" text-anchor="end">-6</text><line x1="54" y1="435.75" x2="59" y2="435.75" stroke="black" stroke-width="1" /><text x="51" y="439.25" font-size="10" text-anchor="end">-4</text><line x1="54" y1="379.5" x2="59" y2="379.5" stroke="black" stroke-width="1" /><text x="51" y="383" font-size="10" text-anchor="end">-2</text><line x1="54" y1="323.25" x2="59" y2="323.25" stroke="black" stroke-width="1" /><text x="51" y="326.75" font-size="10" text-anchor="end">0</text><line x1="54" y1="267" x2="59" y2="267" stroke="black" stroke-width="1" /><text x="51" y="270.5" font-size="10" text-anchor="end">2</text><line x1="54" y1="210.75" x2="59" y2="210.75" stroke="black" stroke-width="1" /><text x="51" y="214.25" font-size="10" text-anchor="end">4</text><line x1="54" y1="154.5" x2="59" y2="154.5" stroke="black" stroke-width="1" /><text x="51" y="158" font-size="10" text-anchor="end">6</text><line x1="54" y1="98.25" x2="59" y2="98.25" stroke="black" stroke-width="1" /><text x="51" y="101.75" font-size="10" text-anchor="end">8</text><line x1="54" y1="42" x2="59" y2="42" stroke="black" stroke-width="1" /><text x="51" y="45.5" font-size="10" text-anchor="end">10</text><text x="14" y="270.5" font-size="14" text-anchor="middle" transform="rotate(-90,14,270.5)">Value</text><text x="336.5" y="21" font-size="16" text-anchor="middle">Violin Plot</text><path d="M 158.99748427885478 428.6009256489633 L 158.99611334853367 427.54803462556634 L 158.994126218723 426.4951436021694 L 158.99131644659943 425.4422525787724 L 158.9874418300213 424.38936155537544 L 158.98223274129262 423.3364705319784 L 158.97540755063804 422.28357950858145 L 158.96669565015767 421.2306884851845 L 158.9558673341079 420.1777974617875 L 158.9427681429185 419.12490643839055 L 158.92735345459602 418.07201541499353 L 158.90971745748865 417.01912439159656 L 158.89010959886352 415.9662333681996 L 158.86893161183315 414.91334234480263 L 158.84670960453153 413.86045132140566 L 158.8240385484132 412.80756029800864 L 158.80150061370995 411.7546692746117 L 158.77956362287776 410.7017782512147 L 158.7584706085667 409.64888722781774 L 158.7381351217067 408.59599620442077 L 158.71805865307624 407.54310518102375 L 158.69728569359776 406.4902141576268 L 158.67440838284693 405.4373231342298 L 158.64762671039793 404.38443211083285 L 158.61486264974306 403.3315410874359 L 158.57391857836586 402.27865006403886 L 158.52266317665672 401.2257590406419 L 158.45922292813307 400.1728680172449 L 158.38215529614487 399.11997699384796 L 158.29058110558717 398.067085970451 L 158.1842585429035 397.01419494705397 L 158.06358887173025 395.961303923657 L 157.9295533115767 394.90841290026003 L 157.78359004860994 393.855521876863 L 157.62742840289832 392.8026308534661 L 157.4629022666377 391.7497398300691 L 157.29176600993233 390.6968488066721 L 157.1155328281959 389.64395778327514 L 156.93534861324238 388.5910667598782 L 156.75190543211383 387.5381757364812 L 156.56538984094004 386.4852847130842 L 156.37545499601572 385.4323936896872 L 156.18120386913674 384.37950266629025 L 155.98117477710196 383.3266116428933 L 155.77332932008218 382.2737206194963 L 155.5550544901194 381.2208295960993 L 155.32320168287643 380.1679385727023 L 155.07419164154797 379.11504754930536 L 154.80421253826327 378.0621565259084 L 154.50952661318016 377.0092655025114 L 154.1868795976454 375.9563744791144 L 153.83397976853126 374.90348345571743 L 153.44998542861734 373.85059243232047 L 153.0359176658961 372.7977014089235 L 152.5949059943032 371.74481038552653 L 152.13218268564583 370.6919193621295 L 151.65476884004056 369.63902833873254 L 151.17083910015893 368.5861373153356 L 150.68880604602919 367.53324629193855 L 150.21622037672637 366.48035526854164 L 149.7586283825427 365.4274642451446 L 149.3185541947792 364.37457322174765 L 148.89477410941927 363.3216821983507 L 148.48202172553056 362.26879117495366 L 148.07120877674637 361.2159001515567 L 147.65017524819976 360.16300912815973 L 147.20490493209581 359.11011810476276 L 146.72107151395207 358.0572270813658 L 146.1857270734813 357.00433605796877 L 145.58891795692494 355.95144503457186 L 144.92501644148493 354.89855401117484 L 144.19358988085662 353.84566298777787 L 143.3996872495993 352.7927719643809 L 142.5534980955848 351.7398809409839 L 141.66942077186042 350.68698991758697 L 140.76465463427354 349.63409889418995 L 139.8574942880012 348.581207870793 L 138.96554411382533 347.528316847396 L 138.10408198691786 346.47542582399905 L 137.28477975407483 345.4225348006021 L 136.5149365908392 344.36964377720506 L 135.79730658097395 343.3167527538081 L 135.1305148475749 342.2638617304111 L 134.5099712385107 341.2109707070141 L 133.92912123909096 340.1580796836172 L 133.38083226427224 339.10518866022016 L 132.8587064627424 338.0522976368232 L 132.3581386226188 336.99940661342623 L 131.8769929388182 335.9465155900292 L 131.4158434128771 334.89362456663224 L 130.97779539677668 333.8407335432353 L 130.56796720447113 332.7878425198383 L 130.19275155777527 331.73495149644134 L 129.85899298435046 330.6820604730443 L 129.57321047817106 329.6291694496474 L 129.34096996746956 328.5762784262504 L 129.166475407055 327.5233874028534 L 129.05240744330794 326.47049637945645 L 129 325.4176053560594 L 129.00931152127563 324.3647143326625 L 129.07962150207294 323.3118233092655 L 129.20986638920394 322.2589322858685 L 129.39902396472024 321.20604126247156 L 129.6463636749695 320.15315023907453 L 129.95150266408086 319.1002592156776 L 130.31424191925132 318.0473681922806 L 130.73419942771437 316.99447716888363 L 131.21030033721925 315.94158614548667 L 131.74021908980123 314.88869512208964 L 132.31988726909054 313.83580409869273 L 132.943178264339 312.7829130752957 L 133.60185517732938 311.7300220518987 L 134.28582606676076 310.6771310285018 L 134.98369905278412 309.6242400051048 L 135.68357929449414 308.5713489817078 L 136.37400998939174 307.5184579583108 L 137.04493694622334 306.46556693491385 L 137.68857338527957 305.4126759115169 L 138.30005674027936 304.35978488811986 L 138.8778177385451 303.30689386472295 L 139.4236180505529 302.2540028413259 L 139.9422508283594 301.20111181792896 L 140.4409343586309 300.148220794532 L 140.92846024155332 299.09532977113497 L 141.41418243511526 298.042438747738 L 141.90695097302395 296.98954772434104 L 142.41410277361922 295.936656700944 L 142.940620068602 294.8837656775471 L 143.48855320988162 293.8308746541501 L 144.05677863480787 292.7779836307531 L 144.6411260706679 291.72509260735615 L 145.2348652820814 290.6722015839592 L 145.82949734451233 289.61931056056216 L 146.41575512969087 288.5664195371652 L 146.9846887797303 287.5135285137683 L 147.5286993193483 286.46063749037125 L 148.04238964549367 285.40774646697423 L 148.5231264373197 284.3548554435773 L 148.9712456903652 283.30196442018035 L 149.38988296614147 282.24907339678333 L 149.78446006845684 281.19618237338636 L 150.16190542038166 280.1432913499894 L 150.52971939919607 279.09040032659243 L 150.89501348304378 278.0375093031954 L 151.2636509017557 276.9846182797985 L 151.63959703773617 275.9317272564015 L 152.0245534011871 274.8788362330045 L 152.41790528126268 273.82594520960754 L 152.81696726372715 272.7730541862105 L 153.2174700112545 271.72016316281355 L 153.61420219128968 270.6672721394166 L 154.00170711883317 269.61438111601956 L 154.3749355771101 268.56149009262265 L 154.72977251972628 267.5085990692256 L 155.06338181129564 266.45570804582866 L 155.37434448671857 265.4028170224317 L 155.66259683220838 264.3499259990347 L 155.92920051899773 263.2970349756377 L 156.1759952330796 262.24414395224073 L 156.40519361933227 261.1912529288438 L 156.6189792020822 260.1383619054468 L 156.8191615100518 259.0854708820498 L 157.006930635678 258.03257985865287 L 157.18273772755003 256.97968883525584 L 157.34631024724874 255.92679781185888 L 157.49679297881156 254.8739067884619 L 157.632989525514 253.82101576506494 L 157.7536661138284 252.76812474166795 L 157.85787154144285 251.71523371827098 L 157.9452252428161 250.662342694874 L 158.0161301965591 249.609451671477 L 158.07187834061446 248.55656064808002 L 158.1146318818485 247.50366962468308 L 158.1472821205547 246.45077860128606 L 158.17320537172702 245.3978875778891 L 158.19595042072297 244.34499655449213 L 158.21890133495066 243.29210553109513 L 158.24496191210247 242.23921450769816 L 158.2763033189003 241.1863234843012 L 158.31420554673537 240.13343246090417 L 158.35900821902695 239.08054143750724 L 158.41016972023124 238.02765041411027 L 158.46641839906422 236.97475939071325 L 158.52596814305068 235.92186836731628 L 158.5867645008011 234.8689773439193 L 158.64672723129763 233.8160863205223 L 158.70396008605456 232.76319529712532 L 158.7569073120531 231.7103042737284 L 158.80444684435554 230.65741325033144 L 158.8459204331533 229.60452222693442 L 158.88110936450468 228.55163120353745 L 158.91016994588432 227.4987401801405 L 158.93354520670698 226.44584915674346 L 158.95186862172685 225.3929581333465 L 158.96587286452817 224.34006710994953 L 158.97631260808205 223.28717608655256 L 158.98390615057573 222.2342850631556 L 158.98929689795412 221.18139403975863 L 158.9930329321373 220.1285030163616 L 158.99556119456176 219.07561199296464 L 159.00443880543824 219.07561199296464 L 159.0069670678627 220.1285030163616 L 159.01070310204588 221.18139403975863 L 159.01609384942427 222.2342850631556 L 159.02368739191795 223.28717608655256 L 159.03412713547183 224.34006710994953 L 159.04813137827315 225.3929581333465 L 159.06645479329302 226.44584915674346 L 159.08983005411568 227.4987401801405 L 159.11889063549532 228.55163120353745 L 159.1540795668467 229.60452222693442 L 159.19555315564446 230.65741325033144 L 159.2430926879469 231.7103042737284 L 159.29603991394544 232.76319529712532 L 159.35327276870237 233.8160863205223 L 159.4132354991989 234.8689773439193 L 159.47403185694932 235.92186836731628 L 159.53358160093578 236.97475939071325 L 159.58983027976876 238.02765041411027 L 159.64099178097305 239.08054143750724 L 159.68579445326463 240.13343246090417 L 159.7236966810997 241.1863234843012 L 159.75503808789753 242.23921450769816 L 159.78109866504934 243.29210553109513 L 159.80404957927703 244.34499655449213 L 159.82679462827298 245.3978875778891 L 159.8527178794453 246.45077860128606 L 159.8853681181515 247.50366962468308 L 159.92812165938554 248.55656064808002 L 159.9838698034409 249.609451671477 L 160.0547747571839 250.662342694874 L 160.14212845855715 251.71523371827098 L 160.2463338861716 252.76812474166795 L 160.367010474486 253.82101576506494 L 160.50320702118844 254.8739067884619 L 160.65368975275126 255.92679781185888 L 160.81726227244997 256.97968883525584 L 160.993069364322 258.03257985865287 L 161.1808384899482 259.0854708820498 L 161.3810207979178 260.1383619054468 L 161.59480638066773 261.1912529288438 L 161.8240047669204 262.24414395224073 L 162.07079948100227 263.2970349756377 L 162.33740316779162 264.3499259990347 L 162.62565551328143 265.4028170224317 L 162.93661818870436 266.45570804582866 L 163.27022748027372 267.5085990692256 L 163.6250644228899 268.56149009262265 L 163.99829288116683 269.61438111601956 L 164.38579780871032 270.6672721394166 L 164.7825299887455 271.72016316281355 L 165.18303273627285 272.7730541862105 L 165.58209471873732 273.82594520960754 L 165.9754465988129 274.8788362330045 L 166.36040296226383 275.9317272564015 L 166.7363490982443 276.9846182797985 L 167.10498651695622 278.0375093031954 L 167.47028060080393 279.09040032659243 L 167.83809457961834 280.1432913499894 L 168.21553993154316 281.19618237338636 L 168.61011703385853 282.24907339678333 L 169.0287543096348 283.30196442018035 L 169.4768735626803 284.3548554435773 L 169.95761035450633 285.40774646697423 L 170.4713006806517 286.46063749037125 L 171.0153112202697 287.5135285137683 L 171.58424487030913 288.5664195371652 L 172.17050265548767 289.61931056056216 L 172.7651347179186 290.6722015839592 L 173.3588739293321 291.72509260735615 L 173.94322136519213 292.7779836307531 L 174.51144679011838 293.8308746541501 L 175.059379931398 294.8837656775471 L 175.58589722638078 295.936656700944 L 176.09304902697605 296.98954772434104 L 176.58581756488474 298.042438747738 L 177.07153975844668 299.09532977113497 L 177.5590656413691 300.148220794532 L 178.0577491716406 301.20111181792896 L 178.5763819494471 302.2540028413259 L 179.1221822614549 303.30689386472295 L 179.69994325972064 304.35978488811986 L 180.31142661472043 305.4126759115169 L 180.95506305377666 306.46556693491385 L 181.62599001060826 307.5184579583108 L 182.31642070550586 308.5713489817078 L 183.01630094721588 309.6242400051048 L 183.71417393323924 310.6771310285018 L 184.39814482267062 311.7300220518987 L 185.056821735661 312.7829130752957 L 185.68011273090946 313.83580409869273 L 186.25978091019877 314.88869512208964 L 186.78969966278075 315.94158614548667 L 187.26580057228563 316.99447716888363 L 187.68575808074868 318.0473681922806 L 188.04849733591914 319.1002592156776 L 188.3536363250305 320.15315023907453 L 188.60097603527976 321.20604126247156 L 188.79013361079606 322.2589322858685 L 188.92037849792706 323.3118233092655 L 188.99068847872437 324.3647143326625 L 189 325.4176053560594 L 188.94759255669206 326.47049637945645 L 188.833524592945 327.5233874028534 L 188.65903003253044 328.5762784262504 L 188.42678952182894 329.6291694496474 L 188.14100701564954 330.6820604730443 L 187.80724844222473 331.73495149644134 L 187.43203279552887 332.7878425198383 L 187.02220460322332 333.8407335432353 L 186.5841565871229 334.89362456663224 L 186.1230070611818 335.9465155900292 L 185.6418613773812 336.99940661342623 L 185.1412935372576 338.0522976368232 L 184.61916773572776 339.10518866022016 L 184.07087876090904 340.1580796836172 L 183.4900287614893 341.2109707070141 L 182.8694851524251 342.2638617304111 L 182.20269341902605 343.3167527538081 L 181.4850634091608 344.36964377720506 L 180.71522024592517 345.4225348006021 L 179.89591801308214 346.47542582399905 L 179.03445588617467 347.528316847396 L 178.1425057119988 348.581207870793 L 177.23534536572646 349.63409889418995 L 176.33057922813958 350.68698991758697 L 175.4465019044152 351.7398809409839 L 174.6003127504007 352.7927719643809 L 173.80641011914338 353.84566298777787 L 173.07498355851507 354.89855401117484 L 172.41108204307506 355.95144503457186 L 171.8142729265187 357.00433605796877 L 171.27892848604793 358.0572270813658 L 170.79509506790419 359.11011810476276 L 170.34982475180024 360.16300912815973 L 169.92879122325363 361.2159001515567 L 169.51797827446944 362.26879117495366 L 169.10522589058073 363.3216821983507 L 168.6814458052208 364.37457322174765 L 168.2413716174573 365.4274642451446 L 167.78377962327363 366.48035526854164 L 167.31119395397081 367.53324629193855 L 166.82916089984107 368.5861373153356 L 166.34523115995944 369.63902833873254 L 165.86781731435417 370.6919193621295 L 165.4050940056968 371.74481038552653 L 164.9640823341039 372.7977014089235 L 164.55001457138266 373.85059243232047 L 164.16602023146874 374.90348345571743 L 163.8131204023546 375.9563744791144 L 163.49047338681984 377.0092655025114 L 163.19578746173673 378.0621565259084 L 162.92580835845203 379.11504754930536 L 162.67679831712357 380.1679385727023 L 162.4449455098806 381.2208295960993 L 162.22667067991782 382.2737206194963 L 162.01882522289804 383.3266116428933 L 161.81879613086326 384.37950266629025 L 161.62454500398428 385.4323936896872 L 161.43461015905996 386.4852847130842 L 161.24809456788617 387.5381757364812 L 161.06465138675762 388.5910667598782 L 160.8844671718041 389.64395778327514 L 160.70823399006767 390.6968488066721 L 160.5370977333623 391.7497398300691 L 160.37257159710168 392.8026308534661 L 160.21640995139006 393.855521876863 L 160.0704466884233 394.90841290026003 L 159.93641112826975 395.961303923657 L 159.8157414570965 397.01419494705397 L 159.70941889441283 398.067085970451 L 159.61784470385513 399.11997699384796 L 159.54077707186693 400.1728680172449 L 159.47733682334328 401.2257590406419 L 159.42608142163414 402.27865006403886 L 159.38513735025694 403.3315410874359 L 159.35237328960207 404.38443211083285 L 159.32559161715307 405.4373231342298 L 159.30271430640224 406.4902141576268 L 159.28194134692376 407.54310518102375 L 159.2618648782933 408.59599620442077 L 159.2415293914333 409.64888722781774 L 159.22043637712224 410.7017782512147 L 159.19849938629005 411.7546692746117 L 159.1759614515868 412.80756029800864 L 159.15329039546847 413.86045132140566 L 159.13106838816685 414.91334234480263 L 159.10989040113648 415.9662333681996 L 159.09028254251135 417.01912439159656 L 159.07264654540398 418.07201541499353 L 159.0572318570815 419.12490643839055 L 159.0441326658921 420.1777974617875 L 159.03330434984233 421.2306884851845 L 159.02459244936196 422.28357950858145 L 159.01776725870738 423.3364705319784 L 159.0125581699787 424.38936155537544 L 159.00868355340057 425.4422525787724 L 159.005873781277 426.4951436021694 L 159.00388665146633 427.54803462556634 L 159.00251572114522 428.6009256489633 Z" stroke="black" stroke-width="0.5" fill="steelblue" /><path d="M 358.9883821794993 460.1026784602277 L 358.98411832773945 458.675661500802 L 358.97845299746473 457.2486445413763 L 358.97098503417453 455.82162758195057 L 358.96121815983753 454.39461062252485 L 358.9485442904652 452.96759366309914 L 358.93222550671265 451.5405767036734 L 358.91137498160373 450.1135597442477 L 358.8849372920154 448.686542784822 L 358.85166867115066 447.2595258253963 L 358.81011789260276 445.83250886597057 L 358.7586086064208 444.40549190654485 L 358.69522406667573 442.97847494711914 L 358.6177952908197 441.5514579876934 L 358.52389376603156 440.1244410282677 L 358.41082985960753 438.697424068842 L 358.275658092994 437.2704071094163 L 358.1151903972244 435.84339014999057 L 357.92601837770695 434.41637319056485 L 357.704545476528 432.98935623113914 L 357.4470297302541 431.5623392717134 L 357.14963758166294 430.1353223122877 L 356.8085089172022 428.708305352862 L 356.41983317163806 427.2812883934363 L 355.97993597164407 425.85427143401057 L 355.48537538630904 424.4272544745848 L 354.93304642122973 423.00023751515914 L 354.32029194209974 421.5732205557334 L 353.6450177538189 420.1462035963077 L 352.90580910526285 418.71918663688194 L 352.10204545461244 417.29216967745623 L 351.23400993609806 415.8651527180305 L 350.3029896406982 414.4381357586048 L 349.31136258877 413.0111187991791 L 348.26266716213564 411.5841018397534 L 347.1616498076098 410.15708488032766 L 346.01428705200124 408.73006792090194 L 344.827778303682 407.30305096147623 L 343.6105065726496 405.8760340020505 L 342.3719651223437 404.4490170426248 L 341.1226491601362 403.0220000831991 L 339.87391295024463 401.5949831237734 L 338.6377941460111 400.16796616434766 L 337.4268086243492 398.74094920492195 L 336.2537205857184 397.31393224549623 L 335.13129407024275 395.8869152860705 L 334.07203324235184 394.4598983266448 L 333.0879197230929 393.0328813672191 L 332.19015582170516 391.6058644077934 L 331.38892267435125 390.17884744836766 L 330.69316200021797 388.75183048894195 L 330.11038942466075 387.32481352951623 L 329.64654611849164 385.8977965700905 L 329.30589391675215 384.4707796106648 L 329.090957193686 383.0437626512391 L 329.0025126918101 381.6167456918134 L 329.0396263575255 380.1897287323876 L 329.19973415679607 378.76271177296195 L 329.47876196271625 377.3356948135362 L 329.87127804010083 375.90867785411046 L 330.3706704961385 374.48166089468475 L 330.9693413862183 373.05464393525904 L 331.6589089905535 371.6276269758333 L 332.4304101028593 370.2006100164076 L 333.27449495298265 368.7735930569819 L 334.1816085441999 367.3465760975562 L 335.1421536200835 365.9195591381305 L 336.14663206568827 364.49254217870475 L 337.1857631670129 363.06552521927904 L 338.2505786791576 361.6385082598533 L 339.33249597961435 360.2114913004276 L 340.42337162399684 358.7844743410019 L 341.5155383219251 357.3574573815762 L 342.6018286882272 355.93044042215047 L 343.6755891097842 354.50342346272475 L 344.7306867423021 353.07640650329904 L 345.76151208009134 351.6493895438733 L 346.7629788089596 350.2223725844476 L 347.73052184953826 348.7953556250219 L 348.66009371702336 347.3683386655962 L 349.548158645435 345.94132170617047 L 350.39168341561367 344.51430474674476 L 351.18812353021724 343.08728778731904 L 351.9354033156326 341.6602708278933 L 352.6318886952943 340.2332538684676 L 353.27635174472334 338.8062369090419 L 353.8679266612709 337.3792199496162 L 354.4060574047414 335.9522029901905 L 354.8904379268752 334.52518603076476 L 355.32094654703695 333.09816907133904 L 355.69757659380497 331.67115211191333 L 356.02036587385993 330.2441351524876 L 356.28932782078016 328.8171181930619 L 356.5043873021816 327.3901012336362 L 356.66532402366664 325.9630842742105 L 356.77172627441377 324.53606731478476 L 356.82295743378035 323.10905035535905 L 356.81813722897425 321.68203339593333 L 356.75613923121796 320.2550164365076 L 356.6356055315953 318.8279994770819 L 356.4549789741543 317.4009825176562 L 356.2125527636733 315.9739655582305 L 355.90653672335355 314.54694859880476 L 355.5351389619724 313.11993163937905 L 355.0966612238684 311.69291467995333 L 354.58960573809117 310.2658977205276 L 354.0127909531695 308.83888076110185 L 353.36547314001746 307.41186380167613 L 352.64747046919643 305.9848468422505 L 351.85928582645573 304.55782988282476 L 351.00222433445333 303.130812923399 L 350.07850131731476 301.7037959639733 L 349.0913363024842 300.27677900454756 L 348.0450286296366 298.84976204512185 L 346.9450103595735 297.4227450856962 L 345.7978724760003 295.9957281262704 L 344.61136087381857 294.5687111668447 L 343.3943393441095 293.141694207419 L 342.1567177007844 291.7146772479933 L 340.909344333793 290.28766028856757 L 339.66386378809386 288.86064332914185 L 338.43254140747985 287.43362636971614 L 337.2280585820411 286.0066094102904 L 336.0632836177165 284.5795924508647 L 334.9510246168762 283.15257549143894 L 333.90377192775117 281.7255585320132 L 332.9334385992513 280.29854157258757 L 332.0511077891903 278.87152461316185 L 331.26679615979026 277.4445076537361 L 330.58924192123703 276.01749069431037 L 330.02572534829756 274.59047373488465 L 329.58192832493927 273.163456775459 L 329.2618378276708 271.7364398160333 L 329.06769632897385 270.3094228566075 L 329 268.8824058971818 L 329.05754344440254 267.4553889377561 L 329.2375076364884 266.02837197833037 L 329.5355858962504 264.60135501890466 L 329.9461412262533 263.17433805947894 L 330.4623872520536 261.7473211000532 L 331.0765844090546 260.3203041406275 L 331.78024292874346 258.8932871812018 L 332.56432458274634 257.4662702217761 L 333.41943599436865 256.0392532623504 L 334.3360075427576 254.6122363029247 L 335.30445335842336 253.185219343499 L 336.3153095191712 251.75820238407326 L 337.3593491762573 250.33118542464754 L 338.42767485140223 248.90416846522183 L 339.5117894416193 247.47715150579612 L 340.6036484701882 246.0501345463704 L 341.69569677802906 244.62311758694466 L 342.78089314260063 243.19610062751894 L 343.85272625627096 241.76908366809323 L 344.9052251373388 240.34206670866752 L 345.932966452447 238.9150497492418 L 346.9310804826893 237.48803278981606 L 347.8952566576869 236.06101583039035 L 348.82174880044727 234.63399887096466 L 349.7073795484534 233.20698191153895 L 350.54954290339714 231.77996495211323 L 351.34620355162986 230.35294799268752 L 352.09589150424233 228.9259310332618 L 352.7976907208703 227.4989140738361 L 353.4512206756058 226.07189711441038 L 354.0566102518751 224.64488015498466 L 354.6144638612847 223.21786319555895 L 355.1258202114919 221.79084623613318 L 355.5921046454289 220.36382927670746 L 356.01507639229516 218.9368123172818 L 356.3967723754477 217.5097953578561 L 356.7394493938818 216.08277839843038 L 357.04552652745576 214.65576143900466 L 357.31752952008696 213.22874447957895 L 357.55803868970304 211.80172752015324 L 357.76964162646277 210.37471056072746 L 357.9548916033735 208.94769360130175 L 358.1162722680287 207.52067664187604 L 358.25616884000345 206.09365968245032 L 358.3768457294505 204.6666427230246 L 358.4804302358087 203.2396257635989 L 358.56890179110263 201.81260880417324 L 358.644086082877 200.38559184474752 L 358.70765332412867 198.9585748853218 L 358.76111992385296 197.53155792589604 L 358.80585284124413 196.10454096647032 L 358.8430759671575 194.6775240070446 L 358.8738779562589 193.2505070476189 L 358.8992210217627 191.82349008819318 L 358.9199502931852 190.39647312876747 L 358.9368034198809 188.96945616934175 L 358.9504201753997 187.54243920991604 L 358.96135187813377 186.11542225049033 L 358.97007049223123 184.6884052910646 L 358.97697731043354 183.2613883316389 L 358.9824111491403 181.83437137221318 L 358.98665600766253 180.40735441278747 L 358.9899481602472 178.98033745336176 L 358.9924826627129 177.55332049393604 L 358.99441926665554 176.12630353451033 L 359.00558073334446 176.12630353451033 L 359.0075173372871 177.55332049393604 L 359.0100518397528 178.98033745336176 L 359.01334399233747 180.40735441278747 L 359.0175888508597 181.83437137221318 L 359.02302268956646 183.2613883316389 L 359.02992950776877 184.6884052910646 L 359.03864812186623 186.11542225049033 L 359.0495798246003 187.54243920991604 L 359.0631965801191 188.96945616934175 L 359.0800497068148 190.39647312876747 L 359.1007789782373 191.82349008819318 L 359.1261220437411 193.2505070476189 L 359.1569240328425 194.6775240070446 L 359.19414715875587 196.10454096647032 L 359.23888007614704 197.53155792589604 L 359.29234667587133 198.9585748853218 L 359.355913917123 200.38559184474752 L 359.43109820889737 201.81260880417324 L 359.5195697641913 203.2396257635989 L 359.6231542705495 204.6666427230246 L 359.74383115999655 206.09365968245032 L 359.8837277319713 207.52067664187604 L 360.0451083966265 208.94769360130175 L 360.23035837353723 210.37471056072746 L 360.44196131029696 211.80172752015324 L 360.68247047991304 213.22874447957895 L 360.95447347254424 214.65576143900466 L 361.2605506061182 216.08277839843038 L 361.6032276245523 217.5097953578561 L 361.98492360770484 218.9368123172818 L 362.4078953545711 220.36382927670746 L 362.8741797885081 221.79084623613318 L 363.3855361387153 223.21786319555895 L 363.9433897481249 224.64488015498466 L 364.5487793243942 226.07189711441038 L 365.2023092791297 227.4989140738361 L 365.90410849575767 228.9259310332618 L 366.65379644837014 230.35294799268752 L 367.45045709660286 231.77996495211323 L 368.2926204515466 233.20698191153895 L 369.17825119955273 234.63399887096466 L 370.1047433423131 236.06101583039035 L 371.0689195173107 237.48803278981606 L 372.067033547553 238.9150497492418 L 373.0947748626612 240.34206670866752 L 374.14727374372904 241.76908366809323 L 375.21910685739937 243.19610062751894 L 376.30430322197094 244.62311758694466 L 377.3963515298118 246.0501345463704 L 378.4882105583807 247.47715150579612 L 379.57232514859777 248.90416846522183 L 380.6406508237427 250.33118542464754 L 381.6846904808288 251.75820238407326 L 382.69554664157664 253.185219343499 L 383.6639924572424 254.6122363029247 L 384.58056400563135 256.0392532623504 L 385.43567541725366 257.4662702217761 L 386.21975707125654 258.8932871812018 L 386.9234155909454 260.3203041406275 L 387.5376127479464 261.7473211000532 L 388.0538587737467 263.17433805947894 L 388.4644141037496 264.60135501890466 L 388.7624923635116 266.02837197833037 L 388.94245655559746 267.4553889377561 L 389 268.8824058971818 L 388.93230367102615 270.3094228566075 L 388.7381621723292 271.7364398160333 L 388.41807167506073 273.163456775459 L 387.97427465170244 274.59047373488465 L 387.41075807876297 276.01749069431037 L 386.73320384020974 277.4445076537361 L 385.9488922108097 278.87152461316185 L 385.0665614007487 280.29854157258757 L 384.09622807224883 281.7255585320132 L 383.0489753831238 283.15257549143894 L 381.9367163822835 284.5795924508647 L 380.7719414179589 286.0066094102904 L 379.56745859252015 287.43362636971614 L 378.33613621190614 288.86064332914185 L 377.090655666207 290.28766028856757 L 375.8432822992156 291.7146772479933 L 374.6056606558905 293.141694207419 L 373.38863912618143 294.5687111668447 L 372.2021275239997 295.9957281262704 L 371.0549896404265 297.4227450856962 L 369.9549713703634 298.84976204512185 L 368.9086636975158 300.27677900454756 L 367.92149868268524 301.7037959639733 L 366.99777566554667 303.130812923399 L 366.14071417354427 304.55782988282476 L 365.35252953080357 305.9848468422505 L 364.63452685998254 307.41186380167613 L 363.9872090468305 308.83888076110185 L 363.41039426190883 310.2658977205276 L 362.9033387761316 311.69291467995333 L 362.4648610380276 313.11993163937905 L 362.09346327664645 314.54694859880476 L 361.7874472363267 315.9739655582305 L 361.5450210258457 317.4009825176562 L 361.3643944684047 318.8279994770819 L 361.24386076878204 320.2550164365076 L 361.18186277102575 321.68203339593333 L 361.17704256621965 323.10905035535905 L 361.22827372558623 324.53606731478476 L 361.33467597633336 325.9630842742105 L 361.4956126978184 327.3901012336362 L 361.71067217921984 328.8171181930619 L 361.97963412614007 330.2441351524876 L 362.30242340619503 331.67115211191333 L 362.67905345296305 333.09816907133904 L 363.1095620731248 334.52518603076476 L 363.5939425952586 335.9522029901905 L 364.1320733387291 337.3792199496162 L 364.72364825527666 338.8062369090419 L 365.3681113047057 340.2332538684676 L 366.0645966843674 341.6602708278933 L 366.81187646978276 343.08728778731904 L 367.60831658438633 344.51430474674476 L 368.451841354565 345.94132170617047 L 369.33990628297664 347.3683386655962 L 370.26947815046174 348.7953556250219 L 371.2370211910404 350.2223725844476 L 372.23848791990866 351.6493895438733 L 373.2693132576979 353.07640650329904 L 374.3244108902158 354.50342346272475 L 375.3981713117728 355.93044042215047 L 376.4844616780749 357.3574573815762 L 377.57662837600316 358.7844743410019 L 378.66750402038565 360.2114913004276 L 379.7494213208424 361.6385082598533 L 380.8142368329871 363.06552521927904 L 381.85336793431173 364.49254217870475 L 382.8578463799165 365.9195591381305 L 383.8183914558001 367.3465760975562 L 384.72550504701735 368.7735930569819 L 385.5695898971407 370.2006100164076 L 386.3410910094465 371.6276269758333 L 387.0306586137817 373.05464393525904 L 387.6293295038615 374.48166089468475 L 388.12872195989917 375.90867785411046 L 388.52123803728375 377.3356948135362 L 388.80026584320393 378.76271177296195 L 388.9603736424745 380.1897287323876 L 388.9974873081899 381.6167456918134 L 388.909042806314 383.0437626512391 L 388.69410608324785 384.4707796106648 L 388.35345388150836 385.8977965700905 L 387.88961057533925 387.32481352951623 L 387.30683799978203 388.75183048894195 L 386.61107732564875 390.17884744836766 L 385.80984417829484 391.6058644077934 L 384.9120802769071 393.0328813672191 L 383.92796675764816 394.4598983266448 L 382.86870592975725 395.8869152860705 L 381.7462794142816 397.31393224549623 L 380.5731913756508 398.74094920492195 L 379.3622058539889 400.16796616434766 L 378.12608704975537 401.5949831237734 L 376.8773508398638 403.0220000831991 L 375.6280348776563 404.4490170426248 L 374.3894934273504 405.8760340020505 L 373.172221696318 407.30305096147623 L 371.98571294799876 408.73006792090194 L 370.8383501923902 410.15708488032766 L 369.73733283786436 411.5841018397534 L 368.68863741123 413.0111187991791 L 367.6970103593018 414.4381357586048 L 366.76599006390194 415.8651527180305 L 365.89795454538756 417.29216967745623 L 365.09419089473715 418.71918663688194 L 364.3549822461811 420.1462035963077 L 363.67970805790026 421.5732205557334 L 363.06695357877027 423.00023751515914 L 362.51462461369096 424.4272544745848 L 362.02006402835593 425.85427143401057 L 361.58016682836194 427.2812883934363 L 361.1914910827978 428.708305352862 L 360.85036241833706 430.1353223122877 L 360.5529702697459 431.5623392717134 L 360.295454523472 432.98935623113914 L 360.07398162229305 434.41637319056485 L 359.8848096027756 435.84339014999057 L 359.724341907006 437.2704071094163 L 359.58917014039247 438.697424068842 L 359.47610623396844 440.1244410282677 L 359.3822047091803 441.5514579876934 L 359.30477593332427 442.97847494711914 L 359.2413913935792 444.40549190654485 L 359.18988210739724 445.83250886597057 L 359.14833132884934 447.2595258253963 L 359.1150627079846 448.686542784822 L 359.08862501839627 450.1135597442477 L 359.06777449328735 451.5405767036734 L 359.0514557095348 452.96759366309914 L 359.03878184016247 454.39461062252485 L 359.02901496582547 455.82162758195057 L 359.02154700253527 457.2486445413763 L 359.01588167226055 458.675661500802 L 359.0116178205007 460.1026784602277 Z" stroke="black" stroke-width="0.5" fill="steelblue" /><path d="M 558.9474964636778 346.9140520052837 L 558.9094536450117 345.56215217594996 L 558.8479953860967 344.21025234661624 L 558.7515542331893 342.85835251728247 L 558.6045520365266 341.5064526879488 L 558.386897861416 340.15455285861503 L 558.0738643049594 338.8026530292813 L 557.6365544115537 337.4507531999476 L 557.0431530127452 336.0988533706138 L 556.2610851201532 334.74695354128016 L 555.260076225296 333.3950537119464 L 554.015935936926 332.0431538826127 L 552.5146948540485 330.69125405327895 L 550.7565560338217 329.33935422394524 L 548.7590230688863 327.9874543946115 L 546.558575604291 326.6355545652778 L 544.2103990539999 325.2836547359441 L 541.7859283598293 323.9317549066103 L 539.3682956139918 322.57985507727665 L 537.0461152638132 321.2279552479429 L 534.9063276820032 319.87605541860916 L 533.0269916169651 318.52415558927544 L 531.4709337549724 317.1722557599417 L 530.2810287756295 315.820355930608 L 529.4776281071669 314.4684561012742 L 529.0583350132647 313.11655627194057 L 529 311.7646564426068 L 529.2625381379753 310.4127566132731 L 529.7939840885565 309.06085678393936 L 530.5361139276894 307.70895695460564 L 531.429968280164 306.3570571252719 L 532.4206902640782 305.0051572959382 L 533.4612229998742 303.6532574666045 L 534.5145768713977 302.3013576372707 L 535.5545625683317 300.94945780793705 L 536.5650794615774 299.5975579786033 L 537.5382334475855 298.24565814926956 L 538.4717106950608 296.89375831993584 L 539.3659258049356 295.54185849060207 L 540.2214698186873 294.1899586612684 L 541.0372938079774 292.83805883193463 L 541.8098881119939 291.4861590026009 L 542.5334906331411 290.1342591732672 L 543.2011324829114 288.7823593439335 L 543.8061613168903 287.43045951459976 L 544.343813283521 286.078559685266 L 544.8124469498905 284.7266598559323 L 545.214187358359 283.37476002659855 L 545.5549096429924 282.0228601972649 L 545.8436626801928 280.6709603679311 L 546.0917454699365 279.3190605385974 L 546.311677399179 277.9671607092637 L 546.5162535505139 276.61526087992996 L 546.7177790545363 275.26336105059625 L 546.9274761470264 273.91146122126247 L 547.154993920278 272.5595613919288 L 547.4079451046192 271.20766156259504 L 547.6914427298183 269.8557617332614 L 548.0076860489904 268.5038619039276 L 548.3557122304345 267.1519620745939 L 548.7314541120379 265.80006224526016 L 549.1282074457 264.4481624159264 L 549.5375195810161 263.09626258659273 L 549.9503930624059 261.74436275725895 L 550.3585917750183 260.3924629279253 L 550.7557818949916 259.0405630985915 L 551.1382577374083 257.6886632692578 L 551.505093215778 256.3367634399241 L 551.8576991137747 254.98486361059037 L 552.1989148779455 253.63296378125665 L 552.5318781312014 252.2810639519229 L 552.8589629231172 250.92916412258916 L 553.1810465018152 249.57726429325544 L 553.4972651630686 248.22536446392175 L 553.8052826596078 246.873464634588 L 554.1019590664794 245.5215648052543 L 554.3842104158922 244.16966497592054 L 554.6498134112095 242.81776514658682 L 554.8979403232898 241.46586531725313 L 555.129293953274 240.1139654879194 L 555.3458256410183 238.76206565858564 L 555.5501300162967 237.41016582925192 L 555.744690876751 236.05826599991823 L 555.9311849148642 234.7063661705845 L 556.11002848326 233.35446634125077 L 556.2802848234146 232.002566511917 L 556.4399535753927 230.65066668258333 L 556.5865654978365 229.29876685324956 L 556.7179280259089 227.94686702391584 L 556.8328307202213 226.59496719458213 L 556.9315323853024 225.2430673652484 L 557.0159093557985 223.8911675359147 L 557.0892310530228 222.53926770658097 L 557.1556209090272 221.18736787724725 L 557.2193338869359 219.83546804791348 L 557.2840179545032 218.48356821857976 L 557.3521189264029 217.13166838924604 L 557.4245415755468 215.77976855991233 L 557.5006105123689 214.4278687305786 L 557.5783026161753 213.0759689012449 L 557.654667849863 211.72406907191112 L 557.726329309318 210.3721692425774 L 557.7899589250911 209.02026941324374 L 557.8426556915015 207.66836958390996 L 557.882195865249 206.31646975457625 L 557.9071648744763 204.96456992524253 L 557.9170071659393 203.6126700959088 L 557.9120372182966 202.26077026657504 L 557.8934435976453 200.90887043724138 L 557.863295002403 199.5569706079076 L 557.8245324681777 198.20507077857388 L 557.780914697472 196.85317094924017 L 557.73688010025 195.50127111990645 L 557.6973010181232 194.14937129057273 L 557.6671292864837 192.797471461239 L 557.6509607484255 191.4455716319053 L 557.6525713030458 190.09367180257152 L 557.6744914997444 188.74177197323786 L 557.7176866589733 187.38987214390409 L 557.7813950635436 186.03797231457037 L 557.8631516117475 184.68607248523665 L 557.9589944864191 183.33417265590293 L 558.0638244920586 181.98227282656916 L 558.1718662685996 180.63037299723544 L 558.2771708494721 179.27847316790178 L 558.3741004964457 177.926573338568 L 558.4577474371375 176.5746735092343 L 558.5242544104916 175.22277367990057 L 558.5710225834521 173.87087385056685 L 558.5968077527544 172.51897402123308 L 558.6017164296958 171.16707419189942 L 558.5871187314625 169.81517436256564 L 558.5554957826463 168.46327453323192 L 558.5102373220644 167.1113747038982 L 558.4554023902177 165.7594748745645 L 558.3954539136927 164.40757504523077 L 558.3349775330523 163.05567521589705 L 558.2783962130698 161.70377538656334 L 558.2296945494913 160.35187555722956 L 558.1921694563214 158.9999757278959 L 558.168226134856 157.64807589856213 L 558.1592388400544 156.2961760692284 L 558.1654938893191 154.9442762398947 L 558.186226710749 153.59237641056097 L 558.2197552021601 152.24047658122726 L 558.2636990108848 150.88857675189354 L 558.3152605685481 149.53667692255982 L 558.3715318983626 148.18477709322605 L 558.4297847184798 146.83287726389233 L 558.4877027371026 145.4809774345586 L 558.5435249494395 144.1290776052249 L 558.5960854860562 142.77717777589112 L 558.6447553058299 141.42527794655746 L 558.6893089266912 140.07337811722368 L 558.7297510723068 138.72147828788997 L 558.7661410653636 137.3695784585563 L 558.7984470923851 136.01767862922253 L 558.8264506060842 134.6657787998888 L 558.8497070901857 133.3138789705551 L 558.8675572519907 131.96197914122138 L 558.8791753206174 130.6100793118876 L 558.8836395005203 129.25817948255394 L 558.8800128230891 127.90627965322017 L 558.867428380359 126.55437982388645 L 558.8451785017177 125.20247999455273 L 558.8128105597875 123.85058016521901 L 558.7702314887998 122.4986803358853 L 558.7178187258922 121.14678050655158 L 558.6565282531986 119.79488067721786 L 558.5879827091103 118.44298084788409 L 558.5145166088595 117.09108101855043 L 558.4391540097182 115.73918118921671 L 558.3654983165522 114.38728135988293 L 558.2975249706649 113.03538153054922 L 558.239284402295 111.6834817012155 L 558.194541901917 110.33158187188178 L 558.1663985940978 108.979682042548 L 558.156948689951 107.62778221321435 L 558.16702885199 106.27588238388057 L 558.1961043464366 104.92398255454685 L 558.2423152554217 103.57208272521314 L 558.3026788048097 102.22018289587942 L 558.3734169739867 100.8682830665457 L 558.4503581096736 99.51638323721198 L 558.5293516302027 98.16448340787827 L 558.6066375508162 96.81258357854449 L 558.6791258651992 95.46068374921083 L 558.7445608037523 94.10878391987706 L 558.8015666381802 92.75688409054334 L 558.8495903865804 91.40498426120962 L 558.8887693343216 90.0530844318759 L 558.9197565150931 88.70118460254213 L 558.9435358055806 87.34928477320847 L 558.9612519449938 85.99738494387475 L 558.9740719870935 84.64548511454097 L 558.9830856725613 83.29358528520726 L 558.9892446291267 81.94168545587354 L 558.9933350543406 80.58978562653982 L 558.9959757831026 79.2378857972061 L 558.9976330372939 77.88598596787239 L 559.0023669627061 77.88598596787239 L 559.0040242168974 79.2378857972061 L 559.0066649456594 80.58978562653982 L 559.0107553708733 81.94168545587354 L 559.0169143274387 83.29358528520726 L 559.0259280129065 84.64548511454097 L 559.0387480550062 85.99738494387475 L 559.0564641944194 87.34928477320847 L 559.0802434849069 88.70118460254213 L 559.1112306656784 90.0530844318759 L 559.1504096134196 91.40498426120962 L 559.1984333618198 92.75688409054334 L 559.2554391962477 94.10878391987706 L 559.3208741348008 95.46068374921083 L 559.3933624491838 96.81258357854449 L 559.4706483697973 98.16448340787827 L 559.5496418903264 99.51638323721198 L 559.6265830260133 100.8682830665457 L 559.6973211951903 102.22018289587942 L 559.7576847445783 103.57208272521314 L 559.8038956535634 104.92398255454685 L 559.83297114801 106.27588238388057 L 559.843051310049 107.62778221321435 L 559.8336014059022 108.979682042548 L 559.805458098083 110.33158187188178 L 559.760715597705 111.6834817012155 L 559.7024750293351 113.03538153054922 L 559.6345016834478 114.38728135988293 L 559.5608459902818 115.73918118921671 L 559.4854833911405 117.09108101855043 L 559.4120172908897 118.44298084788409 L 559.3434717468014 119.79488067721786 L 559.2821812741078 121.14678050655158 L 559.2297685112002 122.4986803358853 L 559.1871894402125 123.85058016521901 L 559.1548214982823 125.20247999455273 L 559.132571619641 126.55437982388645 L 559.1199871769109 127.90627965322017 L 559.1163604994797 129.25817948255394 L 559.1208246793826 130.6100793118876 L 559.1324427480093 131.96197914122138 L 559.1502929098143 133.3138789705551 L 559.1735493939158 134.6657787998888 L 559.2015529076149 136.01767862922253 L 559.2338589346364 137.3695784585563 L 559.2702489276932 138.72147828788997 L 559.3106910733088 140.07337811722368 L 559.3552446941701 141.42527794655746 L 559.4039145139438 142.77717777589112 L 559.4564750505605 144.1290776052249 L 559.5122972628974 145.4809774345586 L 559.5702152815202 146.83287726389233 L 559.6284681016374 148.18477709322605 L 559.6847394314519 149.53667692255982 L 559.7363009891152 150.88857675189354 L 559.7802447978399 152.24047658122726 L 559.813773289251 153.59237641056097 L 559.8345061106809 154.9442762398947 L 559.8407611599456 156.2961760692284 L 559.831773865144 157.64807589856213 L 559.8078305436786 158.9999757278959 L 559.7703054505087 160.35187555722956 L 559.7216037869302 161.70377538656334 L 559.6650224669477 163.05567521589705 L 559.6045460863073 164.40757504523077 L 559.5445976097823 165.7594748745645 L 559.4897626779356 167.1113747038982 L 559.4445042173537 168.46327453323192 L 559.4128812685375 169.81517436256564 L 559.3982835703042 171.16707419189942 L 559.4031922472456 172.51897402123308 L 559.4289774165479 173.87087385056685 L 559.4757455895084 175.22277367990057 L 559.5422525628625 176.5746735092343 L 559.6258995035543 177.926573338568 L 559.7228291505279 179.27847316790178 L 559.8281337314004 180.63037299723544 L 559.9361755079414 181.98227282656916 L 560.0410055135809 183.33417265590293 L 560.1368483882525 184.68607248523665 L 560.2186049364564 186.03797231457037 L 560.2823133410267 187.38987214390409 L 560.3255085002556 188.74177197323786 L 560.3474286969542 190.09367180257152 L 560.3490392515745 191.4455716319053 L 560.3328707135163 192.797471461239 L 560.3026989818768 194.14937129057273 L 560.26311989975 195.50127111990645 L 560.219085302528 196.85317094924017 L 560.1754675318223 198.20507077857388 L 560.136704997597 199.5569706079076 L 560.1065564023547 200.90887043724138 L 560.0879627817034 202.26077026657504 L 560.0829928340607 203.6126700959088 L 560.0928351255237 204.96456992524253 L 560.117804134751 206.31646975457625 L 560.1573443084985 207.66836958390996 L 560.2100410749089 209.02026941324374 L 560.273670690682 210.3721692425774 L 560.345332150137 211.72406907191112 L 560.4216973838247 213.0759689012449 L 560.4993894876311 214.4278687305786 L 560.5754584244532 215.77976855991233 L 560.6478810735971 217.13166838924604 L 560.7159820454968 218.48356821857976 L 560.7806661130641 219.83546804791348 L 560.8443790909728 221.18736787724725 L 560.9107689469772 222.53926770658097 L 560.9840906442015 223.8911675359147 L 561.0684676146976 225.2430673652484 L 561.1671692797787 226.59496719458213 L 561.2820719740911 227.94686702391584 L 561.4134345021635 229.29876685324956 L 561.5600464246073 230.65066668258333 L 561.7197151765854 232.002566511917 L 561.88997151674 233.35446634125077 L 562.0688150851358 234.7063661705845 L 562.255309123249 236.05826599991823 L 562.4498699837033 237.41016582925192 L 562.6541743589817 238.76206565858564 L 562.870706046726 240.1139654879194 L 563.1020596767102 241.46586531725313 L 563.3501865887905 242.81776514658682 L 563.6157895841078 244.16966497592054 L 563.8980409335206 245.5215648052543 L 564.1947173403922 246.873464634588 L 564.5027348369314 248.22536446392175 L 564.8189534981848 249.57726429325544 L 565.1410370768828 250.92916412258916 L 565.4681218687986 252.2810639519229 L 565.8010851220545 253.63296378125665 L 566.1423008862253 254.98486361059037 L 566.494906784222 256.3367634399241 L 566.8617422625917 257.6886632692578 L 567.2442181050084 259.0405630985915 L 567.6414082249817 260.3924629279253 L 568.0496069375941 261.74436275725895 L 568.4624804189839 263.09626258659273 L 568.8717925543 264.4481624159264 L 569.2685458879621 265.80006224526016 L 569.6442877695655 267.1519620745939 L 569.9923139510096 268.5038619039276 L 570.3085572701817 269.8557617332614 L 570.5920548953808 271.20766156259504 L 570.845006079722 272.5595613919288 L 571.0725238529736 273.91146122126247 L 571.2822209454637 275.26336105059625 L 571.4837464494861 276.61526087992996 L 571.688322600821 277.9671607092637 L 571.9082545300635 279.3190605385974 L 572.1563373198072 280.6709603679311 L 572.4450903570076 282.0228601972649 L 572.785812641641 283.37476002659855 L 573.1875530501095 284.7266598559323 L 573.656186716479 286.078559685266 L 574.1938386831097 287.43045951459976 L 574.7988675170886 288.7823593439335 L 575.4665093668589 290.1342591732672 L 576.1901118880061 291.4861590026009 L 576.9627061920226 292.83805883193463 L 577.7785301813127 294.1899586612684 L 578.6340741950644 295.54185849060207 L 579.5282893049392 296.89375831993584 L 580.4617665524145 298.24565814926956 L 581.4349205384226 299.5975579786033 L 582.4454374316683 300.94945780793705 L 583.4854231286023 302.3013576372707 L 584.5387770001258 303.6532574666045 L 585.5793097359218 305.0051572959382 L 586.570031719836 306.3570571252719 L 587.4638860723106 307.70895695460564 L 588.2060159114435 309.06085678393936 L 588.7374618620247 310.4127566132731 L 589 311.7646564426068 L 588.9416649867353 313.11655627194057 L 588.5223718928331 314.4684561012742 L 587.7189712243705 315.820355930608 L 586.5290662450276 317.1722557599417 L 584.9730083830349 318.52415558927544 L 583.0936723179968 319.87605541860916 L 580.9538847361868 321.2279552479429 L 578.6317043860082 322.57985507727665 L 576.2140716401707 323.9317549066103 L 573.7896009460001 325.2836547359441 L 571.441424395709 326.6355545652778 L 569.2409769311137 327.9874543946115 L 567.2434439661783 329.33935422394524 L 565.4853051459515 330.69125405327895 L 563.984064063074 332.0431538826127 L 562.739923774704 333.3950537119464 L 561.7389148798468 334.74695354128016 L 560.9568469872548 336.0988533706138 L 560.3634455884463 337.4507531999476 L 559.9261356950406 338.8026530292813 L 559.613102138584 340.15455285861503 L 559.3954479634734 341.5064526879488 L 559.2484457668107 342.85835251728247 L 559.1520046139033 344.21025234661624 L 559.0905463549883 345.56215217594996 L 559.0525035363222 346.9140520052837 Z" stroke="black" stroke-width="0.5" fill="steelblue" /></svg>