<svg xmlns="http://www.w3.org/2000/svg" width="677.8000000000001" height="545" font-family="DejaVu Sans, Liberation Sans, Arial, sans-serif" fill="black"><rect width="100%" height="100%" fill="white" /><defs><clipPath id="kuva-clip-5"><rect x="63.800000000000004" y="44" width="600" height="450"/></clipPath></defs><line x1="63.800000000000004" y1="429.71000000000004" x2="663.8000000000001" y2="429.71000000000004" stroke="#cccccc" stroke-width="1" /><line x1="63.800000000000004" y1="301.14" x2="663.8000000000001" y2="301.14" stroke="#cccccc" stroke-width="1" /><line x1="63.800000000000004" y1="172.57" x2="663.8000000000001" y2="172.57" stroke="#cccccc" stroke-width="1" /><line x1="63.800000000000004" y1="44" x2="663.8000000000001" y2="44" stroke="#cccccc" stroke-width="1" /><line x1="63.800000000000004" y1="494" x2="663.8000000000001" y2="494" stroke="#000000" stroke-width="1" /><line x1="63.800000000000004" y1="44" x2="63.800000000000004" y2="494" stroke="#000000" stroke-width="1" /><text x="163.8" y="511" font-size="12" text-anchor="middle">Normal</text><line x1="163.8" y1="494" x2="163.8" y2="499" stroke="#000000" stroke-width="1" /><text x="363.8" y="511" font-size="12" text-anchor="middle">Bimodal</text><line x1="363.8" y1="494" x2="363.8" y2="499" stroke="#000000" stroke-width="1" /><text x="563.8000000000001" y="511" font-size="12" text-anchor="middle">Skewed</text><line x1="563.8000000000001" y1="494" x2="563.8000000000001" y2="499" stroke="#000000" stroke-width="1" /><line x1="58.800000000000004" y1="429.71000000000004" x2="63.800000000000004" y2="429.71000000000004" stroke="#000000" stroke-width="1" /><text x="55.800000000000004" y="433.91" font-size="12" text-anchor="end">-5</text><line x1="58.800000000000004" y1="301.14" x2="63.800000000000004" y2="301.14" stroke="#000000" stroke-width="1" /><text x="55.800000000000004" y="305.34000000000003" font-size="12" text-anchor="end">0</text><line x1="58.800000000000004" y1="172.57" x2="63.800000000000004" y2="172.57" stroke="#000000" stroke-width="1" /><text x="55.800000000000004" y="176.77" font-size="12" text-anchor="end">5</text><line x1="58.800000000000004" y1="44" x2="63.800000000000004" y2="44" stroke="#000000" stroke-width="1" /><text x="55.800000000000004" y="48.2" font-size="12" text-anchor="end">10</text><text x="15" y="269" font-size="14" text-anchor="middle" transform="rotate(-90,15,269)">Value</text><text x="363.8" y="27.400000000000002" font-size="18" text-anchor="middle">Violin Plot — Per-group Colors</text><g clip-path="url(#kuva-clip-5)"><path d="M 163.79 385.04 L 163.78 384.14 L 163.77 383.23 L 163.76 382.33 L 163.74 381.43 L 163.72 380.53000000000003 L 163.68 379.62 L 163.64000000000001 378.72 L 163.59 377.82 L 163.52 376.92 L 163.43 376.01 L 163.33 375.11 L 163.20000000000002 374.21 L 163.06 373.31 L 162.88 372.40000000000003 L 162.69 371.5 L 162.47 370.6 L 162.22 369.7 L 161.94 368.79 L 161.64000000000001 367.89 L 161.3 366.99 L 160.93 366.09000000000003 L 160.53 365.18 L 160.08 364.28000000000003 L 159.6 363.38 L 159.08 362.48 L 158.51 361.57 L 157.91 360.67 L 157.27 359.77 L 156.6 358.87 L 155.91 357.96 L 155.21 357.06 L 154.5 356.16 L 153.79 355.26 L 153.11 354.35 L 152.44 353.45 L 151.8 352.55 L 151.19 351.65000000000003 L 150.59 350.74 L 150.02 349.84000000000003 L 149.45000000000002 348.94 L 148.87 348.04 L 148.27 347.13 L 147.64000000000001 346.23 L 146.98 345.33 L 146.26 344.43 L 145.49 343.52 L 144.68 342.62 L 143.81 341.72 L 142.9 340.82 L 141.94 339.91 L 140.93 339.01 L 139.86 338.11 L 138.73 337.21 L 137.52 336.3 L 136.21 335.40000000000003 L 134.78 334.5 L 133.2 333.6 L 131.46 332.69 L 129.54 331.79 L 127.46000000000001 330.89 L 125.21000000000001 329.99 L 122.81 329.08 L 120.32000000000001 328.18 L 117.76 327.28000000000003 L 115.19 326.38 L 112.67 325.47 L 110.26 324.57 L 108.0 323.67 L 105.94 322.77 L 104.10000000000001 321.86 L 102.49000000000001 320.96 L 101.12 320.06 L 99.95 319.16 L 98.97 318.25 L 98.12 317.35 L 97.37 316.45 L 96.68 315.55 L 95.99000000000001 314.64 L 95.28 313.74 L 94.52 312.84000000000003 L 93.7 311.94 L 92.82000000000001 311.03000000000003 L 91.87 310.13 L 90.89 309.23 L 89.87 308.33 L 88.86 307.42 L 87.87 306.52 L 86.94 305.62 L 86.09 304.72 L 85.33 303.81 L 84.71000000000001 302.91 L 84.23 302.01 L 83.92 301.11 L 83.8 300.2 L 83.88 299.3 L 84.18 298.40000000000003 L 84.72 297.5 L 85.49 296.59000000000003 L 86.51 295.69 L 87.77 294.79 L 89.25 293.89 L 90.95 292.98 L 92.83 292.08 L 94.86 291.18 L 96.99000000000001 290.28000000000003 L 99.2 289.37 L 101.43 288.47 L 103.65 287.57 L 105.81 286.67 L 107.89 285.76 L 109.87 284.86 L 111.74000000000001 283.96 L 113.49000000000001 283.06 L 115.14 282.15000000000003 L 116.7 281.25 L 118.2 280.35 L 119.66 279.45 L 121.11 278.54 L 122.58 277.64 L 124.09 276.74 L 125.65 275.84000000000003 L 127.27 274.94 L 128.94 274.03000000000003 L 130.67000000000002 273.13 L 132.43 272.23 L 134.2 271.33 L 135.96 270.42 L 137.67000000000002 269.52 L 139.31 268.62 L 140.85 267.72 L 142.28 266.81 L 143.56 265.91 L 144.70000000000002 265.01 L 145.70000000000002 264.11 L 146.55 263.2 L 147.27 262.3 L 147.88 261.4 L 148.4 260.5 L 148.86 259.59000000000003 L 149.28 258.69 L 149.68 257.79 L 150.08 256.89 L 150.51 255.98000000000002 L 150.98 255.08 L 151.5 254.18 L 152.07 253.28 L 152.68 252.37 L 153.34 251.47 L 154.03 250.57 L 154.75 249.67000000000002 L 155.47 248.76000000000002 L 156.19 247.86 L 156.89000000000001 246.96 L 157.57 246.06 L 158.21 245.15 L 158.81 244.25 L 159.36 243.35 L 159.85 242.45000000000002 L 160.28 241.54 L 160.64000000000001 240.64000000000001 L 160.95000000000002 239.74 L 161.19 238.84 L 161.36 237.93 L 161.48 237.03 L 161.54 236.13 L 161.56 235.23000000000002 L 161.53 234.32 L 161.46 233.42000000000002 L 161.38 232.52 L 161.28 231.62 L 161.18 230.71 L 161.09 229.81 L 161.02 228.91 L 160.98 228.01 L 160.98 227.1 L 161.02 226.20000000000002 L 161.1 225.3 L 161.21 224.4 L 161.36 223.49 L 161.54 222.59 L 161.75 221.69 L 161.96 220.79 L 162.18 219.88 L 162.4 218.98000000000002 L 162.61 218.08 L 162.81 217.18 L 162.99 216.27 L 163.15 215.37 L 163.28 214.47 L 163.4 213.57 L 163.49 212.66 L 163.57 211.76 L 163.63 210.86 L 163.68 209.96 L 163.71 209.05 L 163.74 208.15 L 163.76 207.25 L 163.77 206.35 L 163.78 205.44 L 163.82 205.44 L 163.83 206.35 L 163.84 207.25 L 163.86 208.15 L 163.89000000000001 209.05 L 163.92000000000002 209.96 L 163.97 210.86 L 164.03 211.76 L 164.11 212.66 L 164.20000000000002 213.57 L 164.32 214.47 L 164.45000000000002 215.37 L 164.61 216.27 L 164.79 217.18 L 164.99 218.08 L 165.20000000000002 218.98000000000002 L 165.42000000000002 219.88 L 165.64000000000001 220.79 L 165.85 221.69 L 166.06 222.59 L 166.24 223.49 L 166.39000000000001 224.4 L 166.5 225.3 L 166.58 226.20000000000002 L 166.62 227.1 L 166.62 228.01 L 166.58 228.91 L 166.51 229.81 L 166.42000000000002 230.71 L 166.32 231.62 L 166.22 232.52 L 166.14000000000001 233.42000000000002 L 166.07 234.32 L 166.04 235.23000000000002 L 166.06 236.13 L 166.12 237.03 L 166.24 237.93 L 166.41 238.84 L 166.65 239.74 L 166.96 240.64000000000001 L 167.32 241.54 L 167.75 242.45000000000002 L 168.24 243.35 L 168.79 244.25 L 169.39000000000001 245.15 L 170.03 246.06 L 170.71 246.96 L 171.41 247.86 L 172.13 248.76000000000002 L 172.85 249.67000000000002 L 173.57 250.57 L 174.26 251.47 L 174.92000000000002 252.37 L 175.53 253.28 L 176.1 254.18 L 176.62 255.08 L 177.09 255.98000000000002 L 177.52 256.89 L 177.92000000000002 257.79 L 178.32 258.69 L 178.74 259.59000000000003 L 179.20000000000002 260.5 L 179.72 261.4 L 180.33 262.3 L 181.05 263.2 L 181.9 264.11 L 182.9 265.01 L 184.04 265.91 L 185.32 266.81 L 186.75 267.72 L 188.29 268.62 L 189.93 269.52 L 191.64000000000001 270.42 L 193.4 271.33 L 195.17000000000002 272.23 L 196.93 273.13 L 198.66 274.03000000000003 L 200.33 274.94 L 201.95000000000002 275.84000000000003 L 203.51 276.74 L 205.02 277.64 L 206.49 278.54 L 207.94 279.45 L 209.4 280.35 L 210.9 281.25 L 212.46 282.15000000000003 L 214.11 283.06 L 215.86 283.96 L 217.73000000000002 284.86 L 219.71 285.76 L 221.79 286.67 L 223.95000000000002 287.57 L 226.17000000000002 288.47 L 228.4 289.37 L 230.61 290.28000000000003 L 232.74 291.18 L 234.77 292.08 L 236.65 292.98 L 238.35 293.89 L 239.83 294.79 L 241.09 295.69 L 242.11 296.59000000000003 L 242.88 297.5 L 243.42000000000002 298.40000000000003 L 243.72 299.3 L 243.8 300.2 L 243.68 301.11 L 243.37 302.01 L 242.89000000000001 302.91 L 242.27 303.81 L 241.51 304.72 L 240.66 305.62 L 239.73000000000002 306.52 L 238.74 307.42 L 237.73000000000002 308.33 L 236.71 309.23 L 235.73000000000002 310.13 L 234.78 311.03000000000003 L 233.9 311.94 L 233.08 312.84000000000003 L 232.32 313.74 L 231.61 314.64 L 230.92000000000002 315.55 L 230.23000000000002 316.45 L 229.48000000000002 317.35 L 228.63 318.25 L 227.65 319.16 L 226.48000000000002 320.06 L 225.11 320.96 L 223.5 321.86 L 221.66 322.77 L 219.6 323.67 L 217.34 324.57 L 214.93 325.47 L 212.41 326.38 L 209.84 327.28000000000003 L 207.28 328.18 L 204.79 329.08 L 202.39000000000001 329.99 L 200.14000000000001 330.89 L 198.06 331.79 L 196.14000000000001 332.69 L 194.4 333.6 L 192.82 334.5 L 191.39000000000001 335.40000000000003 L 190.08 336.3 L 188.87 337.21 L 187.74 338.11 L 186.67000000000002 339.01 L 185.66 339.91 L 184.70000000000002 340.82 L 183.79 341.72 L 182.92000000000002 342.62 L 182.11 343.52 L 181.34 344.43 L 180.62 345.33 L 179.96 346.23 L 179.33 347.13 L 178.73 348.04 L 178.15 348.94 L 177.58 349.84000000000003 L 177.01 350.74 L 176.41 351.65000000000003 L 175.8 352.55 L 175.16 353.45 L 174.49 354.35 L 173.81 355.26 L 173.1 356.16 L 172.39000000000001 357.06 L 171.69 357.96 L 171.0 358.87 L 170.33 359.77 L 169.69 360.67 L 169.09 361.57 L 168.52 362.48 L 168.0 363.38 L 167.52 364.28000000000003 L 167.07 365.18 L 166.67000000000002 366.09000000000003 L 166.3 366.99 L 165.96 367.89 L 165.66 368.79 L 165.38 369.7 L 165.13 370.6 L 164.91 371.5 L 164.72 372.40000000000003 L 164.54 373.31 L 164.4 374.21 L 164.27 375.11 L 164.17000000000002 376.01 L 164.08 376.92 L 164.01 377.82 L 163.96 378.72 L 163.92000000000002 379.62 L 163.88 380.53000000000003 L 163.86 381.43 L 163.84 382.33 L 163.83 383.23 L 163.82 384.14 L 163.81 385.04 Z" stroke="#000000" stroke-width="0.5" fill="#4682b4" /><path d="M 363.76 430.72 L 363.75 429.38 L 363.74 428.03000000000003 L 363.72 426.68 L 363.69 425.33 L 363.65000000000003 423.98 L 363.61 422.63 L 363.55 421.28000000000003 L 363.49 419.94 L 363.40000000000003 418.59000000000003 L 363.29 417.24 L 363.16 415.89 L 363.0 414.54 L 362.81 413.19 L 362.58 411.84000000000003 L 362.31 410.5 L 361.98 409.15000000000003 L 361.6 407.8 L 361.15000000000003 406.45 L 360.62 405.1 L 360.02 403.75 L 359.32 402.40000000000003 L 358.52 401.06 L 357.62 399.71000000000004 L 356.59000000000003 398.36 L 355.45 397.01 L 354.16 395.66 L 352.74 394.31 L 351.17 392.96000000000004 L 349.45 391.62 L 347.57 390.27 L 345.54 388.92 L 343.35 387.57 L 341.01 386.22 L 338.52 384.87 L 335.88 383.52 L 333.11 382.18 L 330.22 380.83 L 327.23 379.48 L 324.15000000000003 378.13 L 321.0 376.78000000000003 L 317.81 375.43 L 314.59000000000003 374.08 L 311.39 372.74 L 308.22 371.39 L 305.13 370.04 L 302.13 368.69 L 299.26 367.34000000000003 L 296.56 365.99 L 294.05 364.65000000000003 L 291.76 363.3 L 289.72 361.95 L 287.95 360.6 L 286.48 359.25 L 285.31 357.90000000000003 L 284.47 356.55 L 283.97 355.21 L 283.8 353.86 L 283.97 352.51 L 284.47 351.16 L 285.3 349.81 L 286.43 348.46 L 287.87 347.11 L 289.57 345.77 L 291.53000000000003 344.42 L 293.71 343.07 L 296.09000000000003 341.72 L 298.64 340.37 L 301.33 339.02 L 304.14 337.67 L 307.04 336.33 L 309.99 334.98 L 312.98 333.63 L 315.98 332.28000000000003 L 318.96 330.93 L 321.90000000000003 329.58 L 324.79 328.23 L 327.61 326.89 L 330.34000000000003 325.54 L 332.97 324.19 L 335.48 322.84000000000003 L 337.88 321.49 L 340.14 320.14 L 342.26 318.79 L 344.25 317.45 L 346.08 316.1 L 347.76 314.75 L 349.29 313.40000000000003 L 350.66 312.05 L 351.88 310.7 L 352.94 309.35 L 353.84000000000003 308.01 L 354.58 306.66 L 355.16 305.31 L 355.58 303.96 L 355.84000000000003 302.61 L 355.93 301.26 L 355.86 299.91 L 355.62 298.57 L 355.21 297.22 L 354.62 295.87 L 353.86 294.52 L 352.91 293.17 L 351.79 291.82 L 350.49 290.47 L 349.0 289.13 L 347.33 287.78000000000003 L 345.48 286.43 L 343.44 285.08 L 341.24 283.73 L 338.86 282.38 L 336.33 281.03000000000003 L 333.66 279.69 L 330.84000000000003 278.34000000000003 L 327.91 276.99 L 324.88 275.64 L 321.77 274.29 L 318.61 272.94 L 315.42 271.59000000000003 L 312.22 270.25 L 309.05 268.9 L 305.94 267.55 L 302.92 266.2 L 300.01 264.85 L 297.27 263.5 L 294.7 262.15 L 292.35 260.81 L 290.24 259.46 L 288.40000000000003 258.11 L 286.84000000000003 256.76 L 285.6 255.41 L 284.67 254.06 L 284.07 252.71 L 283.81 251.37 L 283.89 250.02 L 284.3 248.67000000000002 L 285.04 247.32 L 286.1 245.97 L 287.45 244.62 L 289.08 243.27 L 290.97 241.93 L 293.09000000000003 240.58 L 295.42 239.23000000000002 L 297.93 237.88 L 300.59000000000003 236.53 L 303.37 235.18 L 306.25 233.83 L 309.19 232.49 L 312.17 231.14000000000001 L 315.17 229.79 L 318.16 228.44 L 321.13 227.09 L 324.04 225.74 L 326.89 224.39000000000001 L 329.66 223.05 L 332.34000000000003 221.70000000000002 L 334.91 220.35 L 337.37 219.0 L 339.7 217.65 L 341.91 216.3 L 344.0 214.95000000000002 L 345.95 213.61 L 347.77 212.26 L 349.45 210.91 L 351.01 209.56 L 352.44 208.21 L 353.76 206.86 L 354.95 205.52 L 356.03000000000003 204.17000000000002 L 357.01 202.82 L 357.88 201.47 L 358.67 200.12 L 359.37 198.77 L 359.99 197.42000000000002 L 360.53000000000003 196.08 L 361.01 194.73000000000002 L 361.43 193.38 L 361.79 192.03 L 362.11 190.68 L 362.38 189.33 L 362.62 187.98 L 362.82 186.64000000000001 L 362.99 185.29 L 363.13 183.94 L 363.25 182.59 L 363.35 181.24 L 363.44 179.89000000000001 L 363.51 178.54 L 363.56 177.20000000000002 L 363.61 175.85 L 363.65000000000003 174.5 L 363.68 173.15 L 363.71 171.8 L 363.73 170.45000000000002 L 363.74 169.1 L 363.76 167.76 L 363.77 166.41 L 363.78000000000003 165.06 L 363.78000000000003 163.71 L 363.79 162.36 L 363.81 162.36 L 363.82 163.71 L 363.82 165.06 L 363.83 166.41 L 363.84000000000003 167.76 L 363.86 169.1 L 363.87 170.45000000000002 L 363.89 171.8 L 363.92 173.15 L 363.95 174.5 L 363.99 175.85 L 364.04 177.20000000000002 L 364.09000000000003 178.54 L 364.16 179.89000000000001 L 364.25 181.24 L 364.35 182.59 L 364.47 183.94 L 364.61 185.29 L 364.78000000000003 186.64000000000001 L 364.98 187.98 L 365.22 189.33 L 365.49 190.68 L 365.81 192.03 L 366.17 193.38 L 366.59000000000003 194.73000000000002 L 367.07 196.08 L 367.61 197.42000000000002 L 368.23 198.77 L 368.93 200.12 L 369.72 201.47 L 370.59000000000003 202.82 L 371.57 204.17000000000002 L 372.65000000000003 205.52 L 373.84000000000003 206.86 L 375.16 208.21 L 376.59000000000003 209.56 L 378.15000000000003 210.91 L 379.83 212.26 L 381.65000000000003 213.61 L 383.6 214.95000000000002 L 385.69 216.3 L 387.90000000000003 217.65 L 390.23 219.0 L 392.69 220.35 L 395.26 221.70000000000002 L 397.94 223.05 L 400.71000000000004 224.39000000000001 L 403.56 225.74 L 406.47 227.09 L 409.44 228.44 L 412.43 229.79 L 415.43 231.14000000000001 L 418.41 232.49 L 421.35 233.83 L 424.23 235.18 L 427.01 236.53 L 429.67 237.88 L 432.18 239.23000000000002 L 434.51 240.58 L 436.63 241.93 L 438.52 243.27 L 440.15000000000003 244.62 L 441.5 245.97 L 442.56 247.32 L 443.3 248.67000000000002 L 443.71000000000004 250.02 L 443.79 251.37 L 443.53000000000003 252.71 L 442.93 254.06 L 442.0 255.41 L 440.76 256.76 L 439.2 258.11 L 437.36 259.46 L 435.25 260.81 L 432.90000000000003 262.15 L 430.33 263.5 L 427.59000000000003 264.85 L 424.68 266.2 L 421.66 267.55 L 418.55 268.9 L 415.38 270.25 L 412.18 271.59000000000003 L 408.99 272.94 L 405.83 274.29 L 402.72 275.64 L 399.69 276.99 L 396.76 278.34000000000003 L 393.94 279.69 L 391.27 281.03000000000003 L 388.74 282.38 L 386.36 283.73 L 384.16 285.08 L 382.12 286.43 L 380.27 287.78000000000003 L 378.6 289.13 L 377.11 290.47 L 375.81 291.82 L 374.69 293.17 L 373.74 294.52 L 372.98 295.87 L 372.39 297.22 L 371.98 298.57 L 371.74 299.91 L 371.67 301.26 L 371.76 302.61 L 372.02 303.96 L 372.44 305.31 L 373.02 306.66 L 373.76 308.01 L 374.66 309.35 L 375.72 310.7 L 376.94 312.05 L 378.31 313.40000000000003 L 379.84000000000003 314.75 L 381.52 316.1 L 383.35 317.45 L 385.34000000000003 318.79 L 387.46000000000004 320.14 L 389.72 321.49 L 392.12 322.84000000000003 L 394.63 324.19 L 397.26 325.54 L 399.99 326.89 L 402.81 328.23 L 405.7 329.58 L 408.64 330.93 L 411.62 332.28000000000003 L 414.62 333.63 L 417.61 334.98 L 420.56 336.33 L 423.46000000000004 337.67 L 426.27 339.02 L 428.96000000000004 340.37 L 431.51 341.72 L 433.89 343.07 L 436.07 344.42 L 438.03000000000003 345.77 L 439.73 347.11 L 441.17 348.46 L 442.3 349.81 L 443.13 351.16 L 443.63 352.51 L 443.8 353.86 L 443.63 355.21 L 443.13 356.55 L 442.29 357.90000000000003 L 441.12 359.25 L 439.65000000000003 360.6 L 437.88 361.95 L 435.84000000000003 363.3 L 433.55 364.65000000000003 L 431.04 365.99 L 428.34000000000003 367.34000000000003 L 425.47 368.69 L 422.47 370.04 L 419.38 371.39 L 416.21000000000004 372.74 L 413.01 374.08 L 409.79 375.43 L 406.6 376.78000000000003 L 403.45 378.13 L 400.37 379.48 L 397.38 380.83 L 394.49 382.18 L 391.72 383.52 L 389.08 384.87 L 386.59000000000003 386.22 L 384.25 387.57 L 382.06 388.92 L 380.03000000000003 390.27 L 378.15000000000003 391.62 L 376.43 392.96000000000004 L 374.86 394.31 L 373.44 395.66 L 372.15000000000003 397.01 L 371.01 398.36 L 369.98 399.71000000000004 L 369.08 401.06 L 368.28000000000003 402.40000000000003 L 367.58 403.75 L 366.98 405.1 L 366.45 406.45 L 366.0 407.8 L 365.62 409.15000000000003 L 365.29 410.5 L 365.02 411.84000000000003 L 364.79 413.19 L 364.6 414.54 L 364.44 415.89 L 364.31 417.24 L 364.2 418.59000000000003 L 364.11 419.94 L 364.05 421.28000000000003 L 363.99 422.63 L 363.95 423.98 L 363.91 425.33 L 363.88 426.68 L 363.86 428.03000000000003 L 363.85 429.38 L 363.84000000000003 430.72 Z" stroke="#000000" stroke-width="0.5" fill="#ff6347" /><path d="M 563.65 325.18 L 563.5500000000001 323.92 L 563.39 322.66 L 563.15 321.40000000000003 L 562.8100000000001 320.14 L 562.3000000000001 318.88 L 561.59 317.62 L 560.62 316.36 L 559.32 315.1 L 557.62 313.84000000000003 L 555.46 312.58 L 552.77 311.32 L 549.51 310.06 L 545.66 308.8 L 541.23 307.54 L 536.25 306.28000000000003 L 530.8100000000001 305.01 L 525.02 303.75 L 519.03 302.49 L 513.01 301.23 L 507.14 299.97 L 501.62 298.71 L 496.63 297.45 L 492.31 296.19 L 488.81 294.93 L 486.19 293.67 L 484.52 292.41 L 483.8 291.15000000000003 L 483.99 289.89 L 485.02 288.63 L 486.8 287.37 L 489.21000000000004 286.11 L 492.12 284.85 L 495.40000000000003 283.59000000000003 L 498.90000000000003 282.33 L 502.52000000000004 281.07 L 506.13 279.81 L 509.64 278.55 L 512.97 277.29 L 516.0600000000001 276.02 L 518.87 274.76 L 521.36 273.5 L 523.52 272.24 L 525.35 270.98 L 526.86 269.72 L 528.0600000000001 268.46 L 528.99 267.2 L 529.66 265.94 L 530.13 264.68 L 530.44 263.42 L 530.63 262.16 L 530.75 260.9 L 530.84 259.64 L 530.96 258.38 L 531.13 257.12 L 531.4 255.86 L 531.79 254.6 L 532.3100000000001 253.34 L 532.96 252.08 L 533.74 250.82 L 534.64 249.56 L 535.64 248.3 L 536.71 247.03 L 537.83 245.77 L 538.96 244.51 L 540.1 243.25 L 541.23 241.99 L 542.34 240.73000000000002 L 543.42 239.47 L 544.47 238.21 L 545.51 236.95000000000002 L 546.54 235.69 L 547.5600000000001 234.43 L 548.57 233.17000000000002 L 549.58 231.91 L 550.58 230.65 L 551.5500000000001 229.39000000000001 L 552.5 228.13 L 553.42 226.87 L 554.29 225.61 L 555.1 224.35 L 555.87 223.09 L 556.5600000000001 221.83 L 557.19 220.57 L 557.74 219.31 L 558.22 218.04 L 558.63 216.78 L 558.96 215.52 L 559.22 214.26 L 559.4300000000001 213.0 L 559.58 211.74 L 559.7 210.48000000000002 L 559.8000000000001 209.22 L 559.89 207.96 L 559.98 206.70000000000002 L 560.09 205.44 L 560.21 204.18 L 560.35 202.92000000000002 L 560.5 201.66 L 560.67 200.4 L 560.83 199.14000000000001 L 560.99 197.88 L 561.13 196.62 L 561.25 195.36 L 561.33 194.1 L 561.38 192.84 L 561.4 191.58 L 561.38 190.32 L 561.33 189.05 L 561.26 187.79 L 561.1800000000001 186.53 L 561.1 185.27 L 561.01 184.01 L 560.95 182.75 L 560.91 181.49 L 560.89 180.23 L 560.92 178.97 L 560.98 177.71 L 561.08 176.45000000000002 L 561.21 175.19 L 561.37 173.93 L 561.5600000000001 172.67000000000002 L 561.75 171.41 L 561.95 170.15 L 562.14 168.89000000000001 L 562.3100000000001 167.63 L 562.45 166.37 L 562.5600000000001 165.11 L 562.62 163.85 L 562.65 162.59 L 562.63 161.33 L 562.57 160.06 L 562.48 158.8 L 562.36 157.54 L 562.22 156.28 L 562.08 155.02 L 561.9300000000001 153.76 L 561.79 152.5 L 561.66 151.24 L 561.5600000000001 149.98 L 561.49 148.72 L 561.45 147.46 L 561.44 146.20000000000002 L 561.47 144.94 L 561.53 143.68 L 561.61 142.42000000000002 L 561.72 141.16 L 561.84 139.9 L 561.98 138.64000000000001 L 562.12 137.38 L 562.27 136.12 L 562.41 134.86 L 562.5600000000001 133.6 L 562.7 132.34 L 562.83 131.07 L 562.95 129.81 L 563.07 128.55 L 563.17 127.29 L 563.25 126.03 L 563.32 124.77 L 563.37 123.51 L 563.39 122.25 L 563.38 120.99000000000001 L 563.35 119.73 L 563.28 118.47 L 563.19 117.21000000000001 L 563.0600000000001 115.95 L 562.9 114.69 L 562.72 113.43 L 562.52 112.17 L 562.3100000000001 110.91 L 562.11 109.65 L 561.91 108.39 L 561.73 107.13 L 561.59 105.87 L 561.49 104.61 L 561.44 103.35000000000001 L 561.44 102.08 L 561.5 100.82000000000001 L 561.6 99.56 L 561.74 98.3 L 561.91 97.04 L 562.11 95.78 L 562.32 94.52 L 562.53 93.26 L 562.73 92.0 L 562.92 90.74 L 563.1 89.48 L 563.25 88.22 L 563.37 86.96000000000001 L 563.48 85.7 L 563.5600000000001 84.44 L 563.63 83.18 L 563.6800000000001 81.92 L 563.72 80.66 L 563.74 79.4 L 563.76 78.14 L 563.78 76.88 L 563.78 75.62 L 563.79 74.36 L 563.8100000000001 74.36 L 563.82 75.62 L 563.82 76.88 L 563.84 78.14 L 563.86 79.4 L 563.88 80.66 L 563.92 81.92 L 563.97 83.18 L 564.04 84.44 L 564.12 85.7 L 564.23 86.96000000000001 L 564.35 88.22 L 564.5 89.48 L 564.6800000000001 90.74 L 564.87 92.0 L 565.07 93.26 L 565.28 94.52 L 565.49 95.78 L 565.69 97.04 L 565.86 98.3 L 566.0 99.56 L 566.1 100.82000000000001 L 566.16 102.08 L 566.16 103.35000000000001 L 566.11 104.61 L 566.01 105.87 L 565.87 107.13 L 565.69 108.39 L 565.49 109.65 L 565.29 110.91 L 565.08 112.17 L 564.88 113.43 L 564.7 114.69 L 564.54 115.95 L 564.41 117.21000000000001 L 564.32 118.47 L 564.25 119.73 L 564.22 120.99000000000001 L 564.21 122.25 L 564.23 123.51 L 564.28 124.77 L 564.35 126.03 L 564.4300000000001 127.29 L 564.53 128.55 L 564.65 129.81 L 564.77 131.07 L 564.9 132.34 L 565.04 133.6 L 565.19 134.86 L 565.33 136.12 L 565.48 137.38 L 565.62 138.64000000000001 L 565.76 139.9 L 565.88 141.16 L 565.99 142.42000000000002 L 566.07 143.68 L 566.13 144.94 L 566.16 146.20000000000002 L 566.15 147.46 L 566.11 148.72 L 566.04 149.98 L 565.94 151.24 L 565.8100000000001 152.5 L 565.67 153.76 L 565.52 155.02 L 565.38 156.28 L 565.24 157.54 L 565.12 158.8 L 565.03 160.06 L 564.97 161.33 L 564.95 162.59 L 564.98 163.85 L 565.04 165.11 L 565.15 166.37 L 565.29 167.63 L 565.46 168.89000000000001 L 565.65 170.15 L 565.85 171.41 L 566.04 172.67000000000002 L 566.23 173.93 L 566.39 175.19 L 566.52 176.45000000000002 L 566.62 177.71 L 566.6800000000001 178.97 L 566.71 180.23 L 566.69 181.49 L 566.65 182.75 L 566.59 184.01 L 566.5 185.27 L 566.42 186.53 L 566.34 187.79 L 566.27 189.05 L 566.22 190.32 L 566.2 191.58 L 566.22 192.84 L 566.27 194.1 L 566.35 195.36 L 566.47 196.62 L 566.61 197.88 L 566.77 199.14000000000001 L 566.9300000000001 200.4 L 567.1 201.66 L 567.25 202.92000000000002 L 567.39 204.18 L 567.51 205.44 L 567.62 206.70000000000002 L 567.71 207.96 L 567.8000000000001 209.22 L 567.9 210.48000000000002 L 568.02 211.74 L 568.17 213.0 L 568.38 214.26 L 568.64 215.52 L 568.97 216.78 L 569.38 218.04 L 569.86 219.31 L 570.41 220.57 L 571.04 221.83 L 571.73 223.09 L 572.5 224.35 L 573.3100000000001 225.61 L 574.1800000000001 226.87 L 575.1 228.13 L 576.0500000000001 229.39000000000001 L 577.02 230.65 L 578.02 231.91 L 579.03 233.17000000000002 L 580.04 234.43 L 581.0600000000001 235.69 L 582.09 236.95000000000002 L 583.13 238.21 L 584.1800000000001 239.47 L 585.26 240.73000000000002 L 586.37 241.99 L 587.5 243.25 L 588.64 244.51 L 589.77 245.77 L 590.89 247.03 L 591.96 248.3 L 592.96 249.56 L 593.86 250.82 L 594.64 252.08 L 595.29 253.34 L 595.8100000000001 254.6 L 596.2 255.86 L 596.47 257.12 L 596.64 258.38 L 596.76 259.64 L 596.85 260.9 L 596.97 262.16 L 597.16 263.42 L 597.47 264.68 L 597.94 265.94 L 598.61 267.2 L 599.54 268.46 L 600.74 269.72 L 602.25 270.98 L 604.08 272.24 L 606.24 273.5 L 608.73 274.76 L 611.54 276.02 L 614.63 277.29 L 617.96 278.55 L 621.47 279.81 L 625.08 281.07 L 628.7 282.33 L 632.2 283.59000000000003 L 635.48 284.85 L 638.39 286.11 L 640.8000000000001 287.37 L 642.58 288.63 L 643.61 289.89 L 643.8000000000001 291.15000000000003 L 643.08 292.41 L 641.41 293.67 L 638.79 294.93 L 635.29 296.19 L 630.97 297.45 L 625.98 298.71 L 620.46 299.97 L 614.59 301.23 L 608.57 302.49 L 602.58 303.75 L 596.79 305.01 L 591.35 306.28000000000003 L 586.37 307.54 L 581.94 308.8 L 578.09 310.06 L 574.83 311.32 L 572.14 312.58 L 569.98 313.84000000000003 L 568.28 315.1 L 566.98 316.36 L 566.01 317.62 L 565.3000000000001 318.88 L 564.79 320.14 L 564.45 321.40000000000003 L 564.21 322.66 L 564.0500000000001 323.92 L 563.95 325.18 Z" stroke="#000000" stroke-width="0.5" fill="#2e8b57" /></g></svg>