<svg xmlns="http://www.w3.org/2000/svg" width="703.4" height="545" font-family="DejaVu Sans, Liberation Sans, Arial, sans-serif" fill="black"><rect width="100%" height="100%" fill="white" /><defs><clipPath id="kuva-clip-6"><rect x="85.4" y="44" width="600" height="450"/></clipPath></defs><line x1="85.4" y1="494" x2="685.4" y2="494" stroke="#000000" stroke-width="1" /><line x1="85.4" y1="44" x2="85.4" y2="494" stroke="#000000" stroke-width="1" /><text x="77.4" y="423.2" font-size="12" text-anchor="end">Normal</text><line x1="80.4" y1="419" x2="85.4" y2="419" stroke="#000000" stroke-width="1" /><text x="77.4" y="273.2" font-size="12" text-anchor="end">Bimodal</text><line x1="80.4" y1="269" x2="85.4" y2="269" stroke="#000000" stroke-width="1" /><text x="77.4" y="123.2" font-size="12" text-anchor="end">Skewed</text><line x1="80.4" y1="119" x2="85.4" y2="119" stroke="#000000" stroke-width="1" /><line x1="171.11" y1="494" x2="171.11" y2="499" stroke="#000000" stroke-width="1" /><text x="171.11" y="511" font-size="12" text-anchor="middle">-5</text><line x1="342.54" y1="494" x2="342.54" y2="499" stroke="#000000" stroke-width="1" /><text x="342.54" y="511" font-size="12" text-anchor="middle">0</text><line x1="513.97" y1="494" x2="513.97" y2="499" stroke="#000000" stroke-width="1" /><text x="513.97" y="511" font-size="12" text-anchor="middle">5</text><line x1="685.4" y1="494" x2="685.4" y2="499" stroke="#000000" stroke-width="1" /><text x="685.4" y="511" font-size="12" text-anchor="middle">10</text><text x="385.40000000000003" y="538" font-size="14" text-anchor="middle">Value</text><text x="385.40000000000003" y="27.400000000000002" font-size="18" text-anchor="middle">Horizontal Violin Plot</text><g clip-path="url(#kuva-clip-6)"><path d="M 230.68 418.99 L 231.88 418.99 L 233.09 418.98 L 234.29 418.97 L 235.49 418.96000000000004 L 236.70000000000002 418.94 L 237.9 418.91 L 239.1 418.88 L 240.31 418.84000000000003 L 241.51 418.79 L 242.71 418.72 L 243.92000000000002 418.64 L 245.12 418.55 L 246.32 418.44 L 247.53 418.31 L 248.73000000000002 418.17 L 249.93 418.0 L 251.14000000000001 417.81 L 252.34 417.61 L 253.54 417.38 L 254.75 417.13 L 255.95000000000002 416.85 L 257.15 416.54 L 258.36 416.21000000000004 L 259.56 415.85 L 260.76 415.46000000000004 L 261.97 415.04 L 263.17 414.58 L 264.37 414.11 L 265.58 413.6 L 266.78000000000003 413.08 L 267.98 412.56 L 269.19 412.02 L 270.39 411.5 L 271.59000000000003 410.98 L 272.8 410.48 L 274.0 410.0 L 275.2 409.54 L 276.41 409.1 L 277.61 408.66 L 278.81 408.24 L 280.02 407.8 L 281.22 407.35 L 282.42 406.88 L 283.63 406.38 L 284.83 405.84000000000003 L 286.03000000000003 405.27 L 287.24 404.66 L 288.44 404.01 L 289.64 403.32 L 290.85 402.6 L 292.05 401.85 L 293.25 401.05 L 294.46 400.2 L 295.66 399.29 L 296.86 398.31 L 298.07 397.23 L 299.27 396.05 L 300.47 394.74 L 301.68 393.31 L 302.88 391.74 L 304.08 390.05 L 305.29 388.26 L 306.49 386.39 L 307.69 384.47 L 308.90000000000003 382.54 L 310.1 380.66 L 311.3 378.85 L 312.51 377.15000000000003 L 313.71 375.6 L 314.91 374.22 L 316.12 373.02 L 317.32 371.99 L 318.52 371.11 L 319.73 370.37 L 320.93 369.74 L 322.13 369.18 L 323.34000000000003 368.66 L 324.54 368.14 L 325.74 367.61 L 326.95 367.04 L 328.15000000000003 366.43 L 329.35 365.76 L 330.56 365.06 L 331.76 364.31 L 332.96 363.55 L 334.17 362.79 L 335.37 362.05 L 336.57 361.35 L 337.78000000000003 360.71 L 338.98 360.15000000000003 L 340.18 359.68 L 341.39 359.32 L 342.59000000000003 359.09000000000003 L 343.79 359.0 L 345.0 359.06 L 346.2 359.29 L 347.40000000000003 359.69 L 348.61 360.27 L 349.81 361.03000000000003 L 351.01 361.97 L 352.22 363.09000000000003 L 353.42 364.36 L 354.62 365.77 L 355.83 367.29 L 357.03000000000003 368.90000000000003 L 358.23 370.55 L 359.44 372.22 L 360.64 373.89 L 361.84000000000003 375.51 L 363.05 377.07 L 364.25 378.55 L 365.45 379.95 L 366.66 381.27 L 367.86 382.5 L 369.06 383.67 L 370.27 384.8 L 371.47 385.90000000000003 L 372.67 386.99 L 373.88 388.09000000000003 L 375.08 389.22 L 376.28000000000003 390.39 L 377.49 391.6 L 378.69 392.86 L 379.89 394.15000000000003 L 381.1 395.47 L 382.3 396.8 L 383.5 398.12 L 384.71000000000004 399.40000000000003 L 385.91 400.63 L 387.11 401.79 L 388.32 402.86 L 389.52 403.82 L 390.72 404.68 L 391.93 405.42 L 393.13 406.06 L 394.33 406.6 L 395.54 407.06 L 396.74 407.45 L 397.94 407.79 L 399.15000000000003 408.11 L 400.35 408.41 L 401.55 408.71000000000004 L 402.76 409.04 L 403.96000000000004 409.39 L 405.16 409.78000000000003 L 406.37 410.2 L 407.57 410.66 L 408.77 411.16 L 409.98 411.67 L 411.18 412.21000000000004 L 412.38 412.75 L 413.59000000000003 413.29 L 414.79 413.82 L 415.99 414.33 L 417.2 414.81 L 418.40000000000003 415.26 L 419.6 415.67 L 420.81 416.04 L 422.01 416.36 L 423.21000000000004 416.63 L 424.42 416.86 L 425.62 417.04 L 426.82 417.17 L 428.03000000000003 417.26 L 429.23 417.31 L 430.43 417.32 L 431.64 417.29 L 432.84000000000003 417.25 L 434.04 417.18 L 435.25 417.11 L 436.45 417.04 L 437.65000000000003 416.97 L 438.86 416.92 L 440.06 416.89 L 441.26 416.89 L 442.47 416.91 L 443.67 416.97 L 444.87 417.06 L 446.08 417.17 L 447.28000000000003 417.31 L 448.48 417.46000000000004 L 449.69 417.62 L 450.89 417.79 L 452.09000000000003 417.95 L 453.3 418.11 L 454.5 418.26 L 455.7 418.39 L 456.91 418.51 L 458.11 418.61 L 459.31 418.7 L 460.52 418.77 L 461.72 418.83 L 462.92 418.87 L 464.13 418.91 L 465.33 418.93 L 466.53000000000003 418.95 L 467.74 418.97 L 468.94 418.98 L 470.14 418.99 L 470.14 419.01 L 468.94 419.02 L 467.74 419.03000000000003 L 466.53000000000003 419.05 L 465.33 419.07 L 464.13 419.09000000000003 L 462.92 419.13 L 461.72 419.17 L 460.52 419.23 L 459.31 419.3 L 458.11 419.39 L 456.91 419.49 L 455.7 419.61 L 454.5 419.74 L 453.3 419.89 L 452.09000000000003 420.05 L 450.89 420.21000000000004 L 449.69 420.38 L 448.48 420.54 L 447.28000000000003 420.69 L 446.08 420.83 L 444.87 420.94 L 443.67 421.03000000000003 L 442.47 421.09000000000003 L 441.26 421.11 L 440.06 421.11 L 438.86 421.08 L 437.65000000000003 421.03000000000003 L 436.45 420.96000000000004 L 435.25 420.89 L 434.04 420.82 L 432.84000000000003 420.75 L 431.64 420.71000000000004 L 430.43 420.68 L 429.23 420.69 L 428.03000000000003 420.74 L 426.82 420.83 L 425.62 420.96000000000004 L 424.42 421.14 L 423.21000000000004 421.37 L 422.01 421.64 L 420.81 421.96000000000004 L 419.6 422.33 L 418.40000000000003 422.74 L 417.2 423.19 L 415.99 423.67 L 414.79 424.18 L 413.59000000000003 424.71000000000004 L 412.38 425.25 L 411.18 425.79 L 409.98 426.33 L 408.77 426.84000000000003 L 407.57 427.34000000000003 L 406.37 427.8 L 405.16 428.22 L 403.96000000000004 428.61 L 402.76 428.96000000000004 L 401.55 429.29 L 400.35 429.59000000000003 L 399.15000000000003 429.89 L 397.94 430.21000000000004 L 396.74 430.55 L 395.54 430.94 L 394.33 431.40000000000003 L 393.13 431.94 L 391.93 432.58 L 390.72 433.32 L 389.52 434.18 L 388.32 435.14 L 387.11 436.21000000000004 L 385.91 437.37 L 384.71000000000004 438.6 L 383.5 439.88 L 382.3 441.2 L 381.1 442.53000000000003 L 379.89 443.85 L 378.69 445.14 L 377.49 446.40000000000003 L 376.28000000000003 447.61 L 375.08 448.78000000000003 L 373.88 449.91 L 372.67 451.01 L 371.47 452.1 L 370.27 453.2 L 369.06 454.33 L 367.86 455.5 L 366.66 456.73 L 365.45 458.05 L 364.25 459.45 L 363.05 460.93 L 361.84000000000003 462.49 L 360.64 464.11 L 359.44 465.78000000000003 L 358.23 467.45 L 357.03000000000003 469.1 L 355.83 470.71000000000004 L 354.62 472.23 L 353.42 473.64 L 352.22 474.91 L 351.01 476.03000000000003 L 349.81 476.97 L 348.61 477.73 L 347.40000000000003 478.31 L 346.2 478.71000000000004 L 345.0 478.94 L 343.79 479.0 L 342.59000000000003 478.91 L 341.39 478.68 L 340.18 478.32 L 338.98 477.85 L 337.78000000000003 477.29 L 336.57 476.65000000000003 L 335.37 475.95 L 334.17 475.21000000000004 L 332.96 474.45 L 331.76 473.69 L 330.56 472.94 L 329.35 472.24 L 328.15000000000003 471.57 L 326.95 470.96000000000004 L 325.74 470.39 L 324.54 469.86 L 323.34000000000003 469.34000000000003 L 322.13 468.82 L 320.93 468.26 L 319.73 467.63 L 318.52 466.89 L 317.32 466.01 L 316.12 464.98 L 314.91 463.78000000000003 L 313.71 462.40000000000003 L 312.51 460.85 L 311.3 459.15000000000003 L 310.1 457.34000000000003 L 308.90000000000003 455.46000000000004 L 307.69 453.53000000000003 L 306.49 451.61 L 305.29 449.74 L 304.08 447.95 L 302.88 446.26 L 301.68 444.69 L 300.47 443.26 L 299.27 441.95 L 298.07 440.77 L 296.86 439.69 L 295.66 438.71000000000004 L 294.46 437.8 L 293.25 436.95 L 292.05 436.15000000000003 L 290.85 435.40000000000003 L 289.64 434.68 L 288.44 433.99 L 287.24 433.34000000000003 L 286.03000000000003 432.73 L 284.83 432.16 L 283.63 431.62 L 282.42 431.12 L 281.22 430.65000000000003 L 280.02 430.2 L 278.81 429.76 L 277.61 429.34000000000003 L 276.41 428.90000000000003 L 275.2 428.46000000000004 L 274.0 428.0 L 272.8 427.52 L 271.59000000000003 427.02 L 270.39 426.5 L 269.19 425.98 L 267.98 425.44 L 266.78000000000003 424.92 L 265.58 424.40000000000003 L 264.37 423.89 L 263.17 423.42 L 261.97 422.96000000000004 L 260.76 422.54 L 259.56 422.15000000000003 L 258.36 421.79 L 257.15 421.46000000000004 L 255.95000000000002 421.15000000000003 L 254.75 420.87 L 253.54 420.62 L 252.34 420.39 L 251.14000000000001 420.19 L 249.93 420.0 L 248.73000000000002 419.83 L 247.53 419.69 L 246.32 419.56 L 245.12 419.45 L 243.92000000000002 419.36 L 242.71 419.28000000000003 L 241.51 419.21000000000004 L 240.31 419.16 L 239.1 419.12 L 237.9 419.09000000000003 L 236.70000000000002 419.06 L 235.49 419.04 L 234.29 419.03000000000003 L 233.09 419.02 L 231.88 419.01 L 230.68 419.01 Z" stroke="#000000" stroke-width="0.5" fill="#4682b4" /><path d="M 169.77 268.97 L 171.57 268.96 L 173.36 268.95 L 175.16 268.94 L 176.96 268.92 L 178.76 268.89 L 180.56 268.86 L 182.35 268.82 L 184.15 268.76 L 185.95000000000002 268.7 L 187.75 268.62 L 189.55 268.52 L 191.34 268.4 L 193.14000000000001 268.26 L 194.94 268.09000000000003 L 196.74 267.88 L 198.54 267.64 L 200.33 267.35 L 202.13 267.01 L 203.93 266.62 L 205.73000000000002 266.16 L 207.53 265.64 L 209.33 265.04 L 211.12 264.36 L 212.92000000000002 263.6 L 214.72 262.73 L 216.52 261.77 L 218.32 260.71 L 220.11 259.53000000000003 L 221.91 258.24 L 223.71 256.83 L 225.51 255.31 L 227.31 253.66 L 229.1 251.91 L 230.9 250.04 L 232.70000000000002 248.06 L 234.5 245.99 L 236.3 243.82 L 238.09 241.57 L 239.89000000000001 239.26 L 241.69 236.9 L 243.49 234.5 L 245.29 232.1 L 247.08 229.69 L 248.88 227.32 L 250.68 225.0 L 252.48000000000002 222.75 L 254.28 220.6 L 256.08 218.57 L 257.87 216.69 L 259.67 214.97 L 261.47 213.44 L 263.27 212.11 L 265.07 211.01 L 266.86 210.13 L 268.66 209.51 L 270.46 209.13 L 272.26 209.0 L 274.06 209.13 L 275.85 209.5 L 277.65000000000003 210.12 L 279.45 210.98000000000002 L 281.25 212.05 L 283.05 213.33 L 284.84000000000003 214.79 L 286.64 216.43 L 288.44 218.22 L 290.24 220.13 L 292.04 222.15 L 293.83 224.26 L 295.63 226.43 L 297.43 228.64000000000001 L 299.23 230.88 L 301.03000000000003 233.13 L 302.83 235.37 L 304.62 237.58 L 306.42 239.74 L 308.22 241.86 L 310.02 243.9 L 311.82 245.88 L 313.61 247.76000000000002 L 315.41 249.56 L 317.21 251.25 L 319.01 252.85 L 320.81 254.33 L 322.6 255.71 L 324.40000000000003 256.97 L 326.2 258.12 L 328.0 259.15 L 329.8 260.06 L 331.59000000000003 260.86 L 333.39 261.53000000000003 L 335.19 262.09000000000003 L 336.99 262.52 L 338.79 262.84000000000003 L 340.58 263.03000000000003 L 342.38 263.1 L 344.18 263.05 L 345.98 262.86 L 347.78000000000003 262.55 L 349.58 262.11 L 351.37 261.54 L 353.17 260.84000000000003 L 354.97 259.99 L 356.77 259.02 L 358.57 257.9 L 360.36 256.65 L 362.16 255.26000000000002 L 363.96 253.73000000000002 L 365.76 252.08 L 367.56 250.3 L 369.35 248.4 L 371.15000000000003 246.39000000000001 L 372.95 244.28 L 374.75 242.08 L 376.55 239.81 L 378.34000000000003 237.48000000000002 L 380.14 235.11 L 381.94 232.71 L 383.74 230.31 L 385.54 227.94 L 387.34000000000003 225.6 L 389.13 223.34 L 390.93 221.16 L 392.73 219.1 L 394.53000000000003 217.18 L 396.33 215.41 L 398.12 213.83 L 399.92 212.45000000000002 L 401.72 211.28 L 403.52 210.35 L 405.32 209.65 L 407.11 209.20000000000002 L 408.91 209.01 L 410.71000000000004 209.07 L 412.51 209.38 L 414.31 209.93 L 416.1 210.72 L 417.90000000000003 211.74 L 419.7 212.96 L 421.5 214.38 L 423.3 215.97 L 425.09000000000003 217.72 L 426.89 219.6 L 428.69 221.59 L 430.49 223.68 L 432.29 225.84 L 434.09000000000003 228.04 L 435.88 230.28 L 437.68 232.53 L 439.48 234.77 L 441.28000000000003 236.99 L 443.08 239.18 L 444.87 241.32 L 446.67 243.4 L 448.47 245.4 L 450.27 247.33 L 452.07 249.17000000000002 L 453.86 250.93 L 455.66 252.59 L 457.46000000000004 254.15 L 459.26 255.61 L 461.06 256.97 L 462.85 258.24 L 464.65000000000003 259.41 L 466.45 260.48 L 468.25 261.47 L 470.05 262.36 L 471.84000000000003 263.17 L 473.64 263.91 L 475.44 264.56 L 477.24 265.15 L 479.04 265.68 L 480.84000000000003 266.14 L 482.63 266.55 L 484.43 266.91 L 486.23 267.22 L 488.03000000000003 267.5 L 489.83 267.73 L 491.62 267.94 L 493.42 268.11 L 495.22 268.26 L 497.02000000000004 268.39 L 498.82 268.5 L 500.61 268.59000000000003 L 502.41 268.66 L 504.21000000000004 268.73 L 506.01 268.78000000000003 L 507.81 268.82 L 509.6 268.86 L 511.40000000000003 268.89 L 513.2 268.91 L 515.0 268.93 L 516.8 268.95 L 518.59 268.96 L 520.39 268.97 L 522.19 268.98 L 523.99 268.98 L 525.79 268.99 L 527.59 268.99 L 527.59 269.01 L 525.79 269.01 L 523.99 269.02 L 522.19 269.02 L 520.39 269.03000000000003 L 518.59 269.04 L 516.8 269.05 L 515.0 269.07 L 513.2 269.09000000000003 L 511.40000000000003 269.11 L 509.6 269.14 L 507.81 269.18 L 506.01 269.22 L 504.21000000000004 269.27 L 502.41 269.34000000000003 L 500.61 269.41 L 498.82 269.5 L 497.02000000000004 269.61 L 495.22 269.74 L 493.42 269.89 L 491.62 270.06 L 489.83 270.27 L 488.03000000000003 270.5 L 486.23 270.78000000000003 L 484.43 271.09000000000003 L 482.63 271.45 L 480.84000000000003 271.86 L 479.04 272.32 L 477.24 272.85 L 475.44 273.44 L 473.64 274.09000000000003 L 471.84000000000003 274.83 L 470.05 275.64 L 468.25 276.53000000000003 L 466.45 277.52 L 464.65000000000003 278.59000000000003 L 462.85 279.76 L 461.06 281.03000000000003 L 459.26 282.39 L 457.46000000000004 283.85 L 455.66 285.41 L 453.86 287.07 L 452.07 288.83 L 450.27 290.67 L 448.47 292.6 L 446.67 294.6 L 444.87 296.68 L 443.08 298.82 L 441.28000000000003 301.01 L 439.48 303.23 L 437.68 305.47 L 435.88 307.72 L 434.09000000000003 309.96 L 432.29 312.16 L 430.49 314.32 L 428.69 316.41 L 426.89 318.40000000000003 L 425.09000000000003 320.28000000000003 L 423.3 322.03000000000003 L 421.5 323.62 L 419.7 325.04 L 417.90000000000003 326.26 L 416.1 327.28000000000003 L 414.31 328.07 L 412.51 328.62 L 410.71000000000004 328.93 L 408.91 328.99 L 407.11 328.8 L 405.32 328.35 L 403.52 327.65000000000003 L 401.72 326.72 L 399.92 325.55 L 398.12 324.17 L 396.33 322.59000000000003 L 394.53000000000003 320.82 L 392.73 318.90000000000003 L 390.93 316.84000000000003 L 389.13 314.66 L 387.34000000000003 312.40000000000003 L 385.54 310.06 L 383.74 307.69 L 381.94 305.29 L 380.14 302.89 L 378.34000000000003 300.52 L 376.55 298.19 L 374.75 295.92 L 372.95 293.72 L 371.15000000000003 291.61 L 369.35 289.6 L 367.56 287.7 L 365.76 285.92 L 363.96 284.27 L 362.16 282.74 L 360.36 281.35 L 358.57 280.1 L 356.77 278.98 L 354.97 278.01 L 353.17 277.16 L 351.37 276.46 L 349.58 275.89 L 347.78000000000003 275.45 L 345.98 275.14 L 344.18 274.95 L 342.38 274.90000000000003 L 340.58 274.97 L 338.79 275.16 L 336.99 275.48 L 335.19 275.91 L 333.39 276.47 L 331.59000000000003 277.14 L 329.8 277.94 L 328.0 278.85 L 326.2 279.88 L 324.40000000000003 281.03000000000003 L 322.6 282.29 L 320.81 283.67 L 319.01 285.15000000000003 L 317.21 286.75 L 315.41 288.44 L 313.61 290.24 L 311.82 292.12 L 310.02 294.1 L 308.22 296.14 L 306.42 298.26 L 304.62 300.42 L 302.83 302.63 L 301.03000000000003 304.87 L 299.23 307.12 L 297.43 309.36 L 295.63 311.57 L 293.83 313.74 L 292.04 315.85 L 290.24 317.87 L 288.44 319.78000000000003 L 286.64 321.57 L 284.84000000000003 323.21 L 283.05 324.67 L 281.25 325.95 L 279.45 327.02 L 277.65000000000003 327.88 L 275.85 328.5 L 274.06 328.87 L 272.26 329.0 L 270.46 328.87 L 268.66 328.49 L 266.86 327.87 L 265.07 326.99 L 263.27 325.89 L 261.47 324.56 L 259.67 323.03000000000003 L 257.87 321.31 L 256.08 319.43 L 254.28 317.40000000000003 L 252.48000000000002 315.25 L 250.68 313.0 L 248.88 310.68 L 247.08 308.31 L 245.29 305.90000000000003 L 243.49 303.5 L 241.69 301.1 L 239.89000000000001 298.74 L 238.09 296.43 L 236.3 294.18 L 234.5 292.01 L 232.70000000000002 289.94 L 230.9 287.96 L 229.1 286.09000000000003 L 227.31 284.34000000000003 L 225.51 282.69 L 223.71 281.17 L 221.91 279.76 L 220.11 278.47 L 218.32 277.29 L 216.52 276.23 L 214.72 275.27 L 212.92000000000002 274.40000000000003 L 211.12 273.64 L 209.33 272.96 L 207.53 272.36 L 205.73000000000002 271.84000000000003 L 203.93 271.38 L 202.13 270.99 L 200.33 270.65 L 198.54 270.36 L 196.74 270.12 L 194.94 269.91 L 193.14000000000001 269.74 L 191.34 269.6 L 189.55 269.48 L 187.75 269.38 L 185.95000000000002 269.3 L 184.15 269.24 L 182.35 269.18 L 180.56 269.14 L 178.76 269.11 L 176.96 269.08 L 175.16 269.06 L 173.36 269.05 L 171.57 269.04 L 169.77 269.03000000000003 Z" stroke="#000000" stroke-width="0.5" fill="#ff6347" /><path d="M 310.49 118.89 L 312.17 118.81 L 313.85 118.69 L 315.53000000000003 118.52 L 317.21 118.25 L 318.89 117.88 L 320.57 117.34 L 322.25 116.62 L 323.94 115.64 L 325.62 114.36 L 327.3 112.74000000000001 L 328.98 110.72 L 330.66 108.28 L 332.34000000000003 105.39 L 334.02 102.07000000000001 L 335.7 98.34 L 337.38 94.26 L 339.06 89.92 L 340.74 85.42 L 342.42 80.91 L 344.1 76.51 L 345.78000000000003 72.37 L 347.46 68.62 L 349.14 65.39 L 350.82 62.75 L 352.51 60.79 L 354.19 59.54 L 355.87 59.0 L 357.55 59.14 L 359.23 59.92 L 360.91 61.25 L 362.59000000000003 63.06 L 364.27 65.24 L 365.95 67.7 L 367.63 70.33 L 369.31 73.04 L 370.99 75.75 L 372.67 78.38 L 374.35 80.88 L 376.03000000000003 83.2 L 377.71 85.3 L 379.39 87.17 L 381.08 88.79 L 382.76 90.16 L 384.44 91.29 L 386.12 92.2 L 387.8 92.89 L 389.48 93.4 L 391.16 93.75 L 392.84000000000003 93.98 L 394.52 94.12 L 396.2 94.21000000000001 L 397.88 94.28 L 399.56 94.37 L 401.24 94.5 L 402.92 94.7 L 404.6 94.99 L 406.28000000000003 95.38 L 407.96000000000004 95.87 L 409.65000000000003 96.46000000000001 L 411.33 97.13 L 413.01 97.88 L 414.69 98.68 L 416.37 99.52 L 418.05 100.37 L 419.73 101.23 L 421.41 102.07000000000001 L 423.09000000000003 102.9 L 424.77 103.71000000000001 L 426.45 104.51 L 428.13 105.29 L 429.81 106.06 L 431.49 106.82000000000001 L 433.17 107.58 L 434.85 108.34 L 436.53000000000003 109.08 L 438.21000000000004 109.81 L 439.90000000000003 110.53 L 441.58 111.21000000000001 L 443.26 111.86 L 444.94 112.48 L 446.62 113.05 L 448.3 113.57000000000001 L 449.98 114.04 L 451.66 114.46000000000001 L 453.34000000000003 114.82000000000001 L 455.02 115.12 L 456.7 115.37 L 458.38 115.57000000000001 L 460.06 115.72 L 461.74 115.84 L 463.42 115.93 L 465.1 116.0 L 466.78000000000003 116.07000000000001 L 468.47 116.14 L 470.15000000000003 116.22 L 471.83 116.31 L 473.51 116.41 L 475.19 116.53 L 476.87 116.65 L 478.55 116.78 L 480.23 116.89 L 481.91 117.0 L 483.59000000000003 117.09 L 485.27 117.15 L 486.95 117.19 L 488.63 117.2 L 490.31 117.18 L 491.99 117.15 L 493.67 117.10000000000001 L 495.35 117.04 L 497.04 116.97 L 498.72 116.91 L 500.40000000000003 116.86 L 502.08 116.83 L 503.76 116.82000000000001 L 505.44 116.84 L 507.12 116.88 L 508.8 116.96000000000001 L 510.48 117.06 L 512.16 117.18 L 513.84 117.32000000000001 L 515.52 117.47 L 517.2 117.61 L 518.88 117.75 L 520.5600000000001 117.88 L 522.24 117.99000000000001 L 523.92 118.07000000000001 L 525.61 118.12 L 527.29 118.14 L 528.97 118.12 L 530.65 118.08 L 532.33 118.01 L 534.01 117.92 L 535.69 117.82000000000001 L 537.37 117.71000000000001 L 539.05 117.59 L 540.73 117.49000000000001 L 542.41 117.4 L 544.09 117.32000000000001 L 545.77 117.27 L 547.45 117.24000000000001 L 549.13 117.23 L 550.8100000000001 117.25 L 552.49 117.29 L 554.17 117.36 L 555.86 117.44 L 557.54 117.53 L 559.22 117.63 L 560.9 117.74000000000001 L 562.58 117.85000000000001 L 564.26 117.96000000000001 L 565.94 118.07000000000001 L 567.62 118.17 L 569.3000000000001 118.27 L 570.98 118.37 L 572.66 118.45 L 574.34 118.53 L 576.02 118.59 L 577.7 118.64 L 579.38 118.67 L 581.0600000000001 118.69 L 582.74 118.69 L 584.4300000000001 118.66 L 586.11 118.61 L 587.79 118.54 L 589.47 118.44 L 591.15 118.33 L 592.83 118.19 L 594.51 118.04 L 596.19 117.89 L 597.87 117.73 L 599.5500000000001 117.58 L 601.23 117.45 L 602.91 117.34 L 604.59 117.27 L 606.27 117.23 L 607.95 117.23 L 609.63 117.27 L 611.3100000000001 117.35000000000001 L 613.0 117.45 L 614.6800000000001 117.58 L 616.36 117.73 L 618.04 117.89 L 619.72 118.05 L 621.4 118.2 L 623.08 118.34 L 624.76 118.47 L 626.44 118.58 L 628.12 118.68 L 629.8000000000001 118.76 L 631.48 118.82000000000001 L 633.16 118.87 L 634.84 118.91 L 636.52 118.94 L 638.2 118.96000000000001 L 639.88 118.97 L 641.57 118.98 L 643.25 118.99000000000001 L 644.9300000000001 118.99000000000001 L 644.9300000000001 119.01 L 643.25 119.01 L 641.57 119.02 L 639.88 119.03 L 638.2 119.04 L 636.52 119.06 L 634.84 119.09 L 633.16 119.13 L 631.48 119.18 L 629.8000000000001 119.24000000000001 L 628.12 119.32000000000001 L 626.44 119.42 L 624.76 119.53 L 623.08 119.66 L 621.4 119.8 L 619.72 119.95 L 618.04 120.11 L 616.36 120.27 L 614.6800000000001 120.42 L 613.0 120.55 L 611.3100000000001 120.65 L 609.63 120.73 L 607.95 120.77 L 606.27 120.77 L 604.59 120.73 L 602.91 120.66 L 601.23 120.55 L 599.5500000000001 120.42 L 597.87 120.27 L 596.19 120.11 L 594.51 119.96000000000001 L 592.83 119.81 L 591.15 119.67 L 589.47 119.56 L 587.79 119.46000000000001 L 586.11 119.39 L 584.4300000000001 119.34 L 582.74 119.31 L 581.0600000000001 119.31 L 579.38 119.33 L 577.7 119.36 L 576.02 119.41 L 574.34 119.47 L 572.66 119.55 L 570.98 119.63 L 569.3000000000001 119.73 L 567.62 119.83 L 565.94 119.93 L 564.26 120.04 L 562.58 120.15 L 560.9 120.26 L 559.22 120.37 L 557.54 120.47 L 555.86 120.56 L 554.17 120.64 L 552.49 120.71000000000001 L 550.8100000000001 120.75 L 549.13 120.77 L 547.45 120.76 L 545.77 120.73 L 544.09 120.68 L 542.41 120.60000000000001 L 540.73 120.51 L 539.05 120.41 L 537.37 120.29 L 535.69 120.18 L 534.01 120.08 L 532.33 119.99000000000001 L 530.65 119.92 L 528.97 119.88 L 527.29 119.86 L 525.61 119.88 L 523.92 119.93 L 522.24 120.01 L 520.5600000000001 120.12 L 518.88 120.25 L 517.2 120.39 L 515.52 120.53 L 513.84 120.68 L 512.16 120.82000000000001 L 510.48 120.94 L 508.8 121.04 L 507.12 121.12 L 505.44 121.16 L 503.76 121.18 L 502.08 121.17 L 500.40000000000003 121.14 L 498.72 121.09 L 497.04 121.03 L 495.35 120.96000000000001 L 493.67 120.9 L 491.99 120.85000000000001 L 490.31 120.82000000000001 L 488.63 120.8 L 486.95 120.81 L 485.27 120.85000000000001 L 483.59000000000003 120.91 L 481.91 121.0 L 480.23 121.11 L 478.55 121.22 L 476.87 121.35000000000001 L 475.19 121.47 L 473.51 121.59 L 471.83 121.69 L 470.15000000000003 121.78 L 468.47 121.86 L 466.78000000000003 121.93 L 465.1 122.0 L 463.42 122.07000000000001 L 461.74 122.16 L 460.06 122.28 L 458.38 122.43 L 456.7 122.63 L 455.02 122.88 L 453.34000000000003 123.18 L 451.66 123.54 L 449.98 123.96000000000001 L 448.3 124.43 L 446.62 124.95 L 444.94 125.52 L 443.26 126.14 L 441.58 126.79 L 439.90000000000003 127.47 L 438.21000000000004 128.19 L 436.53000000000003 128.92000000000002 L 434.85 129.66 L 433.17 130.42000000000002 L 431.49 131.18 L 429.81 131.94 L 428.13 132.71 L 426.45 133.49 L 424.77 134.29 L 423.09000000000003 135.1 L 421.41 135.93 L 419.73 136.77 L 418.05 137.63 L 416.37 138.48 L 414.69 139.32 L 413.01 140.12 L 411.33 140.87 L 409.65000000000003 141.54 L 407.96000000000004 142.13 L 406.28000000000003 142.62 L 404.6 143.01 L 402.92 143.3 L 401.24 143.5 L 399.56 143.63 L 397.88 143.72 L 396.2 143.79 L 394.52 143.88 L 392.84000000000003 144.02 L 391.16 144.25 L 389.48 144.6 L 387.8 145.11 L 386.12 145.8 L 384.44 146.71 L 382.76 147.84 L 381.08 149.21 L 379.39 150.83 L 377.71 152.70000000000002 L 376.03000000000003 154.8 L 374.35 157.12 L 372.67 159.62 L 370.99 162.25 L 369.31 164.96 L 367.63 167.67000000000002 L 365.95 170.3 L 364.27 172.76 L 362.59000000000003 174.94 L 360.91 176.75 L 359.23 178.08 L 357.55 178.86 L 355.87 179.0 L 354.19 178.46 L 352.51 177.21 L 350.82 175.25 L 349.14 172.61 L 347.46 169.38 L 345.78000000000003 165.63 L 344.1 161.49 L 342.42 157.09 L 340.74 152.58 L 339.06 148.08 L 337.38 143.74 L 335.7 139.66 L 334.02 135.93 L 332.34000000000003 132.61 L 330.66 129.72 L 328.98 127.28 L 327.3 125.26 L 325.62 123.64 L 323.94 122.36 L 322.25 121.38 L 320.57 120.66 L 318.89 120.12 L 317.21 119.75 L 315.53000000000003 119.48 L 313.85 119.31 L 312.17 119.19 L 310.49 119.11 Z" stroke="#000000" stroke-width="0.5" fill="#2e8b57" /></g></svg>