<svg xmlns="http://www.w3.org/2000/svg" width="673" height="541" fill="black"><rect width="100%" height="100%" fill="white" /><line x1="59" y1="492" x2="659" y2="492" stroke="black" stroke-width="1" /><line x1="59" y1="42" x2="59" y2="492" stroke="black" stroke-width="1" /><line x1="59" y1="435.75" x2="659" y2="435.75" stroke="#ccc" stroke-width="1" /><line x1="59" y1="379.5" x2="659" y2="379.5" stroke="#ccc" stroke-width="1" /><line x1="59" y1="323.25" x2="659" y2="323.25" stroke="#ccc" stroke-width="1" /><line x1="59" y1="267" x2="659" y2="267" stroke="#ccc" stroke-width="1" /><line x1="59" y1="210.75" x2="659" y2="210.75" stroke="#ccc" stroke-width="1" /><line x1="59" y1="154.5" x2="659" y2="154.5" stroke="#ccc" stroke-width="1" /><line x1="59" y1="98.25" x2="659" y2="98.25" stroke="#ccc" stroke-width="1" /><line x1="59" y1="42" x2="659" y2="42" stroke="#ccc" stroke-width="1" /><text x="159" y="507" font-size="10" text-anchor="middle">Normal</text><line x1="159" y1="492" x2="159" y2="497" stroke="black" stroke-width="1" /><text x="359" y="507" font-size="10" text-anchor="middle">Bimodal</text><line x1="359" y1="492" x2="359" y2="497" stroke="black" stroke-width="1" /><text x="559" y="507" font-size="10" text-anchor="middle">Skewed</text><line x1="559" y1="492" x2="559" y2="497" stroke="black" stroke-width="1" /><line x1="54" y1="492" x2="59" y2="492" stroke="black" stroke-width="1" /><text x="51" y="495.5" font-size="10" text-anchor="end">-6</text><line x1="54" y1="435.75" x2="59" y2="435.75" stroke="black" stroke-width="1" /><text x="51" y="439.25" font-size="10" text-anchor="end">-4</text><line x1="54" y1="379.5" x2="59" y2="379.5" stroke="black" stroke-width="1" /><text x="51" y="383" font-size="10" text-anchor="end">-2</text><line x1="54" y1="323.25" x2="59" y2="323.25" stroke="black" stroke-width="1" /><text x="51" y="326.75" font-size="10" text-anchor="end">0</text><line x1="54" y1="267" x2="59" y2="267" stroke="black" stroke-width="1" /><text x="51" y="270.5" font-size="10" text-anchor="end">2</text><line x1="54" y1="210.75" x2="59" y2="210.75" stroke="black" stroke-width="1" /><text x="51" y="214.25" font-size="10" text-anchor="end">4</text><line x1="54" y1="154.5" x2="59" y2="154.5" stroke="black" stroke-width="1" /><text x="51" y="158" font-size="10" text-anchor="end">6</text><line x1="54" y1="98.25" x2="59" y2="98.25" stroke="black" stroke-width="1" /><text x="51" y="101.75" font-size="10" text-anchor="end">8</text><line x1="54" y1="42" x2="59" y2="42" stroke="black" stroke-width="1" /><text x="51" y="45.5" font-size="10" text-anchor="end">10</text><text x="14" y="270.5" font-size="14" text-anchor="middle" transform="rotate(-90,14,270.5)">Value</text><text x="336.5" y="21" font-size="16" text-anchor="middle">Violin + Swarm Overlay</text><path d="M 158.9915512580537 417.2758787306737 L 158.98774563956178 416.2660205537645 L 158.9825017682669 415.2561623768553 L 158.97540046343525 414.24630419994605 L 158.96594989419154 413.2364460230368 L 158.95359074065234 412.2265878461276 L 158.93770847111873 411.2167296692184 L 158.91765363424983 410.2068714923092 L 158.89277025772657 409.1970133154 L 158.86243133234456 408.18715513849077 L 158.82607902959177 407.17729696158153 L 158.78326591162804 406.1674387846723 L 158.73369217104596 405.15758060776307 L 158.67723315113784 404.14772243085383 L 158.61395131322536 403.13786425394466 L 158.54408765038946 402.1280060770354 L 158.46802940074826 401.1181479001262 L 158.38625373282235 400.108289723217 L 158.2992506172136 399.0984315463078 L 158.20743193510617 398.08857336939855 L 158.11103743380812 397.0787151924893 L 158.01005078500688 396.06885701558014 L 157.90414013161555 395.0589988386709 L 157.7926366723839 394.04914066176167 L 157.67456182866977 393.03928248485244 L 157.5487084831209 392.02942430794326 L 157.41377513362465 391.019566131034 L 157.26854433016783 390.0097079541248 L 157.11208943457075 388.99984977721556 L 156.94398762460256 387.9899916003064 L 156.76451314628912 386.98013342339715 L 156.5747838703367 385.9702752464879 L 156.37683664749565 384.96041706957874 L 156.17361276130114 383.9505588926695 L 155.9688434530031 382.9407007157603 L 155.76683611347687 381.93084253885104 L 155.5721730305702 380.9209843619418 L 155.38934509063353 379.91112618503263 L 155.22235111221374 378.9012680081234 L 155.0742983169543 377.89140983121416 L 154.94704003118284 376.881551654305 L 154.84088287351483 375.87169347739575 L 154.75438791346505 374.8618353004865 L 154.68427973521585 373.8519771235773 L 154.6254656702636 372.8421189466681 L 154.57115658039794 371.8322607697589 L 154.51307229094277 370.82240259284964 L 154.4417104482225 369.81254441594047 L 154.34665779274533 368.80268623903123 L 154.21692724033858 367.792828062122 L 154.0413114420493 366.78296988521276 L 153.80875160953386 365.77311170830353 L 153.50872696483276 364.7632535313943 L 153.1316729916446 363.75339535448506 L 152.66943421578756 362.74353717757594 L 152.11574913121976 361.7336790006667 L 151.4667520549229 360.7238208237575 L 150.7214613532724 359.71396264684824 L 149.88220877597482 358.704104469939 L 148.9549540514182 357.6942462930298 L 147.9494255748361 356.6843881161206 L 146.8790340550745 355.6745299392113 L 145.76052191788258 354.66467176230213 L 144.61333584404684 353.65481358539296 L 143.45874011938778 352.6449554084837 L 142.31872032343946 351.6350972315745 L 141.214755575543 350.62523905466526 L 140.16655865336142 349.615380877756 L 139.19089340473454 348.60552270084685 L 138.30057621898374 347.5956645239376 L 137.50375304533068 346.5858063470284 L 136.8035175282381 345.5759481701192 L 136.19790272491565 344.56608999320997 L 135.68024289001133 343.55623181630074 L 135.23986741200105 342.5463736393915 L 134.86306008618106 341.53651546248227 L 134.53419637572898 340.5266572855731 L 134.23696066848933 339.51679910866386 L 133.9555449377197 338.5069409317546 L 133.6757386454053 337.49708275484545 L 133.38583535223805 336.4872245779362 L 133.07730206537835 335.477366401027 L 132.74518055033727 334.46750822411775 L 132.38821353375653 333.4576500472085 L 132.00871111304815 332.44779187029934 L 131.61219225838644 331.43793369339016 L 131.20685178312272 330.4280755164809 L 130.80291350884357 329.4182173395717 L 130.4119347121176 328.40835916266246 L 130.04612478260927 327.39850098575323 L 129.7177323214223 326.388642808844 L 129.4385403440722 325.37878463193476 L 129.21949034518886 324.3689264550256 L 129.0704350814459 323.3590682781164 L 129 322.3492101012072 L 129.01551744598552 321.33935192429794 L 129.12298892989875 320.3294937473887 L 129.32703068287003 319.3196355704795 L 129.63076690747155 318.30977739357024 L 130.03565230910996 317.29991921666107 L 130.541227848725 316.29006103975183 L 131.1448372074403 315.28020286284266 L 131.84135174162301 314.2703446859334 L 132.62296463438474 313.2604865090242 L 133.47911757479972 312.25062833211496 L 134.39661442900942 311.2407701552057 L 135.35995683762053 310.2309119782965 L 136.3519092144051 309.2210538013873 L 137.35426939502204 308.2111956244781 L 138.3487910530853 307.2013374475689 L 139.31817968580168 306.19147927065967 L 140.24706926696115 305.18162109375044 L 141.1228838451635 304.1717629168412 L 141.93649787541327 303.16190473993197 L 142.68262953932233 302.15204656302274 L 143.35992983914636 301.14218838611356 L 143.97076294087665 300.1323302092044 L 144.52070580324488 299.12247203229515 L 145.01782351630072 298.1126138553859 L 145.4717977176357 297.1027556784767 L 145.89299684553305 296.09289750156745 L 146.2915780543724 295.0830393246582 L 146.67670190794524 294.073181147749 L 147.05592415963991 293.0633229708398 L 147.43480651260614 292.05346479393063 L 147.81676313645258 291.04360661702134 L 148.2031348337784 290.03374844011216 L 148.59346071331424 289.02389026320293 L 148.9859000722595 288.0140320862937 L 149.3777462281622 287.00417390938446 L 149.76596981403623 285.9943157324753 L 150.14773138718363 284.98445755556605 L 150.5208113264516 283.9745993786569 L 150.88391766870654 282.9647412017476 L 151.23684821989443 281.9548830248384 L 151.58050026524393 280.9450248479292 L 151.91673777086328 279.93516667101994 L 152.24814050007492 278.9253084941107 L 152.57767058905867 277.91545031720153 L 152.90829883181698 276.9055921402923 L 153.2426346838545 275.8957339633831 L 153.5826008243811 274.8858757864739 L 153.9291855967069 273.87601760956466 L 154.2822958562326 272.8661594326554 L 154.64072014272236 271.8563012557462 L 155.00219927744894 270.84644307883696 L 155.36359003012953 269.8365849019278 L 155.72109869596412 268.82672672501855 L 156.07055611760475 267.81686854810937 L 156.40770419504202 266.80701037120014 L 156.72846602965691 265.7971521942909 L 157.02917688089767 264.78729401738167 L 157.30676010840057 263.7774358404725 L 157.55884013646357 262.7675776635632 L 157.78379216181045 261.757719486654 L 157.98073495574752 260.74786130974485 L 158.1494780727167 259.7380031328356 L 158.29043774082672 258.7281449559264 L 158.4045366196592 257.71828677901715 L 158.49310163624511 256.7084286021079 L 158.5577715895106 255.69857042519874 L 158.60042259482572 254.68871224828948 L 158.62311523124635 253.67885407138027 L 158.62806297952804 252.66899589447107 L 158.61761770386826 251.65913771756183 L 158.59426498263278 250.64927954065263 L 158.5606203853091 249.63942136374342 L 158.51941754100727 248.62956318683416 L 158.47348009295015 247.61970500992496 L 158.4256722346725 246.60984683301578 L 158.3788261347232 245.59998865610652 L 158.33564867171063 244.5901304791973 L 158.2986139124284 243.58027230228808 L 158.26985104867475 242.57041412537887 L 158.25103952270902 241.56055594846967 L 158.24332345367364 240.5506977715604 L 158.2472561108197 239.5408395946512 L 158.2627822226964 238.530981417742 L 158.289261779347 237.52112324083276 L 158.32553428116123 236.51126506392356 L 158.3700178048381 235.50140688701435 L 158.42083345475706 234.49154871010512 L 158.4759432664675 233.4816905331959 L 158.53328872430538 232.47183235628665 L 158.59091778223234 231.46197417937748 L 158.64709042024637 230.45211600246824 L 158.70035591676012 229.442257825559 L 158.74959864798893 228.43239964864978 L 158.79405280178366 227.4225414717406 L 158.83328945205602 226.41268329483137 L 158.86718165540603 225.40282511792213 L 158.89585444784356 224.39296694101296 L 158.9196268483387 223.38310876410372 L 158.93895236657357 222.3732505871945 L 158.9543633034153 221.36339241028531 L 158.9664225985264 220.35353423337602 L 158.97568538092634 219.34367605646685 L 158.98267092613145 218.3338178795576 L 158.98784455878032 217.32395970264838 L 158.9916082296435 216.3141015257392 L 159.0083917703565 216.3141015257392 L 159.01215544121968 217.32395970264838 L 159.01732907386855 218.3338178795576 L 159.02431461907366 219.34367605646685 L 159.0335774014736 220.35353423337602 L 159.0456366965847 221.36339241028531 L 159.06104763342643 222.3732505871945 L 159.0803731516613 223.38310876410372 L 159.10414555215644 224.39296694101296 L 159.13281834459397 225.40282511792213 L 159.16671054794398 226.41268329483137 L 159.20594719821634 227.4225414717406 L 159.25040135201107 228.43239964864978 L 159.29964408323988 229.442257825559 L 159.35290957975363 230.45211600246824 L 159.40908221776766 231.46197417937748 L 159.46671127569462 232.47183235628665 L 159.5240567335325 233.4816905331959 L 159.57916654524294 234.49154871010512 L 159.6299821951619 235.50140688701435 L 159.67446571883877 236.51126506392356 L 159.710738220653 237.52112324083276 L 159.7372177773036 238.530981417742 L 159.7527438891803 239.5408395946512 L 159.75667654632636 240.5506977715604 L 159.74896047729098 241.56055594846967 L 159.73014895132525 242.57041412537887 L 159.7013860875716 243.58027230228808 L 159.66435132828937 244.5901304791973 L 159.6211738652768 245.59998865610652 L 159.5743277653275 246.60984683301578 L 159.52651990704985 247.61970500992496 L 159.48058245899273 248.62956318683416 L 159.4393796146909 249.63942136374342 L 159.40573501736722 250.64927954065263 L 159.38238229613174 251.65913771756183 L 159.37193702047196 252.66899589447107 L 159.37688476875365 253.67885407138027 L 159.39957740517428 254.68871224828948 L 159.4422284104894 255.69857042519874 L 159.50689836375489 256.7084286021079 L 159.5954633803408 257.71828677901715 L 159.70956225917328 258.7281449559264 L 159.8505219272833 259.7380031328356 L 160.01926504425248 260.74786130974485 L 160.21620783818955 261.757719486654 L 160.44115986353643 262.7675776635632 L 160.69323989159943 263.7774358404725 L 160.97082311910233 264.78729401738167 L 161.27153397034309 265.7971521942909 L 161.59229580495798 266.80701037120014 L 161.92944388239525 267.81686854810937 L 162.27890130403588 268.82672672501855 L 162.63640996987047 269.8365849019278 L 162.99780072255106 270.84644307883696 L 163.35927985727764 271.8563012557462 L 163.7177041437674 272.8661594326554 L 164.0708144032931 273.87601760956466 L 164.4173991756189 274.8858757864739 L 164.7573653161455 275.8957339633831 L 165.09170116818302 276.9055921402923 L 165.42232941094133 277.91545031720153 L 165.75185949992508 278.9253084941107 L 166.08326222913672 279.93516667101994 L 166.41949973475607 280.9450248479292 L 166.76315178010557 281.9548830248384 L 167.11608233129346 282.9647412017476 L 167.4791886735484 283.9745993786569 L 167.85226861281637 284.98445755556605 L 168.23403018596377 285.9943157324753 L 168.6222537718378 287.00417390938446 L 169.0140999277405 288.0140320862937 L 169.40653928668576 289.02389026320293 L 169.7968651662216 290.03374844011216 L 170.18323686354742 291.04360661702134 L 170.56519348739386 292.05346479393063 L 170.94407584036009 293.0633229708398 L 171.32329809205476 294.073181147749 L 171.7084219456276 295.0830393246582 L 172.10700315446695 296.09289750156745 L 172.5282022823643 297.1027556784767 L 172.98217648369928 298.1126138553859 L 173.47929419675512 299.12247203229515 L 174.02923705912335 300.1323302092044 L 174.64007016085364 301.14218838611356 L 175.31737046067767 302.15204656302274 L 176.06350212458673 303.16190473993197 L 176.8771161548365 304.1717629168412 L 177.75293073303885 305.18162109375044 L 178.68182031419832 306.19147927065967 L 179.6512089469147 307.2013374475689 L 180.64573060497796 308.2111956244781 L 181.6480907855949 309.2210538013873 L 182.64004316237947 310.2309119782965 L 183.60338557099058 311.2407701552057 L 184.52088242520028 312.25062833211496 L 185.37703536561526 313.2604865090242 L 186.15864825837699 314.2703446859334 L 186.8551627925597 315.28020286284266 L 187.458772151275 316.29006103975183 L 187.96434769089004 317.29991921666107 L 188.36923309252845 318.30977739357024 L 188.67296931712997 319.3196355704795 L 188.87701107010125 320.3294937473887 L 188.98448255401448 321.33935192429794 L 189 322.3492101012072 L 188.9295649185541 323.3590682781164 L 188.78050965481114 324.3689264550256 L 188.5614596559278 325.37878463193476 L 188.2822676785777 326.388642808844 L 187.95387521739073 327.39850098575323 L 187.5880652878824 328.40835916266246 L 187.19708649115643 329.4182173395717 L 186.79314821687728 330.4280755164809 L 186.38780774161356 331.43793369339016 L 185.99128888695185 332.44779187029934 L 185.61178646624347 333.4576500472085 L 185.25481944966273 334.46750822411775 L 184.92269793462165 335.477366401027 L 184.61416464776195 336.4872245779362 L 184.3242613545947 337.49708275484545 L 184.0444550622803 338.5069409317546 L 183.76303933151067 339.51679910866386 L 183.46580362427102 340.5266572855731 L 183.13693991381894 341.53651546248227 L 182.76013258799895 342.5463736393915 L 182.31975710998867 343.55623181630074 L 181.80209727508435 344.56608999320997 L 181.1964824717619 345.5759481701192 L 180.49624695466932 346.5858063470284 L 179.69942378101626 347.5956645239376 L 178.80910659526546 348.60552270084685 L 177.83344134663858 349.615380877756 L 176.785244424457 350.62523905466526 L 175.68127967656054 351.6350972315745 L 174.54125988061222 352.6449554084837 L 173.38666415595316 353.65481358539296 L 172.23947808211742 354.66467176230213 L 171.1209659449255 355.6745299392113 L 170.0505744251639 356.6843881161206 L 169.0450459485818 357.6942462930298 L 168.11779122402518 358.704104469939 L 167.2785386467276 359.71396264684824 L 166.5332479450771 360.7238208237575 L 165.88425086878024 361.7336790006667 L 165.33056578421244 362.74353717757594 L 164.8683270083554 363.75339535448506 L 164.49127303516724 364.7632535313943 L 164.19124839046614 365.77311170830353 L 163.9586885579507 366.78296988521276 L 163.78307275966142 367.792828062122 L 163.65334220725467 368.80268623903123 L 163.5582895517775 369.81254441594047 L 163.48692770905723 370.82240259284964 L 163.42884341960206 371.8322607697589 L 163.3745343297364 372.8421189466681 L 163.31572026478415 373.8519771235773 L 163.24561208653495 374.8618353004865 L 163.15911712648517 375.87169347739575 L 163.05295996881716 376.881551654305 L 162.9257016830457 377.89140983121416 L 162.77764888778626 378.9012680081234 L 162.61065490936647 379.91112618503263 L 162.4278269694298 380.9209843619418 L 162.23316388652313 381.93084253885104 L 162.0311565469969 382.9407007157603 L 161.82638723869886 383.9505588926695 L 161.62316335250435 384.96041706957874 L 161.4252161296633 385.9702752464879 L 161.23548685371088 386.98013342339715 L 161.05601237539744 387.9899916003064 L 160.88791056542925 388.99984977721556 L 160.73145566983217 390.0097079541248 L 160.58622486637535 391.019566131034 L 160.4512915168791 392.02942430794326 L 160.32543817133023 393.03928248485244 L 160.2073633276161 394.04914066176167 L 160.09585986838445 395.0589988386709 L 159.98994921499312 396.06885701558014 L 159.88896256619188 397.0787151924893 L 159.79256806489383 398.08857336939855 L 159.7007493827864 399.0984315463078 L 159.61374626717765 400.108289723217 L 159.53197059925174 401.1181479001262 L 159.45591234961054 402.1280060770354 L 159.38604868677464 403.13786425394466 L 159.32276684886216 404.14772243085383 L 159.26630782895404 405.15758060776307 L 159.21673408837196 406.1674387846723 L 159.17392097040823 407.17729696158153 L 159.13756866765544 408.18715513849077 L 159.10722974227343 409.1970133154 L 159.08234636575017 410.2068714923092 L 159.06229152888127 411.2167296692184 L 159.04640925934766 412.2265878461276 L 159.03405010580846 413.2364460230368 L 159.02459953656475 414.24630419994605 L 159.0174982317331 415.2561623768553 L 159.01225436043822 416.2660205537645 L 159.0084487419463 417.2758787306737 Z" stroke="black" stroke-width="0.5" fill="steelblue" /><path d="M 358.98739531791017 475.2092243295268 L 358.9836769455745 473.6314295507712 L 358.978964857957 472.0536347720156 L 358.9730237812502 470.47583999326 L 358.96557091751293 468.8980452145044 L 358.9562683673774 467.3202504357488 L 358.9447148057944 465.74245565699323 L 358.93043644013585 464.1646608782376 L 358.91287730934806 462.586866099482 L 358.8913890176281 461.00907132072643 L 358.8652200363512 459.4312765419708 L 358.83350475355314 457.8534817632152 L 358.79525250077427 456.27568698445964 L 358.7493368417783 454.697892205704 L 358.6944854654966 453.1200974269484 L 358.62927108502754 451.54230264819284 L 358.5521038036993 449.9645078694372 L 358.461225465673 448.3867130906816 L 358.354706559413 446.80891831192605 L 358.23044628423185 445.23112353317043 L 358.0861764192502 443.6533287544149 L 357.91946964641954 442.07553397565925 L 357.72775297047997 440.49773919690364 L 357.5083268446256 438.9199444181481 L 357.25839054724383 437.34214963939246 L 356.97507425892627 435.76435486063684 L 356.6554781574381 434.1865600818812 L 356.2967186800751 432.60876530312567 L 355.89598189799915 431.0309705243701 L 355.4505837077405 429.4531757456145 L 354.9580362752653 427.87538096685887 L 354.41611987432947 426.2975861881033 L 353.8229589522106 424.7197914093477 L 353.1771009435896 423.1419966305921 L 352.4775960507579 421.5642018518365 L 351.72407593053777 419.9864070730809 L 350.91682899153307 418.4086122943253 L 350.0568698260909 416.8308175155697 L 349.14600019556235 415.2530227368141 L 348.1868589693663 413.6752279580585 L 347.18295849952824 412.0974331793029 L 346.1387051005461 410.5196384005473 L 345.05940160268625 408.9418436217917 L 343.9512303527227 407.36404884303613 L 342.82121554137797 405.7862540642805 L 341.67716432694266 404.2084592855249 L 340.5275868796148 402.63066450676934 L 339.38159616584056 401.0528697280137 L 338.2487889972149 399.4750749492581 L 337.13911055271024 397.89728017050254 L 336.0627052138174 396.3194853917469 L 335.0297570984659 394.7416906129913 L 334.05032411339675 393.16389583423575 L 333.1341696430467 391.5861010554801 L 332.29059613965626 390.0083062767245 L 331.528284865725 388.43051149796895 L 330.8551458660947 386.85271671921333 L 330.27818192142183 385.2749219404577 L 329.80336977427 383.69712716170216 L 329.4355613471648 382.11933238294654 L 329.17840701775276 380.5415376041909 L 329.03430231215185 378.96374282543536 L 329.00435865733385 377.38594804667974 L 329.08839812958144 375.8081532679241 L 329.28497147822753 374.23035848916857 L 329.59139811663584 372.65256371041295 L 330.0038262741654 371.07476893165733 L 330.51731110518284 369.49697415290177 L 331.1259082585025 367.91917937414615 L 331.82278022081755 366.34138459539054 L 332.60031265298545 364.763589816635 L 333.4502379264967 363.18579503787936 L 334.3637631245386 361.6080002591238 L 335.3316998823264 360.0302054803682 L 336.3445935900924 358.4524107016126 L 337.3928496566265 356.874615922857 L 338.46685472187033 355.2968211441014 L 339.557090907639 353.7190263653458 L 340.6542414034286 352.1412315865902 L 341.7492858999718 350.5634368078346 L 342.83358460949455 348.98564202907903 L 343.89894985257524 347.4078472503234 L 344.9377044512453 345.8300524715678 L 345.94272644956317 344.25225769281224 L 346.90747998735515 342.6744629140566 L 347.8260324783403 341.096668135301 L 348.69305858544107 339.51887335654544 L 349.5038318354917 337.9410785777898 L 350.25420506166336 336.3632837990342 L 350.94058119134235 334.78548902027865 L 351.5598761952127 333.20769424152303 L 352.10947626486455 331.6298994627674 L 352.5871914771392 330.05210468401185 L 352.99120832119013 328.47430990525623 L 353.32004349917474 326.8965151265006 L 353.5725013572681 325.31872034774506 L 353.7476371578406 323.74092556898944 L 353.84472816774087 322.1631307902338 L 353.8632542172544 320.58533601147826 L 353.80288898880167 319.00754123272264 L 353.6635028364766 317.429746453967 L 353.44517743259115 315.85195167521147 L 353.1482320031859 314.27415689645585 L 352.77326037026523 312.69636211770023 L 352.3211774845187 311.1185673389447 L 351.7932736290072 309.54077256018905 L 351.19127402186666 307.96297778143344 L 350.51740116370286 306.3851830026779 L 349.77443698056464 304.8073882239223 L 348.96578162145715 303.2295934451667 L 348.09550569260466 301.6517986664111 L 347.16839275774794 300.0740038876555 L 346.1899691090715 298.4962091088999 L 345.1665181164204 296.9184143301443 L 344.10507688755314 295.3406195513887 L 343.01341350799254 293.7628247726331 L 341.8999837587724 292.1850299938775 L 340.7738669120151 290.60723521512193 L 339.64468095121583 289.0294404363663 L 338.5224783252128 287.4516456576107 L 337.4176240896911 285.87385087885514 L 336.3406589846888 284.2960561000995 L 335.3021506090489 282.7182613213439 L 334.31253635422166 281.14046654258834 L 333.3819621261422 279.5626717638327 L 332.52012109735915 277.9848769850771 L 331.7360967819935 276.40708220632155 L 331.03821461168786 274.82928742756593 L 330.43390591824044 273.2514926488103 L 329.92958781313934 271.67369787005475 L 329.53056191800044 270.09590309129914 L 329.2409342710897 268.5181083125435 L 329.0635580457018 266.94031353378796 L 329 265.36251875503234 L 329.05053086835676 263.7847239762767 L 329.21413923203306 262.20692919752116 L 329.48856779848586 260.62913441876555 L 329.87037049406223 259.0513396400099 L 330.3549883478684 257.47354486125437 L 330.93684182158023 255.89575008249875 L 331.6094370204522 254.31795530374316 L 332.36548309832136 252.74016052498754 L 333.197018132817 251.16236574623196 L 334.0955407819535 249.58457096747642 L 335.0521451240365 248.00677618872078 L 336.05765621379845 246.42898140996522 L 337.1027640450003 244.85118663120957 L 338.1781537822422 243.273391852454 L 339.2746303046846 241.69559707369837 L 340.38323528766244 240.11780229494283 L 341.495355233991 238.5400075161872 L 342.60281905699986 236.96221273743163 L 343.69798401561275 235.38441795867595 L 344.7738090123541 233.80662317992045 L 345.823914491749 232.22882840116478 L 346.84262842141675 230.65103362240922 L 347.8250181011883 229.0732388436536 L 348.7669078240118 227.49544406489804 L 349.66488270061836 225.91764928614242 L 350.5162792497107 224.33985450738686 L 351.3191636366191 222.7620597286312 L 352.0722987046005 221.18426494987563 L 352.77510117270793 219.60647017112 L 353.4275905617336 218.02867539236445 L 354.030331546215 216.45088061360883 L 354.58437150953847 214.87308583485327 L 355.0911750975388 213.2952910560976 L 355.55255752381964 211.71749627734204 L 355.9706182808025 210.13970149858642 L 356.34767676079247 208.56190671983086 L 356.6862111001925 206.98411194107524 L 356.98880133825327 205.40631716231968 L 357.2580777412761 203.828522383564 L 357.4966748960059 202.25072760480845 L 357.70719193346 200.67293282605283 L 357.8921590167647 199.09513804729727 L 358.0540100220274 197.51734326854165 L 358.1950611660625 195.9395484897861 L 358.31749519282874 194.36175371103042 L 358.42335062341186 192.7839589322749 L 358.5145155019277 191.20616415351924 L 358.5927250297157 189.62836937476368 L 358.65956246915204 188.05057459600806 L 358.7164627119213 186.4727798172525 L 358.76471793968625 184.89498503849683 L 358.80548485271197 183.31719025974132 L 358.8397929992282 181.73939548098565 L 358.8685538007238 180.1616007022301 L 358.89256993213655 178.58380592347447 L 358.9125447779603 177.0060111447189 L 358.92909174331595 175.42821636596324 L 358.94274325145113 173.85042158720773 L 358.95395930502326 172.27262680845206 L 358.9631355275358 170.6948320296965 L 358.97061063352777 169.11703725094088 L 358.97667330199204 167.53924247218532 L 358.9815684476514 165.96144769342965 L 358.9855028999118 164.38365291467414 L 358.98865051033715 162.80585813591847 L 358.9911567171131 161.2280633571629 L 359.0088432828869 161.2280633571629 L 359.01134948966285 162.80585813591847 L 359.0144971000882 164.38365291467414 L 359.0184315523486 165.96144769342965 L 359.02332669800796 167.53924247218532 L 359.02938936647223 169.11703725094088 L 359.0368644724642 170.6948320296965 L 359.04604069497674 172.27262680845206 L 359.05725674854887 173.85042158720773 L 359.07090825668405 175.42821636596324 L 359.0874552220397 177.0060111447189 L 359.10743006786345 178.58380592347447 L 359.1314461992762 180.1616007022301 L 359.1602070007718 181.73939548098565 L 359.19451514728803 183.31719025974132 L 359.23528206031375 184.89498503849683 L 359.2835372880787 186.4727798172525 L 359.34043753084796 188.05057459600806 L 359.4072749702843 189.62836937476368 L 359.4854844980723 191.20616415351924 L 359.57664937658814 192.7839589322749 L 359.68250480717126 194.36175371103042 L 359.8049388339375 195.9395484897861 L 359.9459899779726 197.51734326854165 L 360.1078409832353 199.09513804729727 L 360.29280806654 200.67293282605283 L 360.5033251039941 202.25072760480845 L 360.7419222587239 203.828522383564 L 361.01119866174673 205.40631716231968 L 361.3137888998075 206.98411194107524 L 361.65232323920753 208.56190671983086 L 362.0293817191975 210.13970149858642 L 362.44744247618036 211.71749627734204 L 362.9088249024612 213.2952910560976 L 363.41562849046153 214.87308583485327 L 363.969668453785 216.45088061360883 L 364.5724094382664 218.02867539236445 L 365.22489882729207 219.60647017112 L 365.9277012953995 221.18426494987563 L 366.6808363633809 222.7620597286312 L 367.4837207502893 224.33985450738686 L 368.33511729938164 225.91764928614242 L 369.2330921759882 227.49544406489804 L 370.1749818988117 229.0732388436536 L 371.15737157858325 230.65103362240922 L 372.176085508251 232.22882840116478 L 373.2261909876459 233.80662317992045 L 374.30201598438725 235.38441795867595 L 375.39718094300014 236.96221273743163 L 376.504644766009 238.5400075161872 L 377.61676471233756 240.11780229494283 L 378.7253696953154 241.69559707369837 L 379.8218462177578 243.273391852454 L 380.8972359549997 244.85118663120957 L 381.94234378620155 246.42898140996522 L 382.9478548759635 248.00677618872078 L 383.9044592180465 249.58457096747642 L 384.802981867183 251.16236574623196 L 385.63451690167864 252.74016052498754 L 386.3905629795478 254.31795530374316 L 387.06315817841977 255.89575008249875 L 387.6450116521316 257.47354486125437 L 388.12962950593777 259.0513396400099 L 388.51143220151414 260.62913441876555 L 388.78586076796694 262.20692919752116 L 388.94946913164324 263.7847239762767 L 389 265.36251875503234 L 388.9364419542982 266.94031353378796 L 388.7590657289103 268.5181083125435 L 388.46943808199956 270.09590309129914 L 388.07041218686066 271.67369787005475 L 387.56609408175956 273.2514926488103 L 386.96178538831214 274.82928742756593 L 386.2639032180065 276.40708220632155 L 385.47987890264085 277.9848769850771 L 384.6180378738578 279.5626717638327 L 383.68746364577834 281.14046654258834 L 382.6978493909511 282.7182613213439 L 381.6593410153112 284.2960561000995 L 380.5823759103089 285.87385087885514 L 379.4775216747872 287.4516456576107 L 378.35531904878417 289.0294404363663 L 377.2261330879849 290.60723521512193 L 376.1000162412276 292.1850299938775 L 374.98658649200746 293.7628247726331 L 373.89492311244686 295.3406195513887 L 372.8334818835796 296.9184143301443 L 371.8100308909285 298.4962091088999 L 370.83160724225206 300.0740038876555 L 369.90449430739534 301.6517986664111 L 369.03421837854285 303.2295934451667 L 368.22556301943536 304.8073882239223 L 367.48259883629714 306.3851830026779 L 366.80872597813334 307.96297778143344 L 366.2067263709928 309.54077256018905 L 365.6788225154813 311.1185673389447 L 365.22673962973477 312.69636211770023 L 364.8517679968141 314.27415689645585 L 364.55482256740885 315.85195167521147 L 364.3364971635234 317.429746453967 L 364.19711101119833 319.00754123272264 L 364.1367457827456 320.58533601147826 L 364.15527183225913 322.1631307902338 L 364.2523628421594 323.74092556898944 L 364.4274986427319 325.31872034774506 L 364.67995650082526 326.8965151265006 L 365.00879167880987 328.47430990525623 L 365.4128085228608 330.05210468401185 L 365.89052373513545 331.6298994627674 L 366.4401238047873 333.20769424152303 L 367.05941880865765 334.78548902027865 L 367.74579493833664 336.3632837990342 L 368.4961681645083 337.9410785777898 L 369.30694141455893 339.51887335654544 L 370.1739675216597 341.096668135301 L 371.09252001264485 342.6744629140566 L 372.05727355043683 344.25225769281224 L 373.0622955487547 345.8300524715678 L 374.10105014742476 347.4078472503234 L 375.16641539050545 348.98564202907903 L 376.2507141000282 350.5634368078346 L 377.3457585965714 352.1412315865902 L 378.442909092361 353.7190263653458 L 379.53314527812967 355.2968211441014 L 380.6071503433735 356.874615922857 L 381.6554064099076 358.4524107016126 L 382.6683001176736 360.0302054803682 L 383.6362368754614 361.6080002591238 L 384.5497620735033 363.18579503787936 L 385.39968734701455 364.763589816635 L 386.17721977918245 366.34138459539054 L 386.8740917414975 367.91917937414615 L 387.48268889481716 369.49697415290177 L 387.9961737258346 371.07476893165733 L 388.40860188336416 372.65256371041295 L 388.71502852177247 374.23035848916857 L 388.91160187041856 375.8081532679241 L 388.99564134266615 377.38594804667974 L 388.96569768784815 378.96374282543536 L 388.82159298224724 380.5415376041909 L 388.5644386528352 382.11933238294654 L 388.19663022573 383.69712716170216 L 387.72181807857817 385.2749219404577 L 387.1448541339053 386.85271671921333 L 386.471715134275 388.43051149796895 L 385.70940386034374 390.0083062767245 L 384.8658303569533 391.5861010554801 L 383.94967588660325 393.16389583423575 L 382.9702429015341 394.7416906129913 L 381.9372947861826 396.3194853917469 L 380.86088944728976 397.89728017050254 L 379.7512110027851 399.4750749492581 L 378.61840383415944 401.0528697280137 L 377.4724131203852 402.63066450676934 L 376.32283567305734 404.2084592855249 L 375.17878445862203 405.7862540642805 L 374.0487696472773 407.36404884303613 L 372.94059839731375 408.9418436217917 L 371.8612948994539 410.5196384005473 L 370.81704150047176 412.0974331793029 L 369.8131410306337 413.6752279580585 L 368.85399980443765 415.2530227368141 L 367.9431301739091 416.8308175155697 L 367.08317100846693 418.4086122943253 L 366.27592406946223 419.9864070730809 L 365.5224039492421 421.5642018518365 L 364.8228990564104 423.1419966305921 L 364.1770410477894 424.7197914093477 L 363.58388012567053 426.2975861881033 L 363.0419637247347 427.87538096685887 L 362.5494162922595 429.4531757456145 L 362.10401810200085 431.0309705243701 L 361.7032813199249 432.60876530312567 L 361.3445218425619 434.1865600818812 L 361.02492574107373 435.76435486063684 L 360.74160945275617 437.34214963939246 L 360.4916731553744 438.9199444181481 L 360.27224702952003 440.49773919690364 L 360.08053035358046 442.07553397565925 L 359.9138235807498 443.6533287544149 L 359.76955371576815 445.23112353317043 L 359.645293440587 446.80891831192605 L 359.538774534327 448.3867130906816 L 359.4478961963007 449.9645078694372 L 359.37072891497246 451.54230264819284 L 359.3055145345034 453.1200974269484 L 359.2506631582217 454.697892205704 L 359.20474749922573 456.27568698445964 L 359.16649524644686 457.8534817632152 L 359.1347799636488 459.4312765419708 L 359.1086109823719 461.00907132072643 L 359.08712269065194 462.586866099482 L 359.06956355986415 464.1646608782376 L 359.0552851942056 465.74245565699323 L 359.0437316326226 467.3202504357488 L 359.03442908248707 468.8980452145044 L 359.0269762187498 470.47583999326 L 359.021035142043 472.0536347720156 L 359.0163230544255 473.6314295507712 L 359.01260468208983 475.2092243295268 Z" stroke="black" stroke-width="0.5" fill="steelblue" /><path d="M 558.9350385539959 350.5811108125299 L 558.894954216271 349.1906677855726 L 558.833670463356 347.8002247586152 L 558.7420877243511 346.4097817316578 L 558.6083177109472 345.01933870470043 L 558.4173520823219 343.628895677743 L 558.1509292115645 342.2384526507857 L 557.7877097929467 340.84800962382826 L 557.3038712549486 339.4575665968709 L 556.674209406795 338.0671235699135 L 555.8737894327434 336.6766805429561 L 554.8801174007876 335.2862375159987 L 553.6757136977676 333.89579448904135 L 552.2508732688065 332.5053514620839 L 550.6063114546106 331.11490843512655 L 548.7553383118523 329.7244654081692 L 546.7251966711568 328.33402238121175 L 544.5572515762024 326.94357935425444 L 542.3058323885208 325.553136327297 L 540.0356921860996 324.16269330033964 L 537.8182383970578 322.77225027338227 L 535.7268717663296 321.38180724642484 L 533.8319136403544 319.9913642194675 L 532.1956756752081 318.6009211925101 L 530.8682154082352 317.21047816555273 L 529.8842263515847 315.82003513859536 L 529.2613499932971 314.42959211163793 L 529 313.0391490846806 L 529.0845925987826 311.6487060577232 L 529.485915650896 310.2582630307658 L 530.1642664080662 308.8678200038084 L 531.0729539448901 307.477376976851 L 532.1617913317313 306.08693394989365 L 533.3802775662507 304.6964909229363 L 534.6802670741642 303.30604789597885 L 536.0180228259427 301.9156048690215 L 537.3556312724477 300.5251618420641 L 538.6618153562218 299.1347188151067 L 539.9122159837694 297.74427578814937 L 541.0892283257195 296.35383276119194 L 542.1814848917912 294.96338973423457 L 543.1830789363086 293.5729467072772 L 544.0926225838716 292.18250368031977 L 544.9122338826081 290.79206065336246 L 545.6465433120752 289.401617626405 L 546.3018002189464 288.01117459944766 L 546.8851416346406 286.6207315724903 L 547.4040605640513 285.23028854553286 L 547.8660809532736 283.83984551857554 L 548.2786164577664 282.4494024916181 L 548.648964570455 281.05895946466075 L 548.9843707695665 279.6685164377034 L 549.2920919204278 278.27807341074595 L 549.5793952811499 276.88763038378863 L 549.8534482623324 275.4971873568312 L 550.1210817898191 274.10674432987383 L 550.3884421917586 272.71630130291646 L 550.6605771989033 271.32585827595904 L 550.9410247567661 269.93541524900166 L 551.2314836023811 268.5449722220443 L 551.5316388658359 267.15452919508687 L 551.8391945004292 265.76408616812955 L 552.1501309361075 264.3736431411721 L 552.4591677979216 262.98320011421475 L 552.7603760755618 261.5927570872573 L 553.0478593389295 260.20231406029995 L 553.3164143576473 258.8118710333425 L 553.5620887628212 257.4214280063852 L 553.7825741538735 256.0309849794278 L 553.9774013956234 254.64054195247047 L 554.1479339090312 253.25009892551304 L 554.2971787549803 251.85965589855564 L 554.4294510247624 250.46921287159827 L 554.5499342854331 249.07876984464087 L 554.6641808000015 247.6883268176835 L 554.7775932399342 246.2978837907261 L 554.8949274744544 244.90744076376873 L 555.019855037955 243.51699773681136 L 555.1546234031565 242.12655470985396 L 555.2998501146267 240.7361116828966 L 555.4544806026958 239.3456686559392 L 555.6159272507184 237.95522562898182 L 555.7803887913065 236.56478260202442 L 555.943326102628 235.17433957506705 L 556.1000464508936 233.78389654810968 L 556.2463276801067 232.3934535211523 L 556.3790012957551 231.00301049419488 L 556.4964123151738 229.6125674672375 L 556.598685786427 228.22212444028014 L 556.6877542600632 226.83168141332277 L 556.7671340469172 225.44123838636534 L 556.8414756009886 224.05079535940797 L 556.9159484627387 222.6603523324506 L 556.9955475551474 221.26990930549323 L 557.0844202538026 219.87946627853586 L 557.1853100295061 218.48902325157843 L 557.2991931764199 217.09858022462106 L 557.4251538534629 215.70813719766363 L 557.5605053513204 214.31769417070632 L 557.7011290986474 212.9272511437489 L 557.8419738066586 211.53680811679152 L 557.9776397443935 210.1463650898341 L 558.1029691016419 208.75592206287678 L 558.2135715690125 207.36547903591935 L 558.3062312946474 205.97503600896198 L 558.3791628368215 204.58459298200455 L 558.4321053278375 203.19414995504724 L 558.4662625951747 201.8037069280898 L 558.4841108016578 200.4132639011325 L 558.4891040850649 199.02282087417507 L 558.4853134799545 197.6323778472177 L 558.4770361639028 196.24193482026027 L 558.468411584803 194.85149179330296 L 558.4630785465665 193.46104876634553 L 558.4639026441363 192.07060573938816 L 558.4727962181171 190.68016271243073 L 558.4906432413993 189.28971968547341 L 558.5173298987316 187.899276658516 L 558.551869430765 186.50883363155862 L 558.5925989242137 185.1183906046012 L 558.637418013332 183.72794757764382 L 558.6840363196102 182.33750455068645 L 558.7301984391031 180.94706152372908 L 558.7738619162877 179.55661849677165 L 558.8133135519663 178.16617546981428 L 558.847220663789 176.7757324428569 L 558.8746245349721 175.38528941589954 L 558.8948915506197 173.99484638894216 L 558.9076423302947 172.60440336198474 L 558.9126801158003 171.21396033502737 L 558.9099369957114 169.82351730807 L 558.8994509518261 168.43307428111262 L 558.8813792041207 167.04263125415525 L 558.8560450670211 165.65218822719783 L 558.8240077171376 164.26174520024045 L 558.7861380896675 162.87130217328308 L 558.7436806259767 161.4808591463257 L 558.6982805886137 160.09041611936829 L 558.6519605036405 158.69997309241091 L 558.6070367278634 157.30953006545354 L 558.5659771947307 155.91908703849612 L 558.5312124200135 154.5286440115388 L 558.5049217671116 153.13820098458137 L 558.4888236795831 151.747757957624 L 558.4840004539899 150.35731493066658 L 558.4907844318963 148.96687190370926 L 558.5087236854005 147.57642887675183 L 558.5366329403616 146.18598584979446 L 558.5727220141379 144.79554282283704 L 558.6147820820255 143.40509979587972 L 558.6604019030191 142.0146567689223 L 558.7071831204069 140.62421374196492 L 558.7529261378995 139.2337707150075 L 558.7957649671839 137.84332768805018 L 558.8342391485979 136.45288466109275 L 558.8673013344767 135.06244163413544 L 558.8942685346152 133.671998607178 L 558.914732040598 132.28155558022064 L 558.928445071052 130.8911125532632 L 558.9352082782913 129.5006695263059 L 558.9347719409876 128.11022649934847 L 558.9267706110933 126.71978347239104 L 558.9107017694466 125.32934044543367 L 558.8859550291602 123.9388974184763 L 558.8518927487607 122.54845439151893 L 558.8079766418808 121.15801136456156 L 558.7539282908522 119.76756833760413 L 558.6899048966791 118.37712531064676 L 558.6166660308465 116.98668228368939 L 558.5357038105993 115.59623925673202 L 558.4493090742842 114.20579622977465 L 558.3605507515209 112.81535320281722 L 558.2731549658109 111.42491017585985 L 558.1912837464291 110.03446714890248 L 558.1192287770012 108.64402412194511 L 558.0610507465095 107.25358109498768 L 558.0202066233837 105.86313806803031 L 557.999212889751 104.47269504107294 L 557.9993907834261 103.08225201411557 L 558.0207297113866 101.6918089871582 L 558.0618886695098 100.30136596020077 L 558.1203355742635 98.9109229332434 L 558.1926045259155 97.52047990628603 L 558.2746348145248 96.13003687932866 L 558.3621457712459 94.73959385237129 L 558.4509997720264 93.34915082541386 L 558.537511586547 91.95870779845649 L 558.6186741166421 90.56826477149912 L 558.6922856811436 89.17782174454175 L 558.7569793600524 87.78737871758432 L 558.8121678483266 86.39693569062695 L 558.8579259838075 85.00649266366958 L 558.8948368920302 83.6160496367122 L 558.9238268647966 82.22560660975478 L 558.946009767885 80.83516358279735 L 558.9625554572425 79.44472055583998 L 558.9745898804358 78.05427752888261 L 558.9831284681762 76.66383450192524 L 558.989039843716 75.27339147496787 L 558.9930340833153 73.88294844801044 L 559.0069659166847 73.88294844801044 L 559.010960156284 75.27339147496787 L 559.0168715318238 76.66383450192524 L 559.0254101195642 78.05427752888261 L 559.0374445427575 79.44472055583998 L 559.053990232115 80.83516358279735 L 559.0761731352034 82.22560660975478 L 559.1051631079698 83.6160496367122 L 559.1420740161925 85.00649266366958 L 559.1878321516734 86.39693569062695 L 559.2430206399476 87.78737871758432 L 559.3077143188564 89.17782174454175 L 559.3813258833579 90.56826477149912 L 559.462488413453 91.95870779845649 L 559.5490002279736 93.34915082541386 L 559.6378542287541 94.73959385237129 L 559.7253651854752 96.13003687932866 L 559.8073954740845 97.52047990628603 L 559.8796644257365 98.9109229332434 L 559.9381113304902 100.30136596020077 L 559.9792702886134 101.6918089871582 L 560.0006092165739 103.08225201411557 L 560.000787110249 104.47269504107294 L 559.9797933766163 105.86313806803031 L 559.9389492534905 107.25358109498768 L 559.8807712229988 108.64402412194511 L 559.8087162535709 110.03446714890248 L 559.7268450341891 111.42491017585985 L 559.6394492484791 112.81535320281722 L 559.5506909257158 114.20579622977465 L 559.4642961894007 115.59623925673202 L 559.3833339691535 116.98668228368939 L 559.3100951033209 118.37712531064676 L 559.2460717091478 119.76756833760413 L 559.1920233581192 121.15801136456156 L 559.1481072512393 122.54845439151893 L 559.1140449708398 123.9388974184763 L 559.0892982305534 125.32934044543367 L 559.0732293889067 126.71978347239104 L 559.0652280590124 128.11022649934847 L 559.0647917217087 129.5006695263059 L 559.071554928948 130.8911125532632 L 559.085267959402 132.28155558022064 L 559.1057314653848 133.671998607178 L 559.1326986655233 135.06244163413544 L 559.1657608514021 136.45288466109275 L 559.2042350328161 137.84332768805018 L 559.2470738621005 139.2337707150075 L 559.2928168795931 140.62421374196492 L 559.3395980969809 142.0146567689223 L 559.3852179179745 143.40509979587972 L 559.4272779858621 144.79554282283704 L 559.4633670596384 146.18598584979446 L 559.4912763145995 147.57642887675183 L 559.5092155681037 148.96687190370926 L 559.5159995460101 150.35731493066658 L 559.5111763204169 151.747757957624 L 559.4950782328884 153.13820098458137 L 559.4687875799865 154.5286440115388 L 559.4340228052693 155.91908703849612 L 559.3929632721366 157.30953006545354 L 559.3480394963595 158.69997309241091 L 559.3017194113863 160.09041611936829 L 559.2563193740233 161.4808591463257 L 559.2138619103325 162.87130217328308 L 559.1759922828624 164.26174520024045 L 559.1439549329789 165.65218822719783 L 559.1186207958793 167.04263125415525 L 559.1005490481739 168.43307428111262 L 559.0900630042886 169.82351730807 L 559.0873198841997 171.21396033502737 L 559.0923576697053 172.60440336198474 L 559.1051084493803 173.99484638894216 L 559.1253754650279 175.38528941589954 L 559.152779336211 176.7757324428569 L 559.1866864480337 178.16617546981428 L 559.2261380837123 179.55661849677165 L 559.2698015608969 180.94706152372908 L 559.3159636803898 182.33750455068645 L 559.362581986668 183.72794757764382 L 559.4074010757863 185.1183906046012 L 559.448130569235 186.50883363155862 L 559.4826701012684 187.899276658516 L 559.5093567586007 189.28971968547341 L 559.5272037818829 190.68016271243073 L 559.5360973558637 192.07060573938816 L 559.5369214534335 193.46104876634553 L 559.531588415197 194.85149179330296 L 559.5229638360972 196.24193482026027 L 559.5146865200455 197.6323778472177 L 559.5108959149351 199.02282087417507 L 559.5158891983422 200.4132639011325 L 559.5337374048253 201.8037069280898 L 559.5678946721625 203.19414995504724 L 559.6208371631785 204.58459298200455 L 559.6937687053526 205.97503600896198 L 559.7864284309875 207.36547903591935 L 559.8970308983581 208.75592206287678 L 560.0223602556065 210.1463650898341 L 560.1580261933414 211.53680811679152 L 560.2988709013526 212.9272511437489 L 560.4394946486796 214.31769417070632 L 560.5748461465371 215.70813719766363 L 560.7008068235801 217.09858022462106 L 560.8146899704939 218.48902325157843 L 560.9155797461974 219.87946627853586 L 561.0044524448526 221.26990930549323 L 561.0840515372613 222.6603523324506 L 561.1585243990114 224.05079535940797 L 561.2328659530828 225.44123838636534 L 561.3122457399368 226.83168141332277 L 561.401314213573 228.22212444028014 L 561.5035876848262 229.6125674672375 L 561.6209987042449 231.00301049419488 L 561.7536723198933 232.3934535211523 L 561.8999535491064 233.78389654810968 L 562.056673897372 235.17433957506705 L 562.2196112086935 236.56478260202442 L 562.3840727492816 237.95522562898182 L 562.5455193973042 239.3456686559392 L 562.7001498853733 240.7361116828966 L 562.8453765968435 242.12655470985396 L 562.980144962045 243.51699773681136 L 563.1050725255456 244.90744076376873 L 563.2224067600658 246.2978837907261 L 563.3358191999985 247.6883268176835 L 563.4500657145669 249.07876984464087 L 563.5705489752376 250.46921287159827 L 563.7028212450197 251.85965589855564 L 563.8520660909688 253.25009892551304 L 564.0225986043766 254.64054195247047 L 564.2174258461265 256.0309849794278 L 564.4379112371788 257.4214280063852 L 564.6835856423527 258.8118710333425 L 564.9521406610705 260.20231406029995 L 565.2396239244382 261.5927570872573 L 565.5408322020784 262.98320011421475 L 565.8498690638925 264.3736431411721 L 566.1608054995708 265.76408616812955 L 566.4683611341641 267.15452919508687 L 566.7685163976189 268.5449722220443 L 567.0589752432339 269.93541524900166 L 567.3394228010967 271.32585827595904 L 567.6115578082414 272.71630130291646 L 567.8789182101809 274.10674432987383 L 568.1465517376676 275.4971873568312 L 568.4206047188501 276.88763038378863 L 568.7079080795722 278.27807341074595 L 569.0156292304335 279.6685164377034 L 569.351035429545 281.05895946466075 L 569.7213835422336 282.4494024916181 L 570.1339190467264 283.83984551857554 L 570.5959394359487 285.23028854553286 L 571.1148583653594 286.6207315724903 L 571.6981997810536 288.01117459944766 L 572.3534566879248 289.401617626405 L 573.0877661173919 290.79206065336246 L 573.9073774161284 292.18250368031977 L 574.8169210636914 293.5729467072772 L 575.8185151082088 294.96338973423457 L 576.9107716742805 296.35383276119194 L 578.0877840162306 297.74427578814937 L 579.3381846437782 299.1347188151067 L 580.6443687275523 300.5251618420641 L 581.9819771740573 301.9156048690215 L 583.3197329258358 303.30604789597885 L 584.6197224337493 304.6964909229363 L 585.8382086682687 306.08693394989365 L 586.9270460551099 307.477376976851 L 587.8357335919338 308.8678200038084 L 588.514084349104 310.2582630307658 L 588.9154074012174 311.6487060577232 L 589 313.0391490846806 L 588.7386500067029 314.42959211163793 L 588.1157736484153 315.82003513859536 L 587.1317845917648 317.21047816555273 L 585.8043243247919 318.6009211925101 L 584.1680863596456 319.9913642194675 L 582.2731282336704 321.38180724642484 L 580.1817616029422 322.77225027338227 L 577.9643078139004 324.16269330033964 L 575.6941676114792 325.553136327297 L 573.4427484237976 326.94357935425444 L 571.2748033288432 328.33402238121175 L 569.2446616881477 329.7244654081692 L 567.3936885453894 331.11490843512655 L 565.7491267311935 332.5053514620839 L 564.3242863022324 333.89579448904135 L 563.1198825992124 335.2862375159987 L 562.1262105672566 336.6766805429561 L 561.325790593205 338.0671235699135 L 560.6961287450514 339.4575665968709 L 560.2122902070533 340.84800962382826 L 559.8490707884355 342.2384526507857 L 559.5826479176781 343.628895677743 L 559.3916822890528 345.01933870470043 L 559.2579122756489 346.4097817316578 L 559.166329536644 347.8002247586152 L 559.105045783729 349.1906677855726 L 559.0649614460041 350.5811108125299 Z" stroke="black" stroke-width="0.5" fill="steelblue" /><circle cx="161.5" cy="299.5125389918763" r="2.5" fill="rgba(0,0,0,0.35)" /><circle cx="156.5" cy="303.1248549544521" r="2.5" fill="rgba(0,0,0,0.35)" /><circle cx="169" cy="377.1338843517776" r="2.5" fill="rgba(0,0,0,0.35)" /><circle cx="176.5" cy="310.523536770437" r="2.5" fill="rgba(0,0,0,0.35)" /><circle cx="149" cy="346.1941276887579" r="2.5" fill="rgba(0,0,0,0.35)" /><circle cx="181.5" cy="313.17210551716744" r="2.5" fill="rgba(0,0,0,0.35)" /><circle cx="159" cy="240.32761489820703" r="2.5" fill="rgba(0,0,0,0.35)" /><circle cx="141.5" cy="320.1139835486514" r="2.5" fill="rgba(0,0,0,0.35)" /><circle cx="154" cy="345.2705628744729" r="2.5" fill="rgba(0,0,0,0.35)" /><circle cx="154" cy="376.0975634546011" r="2.5" fill="rgba(0,0,0,0.35)" /><circle cx="169" cy="277.25498627097204" r="2.5" fill="rgba(0,0,0,0.35)" /><circle cx="169" cy="333.72675516724837" r="2.5" fill="rgba(0,0,0,0.35)" /><circle cx="184" cy="345.3501583342162" r="2.5" fill="rgba(0,0,0,0.35)" /><circle cx="149" cy="334.7842431563789" r="2.5" fill="rgba(0,0,0,0.35)" /><circle cx="139" cy="349.57731605935476" r="2.5" fill="rgba(0,0,0,0.35)" /><circle cx="164" cy="345.14968376167195" r="2.5" fill="rgba(0,0,0,0.35)" /><circle cx="176.5" cy="319.04922817740044" r="2.5" fill="rgba(0,0,0,0.35)" /><circle cx="191.5" cy="324.14106266680005" r="2.5" fill="rgba(0,0,0,0.35)" /><circle cx="159" cy="288.8882876301469" r="2.5" fill="rgba(0,0,0,0.35)" /><circle cx="146.5" cy="307.7541012830063" r="2.5" fill="rgba(0,0,0,0.35)" /><circle cx="164" cy="361.1821879542405" r="2.5" fill="rgba(0,0,0,0.35)" /><circle cx="159" cy="275.3981236192275" r="2.5" fill="rgba(0,0,0,0.35)" /><circle cx="184" cy="336.7004469414635" r="2.5" fill="rgba(0,0,0,0.35)" /><circle cx="174" cy="329.54656510097027" r="2.5" fill="rgba(0,0,0,0.35)" /><circle cx="159" cy="348.05394972559884" r="2.5" fill="rgba(0,0,0,0.35)" /><circle cx="186.5" cy="313.7374722551649" r="2.5" fill="rgba(0,0,0,0.35)" /><circle cx="159" cy="353.2394759889639" r="2.5" fill="rgba(0,0,0,0.35)" /><circle cx="154" cy="284.8949518594059" r="2.5" fill="rgba(0,0,0,0.35)" /><circle cx="181.5" cy="320.20110311935343" r="2.5" fill="rgba(0,0,0,0.35)" /><circle cx="174" cy="295.75886382480525" r="2.5" fill="rgba(0,0,0,0.35)" /><circle cx="151.5" cy="316.83988451921573" r="2.5" fill="rgba(0,0,0,0.35)" /><circle cx="171.5" cy="316.23108810353307" r="2.5" fill="rgba(0,0,0,0.35)" /><circle cx="136.5" cy="322.5905800662315" r="2.5" fill="rgba(0,0,0,0.35)" /><circle cx="164" cy="320.97767220275483" r="2.5" fill="rgba(0,0,0,0.35)" /><circle cx="159" cy="268.97675380339325" r="2.5" fill="rgba(0,0,0,0.35)" /><circle cx="164" cy="339.55849768385815" r="2.5" fill="rgba(0,0,0,0.35)" /><circle cx="159" cy="330.6483839474748" r="2.5" fill="rgba(0,0,0,0.35)" /><circle cx="129" cy="313.85207403506524" r="2.5" fill="rgba(0,0,0,0.35)" /><circle cx="154" cy="310.4031875560479" r="2.5" fill="rgba(0,0,0,0.35)" /><circle cx="161.5" cy="304.8083266020403" r="2.5" fill="rgba(0,0,0,0.35)" /><circle cx="159" cy="324.9246859870325" r="2.5" fill="rgba(0,0,0,0.35)" /><circle cx="186.5" cy="323.3038621197271" r="2.5" fill="rgba(0,0,0,0.35)" /><circle cx="179" cy="327.5299482403219" r="2.5" fill="rgba(0,0,0,0.35)" /><circle cx="164" cy="275.4915901090204" r="2.5" fill="rgba(0,0,0,0.35)" /><circle cx="146.5" cy="317.2625052736719" r="2.5" fill="rgba(0,0,0,0.35)" /><circle cx="149" cy="312.4444395362151" r="2.5" fill="rgba(0,0,0,0.35)" /><circle cx="144" cy="312.712221376614" r="2.5" fill="rgba(0,0,0,0.35)" /><circle cx="174" cy="334.8728953919219" r="2.5" fill="rgba(0,0,0,0.35)" /><circle cx="159" cy="372.69615856678024" r="2.5" fill="rgba(0,0,0,0.35)" /><circle cx="159" cy="393.26236535820584" r="2.5" fill="rgba(0,0,0,0.35)" /><circle cx="151.5" cy="297.36220862857976" r="2.5" fill="rgba(0,0,0,0.35)" /><circle cx="156.5" cy="315.2805657003735" r="2.5" fill="rgba(0,0,0,0.35)" /><circle cx="164" cy="326.28812890034925" r="2.5" fill="rgba(0,0,0,0.35)" /><circle cx="164" cy="374.31177386300624" r="2.5" fill="rgba(0,0,0,0.35)" /><circle cx="169" cy="327.0756734516659" r="2.5" fill="rgba(0,0,0,0.35)" /><circle cx="126.5" cy="324.2438091216648" r="2.5" fill="rgba(0,0,0,0.35)" /><circle cx="131.5" cy="349.9418287933925" r="2.5" fill="rgba(0,0,0,0.35)" /><circle cx="174" cy="348.2918523450872" r="2.5" fill="rgba(0,0,0,0.35)" /><circle cx="184" cy="328.1727939498197" r="2.5" fill="rgba(0,0,0,0.35)" /><circle cx="144" cy="348.6341640444157" r="2.5" fill="rgba(0,0,0,0.35)" /><circle cx="136.5" cy="336.5329820834001" r="2.5" fill="rgba(0,0,0,0.35)" /><circle cx="154" cy="326.32985046392355" r="2.5" fill="rgba(0,0,0,0.35)" /><circle cx="149" cy="291.8118474778897" r="2.5" fill="rgba(0,0,0,0.35)" /><circle cx="144" cy="342.9083192362599" r="2.5" fill="rgba(0,0,0,0.35)" /><circle cx="171.5" cy="306.75939539237766" r="2.5" fill="rgba(0,0,0,0.35)" /><circle cx="154" cy="290.9832628179663" r="2.5" fill="rgba(0,0,0,0.35)" /><circle cx="124" cy="314.05101241341026" r="2.5" fill="rgba(0,0,0,0.35)" /><circle cx="166.5" cy="303.7663082082786" r="2.5" fill="rgba(0,0,0,0.35)" /><circle cx="149" cy="341.1355130116084" r="2.5" fill="rgba(0,0,0,0.35)" /><circle cx="169" cy="321.14139132424503" r="2.5" fill="rgba(0,0,0,0.35)" /><circle cx="159" cy="360.8190099063836" r="2.5" fill="rgba(0,0,0,0.35)" /><circle cx="139" cy="327.555460198027" r="2.5" fill="rgba(0,0,0,0.35)" /><circle cx="141.5" cy="297.65162573070234" r="2.5" fill="rgba(0,0,0,0.35)" /><circle cx="189" cy="349.66391396670133" r="2.5" fill="rgba(0,0,0,0.35)" /><circle cx="149" cy="327.4680545146399" r="2.5" fill="rgba(0,0,0,0.35)" /><circle cx="134" cy="313.4471956760817" r="2.5" fill="rgba(0,0,0,0.35)" /><circle cx="141.5" cy="335.4751127053737" r="2.5" fill="rgba(0,0,0,0.35)" /><circle cx="164" cy="333.3007572930731" r="2.5" fill="rgba(0,0,0,0.35)" /><circle cx="154" cy="275.5593786606422" r="2.5" fill="rgba(0,0,0,0.35)" /><circle cx="154" cy="364.38777798152364" r="2.5" fill="rgba(0,0,0,0.35)" /><circle cx="164" cy="351.0704864747423" r="2.5" fill="rgba(0,0,0,0.35)" /><circle cx="166.5" cy="316.1973474552541" r="2.5" fill="rgba(0,0,0,0.35)" /><circle cx="154" cy="351.0826634474794" r="2.5" fill="rgba(0,0,0,0.35)" /><circle cx="179" cy="335.5017497532978" r="2.5" fill="rgba(0,0,0,0.35)" /><circle cx="164" cy="284.7073628308774" r="2.5" fill="rgba(0,0,0,0.35)" /><circle cx="159" cy="319.69628834962293" r="2.5" fill="rgba(0,0,0,0.35)" /><circle cx="154" cy="321.29628825023576" r="2.5" fill="rgba(0,0,0,0.35)" /><circle cx="169" cy="340.6246487042015" r="2.5" fill="rgba(0,0,0,0.35)" /><circle cx="134" cy="329.6144438804849" r="2.5" fill="rgba(0,0,0,0.35)" /><circle cx="169" cy="351.286587928736" r="2.5" fill="rgba(0,0,0,0.35)" /><circle cx="151.5" cy="306.0213858844711" r="2.5" fill="rgba(0,0,0,0.35)" /><circle cx="154" cy="339.9123790120623" r="2.5" fill="rgba(0,0,0,0.35)" /><circle cx="191.5" cy="314.00575076626313" r="2.5" fill="rgba(0,0,0,0.35)" /><circle cx="161.5" cy="314.70803912821793" r="2.5" fill="rgba(0,0,0,0.35)" /><circle cx="159" cy="282.7228871667385" r="2.5" fill="rgba(0,0,0,0.35)" /><circle cx="166.5" cy="289.3865852643652" r="2.5" fill="rgba(0,0,0,0.35)" /><circle cx="159" cy="341.2853356733843" r="2.5" fill="rgba(0,0,0,0.35)" /><circle cx="139" cy="343.81414827210324" r="2.5" fill="rgba(0,0,0,0.35)" /><circle cx="146.5" cy="297.4082908693215" r="2.5" fill="rgba(0,0,0,0.35)" /><circle cx="159" cy="382.24725616692626" r="2.5" fill="rgba(0,0,0,0.35)" /><circle cx="131.5" cy="324.1406063570031" r="2.5" fill="rgba(0,0,0,0.35)" /><circle cx="139" cy="313.12184283054273" r="2.5" fill="rgba(0,0,0,0.35)" /><circle cx="144" cy="331.0550072120567" r="2.5" fill="rgba(0,0,0,0.35)" /><circle cx="156.5" cy="295.3693843798866" r="2.5" fill="rgba(0,0,0,0.35)" /><circle cx="179" cy="343.41940787458446" r="2.5" fill="rgba(0,0,0,0.35)" /><circle cx="164" cy="310.295651620116" r="2.5" fill="rgba(0,0,0,0.35)" /><circle cx="154" cy="333.5728961309886" r="2.5" fill="rgba(0,0,0,0.35)" /><circle cx="169" cy="346.0362687387295" r="2.5" fill="rgba(0,0,0,0.35)" /><circle cx="174" cy="342.309607604433" r="2.5" fill="rgba(0,0,0,0.35)" /><circle cx="149" cy="322.095326947901" r="2.5" fill="rgba(0,0,0,0.35)" /><circle cx="179" cy="349.53662315514316" r="2.5" fill="rgba(0,0,0,0.35)" /><circle cx="174" cy="323.8385954076631" r="2.5" fill="rgba(0,0,0,0.35)" /><circle cx="144" cy="324.9817579457067" r="2.5" fill="rgba(0,0,0,0.35)" /><circle cx="134" cy="345.42801323650093" r="2.5" fill="rgba(0,0,0,0.35)" /><circle cx="196.5" cy="328.38984138062165" r="2.5" fill="rgba(0,0,0,0.35)" /><circle cx="161.5" cy="293.41086401864436" r="2.5" fill="rgba(0,0,0,0.35)" /><circle cx="169" cy="294.2776845690089" r="2.5" fill="rgba(0,0,0,0.35)" /><circle cx="159" cy="336.2142331021805" r="2.5" fill="rgba(0,0,0,0.35)" /><circle cx="169" cy="311.1058395576084" r="2.5" fill="rgba(0,0,0,0.35)" /><circle cx="159" cy="309.72483515206795" r="2.5" fill="rgba(0,0,0,0.35)" /><circle cx="374" cy="359.2724279251545" r="2.5" fill="rgba(0,0,0,0.35)" /><circle cx="336.5" cy="378.20180946636543" r="2.5" fill="rgba(0,0,0,0.35)" /><circle cx="351.5" cy="374.4186386842631" r="2.5" fill="rgba(0,0,0,0.35)" /><circle cx="354" cy="390.85858337926686" r="2.5" fill="rgba(0,0,0,0.35)" /><circle cx="354" cy="379.6559341686031" r="2.5" fill="rgba(0,0,0,0.35)" /><circle cx="359" cy="356.29228295427663" r="2.5" fill="rgba(0,0,0,0.35)" /><circle cx="374" cy="386.5312888143694" r="2.5" fill="rgba(0,0,0,0.35)" /><circle cx="349" cy="358.7510690285751" r="2.5" fill="rgba(0,0,0,0.35)" /><circle cx="374" cy="381.25400302848027" r="2.5" fill="rgba(0,0,0,0.35)" /><circle cx="369" cy="355.72645111892086" r="2.5" fill="rgba(0,0,0,0.35)" /><circle cx="364" cy="379.14525657100637" r="2.5" fill="rgba(0,0,0,0.35)" /><circle cx="364" cy="374.0875293922706" r="2.5" fill="rgba(0,0,0,0.35)" /><circle cx="366.5" cy="367.8127984460964" r="2.5" fill="rgba(0,0,0,0.35)" /><circle cx="356.5" cy="367.1654341132086" r="2.5" fill="rgba(0,0,0,0.35)" /><circle cx="359" cy="351.2856690215774" r="2.5" fill="rgba(0,0,0,0.35)" /><circle cx="344" cy="381.62595958970974" r="2.5" fill="rgba(0,0,0,0.35)" /><circle cx="346.5" cy="375.3730122411082" r="2.5" fill="rgba(0,0,0,0.35)" /><circle cx="354" cy="385.32776039207783" r="2.5" fill="rgba(0,0,0,0.35)" /><circle cx="369" cy="391.0408740376148" r="2.5" fill="rgba(0,0,0,0.35)" /><circle cx="369" cy="400.6418487401331" r="2.5" fill="rgba(0,0,0,0.35)" /><circle cx="341.5" cy="376.15257547416496" r="2.5" fill="rgba(0,0,0,0.35)" /><circle cx="374" cy="375.94090317621317" r="2.5" fill="rgba(0,0,0,0.35)" /><circle cx="369" cy="375.0338495048609" r="2.5" fill="rgba(0,0,0,0.35)" /><circle cx="359" cy="334.4013201699758" r="2.5" fill="rgba(0,0,0,0.35)" /><circle cx="349" cy="400.8178557210212" r="2.5" fill="rgba(0,0,0,0.35)" /><circle cx="359" cy="383.31104762021715" r="2.5" fill="rgba(0,0,0,0.35)" /><circle cx="349" cy="391.9768253097743" r="2.5" fill="rgba(0,0,0,0.35)" /><circle cx="359" cy="405.00734968007527" r="2.5" fill="rgba(0,0,0,0.35)" /><circle cx="384" cy="385.7423575968497" r="2.5" fill="rgba(0,0,0,0.35)" /><circle cx="379" cy="359.7744356754327" r="2.5" fill="rgba(0,0,0,0.35)" /><circle cx="349" cy="385.7330180008588" r="2.5" fill="rgba(0,0,0,0.35)" /><circle cx="349" cy="380.6697545637609" r="2.5" fill="rgba(0,0,0,0.35)" /><circle cx="379" cy="376.2756142815427" r="2.5" fill="rgba(0,0,0,0.35)" /><circle cx="369" cy="362.6137867723556" r="2.5" fill="rgba(0,0,0,0.35)" /><circle cx="359" cy="396.55103933464886" r="2.5" fill="rgba(0,0,0,0.35)" /><circle cx="356.5" cy="360.7593291939162" r="2.5" fill="rgba(0,0,0,0.35)" /><circle cx="344" cy="359.4093991230227" r="2.5" fill="rgba(0,0,0,0.35)" /><circle cx="354" cy="400.5898424911424" r="2.5" fill="rgba(0,0,0,0.35)" /><circle cx="361.5" cy="369.2726447751113" r="2.5" fill="rgba(0,0,0,0.35)" /><circle cx="374" cy="393.8377092605183" r="2.5" fill="rgba(0,0,0,0.35)" /><circle cx="359" cy="377.73867662970065" r="2.5" fill="rgba(0,0,0,0.35)" /><circle cx="359" cy="389.0382055617405" r="2.5" fill="rgba(0,0,0,0.35)" /><circle cx="359" cy="414.53596751671387" r="2.5" fill="rgba(0,0,0,0.35)" /><circle cx="354" cy="355.3264943313099" r="2.5" fill="rgba(0,0,0,0.35)" /><circle cx="379" cy="382.5419479352646" r="2.5" fill="rgba(0,0,0,0.35)" /><circle cx="351.5" cy="364.79266379675187" r="2.5" fill="rgba(0,0,0,0.35)" /><circle cx="364" cy="390.7895970188077" r="2.5" fill="rgba(0,0,0,0.35)" /><circle cx="369" cy="380.1543428073902" r="2.5" fill="rgba(0,0,0,0.35)" /><circle cx="364" cy="358.4638672189635" r="2.5" fill="rgba(0,0,0,0.35)" /><circle cx="339" cy="383.7350886325411" r="2.5" fill="rgba(0,0,0,0.35)" /><circle cx="364" cy="353.2084642671266" r="2.5" fill="rgba(0,0,0,0.35)" /><circle cx="344" cy="386.90408778692614" r="2.5" fill="rgba(0,0,0,0.35)" /><circle cx="364" cy="398.3018118250454" r="2.5" fill="rgba(0,0,0,0.35)" /><circle cx="379" cy="388.0832330465786" r="2.5" fill="rgba(0,0,0,0.35)" /><circle cx="371.5" cy="368.5437644947003" r="2.5" fill="rgba(0,0,0,0.35)" /><circle cx="369" cy="385.48940524353134" r="2.5" fill="rgba(0,0,0,0.35)" /><circle cx="361.5" cy="363.95498869518565" r="2.5" fill="rgba(0,0,0,0.35)" /><circle cx="346.5" cy="365.65178849852566" r="2.5" fill="rgba(0,0,0,0.35)" /><circle cx="364" cy="385.2070749794144" r="2.5" fill="rgba(0,0,0,0.35)" /><circle cx="356.5" cy="372.2505898245744" r="2.5" fill="rgba(0,0,0,0.35)" /><circle cx="374" cy="246.7724279251545" r="2.5" fill="rgba(0,0,0,0.35)" /><circle cx="336.5" cy="265.7018094663655" r="2.5" fill="rgba(0,0,0,0.35)" /><circle cx="351.5" cy="261.9186386842631" r="2.5" fill="rgba(0,0,0,0.35)" /><circle cx="354" cy="278.35858337926686" r="2.5" fill="rgba(0,0,0,0.35)" /><circle cx="354" cy="267.1559341686031" r="2.5" fill="rgba(0,0,0,0.35)" /><circle cx="359" cy="243.7922829542766" r="2.5" fill="rgba(0,0,0,0.35)" /><circle cx="374" cy="274.0312888143694" r="2.5" fill="rgba(0,0,0,0.35)" /><circle cx="349" cy="246.25106902857507" r="2.5" fill="rgba(0,0,0,0.35)" /><circle cx="374" cy="268.75400302848027" r="2.5" fill="rgba(0,0,0,0.35)" /><circle cx="369" cy="243.2264511189209" r="2.5" fill="rgba(0,0,0,0.35)" /><circle cx="364" cy="266.64525657100637" r="2.5" fill="rgba(0,0,0,0.35)" /><circle cx="364" cy="261.58752939227065" r="2.5" fill="rgba(0,0,0,0.35)" /><circle cx="366.5" cy="255.3127984460964" r="2.5" fill="rgba(0,0,0,0.35)" /><circle cx="356.5" cy="254.66543411320862" r="2.5" fill="rgba(0,0,0,0.35)" /><circle cx="359" cy="238.78566902157743" r="2.5" fill="rgba(0,0,0,0.35)" /><circle cx="344" cy="269.12595958970974" r="2.5" fill="rgba(0,0,0,0.35)" /><circle cx="346.5" cy="262.8730122411082" r="2.5" fill="rgba(0,0,0,0.35)" /><circle cx="354" cy="272.82776039207783" r="2.5" fill="rgba(0,0,0,0.35)" /><circle cx="369" cy="278.5408740376148" r="2.5" fill="rgba(0,0,0,0.35)" /><circle cx="369" cy="288.14184874013307" r="2.5" fill="rgba(0,0,0,0.35)" /><circle cx="341.5" cy="263.65257547416496" r="2.5" fill="rgba(0,0,0,0.35)" /><circle cx="374" cy="263.44090317621317" r="2.5" fill="rgba(0,0,0,0.35)" /><circle cx="369" cy="262.5338495048609" r="2.5" fill="rgba(0,0,0,0.35)" /><circle cx="359" cy="221.90132016997586" r="2.5" fill="rgba(0,0,0,0.35)" /><circle cx="349" cy="288.3178557210212" r="2.5" fill="rgba(0,0,0,0.35)" /><circle cx="359" cy="270.81104762021715" r="2.5" fill="rgba(0,0,0,0.35)" /><circle cx="349" cy="279.4768253097743" r="2.5" fill="rgba(0,0,0,0.35)" /><circle cx="359" cy="292.5073496800753" r="2.5" fill="rgba(0,0,0,0.35)" /><circle cx="384" cy="273.2423575968496" r="2.5" fill="rgba(0,0,0,0.35)" /><circle cx="379" cy="247.2744356754327" r="2.5" fill="rgba(0,0,0,0.35)" /><circle cx="349" cy="273.2330180008588" r="2.5" fill="rgba(0,0,0,0.35)" /><circle cx="349" cy="268.1697545637609" r="2.5" fill="rgba(0,0,0,0.35)" /><circle cx="379" cy="263.7756142815427" r="2.5" fill="rgba(0,0,0,0.35)" /><circle cx="369" cy="250.11378677235555" r="2.5" fill="rgba(0,0,0,0.35)" /><circle cx="359" cy="284.05103933464886" r="2.5" fill="rgba(0,0,0,0.35)" /><circle cx="356.5" cy="248.25932919391616" r="2.5" fill="rgba(0,0,0,0.35)" /><circle cx="344" cy="246.90939912302267" r="2.5" fill="rgba(0,0,0,0.35)" /><circle cx="354" cy="288.0898424911424" r="2.5" fill="rgba(0,0,0,0.35)" /><circle cx="361.5" cy="256.7726447751113" r="2.5" fill="rgba(0,0,0,0.35)" /><circle cx="374" cy="281.3377092605183" r="2.5" fill="rgba(0,0,0,0.35)" /><circle cx="359" cy="265.23867662970065" r="2.5" fill="rgba(0,0,0,0.35)" /><circle cx="359" cy="276.5382055617405" r="2.5" fill="rgba(0,0,0,0.35)" /><circle cx="359" cy="302.03596751671387" r="2.5" fill="rgba(0,0,0,0.35)" /><circle cx="354" cy="242.8264943313099" r="2.5" fill="rgba(0,0,0,0.35)" /><circle cx="379" cy="270.0419479352646" r="2.5" fill="rgba(0,0,0,0.35)" /><circle cx="351.5" cy="252.2926637967519" r="2.5" fill="rgba(0,0,0,0.35)" /><circle cx="364" cy="278.28959701880774" r="2.5" fill="rgba(0,0,0,0.35)" /><circle cx="369" cy="267.6543428073902" r="2.5" fill="rgba(0,0,0,0.35)" /><circle cx="364" cy="245.96386721896351" r="2.5" fill="rgba(0,0,0,0.35)" /><circle cx="339" cy="271.2350886325411" r="2.5" fill="rgba(0,0,0,0.35)" /><circle cx="364" cy="240.7084642671266" r="2.5" fill="rgba(0,0,0,0.35)" /><circle cx="344" cy="274.4040877869261" r="2.5" fill="rgba(0,0,0,0.35)" /><circle cx="364" cy="285.8018118250453" r="2.5" fill="rgba(0,0,0,0.35)" /><circle cx="379" cy="275.5832330465786" r="2.5" fill="rgba(0,0,0,0.35)" /><circle cx="371.5" cy="256.0437644947003" r="2.5" fill="rgba(0,0,0,0.35)" /><circle cx="369" cy="272.98940524353134" r="2.5" fill="rgba(0,0,0,0.35)" /><circle cx="361.5" cy="251.4549886951856" r="2.5" fill="rgba(0,0,0,0.35)" /><circle cx="346.5" cy="253.15178849852566" r="2.5" fill="rgba(0,0,0,0.35)" /><circle cx="364" cy="272.7070749794144" r="2.5" fill="rgba(0,0,0,0.35)" /><circle cx="356.5" cy="259.7505898245744" r="2.5" fill="rgba(0,0,0,0.35)" /><circle cx="524" cy="317.30490319169667" r="2.5" fill="rgba(0,0,0,0.35)" /><circle cx="551.5" cy="244.52043702012895" r="2.5" fill="rgba(0,0,0,0.35)" /><circle cx="559" cy="283.4217259459883" r="2.5" fill="rgba(0,0,0,0.35)" /><circle cx="561.5" cy="237.2440149029855" r="2.5" fill="rgba(0,0,0,0.35)" /><circle cx="569" cy="266.73468879205143" r="2.5" fill="rgba(0,0,0,0.35)" /><circle cx="534" cy="315.6293631437427" r="2.5" fill="rgba(0,0,0,0.35)" /><circle cx="526.5" cy="305.21291924040736" r="2.5" fill="rgba(0,0,0,0.35)" /><circle cx="564" cy="292.58618309263926" r="2.5" fill="rgba(0,0,0,0.35)" /><circle cx="554" cy="255.12648782395198" r="2.5" fill="rgba(0,0,0,0.35)" /><circle cx="561.5" cy="319.17529825049303" r="2.5" fill="rgba(0,0,0,0.35)" /><circle cx="589" cy="304.4246831396864" r="2.5" fill="rgba(0,0,0,0.35)" /><circle cx="559" cy="314.63579755307643" r="2.5" fill="rgba(0,0,0,0.35)" /><circle cx="554" cy="317.8969299623941" r="2.5" fill="rgba(0,0,0,0.35)" /><circle cx="564" cy="312.6933775684053" r="2.5" fill="rgba(0,0,0,0.35)" /><circle cx="519" cy="321.31741185739236" r="2.5" fill="rgba(0,0,0,0.35)" /><circle cx="564" cy="297.84684705178887" r="2.5" fill="rgba(0,0,0,0.35)" /><circle cx="554" cy="286.96315805303493" r="2.5" fill="rgba(0,0,0,0.35)" /><circle cx="554" cy="279.83966173541717" r="2.5" fill="rgba(0,0,0,0.35)" /><circle cx="549" cy="295.21404760132987" r="2.5" fill="rgba(0,0,0,0.35)" /><circle cx="584" cy="303.9228257528526" r="2.5" fill="rgba(0,0,0,0.35)" /><circle cx="549" cy="269.27109006607435" r="2.5" fill="rgba(0,0,0,0.35)" /><circle cx="544" cy="313.9047242806968" r="2.5" fill="rgba(0,0,0,0.35)" /><circle cx="589" cy="315.9923141687477" r="2.5" fill="rgba(0,0,0,0.35)" /><circle cx="606.5" cy="316.2788246103755" r="2.5" fill="rgba(0,0,0,0.35)" /><circle cx="559" cy="191.54452531185837" r="2.5" fill="rgba(0,0,0,0.35)" /><circle cx="551.5" cy="301.7002560609743" r="2.5" fill="rgba(0,0,0,0.35)" /><circle cx="559" cy="263.9099579240558" r="2.5" fill="rgba(0,0,0,0.35)" /><circle cx="559" cy="232.47009364120282" r="2.5" fill="rgba(0,0,0,0.35)" /><circle cx="576.5" cy="318.52722258641137" r="2.5" fill="rgba(0,0,0,0.35)" /><circle cx="559" cy="295.2104905874155" r="2.5" fill="rgba(0,0,0,0.35)" /><circle cx="561.5" cy="105.98087705429367" r="2.5" fill="rgba(0,0,0,0.35)" /><circle cx="564" cy="242.04207650254295" r="2.5" fill="rgba(0,0,0,0.35)" /><circle cx="569" cy="308.01788057674844" r="2.5" fill="rgba(0,0,0,0.35)" /><circle cx="569" cy="256.084495966778" r="2.5" fill="rgba(0,0,0,0.35)" /><circle cx="504" cy="318.70167735266494" r="2.5" fill="rgba(0,0,0,0.35)" /><circle cx="601.5" cy="316.26959682013825" r="2.5" fill="rgba(0,0,0,0.35)" /><circle cx="544" cy="308.2572213656507" r="2.5" fill="rgba(0,0,0,0.35)" /><circle cx="559" cy="309.6215808214881" r="2.5" fill="rgba(0,0,0,0.35)" /><circle cx="554" cy="221.12001851457768" r="2.5" fill="rgba(0,0,0,0.35)" /><circle cx="514" cy="316.26965332146733" r="2.5" fill="rgba(0,0,0,0.35)" /><circle cx="556.5" cy="300.08201241562296" r="2.5" fill="rgba(0,0,0,0.35)" /><circle cx="551.5" cy="322.86701311762727" r="2.5" fill="rgba(0,0,0,0.35)" /><circle cx="566.5" cy="317.3666734997896" r="2.5" fill="rgba(0,0,0,0.35)" /><circle cx="564" cy="254.168518041213" r="2.5" fill="rgba(0,0,0,0.35)" /><circle cx="581.5" cy="308.95553005834574" r="2.5" fill="rgba(0,0,0,0.35)" /><circle cx="556.5" cy="240.71489866474423" r="2.5" fill="rgba(0,0,0,0.35)" /><circle cx="559" cy="251.68121499736446" r="2.5" fill="rgba(0,0,0,0.35)" /><circle cx="549" cy="289.34916842834" r="2.5" fill="rgba(0,0,0,0.35)" /><circle cx="566.5" cy="322.64863895724136" r="2.5" fill="rgba(0,0,0,0.35)" /><circle cx="554" cy="265.89011420150484" r="2.5" fill="rgba(0,0,0,0.35)" /><circle cx="559" cy="288.5863008595831" r="2.5" fill="rgba(0,0,0,0.35)" /><circle cx="579" cy="313.9580581831767" r="2.5" fill="rgba(0,0,0,0.35)" /><circle cx="519" cy="316.1266813785096" r="2.5" fill="rgba(0,0,0,0.35)" /><circle cx="584" cy="315.40697108444306" r="2.5" fill="rgba(0,0,0,0.35)" /><circle cx="569" cy="313.03480095726275" r="2.5" fill="rgba(0,0,0,0.35)" /><circle cx="541.5" cy="318.575210668949" r="2.5" fill="rgba(0,0,0,0.35)" /><circle cx="561.5" cy="302.5600068379133" r="2.5" fill="rgba(0,0,0,0.35)" /><circle cx="611.5" cy="316.54134878435195" r="2.5" fill="rgba(0,0,0,0.35)" /><circle cx="531.5" cy="304.1606965843098" r="2.5" fill="rgba(0,0,0,0.35)" /><circle cx="564" cy="307.32777524933124" r="2.5" fill="rgba(0,0,0,0.35)" /><circle cx="564" cy="285.37953159524045" r="2.5" fill="rgba(0,0,0,0.35)" /><circle cx="579" cy="303.7378181608939" r="2.5" fill="rgba(0,0,0,0.35)" /><circle cx="604" cy="321.3705166797615" r="2.5" fill="rgba(0,0,0,0.35)" /><circle cx="551.5" cy="307.8531493850046" r="2.5" fill="rgba(0,0,0,0.35)" /><circle cx="594" cy="319.3548153789929" r="2.5" fill="rgba(0,0,0,0.35)" /><circle cx="524" cy="311.8048653265826" r="2.5" fill="rgba(0,0,0,0.35)" /><circle cx="571.5" cy="317.91781047569634" r="2.5" fill="rgba(0,0,0,0.35)" /><circle cx="549" cy="280.12519229650763" r="2.5" fill="rgba(0,0,0,0.35)" /><circle cx="544" cy="273.1527939670988" r="2.5" fill="rgba(0,0,0,0.35)" /><circle cx="531.5" cy="321.06873145315694" r="2.5" fill="rgba(0,0,0,0.35)" /><circle cx="564" cy="278.5136818268036" r="2.5" fill="rgba(0,0,0,0.35)" /><circle cx="554" cy="292.8137483601707" r="2.5" fill="rgba(0,0,0,0.35)" /><circle cx="586.5" cy="320.9842570118284" r="2.5" fill="rgba(0,0,0,0.35)" /><circle cx="561.5" cy="268.45218115320984" r="2.5" fill="rgba(0,0,0,0.35)" /><circle cx="559" cy="150.4736431492596" r="2.5" fill="rgba(0,0,0,0.35)" /><circle cx="536.5" cy="320.56465036564384" r="2.5" fill="rgba(0,0,0,0.35)" /><circle cx="559" cy="101.59704614291314" r="2.5" fill="rgba(0,0,0,0.35)" /><circle cx="596.5" cy="314.3905591751445" r="2.5" fill="rgba(0,0,0,0.35)" /><circle cx="556.5" cy="305.1732123021269" r="2.5" fill="rgba(0,0,0,0.35)" /><circle cx="599" cy="321.13439441532233" r="2.5" fill="rgba(0,0,0,0.35)" /><circle cx="526.5" cy="321.84468257529693" r="2.5" fill="rgba(0,0,0,0.35)" /><circle cx="574" cy="296.23716438590174" r="2.5" fill="rgba(0,0,0,0.35)" /><circle cx="559" cy="245.68296386181973" r="2.5" fill="rgba(0,0,0,0.35)" /><circle cx="546.5" cy="303.43773389965986" r="2.5" fill="rgba(0,0,0,0.35)" /><circle cx="574" cy="280.43655645634976" r="2.5" fill="rgba(0,0,0,0.35)" /><circle cx="529" cy="310.7358020761869" r="2.5" fill="rgba(0,0,0,0.35)" /><circle cx="559" cy="277.3200004691213" r="2.5" fill="rgba(0,0,0,0.35)" /><circle cx="581.5" cy="320.54058806513865" r="2.5" fill="rgba(0,0,0,0.35)" /><circle cx="544" cy="296.66849418871226" r="2.5" fill="rgba(0,0,0,0.35)" /><circle cx="556.5" cy="271.10768998159233" r="2.5" fill="rgba(0,0,0,0.35)" /><circle cx="594" cy="305.985518517482" r="2.5" fill="rgba(0,0,0,0.35)" /><circle cx="556.5" cy="322.406401745184" r="2.5" fill="rgba(0,0,0,0.35)" /><circle cx="541.5" cy="303.61397089341824" r="2.5" fill="rgba(0,0,0,0.35)" /><circle cx="564" cy="263.9500095112521" r="2.5" fill="rgba(0,0,0,0.35)" /><circle cx="576.5" cy="308.35053204111114" r="2.5" fill="rgba(0,0,0,0.35)" /><circle cx="554" cy="312.84468847417895" r="2.5" fill="rgba(0,0,0,0.35)" /><circle cx="549" cy="318.4666721321701" r="2.5" fill="rgba(0,0,0,0.35)" /><circle cx="579" cy="296.68359327312186" r="2.5" fill="rgba(0,0,0,0.35)" /><circle cx="574" cy="313.455492885941" r="2.5" fill="rgba(0,0,0,0.35)" /><circle cx="514" cy="321.9765231782042" r="2.5" fill="rgba(0,0,0,0.35)" /><circle cx="569" cy="301.89586870932226" r="2.5" fill="rgba(0,0,0,0.35)" /><circle cx="564" cy="220.48006742366715" r="2.5" fill="rgba(0,0,0,0.35)" /><circle cx="569" cy="279.9034796944386" r="2.5" fill="rgba(0,0,0,0.35)" /><circle cx="591.5" cy="310.962643833278" r="2.5" fill="rgba(0,0,0,0.35)" /><circle cx="559" cy="217.23622460472654" r="2.5" fill="rgba(0,0,0,0.35)" /><circle cx="544" cy="290.0125637289442" r="2.5" fill="rgba(0,0,0,0.35)" /><circle cx="566.5" cy="272.57464266923535" r="2.5" fill="rgba(0,0,0,0.35)" /><circle cx="549" cy="313.40369714279353" r="2.5" fill="rgba(0,0,0,0.35)" /><circle cx="509" cy="316.39458430675256" r="2.5" fill="rgba(0,0,0,0.35)" /><circle cx="529" cy="316.0433370385897" r="2.5" fill="rgba(0,0,0,0.35)" /><circle cx="539" cy="314.0524323562855" r="2.5" fill="rgba(0,0,0,0.35)" /><circle cx="574" cy="289.477472378611" r="2.5" fill="rgba(0,0,0,0.35)" /><circle cx="586.5" cy="310.5097488990119" r="2.5" fill="rgba(0,0,0,0.35)" /><circle cx="536.5" cy="303.83076450316344" r="2.5" fill="rgba(0,0,0,0.35)" /><circle cx="574" cy="269.4832088107245" r="2.5" fill="rgba(0,0,0,0.35)" /><circle cx="569" cy="293.1186103246708" r="2.5" fill="rgba(0,0,0,0.35)" /><circle cx="574" cy="303.5745796474844" r="2.5" fill="rgba(0,0,0,0.35)" /><circle cx="569" cy="287.3447636012812" r="2.5" fill="rgba(0,0,0,0.35)" /><circle cx="539" cy="308.3743347581861" r="2.5" fill="rgba(0,0,0,0.35)" /><circle cx="534" cy="310.27770974803866" r="2.5" fill="rgba(0,0,0,0.35)" /></svg>