<svg xmlns="http://www.w3.org/2000/svg" width="677.8000000000001" height="545" font-family="DejaVu Sans, Liberation Sans, Arial, sans-serif" fill="black"><rect width="100%" height="100%" fill="white" /><defs><clipPath id="kuva-clip-4"><rect x="63.800000000000004" y="44" width="600" height="450"/></clipPath></defs><line x1="63.800000000000004" y1="429.71000000000004" x2="663.8000000000001" y2="429.71000000000004" stroke="#cccccc" stroke-width="1" /><line x1="63.800000000000004" y1="301.14" x2="663.8000000000001" y2="301.14" stroke="#cccccc" stroke-width="1" /><line x1="63.800000000000004" y1="172.57" x2="663.8000000000001" y2="172.57" stroke="#cccccc" stroke-width="1" /><line x1="63.800000000000004" y1="44" x2="663.8000000000001" y2="44" stroke="#cccccc" stroke-width="1" /><line x1="63.800000000000004" y1="494" x2="663.8000000000001" y2="494" stroke="#000000" stroke-width="1" /><line x1="63.800000000000004" y1="44" x2="63.800000000000004" y2="494" stroke="#000000" stroke-width="1" /><text x="163.8" y="511" font-size="12" text-anchor="middle">Normal</text><line x1="163.8" y1="494" x2="163.8" y2="499" stroke="#000000" stroke-width="1" /><text x="363.8" y="511" font-size="12" text-anchor="middle">Bimodal</text><line x1="363.8" y1="494" x2="363.8" y2="499" stroke="#000000" stroke-width="1" /><text x="563.8000000000001" y="511" font-size="12" text-anchor="middle">Skewed</text><line x1="563.8000000000001" y1="494" x2="563.8000000000001" y2="499" stroke="#000000" stroke-width="1" /><line x1="58.800000000000004" y1="429.71000000000004" x2="63.800000000000004" y2="429.71000000000004" stroke="#000000" stroke-width="1" /><text x="55.800000000000004" y="433.91" font-size="12" text-anchor="end">-5</text><line x1="58.800000000000004" y1="301.14" x2="63.800000000000004" y2="301.14" stroke="#000000" stroke-width="1" /><text x="55.800000000000004" y="305.34000000000003" font-size="12" text-anchor="end">0</text><line x1="58.800000000000004" y1="172.57" x2="63.800000000000004" y2="172.57" stroke="#000000" stroke-width="1" /><text x="55.800000000000004" y="176.77" font-size="12" text-anchor="end">5</text><line x1="58.800000000000004" y1="44" x2="63.800000000000004" y2="44" stroke="#000000" stroke-width="1" /><text x="55.800000000000004" y="48.2" font-size="12" text-anchor="end">10</text><text x="15" y="269" font-size="14" text-anchor="middle" transform="rotate(-90,15,269)">Value</text><text x="363.8" y="27.400000000000002" font-size="18" text-anchor="middle">Violin + Swarm Overlay</text><g clip-path="url(#kuva-clip-4)"><path d="M 163.78 387.11 L 163.77 386.19 L 163.75 385.26 L 163.73 384.34000000000003 L 163.71 383.42 L 163.68 382.49 L 163.63 381.57 L 163.58 380.65000000000003 L 163.52 379.72 L 163.43 378.8 L 163.34 377.88 L 163.22 376.95 L 163.09 376.03000000000003 L 162.94 375.11 L 162.77 374.18 L 162.58 373.26 L 162.38 372.34000000000003 L 162.16 371.41 L 161.93 370.49 L 161.69 369.57 L 161.43 368.64 L 161.16 367.72 L 160.88 366.8 L 160.58 365.87 L 160.27 364.95 L 159.93 364.03000000000003 L 159.57 363.1 L 159.18 362.18 L 158.77 361.26 L 158.32 360.33 L 157.84 359.41 L 157.33 358.49 L 156.81 357.56 L 156.27 356.64 L 155.72 355.72 L 155.18 354.79 L 154.66 353.87 L 154.17000000000002 352.95 L 153.73 352.02 L 153.33 351.1 L 152.99 350.18 L 152.71 349.25 L 152.48 348.33 L 152.29 347.41 L 152.14000000000001 346.48 L 151.99 345.56 L 151.84 344.64 L 151.65 343.71 L 151.39000000000001 342.79 L 151.05 341.87 L 150.58 340.94 L 149.96 340.02 L 149.16 339.1 L 148.15 338.17 L 146.92000000000002 337.25 L 145.45000000000002 336.33 L 143.72 335.40000000000003 L 141.73 334.48 L 139.49 333.56 L 137.02 332.63 L 134.33 331.71 L 131.48 330.79 L 128.5 329.86 L 125.44 328.94 L 122.36 328.02 L 119.32000000000001 327.09000000000003 L 116.37 326.17 L 113.58 325.25 L 110.98 324.33 L 108.60000000000001 323.40000000000003 L 106.48 322.48 L 104.61 321.56 L 103.0 320.63 L 101.62 319.71 L 100.44 318.79 L 99.44 317.86 L 98.56 316.94 L 97.77 316.02 L 97.02 315.09000000000003 L 96.27 314.17 L 95.5 313.25 L 94.67 312.32 L 93.79 311.40000000000003 L 92.84 310.48 L 91.82000000000001 309.55 L 90.77 308.63 L 89.69 307.71 L 88.61 306.78000000000003 L 87.57000000000001 305.86 L 86.59 304.94 L 85.71000000000001 304.01 L 84.97 303.09000000000003 L 84.39 302.17 L 83.99 301.24 L 83.8 300.32 L 83.84 299.40000000000003 L 84.13 298.47 L 84.67 297.55 L 85.48 296.63 L 86.57000000000001 295.7 L 87.91 294.78000000000003 L 89.52 293.86 L 91.38 292.93 L 93.46000000000001 292.01 L 95.75 291.09000000000003 L 98.19 290.16 L 100.76 289.24 L 103.41 288.32 L 106.08 287.39 L 108.73 286.47 L 111.32000000000001 285.55 L 113.79 284.62 L 116.13 283.7 L 118.3 282.78000000000003 L 120.29 281.85 L 122.10000000000001 280.93 L 123.72 280.01 L 125.19 279.08 L 126.52 278.16 L 127.73 277.24 L 128.85 276.31 L 129.91 275.39 L 130.94 274.47 L 131.95 273.54 L 132.96 272.62 L 133.98 271.7 L 135.01 270.77 L 136.05 269.85 L 137.1 268.93 L 138.14000000000001 268.0 L 139.18 267.08 L 140.20000000000002 266.16 L 141.19 265.23 L 142.16 264.31 L 143.1 263.39 L 144.02 262.46 L 144.91 261.54 L 145.8 260.62 L 146.68 259.69 L 147.56 258.77 L 148.45000000000002 257.85 L 149.35 256.92 L 150.28 256.0 L 151.22 255.08 L 152.18 254.15 L 153.14000000000001 253.23000000000002 L 154.1 252.31 L 155.06 251.38 L 155.99 250.46 L 156.89000000000001 249.54 L 157.74 248.61 L 158.55 247.69 L 159.29 246.77 L 159.96 245.84 L 160.56 244.92000000000002 L 161.08 244.0 L 161.53 243.07 L 161.91 242.15 L 162.21 241.23000000000002 L 162.45000000000002 240.3 L 162.62 239.38 L 162.73 238.46 L 162.8 237.53 L 162.81 236.61 L 162.78 235.69 L 162.72 234.77 L 162.63 233.84 L 162.52 232.92000000000002 L 162.4 232.0 L 162.27 231.07 L 162.14000000000001 230.15 L 162.03 229.23000000000002 L 161.93 228.3 L 161.85 227.38 L 161.8 226.46 L 161.78 225.53 L 161.79 224.61 L 161.83 223.69 L 161.9 222.76 L 162.0 221.84 L 162.12 220.92000000000002 L 162.26 219.99 L 162.4 219.07 L 162.56 218.15 L 162.71 217.22 L 162.86 216.3 L 163.0 215.38 L 163.13 214.45000000000002 L 163.25 213.53 L 163.36 212.61 L 163.45000000000002 211.68 L 163.52 210.76 L 163.59 209.84 L 163.64000000000001 208.91 L 163.68 207.99 L 163.71 207.07 L 163.74 206.14000000000001 L 163.75 205.22 L 163.77 204.3 L 163.78 203.37 L 163.82 203.37 L 163.83 204.3 L 163.85 205.22 L 163.86 206.14000000000001 L 163.89000000000001 207.07 L 163.92000000000002 207.99 L 163.96 208.91 L 164.01 209.84 L 164.08 210.76 L 164.15 211.68 L 164.24 212.61 L 164.35 213.53 L 164.47 214.45000000000002 L 164.6 215.38 L 164.74 216.3 L 164.89000000000001 217.22 L 165.04 218.15 L 165.20000000000002 219.07 L 165.34 219.99 L 165.48 220.92000000000002 L 165.6 221.84 L 165.70000000000002 222.76 L 165.77 223.69 L 165.81 224.61 L 165.82 225.53 L 165.8 226.46 L 165.75 227.38 L 165.67000000000002 228.3 L 165.57 229.23000000000002 L 165.46 230.15 L 165.33 231.07 L 165.20000000000002 232.0 L 165.08 232.92000000000002 L 164.97 233.84 L 164.88 234.77 L 164.82 235.69 L 164.79 236.61 L 164.8 237.53 L 164.87 238.46 L 164.98 239.38 L 165.15 240.3 L 165.39000000000001 241.23000000000002 L 165.69 242.15 L 166.07 243.07 L 166.52 244.0 L 167.04 244.92000000000002 L 167.64000000000001 245.84 L 168.31 246.77 L 169.05 247.69 L 169.86 248.61 L 170.71 249.54 L 171.61 250.46 L 172.54 251.38 L 173.5 252.31 L 174.46 253.23000000000002 L 175.42000000000002 254.15 L 176.38 255.08 L 177.32 256.0 L 178.25 256.92 L 179.15 257.85 L 180.04 258.77 L 180.92000000000002 259.69 L 181.8 260.62 L 182.69 261.54 L 183.58 262.46 L 184.5 263.39 L 185.44 264.31 L 186.41 265.23 L 187.4 266.16 L 188.42000000000002 267.08 L 189.46 268.0 L 190.5 268.93 L 191.55 269.85 L 192.59 270.77 L 193.62 271.7 L 194.64000000000001 272.62 L 195.65 273.54 L 196.66 274.47 L 197.69 275.39 L 198.75 276.31 L 199.87 277.24 L 201.08 278.16 L 202.41 279.08 L 203.88 280.01 L 205.5 280.93 L 207.31 281.85 L 209.3 282.78000000000003 L 211.47 283.7 L 213.81 284.62 L 216.28 285.55 L 218.87 286.47 L 221.52 287.39 L 224.19 288.32 L 226.84 289.24 L 229.41 290.16 L 231.85 291.09000000000003 L 234.14000000000001 292.01 L 236.22 292.93 L 238.08 293.86 L 239.69 294.78000000000003 L 241.03 295.7 L 242.12 296.63 L 242.93 297.55 L 243.47 298.47 L 243.76 299.40000000000003 L 243.8 300.32 L 243.61 301.24 L 243.21 302.17 L 242.63 303.09000000000003 L 241.89000000000001 304.01 L 241.01 304.94 L 240.03 305.86 L 238.99 306.78000000000003 L 237.91 307.71 L 236.83 308.63 L 235.78 309.55 L 234.76 310.48 L 233.81 311.40000000000003 L 232.93 312.32 L 232.1 313.25 L 231.33 314.17 L 230.58 315.09000000000003 L 229.83 316.02 L 229.04 316.94 L 228.16 317.86 L 227.16 318.79 L 225.98000000000002 319.71 L 224.6 320.63 L 222.99 321.56 L 221.12 322.48 L 219.0 323.40000000000003 L 216.62 324.33 L 214.02 325.25 L 211.23000000000002 326.17 L 208.28 327.09000000000003 L 205.24 328.02 L 202.16 328.94 L 199.1 329.86 L 196.12 330.79 L 193.27 331.71 L 190.58 332.63 L 188.11 333.56 L 185.87 334.48 L 183.88 335.40000000000003 L 182.15 336.33 L 180.68 337.25 L 179.45000000000002 338.17 L 178.44 339.1 L 177.64000000000001 340.02 L 177.02 340.94 L 176.55 341.87 L 176.21 342.79 L 175.95000000000002 343.71 L 175.76 344.64 L 175.61 345.56 L 175.46 346.48 L 175.31 347.41 L 175.12 348.33 L 174.89000000000001 349.25 L 174.61 350.18 L 174.27 351.1 L 173.87 352.02 L 173.43 352.95 L 172.94 353.87 L 172.42000000000002 354.79 L 171.88 355.72 L 171.33 356.64 L 170.79 357.56 L 170.27 358.49 L 169.76 359.41 L 169.28 360.33 L 168.83 361.26 L 168.42000000000002 362.18 L 168.03 363.1 L 167.67000000000002 364.03000000000003 L 167.33 364.95 L 167.02 365.87 L 166.72 366.8 L 166.44 367.72 L 166.17000000000002 368.64 L 165.91 369.57 L 165.67000000000002 370.49 L 165.44 371.41 L 165.22 372.34000000000003 L 165.02 373.26 L 164.83 374.18 L 164.66 375.11 L 164.51 376.03000000000003 L 164.38 376.95 L 164.26 377.88 L 164.17000000000002 378.8 L 164.08 379.72 L 164.02 380.65000000000003 L 163.97 381.57 L 163.92000000000002 382.49 L 163.89000000000001 383.42 L 163.87 384.34000000000003 L 163.85 385.26 L 163.83 386.19 L 163.82 387.11 Z" stroke="#000000" stroke-width="0.5" fill="#4682b4" /><path d="M 363.77 440.08 L 363.76 438.63 L 363.75 437.19 L 363.73 435.75 L 363.71 434.31 L 363.69 432.86 L 363.66 431.42 L 363.62 429.98 L 363.57 428.54 L 363.51 427.09000000000003 L 363.44 425.65000000000003 L 363.36 424.21000000000004 L 363.26 422.77 L 363.13 421.32 L 362.99 419.88 L 362.81 418.44 L 362.61 417.0 L 362.37 415.55 L 362.08 414.11 L 361.75 412.67 L 361.37 411.23 L 360.92 409.78000000000003 L 360.41 408.34000000000003 L 359.82 406.90000000000003 L 359.16 405.46000000000004 L 358.40000000000003 404.01 L 357.55 402.57 L 356.59000000000003 401.13 L 355.52 399.69 L 354.33 398.24 L 353.02 396.8 L 351.58 395.36 L 349.99 393.92 L 348.27 392.47 L 346.41 391.03000000000003 L 344.40000000000003 389.59000000000003 L 342.24 388.15000000000003 L 339.95 386.7 L 337.52 385.26 L 334.96 383.82 L 332.29 382.37 L 329.5 380.93 L 326.62 379.49 L 323.67 378.05 L 320.66 376.6 L 317.61 375.16 L 314.54 373.72 L 311.48 372.28000000000003 L 308.46 370.83 L 305.5 369.39 L 302.63 367.95 L 299.88 366.51 L 297.27 365.06 L 294.82 363.62 L 292.57 362.18 L 290.54 360.74 L 288.75 359.29 L 287.21 357.85 L 285.94 356.41 L 284.96 354.97 L 284.28000000000003 353.52 L 283.89 352.08 L 283.81 350.64 L 284.04 349.2 L 284.56 347.75 L 285.38 346.31 L 286.48 344.87 L 287.85 343.43 L 289.47 341.98 L 291.33 340.54 L 293.40000000000003 339.1 L 295.67 337.66 L 298.11 336.21 L 300.69 334.77 L 303.39 333.33 L 306.18 331.89 L 309.05 330.44 L 311.96 329.0 L 314.88 327.56 L 317.8 326.12 L 320.69 324.67 L 323.53000000000003 323.23 L 326.3 321.79 L 328.98 320.34000000000003 L 331.55 318.90000000000003 L 334.0 317.46 L 336.32 316.02 L 338.48 314.57 L 340.48 313.13 L 342.31 311.69 L 343.96 310.25 L 345.43 308.8 L 346.7 307.36 L 347.78000000000003 305.92 L 348.66 304.48 L 349.33 303.03000000000003 L 349.8 301.59000000000003 L 350.05 300.15000000000003 L 350.1 298.71 L 349.94 297.26 L 349.57 295.82 L 348.99 294.38 L 348.2 292.94 L 347.2 291.49 L 345.99 290.05 L 344.58 288.61 L 342.98 287.17 L 341.18 285.72 L 339.2 284.28000000000003 L 337.05 282.84000000000003 L 334.72 281.40000000000003 L 332.25 279.95 L 329.64 278.51 L 326.91 277.07 L 324.08 275.63 L 321.17 274.18 L 318.2 272.74 L 315.2 271.3 L 312.19 269.86 L 309.2 268.41 L 306.25 266.97 L 303.38 265.53000000000003 L 300.61 264.09000000000003 L 297.97 262.64 L 295.49 261.2 L 293.19 259.76 L 291.1 258.32 L 289.24 256.87 L 287.63 255.43 L 286.28000000000003 253.99 L 285.22 252.54 L 284.44 251.1 L 283.97 249.66 L 283.8 248.22 L 283.93 246.77 L 284.37 245.33 L 285.1 243.89000000000001 L 286.12 242.45000000000002 L 287.41 241.0 L 288.96 239.56 L 290.76 238.12 L 292.77 236.68 L 294.99 235.23000000000002 L 297.39 233.79 L 299.94 232.35 L 302.62 230.91 L 305.41 229.46 L 308.27 228.02 L 311.2 226.58 L 314.15000000000003 225.14000000000001 L 317.12 223.69 L 320.07 222.25 L 322.99 220.81 L 325.86 219.37 L 328.66 217.92000000000002 L 331.38 216.48000000000002 L 334.0 215.04 L 336.51 213.6 L 338.91 212.15 L 341.18 210.71 L 343.32 209.27 L 345.33 207.83 L 347.2 206.38 L 348.94 204.94 L 350.55 203.5 L 352.03000000000003 202.06 L 353.38 200.61 L 354.61 199.17000000000002 L 355.72 197.73000000000002 L 356.73 196.29 L 357.63 194.84 L 358.44 193.4 L 359.16 191.96 L 359.79 190.51 L 360.35 189.07 L 360.85 187.63 L 361.28000000000003 186.19 L 361.66 184.74 L 361.98 183.3 L 362.27 181.86 L 362.51 180.42000000000002 L 362.72 178.97 L 362.90000000000003 177.53 L 363.05 176.09 L 363.18 174.65 L 363.29 173.20000000000002 L 363.38 171.76 L 363.45 170.32 L 363.52 168.88 L 363.57 167.43 L 363.61 165.99 L 363.65000000000003 164.55 L 363.68 163.11 L 363.7 161.66 L 363.72 160.22 L 363.74 158.78 L 363.75 157.34 L 363.76 155.89000000000001 L 363.77 154.45000000000002 L 363.78000000000003 153.01 L 363.82 153.01 L 363.83 154.45000000000002 L 363.84000000000003 155.89000000000001 L 363.85 157.34 L 363.86 158.78 L 363.88 160.22 L 363.90000000000003 161.66 L 363.92 163.11 L 363.95 164.55 L 363.99 165.99 L 364.03000000000003 167.43 L 364.08 168.88 L 364.15000000000003 170.32 L 364.22 171.76 L 364.31 173.20000000000002 L 364.42 174.65 L 364.55 176.09 L 364.7 177.53 L 364.88 178.97 L 365.09000000000003 180.42000000000002 L 365.33 181.86 L 365.62 183.3 L 365.94 184.74 L 366.32 186.19 L 366.75 187.63 L 367.25 189.07 L 367.81 190.51 L 368.44 191.96 L 369.16 193.4 L 369.97 194.84 L 370.87 196.29 L 371.88 197.73000000000002 L 372.99 199.17000000000002 L 374.22 200.61 L 375.57 202.06 L 377.05 203.5 L 378.66 204.94 L 380.40000000000003 206.38 L 382.27 207.83 L 384.28000000000003 209.27 L 386.42 210.71 L 388.69 212.15 L 391.09000000000003 213.6 L 393.6 215.04 L 396.22 216.48000000000002 L 398.94 217.92000000000002 L 401.74 219.37 L 404.61 220.81 L 407.53000000000003 222.25 L 410.48 223.69 L 413.45 225.14000000000001 L 416.40000000000003 226.58 L 419.33 228.02 L 422.19 229.46 L 424.98 230.91 L 427.66 232.35 L 430.21000000000004 233.79 L 432.61 235.23000000000002 L 434.83 236.68 L 436.84000000000003 238.12 L 438.64 239.56 L 440.19 241.0 L 441.48 242.45000000000002 L 442.5 243.89000000000001 L 443.23 245.33 L 443.67 246.77 L 443.8 248.22 L 443.63 249.66 L 443.16 251.1 L 442.38 252.54 L 441.32 253.99 L 439.97 255.43 L 438.36 256.87 L 436.5 258.32 L 434.41 259.76 L 432.11 261.2 L 429.63 262.64 L 426.99 264.09000000000003 L 424.22 265.53000000000003 L 421.35 266.97 L 418.40000000000003 268.41 L 415.41 269.86 L 412.40000000000003 271.3 L 409.40000000000003 272.74 L 406.43 274.18 L 403.52 275.63 L 400.69 277.07 L 397.96000000000004 278.51 L 395.35 279.95 L 392.88 281.40000000000003 L 390.55 282.84000000000003 L 388.40000000000003 284.28000000000003 L 386.42 285.72 L 384.62 287.17 L 383.02 288.61 L 381.61 290.05 L 380.40000000000003 291.49 L 379.40000000000003 292.94 L 378.61 294.38 L 378.03000000000003 295.82 L 377.66 297.26 L 377.5 298.71 L 377.55 300.15000000000003 L 377.8 301.59000000000003 L 378.27 303.03000000000003 L 378.94 304.48 L 379.82 305.92 L 380.90000000000003 307.36 L 382.17 308.8 L 383.64 310.25 L 385.29 311.69 L 387.12 313.13 L 389.12 314.57 L 391.28000000000003 316.02 L 393.6 317.46 L 396.05 318.90000000000003 L 398.62 320.34000000000003 L 401.3 321.79 L 404.07 323.23 L 406.91 324.67 L 409.8 326.12 L 412.72 327.56 L 415.64 329.0 L 418.55 330.44 L 421.42 331.89 L 424.21000000000004 333.33 L 426.91 334.77 L 429.49 336.21 L 431.93 337.66 L 434.2 339.1 L 436.27 340.54 L 438.13 341.98 L 439.75 343.43 L 441.12 344.87 L 442.22 346.31 L 443.04 347.75 L 443.56 349.2 L 443.79 350.64 L 443.71000000000004 352.08 L 443.32 353.52 L 442.64 354.97 L 441.66 356.41 L 440.39 357.85 L 438.85 359.29 L 437.06 360.74 L 435.03000000000003 362.18 L 432.78000000000003 363.62 L 430.33 365.06 L 427.72 366.51 L 424.97 367.95 L 422.1 369.39 L 419.14 370.83 L 416.12 372.28000000000003 L 413.06 373.72 L 409.99 375.16 L 406.94 376.6 L 403.93 378.05 L 400.98 379.49 L 398.1 380.93 L 395.31 382.37 L 392.64 383.82 L 390.08 385.26 L 387.65000000000003 386.7 L 385.36 388.15000000000003 L 383.2 389.59000000000003 L 381.19 391.03000000000003 L 379.33 392.47 L 377.61 393.92 L 376.02 395.36 L 374.58 396.8 L 373.27 398.24 L 372.08 399.69 L 371.01 401.13 L 370.05 402.57 L 369.2 404.01 L 368.44 405.46000000000004 L 367.78000000000003 406.90000000000003 L 367.19 408.34000000000003 L 366.68 409.78000000000003 L 366.23 411.23 L 365.85 412.67 L 365.52 414.11 L 365.23 415.55 L 364.99 417.0 L 364.79 418.44 L 364.61 419.88 L 364.47 421.32 L 364.34000000000003 422.77 L 364.24 424.21000000000004 L 364.16 425.65000000000003 L 364.09000000000003 427.09000000000003 L 364.03000000000003 428.54 L 363.98 429.98 L 363.94 431.42 L 363.91 432.86 L 363.89 434.31 L 363.87 435.75 L 363.85 437.19 L 363.84000000000003 438.63 L 363.83 440.08 Z" stroke="#000000" stroke-width="0.5" fill="#4682b4" /><path d="M 563.63 326.13 L 563.52 324.86 L 563.36 323.59000000000003 L 563.11 322.32 L 562.76 321.05 L 562.25 319.77 L 561.54 318.5 L 560.57 317.23 L 559.28 315.96 L 557.6 314.69 L 555.46 313.42 L 552.8100000000001 312.15000000000003 L 549.6 310.88 L 545.8 309.6 L 541.42 308.33 L 536.48 307.06 L 531.07 305.79 L 525.29 304.52 L 519.28 303.25 L 513.23 301.98 L 507.32 300.71 L 501.74 299.43 L 496.69 298.16 L 492.32 296.89 L 488.78000000000003 295.62 L 486.16 294.35 L 484.5 293.08 L 483.8 291.81 L 484.03000000000003 290.54 L 485.1 289.26 L 486.91 287.99 L 489.33 286.72 L 492.23 285.45 L 495.48 284.18 L 498.95 282.91 L 502.52000000000004 281.64 L 506.08 280.37 L 509.56 279.09000000000003 L 512.9 277.82 L 516.04 276.55 L 518.95 275.28000000000003 L 521.62 274.01 L 524.05 272.74 L 526.23 271.47 L 528.19 270.2 L 529.94 268.92 L 531.49 267.65 L 532.88 266.38 L 534.11 265.11 L 535.21 263.84000000000003 L 536.2 262.57 L 537.09 261.3 L 537.92 260.03000000000003 L 538.6800000000001 258.75 L 539.41 257.48 L 540.13 256.21 L 540.84 254.94 L 541.5600000000001 253.67000000000002 L 542.3100000000001 252.4 L 543.09 251.13 L 543.89 249.86 L 544.71 248.58 L 545.54 247.31 L 546.36 246.04 L 547.16 244.77 L 547.9300000000001 243.5 L 548.65 242.23000000000002 L 549.3000000000001 240.96 L 549.89 239.69 L 550.41 238.41 L 550.86 237.14000000000001 L 551.26 235.87 L 551.61 234.6 L 551.9300000000001 233.33 L 552.24 232.06 L 552.54 230.79 L 552.85 229.52 L 553.19 228.24 L 553.5500000000001 226.97 L 553.9300000000001 225.70000000000002 L 554.35 224.43 L 554.78 223.16 L 555.21 221.89000000000001 L 555.65 220.62 L 556.07 219.35 L 556.46 218.07 L 556.8100000000001 216.8 L 557.13 215.53 L 557.4 214.26 L 557.64 212.99 L 557.85 211.72 L 558.04 210.45000000000002 L 558.24 209.18 L 558.45 207.9 L 558.69 206.63 L 558.96 205.36 L 559.27 204.09 L 559.6 202.82 L 559.96 201.55 L 560.34 200.28 L 560.71 199.01 L 561.07 197.73000000000002 L 561.41 196.46 L 561.7 195.19 L 561.95 193.92000000000002 L 562.14 192.65 L 562.29 191.38 L 562.38 190.11 L 562.42 188.83 L 562.44 187.56 L 562.4300000000001 186.29 L 562.41 185.02 L 562.38 183.75 L 562.37 182.48 L 562.37 181.21 L 562.39 179.94 L 562.44 178.66 L 562.51 177.39000000000001 L 562.6 176.12 L 562.71 174.85 L 562.83 173.58 L 562.96 172.31 L 563.08 171.04 L 563.2 169.77 L 563.3000000000001 168.49 L 563.39 167.22 L 563.47 165.95000000000002 L 563.52 164.68 L 563.5500000000001 163.41 L 563.57 162.14000000000001 L 563.5600000000001 160.87 L 563.53 159.6 L 563.48 158.32 L 563.42 157.05 L 563.33 155.78 L 563.23 154.51 L 563.12 153.24 L 563.0 151.97 L 562.87 150.70000000000002 L 562.75 149.43 L 562.64 148.15 L 562.5500000000001 146.88 L 562.48 145.61 L 562.44 144.34 L 562.42 143.07 L 562.44 141.8 L 562.49 140.53 L 562.5600000000001 139.26 L 562.66 137.98 L 562.77 136.71 L 562.89 135.44 L 563.02 134.17000000000002 L 563.14 132.9 L 563.26 131.63 L 563.36 130.36 L 563.45 129.09 L 563.52 127.81 L 563.57 126.54 L 563.61 125.27 L 563.63 124.0 L 563.63 122.73 L 563.6 121.46000000000001 L 563.5600000000001 120.19 L 563.5 118.92 L 563.41 117.64 L 563.29 116.37 L 563.14 115.10000000000001 L 562.97 113.83 L 562.78 112.56 L 562.5600000000001 111.29 L 562.33 110.02 L 562.1 108.75 L 561.86 107.47 L 561.64 106.2 L 561.45 104.93 L 561.3000000000001 103.66 L 561.19 102.39 L 561.13 101.12 L 561.13 99.85000000000001 L 561.19 98.58 L 561.3000000000001 97.3 L 561.45 96.03 L 561.65 94.76 L 561.87 93.49 L 562.1 92.22 L 562.34 90.95 L 562.57 89.68 L 562.78 88.41 L 562.98 87.13 L 563.15 85.86 L 563.3000000000001 84.59 L 563.42 83.32000000000001 L 563.52 82.05 L 563.6 80.78 L 563.66 79.51 L 563.7 78.24 L 563.73 76.96000000000001 L 563.76 75.69 L 563.77 74.42 L 563.78 73.15 L 563.82 73.15 L 563.83 74.42 L 563.84 75.69 L 563.87 76.96000000000001 L 563.9 78.24 L 563.94 79.51 L 564.0 80.78 L 564.08 82.05 L 564.1800000000001 83.32000000000001 L 564.3000000000001 84.59 L 564.45 85.86 L 564.62 87.13 L 564.82 88.41 L 565.03 89.68 L 565.26 90.95 L 565.5 92.22 L 565.73 93.49 L 565.95 94.76 L 566.15 96.03 L 566.3000000000001 97.3 L 566.41 98.58 L 566.47 99.85000000000001 L 566.47 101.12 L 566.41 102.39 L 566.3000000000001 103.66 L 566.15 104.93 L 565.96 106.2 L 565.74 107.47 L 565.5 108.75 L 565.27 110.02 L 565.04 111.29 L 564.82 112.56 L 564.63 113.83 L 564.46 115.10000000000001 L 564.3100000000001 116.37 L 564.19 117.64 L 564.1 118.92 L 564.04 120.19 L 564.0 121.46000000000001 L 563.97 122.73 L 563.97 124.0 L 563.99 125.27 L 564.03 126.54 L 564.08 127.81 L 564.15 129.09 L 564.24 130.36 L 564.34 131.63 L 564.46 132.9 L 564.58 134.17000000000002 L 564.71 135.44 L 564.83 136.71 L 564.94 137.98 L 565.04 139.26 L 565.11 140.53 L 565.16 141.8 L 565.1800000000001 143.07 L 565.16 144.34 L 565.12 145.61 L 565.0500000000001 146.88 L 564.96 148.15 L 564.85 149.43 L 564.73 150.70000000000002 L 564.6 151.97 L 564.48 153.24 L 564.37 154.51 L 564.27 155.78 L 564.1800000000001 157.05 L 564.12 158.32 L 564.07 159.6 L 564.04 160.87 L 564.03 162.14000000000001 L 564.0500000000001 163.41 L 564.08 164.68 L 564.13 165.95000000000002 L 564.21 167.22 L 564.3000000000001 168.49 L 564.4 169.77 L 564.52 171.04 L 564.64 172.31 L 564.77 173.58 L 564.89 174.85 L 565.0 176.12 L 565.09 177.39000000000001 L 565.16 178.66 L 565.21 179.94 L 565.23 181.21 L 565.23 182.48 L 565.22 183.75 L 565.19 185.02 L 565.17 186.29 L 565.16 187.56 L 565.1800000000001 188.83 L 565.22 190.11 L 565.3100000000001 191.38 L 565.46 192.65 L 565.65 193.92000000000002 L 565.9 195.19 L 566.19 196.46 L 566.53 197.73000000000002 L 566.89 199.01 L 567.26 200.28 L 567.64 201.55 L 568.0 202.82 L 568.33 204.09 L 568.64 205.36 L 568.91 206.63 L 569.15 207.9 L 569.36 209.18 L 569.5600000000001 210.45000000000002 L 569.75 211.72 L 569.96 212.99 L 570.2 214.26 L 570.47 215.53 L 570.79 216.8 L 571.14 218.07 L 571.53 219.35 L 571.95 220.62 L 572.39 221.89000000000001 L 572.82 223.16 L 573.25 224.43 L 573.67 225.70000000000002 L 574.0500000000001 226.97 L 574.41 228.24 L 574.75 229.52 L 575.0600000000001 230.79 L 575.36 232.06 L 575.67 233.33 L 575.99 234.6 L 576.34 235.87 L 576.74 237.14000000000001 L 577.19 238.41 L 577.71 239.69 L 578.3000000000001 240.96 L 578.95 242.23000000000002 L 579.67 243.5 L 580.44 244.77 L 581.24 246.04 L 582.0600000000001 247.31 L 582.89 248.58 L 583.71 249.86 L 584.51 251.13 L 585.29 252.4 L 586.04 253.67000000000002 L 586.76 254.94 L 587.47 256.21 L 588.19 257.48 L 588.92 258.75 L 589.6800000000001 260.03000000000003 L 590.51 261.3 L 591.4 262.57 L 592.39 263.84000000000003 L 593.49 265.11 L 594.72 266.38 L 596.11 267.65 L 597.66 268.92 L 599.41 270.2 L 601.37 271.47 L 603.5500000000001 272.74 L 605.98 274.01 L 608.65 275.28000000000003 L 611.5600000000001 276.55 L 614.7 277.82 L 618.04 279.09000000000003 L 621.52 280.37 L 625.08 281.64 L 628.65 282.91 L 632.12 284.18 L 635.37 285.45 L 638.27 286.72 L 640.69 287.99 L 642.5 289.26 L 643.57 290.54 L 643.8000000000001 291.81 L 643.1 293.08 L 641.44 294.35 L 638.82 295.62 L 635.28 296.89 L 630.91 298.16 L 625.86 299.43 L 620.28 300.71 L 614.37 301.98 L 608.32 303.25 L 602.3100000000001 304.52 L 596.53 305.79 L 591.12 307.06 L 586.1800000000001 308.33 L 581.8000000000001 309.6 L 578.0 310.88 L 574.79 312.15000000000003 L 572.14 313.42 L 570.0 314.69 L 568.32 315.96 L 567.03 317.23 L 566.0600000000001 318.5 L 565.35 319.77 L 564.84 321.05 L 564.49 322.32 L 564.24 323.59000000000003 L 564.08 324.86 L 563.97 326.13 Z" stroke="#000000" stroke-width="0.5" fill="#4682b4" /><circle cx="153.8" cy="279.44" r="2.5" fill="rgba(0,0,0,0.35)" /><circle cx="163.8" cy="282.74" r="2.5" fill="rgba(0,0,0,0.35)" /><circle cx="173.8" cy="350.41" r="2.5" fill="rgba(0,0,0,0.35)" /><circle cx="148.8" cy="289.51" r="2.5" fill="rgba(0,0,0,0.35)" /><circle cx="133.8" cy="322.12" r="2.5" fill="rgba(0,0,0,0.35)" /><circle cx="188.8" cy="291.93" r="2.5" fill="rgba(0,0,0,0.35)" /><circle cx="163.8" cy="225.33" r="2.5" fill="rgba(0,0,0,0.35)" /><circle cx="178.8" cy="298.28000000000003" r="2.5" fill="rgba(0,0,0,0.35)" /><circle cx="171.3" cy="321.28000000000003" r="2.5" fill="rgba(0,0,0,0.35)" /><circle cx="158.8" cy="349.46" r="2.5" fill="rgba(0,0,0,0.35)" /><circle cx="173.8" cy="259.09000000000003" r="2.5" fill="rgba(0,0,0,0.35)" /><circle cx="168.8" cy="310.72" r="2.5" fill="rgba(0,0,0,0.35)" /><circle cx="138.8" cy="321.35" r="2.5" fill="rgba(0,0,0,0.35)" /><circle cx="151.3" cy="311.69" r="2.5" fill="rgba(0,0,0,0.35)" /><circle cx="186.3" cy="325.21" r="2.5" fill="rgba(0,0,0,0.35)" /><circle cx="163.8" cy="321.17" r="2.5" fill="rgba(0,0,0,0.35)" /><circle cx="173.8" cy="297.3" r="2.5" fill="rgba(0,0,0,0.35)" /><circle cx="133.8" cy="301.96" r="2.5" fill="rgba(0,0,0,0.35)" /><circle cx="163.8" cy="269.73" r="2.5" fill="rgba(0,0,0,0.35)" /><circle cx="178.8" cy="286.98" r="2.5" fill="rgba(0,0,0,0.35)" /><circle cx="168.8" cy="335.82" r="2.5" fill="rgba(0,0,0,0.35)" /><circle cx="163.8" cy="257.39" r="2.5" fill="rgba(0,0,0,0.35)" /><circle cx="188.8" cy="313.44" r="2.5" fill="rgba(0,0,0,0.35)" /><circle cx="148.8" cy="306.90000000000003" r="2.5" fill="rgba(0,0,0,0.35)" /><circle cx="176.3" cy="323.82" r="2.5" fill="rgba(0,0,0,0.35)" /><circle cx="138.8" cy="292.45" r="2.5" fill="rgba(0,0,0,0.35)" /><circle cx="156.3" cy="328.56" r="2.5" fill="rgba(0,0,0,0.35)" /><circle cx="158.8" cy="266.08" r="2.5" fill="rgba(0,0,0,0.35)" /><circle cx="143.8" cy="298.36" r="2.5" fill="rgba(0,0,0,0.35)" /><circle cx="171.3" cy="276.01" r="2.5" fill="rgba(0,0,0,0.35)" /><circle cx="148.8" cy="295.28000000000003" r="2.5" fill="rgba(0,0,0,0.35)" /><circle cx="158.8" cy="294.73" r="2.5" fill="rgba(0,0,0,0.35)" /><circle cx="158.8" cy="300.54" r="2.5" fill="rgba(0,0,0,0.35)" /><circle cx="163.8" cy="299.07" r="2.5" fill="rgba(0,0,0,0.35)" /><circle cx="163.8" cy="251.52" r="2.5" fill="rgba(0,0,0,0.35)" /><circle cx="163.8" cy="316.05" r="2.5" fill="rgba(0,0,0,0.35)" /><circle cx="173.8" cy="307.91" r="2.5" fill="rgba(0,0,0,0.35)" /><circle cx="193.8" cy="292.55" r="2.5" fill="rgba(0,0,0,0.35)" /><circle cx="158.8" cy="289.40000000000003" r="2.5" fill="rgba(0,0,0,0.35)" /><circle cx="158.8" cy="284.28000000000003" r="2.5" fill="rgba(0,0,0,0.35)" /><circle cx="173.8" cy="302.67" r="2.5" fill="rgba(0,0,0,0.35)" /><circle cx="148.8" cy="301.19" r="2.5" fill="rgba(0,0,0,0.35)" /><circle cx="188.8" cy="305.06" r="2.5" fill="rgba(0,0,0,0.35)" /><circle cx="168.8" cy="257.48" r="2.5" fill="rgba(0,0,0,0.35)" /><circle cx="183.8" cy="295.67" r="2.5" fill="rgba(0,0,0,0.35)" /><circle cx="173.8" cy="291.26" r="2.5" fill="rgba(0,0,0,0.35)" /><circle cx="153.8" cy="291.51" r="2.5" fill="rgba(0,0,0,0.35)" /><circle cx="178.8" cy="311.77" r="2.5" fill="rgba(0,0,0,0.35)" /><circle cx="163.8" cy="346.35" r="2.5" fill="rgba(0,0,0,0.35)" /><circle cx="163.8" cy="365.15000000000003" r="2.5" fill="rgba(0,0,0,0.35)" /><circle cx="158.8" cy="277.47" r="2.5" fill="rgba(0,0,0,0.35)" /><circle cx="163.8" cy="293.86" r="2.5" fill="rgba(0,0,0,0.35)" /><circle cx="153.8" cy="303.92" r="2.5" fill="rgba(0,0,0,0.35)" /><circle cx="168.8" cy="347.83" r="2.5" fill="rgba(0,0,0,0.35)" /><circle cx="163.8" cy="304.64" r="2.5" fill="rgba(0,0,0,0.35)" /><circle cx="198.8" cy="302.05" r="2.5" fill="rgba(0,0,0,0.35)" /><circle cx="166.3" cy="325.55" r="2.5" fill="rgba(0,0,0,0.35)" /><circle cx="151.3" cy="324.04" r="2.5" fill="rgba(0,0,0,0.35)" /><circle cx="168.8" cy="305.64" r="2.5" fill="rgba(0,0,0,0.35)" /><circle cx="181.3" cy="324.35" r="2.5" fill="rgba(0,0,0,0.35)" /><circle cx="141.3" cy="313.29" r="2.5" fill="rgba(0,0,0,0.35)" /><circle cx="178.8" cy="303.96" r="2.5" fill="rgba(0,0,0,0.35)" /><circle cx="158.8" cy="272.4" r="2.5" fill="rgba(0,0,0,0.35)" /><circle cx="181.3" cy="319.12" r="2.5" fill="rgba(0,0,0,0.35)" /><circle cx="153.8" cy="286.07" r="2.5" fill="rgba(0,0,0,0.35)" /><circle cx="168.8" cy="271.64" r="2.5" fill="rgba(0,0,0,0.35)" /><circle cx="198.8" cy="292.73" r="2.5" fill="rgba(0,0,0,0.35)" /><circle cx="168.8" cy="283.33" r="2.5" fill="rgba(0,0,0,0.35)" /><circle cx="153.8" cy="317.5" r="2.5" fill="rgba(0,0,0,0.35)" /><circle cx="188.8" cy="299.21" r="2.5" fill="rgba(0,0,0,0.35)" /><circle cx="163.8" cy="335.49" r="2.5" fill="rgba(0,0,0,0.35)" /><circle cx="138.8" cy="305.08" r="2.5" fill="rgba(0,0,0,0.35)" /><circle cx="181.3" cy="277.74" r="2.5" fill="rgba(0,0,0,0.35)" /><circle cx="196.3" cy="325.29" r="2.5" fill="rgba(0,0,0,0.35)" /><circle cx="143.8" cy="305" r="2.5" fill="rgba(0,0,0,0.35)" /><circle cx="178.8" cy="292.18" r="2.5" fill="rgba(0,0,0,0.35)" /><circle cx="146.3" cy="312.32" r="2.5" fill="rgba(0,0,0,0.35)" /><circle cx="163.8" cy="310.33" r="2.5" fill="rgba(0,0,0,0.35)" /><circle cx="158.8" cy="257.54" r="2.5" fill="rgba(0,0,0,0.35)" /><circle cx="158.8" cy="338.75" r="2.5" fill="rgba(0,0,0,0.35)" /><circle cx="161.3" cy="326.58" r="2.5" fill="rgba(0,0,0,0.35)" /><circle cx="168.8" cy="294.69" r="2.5" fill="rgba(0,0,0,0.35)" /><circle cx="171.3" cy="326.59000000000003" r="2.5" fill="rgba(0,0,0,0.35)" /><circle cx="183.8" cy="312.34000000000003" r="2.5" fill="rgba(0,0,0,0.35)" /><circle cx="168.8" cy="265.9" r="2.5" fill="rgba(0,0,0,0.35)" /><circle cx="153.8" cy="297.89" r="2.5" fill="rgba(0,0,0,0.35)" /><circle cx="138.8" cy="299.36" r="2.5" fill="rgba(0,0,0,0.35)" /><circle cx="158.8" cy="317.03000000000003" r="2.5" fill="rgba(0,0,0,0.35)" /><circle cx="183.8" cy="306.96" r="2.5" fill="rgba(0,0,0,0.35)" /><circle cx="141.3" cy="326.78000000000003" r="2.5" fill="rgba(0,0,0,0.35)" /><circle cx="173.8" cy="285.39" r="2.5" fill="rgba(0,0,0,0.35)" /><circle cx="168.8" cy="316.38" r="2.5" fill="rgba(0,0,0,0.35)" /><circle cx="133.8" cy="292.69" r="2.5" fill="rgba(0,0,0,0.35)" /><circle cx="128.8" cy="293.33" r="2.5" fill="rgba(0,0,0,0.35)" /><circle cx="163.8" cy="264.09000000000003" r="2.5" fill="rgba(0,0,0,0.35)" /><circle cx="173.8" cy="270.18" r="2.5" fill="rgba(0,0,0,0.35)" /><circle cx="176.3" cy="317.63" r="2.5" fill="rgba(0,0,0,0.35)" /><circle cx="186.3" cy="319.94" r="2.5" fill="rgba(0,0,0,0.35)" /><circle cx="148.8" cy="277.52" r="2.5" fill="rgba(0,0,0,0.35)" /><circle cx="163.8" cy="355.08" r="2.5" fill="rgba(0,0,0,0.35)" /><circle cx="193.8" cy="301.96" r="2.5" fill="rgba(0,0,0,0.35)" /><circle cx="143.8" cy="291.88" r="2.5" fill="rgba(0,0,0,0.35)" /><circle cx="193.8" cy="308.28000000000003" r="2.5" fill="rgba(0,0,0,0.35)" /><circle cx="163.8" cy="275.65000000000003" r="2.5" fill="rgba(0,0,0,0.35)" /><circle cx="143.8" cy="319.58" r="2.5" fill="rgba(0,0,0,0.35)" /><circle cx="168.8" cy="289.3" r="2.5" fill="rgba(0,0,0,0.35)" /><circle cx="156.3" cy="310.58" r="2.5" fill="rgba(0,0,0,0.35)" /><circle cx="156.3" cy="321.98" r="2.5" fill="rgba(0,0,0,0.35)" /><circle cx="148.8" cy="318.57" r="2.5" fill="rgba(0,0,0,0.35)" /><circle cx="168.8" cy="300.09000000000003" r="2.5" fill="rgba(0,0,0,0.35)" /><circle cx="146.3" cy="325.18" r="2.5" fill="rgba(0,0,0,0.35)" /><circle cx="183.8" cy="301.68" r="2.5" fill="rgba(0,0,0,0.35)" /><circle cx="128.8" cy="302.73" r="2.5" fill="rgba(0,0,0,0.35)" /><circle cx="191.3" cy="321.42" r="2.5" fill="rgba(0,0,0,0.35)" /><circle cx="158.8" cy="305.84000000000003" r="2.5" fill="rgba(0,0,0,0.35)" /><circle cx="153.8" cy="273.86" r="2.5" fill="rgba(0,0,0,0.35)" /><circle cx="176.3" cy="274.65000000000003" r="2.5" fill="rgba(0,0,0,0.35)" /><circle cx="173.8" cy="313" r="2.5" fill="rgba(0,0,0,0.35)" /><circle cx="183.8" cy="290.04" r="2.5" fill="rgba(0,0,0,0.35)" /><circle cx="163.8" cy="288.78000000000003" r="2.5" fill="rgba(0,0,0,0.35)" /><circle cx="378.8" cy="334.08" r="2.5" fill="rgba(0,0,0,0.35)" /><circle cx="343.8" cy="351.38" r="2.5" fill="rgba(0,0,0,0.35)" /><circle cx="358.8" cy="347.93" r="2.5" fill="rgba(0,0,0,0.35)" /><circle cx="348.8" cy="362.96" r="2.5" fill="rgba(0,0,0,0.35)" /><circle cx="368.8" cy="352.71" r="2.5" fill="rgba(0,0,0,0.35)" /><circle cx="353.8" cy="331.35" r="2.5" fill="rgba(0,0,0,0.35)" /><circle cx="373.8" cy="359" r="2.5" fill="rgba(0,0,0,0.35)" /><circle cx="368.8" cy="333.6" r="2.5" fill="rgba(0,0,0,0.35)" /><circle cx="353.8" cy="354.18" r="2.5" fill="rgba(0,0,0,0.35)" /><circle cx="373.8" cy="330.84000000000003" r="2.5" fill="rgba(0,0,0,0.35)" /><circle cx="388.8" cy="352.25" r="2.5" fill="rgba(0,0,0,0.35)" /><circle cx="368.8" cy="347.62" r="2.5" fill="rgba(0,0,0,0.35)" /><circle cx="378.8" cy="341.89" r="2.5" fill="rgba(0,0,0,0.35)" /><circle cx="353.8" cy="341.29" r="2.5" fill="rgba(0,0,0,0.35)" /><circle cx="363.8" cy="326.78000000000003" r="2.5" fill="rgba(0,0,0,0.35)" /><circle cx="378.8" cy="354.52" r="2.5" fill="rgba(0,0,0,0.35)" /><circle cx="353.8" cy="348.8" r="2.5" fill="rgba(0,0,0,0.35)" /><circle cx="343.8" cy="357.90000000000003" r="2.5" fill="rgba(0,0,0,0.35)" /><circle cx="383.8" cy="363.12" r="2.5" fill="rgba(0,0,0,0.35)" /><circle cx="373.8" cy="371.90000000000003" r="2.5" fill="rgba(0,0,0,0.35)" /><circle cx="348.8" cy="349.51" r="2.5" fill="rgba(0,0,0,0.35)" /><circle cx="378.8" cy="349.32" r="2.5" fill="rgba(0,0,0,0.35)" /><circle cx="373.8" cy="348.49" r="2.5" fill="rgba(0,0,0,0.35)" /><circle cx="363.8" cy="311.34000000000003" r="2.5" fill="rgba(0,0,0,0.35)" /><circle cx="353.8" cy="372.06" r="2.5" fill="rgba(0,0,0,0.35)" /><circle cx="363.8" cy="356.06" r="2.5" fill="rgba(0,0,0,0.35)" /><circle cx="358.8" cy="363.98" r="2.5" fill="rgba(0,0,0,0.35)" /><circle cx="363.8" cy="375.89" r="2.5" fill="rgba(0,0,0,0.35)" /><circle cx="338.8" cy="358.28000000000003" r="2.5" fill="rgba(0,0,0,0.35)" /><circle cx="383.8" cy="334.54" r="2.5" fill="rgba(0,0,0,0.35)" /><circle cx="358.8" cy="358.27" r="2.5" fill="rgba(0,0,0,0.35)" /><circle cx="373.8" cy="353.64" r="2.5" fill="rgba(0,0,0,0.35)" /><circle cx="383.8" cy="349.62" r="2.5" fill="rgba(0,0,0,0.35)" /><circle cx="358.8" cy="337.13" r="2.5" fill="rgba(0,0,0,0.35)" /><circle cx="363.8" cy="368.16" r="2.5" fill="rgba(0,0,0,0.35)" /><circle cx="343.8" cy="335.44" r="2.5" fill="rgba(0,0,0,0.35)" /><circle cx="348.8" cy="334.2" r="2.5" fill="rgba(0,0,0,0.35)" /><circle cx="358.8" cy="371.85" r="2.5" fill="rgba(0,0,0,0.35)" /><circle cx="348.8" cy="343.22" r="2.5" fill="rgba(0,0,0,0.35)" /><circle cx="373.8" cy="365.68" r="2.5" fill="rgba(0,0,0,0.35)" /><circle cx="363.8" cy="350.96" r="2.5" fill="rgba(0,0,0,0.35)" /><circle cx="363.8" cy="361.29" r="2.5" fill="rgba(0,0,0,0.35)" /><circle cx="363.8" cy="384.6" r="2.5" fill="rgba(0,0,0,0.35)" /><circle cx="358.8" cy="330.47" r="2.5" fill="rgba(0,0,0,0.35)" /><circle cx="348.8" cy="355.35" r="2.5" fill="rgba(0,0,0,0.35)" /><circle cx="368.8" cy="339.12" r="2.5" fill="rgba(0,0,0,0.35)" /><circle cx="368.8" cy="362.89" r="2.5" fill="rgba(0,0,0,0.35)" /><circle cx="358.8" cy="353.17" r="2.5" fill="rgba(0,0,0,0.35)" /><circle cx="363.8" cy="333.34000000000003" r="2.5" fill="rgba(0,0,0,0.35)" /><circle cx="383.8" cy="356.44" r="2.5" fill="rgba(0,0,0,0.35)" /><circle cx="368.8" cy="328.53000000000003" r="2.5" fill="rgba(0,0,0,0.35)" /><circle cx="353.8" cy="359.34000000000003" r="2.5" fill="rgba(0,0,0,0.35)" /><circle cx="368.8" cy="369.76" r="2.5" fill="rgba(0,0,0,0.35)" /><circle cx="378.8" cy="360.42" r="2.5" fill="rgba(0,0,0,0.35)" /><circle cx="358.8" cy="342.55" r="2.5" fill="rgba(0,0,0,0.35)" /><circle cx="388.8" cy="358.05" r="2.5" fill="rgba(0,0,0,0.35)" /><circle cx="363.8" cy="338.36" r="2.5" fill="rgba(0,0,0,0.35)" /><circle cx="373.8" cy="339.91" r="2.5" fill="rgba(0,0,0,0.35)" /><circle cx="368.8" cy="357.79" r="2.5" fill="rgba(0,0,0,0.35)" /><circle cx="363.8" cy="345.94" r="2.5" fill="rgba(0,0,0,0.35)" /><circle cx="378.8" cy="231.22" r="2.5" fill="rgba(0,0,0,0.35)" /><circle cx="343.8" cy="248.53" r="2.5" fill="rgba(0,0,0,0.35)" /><circle cx="358.8" cy="245.07" r="2.5" fill="rgba(0,0,0,0.35)" /><circle cx="348.8" cy="260.1" r="2.5" fill="rgba(0,0,0,0.35)" /><circle cx="368.8" cy="249.86" r="2.5" fill="rgba(0,0,0,0.35)" /><circle cx="353.8" cy="228.5" r="2.5" fill="rgba(0,0,0,0.35)" /><circle cx="373.8" cy="256.14" r="2.5" fill="rgba(0,0,0,0.35)" /><circle cx="368.8" cy="230.74" r="2.5" fill="rgba(0,0,0,0.35)" /><circle cx="353.8" cy="251.32" r="2.5" fill="rgba(0,0,0,0.35)" /><circle cx="373.8" cy="227.98000000000002" r="2.5" fill="rgba(0,0,0,0.35)" /><circle cx="388.8" cy="249.39000000000001" r="2.5" fill="rgba(0,0,0,0.35)" /><circle cx="368.8" cy="244.77" r="2.5" fill="rgba(0,0,0,0.35)" /><circle cx="378.8" cy="239.03" r="2.5" fill="rgba(0,0,0,0.35)" /><circle cx="353.8" cy="238.44" r="2.5" fill="rgba(0,0,0,0.35)" /><circle cx="363.8" cy="223.92000000000002" r="2.5" fill="rgba(0,0,0,0.35)" /><circle cx="378.8" cy="251.66" r="2.5" fill="rgba(0,0,0,0.35)" /><circle cx="353.8" cy="245.94" r="2.5" fill="rgba(0,0,0,0.35)" /><circle cx="343.8" cy="255.04" r="2.5" fill="rgba(0,0,0,0.35)" /><circle cx="383.8" cy="260.27" r="2.5" fill="rgba(0,0,0,0.35)" /><circle cx="373.8" cy="269.04" r="2.5" fill="rgba(0,0,0,0.35)" /><circle cx="348.8" cy="246.65" r="2.5" fill="rgba(0,0,0,0.35)" /><circle cx="378.8" cy="246.46" r="2.5" fill="rgba(0,0,0,0.35)" /><circle cx="373.8" cy="245.63" r="2.5" fill="rgba(0,0,0,0.35)" /><circle cx="363.8" cy="208.48000000000002" r="2.5" fill="rgba(0,0,0,0.35)" /><circle cx="353.8" cy="269.2" r="2.5" fill="rgba(0,0,0,0.35)" /><circle cx="363.8" cy="253.20000000000002" r="2.5" fill="rgba(0,0,0,0.35)" /><circle cx="358.8" cy="261.12" r="2.5" fill="rgba(0,0,0,0.35)" /><circle cx="363.8" cy="273.04" r="2.5" fill="rgba(0,0,0,0.35)" /><circle cx="338.8" cy="255.42000000000002" r="2.5" fill="rgba(0,0,0,0.35)" /><circle cx="383.8" cy="231.68" r="2.5" fill="rgba(0,0,0,0.35)" /><circle cx="358.8" cy="255.41" r="2.5" fill="rgba(0,0,0,0.35)" /><circle cx="373.8" cy="250.78" r="2.5" fill="rgba(0,0,0,0.35)" /><circle cx="383.8" cy="246.77" r="2.5" fill="rgba(0,0,0,0.35)" /><circle cx="358.8" cy="234.28" r="2.5" fill="rgba(0,0,0,0.35)" /><circle cx="363.8" cy="265.3" r="2.5" fill="rgba(0,0,0,0.35)" /><circle cx="343.8" cy="232.58" r="2.5" fill="rgba(0,0,0,0.35)" /><circle cx="348.8" cy="231.35" r="2.5" fill="rgba(0,0,0,0.35)" /><circle cx="358.8" cy="269" r="2.5" fill="rgba(0,0,0,0.35)" /><circle cx="348.8" cy="240.36" r="2.5" fill="rgba(0,0,0,0.35)" /><circle cx="373.8" cy="262.82" r="2.5" fill="rgba(0,0,0,0.35)" /><circle cx="363.8" cy="248.1" r="2.5" fill="rgba(0,0,0,0.35)" /><circle cx="363.8" cy="258.43" r="2.5" fill="rgba(0,0,0,0.35)" /><circle cx="363.8" cy="281.75" r="2.5" fill="rgba(0,0,0,0.35)" /><circle cx="358.8" cy="227.61" r="2.5" fill="rgba(0,0,0,0.35)" /><circle cx="348.8" cy="252.5" r="2.5" fill="rgba(0,0,0,0.35)" /><circle cx="368.8" cy="236.27" r="2.5" fill="rgba(0,0,0,0.35)" /><circle cx="368.8" cy="260.04" r="2.5" fill="rgba(0,0,0,0.35)" /><circle cx="358.8" cy="250.31" r="2.5" fill="rgba(0,0,0,0.35)" /><circle cx="363.8" cy="230.48000000000002" r="2.5" fill="rgba(0,0,0,0.35)" /><circle cx="383.8" cy="253.59" r="2.5" fill="rgba(0,0,0,0.35)" /><circle cx="368.8" cy="225.68" r="2.5" fill="rgba(0,0,0,0.35)" /><circle cx="353.8" cy="256.48" r="2.5" fill="rgba(0,0,0,0.35)" /><circle cx="368.8" cy="266.9" r="2.5" fill="rgba(0,0,0,0.35)" /><circle cx="378.8" cy="257.56" r="2.5" fill="rgba(0,0,0,0.35)" /><circle cx="358.8" cy="239.70000000000002" r="2.5" fill="rgba(0,0,0,0.35)" /><circle cx="388.8" cy="255.19" r="2.5" fill="rgba(0,0,0,0.35)" /><circle cx="363.8" cy="235.5" r="2.5" fill="rgba(0,0,0,0.35)" /><circle cx="373.8" cy="237.05" r="2.5" fill="rgba(0,0,0,0.35)" /><circle cx="368.8" cy="254.93" r="2.5" fill="rgba(0,0,0,0.35)" /><circle cx="363.8" cy="243.09" r="2.5" fill="rgba(0,0,0,0.35)" /><circle cx="593.8000000000001" cy="295.71" r="2.5" fill="rgba(0,0,0,0.35)" /><circle cx="556.3000000000001" cy="229.16" r="2.5" fill="rgba(0,0,0,0.35)" /><circle cx="563.8000000000001" cy="264.73" r="2.5" fill="rgba(0,0,0,0.35)" /><circle cx="566.3000000000001" cy="222.51" r="2.5" fill="rgba(0,0,0,0.35)" /><circle cx="573.8000000000001" cy="249.47" r="2.5" fill="rgba(0,0,0,0.35)" /><circle cx="541.3" cy="294.18" r="2.5" fill="rgba(0,0,0,0.35)" /><circle cx="531.3" cy="284.65000000000003" r="2.5" fill="rgba(0,0,0,0.35)" /><circle cx="568.8000000000001" cy="273.11" r="2.5" fill="rgba(0,0,0,0.35)" /><circle cx="558.8000000000001" cy="238.86" r="2.5" fill="rgba(0,0,0,0.35)" /><circle cx="598.8000000000001" cy="297.42" r="2.5" fill="rgba(0,0,0,0.35)" /><circle cx="536.3" cy="283.93" r="2.5" fill="rgba(0,0,0,0.35)" /><circle cx="548.8000000000001" cy="293.27" r="2.5" fill="rgba(0,0,0,0.35)" /><circle cx="563.8000000000001" cy="296.25" r="2.5" fill="rgba(0,0,0,0.35)" /><circle cx="573.8000000000001" cy="291.49" r="2.5" fill="rgba(0,0,0,0.35)" /><circle cx="521.3" cy="299.38" r="2.5" fill="rgba(0,0,0,0.35)" /><circle cx="543.8" cy="277.92" r="2.5" fill="rgba(0,0,0,0.35)" /><circle cx="558.8000000000001" cy="267.97" r="2.5" fill="rgba(0,0,0,0.35)" /><circle cx="558.8000000000001" cy="261.45" r="2.5" fill="rgba(0,0,0,0.35)" /><circle cx="553.8000000000001" cy="275.51" r="2.5" fill="rgba(0,0,0,0.35)" /><circle cx="541.3" cy="283.47" r="2.5" fill="rgba(0,0,0,0.35)" /><circle cx="566.3000000000001" cy="251.79" r="2.5" fill="rgba(0,0,0,0.35)" /><circle cx="578.8000000000001" cy="292.6" r="2.5" fill="rgba(0,0,0,0.35)" /><circle cx="588.8000000000001" cy="294.51" r="2.5" fill="rgba(0,0,0,0.35)" /><circle cx="618.8000000000001" cy="294.77" r="2.5" fill="rgba(0,0,0,0.35)" /><circle cx="563.8000000000001" cy="180.73" r="2.5" fill="rgba(0,0,0,0.35)" /><circle cx="561.3000000000001" cy="281.44" r="2.5" fill="rgba(0,0,0,0.35)" /><circle cx="563.8000000000001" cy="246.89000000000001" r="2.5" fill="rgba(0,0,0,0.35)" /><circle cx="563.8000000000001" cy="218.14000000000001" r="2.5" fill="rgba(0,0,0,0.35)" /><circle cx="553.8000000000001" cy="296.82" r="2.5" fill="rgba(0,0,0,0.35)" /><circle cx="563.8000000000001" cy="275.51" r="2.5" fill="rgba(0,0,0,0.35)" /><circle cx="568.8000000000001" cy="102.5" r="2.5" fill="rgba(0,0,0,0.35)" /><circle cx="568.8000000000001" cy="226.9" r="2.5" fill="rgba(0,0,0,0.35)" /><circle cx="601.3000000000001" cy="287.22" r="2.5" fill="rgba(0,0,0,0.35)" /><circle cx="573.8000000000001" cy="239.73000000000002" r="2.5" fill="rgba(0,0,0,0.35)" /><circle cx="531.3" cy="296.98" r="2.5" fill="rgba(0,0,0,0.35)" /><circle cx="613.8000000000001" cy="294.76" r="2.5" fill="rgba(0,0,0,0.35)" /><circle cx="556.3000000000001" cy="287.44" r="2.5" fill="rgba(0,0,0,0.35)" /><circle cx="583.8000000000001" cy="288.68" r="2.5" fill="rgba(0,0,0,0.35)" /><circle cx="558.8000000000001" cy="207.77" r="2.5" fill="rgba(0,0,0,0.35)" /><circle cx="513.8" cy="294.76" r="2.5" fill="rgba(0,0,0,0.35)" /><circle cx="566.3000000000001" cy="279.96" r="2.5" fill="rgba(0,0,0,0.35)" /><circle cx="561.3000000000001" cy="300.79" r="2.5" fill="rgba(0,0,0,0.35)" /><circle cx="623.8000000000001" cy="295.76" r="2.5" fill="rgba(0,0,0,0.35)" /><circle cx="568.8000000000001" cy="237.98000000000002" r="2.5" fill="rgba(0,0,0,0.35)" /><circle cx="548.8000000000001" cy="288.07" r="2.5" fill="rgba(0,0,0,0.35)" /><circle cx="561.3000000000001" cy="225.68" r="2.5" fill="rgba(0,0,0,0.35)" /><circle cx="563.8000000000001" cy="235.71" r="2.5" fill="rgba(0,0,0,0.35)" /><circle cx="563.8000000000001" cy="270.15" r="2.5" fill="rgba(0,0,0,0.35)" /><circle cx="616.3000000000001" cy="300.59000000000003" r="2.5" fill="rgba(0,0,0,0.35)" /><circle cx="558.8000000000001" cy="248.70000000000002" r="2.5" fill="rgba(0,0,0,0.35)" /><circle cx="553.8000000000001" cy="269.45" r="2.5" fill="rgba(0,0,0,0.35)" /><circle cx="528.8" cy="292.65000000000003" r="2.5" fill="rgba(0,0,0,0.35)" /><circle cx="518.8" cy="294.63" r="2.5" fill="rgba(0,0,0,0.35)" /><circle cx="583.8000000000001" cy="293.97" r="2.5" fill="rgba(0,0,0,0.35)" /><circle cx="553.8000000000001" cy="291.8" r="2.5" fill="rgba(0,0,0,0.35)" /><circle cx="536.3" cy="296.87" r="2.5" fill="rgba(0,0,0,0.35)" /><circle cx="556.3000000000001" cy="282.23" r="2.5" fill="rgba(0,0,0,0.35)" /><circle cx="568.8000000000001" cy="295.01" r="2.5" fill="rgba(0,0,0,0.35)" /><circle cx="591.3000000000001" cy="283.69" r="2.5" fill="rgba(0,0,0,0.35)" /><circle cx="561.3000000000001" cy="286.59000000000003" r="2.5" fill="rgba(0,0,0,0.35)" /><circle cx="568.8000000000001" cy="266.52" r="2.5" fill="rgba(0,0,0,0.35)" /><circle cx="546.3000000000001" cy="283.3" r="2.5" fill="rgba(0,0,0,0.35)" /><circle cx="611.3000000000001" cy="299.42" r="2.5" fill="rgba(0,0,0,0.35)" /><circle cx="571.3000000000001" cy="287.07" r="2.5" fill="rgba(0,0,0,0.35)" /><circle cx="526.3" cy="297.58" r="2.5" fill="rgba(0,0,0,0.35)" /><circle cx="566.3000000000001" cy="290.68" r="2.5" fill="rgba(0,0,0,0.35)" /><circle cx="558.8000000000001" cy="296.27" r="2.5" fill="rgba(0,0,0,0.35)" /><circle cx="553.8000000000001" cy="261.71" r="2.5" fill="rgba(0,0,0,0.35)" /><circle cx="548.8000000000001" cy="255.34" r="2.5" fill="rgba(0,0,0,0.35)" /><circle cx="543.8" cy="299.15000000000003" r="2.5" fill="rgba(0,0,0,0.35)" /><circle cx="568.8000000000001" cy="260.24" r="2.5" fill="rgba(0,0,0,0.35)" /><circle cx="558.8000000000001" cy="273.32" r="2.5" fill="rgba(0,0,0,0.35)" /><circle cx="583.8000000000001" cy="299.07" r="2.5" fill="rgba(0,0,0,0.35)" /><circle cx="553.8000000000001" cy="251.04" r="2.5" fill="rgba(0,0,0,0.35)" /><circle cx="563.8000000000001" cy="143.18" r="2.5" fill="rgba(0,0,0,0.35)" /><circle cx="548.8000000000001" cy="298.69" r="2.5" fill="rgba(0,0,0,0.35)" /><circle cx="563.8000000000001" cy="98.49000000000001" r="2.5" fill="rgba(0,0,0,0.35)" /><circle cx="523.8" cy="293.04" r="2.5" fill="rgba(0,0,0,0.35)" /><circle cx="596.3000000000001" cy="284.62" r="2.5" fill="rgba(0,0,0,0.35)" /><circle cx="603.8000000000001" cy="299.21" r="2.5" fill="rgba(0,0,0,0.35)" /><circle cx="588.8000000000001" cy="299.86" r="2.5" fill="rgba(0,0,0,0.35)" /><circle cx="578.8000000000001" cy="276.45" r="2.5" fill="rgba(0,0,0,0.35)" /><circle cx="563.8000000000001" cy="230.22" r="2.5" fill="rgba(0,0,0,0.35)" /><circle cx="576.3000000000001" cy="283.03000000000003" r="2.5" fill="rgba(0,0,0,0.35)" /><circle cx="578.8000000000001" cy="262" r="2.5" fill="rgba(0,0,0,0.35)" /><circle cx="538.8" cy="289.7" r="2.5" fill="rgba(0,0,0,0.35)" /><circle cx="563.8000000000001" cy="259.15" r="2.5" fill="rgba(0,0,0,0.35)" /><circle cx="578.8000000000001" cy="298.67" r="2.5" fill="rgba(0,0,0,0.35)" /><circle cx="548.8000000000001" cy="276.84000000000003" r="2.5" fill="rgba(0,0,0,0.35)" /><circle cx="561.3000000000001" cy="253.47" r="2.5" fill="rgba(0,0,0,0.35)" /><circle cx="566.3000000000001" cy="285.36" r="2.5" fill="rgba(0,0,0,0.35)" /><circle cx="568.8000000000001" cy="300.37" r="2.5" fill="rgba(0,0,0,0.35)" /><circle cx="581.3000000000001" cy="283.19" r="2.5" fill="rgba(0,0,0,0.35)" /><circle cx="568.8000000000001" cy="246.93" r="2.5" fill="rgba(0,0,0,0.35)" /><circle cx="578.8000000000001" cy="287.52" r="2.5" fill="rgba(0,0,0,0.35)" /><circle cx="561.3000000000001" cy="291.63" r="2.5" fill="rgba(0,0,0,0.35)" /><circle cx="573.8000000000001" cy="296.77" r="2.5" fill="rgba(0,0,0,0.35)" /><circle cx="583.8000000000001" cy="276.85" r="2.5" fill="rgba(0,0,0,0.35)" /><circle cx="598.8000000000001" cy="292.19" r="2.5" fill="rgba(0,0,0,0.35)" /><circle cx="516.3" cy="299.98" r="2.5" fill="rgba(0,0,0,0.35)" /><circle cx="571.3000000000001" cy="281.62" r="2.5" fill="rgba(0,0,0,0.35)" /><circle cx="568.8000000000001" cy="207.18" r="2.5" fill="rgba(0,0,0,0.35)" /><circle cx="573.8000000000001" cy="261.51" r="2.5" fill="rgba(0,0,0,0.35)" /><circle cx="593.8000000000001" cy="289.91" r="2.5" fill="rgba(0,0,0,0.35)" /><circle cx="563.8000000000001" cy="204.22" r="2.5" fill="rgba(0,0,0,0.35)" /><circle cx="548.8000000000001" cy="270.75" r="2.5" fill="rgba(0,0,0,0.35)" /><circle cx="571.3000000000001" cy="254.81" r="2.5" fill="rgba(0,0,0,0.35)" /><circle cx="533.8" cy="292.14" r="2.5" fill="rgba(0,0,0,0.35)" /><circle cx="508.8" cy="294.88" r="2.5" fill="rgba(0,0,0,0.35)" /><circle cx="608.8000000000001" cy="294.55" r="2.5" fill="rgba(0,0,0,0.35)" /><circle cx="603.8000000000001" cy="292.73" r="2.5" fill="rgba(0,0,0,0.35)" /><circle cx="578.8000000000001" cy="270.27" r="2.5" fill="rgba(0,0,0,0.35)" /><circle cx="588.8000000000001" cy="289.49" r="2.5" fill="rgba(0,0,0,0.35)" /><circle cx="586.3000000000001" cy="283.39" r="2.5" fill="rgba(0,0,0,0.35)" /><circle cx="578.8000000000001" cy="251.98000000000002" r="2.5" fill="rgba(0,0,0,0.35)" /><circle cx="573.8000000000001" cy="273.59000000000003" r="2.5" fill="rgba(0,0,0,0.35)" /><circle cx="551.3000000000001" cy="283.15000000000003" r="2.5" fill="rgba(0,0,0,0.35)" /><circle cx="573.8000000000001" cy="268.32" r="2.5" fill="rgba(0,0,0,0.35)" /><circle cx="526.3" cy="287.54" r="2.5" fill="rgba(0,0,0,0.35)" /><circle cx="543.8" cy="289.28000000000003" r="2.5" fill="rgba(0,0,0,0.35)" /></g></svg>