<svg xmlns="http://www.w3.org/2000/svg" width="673" height="541" fill="black"><rect width="100%" height="100%" fill="white" /><line x1="59" y1="492" x2="659" y2="492" stroke="black" stroke-width="1" /><line x1="59" y1="42" x2="59" y2="492" stroke="black" stroke-width="1" /><line x1="59" y1="442" x2="659" y2="442" stroke="#ccc" stroke-width="1" /><line x1="59" y1="392" x2="659" y2="392" stroke="#ccc" stroke-width="1" /><line x1="59" y1="342" x2="659" y2="342" stroke="#ccc" stroke-width="1" /><line x1="59" y1="292" x2="659" y2="292" stroke="#ccc" stroke-width="1" /><line x1="59" y1="242" x2="659" y2="242" stroke="#ccc" stroke-width="1" /><line x1="59" y1="192" x2="659" y2="192" stroke="#ccc" stroke-width="1" /><line x1="59" y1="142" x2="659" y2="142" stroke="#ccc" stroke-width="1" /><line x1="59" y1="92" x2="659" y2="92" stroke="#ccc" stroke-width="1" /><line x1="59" y1="42" x2="659" y2="42" stroke="#ccc" stroke-width="1" /><text x="159" y="507" font-size="10" text-anchor="middle">Normal</text><line x1="159" y1="492" x2="159" y2="497" stroke="black" stroke-width="1" /><text x="359" y="507" font-size="10" text-anchor="middle">Bimodal</text><line x1="359" y1="492" x2="359" y2="497" stroke="black" stroke-width="1" /><text x="559" y="507" font-size="10" text-anchor="middle">Skewed</text><line x1="559" y1="492" x2="559" y2="497" stroke="black" stroke-width="1" /><line x1="54" y1="492" x2="59" y2="492" stroke="black" stroke-width="1" /><text x="51" y="495.5" font-size="10" text-anchor="end">-8</text><line x1="54" y1="442" x2="59" y2="442" stroke="black" stroke-width="1" /><text x="51" y="445.5" font-size="10" text-anchor="end">-6</text><line x1="54" y1="392" x2="59" y2="392" stroke="black" stroke-width="1" /><text x="51" y="395.5" font-size="10" text-anchor="end">-4</text><line x1="54" y1="342" x2="59" y2="342" stroke="black" stroke-width="1" /><text x="51" y="345.5" font-size="10" text-anchor="end">-2</text><line x1="54" y1="292" x2="59" y2="292" stroke="black" stroke-width="1" /><text x="51" y="295.5" font-size="10" text-anchor="end">0</text><line x1="54" y1="242" x2="59" y2="242" stroke="black" stroke-width="1" /><text x="51" y="245.5" font-size="10" text-anchor="end">2</text><line x1="54" y1="192" x2="59" y2="192" stroke="black" stroke-width="1" /><text x="51" y="195.5" font-size="10" text-anchor="end">4</text><line x1="54" y1="142" x2="59" y2="142" stroke="black" stroke-width="1" /><text x="51" y="145.5" font-size="10" text-anchor="end">6</text><line x1="54" y1="92" x2="59" y2="92" stroke="black" stroke-width="1" /><text x="51" y="95.5" font-size="10" text-anchor="end">8</text><line x1="54" y1="42" x2="59" y2="42" stroke="black" stroke-width="1" /><text x="51" y="45.5" font-size="10" text-anchor="end">10</text><text x="14" y="270.5" font-size="14" text-anchor="middle" transform="rotate(-90,14,270.5)">Value</text><text x="336.5" y="21" font-size="16" text-anchor="middle">Violin + Swarm Overlay</text><path d="M 158.9915512580537 375.57855887170996 L 158.98774563956178 374.6809071589018 L 158.9825017682669 373.78325544609356 L 158.97540046343525 372.8856037332854 L 158.96594989419154 371.9879520204772 L 158.95359074065234 371.090300307669 L 158.93770847111873 370.19264859486077 L 158.91765363424983 369.2949968820526 L 158.89277025772657 368.39734516924443 L 158.86243133234456 367.4996934564362 L 158.82607902959177 366.60204174362804 L 158.78326591162804 365.7043900308198 L 158.73369217104596 364.80673831801164 L 158.67723315113784 363.90908660520347 L 158.61395131322536 363.01143489239524 L 158.54408765038946 362.1137831795871 L 158.46802940074826 361.21613146677885 L 158.38625373282235 360.3184797539707 L 158.2992506172136 359.4208280411625 L 158.20743193510617 358.5231763283543 L 158.11103743380812 357.62552461554606 L 158.01005078500688 356.7278729027379 L 157.90414013161555 355.8302211899297 L 157.7926366723839 354.9325694771215 L 157.67456182866977 354.03491776431326 L 157.5487084831209 353.1372660515051 L 157.41377513362465 352.2396143386969 L 157.26854433016783 351.3419626258887 L 157.11208943457075 350.44431091308047 L 156.94398762460256 349.5466592002723 L 156.76451314628912 348.64900748746413 L 156.5747838703367 347.75135577465596 L 156.37683664749565 346.85370406184774 L 156.17361276130114 345.9560523490395 L 155.9688434530031 345.05840063623134 L 155.76683611347687 344.16074892342317 L 155.5721730305702 343.26309721061494 L 155.38934509063353 342.3654454978068 L 155.22235111221374 341.46779378499855 L 155.0742983169543 340.5701420721904 L 154.94704003118284 339.6724903593822 L 154.84088287351483 338.774838646574 L 154.75438791346505 337.87718693376576 L 154.68427973521585 336.9795352209576 L 154.6254656702636 336.0818835081494 L 154.57115658039794 335.18423179534125 L 154.51307229094277 334.2865800825331 L 154.4417104482225 333.38892836972485 L 154.34665779274533 332.4912766569166 L 154.21692724033858 331.59362494410846 L 154.0413114420493 330.69597323130023 L 153.80875160953386 329.79832151849206 L 153.50872696483276 328.90066980568383 L 153.1316729916446 328.00301809287566 L 152.66943421578756 327.1053663800675 L 152.11574913121976 326.20771466725927 L 151.4667520549229 325.31006295445104 L 150.7214613532724 324.41241124164287 L 149.88220877597482 323.5147595288347 L 148.9549540514182 322.6171078160265 L 147.9494255748361 321.7194561032183 L 146.8790340550745 320.8218043904101 L 145.76052191788258 319.9241526776019 L 144.61333584404684 319.02650096479374 L 143.45874011938778 318.1288492519855 L 142.31872032343946 317.2311975391773 L 141.214755575543 316.3335458263691 L 140.16655865336142 315.43589411356095 L 139.19089340473454 314.5382424007528 L 138.30057621898374 313.64059068794455 L 137.50375304533068 312.7429389751363 L 136.8035175282381 311.84528726232816 L 136.19790272491565 310.94763554952 L 135.68024289001133 310.04998383671176 L 135.23986741200105 309.1523321239036 L 134.86306008618106 308.25468041109536 L 134.53419637572898 307.3570286982872 L 134.23696066848933 306.459376985479 L 133.9555449377197 305.5617252726708 L 133.6757386454053 304.66407355986263 L 133.38583535223805 303.7664218470544 L 133.07730206537835 302.86877013424623 L 132.74518055033727 301.97111842143806 L 132.38821353375653 301.07346670862984 L 132.00871111304815 300.1758149958216 L 131.61219225838644 299.27816328301344 L 131.20685178312272 298.3805115702053 L 130.80291350884357 297.48285985739705 L 130.4119347121176 296.5852081445889 L 130.04612478260927 295.68755643178065 L 129.7177323214223 294.7899047189725 L 129.4385403440722 293.89225300616425 L 129.21949034518886 292.994601293356 L 129.0704350814459 292.09694958054786 L 129 291.1992978677397 L 129.01551744598552 290.3016461549315 L 129.12298892989875 289.40399444212335 L 129.32703068287003 288.50634272931507 L 129.63076690747155 287.6086910165069 L 130.03565230910996 286.7110393036987 L 130.541227848725 285.8133875908905 L 131.1448372074403 284.91573587808233 L 131.84135174162301 284.01808416527416 L 132.62296463438474 283.12043245246593 L 133.47911757479972 282.22278073965776 L 134.39661442900942 281.3251290268496 L 135.35995683762053 280.4274773140413 L 136.3519092144051 279.52982560123314 L 137.35426939502204 278.632173888425 L 138.3487910530853 277.7345221756168 L 139.31817968580168 276.83687046280863 L 140.24706926696115 275.93921875000035 L 141.1228838451635 275.0415670371922 L 141.93649787541327 274.143915324384 L 142.68262953932233 273.2462636115758 L 143.35992983914636 272.3486118987676 L 143.97076294087665 271.4509601859594 L 144.52070580324488 270.5533084731512 L 145.01782351630072 269.65565676034305 L 145.4717977176357 268.7580050475348 L 145.89299684553305 267.8603533347266 L 146.2915780543724 266.9627016219184 L 146.67670190794524 266.0650499091102 L 147.05592415963991 265.1673981963021 L 147.43480651260614 264.26974648349386 L 147.81676313645258 263.37209477068564 L 148.2031348337784 262.47444305787747 L 148.59346071331424 261.5767913450693 L 148.9859000722595 260.67913963226107 L 149.3777462281622 259.7814879194529 L 149.76596981403623 258.8838362066447 L 150.14773138718363 257.9861844938365 L 150.5208113264516 257.08853278102833 L 150.88391766870654 256.1908810682201 L 151.23684821989443 255.2932293554119 L 151.58050026524393 254.3955776426037 L 151.91673777086328 253.4979259297955 L 152.24814050007492 252.60027421698732 L 152.57767058905867 251.70262250417915 L 152.90829883181698 250.8049707913709 L 153.2426346838545 249.90731907856275 L 153.5826008243811 249.00966736575455 L 153.9291855967069 248.11201565294635 L 154.2822958562326 247.21436394013816 L 154.64072014272236 246.31671222732996 L 155.00219927744894 245.41906051452176 L 155.36359003012953 244.5214088017136 L 155.72109869596412 243.62375708890534 L 156.07055611760475 242.7261053760972 L 156.40770419504202 241.828453663289 L 156.72846602965691 240.9308019504808 L 157.02917688089767 240.0331502376726 L 157.30676010840057 239.13549852486443 L 157.55884013646357 238.2378468120562 L 157.78379216181045 237.34019509924804 L 157.98073495574752 236.44254338643984 L 158.1494780727167 235.54489167363164 L 158.29043774082672 234.6472399608234 L 158.4045366196592 233.74958824801524 L 158.49310163624511 232.85193653520702 L 158.5577715895106 231.9542848223989 L 158.60042259482572 231.05663310959062 L 158.62311523124635 230.1589813967825 L 158.62806297952804 229.26132968397428 L 158.61761770386826 228.3636779711661 L 158.59426498263278 227.46602625835789 L 158.5606203853091 226.56837454554966 L 158.51941754100727 225.6707228327415 L 158.47348009295015 224.77307111993326 L 158.4256722346725 223.87541940712515 L 158.3788261347232 222.97776769431687 L 158.33564867171063 222.08011598150875 L 158.2986139124284 221.18246426870047 L 158.26985104867475 220.28481255589236 L 158.25103952270902 219.38716084308413 L 158.24332345367364 218.4895091302759 L 158.2472561108197 217.59185741746774 L 158.2627822226964 216.69420570465957 L 158.289261779347 215.79655399185134 L 158.32553428116123 214.89890227904317 L 158.3700178048381 214.001250566235 L 158.42083345475706 213.10359885342677 L 158.4759432664675 212.20594714061855 L 158.53328872430538 211.30829542781038 L 158.59091778223234 210.41064371500215 L 158.64709042024637 209.51299200219404 L 158.70035591676012 208.61534028938576 L 158.74959864798893 207.71768857657764 L 158.79405280178366 206.82003686376942 L 158.83328945205602 205.92238515096125 L 158.86718165540603 205.02473343815302 L 158.89585444784356 204.12708172534485 L 158.9196268483387 203.22943001253662 L 158.93895236657357 202.33177829972846 L 158.9543633034153 201.43412658692029 L 158.9664225985264 200.53647487411206 L 158.97568538092634 199.6388231613039 L 158.98267092613145 198.74117144849566 L 158.98784455878032 197.84351973568744 L 158.9916082296435 196.94586802287927 L 159.0083917703565 196.94586802287927 L 159.01215544121968 197.84351973568744 L 159.01732907386855 198.74117144849566 L 159.02431461907366 199.6388231613039 L 159.0335774014736 200.53647487411206 L 159.0456366965847 201.43412658692029 L 159.06104763342643 202.33177829972846 L 159.0803731516613 203.22943001253662 L 159.10414555215644 204.12708172534485 L 159.13281834459397 205.02473343815302 L 159.16671054794398 205.92238515096125 L 159.20594719821634 206.82003686376942 L 159.25040135201107 207.71768857657764 L 159.29964408323988 208.61534028938576 L 159.35290957975363 209.51299200219404 L 159.40908221776766 210.41064371500215 L 159.46671127569462 211.30829542781038 L 159.5240567335325 212.20594714061855 L 159.57916654524294 213.10359885342677 L 159.6299821951619 214.001250566235 L 159.67446571883877 214.89890227904317 L 159.710738220653 215.79655399185134 L 159.7372177773036 216.69420570465957 L 159.7527438891803 217.59185741746774 L 159.75667654632636 218.4895091302759 L 159.74896047729098 219.38716084308413 L 159.73014895132525 220.28481255589236 L 159.7013860875716 221.18246426870047 L 159.66435132828937 222.08011598150875 L 159.6211738652768 222.97776769431687 L 159.5743277653275 223.87541940712515 L 159.52651990704985 224.77307111993326 L 159.48058245899273 225.6707228327415 L 159.4393796146909 226.56837454554966 L 159.40573501736722 227.46602625835789 L 159.38238229613174 228.3636779711661 L 159.37193702047196 229.26132968397428 L 159.37688476875365 230.1589813967825 L 159.39957740517428 231.05663310959062 L 159.4422284104894 231.9542848223989 L 159.50689836375489 232.85193653520702 L 159.5954633803408 233.74958824801524 L 159.70956225917328 234.6472399608234 L 159.8505219272833 235.54489167363164 L 160.01926504425248 236.44254338643984 L 160.21620783818955 237.34019509924804 L 160.44115986353643 238.2378468120562 L 160.69323989159943 239.13549852486443 L 160.97082311910233 240.0331502376726 L 161.27153397034309 240.9308019504808 L 161.59229580495798 241.828453663289 L 161.92944388239525 242.7261053760972 L 162.27890130403588 243.62375708890534 L 162.63640996987047 244.5214088017136 L 162.99780072255106 245.41906051452176 L 163.35927985727764 246.31671222732996 L 163.7177041437674 247.21436394013816 L 164.0708144032931 248.11201565294635 L 164.4173991756189 249.00966736575455 L 164.7573653161455 249.90731907856275 L 165.09170116818302 250.8049707913709 L 165.42232941094133 251.70262250417915 L 165.75185949992508 252.60027421698732 L 166.08326222913672 253.4979259297955 L 166.41949973475607 254.3955776426037 L 166.76315178010557 255.2932293554119 L 167.11608233129346 256.1908810682201 L 167.4791886735484 257.08853278102833 L 167.85226861281637 257.9861844938365 L 168.23403018596377 258.8838362066447 L 168.6222537718378 259.7814879194529 L 169.0140999277405 260.67913963226107 L 169.40653928668576 261.5767913450693 L 169.7968651662216 262.47444305787747 L 170.18323686354742 263.37209477068564 L 170.56519348739386 264.26974648349386 L 170.94407584036009 265.1673981963021 L 171.32329809205476 266.0650499091102 L 171.7084219456276 266.9627016219184 L 172.10700315446695 267.8603533347266 L 172.5282022823643 268.7580050475348 L 172.98217648369928 269.65565676034305 L 173.47929419675512 270.5533084731512 L 174.02923705912335 271.4509601859594 L 174.64007016085364 272.3486118987676 L 175.31737046067767 273.2462636115758 L 176.06350212458673 274.143915324384 L 176.8771161548365 275.0415670371922 L 177.75293073303885 275.93921875000035 L 178.68182031419832 276.83687046280863 L 179.6512089469147 277.7345221756168 L 180.64573060497796 278.632173888425 L 181.6480907855949 279.52982560123314 L 182.64004316237947 280.4274773140413 L 183.60338557099058 281.3251290268496 L 184.52088242520028 282.22278073965776 L 185.37703536561526 283.12043245246593 L 186.15864825837699 284.01808416527416 L 186.8551627925597 284.91573587808233 L 187.458772151275 285.8133875908905 L 187.96434769089004 286.7110393036987 L 188.36923309252845 287.6086910165069 L 188.67296931712997 288.50634272931507 L 188.87701107010125 289.40399444212335 L 188.98448255401448 290.3016461549315 L 189 291.1992978677397 L 188.9295649185541 292.09694958054786 L 188.78050965481114 292.994601293356 L 188.5614596559278 293.89225300616425 L 188.2822676785777 294.7899047189725 L 187.95387521739073 295.68755643178065 L 187.5880652878824 296.5852081445889 L 187.19708649115643 297.48285985739705 L 186.79314821687728 298.3805115702053 L 186.38780774161356 299.27816328301344 L 185.99128888695185 300.1758149958216 L 185.61178646624347 301.07346670862984 L 185.25481944966273 301.97111842143806 L 184.92269793462165 302.86877013424623 L 184.61416464776195 303.7664218470544 L 184.3242613545947 304.66407355986263 L 184.0444550622803 305.5617252726708 L 183.76303933151067 306.459376985479 L 183.46580362427102 307.3570286982872 L 183.13693991381894 308.25468041109536 L 182.76013258799895 309.1523321239036 L 182.31975710998867 310.04998383671176 L 181.80209727508435 310.94763554952 L 181.1964824717619 311.84528726232816 L 180.49624695466932 312.7429389751363 L 179.69942378101626 313.64059068794455 L 178.80910659526546 314.5382424007528 L 177.83344134663858 315.43589411356095 L 176.785244424457 316.3335458263691 L 175.68127967656054 317.2311975391773 L 174.54125988061222 318.1288492519855 L 173.38666415595316 319.02650096479374 L 172.23947808211742 319.9241526776019 L 171.1209659449255 320.8218043904101 L 170.0505744251639 321.7194561032183 L 169.0450459485818 322.6171078160265 L 168.11779122402518 323.5147595288347 L 167.2785386467276 324.41241124164287 L 166.5332479450771 325.31006295445104 L 165.88425086878024 326.20771466725927 L 165.33056578421244 327.1053663800675 L 164.8683270083554 328.00301809287566 L 164.49127303516724 328.90066980568383 L 164.19124839046614 329.79832151849206 L 163.9586885579507 330.69597323130023 L 163.78307275966142 331.59362494410846 L 163.65334220725467 332.4912766569166 L 163.5582895517775 333.38892836972485 L 163.48692770905723 334.2865800825331 L 163.42884341960206 335.18423179534125 L 163.3745343297364 336.0818835081494 L 163.31572026478415 336.9795352209576 L 163.24561208653495 337.87718693376576 L 163.15911712648517 338.774838646574 L 163.05295996881716 339.6724903593822 L 162.9257016830457 340.5701420721904 L 162.77764888778626 341.46779378499855 L 162.61065490936647 342.3654454978068 L 162.4278269694298 343.26309721061494 L 162.23316388652313 344.16074892342317 L 162.0311565469969 345.05840063623134 L 161.82638723869886 345.9560523490395 L 161.62316335250435 346.85370406184774 L 161.4252161296633 347.75135577465596 L 161.23548685371088 348.64900748746413 L 161.05601237539744 349.5466592002723 L 160.88791056542925 350.44431091308047 L 160.73145566983217 351.3419626258887 L 160.58622486637535 352.2396143386969 L 160.4512915168791 353.1372660515051 L 160.32543817133023 354.03491776431326 L 160.2073633276161 354.9325694771215 L 160.09585986838445 355.8302211899297 L 159.98994921499312 356.7278729027379 L 159.88896256619188 357.62552461554606 L 159.79256806489383 358.5231763283543 L 159.7007493827864 359.4208280411625 L 159.61374626717765 360.3184797539707 L 159.53197059925174 361.21613146677885 L 159.45591234961054 362.1137831795871 L 159.38604868677464 363.01143489239524 L 159.32276684886216 363.90908660520347 L 159.26630782895404 364.80673831801164 L 159.21673408837196 365.7043900308198 L 159.17392097040823 366.60204174362804 L 159.13756866765544 367.4996934564362 L 159.10722974227343 368.39734516924443 L 159.08234636575017 369.2949968820526 L 159.06229152888127 370.19264859486077 L 159.04640925934766 371.090300307669 L 159.03405010580846 371.9879520204772 L 159.02459953656475 372.8856037332854 L 159.0174982317331 373.78325544609356 L 159.01225436043822 374.6809071589018 L 159.0084487419463 375.57855887170996 Z" stroke="black" stroke-width="0.5" fill="steelblue" /><path d="M 358.98739531791017 427.07486607069046 L 358.9836769455745 425.6723818229077 L 358.978964857957 424.26989757512496 L 358.9730237812502 422.8674133273422 L 358.96557091751293 421.46492907955945 L 358.9562683673774 420.0624448317767 L 358.9447148057944 418.65996058399395 L 358.93043644013585 417.2574763362112 L 358.91287730934806 415.85499208842845 L 358.8913890176281 414.4525078406457 L 358.8652200363512 413.05002359286294 L 358.83350475355314 411.6475393450802 L 358.79525250077427 410.24505509729744 L 358.7493368417783 408.8425708495147 L 358.6944854654966 407.44008660173193 L 358.62927108502754 406.0376023539492 L 358.5521038036993 404.63511810616643 L 358.461225465673 403.2326338583837 L 358.354706559413 401.8301496106009 L 358.23044628423185 400.4276653628182 L 358.0861764192502 399.0251811150354 L 357.91946964641954 397.62269686725267 L 357.72775297047997 396.2202126194699 L 357.5083268446256 394.81772837168717 L 357.25839054724383 393.4152441239044 L 356.97507425892627 392.01275987612166 L 356.6554781574381 390.6102756283389 L 356.2967186800751 389.20779138055616 L 355.89598189799915 387.8053071327734 L 355.4505837077405 386.40282288499066 L 354.9580362752653 385.0003386372079 L 354.41611987432947 383.59785438942515 L 353.8229589522106 382.1953701416424 L 353.1771009435896 380.79288589385965 L 352.4775960507579 379.3904016460769 L 351.72407593053777 377.98791739829414 L 350.91682899153307 376.5854331505114 L 350.0568698260909 375.18294890272864 L 349.14600019556235 373.7804646549459 L 348.1868589693663 372.37798040716314 L 347.18295849952824 370.9754961593803 L 346.1387051005461 369.57301191159763 L 345.05940160268625 368.1705276638148 L 343.9512303527227 366.7680434160321 L 342.82121554137797 365.3655591682493 L 341.67716432694266 363.9630749204666 L 340.5275868796148 362.5605906726838 L 339.38159616584056 361.1581064249011 L 338.2487889972149 359.7556221771183 L 337.13911055271024 358.3531379293356 L 336.0627052138174 356.9506536815528 L 335.0297570984659 355.5481694337701 L 334.05032411339675 354.1456851859873 L 333.1341696430467 352.74320093820455 L 332.29059613965626 351.3407166904218 L 331.528284865725 349.93823244263905 L 330.8551458660947 348.5357481948563 L 330.27818192142183 347.13326394707354 L 329.80336977427 345.7307796992908 L 329.4355613471648 344.32829545150804 L 329.17840701775276 342.9258112037253 L 329.03430231215185 341.52332695594254 L 329.00435865733385 340.1208427081598 L 329.08839812958144 338.71835846037703 L 329.28497147822753 337.3158742125943 L 329.59139811663584 335.91338996481153 L 330.0038262741654 334.5109057170288 L 330.51731110518284 333.108421469246 L 331.1259082585025 331.7059372214633 L 331.82278022081755 330.3034529736805 L 332.60031265298545 328.90096872589777 L 333.4502379264967 327.49848447811496 L 334.3637631245386 326.09600023033227 L 335.3316998823264 324.69351598254946 L 336.3445935900924 323.29103173476676 L 337.3928496566265 321.88854748698395 L 338.46685472187033 320.48606323920126 L 339.557090907639 319.08357899141845 L 340.6542414034286 317.68109474363575 L 341.7492858999718 316.27861049585294 L 342.83358460949455 314.87612624807025 L 343.89894985257524 313.47364200028744 L 344.9377044512453 312.07115775250475 L 345.94272644956317 310.66867350472194 L 346.90747998735515 309.26618925693924 L 347.8260324783403 307.86370500915643 L 348.69305858544107 306.46122076137374 L 349.5038318354917 305.05873651359093 L 350.25420506166336 303.65625226580823 L 350.94058119134235 302.2537680180254 L 351.5598761952127 300.85128377024273 L 352.10947626486455 299.4487995224599 L 352.5871914771392 298.0463152746772 L 352.99120832119013 296.6438310268944 L 353.32004349917474 295.2413467791117 L 353.5725013572681 293.8388625313289 L 353.7476371578406 292.43637828354616 L 353.84472816774087 291.0338940357634 L 353.8632542172544 289.6314097879807 L 353.80288898880167 288.2289255401979 L 353.6635028364766 286.8264412924152 L 353.44517743259115 285.4239570446324 L 353.1482320031859 284.0214727968497 L 352.77326037026523 282.6189885490669 L 352.3211774845187 281.2165043012842 L 351.7932736290072 279.8140200535014 L 351.19127402186666 278.4115358057187 L 350.51740116370286 277.0090515579359 L 349.77443698056464 275.6065673101532 L 348.96578162145715 274.2040830623704 L 348.09550569260466 272.8015988145877 L 347.16839275774794 271.3991145668049 L 346.1899691090715 269.99663031902213 L 345.1665181164204 268.5941460712394 L 344.10507688755314 267.1916618234566 L 343.01341350799254 265.7891775756739 L 341.8999837587724 264.3866933278911 L 340.7738669120151 262.98420908010837 L 339.64468095121583 261.5817248323256 L 338.5224783252128 260.17924058454287 L 337.4176240896911 258.7767563367601 L 336.3406589846888 257.37427208897736 L 335.3021506090489 255.97178784119458 L 334.31253635422166 254.56930359341186 L 333.3819621261422 253.16681934562908 L 332.52012109735915 251.76433509784633 L 331.7360967819935 250.36185085006358 L 331.03821461168786 248.95936660228085 L 330.43390591824044 247.55688235449807 L 329.92958781313934 246.15439810671532 L 329.53056191800044 244.75191385893254 L 329.2409342710897 243.3494296111498 L 329.0635580457018 241.94694536336706 L 329 240.5444611155843 L 329.05053086835676 239.14197686780153 L 329.21413923203306 237.73949262001878 L 329.48856779848586 236.33700837223606 L 329.87037049406223 234.93452412445328 L 330.3549883478684 233.53203987667052 L 330.93684182158023 232.12955562888777 L 331.6094370204522 230.72707138110502 L 332.36548309832136 229.32458713332227 L 333.197018132817 227.92210288553952 L 334.0955407819535 226.51961863775682 L 335.0521451240365 225.117134389974 L 336.05765621379845 223.71465014219126 L 337.1027640450003 222.3121658944085 L 338.1781537822422 220.9096816466258 L 339.2746303046846 219.507197398843 L 340.38323528766244 218.10471315106025 L 341.495355233991 216.7022289032775 L 342.60281905699986 215.2997446554948 L 343.69798401561275 213.897260407712 L 344.7738090123541 212.49477615992924 L 345.823914491749 211.0922919121465 L 346.84262842141675 209.6898076643638 L 347.8250181011883 208.287323416581 L 348.7669078240118 206.88483916879824 L 349.66488270061836 205.48235492101543 L 350.5162792497107 204.0798706732328 L 351.3191636366191 202.67738642544998 L 352.0722987046005 201.27490217766723 L 352.77510117270793 199.87241792988442 L 353.4275905617336 198.46993368210173 L 354.030331546215 197.06744943431897 L 354.58437150953847 195.66496518653622 L 355.0911750975388 194.2624809387534 L 355.55255752381964 192.85999669097072 L 355.9706182808025 191.45751244318797 L 356.34767676079247 190.0550281954052 L 356.6862111001925 188.6525439476224 L 356.98880133825327 187.2500596998397 L 357.2580777412761 185.84757545205696 L 357.4966748960059 184.4450912042742 L 357.70719193346 183.0426069564914 L 357.8921590167647 181.6401227087087 L 358.0540100220274 180.2376384609259 L 358.1950611660625 178.8351542131432 L 358.31749519282874 177.4326699653604 L 358.42335062341186 176.0301857175777 L 358.5145155019277 174.62770146979489 L 358.5927250297157 173.22521722201213 L 358.65956246915204 171.82273297422938 L 358.7164627119213 170.4202487264467 L 358.76471793968625 169.01776447866388 L 358.80548485271197 167.61528023088113 L 358.8397929992282 166.21279598309837 L 358.8685538007238 164.81031173531568 L 358.89256993213655 163.40782748753287 L 358.9125447779603 162.00534323975012 L 358.92909174331595 160.60285899196737 L 358.94274325145113 159.20037474418467 L 358.95395930502326 157.7978904964018 L 358.9631355275358 156.3954062486191 L 358.97061063352777 154.9929220008363 L 358.97667330199204 153.59043775305366 L 358.9815684476514 152.1879535052708 L 358.9855028999118 150.7854692574881 L 358.98865051033715 149.3829850097053 L 358.9911567171131 147.9805007619226 L 359.0088432828869 147.9805007619226 L 359.01134948966285 149.3829850097053 L 359.0144971000882 150.7854692574881 L 359.0184315523486 152.1879535052708 L 359.02332669800796 153.59043775305366 L 359.02938936647223 154.9929220008363 L 359.0368644724642 156.3954062486191 L 359.04604069497674 157.7978904964018 L 359.05725674854887 159.20037474418467 L 359.07090825668405 160.60285899196737 L 359.0874552220397 162.00534323975012 L 359.10743006786345 163.40782748753287 L 359.1314461992762 164.81031173531568 L 359.1602070007718 166.21279598309837 L 359.19451514728803 167.61528023088113 L 359.23528206031375 169.01776447866388 L 359.2835372880787 170.4202487264467 L 359.34043753084796 171.82273297422938 L 359.4072749702843 173.22521722201213 L 359.4854844980723 174.62770146979489 L 359.57664937658814 176.0301857175777 L 359.68250480717126 177.4326699653604 L 359.8049388339375 178.8351542131432 L 359.9459899779726 180.2376384609259 L 360.1078409832353 181.6401227087087 L 360.29280806654 183.0426069564914 L 360.5033251039941 184.4450912042742 L 360.7419222587239 185.84757545205696 L 361.01119866174673 187.2500596998397 L 361.3137888998075 188.6525439476224 L 361.65232323920753 190.0550281954052 L 362.0293817191975 191.45751244318797 L 362.44744247618036 192.85999669097072 L 362.9088249024612 194.2624809387534 L 363.41562849046153 195.66496518653622 L 363.969668453785 197.06744943431897 L 364.5724094382664 198.46993368210173 L 365.22489882729207 199.87241792988442 L 365.9277012953995 201.27490217766723 L 366.6808363633809 202.67738642544998 L 367.4837207502893 204.0798706732328 L 368.33511729938164 205.48235492101543 L 369.2330921759882 206.88483916879824 L 370.1749818988117 208.287323416581 L 371.15737157858325 209.6898076643638 L 372.176085508251 211.0922919121465 L 373.2261909876459 212.49477615992924 L 374.30201598438725 213.897260407712 L 375.39718094300014 215.2997446554948 L 376.504644766009 216.7022289032775 L 377.61676471233756 218.10471315106025 L 378.7253696953154 219.507197398843 L 379.8218462177578 220.9096816466258 L 380.8972359549997 222.3121658944085 L 381.94234378620155 223.71465014219126 L 382.9478548759635 225.117134389974 L 383.9044592180465 226.51961863775682 L 384.802981867183 227.92210288553952 L 385.63451690167864 229.32458713332227 L 386.3905629795478 230.72707138110502 L 387.06315817841977 232.12955562888777 L 387.6450116521316 233.53203987667052 L 388.12962950593777 234.93452412445328 L 388.51143220151414 236.33700837223606 L 388.78586076796694 237.73949262001878 L 388.94946913164324 239.14197686780153 L 389 240.5444611155843 L 388.9364419542982 241.94694536336706 L 388.7590657289103 243.3494296111498 L 388.46943808199956 244.75191385893254 L 388.07041218686066 246.15439810671532 L 387.56609408175956 247.55688235449807 L 386.96178538831214 248.95936660228085 L 386.2639032180065 250.36185085006358 L 385.47987890264085 251.76433509784633 L 384.6180378738578 253.16681934562908 L 383.68746364577834 254.56930359341186 L 382.6978493909511 255.97178784119458 L 381.6593410153112 257.37427208897736 L 380.5823759103089 258.7767563367601 L 379.4775216747872 260.17924058454287 L 378.35531904878417 261.5817248323256 L 377.2261330879849 262.98420908010837 L 376.1000162412276 264.3866933278911 L 374.98658649200746 265.7891775756739 L 373.89492311244686 267.1916618234566 L 372.8334818835796 268.5941460712394 L 371.8100308909285 269.99663031902213 L 370.83160724225206 271.3991145668049 L 369.90449430739534 272.8015988145877 L 369.03421837854285 274.2040830623704 L 368.22556301943536 275.6065673101532 L 367.48259883629714 277.0090515579359 L 366.80872597813334 278.4115358057187 L 366.2067263709928 279.8140200535014 L 365.6788225154813 281.2165043012842 L 365.22673962973477 282.6189885490669 L 364.8517679968141 284.0214727968497 L 364.55482256740885 285.4239570446324 L 364.3364971635234 286.8264412924152 L 364.19711101119833 288.2289255401979 L 364.1367457827456 289.6314097879807 L 364.15527183225913 291.0338940357634 L 364.2523628421594 292.43637828354616 L 364.4274986427319 293.8388625313289 L 364.67995650082526 295.2413467791117 L 365.00879167880987 296.6438310268944 L 365.4128085228608 298.0463152746772 L 365.89052373513545 299.4487995224599 L 366.4401238047873 300.85128377024273 L 367.05941880865765 302.2537680180254 L 367.74579493833664 303.65625226580823 L 368.4961681645083 305.05873651359093 L 369.30694141455893 306.46122076137374 L 370.1739675216597 307.86370500915643 L 371.09252001264485 309.26618925693924 L 372.05727355043683 310.66867350472194 L 373.0622955487547 312.07115775250475 L 374.10105014742476 313.47364200028744 L 375.16641539050545 314.87612624807025 L 376.2507141000282 316.27861049585294 L 377.3457585965714 317.68109474363575 L 378.442909092361 319.08357899141845 L 379.53314527812967 320.48606323920126 L 380.6071503433735 321.88854748698395 L 381.6554064099076 323.29103173476676 L 382.6683001176736 324.69351598254946 L 383.6362368754614 326.09600023033227 L 384.5497620735033 327.49848447811496 L 385.39968734701455 328.90096872589777 L 386.17721977918245 330.3034529736805 L 386.8740917414975 331.7059372214633 L 387.48268889481716 333.108421469246 L 387.9961737258346 334.5109057170288 L 388.40860188336416 335.91338996481153 L 388.71502852177247 337.3158742125943 L 388.91160187041856 338.71835846037703 L 388.99564134266615 340.1208427081598 L 388.96569768784815 341.52332695594254 L 388.82159298224724 342.9258112037253 L 388.5644386528352 344.32829545150804 L 388.19663022573 345.7307796992908 L 387.72181807857817 347.13326394707354 L 387.1448541339053 348.5357481948563 L 386.471715134275 349.93823244263905 L 385.70940386034374 351.3407166904218 L 384.8658303569533 352.74320093820455 L 383.94967588660325 354.1456851859873 L 382.9702429015341 355.5481694337701 L 381.9372947861826 356.9506536815528 L 380.86088944728976 358.3531379293356 L 379.7512110027851 359.7556221771183 L 378.61840383415944 361.1581064249011 L 377.4724131203852 362.5605906726838 L 376.32283567305734 363.9630749204666 L 375.17878445862203 365.3655591682493 L 374.0487696472773 366.7680434160321 L 372.94059839731375 368.1705276638148 L 371.8612948994539 369.57301191159763 L 370.81704150047176 370.9754961593803 L 369.8131410306337 372.37798040716314 L 368.85399980443765 373.7804646549459 L 367.9431301739091 375.18294890272864 L 367.08317100846693 376.5854331505114 L 366.27592406946223 377.98791739829414 L 365.5224039492421 379.3904016460769 L 364.8228990564104 380.79288589385965 L 364.1770410477894 382.1953701416424 L 363.58388012567053 383.59785438942515 L 363.0419637247347 385.0003386372079 L 362.5494162922595 386.40282288499066 L 362.10401810200085 387.8053071327734 L 361.7032813199249 389.20779138055616 L 361.3445218425619 390.6102756283389 L 361.02492574107373 392.01275987612166 L 360.74160945275617 393.4152441239044 L 360.4916731553744 394.81772837168717 L 360.27224702952003 396.2202126194699 L 360.08053035358046 397.62269686725267 L 359.9138235807498 399.0251811150354 L 359.76955371576815 400.4276653628182 L 359.645293440587 401.8301496106009 L 359.538774534327 403.2326338583837 L 359.4478961963007 404.63511810616643 L 359.37072891497246 406.0376023539492 L 359.3055145345034 407.44008660173193 L 359.2506631582217 408.8425708495147 L 359.20474749922573 410.24505509729744 L 359.16649524644686 411.6475393450802 L 359.1347799636488 413.05002359286294 L 359.1086109823719 414.4525078406457 L 359.08712269065194 415.85499208842845 L 359.06956355986415 417.2574763362112 L 359.0552851942056 418.65996058399395 L 359.0437316326226 420.0624448317767 L 359.03442908248707 421.46492907955945 L 359.0269762187498 422.8674133273422 L 359.021035142043 424.26989757512496 L 359.0163230544255 425.6723818229077 L 359.01260468208983 427.07486607069046 Z" stroke="black" stroke-width="0.5" fill="steelblue" /><path d="M 558.9350385539959 316.2943207222488 L 558.894954216271 315.05837136495336 L 558.833670463356 313.8224220076579 L 558.7420877243511 312.58647265036245 L 558.6083177109472 311.350523293067 L 558.4173520823219 310.11457393577155 L 558.1509292115645 308.8786245784761 L 557.7877097929467 307.6426752211807 L 557.3038712549486 306.40672586388524 L 556.674209406795 305.1707765065898 L 555.8737894327434 303.9348271492943 L 554.8801174007876 302.6988777919988 L 553.6757136977676 301.4629284347034 L 552.2508732688065 300.2269790774079 L 550.6063114546106 298.99102972011246 L 548.7553383118523 297.755080362817 L 546.7251966711568 296.51913100552156 L 544.5572515762024 295.2831816482261 L 542.3058323885208 294.0472322909307 L 540.0356921860996 292.81128293363525 L 537.8182383970578 291.57533357633974 L 535.7268717663296 290.3393842190443 L 533.8319136403544 289.10343486174884 L 532.1956756752081 287.8674855044534 L 530.8682154082352 286.63153614715793 L 529.8842263515847 285.3955867898625 L 529.2613499932971 284.159637432567 L 529 282.92368807527157 L 529.0845925987826 281.6877387179761 L 529.485915650896 280.4517893606807 L 530.1642664080662 279.2158400033852 L 531.0729539448901 277.97989064608976 L 532.1617913317313 276.7439412887943 L 533.3802775662507 275.50799193149885 L 534.6802670741642 274.27204257420345 L 536.0180228259427 273.036093216908 L 537.3556312724477 271.80014385961255 L 538.6618153562218 270.5641945023171 L 539.9122159837694 269.32824514502164 L 541.0892283257195 268.09229578772613 L 542.1814848917912 266.8563464304308 L 543.1830789363086 265.6203970731353 L 544.0926225838716 264.3844477158399 L 544.9122338826081 263.1484983585444 L 545.6465433120752 261.91254900124886 L 546.3018002189464 260.67659964395347 L 546.8851416346406 259.440650286658 L 547.4040605640513 258.2047009293626 L 547.8660809532736 256.9687515720671 L 548.2786164577664 255.73280221477168 L 548.648964570455 254.4968528574762 L 548.9843707695665 253.26090350018077 L 549.2920919204278 252.02495414288532 L 549.5793952811499 250.78900478558984 L 549.8534482623324 249.5530554282944 L 550.1210817898191 248.31710607099893 L 550.3884421917586 247.0811567137035 L 550.6605771989033 245.84520735640805 L 550.9410247567661 244.60925799911263 L 551.2314836023811 243.37330864181715 L 551.5316388658359 242.13735928452166 L 551.8391945004292 240.90140992722624 L 552.1501309361075 239.6654605699308 L 552.4591677979216 238.42951121263536 L 552.7603760755618 237.19356185533982 L 553.0478593389295 235.95761249804445 L 553.3164143576473 234.72166314074894 L 553.5620887628212 233.48571378345355 L 553.7825741538735 232.24976442615804 L 553.9774013956234 231.01381506886264 L 554.1479339090312 229.77786571156713 L 554.2971787549803 228.54191635427173 L 554.4294510247624 227.30596699697622 L 554.5499342854331 226.07001763968077 L 554.6641808000015 224.83406828238532 L 554.7775932399342 223.59811892508986 L 554.8949274744544 222.36216956779447 L 555.019855037955 221.12622021049896 L 555.1546234031565 219.89027085320356 L 555.2998501146267 218.65432149590805 L 555.4544806026958 217.41837213861265 L 555.6159272507184 216.18242278131714 L 555.7803887913065 214.9464734240217 L 555.943326102628 213.7105240667263 L 556.1000464508936 212.47457470943078 L 556.2463276801067 211.2386253521354 L 556.3790012957551 210.00267599483988 L 556.4964123151738 208.76672663754448 L 556.598685786427 207.53077728024903 L 556.6877542600632 206.29482792295357 L 556.7671340469172 205.05887856565812 L 556.8414756009886 203.8229292083626 L 556.9159484627387 202.5869798510672 L 556.9955475551474 201.35103049377176 L 557.0844202538026 200.1150811364763 L 557.1853100295061 198.87913177918085 L 557.2991931764199 197.6431824218854 L 557.4251538534629 196.4072330645899 L 557.5605053513204 195.1712837072945 L 557.7011290986474 193.93533434999898 L 557.8419738066586 192.69938499270359 L 557.9776397443935 191.46343563540808 L 558.1029691016419 190.22748627811268 L 558.2135715690125 188.99153692081717 L 558.3062312946474 187.75558756352177 L 558.3791628368215 186.51963820622632 L 558.4321053278375 185.28368884893086 L 558.4662625951747 184.0477394916354 L 558.4841108016578 182.81179013433996 L 558.4891040850649 181.5758407770445 L 558.4853134799545 180.33989141974905 L 558.4770361639028 179.10394206245354 L 558.468411584803 177.8679927051582 L 558.4630785465665 176.63204334786263 L 558.4639026441363 175.3960939905673 L 558.4727962181171 174.16014463327178 L 558.4906432413993 172.9241952759764 L 558.5173298987316 171.68824591868088 L 558.551869430765 170.45229656138542 L 558.5925989242137 169.21634720408997 L 558.637418013332 167.98039784679452 L 558.6840363196102 166.74444848949906 L 558.7301984391031 165.5084991322036 L 558.7738619162877 164.27254977490816 L 558.8133135519663 163.0366004176127 L 558.847220663789 161.80065106031725 L 558.8746245349721 160.5647017030218 L 558.8948915506197 159.3287523457264 L 558.9076423302947 158.0928029884309 L 558.9126801158003 156.85685363113544 L 558.9099369957114 155.62090427383998 L 558.8994509518261 154.38495491654453 L 558.8813792041207 153.14900555924908 L 558.8560450670211 151.91305620195362 L 558.8240077171376 150.67710684465823 L 558.7861380896675 149.44115748736272 L 558.7436806259767 148.20520813006732 L 558.6982805886137 146.9692587727718 L 558.6519605036405 145.73330941547636 L 558.6070367278634 144.49736005818096 L 558.5659771947307 143.2614107008854 L 558.5312124200135 142.02546134359005 L 558.5049217671116 140.78951198629454 L 558.4888236795831 139.55356262899915 L 558.4840004539899 138.31761327170364 L 558.4907844318963 137.08166391440824 L 558.5087236854005 135.84571455711273 L 558.5366329403616 134.60976519981728 L 558.5727220141379 133.37381584252182 L 558.6147820820255 132.13786648522643 L 558.6604019030191 130.90191712793091 L 558.7071831204069 129.66596777063552 L 558.7529261378995 128.43001841334 L 558.7957649671839 127.19406905604461 L 558.8342391485979 125.9581196987491 L 558.8673013344767 124.7221703414537 L 558.8942685346152 123.48622098415825 L 558.914732040598 122.2502716268628 L 558.928445071052 121.01432226956729 L 558.9352082782913 119.77837291227189 L 558.9347719409876 118.54242355497638 L 558.9267706110933 117.30647419768098 L 558.9107017694466 116.07052484038547 L 558.8859550291602 114.83457548309008 L 558.8518927487607 113.59862612579457 L 558.8079766418808 112.36267676849917 L 558.7539282908522 111.12672741120372 L 558.6899048966791 109.8907780539082 L 558.6166660308465 108.65482869661281 L 558.5357038105993 107.4188793393173 L 558.4493090742842 106.1829299820219 L 558.3605507515209 104.94698062472645 L 558.2731549658109 103.711031267431 L 558.1912837464291 102.47508191013554 L 558.1192287770012 101.23913255284009 L 558.0610507465095 100.00318319554464 L 558.0202066233837 98.76723383824913 L 557.999212889751 97.53128448095373 L 557.9993907834261 96.29533512365828 L 558.0207297113866 95.05938576636282 L 558.0618886695098 93.82343640906737 L 558.1203355742635 92.58748705177192 L 558.1926045259155 91.35153769447646 L 558.2746348145248 90.11558833718101 L 558.3621457712459 88.87963897988556 L 558.4509997720264 87.6436896225901 L 558.537511586547 86.40774026529465 L 558.6186741166421 85.17179090799925 L 558.6922856811436 83.93584155070374 L 558.7569793600524 82.69989219340823 L 558.8121678483266 81.46394283611289 L 558.8579259838075 80.22799347881744 L 558.8948368920302 78.99204412152199 L 558.9238268647966 77.75609476422648 L 558.946009767885 76.52014540693096 L 558.9625554572425 75.28419604963557 L 558.9745898804358 74.04824669234011 L 558.9831284681762 72.81229733504466 L 558.989039843716 71.57634797774915 L 558.9930340833153 70.34039862045375 L 559.0069659166847 70.34039862045375 L 559.010960156284 71.57634797774915 L 559.0168715318238 72.81229733504466 L 559.0254101195642 74.04824669234011 L 559.0374445427575 75.28419604963557 L 559.053990232115 76.52014540693096 L 559.0761731352034 77.75609476422648 L 559.1051631079698 78.99204412152199 L 559.1420740161925 80.22799347881744 L 559.1878321516734 81.46394283611289 L 559.2430206399476 82.69989219340823 L 559.3077143188564 83.93584155070374 L 559.3813258833579 85.17179090799925 L 559.462488413453 86.40774026529465 L 559.5490002279736 87.6436896225901 L 559.6378542287541 88.87963897988556 L 559.7253651854752 90.11558833718101 L 559.8073954740845 91.35153769447646 L 559.8796644257365 92.58748705177192 L 559.9381113304902 93.82343640906737 L 559.9792702886134 95.05938576636282 L 560.0006092165739 96.29533512365828 L 560.000787110249 97.53128448095373 L 559.9797933766163 98.76723383824913 L 559.9389492534905 100.00318319554464 L 559.8807712229988 101.23913255284009 L 559.8087162535709 102.47508191013554 L 559.7268450341891 103.711031267431 L 559.6394492484791 104.94698062472645 L 559.5506909257158 106.1829299820219 L 559.4642961894007 107.4188793393173 L 559.3833339691535 108.65482869661281 L 559.3100951033209 109.8907780539082 L 559.2460717091478 111.12672741120372 L 559.1920233581192 112.36267676849917 L 559.1481072512393 113.59862612579457 L 559.1140449708398 114.83457548309008 L 559.0892982305534 116.07052484038547 L 559.0732293889067 117.30647419768098 L 559.0652280590124 118.54242355497638 L 559.0647917217087 119.77837291227189 L 559.071554928948 121.01432226956729 L 559.085267959402 122.2502716268628 L 559.1057314653848 123.48622098415825 L 559.1326986655233 124.7221703414537 L 559.1657608514021 125.9581196987491 L 559.2042350328161 127.19406905604461 L 559.2470738621005 128.43001841334 L 559.2928168795931 129.66596777063552 L 559.3395980969809 130.90191712793091 L 559.3852179179745 132.13786648522643 L 559.4272779858621 133.37381584252182 L 559.4633670596384 134.60976519981728 L 559.4912763145995 135.84571455711273 L 559.5092155681037 137.08166391440824 L 559.5159995460101 138.31761327170364 L 559.5111763204169 139.55356262899915 L 559.4950782328884 140.78951198629454 L 559.4687875799865 142.02546134359005 L 559.4340228052693 143.2614107008854 L 559.3929632721366 144.49736005818096 L 559.3480394963595 145.73330941547636 L 559.3017194113863 146.9692587727718 L 559.2563193740233 148.20520813006732 L 559.2138619103325 149.44115748736272 L 559.1759922828624 150.67710684465823 L 559.1439549329789 151.91305620195362 L 559.1186207958793 153.14900555924908 L 559.1005490481739 154.38495491654453 L 559.0900630042886 155.62090427383998 L 559.0873198841997 156.85685363113544 L 559.0923576697053 158.0928029884309 L 559.1051084493803 159.3287523457264 L 559.1253754650279 160.5647017030218 L 559.152779336211 161.80065106031725 L 559.1866864480337 163.0366004176127 L 559.2261380837123 164.27254977490816 L 559.2698015608969 165.5084991322036 L 559.3159636803898 166.74444848949906 L 559.362581986668 167.98039784679452 L 559.4074010757863 169.21634720408997 L 559.448130569235 170.45229656138542 L 559.4826701012684 171.68824591868088 L 559.5093567586007 172.9241952759764 L 559.5272037818829 174.16014463327178 L 559.5360973558637 175.3960939905673 L 559.5369214534335 176.63204334786263 L 559.531588415197 177.8679927051582 L 559.5229638360972 179.10394206245354 L 559.5146865200455 180.33989141974905 L 559.5108959149351 181.5758407770445 L 559.5158891983422 182.81179013433996 L 559.5337374048253 184.0477394916354 L 559.5678946721625 185.28368884893086 L 559.6208371631785 186.51963820622632 L 559.6937687053526 187.75558756352177 L 559.7864284309875 188.99153692081717 L 559.8970308983581 190.22748627811268 L 560.0223602556065 191.46343563540808 L 560.1580261933414 192.69938499270359 L 560.2988709013526 193.93533434999898 L 560.4394946486796 195.1712837072945 L 560.5748461465371 196.4072330645899 L 560.7008068235801 197.6431824218854 L 560.8146899704939 198.87913177918085 L 560.9155797461974 200.1150811364763 L 561.0044524448526 201.35103049377176 L 561.0840515372613 202.5869798510672 L 561.1585243990114 203.8229292083626 L 561.2328659530828 205.05887856565812 L 561.3122457399368 206.29482792295357 L 561.401314213573 207.53077728024903 L 561.5035876848262 208.76672663754448 L 561.6209987042449 210.00267599483988 L 561.7536723198933 211.2386253521354 L 561.8999535491064 212.47457470943078 L 562.056673897372 213.7105240667263 L 562.2196112086935 214.9464734240217 L 562.3840727492816 216.18242278131714 L 562.5455193973042 217.41837213861265 L 562.7001498853733 218.65432149590805 L 562.8453765968435 219.89027085320356 L 562.980144962045 221.12622021049896 L 563.1050725255456 222.36216956779447 L 563.2224067600658 223.59811892508986 L 563.3358191999985 224.83406828238532 L 563.4500657145669 226.07001763968077 L 563.5705489752376 227.30596699697622 L 563.7028212450197 228.54191635427173 L 563.8520660909688 229.77786571156713 L 564.0225986043766 231.01381506886264 L 564.2174258461265 232.24976442615804 L 564.4379112371788 233.48571378345355 L 564.6835856423527 234.72166314074894 L 564.9521406610705 235.95761249804445 L 565.2396239244382 237.19356185533982 L 565.5408322020784 238.42951121263536 L 565.8498690638925 239.6654605699308 L 566.1608054995708 240.90140992722624 L 566.4683611341641 242.13735928452166 L 566.7685163976189 243.37330864181715 L 567.0589752432339 244.60925799911263 L 567.3394228010967 245.84520735640805 L 567.6115578082414 247.0811567137035 L 567.8789182101809 248.31710607099893 L 568.1465517376676 249.5530554282944 L 568.4206047188501 250.78900478558984 L 568.7079080795722 252.02495414288532 L 569.0156292304335 253.26090350018077 L 569.351035429545 254.4968528574762 L 569.7213835422336 255.73280221477168 L 570.1339190467264 256.9687515720671 L 570.5959394359487 258.2047009293626 L 571.1148583653594 259.440650286658 L 571.6981997810536 260.67659964395347 L 572.3534566879248 261.91254900124886 L 573.0877661173919 263.1484983585444 L 573.9073774161284 264.3844477158399 L 574.8169210636914 265.6203970731353 L 575.8185151082088 266.8563464304308 L 576.9107716742805 268.09229578772613 L 578.0877840162306 269.32824514502164 L 579.3381846437782 270.5641945023171 L 580.6443687275523 271.80014385961255 L 581.9819771740573 273.036093216908 L 583.3197329258358 274.27204257420345 L 584.6197224337493 275.50799193149885 L 585.8382086682687 276.7439412887943 L 586.9270460551099 277.97989064608976 L 587.8357335919338 279.2158400033852 L 588.514084349104 280.4517893606807 L 588.9154074012174 281.6877387179761 L 589 282.92368807527157 L 588.7386500067029 284.159637432567 L 588.1157736484153 285.3955867898625 L 587.1317845917648 286.63153614715793 L 585.8043243247919 287.8674855044534 L 584.1680863596456 289.10343486174884 L 582.2731282336704 290.3393842190443 L 580.1817616029422 291.57533357633974 L 577.9643078139004 292.81128293363525 L 575.6941676114792 294.0472322909307 L 573.4427484237976 295.2831816482261 L 571.2748033288432 296.51913100552156 L 569.2446616881477 297.755080362817 L 567.3936885453894 298.99102972011246 L 565.7491267311935 300.2269790774079 L 564.3242863022324 301.4629284347034 L 563.1198825992124 302.6988777919988 L 562.1262105672566 303.9348271492943 L 561.325790593205 305.1707765065898 L 560.6961287450514 306.40672586388524 L 560.2122902070533 307.6426752211807 L 559.8490707884355 308.8786245784761 L 559.5826479176781 310.11457393577155 L 559.3916822890528 311.350523293067 L 559.2579122756489 312.58647265036245 L 559.166329536644 313.8224220076579 L 559.105045783729 315.05837136495336 L 559.0649614460041 316.2943207222488 Z" stroke="black" stroke-width="0.5" fill="steelblue" /><circle cx="169" cy="270.9000346594456" r="2.5" fill="rgba(0,0,0,0.35)" /><circle cx="159" cy="274.11098218173515" r="2.5" fill="rgba(0,0,0,0.35)" /><circle cx="169" cy="339.89678609046894" r="2.5" fill="rgba(0,0,0,0.35)" /><circle cx="154" cy="280.68758824038844" r="2.5" fill="rgba(0,0,0,0.35)" /><circle cx="171.5" cy="312.3947801677848" r="2.5" fill="rgba(0,0,0,0.35)" /><circle cx="184" cy="283.04187157081554" r="2.5" fill="rgba(0,0,0,0.35)" /><circle cx="159" cy="218.2912132428507" r="2.5" fill="rgba(0,0,0,0.35)" /><circle cx="171.5" cy="289.2124298210235" r="2.5" fill="rgba(0,0,0,0.35)" /><circle cx="184" cy="311.5738336661981" r="2.5" fill="rgba(0,0,0,0.35)" /><circle cx="154" cy="338.97561195964545" r="2.5" fill="rgba(0,0,0,0.35)" /><circle cx="169" cy="251.1155433519751" r="2.5" fill="rgba(0,0,0,0.35)" /><circle cx="169" cy="301.3126712597763" r="2.5" fill="rgba(0,0,0,0.35)" /><circle cx="134" cy="311.64458518596996" r="2.5" fill="rgba(0,0,0,0.35)" /><circle cx="149" cy="302.2526605834479" r="2.5" fill="rgba(0,0,0,0.35)" /><circle cx="141.5" cy="315.40205871942646" r="2.5" fill="rgba(0,0,0,0.35)" /><circle cx="156.5" cy="311.46638556593064" r="2.5" fill="rgba(0,0,0,0.35)" /><circle cx="166.5" cy="288.26598060213377" r="2.5" fill="rgba(0,0,0,0.35)" /><circle cx="194" cy="292.79205570382226" r="2.5" fill="rgba(0,0,0,0.35)" /><circle cx="159" cy="261.4562556712417" r="2.5" fill="rgba(0,0,0,0.35)" /><circle cx="174" cy="278.2258678071167" r="2.5" fill="rgba(0,0,0,0.35)" /><circle cx="164" cy="325.71750040376935" r="2.5" fill="rgba(0,0,0,0.35)" /><circle cx="159" cy="249.46499877264665" r="2.5" fill="rgba(0,0,0,0.35)" /><circle cx="184" cy="303.95595283685645" r="2.5" fill="rgba(0,0,0,0.35)" /><circle cx="131.5" cy="297.596946756418" r="2.5" fill="rgba(0,0,0,0.35)" /><circle cx="161.5" cy="314.04795531164336" r="2.5" fill="rgba(0,0,0,0.35)" /><circle cx="134" cy="283.5444197823688" r="2.5" fill="rgba(0,0,0,0.35)" /><circle cx="164" cy="318.6573119901901" r="2.5" fill="rgba(0,0,0,0.35)" /><circle cx="154" cy="257.90662387502744" r="2.5" fill="rgba(0,0,0,0.35)" /><circle cx="139" cy="289.2898694394253" r="2.5" fill="rgba(0,0,0,0.35)" /><circle cx="144" cy="267.563434510938" r="2.5" fill="rgba(0,0,0,0.35)" /><circle cx="179" cy="286.3021195726362" r="2.5" fill="rgba(0,0,0,0.35)" /><circle cx="144" cy="285.7609672031405" r="2.5" fill="rgba(0,0,0,0.35)" /><circle cx="176.5" cy="291.4138489477614" r="2.5" fill="rgba(0,0,0,0.35)" /><circle cx="161.5" cy="289.9801530691154" r="2.5" fill="rgba(0,0,0,0.35)" /><circle cx="159" cy="243.75711449190513" r="2.5" fill="rgba(0,0,0,0.35)" /><circle cx="159" cy="306.4964423856517" r="2.5" fill="rgba(0,0,0,0.35)" /><circle cx="164" cy="298.57634128664426" r="2.5" fill="rgba(0,0,0,0.35)" /><circle cx="189" cy="283.6462880311691" r="2.5" fill="rgba(0,0,0,0.35)" /><circle cx="144" cy="280.5806111609315" r="2.5" fill="rgba(0,0,0,0.35)" /><circle cx="154" cy="275.60740142403586" r="2.5" fill="rgba(0,0,0,0.35)" /><circle cx="166.5" cy="293.4886097662511" r="2.5" fill="rgba(0,0,0,0.35)" /><circle cx="134" cy="292.0478774397574" r="2.5" fill="rgba(0,0,0,0.35)" /><circle cx="141.5" cy="295.8043984358417" r="2.5" fill="rgba(0,0,0,0.35)" /><circle cx="164" cy="249.54808009690703" r="2.5" fill="rgba(0,0,0,0.35)" /><circle cx="199" cy="286.6777824654861" r="2.5" fill="rgba(0,0,0,0.35)" /><circle cx="169" cy="282.39505736552456" r="2.5" fill="rgba(0,0,0,0.35)" /><circle cx="149" cy="282.63308566810133" r="2.5" fill="rgba(0,0,0,0.35)" /><circle cx="174" cy="302.3314625705972" r="2.5" fill="rgba(0,0,0,0.35)" /><circle cx="159" cy="335.9521409482491" r="2.5" fill="rgba(0,0,0,0.35)" /><circle cx="159" cy="354.23321365173854" r="2.5" fill="rgba(0,0,0,0.35)" /><circle cx="164" cy="268.9886298920709" r="2.5" fill="rgba(0,0,0,0.35)" /><circle cx="161.5" cy="284.91605840033196" r="2.5" fill="rgba(0,0,0,0.35)" /><circle cx="151.5" cy="294.7005590225326" r="2.5" fill="rgba(0,0,0,0.35)" /><circle cx="164" cy="337.3882434337833" r="2.5" fill="rgba(0,0,0,0.35)" /><circle cx="159" cy="295.40059862370305" r="2.5" fill="rgba(0,0,0,0.35)" /><circle cx="124" cy="292.88338588592427" r="2.5" fill="rgba(0,0,0,0.35)" /><circle cx="194" cy="315.72607003857115" r="2.5" fill="rgba(0,0,0,0.35)" /><circle cx="166.5" cy="314.25942430674417" r="2.5" fill="rgba(0,0,0,0.35)" /><circle cx="184" cy="296.3758168442842" r="2.5" fill="rgba(0,0,0,0.35)" /><circle cx="146.5" cy="314.56370137281397" r="2.5" fill="rgba(0,0,0,0.35)" /><circle cx="164" cy="303.8070951852445" r="2.5" fill="rgba(0,0,0,0.35)" /><circle cx="171.5" cy="294.7376448568209" r="2.5" fill="rgba(0,0,0,0.35)" /><circle cx="154" cy="264.05497553590203" r="2.5" fill="rgba(0,0,0,0.35)" /><circle cx="144" cy="309.4740615433421" r="2.5" fill="rgba(0,0,0,0.35)" /><circle cx="149" cy="277.3416847932246" r="2.5" fill="rgba(0,0,0,0.35)" /><circle cx="164" cy="263.31845583819234" r="2.5" fill="rgba(0,0,0,0.35)" /><circle cx="194" cy="283.8231221452536" r="2.5" fill="rgba(0,0,0,0.35)" /><circle cx="164" cy="274.6811628518032" r="2.5" fill="rgba(0,0,0,0.35)" /><circle cx="149" cy="307.8982337880964" r="2.5" fill="rgba(0,0,0,0.35)" /><circle cx="146.5" cy="290.1256811771067" r="2.5" fill="rgba(0,0,0,0.35)" /><circle cx="159" cy="325.39467547234096" r="2.5" fill="rgba(0,0,0,0.35)" /><circle cx="179" cy="295.8270757315795" r="2.5" fill="rgba(0,0,0,0.35)" /><circle cx="154" cy="269.245889538402" r="2.5" fill="rgba(0,0,0,0.35)" /><circle cx="129" cy="315.47903463706785" r="2.5" fill="rgba(0,0,0,0.35)" /><circle cx="146.5" cy="295.749381790791" r="2.5" fill="rgba(0,0,0,0.35)" /><circle cx="174" cy="283.28639615651707" r="2.5" fill="rgba(0,0,0,0.35)" /><circle cx="144" cy="302.8667668492211" r="2.5" fill="rgba(0,0,0,0.35)" /><circle cx="159" cy="300.93400648273166" r="2.5" fill="rgba(0,0,0,0.35)" /><circle cx="154" cy="249.6083365872375" r="2.5" fill="rgba(0,0,0,0.35)" /><circle cx="154" cy="328.56691376135433" r="2.5" fill="rgba(0,0,0,0.35)" /><circle cx="156.5" cy="316.729321310882" r="2.5" fill="rgba(0,0,0,0.35)" /><circle cx="156.5" cy="285.73097551578144" r="2.5" fill="rgba(0,0,0,0.35)" /><circle cx="181.5" cy="316.7401452866483" r="2.5" fill="rgba(0,0,0,0.35)" /><circle cx="179" cy="302.8904442251536" r="2.5" fill="rgba(0,0,0,0.35)" /><circle cx="164" cy="257.7398780718911" r="2.5" fill="rgba(0,0,0,0.35)" /><circle cx="151.5" cy="288.8411451996648" r="2.5" fill="rgba(0,0,0,0.35)" /><circle cx="184" cy="290.2633673335429" r="2.5" fill="rgba(0,0,0,0.35)" /><circle cx="169" cy="307.44413218151243" r="2.5" fill="rgba(0,0,0,0.35)" /><circle cx="189" cy="297.65728344931995" r="2.5" fill="rgba(0,0,0,0.35)" /><circle cx="136.5" cy="316.92141149220976" r="2.5" fill="rgba(0,0,0,0.35)" /><circle cx="169" cy="276.685676341752" r="2.5" fill="rgba(0,0,0,0.35)" /><circle cx="154" cy="306.8110035662776" r="2.5" fill="rgba(0,0,0,0.35)" /><circle cx="129" cy="283.78288957001166" r="2.5" fill="rgba(0,0,0,0.35)" /><circle cx="124" cy="284.40714589174934" r="2.5" fill="rgba(0,0,0,0.35)" /><circle cx="159" cy="255.9758997037675" r="2.5" fill="rgba(0,0,0,0.35)" /><circle cx="169" cy="261.89918690165797" r="2.5" fill="rgba(0,0,0,0.35)" /><circle cx="174" cy="308.0314094874527" r="2.5" fill="rgba(0,0,0,0.35)" /><circle cx="139" cy="310.27924290853616" r="2.5" fill="rgba(0,0,0,0.35)" /><circle cx="176.5" cy="269.02959188384136" r="2.5" fill="rgba(0,0,0,0.35)" /><circle cx="159" cy="344.4420054817122" r="2.5" fill="rgba(0,0,0,0.35)" /><circle cx="129" cy="292.7916500951138" r="2.5" fill="rgba(0,0,0,0.35)" /><circle cx="139" cy="282.99719362714904" r="2.5" fill="rgba(0,0,0,0.35)" /><circle cx="126.5" cy="298.93778418849485" r="2.5" fill="rgba(0,0,0,0.35)" /><circle cx="159" cy="267.21723055989924" r="2.5" fill="rgba(0,0,0,0.35)" /><circle cx="179" cy="309.9283625551862" r="2.5" fill="rgba(0,0,0,0.35)" /><circle cx="164" cy="280.4850236623253" r="2.5" fill="rgba(0,0,0,0.35)" /><circle cx="154" cy="301.1759076719899" r="2.5" fill="rgba(0,0,0,0.35)" /><circle cx="151.5" cy="312.25446110109294" r="2.5" fill="rgba(0,0,0,0.35)" /><circle cx="164" cy="308.94187342616266" r="2.5" fill="rgba(0,0,0,0.35)" /><circle cx="156.5" cy="290.97362395368975" r="2.5" fill="rgba(0,0,0,0.35)" /><circle cx="176.5" cy="315.3658872490161" r="2.5" fill="rgba(0,0,0,0.35)" /><circle cx="189" cy="292.52319591792275" r="2.5" fill="rgba(0,0,0,0.35)" /><circle cx="199" cy="293.5393403961838" r="2.5" fill="rgba(0,0,0,0.35)" /><circle cx="189" cy="311.7137895435564" r="2.5" fill="rgba(0,0,0,0.35)" /><circle cx="136.5" cy="296.56874789388587" r="2.5" fill="rgba(0,0,0,0.35)" /><circle cx="149" cy="265.4763235721283" r="2.5" fill="rgba(0,0,0,0.35)" /><circle cx="171.5" cy="266.2468307280079" r="2.5" fill="rgba(0,0,0,0.35)" /><circle cx="139" cy="303.52376275749384" r="2.5" fill="rgba(0,0,0,0.35)" /><circle cx="179" cy="281.20519071787413" r="2.5" fill="rgba(0,0,0,0.35)" /><circle cx="159" cy="279.97763124628267" r="2.5" fill="rgba(0,0,0,0.35)" /><circle cx="364" cy="324.01993593347066" r="2.5" fill="rgba(0,0,0,0.35)" /><circle cx="359" cy="340.84605285899147" r="2.5" fill="rgba(0,0,0,0.35)" /><circle cx="354" cy="337.48323438601165" r="2.5" fill="rgba(0,0,0,0.35)" /><circle cx="359" cy="352.0965185593483" r="2.5" fill="rgba(0,0,0,0.35)" /><circle cx="334" cy="342.1386081498694" r="2.5" fill="rgba(0,0,0,0.35)" /><circle cx="349" cy="321.3709181815792" r="2.5" fill="rgba(0,0,0,0.35)" /><circle cx="364" cy="348.25003450166173" r="2.5" fill="rgba(0,0,0,0.35)" /><circle cx="374" cy="323.55650580317786" r="2.5" fill="rgba(0,0,0,0.35)" /><circle cx="369" cy="343.55911380309357" r="2.5" fill="rgba(0,0,0,0.35)" /><circle cx="369" cy="320.8679565501519" r="2.5" fill="rgba(0,0,0,0.35)" /><circle cx="384" cy="341.68467250756123" r="2.5" fill="rgba(0,0,0,0.35)" /><circle cx="364" cy="337.18891501535165" r="2.5" fill="rgba(0,0,0,0.35)" /><circle cx="374" cy="331.6113763965301" r="2.5" fill="rgba(0,0,0,0.35)" /><circle cx="349" cy="331.0359414339632" r="2.5" fill="rgba(0,0,0,0.35)" /><circle cx="359" cy="316.9205946858466" r="2.5" fill="rgba(0,0,0,0.35)" /><circle cx="349" cy="343.88974185751977" r="2.5" fill="rgba(0,0,0,0.35)" /><circle cx="349" cy="338.3315664365406" r="2.5" fill="rgba(0,0,0,0.35)" /><circle cx="339" cy="347.18023145962474" r="2.5" fill="rgba(0,0,0,0.35)" /><circle cx="344" cy="352.2585547001021" r="2.5" fill="rgba(0,0,0,0.35)" /><circle cx="369" cy="360.7927544356738" r="2.5" fill="rgba(0,0,0,0.35)" /><circle cx="344" cy="339.0245115325911" r="2.5" fill="rgba(0,0,0,0.35)" /><circle cx="374" cy="338.8363583788562" r="2.5" fill="rgba(0,0,0,0.35)" /><circle cx="369" cy="338.03008844876524" r="2.5" fill="rgba(0,0,0,0.35)" /><circle cx="359" cy="301.91228459553406" r="2.5" fill="rgba(0,0,0,0.35)" /><circle cx="349" cy="360.94920508535216" r="2.5" fill="rgba(0,0,0,0.35)" /><circle cx="344" cy="345.38759788463744" r="2.5" fill="rgba(0,0,0,0.35)" /><circle cx="379" cy="353.090511386466" r="2.5" fill="rgba(0,0,0,0.35)" /><circle cx="359" cy="364.67319971562245" r="2.5" fill="rgba(0,0,0,0.35)" /><circle cx="389" cy="347.5487623083108" r="2.5" fill="rgba(0,0,0,0.35)" /><circle cx="379" cy="324.46616504482904" r="2.5" fill="rgba(0,0,0,0.35)" /><circle cx="334" cy="347.5404604452078" r="2.5" fill="rgba(0,0,0,0.35)" /><circle cx="354" cy="343.0397818344541" r="2.5" fill="rgba(0,0,0,0.35)" /><circle cx="379" cy="339.13387936137127" r="2.5" fill="rgba(0,0,0,0.35)" /><circle cx="354" cy="326.99003268653826" r="2.5" fill="rgba(0,0,0,0.35)" /><circle cx="359" cy="357.1564794085768" r="2.5" fill="rgba(0,0,0,0.35)" /><circle cx="339" cy="325.34162595014766" r="2.5" fill="rgba(0,0,0,0.35)" /><circle cx="344" cy="324.1416881093535" r="2.5" fill="rgba(0,0,0,0.35)" /><circle cx="364" cy="360.7465266587933" r="2.5" fill="rgba(0,0,0,0.35)" /><circle cx="344" cy="332.90901757787674" r="2.5" fill="rgba(0,0,0,0.35)" /><circle cx="364" cy="354.744630453794" r="2.5" fill="rgba(0,0,0,0.35)" /><circle cx="339" cy="340.43437922640055" r="2.5" fill="rgba(0,0,0,0.35)" /><circle cx="349" cy="350.4784049437693" r="2.5" fill="rgba(0,0,0,0.35)" /><circle cx="359" cy="373.143082237079" r="2.5" fill="rgba(0,0,0,0.35)" /><circle cx="354" cy="320.5124394056088" r="2.5" fill="rgba(0,0,0,0.35)" /><circle cx="374" cy="344.7039537202352" r="2.5" fill="rgba(0,0,0,0.35)" /><circle cx="359" cy="328.9268122637794" r="2.5" fill="rgba(0,0,0,0.35)" /><circle cx="374" cy="352.0351973500513" r="2.5" fill="rgba(0,0,0,0.35)" /><circle cx="364" cy="342.5816380510135" r="2.5" fill="rgba(0,0,0,0.35)" /><circle cx="359" cy="323.30121530574536" r="2.5" fill="rgba(0,0,0,0.35)" /><circle cx="379" cy="345.7645232289254" r="2.5" fill="rgba(0,0,0,0.35)" /><circle cx="364" cy="318.62974601522365" r="2.5" fill="rgba(0,0,0,0.35)" /><circle cx="354" cy="348.58141136615654" r="2.5" fill="rgba(0,0,0,0.35)" /><circle cx="354" cy="358.71272162226256" r="2.5" fill="rgba(0,0,0,0.35)" /><circle cx="369" cy="349.62954048584766" r="2.5" fill="rgba(0,0,0,0.35)" /><circle cx="354" cy="332.26112399528915" r="2.5" fill="rgba(0,0,0,0.35)" /><circle cx="384" cy="347.3239157720279" r="2.5" fill="rgba(0,0,0,0.35)" /><circle cx="369" cy="328.1822121734983" r="2.5" fill="rgba(0,0,0,0.35)" /><circle cx="364" cy="329.6904786653562" r="2.5" fill="rgba(0,0,0,0.35)" /><circle cx="359" cy="347.07295553725726" r="2.5" fill="rgba(0,0,0,0.35)" /><circle cx="359" cy="335.5560798440661" r="2.5" fill="rgba(0,0,0,0.35)" /><circle cx="364" cy="224.01993593347066" r="2.5" fill="rgba(0,0,0,0.35)" /><circle cx="359" cy="240.8460528589915" r="2.5" fill="rgba(0,0,0,0.35)" /><circle cx="354" cy="237.48323438601167" r="2.5" fill="rgba(0,0,0,0.35)" /><circle cx="359" cy="252.09651855934834" r="2.5" fill="rgba(0,0,0,0.35)" /><circle cx="334" cy="242.1386081498694" r="2.5" fill="rgba(0,0,0,0.35)" /><circle cx="349" cy="221.3709181815792" r="2.5" fill="rgba(0,0,0,0.35)" /><circle cx="364" cy="248.2500345016617" r="2.5" fill="rgba(0,0,0,0.35)" /><circle cx="374" cy="223.55650580317786" r="2.5" fill="rgba(0,0,0,0.35)" /><circle cx="369" cy="243.55911380309357" r="2.5" fill="rgba(0,0,0,0.35)" /><circle cx="369" cy="220.86795655015192" r="2.5" fill="rgba(0,0,0,0.35)" /><circle cx="384" cy="241.68467250756126" r="2.5" fill="rgba(0,0,0,0.35)" /><circle cx="364" cy="237.18891501535168" r="2.5" fill="rgba(0,0,0,0.35)" /><circle cx="374" cy="231.6113763965301" r="2.5" fill="rgba(0,0,0,0.35)" /><circle cx="349" cy="231.03594143396316" r="2.5" fill="rgba(0,0,0,0.35)" /><circle cx="359" cy="216.9205946858466" r="2.5" fill="rgba(0,0,0,0.35)" /><circle cx="349" cy="243.8897418575198" r="2.5" fill="rgba(0,0,0,0.35)" /><circle cx="349" cy="238.3315664365406" r="2.5" fill="rgba(0,0,0,0.35)" /><circle cx="339" cy="247.1802314596247" r="2.5" fill="rgba(0,0,0,0.35)" /><circle cx="344" cy="252.25855470010205" r="2.5" fill="rgba(0,0,0,0.35)" /><circle cx="369" cy="260.7927544356738" r="2.5" fill="rgba(0,0,0,0.35)" /><circle cx="344" cy="239.02451153259105" r="2.5" fill="rgba(0,0,0,0.35)" /><circle cx="374" cy="238.83635837885615" r="2.5" fill="rgba(0,0,0,0.35)" /><circle cx="369" cy="238.0300884487652" r="2.5" fill="rgba(0,0,0,0.35)" /><circle cx="359" cy="201.91228459553412" r="2.5" fill="rgba(0,0,0,0.35)" /><circle cx="349" cy="260.9492050853522" r="2.5" fill="rgba(0,0,0,0.35)" /><circle cx="344" cy="245.3875978846375" r="2.5" fill="rgba(0,0,0,0.35)" /><circle cx="379" cy="253.09051138646606" r="2.5" fill="rgba(0,0,0,0.35)" /><circle cx="359" cy="264.67319971562245" r="2.5" fill="rgba(0,0,0,0.35)" /><circle cx="389" cy="247.54876230831078" r="2.5" fill="rgba(0,0,0,0.35)" /><circle cx="379" cy="224.4661650448291" r="2.5" fill="rgba(0,0,0,0.35)" /><circle cx="334" cy="247.54046044520783" r="2.5" fill="rgba(0,0,0,0.35)" /><circle cx="354" cy="243.03978183445412" r="2.5" fill="rgba(0,0,0,0.35)" /><circle cx="379" cy="239.13387936137127" r="2.5" fill="rgba(0,0,0,0.35)" /><circle cx="354" cy="226.99003268653826" r="2.5" fill="rgba(0,0,0,0.35)" /><circle cx="359" cy="257.1564794085768" r="2.5" fill="rgba(0,0,0,0.35)" /><circle cx="339" cy="225.34162595014766" r="2.5" fill="rgba(0,0,0,0.35)" /><circle cx="344" cy="224.14168810935348" r="2.5" fill="rgba(0,0,0,0.35)" /><circle cx="364" cy="260.7465266587933" r="2.5" fill="rgba(0,0,0,0.35)" /><circle cx="344" cy="232.90901757787668" r="2.5" fill="rgba(0,0,0,0.35)" /><circle cx="364" cy="254.744630453794" r="2.5" fill="rgba(0,0,0,0.35)" /><circle cx="339" cy="240.4343792264006" r="2.5" fill="rgba(0,0,0,0.35)" /><circle cx="349" cy="250.47840494376928" r="2.5" fill="rgba(0,0,0,0.35)" /><circle cx="359" cy="273.14308223707906" r="2.5" fill="rgba(0,0,0,0.35)" /><circle cx="354" cy="220.5124394056088" r="2.5" fill="rgba(0,0,0,0.35)" /><circle cx="374" cy="244.7039537202352" r="2.5" fill="rgba(0,0,0,0.35)" /><circle cx="359" cy="228.92681226377948" r="2.5" fill="rgba(0,0,0,0.35)" /><circle cx="374" cy="252.03519735005128" r="2.5" fill="rgba(0,0,0,0.35)" /><circle cx="364" cy="242.58163805101353" r="2.5" fill="rgba(0,0,0,0.35)" /><circle cx="359" cy="223.3012153057453" r="2.5" fill="rgba(0,0,0,0.35)" /><circle cx="379" cy="245.7645232289254" r="2.5" fill="rgba(0,0,0,0.35)" /><circle cx="364" cy="218.62974601522365" r="2.5" fill="rgba(0,0,0,0.35)" /><circle cx="354" cy="248.58141136615657" r="2.5" fill="rgba(0,0,0,0.35)" /><circle cx="354" cy="258.71272162226256" r="2.5" fill="rgba(0,0,0,0.35)" /><circle cx="369" cy="249.62954048584763" r="2.5" fill="rgba(0,0,0,0.35)" /><circle cx="354" cy="232.26112399528915" r="2.5" fill="rgba(0,0,0,0.35)" /><circle cx="384" cy="247.32391577202785" r="2.5" fill="rgba(0,0,0,0.35)" /><circle cx="369" cy="228.18221217349833" r="2.5" fill="rgba(0,0,0,0.35)" /><circle cx="364" cy="229.69047866535612" r="2.5" fill="rgba(0,0,0,0.35)" /><circle cx="359" cy="247.07295553725726" r="2.5" fill="rgba(0,0,0,0.35)" /><circle cx="359" cy="235.55607984406612" r="2.5" fill="rgba(0,0,0,0.35)" /><circle cx="564" cy="286.71546950373033" r="2.5" fill="rgba(0,0,0,0.35)" /><circle cx="564" cy="222.01816624011462" r="2.5" fill="rgba(0,0,0,0.35)" /><circle cx="559" cy="256.59708972976745" r="2.5" fill="rgba(0,0,0,0.35)" /><circle cx="564" cy="215.55023546932046" r="2.5" fill="rgba(0,0,0,0.35)" /><circle cx="569" cy="241.76416781515687" r="2.5" fill="rgba(0,0,0,0.35)" /><circle cx="539" cy="285.2261005722157" r="2.5" fill="rgba(0,0,0,0.35)" /><circle cx="526.5" cy="275.9670393248066" r="2.5" fill="rgba(0,0,0,0.35)" /><circle cx="564" cy="264.7432738601238" r="2.5" fill="rgba(0,0,0,0.35)" /><circle cx="554" cy="231.445766954624" r="2.5" fill="rgba(0,0,0,0.35)" /><circle cx="554" cy="288.37804288932716" r="2.5" fill="rgba(0,0,0,0.35)" /><circle cx="531.5" cy="275.26638501305456" r="2.5" fill="rgba(0,0,0,0.35)" /><circle cx="574" cy="284.3429311582902" r="2.5" fill="rgba(0,0,0,0.35)" /><circle cx="534" cy="287.2417155221281" r="2.5" fill="rgba(0,0,0,0.35)" /><circle cx="531.5" cy="282.6163356163603" r="2.5" fill="rgba(0,0,0,0.35)" /><circle cx="539" cy="290.28214387323766" r="2.5" fill="rgba(0,0,0,0.35)" /><circle cx="539" cy="269.4194196015901" r="2.5" fill="rgba(0,0,0,0.35)" /><circle cx="554" cy="259.74502938047544" r="2.5" fill="rgba(0,0,0,0.35)" /><circle cx="554" cy="253.4130326537041" r="2.5" fill="rgba(0,0,0,0.35)" /><circle cx="549" cy="267.07915342340436" r="2.5" fill="rgba(0,0,0,0.35)" /><circle cx="536.5" cy="274.8202895580912" r="2.5" fill="rgba(0,0,0,0.35)" /><circle cx="561.5" cy="244.01874672539944" r="2.5" fill="rgba(0,0,0,0.35)" /><circle cx="551.5" cy="283.69308824950826" r="2.5" fill="rgba(0,0,0,0.35)" /><circle cx="581.5" cy="285.5487237055536" r="2.5" fill="rgba(0,0,0,0.35)" /><circle cx="506.5" cy="285.80339965366716" r="2.5" fill="rgba(0,0,0,0.35)" /><circle cx="559" cy="174.92846694387413" r="2.5" fill="rgba(0,0,0,0.35)" /><circle cx="556.5" cy="272.8446720541994" r="2.5" fill="rgba(0,0,0,0.35)" /><circle cx="559" cy="239.25329593249404" r="2.5" fill="rgba(0,0,0,0.35)" /><circle cx="559" cy="211.3067499032914" r="2.5" fill="rgba(0,0,0,0.35)" /><circle cx="569" cy="287.8019756323656" r="2.5" fill="rgba(0,0,0,0.35)" /><circle cx="559" cy="267.07599163325824" r="2.5" fill="rgba(0,0,0,0.35)" /><circle cx="564" cy="98.8718907149277" r="2.5" fill="rgba(0,0,0,0.35)" /><circle cx="554" cy="219.81517911337153" r="2.5" fill="rgba(0,0,0,0.35)" /><circle cx="596.5" cy="278.4603382904431" r="2.5" fill="rgba(0,0,0,0.35)" /><circle cx="569" cy="232.29732974824708" r="2.5" fill="rgba(0,0,0,0.35)" /><circle cx="496.5" cy="287.95704653570215" r="2.5" fill="rgba(0,0,0,0.35)" /><circle cx="511.5" cy="285.79519717345624" r="2.5" fill="rgba(0,0,0,0.35)" /><circle cx="551.5" cy="278.6730856583562" r="2.5" fill="rgba(0,0,0,0.35)" /><circle cx="546.5" cy="279.88584961910055" r="2.5" fill="rgba(0,0,0,0.35)" /><circle cx="554" cy="201.21779423518012" r="2.5" fill="rgba(0,0,0,0.35)" /><circle cx="609" cy="285.79524739685985" r="2.5" fill="rgba(0,0,0,0.35)" /><circle cx="561.5" cy="271.4062332583315" r="2.5" fill="rgba(0,0,0,0.35)" /><circle cx="561.5" cy="291.6595672156687" r="2.5" fill="rgba(0,0,0,0.35)" /><circle cx="619" cy="286.7703764442575" r="2.5" fill="rgba(0,0,0,0.35)" /><circle cx="564" cy="230.59423825885602" r="2.5" fill="rgba(0,0,0,0.35)" /><circle cx="574" cy="279.29380449630736" r="2.5" fill="rgba(0,0,0,0.35)" /><circle cx="559" cy="218.63546547977262" r="2.5" fill="rgba(0,0,0,0.35)" /><circle cx="559" cy="228.3833022198795" r="2.5" fill="rgba(0,0,0,0.35)" /><circle cx="559" cy="261.86592749185786" r="2.5" fill="rgba(0,0,0,0.35)" /><circle cx="606.5" cy="291.4654568508812" r="2.5" fill="rgba(0,0,0,0.35)" /><circle cx="554" cy="241.0134348457821" r="2.5" fill="rgba(0,0,0,0.35)" /><circle cx="549" cy="261.18782298629606" r="2.5" fill="rgba(0,0,0,0.35)" /><circle cx="594" cy="283.74049616282366" r="2.5" fill="rgba(0,0,0,0.35)" /><circle cx="604" cy="285.6681612253418" r="2.5" fill="rgba(0,0,0,0.35)" /><circle cx="546.5" cy="285.02841874172714" r="2.5" fill="rgba(0,0,0,0.35)" /><circle cx="556.5" cy="282.9198230731224" r="2.5" fill="rgba(0,0,0,0.35)" /><circle cx="529" cy="287.84463170573247" r="2.5" fill="rgba(0,0,0,0.35)" /><circle cx="551.5" cy="273.608894967034" r="2.5" fill="rgba(0,0,0,0.35)" /><circle cx="501.5" cy="286.0367544749795" r="2.5" fill="rgba(0,0,0,0.35)" /><circle cx="586.5" cy="275.0317302971643" r="2.5" fill="rgba(0,0,0,0.35)" /><circle cx="556.5" cy="277.8469113327389" r="2.5" fill="rgba(0,0,0,0.35)" /><circle cx="564" cy="258.33736141799153" r="2.5" fill="rgba(0,0,0,0.35)" /><circle cx="541.5" cy="274.655838365239" r="2.5" fill="rgba(0,0,0,0.35)" /><circle cx="596.5" cy="290.3293481597881" r="2.5" fill="rgba(0,0,0,0.35)" /><circle cx="566.5" cy="278.3139105644485" r="2.5" fill="rgba(0,0,0,0.35)" /><circle cx="591.5" cy="288.53761367021593" r="2.5" fill="rgba(0,0,0,0.35)" /><circle cx="561.5" cy="281.82654695696226" r="2.5" fill="rgba(0,0,0,0.35)" /><circle cx="559" cy="287.26027597839675" r="2.5" fill="rgba(0,0,0,0.35)" /><circle cx="549" cy="253.66683759689562" r="2.5" fill="rgba(0,0,0,0.35)" /><circle cx="544" cy="247.46915019297666" r="2.5" fill="rgba(0,0,0,0.35)" /><circle cx="579" cy="290.0610946250283" r="2.5" fill="rgba(0,0,0,0.35)" /><circle cx="564" cy="252.23438384604762" r="2.5" fill="rgba(0,0,0,0.35)" /><circle cx="554" cy="264.94555409792946" r="2.5" fill="rgba(0,0,0,0.35)" /><circle cx="544" cy="289.9860062327364" r="2.5" fill="rgba(0,0,0,0.35)" /><circle cx="549" cy="243.2908276917421" r="2.5" fill="rgba(0,0,0,0.35)" /><circle cx="559" cy="138.42101613267516" r="2.5" fill="rgba(0,0,0,0.35)" /><circle cx="574" cy="289.613022547239" r="2.5" fill="rgba(0,0,0,0.35)" /><circle cx="559" cy="94.97515212703388" r="2.5" fill="rgba(0,0,0,0.35)" /><circle cx="599" cy="284.1249414890173" r="2.5" fill="rgba(0,0,0,0.35)" /><circle cx="591.5" cy="275.9317442685573" r="2.5" fill="rgba(0,0,0,0.35)" /><circle cx="524" cy="290.1194617025087" r="2.5" fill="rgba(0,0,0,0.35)" /><circle cx="519" cy="290.7508289558195" r="2.5" fill="rgba(0,0,0,0.35)" /><circle cx="574" cy="267.988590565246" r="2.5" fill="rgba(0,0,0,0.35)" /><circle cx="569" cy="223.0515234327287" r="2.5" fill="rgba(0,0,0,0.35)" /><circle cx="571.5" cy="274.38909679969765" r="2.5" fill="rgba(0,0,0,0.35)" /><circle cx="574" cy="253.94360573897757" r="2.5" fill="rgba(0,0,0,0.35)" /><circle cx="536.5" cy="280.8762685121661" r="2.5" fill="rgba(0,0,0,0.35)" /><circle cx="559" cy="251.17333375033002" r="2.5" fill="rgba(0,0,0,0.35)" /><circle cx="549" cy="289.59163383567875" r="2.5" fill="rgba(0,0,0,0.35)" /><circle cx="544" cy="268.3719948344109" r="2.5" fill="rgba(0,0,0,0.35)" /><circle cx="556.5" cy="245.65127998363766" r="2.5" fill="rgba(0,0,0,0.35)" /><circle cx="561.5" cy="276.65379423776176" r="2.5" fill="rgba(0,0,0,0.35)" /><circle cx="514" cy="291.250134884608" r="2.5" fill="rgba(0,0,0,0.35)" /><circle cx="576.5" cy="274.54575190526066" r="2.5" fill="rgba(0,0,0,0.35)" /><circle cx="564" cy="239.28889734333524" r="2.5" fill="rgba(0,0,0,0.35)" /><circle cx="521.5" cy="278.75602848098765" r="2.5" fill="rgba(0,0,0,0.35)" /><circle cx="569" cy="282.75083419927023" r="2.5" fill="rgba(0,0,0,0.35)" /><circle cx="586.5" cy="287.7481530063734" r="2.5" fill="rgba(0,0,0,0.35)" /><circle cx="579" cy="268.385416242775" r="2.5" fill="rgba(0,0,0,0.35)" /><circle cx="526.5" cy="283.29377145416976" r="2.5" fill="rgba(0,0,0,0.35)" /><circle cx="601.5" cy="290.8680206028482" r="2.5" fill="rgba(0,0,0,0.35)" /><circle cx="566.5" cy="273.01854996384196" r="2.5" fill="rgba(0,0,0,0.35)" /><circle cx="564" cy="200.64894882103744" r="2.5" fill="rgba(0,0,0,0.35)" /><circle cx="569" cy="253.46975972838985" r="2.5" fill="rgba(0,0,0,0.35)" /><circle cx="584" cy="281.0779056295804" r="2.5" fill="rgba(0,0,0,0.35)" /><circle cx="559" cy="197.76553298197916" r="2.5" fill="rgba(0,0,0,0.35)" /><circle cx="544" cy="262.45561220350595" r="2.5" fill="rgba(0,0,0,0.35)" /><circle cx="566.5" cy="246.95523792820916" r="2.5" fill="rgba(0,0,0,0.35)" /><circle cx="589" cy="283.24773079359426" r="2.5" fill="rgba(0,0,0,0.35)" /><circle cx="614" cy="285.90629716155786" r="2.5" fill="rgba(0,0,0,0.35)" /><circle cx="516.5" cy="285.5940773676353" r="2.5" fill="rgba(0,0,0,0.35)" /><circle cx="521.5" cy="283.82438431669823" r="2.5" fill="rgba(0,0,0,0.35)" /><circle cx="574" cy="261.9799754476542" r="2.5" fill="rgba(0,0,0,0.35)" /><circle cx="579" cy="280.6753323546772" r="2.5" fill="rgba(0,0,0,0.35)" /><circle cx="581.5" cy="274.73845733614525" r="2.5" fill="rgba(0,0,0,0.35)" /><circle cx="574" cy="244.20729672064402" r="2.5" fill="rgba(0,0,0,0.35)" /><circle cx="569" cy="265.2165425108185" r="2.5" fill="rgba(0,0,0,0.35)" /><circle cx="546.5" cy="274.51073746443063" r="2.5" fill="rgba(0,0,0,0.35)" /><circle cx="569" cy="260.08423431225003" r="2.5" fill="rgba(0,0,0,0.35)" /><circle cx="601.5" cy="278.777186451721" r="2.5" fill="rgba(0,0,0,0.35)" /><circle cx="541.5" cy="280.4690753315899" r="2.5" fill="rgba(0,0,0,0.35)" /></svg>