<svg xmlns="http://www.w3.org/2000/svg" width="673" height="545" font-family="DejaVu Sans, Liberation Sans, Arial, sans-serif" fill="black"><rect width="100%" height="100%" fill="white" /><defs><clipPath id="kuva-clip-2"><rect x="59" y="44" width="600" height="450"/></clipPath></defs><line x1="209" y1="44" x2="209" y2="494" stroke="#cccccc" stroke-width="1" /><line x1="359" y1="44" x2="359" y2="494" stroke="#cccccc" stroke-width="1" /><line x1="509" y1="44" x2="509" y2="494" stroke="#cccccc" stroke-width="1" /><line x1="659" y1="44" x2="659" y2="494" stroke="#cccccc" stroke-width="1" /><line x1="59" y1="404" x2="659" y2="404" stroke="#cccccc" stroke-width="1" /><line x1="59" y1="314" x2="659" y2="314" stroke="#cccccc" stroke-width="1" /><line x1="59" y1="224" x2="659" y2="224" stroke="#cccccc" stroke-width="1" /><line x1="59" y1="134" x2="659" y2="134" stroke="#cccccc" stroke-width="1" /><line x1="59" y1="44" x2="659" y2="44" stroke="#cccccc" stroke-width="1" /><line x1="59" y1="494" x2="659" y2="494" stroke="#000000" stroke-width="1" /><line x1="59" y1="44" x2="59" y2="494" stroke="#000000" stroke-width="1" /><line x1="59" y1="494" x2="59" y2="499" stroke="#000000" stroke-width="1" /><text x="59" y="511" font-size="12" text-anchor="middle">0</text><line x1="209" y1="494" x2="209" y2="499" stroke="#000000" stroke-width="1" /><text x="209" y="511" font-size="12" text-anchor="middle">1</text><line x1="359" y1="494" x2="359" y2="499" stroke="#000000" stroke-width="1" /><text x="359" y="511" font-size="12" text-anchor="middle">2</text><line x1="509" y1="494" x2="509" y2="499" stroke="#000000" stroke-width="1" /><text x="509" y="511" font-size="12" text-anchor="middle">3</text><line x1="659" y1="494" x2="659" y2="499" stroke="#000000" stroke-width="1" /><text x="659" y="511" font-size="12" text-anchor="middle">4</text><line x1="54" y1="494" x2="59" y2="494" stroke="#000000" stroke-width="1" /><text x="51" y="498.2" font-size="12" text-anchor="end">0</text><line x1="54" y1="404" x2="59" y2="404" stroke="#000000" stroke-width="1" /><text x="51" y="408.2" font-size="12" text-anchor="end">2</text><line x1="54" y1="314" x2="59" y2="314" stroke="#000000" stroke-width="1" /><text x="51" y="318.2" font-size="12" text-anchor="end">4</text><line x1="54" y1="224" x2="59" y2="224" stroke="#000000" stroke-width="1" /><text x="51" y="228.20000000000002" font-size="12" text-anchor="end">6</text><line x1="54" y1="134" x2="59" y2="134" stroke="#000000" stroke-width="1" /><text x="51" y="138.20000000000002" font-size="12" text-anchor="end">8</text><line x1="54" y1="44" x2="59" y2="44" stroke="#000000" stroke-width="1" /><text x="51" y="48.2" font-size="12" text-anchor="end">10</text><g transform="translate(344.09,520.038)">
    <g>
        <g class="typst-group">
            <g>
                <g class="typst-text" transform="matrix(1 0 0 -1 5.6 8.246000000000002)">
                    <use href="#m0-gD7E8A6D7B2C110427059CFA4E5F8B583" x="0" y="0" fill="#000000" fill-rule="nonzero"/>
                </g>
                <g class="typst-text" transform="matrix(1 0 0 -1 11.675999999999998 8.246000000000002)">
                    <use href="#m0-g25CDCB078BA9E2554526202C6FDAD812" x="0" y="0" fill="#000000" fill-rule="nonzero"/>
                </g>
                <g class="typst-text" transform="matrix(1 0 0 -1 19.3004 8.246000000000002)">
                    <use href="#m0-g13DB567E5775BF38246716E7CCA32D46" x="0" y="0" fill="#000000" fill-rule="nonzero"/>
                </g>
                <g class="typst-text" transform="matrix(1 0 0 -1 12.347299999999997 18.592)">
                    <use href="#m0-gAAA9EFDB59CB74727B26ADC9C4535E7D" x="0" y="0" fill="#000000" fill-rule="nonzero"/>
                </g>
                <path class="typst-shape" fill="none" stroke="#000000" stroke-width="0.56" stroke-linecap="butt" stroke-linejoin="miter" stroke-miterlimit="4" transform="matrix(1 0 0 1 5.6 10.261999999999999)" d="M 0 0h 18.62 "/>
            </g>
        </g>
    </g>
    <defs id="m0-glyph">
        <symbol id="m0-gD7E8A6D7B2C110427059CFA4E5F8B583" overflow="visible">
            <path d="M 0 0m 5.5958 1.4014 c 0 0.12740004 -0.12739992 0.12740004 -0.1567998 0.12740004 c -0.13719988 0 -0.14699984 -0.03919995 -0.21560001 -0.3038 c -0.117599964 -0.47040004 -0.3038001 -1.0486 -0.7154002 -1.0486 c -0.25479984 0 -0.32340002 0.21560001 -0.32340002 0.4802 c 0 0.16659999 0.078400135 0.5194 0.14700031 0.77419996 l 0.21560001 0.88199997 c 0.09800005 0.3626001 0.10780001 0.42140007 0.19599962 0.7448001 c 0.05880022 0.25480008 0.17640018 0.7154 0.17640018 0.7644 c 0 0.21560001 -0.17640018 0.31360006 -0.33319998 0.31360006 c -0.16659975 0 -0.3920002 -0.117599964 -0.45079994 -0.39199996 c -0.20580006 0.32339978 -0.53900003 0.5782001 -1.0094001 0.5782001 c -1.2543999 0 -2.5284 -1.3818002 -2.5284 -2.7930002 c 0 -0.9506 0.63699996 -1.6268001 1.4798 -1.6268001 c 0.5292001 0 0.99959993 0.3038 1.3916001 0.686 c 0.1861999 -0.588 0.75460005 -0.686 1.0093999 -0.686 c 0.3527999 0 0.59780025 0.21560001 0.77419996 0.5194 c 0.21560001 0.3822 0.34299994 0.9408 0.34299994 0.97999996 Z m -1.5974 1.7934002 c 0 -0.039200068 -0.019599915 -0.10780001 -0.029399872 -0.13720012 l -0.46060014 -1.8326 c -0.06859994 -0.2744 -0.28419995 -0.47040004 -0.49979997 -0.6566 c -0.088199854 -0.078400016 -0.48020005 -0.39200002 -0.9015999 -0.39200002 c -0.3626001 0 -0.7154001 0.2548 -0.7154001 0.95059997 c 0 0.5194 0.28419995 1.5974001 0.50960004 1.9894 c 0.45079994 0.78400016 0.9505999 0.931 1.2249999 0.931 c 0.6860001 0 0.8722 -0.74479985 0.8722 -0.85259986 Z "/>
        </symbol>
        <symbol id="m0-g25CDCB078BA9E2554526202C6FDAD812" overflow="visible">
            <path d="M 0 0m 7.0756 2.45 c 0 0.10780001 -0.08820009 0.22539997 -0.1960001 0.22539997 h -2.842 v 2.8420002 c 0 0.10780001 -0.117599964 0.19599962 -0.22539997 0.19599962 c -0.10780001 0 -0.22539997 -0.088199615 -0.22539997 -0.19599962 v -2.8420002 h -2.842 c -0.10780001 0 -0.19600004 -0.117599964 -0.19600004 -0.22539997 c 0 -0.10780001 0.08820003 -0.22539997 0.19600004 -0.22539997 h 2.842 v -2.842 c 0 -0.10780001 0.117599964 -0.19600004 0.22539997 -0.19600004 c 0.10780001 0 0.22539997 0.08820003 0.22539997 0.19600004 v 2.842 h 2.842 c 0.10780001 0 0.1960001 0.117599964 0.1960001 0.22539997 Z "/>
        </symbol>
        <symbol id="m0-g13DB567E5775BF38246716E7CCA32D46" overflow="visible">
            <path d="M 0 0m 4.6158 2.6852 c 0 1.1466 -0.7937999 1.6366003 -1.4699998 1.6366003 c -0.50960016 0 -0.9408002 -0.2842002 -1.2348001 -0.5390003 l 0.6761999 2.7244003 c 0.009800196 0.019599915 0.039200068 0.1567998 0.039200068 0.1567998 c 0 0.049000263 -0.039200068 0.13719988 -0.15680003 0.13719988 c -0.19599986 0 -1.0093999 -0.07839966 -1.2543999 -0.09800005 c -0.078400016 -0.009799957 -0.21560007 -0.019599915 -0.21560007 -0.22539997 c 0 -0.13719988 0.13720006 -0.13719988 0.25480002 -0.13719988 c 0.47039998 0 0.47039998 -0.0685997 0.47039998 -0.14699984 c 0 -0.06860018 -0.09799993 -0.4605999 -0.15679991 -0.68600035 l -0.22540009 -0.9015999 l -0.6468 -2.6068 c -0.049000025 -0.23519993 -0.049000025 -0.36259997 -0.049000025 -0.48019993 c 0 -0.98980004 0.62720007 -1.6170001 1.4405999 -1.6170001 c 1.2250001 0 2.5284 1.3328 2.5284 2.7832 Z m -0.7839999 0.4116001 c 0 -0.40180016 -0.21560001 -1.4014001 -0.5095999 -1.9698001 c -0.23519993 -0.4802 -0.72519994 -0.95059997 -1.2250001 -0.95059997 c -0.48019993 0 -0.7545999 0.4214 -0.7545999 0.9996 c 0 0.36259997 0.08819997 0.69580007 0.3626001 1.8032001 c 0.058799982 0.1861999 0.058799982 0.20579982 0.245 0.42139983 c 0.37240005 0.43120003 0.81340003 0.64680004 1.1661999 0.64680004 c 0.3822 0 0.7154 -0.28419995 0.7154 -0.9505999 Z "/>
        </symbol>
        <symbol id="m0-gAAA9EFDB59CB74727B26ADC9C4535E7D" overflow="visible">
            <path d="M 0 0m 4.851 1.0094 c 0 0.058799982 -0.088199615 0.16659999 -0.16659975 0.16659999 c -0.05880022 0 -0.078400135 -0.019600034 -0.1567998 -0.09799993 c -0.76440024 -0.90160006 -1.9110003 -0.90160006 -2.0874002 -0.90160006 c -0.7056 0 -1.0192001 0.4802 -1.0192001 1.0878 c 0 0.28420007 0.1372 1.3524001 0.64680004 2.0286 c 0.37240005 0.48020005 0.88199997 0.75460005 1.372 0.75460005 c 0.13720012 0 0.6076 -0.019599915 0.85259986 -0.2939999 c -0.3527999 -0.058799982 -0.49979973 -0.33319998 -0.49979973 -0.5488 c 0 -0.26460004 0.20579982 -0.3626001 0.38219976 -0.3626001 c 0.21560001 0 0.55859995 0.15680003 0.55859995 0.6272001 c 0 0.66639996 -0.76439977 0.8526001 -1.2935998 0.8526001 c -1.47 0 -2.8322 -1.3524003 -2.8322 -2.7146 c 0 -0.8428 0.588 -1.7052001 1.813 -1.7052001 c 1.6561999 0 2.4304 0.9702 2.4304 1.1074001 Z "/>
        </symbol>
    </defs>
</g><text x="15" y="269" font-size="14" text-anchor="middle" transform="rotate(-90,15,269)">rate</text><text x="359" y="27.400000000000002" font-size="18" text-anchor="middle">Fraction</text><g clip-path="url(#kuva-clip-2)"><circle cx="209" cy="449" r="3" fill="#4682b4" /><circle cx="359" cy="314" r="3" fill="#4682b4" /><circle cx="509" cy="89" r="3" fill="#4682b4" /></g></svg>