<svg xmlns="http://www.w3.org/2000/svg" width="673" height="545" font-family="DejaVu Sans, Liberation Sans, Arial, sans-serif" fill="black"><rect width="100%" height="100%" fill="white" /><defs><clipPath id="kuva-clip-0"><rect x="59" y="44" width="600" height="450"/></clipPath></defs><line x1="209" y1="44" x2="209" y2="494" stroke="#cccccc" stroke-width="1" /><line x1="359" y1="44" x2="359" y2="494" stroke="#cccccc" stroke-width="1" /><line x1="509" y1="44" x2="509" y2="494" stroke="#cccccc" stroke-width="1" /><line x1="659" y1="44" x2="659" y2="494" stroke="#cccccc" stroke-width="1" /><line x1="59" y1="404" x2="659" y2="404" stroke="#cccccc" stroke-width="1" /><line x1="59" y1="314" x2="659" y2="314" stroke="#cccccc" stroke-width="1" /><line x1="59" y1="224" x2="659" y2="224" stroke="#cccccc" stroke-width="1" /><line x1="59" y1="134" x2="659" y2="134" stroke="#cccccc" stroke-width="1" /><line x1="59" y1="44" x2="659" y2="44" stroke="#cccccc" stroke-width="1" /><line x1="59" y1="494" x2="659" y2="494" stroke="#000000" stroke-width="1" /><line x1="59" y1="44" x2="59" y2="494" stroke="#000000" stroke-width="1" /><line x1="59" y1="494" x2="59" y2="499" stroke="#000000" stroke-width="1" /><text x="59" y="511" font-size="12" text-anchor="middle">0</text><line x1="209" y1="494" x2="209" y2="499" stroke="#000000" stroke-width="1" /><text x="209" y="511" font-size="12" text-anchor="middle">1</text><line x1="359" y1="494" x2="359" y2="499" stroke="#000000" stroke-width="1" /><text x="359" y="511" font-size="12" text-anchor="middle">2</text><line x1="509" y1="494" x2="509" y2="499" stroke="#000000" stroke-width="1" /><text x="509" y="511" font-size="12" text-anchor="middle">3</text><line x1="659" y1="494" x2="659" y2="499" stroke="#000000" stroke-width="1" /><text x="659" y="511" font-size="12" text-anchor="middle">4</text><line x1="54" y1="494" x2="59" y2="494" stroke="#000000" stroke-width="1" /><text x="51" y="498.2" font-size="12" text-anchor="end">0</text><line x1="54" y1="404" x2="59" y2="404" stroke="#000000" stroke-width="1" /><text x="51" y="408.2" font-size="12" text-anchor="end">2</text><line x1="54" y1="314" x2="59" y2="314" stroke="#000000" stroke-width="1" /><text x="51" y="318.2" font-size="12" text-anchor="end">4</text><line x1="54" y1="224" x2="59" y2="224" stroke="#000000" stroke-width="1" /><text x="51" y="228.20000000000002" font-size="12" text-anchor="end">6</text><line x1="54" y1="134" x2="59" y2="134" stroke="#000000" stroke-width="1" /><text x="51" y="138.20000000000002" font-size="12" text-anchor="end">8</text><line x1="54" y1="44" x2="59" y2="44" stroke="#000000" stroke-width="1" /><text x="51" y="48.2" font-size="12" text-anchor="end">10</text><g transform="translate(337.8568888888889,520.038)">
    <g>
        <g class="typst-text" transform="matrix(1 0 0 -1 4.2 13.761999999999999)">
            <use href="#m0-g7A778AE10C2E833EE8E48EEFD668EEC5" x="0" y="0" fill="#000000" fill-rule="nonzero"/>
        </g>
        <g class="typst-text" transform="matrix(1 0 0 -1 15.75311111111111 13.761999999999999)">
            <use href="#m0-gCF219B43146A405861AC860C28B24613" x="0" y="0" fill="#000000" fill-rule="nonzero"/>
        </g>
        <g class="typst-text" transform="matrix(1 0 0 -1 29.756222222222224 13.761999999999999)">
            <use href="#m0-g6CAC2858004ED8DD5E89F964EABBB36A" x="0" y="0" fill="#000000" fill-rule="nonzero"/>
        </g>
    </g>
    <defs id="m0-glyph">
        <symbol id="m0-g7A778AE10C2E833EE8E48EEFD668EEC5" overflow="visible">
            <path d="M 0 0m 8.008 2.002 c 0 0.13999987 -0.12599993 0.13999987 -0.16800022 0.13999987 c -0.13999987 0 -0.1539998 -0.055999994 -0.1960001 -0.25199986 c -0.23799992 -0.9100001 -0.48999977 -1.7360001 -1.0639997 -1.7360001 c -0.37800026 0 -0.42000008 0.36400002 -0.42000008 0.64400005 c 0 0.30800003 0.16799974 0.966 0.27999973 1.4560001 l 0.3920002 1.5119998 c 0.041999817 0.21000004 0.18200016 0.74200034 0.23799992 0.9519999 c 0.07000017 0.32200003 0.21000004 0.8540001 0.21000004 0.9380002 c 0 0.25199986 -0.1960001 0.37800026 -0.40600014 0.37800026 c -0.069999695 0 -0.43400002 -0.014000416 -0.546 -0.49000025 l -0.658 -2.618 l -0.36399984 -1.4280001 c -0.013999939 -0.06999993 -0.6859999 -1.344 -1.8200002 -1.344 c -0.70000005 0 -1.036 0.462 -1.036 1.218 c 0 0.4059999 0.09800005 0.798 0.1960001 1.1899999 l 0.58800006 2.352 c 0.06999993 0.29400015 0.2099998 0.8260002 0.2099998 0.8959999 c 0 0.2380004 -0.16799998 0.37800026 -0.4059999 0.37800026 c -0.042000055 0 -0.43400002 -0.013999939 -0.55999994 -0.5040002 l -2.0160003 -8.106 c -0.041999996 -0.16799998 -0.041999996 -0.22399998 -0.041999996 -0.22399998 c 0 -0.21000004 0.15399998 -0.37800002 0.39200002 -0.37800002 c 0.29400003 0 0.462 0.2520001 0.49 0.29400015 c 0.055999994 0.12599993 0.23800004 0.854 0.77 3.01 c 0.44799995 -0.37800002 1.0780001 -0.43400002 1.358 -0.43400002 c 0.98000026 0 1.5260003 0.63 1.8620002 1.0220001 c 0.12599993 -0.63 0.64400005 -1.0220001 1.2599998 -1.0220001 c 0.49000025 0 0.8120003 0.32200003 1.0360003 0.77 c 0.23799992 0.504 0.42000008 1.3860002 0.42000008 1.3860002 Z "/>
        </symbol>
        <symbol id="m0-gCF219B43146A405861AC860C28B24613" overflow="visible">
            <path d="M 0 0m 10.108001 -0.896 c 0 0.15399998 -0.1260004 0.28000003 -0.2800007 0.28000003 h -4.1019998 v 3.836 h 4.1019998 c 0.15400028 0 0.2800007 0.12600017 0.2800007 0.27999997 c 0 0.15400004 -0.1260004 0.2800002 -0.2800007 0.2800002 h -4.1019998 v 4.102 c 0 0.1539998 -0.12599993 0.2800002 -0.2800002 0.2800002 c -0.1539998 0 -0.27999973 -0.1260004 -0.27999973 -0.2800002 v -4.102 h -4.102 c -0.15399998 0 -0.27999997 -0.12600017 -0.27999997 -0.2800002 c 0 -0.1539998 0.12599999 -0.27999997 0.27999997 -0.27999997 h 4.102 v -3.836 h -4.102 c -0.15399998 0 -0.27999997 -0.12600005 -0.27999997 -0.28000003 c 0 -0.15400004 0.12599999 -0.27999997 0.27999997 -0.27999997 h 8.764 c 0.15400028 0 0.2800007 0.12599993 0.2800007 0.27999997 Z "/>
        </symbol>
        <symbol id="m0-g6CAC2858004ED8DD5E89F964EABBB36A" overflow="visible">
            <path d="M 0 0m 7.938 5.698 c 0 0.33600044 -0.29400015 0.33600044 -0.546 0.33600044 h -3.192 c -2.1140003 0 -3.6680002 -2.3100002 -3.6680002 -3.9760003 c 0 -1.2320001 0.82600003 -2.2120001 2.1 -2.2120001 c 1.652 0 3.5140004 1.6940001 3.5140004 3.8500001 c 0 0.23799992 0 0.90999985 -0.43400002 1.526 h 1.54 c 0.18199968 0 0.6859999 0 0.6859999 0.47599983 Z m -2.6880002 -1.8339999 c 0 -0.658 -0.27999973 -1.806 -0.75600004 -2.52 c -0.54599977 -0.8260001 -1.3019998 -1.19 -1.8479998 -1.19 c -0.6860001 0 -1.246 0.504 -1.246 1.512 c 0 0.41999996 0.16799998 1.5680002 0.658 2.394 c 0.58800006 0.9660001 1.428 1.1620002 1.904 1.1620002 c 1.1759999 0 1.2879999 -0.9239998 1.2879999 -1.358 Z "/>
        </symbol>
    </defs>
</g><text x="15" y="269" font-size="14" text-anchor="middle" transform="rotate(-90,15,269)">count</text><text x="359" y="27.400000000000002" font-size="18" text-anchor="middle">Standard deviation</text><g clip-path="url(#kuva-clip-0)"><circle cx="209" cy="449" r="3" fill="#4682b4" /><circle cx="359" cy="314" r="3" fill="#4682b4" /><circle cx="509" cy="89" r="3" fill="#4682b4" /></g></svg>