<svg xmlns="http://www.w3.org/2000/svg" width="673" height="545" font-family="DejaVu Sans, Liberation Sans, Arial, sans-serif" fill="black"><rect width="100%" height="100%" fill="white" /><defs><clipPath id="kuva-clip-8"><rect x="59" y="44" width="600" height="450"/></clipPath></defs><line x1="109" y1="44" x2="109" y2="494" stroke="#cccccc" stroke-width="1" /><line x1="234" y1="44" x2="234" y2="494" stroke="#cccccc" stroke-width="1" /><line x1="359" y1="44" x2="359" y2="494" stroke="#cccccc" stroke-width="1" /><line x1="484" y1="44" x2="484" y2="494" stroke="#cccccc" stroke-width="1" /><line x1="609" y1="44" x2="609" y2="494" stroke="#cccccc" stroke-width="1" /><line x1="59" y1="404" x2="659" y2="404" stroke="#cccccc" stroke-width="1" /><line x1="59" y1="314" x2="659" y2="314" stroke="#cccccc" stroke-width="1" /><line x1="59" y1="224" x2="659" y2="224" stroke="#cccccc" stroke-width="1" /><line x1="59" y1="134" x2="659" y2="134" stroke="#cccccc" stroke-width="1" /><line x1="59" y1="44" x2="659" y2="44" stroke="#cccccc" stroke-width="1" /><line x1="59" y1="494" x2="659" y2="494" stroke="#000000" stroke-width="1" /><line x1="59" y1="44" x2="59" y2="494" stroke="#000000" stroke-width="1" /><line x1="109" y1="494" x2="109" y2="499" stroke="#000000" stroke-width="1" /><text x="109" y="511" font-size="12" text-anchor="middle">-5</text><line x1="234" y1="494" x2="234" y2="499" stroke="#000000" stroke-width="1" /><text x="234" y="511" font-size="12" text-anchor="middle">-2.5</text><line x1="359" y1="494" x2="359" y2="499" stroke="#000000" stroke-width="1" /><text x="359" y="511" font-size="12" text-anchor="middle">0</text><line x1="484" y1="494" x2="484" y2="499" stroke="#000000" stroke-width="1" /><text x="484" y="511" font-size="12" text-anchor="middle">2.5</text><line x1="609" y1="494" x2="609" y2="499" stroke="#000000" stroke-width="1" /><text x="609" y="511" font-size="12" text-anchor="middle">5</text><line x1="54" y1="494" x2="59" y2="494" stroke="#000000" stroke-width="1" /><text x="51" y="498.2" font-size="12" text-anchor="end">0</text><line x1="54" y1="404" x2="59" y2="404" stroke="#000000" stroke-width="1" /><text x="51" y="408.2" font-size="12" text-anchor="end">2.5</text><line x1="54" y1="314" x2="59" y2="314" stroke="#000000" stroke-width="1" /><text x="51" y="318.2" font-size="12" text-anchor="end">5</text><line x1="54" y1="224" x2="59" y2="224" stroke="#000000" stroke-width="1" /><text x="51" y="228.20000000000002" font-size="12" text-anchor="end">7.5</text><line x1="54" y1="134" x2="59" y2="134" stroke="#000000" stroke-width="1" /><text x="51" y="138.20000000000002" font-size="12" text-anchor="end">10</text><line x1="54" y1="44" x2="59" y2="44" stroke="#000000" stroke-width="1" /><text x="51" y="48.2" font-size="12" text-anchor="end">12.5</text><text x="359" y="538" font-size="14" text-anchor="middle">log₂ fold change</text><text x="15" y="269" font-size="14" text-anchor="middle" transform="rotate(-90,15,269)">-log₁₀(p)</text><text x="359" y="27.400000000000002" font-size="18" text-anchor="middle">Differential expression</text><g clip-path="url(#kuva-clip-8)"><circle cx="154" cy="198.8" r="3" fill="#4682b4" /><circle cx="244" cy="310.40000000000003" r="3" fill="#4682b4" /><circle cx="299" cy="429.2" r="3" fill="#4682b4" /><circle cx="364" cy="479.6" r="3" fill="#4682b4" /><circle cx="404" cy="450.8" r="3" fill="#4682b4" /><circle cx="449" cy="360.8" r="3" fill="#4682b4" /><circle cx="484" cy="317.6" r="3" fill="#4682b4" /><circle cx="539" cy="213.20000000000002" r="3" fill="#4682b4" /><circle cx="579" cy="94.4" r="3" fill="#4682b4" /></g></svg>