<svg xmlns="http://www.w3.org/2000/svg" width="673" height="545" font-family="DejaVu Sans, Liberation Sans, Arial, sans-serif" fill="black"><rect width="100%" height="100%" fill="white" /><defs><clipPath id="kuva-clip-7"><rect x="59" y="44" width="600" height="450"/></clipPath></defs><line x1="209" y1="44" x2="209" y2="494" stroke="#cccccc" stroke-width="1" /><line x1="359" y1="44" x2="359" y2="494" stroke="#cccccc" stroke-width="1" /><line x1="509" y1="44" x2="509" y2="494" stroke="#cccccc" stroke-width="1" /><line x1="659" y1="44" x2="659" y2="494" stroke="#cccccc" stroke-width="1" /><line x1="59" y1="404" x2="659" y2="404" stroke="#cccccc" stroke-width="1" /><line x1="59" y1="314" x2="659" y2="314" stroke="#cccccc" stroke-width="1" /><line x1="59" y1="224" x2="659" y2="224" stroke="#cccccc" stroke-width="1" /><line x1="59" y1="134" x2="659" y2="134" stroke="#cccccc" stroke-width="1" /><line x1="59" y1="44" x2="659" y2="44" stroke="#cccccc" stroke-width="1" /><line x1="59" y1="494" x2="659" y2="494" stroke="#000000" stroke-width="1" /><line x1="59" y1="44" x2="59" y2="494" stroke="#000000" stroke-width="1" /><line x1="59" y1="494" x2="59" y2="499" stroke="#000000" stroke-width="1" /><text x="59" y="511" font-size="12" text-anchor="middle">0</text><line x1="209" y1="494" x2="209" y2="499" stroke="#000000" stroke-width="1" /><text x="209" y="511" font-size="12" text-anchor="middle">1</text><line x1="359" y1="494" x2="359" y2="499" stroke="#000000" stroke-width="1" /><text x="359" y="511" font-size="12" text-anchor="middle">2</text><line x1="509" y1="494" x2="509" y2="499" stroke="#000000" stroke-width="1" /><text x="509" y="511" font-size="12" text-anchor="middle">3</text><line x1="659" y1="494" x2="659" y2="499" stroke="#000000" stroke-width="1" /><text x="659" y="511" font-size="12" text-anchor="middle">4</text><line x1="54" y1="494" x2="59" y2="494" stroke="#000000" stroke-width="1" /><text x="51" y="498.2" font-size="12" text-anchor="end">0</text><line x1="54" y1="404" x2="59" y2="404" stroke="#000000" stroke-width="1" /><text x="51" y="408.2" font-size="12" text-anchor="end">2</text><line x1="54" y1="314" x2="59" y2="314" stroke="#000000" stroke-width="1" /><text x="51" y="318.2" font-size="12" text-anchor="end">4</text><line x1="54" y1="224" x2="59" y2="224" stroke="#000000" stroke-width="1" /><text x="51" y="228.20000000000002" font-size="12" text-anchor="end">6</text><line x1="54" y1="134" x2="59" y2="134" stroke="#000000" stroke-width="1" /><text x="51" y="138.20000000000002" font-size="12" text-anchor="end">8</text><line x1="54" y1="44" x2="59" y2="44" stroke="#000000" stroke-width="1" /><text x="51" y="48.2" font-size="12" text-anchor="end">10</text><g transform="translate(287.86945078125,518.96328125)">
    <g>
        <g class="typst-group">
            <g>
                <g class="typst-text" transform="matrix(1 0 0 -1 4.2 14.836718750000001)">
                    <use href="#m0-gF243193DE79769E4F03E8EF78F524DD0" x="0" y="0" fill="#000000" fill-rule="nonzero"/>
                    <use href="#m0-g6EED7B5B582430F1C69566EEB80468CF" x="8.490234375" y="0" fill="#000000" fill-rule="nonzero"/>
                    <use href="#m0-g9B1BFBF81DFAD17245C8B65333EE23A5" x="17.0693359375" y="0" fill="#000000" fill-rule="nonzero"/>
                    <use href="#m0-gE8B8E8E1D7987ED12533D00D9FBFF3C" x="22.8251953125" y="0" fill="#000000" fill-rule="nonzero"/>
                    <use href="#m0-g6EED7B5B582430F1C69566EEB80468CF" x="26.71484375" y="0" fill="#000000" fill-rule="nonzero"/>
                    <use href="#m0-g2D3982F032C26C54AE8A55E267EA083E" x="35.2939453125" y="0" fill="#000000" fill-rule="nonzero"/>
                    <use href="#m0-gEE8F372DEB62268A33D66693DB9F8769" x="44.1669921875" y="0" fill="#000000" fill-rule="nonzero"/>
                    <use href="#m0-gDBC5636308A396816CD2198915C74EF6" x="51.8642578125" y="0" fill="#000000" fill-rule="nonzero"/>
                    <use href="#m0-g4A4C1336909AC8CED415C5102826B841" x="60.4775390625" y="0" fill="#000000" fill-rule="nonzero"/>
                </g>
                <g class="typst-text" transform="matrix(1 0 0 -1 73.5779296875 14.836718750000001)">
                    <use href="#m0-g6CAC2858004ED8DD5E89F964EABBB36A" x="0" y="0" fill="#000000" fill-rule="nonzero"/>
                </g>
                <g class="typst-text" transform="matrix(1 0 0 -1 81.9079296875 9.754718749999999)">
                    <use href="#m0-gE2884968D2D26D61956A707591E7CEB7" x="0" y="0" fill="#000000" fill-rule="nonzero"/>
                </g>
                <g class="typst-text" transform="matrix(1 0 0 -1 88.2681296875 14.836718750000001)">
                    <use href="#m0-gF742789BD91EBE9EAEBCF0F8597DBBA1" x="4.4501953125" y="0" fill="#000000" fill-rule="nonzero"/>
                    <use href="#m0-gF192937C5E4A691F15DF7FF9A98AB0E" x="9.912109375" y="0" fill="#000000" fill-rule="nonzero"/>
                    <use href="#m0-g2D3982F032C26C54AE8A55E267EA083E" x="18.78515625" y="0" fill="#000000" fill-rule="nonzero"/>
                    <use href="#m0-gE8B8E8E1D7987ED12533D00D9FBFF3C" x="27.658203125" y="0" fill="#000000" fill-rule="nonzero"/>
                    <use href="#m0-g36A48439F5D7301B024387683199F68F" x="31.5478515625" y="0" fill="#000000" fill-rule="nonzero"/>
                    <use href="#m0-g4EBBD440877171EECA55A18F8F118B55" x="37.037109375" y="0" fill="#000000" fill-rule="nonzero"/>
                    <use href="#m0-g82024E2282844B9934B198C42B706FD9" x="44.3310546875" y="0" fill="#000000" fill-rule="nonzero"/>
                </g>
            </g>
        </g>
    </g>
    <defs id="m0-glyph">
        <symbol id="m0-gF243193DE79769E4F03E8EF78F524DD0" overflow="visible">
            <path d="M 0 0m 4.0058594 0 l -3.8964844 10.206055 h 1.4423828 l 3.2333984 -8.592773 l 3.2402344 8.592773 h 1.4355469 l -3.8896484 -10.206055 h -1.5654297 Z "/>
        </symbol>
        <symbol id="m0-g6EED7B5B582430F1C69566EEB80468CF" overflow="visible">
            <path d="M 0 0m 4.798828 3.8486328 q -1.5244141 0 -2.1123047 -0.3486328 q -0.5878906 -0.3486328 -0.5878906 -1.1894531 q 0 -0.6699219 0.44091797 -1.0629883 q 0.44091797 -0.3930664 1.199707 -0.3930664 q 1.0458984 0 1.6782227 0.7416992 q 0.6323242 0.7416992 0.6323242 1.972168 v 0.28027344 h -1.2509766 Z m 2.508789 0.51953125 v -4.368164 h -1.2578125 v 1.1621094 q -0.43066406 -0.6972656 -1.0732422 -1.0288086 q -0.6425781 -0.33154297 -1.5722656 -0.33154297 q -1.1757813 0 -1.8696289 0.65966797 q -0.69384766 0.65966797 -0.69384766 1.7670898 q 0 1.2919922 0.8647461 1.9482422 q 0.8647461 0.65625 2.5805664 0.65625 h 1.7636719 v 0.123046875 q 0 0.86816406 -0.5708008 1.3432617 q -0.5708008 0.47509766 -1.6030273 0.47509766 q -0.65625 0 -1.2783203 -0.15722656 q -0.6220703 -0.15722656 -1.1962891 -0.4716797 v 1.1621094 q 0.6904297 0.26660156 1.3398438 0.39990234 q 0.64941406 0.13330078 1.2646484 0.13330078 q 1.6611328 0 2.4814453 -0.8613281 q 0.8203125 -0.8613281 0.8203125 -2.6113281 Z "/>
        </symbol>
        <symbol id="m0-g9B1BFBF81DFAD17245C8B65333EE23A5" overflow="visible">
            <path d="M 0 0m 5.7558594 6.4804688 q -0.21191406 0.123046875 -0.46142578 0.18115234 q -0.24951172 0.05810547 -0.55029297 0.05810547 q -1.0664063 0 -1.637207 -0.69384766 q -0.5708008 -0.69384766 -0.5708008 -1.9926758 v -4.033203 h -1.2646484 v 7.65625 h 1.2646484 v -1.1894531 q 0.39648438 0.6972656 1.0322266 1.0356445 q 0.6357422 0.3383789 1.5449219 0.3383789 q 0.12988281 0 0.28710938 -0.017089844 q 0.15722656 -0.017089844 0.3486328 -0.05126953 l 0.0068359375 -1.2919922 Z "/>
        </symbol>
        <symbol id="m0-gE8B8E8E1D7987ED12533D00D9FBFF3C" overflow="visible">
            <path d="M 0 0m 1.3193359 7.65625 h 1.2578125 v -7.65625 h -1.2578125 v 7.65625 Z m 0 2.9804688 h 1.2578125 v -1.5927734 h -1.2578125 v 1.5927734 Z "/>
        </symbol>
        <symbol id="m0-g2D3982F032C26C54AE8A55E267EA083E" overflow="visible">
            <path d="M 0 0m 7.6835938 4.6210938 v -4.6210938 h -1.2578125 v 4.580078 q 0 1.0869141 -0.42382813 1.6269531 q -0.42382813 0.54003906 -1.2714844 0.54003906 q -1.0185547 0 -1.6064453 -0.64941406 q -0.5878906 -0.64941406 -0.5878906 -1.7705078 v -4.3271484 h -1.2646484 v 7.65625 h 1.2646484 v -1.1894531 q 0.45117188 0.6904297 1.0629883 1.0322266 q 0.6118164 0.34179688 1.4116211 0.34179688 q 1.3193359 0 1.9960938 -0.81689453 q 0.6767578 -0.81689453 0.6767578 -2.402832 Z "/>
        </symbol>
        <symbol id="m0-gEE8F372DEB62268A33D66693DB9F8769" overflow="visible">
            <path d="M 0 0m 6.8291016 7.3623047 v -1.1757813 q -0.5332031 0.2939453 -1.0698242 0.44091797 q -0.5366211 0.14697266 -1.0834961 0.14697266 q -1.2236328 0 -1.9003906 -0.7758789 q -0.6767578 -0.7758789 -0.6767578 -2.177246 q 0 -1.4013672 0.6767578 -2.177246 q 0.6767578 -0.7758789 1.9003906 -0.7758789 q 0.546875 0 1.0834961 0.14697266 q 0.5366211 0.14697266 1.0698242 0.44091797 v -1.1621094 q -0.5263672 -0.24609375 -1.090332 -0.36914063 q -0.56396484 -0.123046875 -1.199707 -0.123046875 q -1.7294922 0 -2.7480469 1.0869141 q -1.0185547 1.0869141 -1.0185547 2.9326172 q 0 1.8730469 1.0288086 2.946289 q 1.0288086 1.0732422 2.8198242 1.0732422 q 0.5810547 0 1.1347656 -0.119628906 q 0.55371094 -0.119628906 1.0732422 -0.35888672 Z "/>
        </symbol>
        <symbol id="m0-gDBC5636308A396816CD2198915C74EF6" overflow="visible">
            <path d="M 0 0m 7.868164 4.142578 v -0.6152344 h -5.783203 q 0.08203125 -1.2988281 0.78271484 -1.9790039 q 0.7006836 -0.6801758 1.9516602 -0.6801758 q 0.7246094 0 1.4047852 0.17773438 q 0.6801758 0.17773438 1.3500977 0.5332031 v -1.1894531 q -0.6767578 -0.28710938 -1.3876953 -0.4375 q -0.7109375 -0.15039063 -1.4423828 -0.15039063 q -1.8320313 0 -2.9018555 1.0664063 q -1.0698242 1.0664063 -1.0698242 2.8847656 q 0 1.8798828 1.0151367 2.9838867 q 1.0151367 1.1040039 2.737793 1.1040039 q 1.5449219 0 2.4438477 -0.9946289 q 0.8989258 -0.9946289 0.8989258 -2.7036133 Z m -1.2578125 0.36914063 q -0.013671875 1.0322266 -0.5776367 1.6474609 q -0.56396484 0.6152344 -1.4936523 0.6152344 q -1.0527344 0 -1.6850586 -0.59472656 q -0.6323242 -0.59472656 -0.72802734 -1.6748047 l 4.484375 0.0068359375 Z "/>
        </symbol>
        <symbol id="m0-g4A4C1336909AC8CED415C5102826B841" overflow="visible">
            <path d="M 0 0m 1.640625 1.7363281 h 1.4423828 v -1.1757813 l -1.1210938 -2.1875 h -0.88183594 l 0.5605469 2.1875 v 1.1757813 Z "/>
        </symbol>
        <symbol id="m0-g6CAC2858004ED8DD5E89F964EABBB36A" overflow="visible">
            <path d="M 0 0m 7.938 5.698 c 0 0.33600044 -0.29400015 0.33600044 -0.546 0.33600044 h -3.192 c -2.1140003 0 -3.6680002 -2.3100002 -3.6680002 -3.9760003 c 0 -1.2320001 0.82600003 -2.2120001 2.1 -2.2120001 c 1.652 0 3.5140004 1.6940001 3.5140004 3.8500001 c 0 0.23799992 0 0.90999985 -0.43400002 1.526 h 1.54 c 0.18199968 0 0.6859999 0 0.6859999 0.47599983 Z m -2.6880002 -1.8339999 c 0 -0.658 -0.27999973 -1.806 -0.75600004 -2.52 c -0.54599977 -0.8260001 -1.3019998 -1.19 -1.8479998 -1.19 c -0.6860001 0 -1.246 0.504 -1.246 1.512 c 0 0.41999996 0.16799998 1.5680002 0.658 2.394 c 0.58800006 0.9660001 1.428 1.1620002 1.904 1.1620002 c 1.1759999 0 1.2879999 -0.9239998 1.2879999 -1.358 Z "/>
        </symbol>
        <symbol id="m0-gE2884968D2D26D61956A707591E7CEB7" overflow="visible">
            <path d="M 0 0m 4.949 1.7836 h -0.33319998 c -0.029399872 -0.2155999 -0.12739992 -0.79379994 -0.25479984 -0.8918 c -0.078400135 -0.058799982 -0.83299994 -0.058799982 -0.97020006 -0.058799982 h -1.8032 c 1.029 0.9114 1.372 1.1858001 1.96 1.6464 c 0.72519994 0.5782001 1.4013999 1.1858001 1.4013999 2.1168 c 0 1.1858001 -1.0387998 1.9110003 -2.2931998 1.9110003 c -1.2152001 0 -2.0384002 -0.8526001 -2.0384002 -1.7542 c 0 -0.4998002 0.4214 -0.5488 0.51940006 -0.5488 c 0.23519993 0 0.5194 0.16659975 0.5194 0.51939964 c 0 0.17640018 -0.06860006 0.5194001 -0.5782 0.5194001 c 0.3038 0.6957998 0.97020006 0.91139984 1.4308 0.91139984 c 0.98 0 1.4896 -0.7644 1.4896 -1.5581999 c 0 -0.85259986 -0.6076 -1.5288 -0.92120004 -1.8815999 l -2.3618 -2.3324 c -0.09799999 -0.0882 -0.09799999 -0.10780001 -0.09799999 -0.3822 h 4.0376 Z "/>
        </symbol>
        <symbol id="m0-gF742789BD91EBE9EAEBCF0F8597DBBA1" overflow="visible">
            <path d="M 0 0m 4.3408203 10.623047 q -0.9160156 -1.5722656 -1.3603516 -3.1103516 q -0.44433594 -1.5380859 -0.44433594 -3.1171875 q 0 -1.5791016 0.4477539 -3.1274414 q 0.4477539 -1.5483398 1.3569336 -3.1137695 h -1.09375 q -1.0253906 1.6064453 -1.534668 3.1582031 q -0.50927734 1.5517578 -0.50927734 3.0830078 q 0 1.5244141 0.5058594 3.069336 q 0.5058594 1.5449219 1.5380859 3.1582031 h 1.09375 Z "/>
        </symbol>
        <symbol id="m0-gF192937C5E4A691F15DF7FF9A98AB0E" overflow="visible">
            <path d="M 0 0m 1.1894531 3.0214844 v 4.6347656 h 1.2578125 v -4.586914 q 0 -1.0869141 0.42382813 -1.6303711 q 0.42382813 -0.54345703 1.2714844 -0.54345703 q 1.0185547 0 1.6098633 0.64941406 q 0.5913086 0.64941406 0.5913086 1.7705078 v 4.3408203 h 1.2578125 v -7.65625 h -1.2578125 v 1.1757813 q -0.4580078 -0.6972656 -1.0629883 -1.0356445 q -0.60498047 -0.3383789 -1.4047852 -0.3383789 q -1.3193359 0 -2.0029297 0.8203125 q -0.68359375 0.8203125 -0.68359375 2.399414 Z m 3.165039 4.819336 Z "/>
        </symbol>
        <symbol id="m0-g36A48439F5D7301B024387683199F68F" overflow="visible">
            <path d="M 0 0m 2.5634766 9.830078 v -2.1738281 h 2.5908203 v -0.97753906 h -2.5908203 v -4.15625 q 0 -0.93652344 0.25634766 -1.203125 q 0.25634766 -0.26660156 1.0424805 -0.26660156 h 1.2919922 v -1.0527344 h -1.2919922 q -1.4560547 0 -2.0097656 0.54345703 q -0.55371094 0.54345703 -0.55371094 1.9790039 v 4.15625 h -0.92285156 v 0.97753906 h 0.92285156 v 2.1738281 h 1.2646484 Z "/>
        </symbol>
        <symbol id="m0-g4EBBD440877171EECA55A18F8F118B55" overflow="visible">
            <path d="M 0 0m 6.2001953 7.430664 v -1.1894531 q -0.5332031 0.2734375 -1.1074219 0.41015625 q -0.57421875 0.13671875 -1.1894531 0.13671875 q -0.93652344 0 -1.4047852 -0.28710938 q -0.46826172 -0.28710938 -0.46826172 -0.8613281 q 0 -0.4375 0.33496094 -0.6870117 q 0.33496094 -0.24951172 1.3466797 -0.47509766 l 0.43066406 -0.095703125 q 1.3398438 -0.28710938 1.9038086 -0.8100586 q 0.56396484 -0.5229492 0.56396484 -1.4594727 q 0 -1.0664063 -0.8442383 -1.6884766 q -0.8442383 -0.6220703 -2.3208008 -0.6220703 q -0.6152344 0 -1.2817383 0.119628906 q -0.6665039 0.119628906 -1.4047852 0.35888672 v 1.2988281 q 0.6972656 -0.3623047 1.3740234 -0.54345703 q 0.6767578 -0.18115234 1.3398438 -0.18115234 q 0.8886719 0 1.3671875 0.30419922 q 0.47851563 0.30419922 0.47851563 0.85791016 q 0 0.5126953 -0.34521484 0.7861328 q -0.34521484 0.2734375 -1.5141602 0.5263672 l -0.4375 0.10253906 q -1.1689453 0.24609375 -1.6884766 0.7553711 q -0.51953125 0.50927734 -0.51953125 1.3979492 q 0 1.0800781 0.765625 1.6679688 q 0.765625 0.5878906 2.1738281 0.5878906 q 0.6972656 0 1.3125 -0.10253906 q 0.6152344 -0.10253906 1.1347656 -0.3076172 Z "/>
        </symbol>
        <symbol id="m0-g82024E2282844B9934B198C42B706FD9" overflow="visible">
            <path d="M 0 0m 1.1210938 10.623047 h 1.09375 q 1.0253906 -1.6132813 1.534668 -3.1582031 q 0.50927734 -1.5449219 0.50927734 -3.069336 q 0 -1.53125 -0.50927734 -3.0830078 q -0.50927734 -1.5517578 -1.534668 -3.1582031 h -1.09375 q 0.9091797 1.5654297 1.3569336 3.1137695 q 0.4477539 1.5483398 0.4477539 3.1274414 q 0 1.5791016 -0.4477539 3.1171875 q -0.4477539 1.5380859 -1.3569336 3.1103516 Z "/>
        </symbol>
    </defs>
</g><g transform="translate(2.961999999999991,0)"><g transform="rotate(-90,15,269)"><g transform="translate(-5.527111111111111,251.038)">
    <g>
        <g class="typst-text" transform="matrix(1 0 0 -1 4.2 13.761999999999999)">
            <use href="#m1-g74F2D31C25DD7D5AC386AE4B06B5034A" x="0" y="0" fill="#000000" fill-rule="nonzero"/>
        </g>
        <g class="typst-text" transform="matrix(1 0 0 -1 18.97311111111111 13.761999999999999)">
            <use href="#m1-gDCAC057B1B2A62E45D1C84E8C61C4B05" x="0" y="0" fill="#000000" fill-rule="nonzero"/>
        </g>
        <g class="typst-text" transform="matrix(1 0 0 -1 25.97622222222222 13.761999999999999)">
            <use href="#m1-g800FB3240DD4A1E282B5BE3048D10504" x="0" y="0" fill="#000000" fill-rule="nonzero"/>
        </g>
    </g>
    <defs id="m1-glyph">
        <symbol id="m1-g74F2D31C25DD7D5AC386AE4B06B5034A" overflow="visible">
            <path d="M 0 0m 10.990001 9.450001 c 0 0.11199951 -0.08400059 0.11199951 -0.30800056 0.11199951 h -9.716001 c -0.22399998 0 -0.30800003 0 -0.30800003 -0.11199951 c 0 0 0 -0.04200077 0.07000005 -0.16800022 l 4.732 -9.492001 c 0.09800005 -0.18200001 0.12599993 -0.252 0.36400032 -0.252 c 0.23799992 0 0.2659998 0.06999999 0.36399984 0.252 l 4.732 9.492001 c 0.07000065 0.12599945 0.07000065 0.16800022 0.07000065 0.16800022 Z m -0.9100008 -0.8820009 l -3.836 -7.7139997 h -0.013999939 l -3.85 7.7139997 Z "/>
        </symbol>
        <symbol id="m1-gDCAC057B1B2A62E45D1C84E8C61C4B05" overflow="visible">
            <path d="M 0 0m 2.6880002 3.5 c 0 0.40600014 -0.3360002 0.7420001 -0.7420001 0.7420001 c -0.40600002 0 -0.7420001 -0.33599997 -0.7420001 -0.7420001 c 0 -0.4059999 0.33600008 -0.74199986 0.7420001 -0.74199986 c 0.4059999 0 0.7420001 0.33599997 0.7420001 0.74199986 Z "/>
        </symbol>
        <symbol id="m1-g800FB3240DD4A1E282B5BE3048D10504" overflow="visible">
            <path d="M 0 0m 10.472 9.142 c 0.041999817 0.37800026 -0.027999878 0.37800026 -0.37800026 0.37800026 h -6.8599997 c -0.2800002 0 -0.42000008 0 -0.42000008 -0.27999973 c 0 -0.15400028 0.12599993 -0.15400028 0.39199996 -0.15400028 c 0.5180001 0 0.9100001 0 0.9100001 -0.25199986 c 0 -0.05600071 0 -0.08400059 -0.07000017 -0.33600044 l -1.848 -7.406 c -0.13999987 -0.546 -0.16799998 -0.658 -1.2739999 -0.658 c -0.23799998 0 -0.39200002 0 -0.39200002 -0.266 c 0 -0.16800001 0.16800004 -0.16800001 0.21000004 -0.16800001 l 1.848 0.042000003 l 2.086 -0.042000003 c 0.12599993 0 0.29400015 0 0.29400015 0.266 c 0 0.11200002 -0.08400011 0.15400001 -0.08400011 0.15400001 c -0.041999817 0.013999999 -0.07000017 0.013999999 -0.3920002 0.013999999 c -0.3079996 0 -0.37799978 0 -0.7279999 0.027999997 c -0.4059999 0.041999996 -0.44799995 0.09799999 -0.44799995 0.28000003 c 0 0 0 0.11199999 0.055999994 0.32199997 l 0.86800003 3.486 h 1.3580003 c 1.0499997 0 1.1619997 -0.22399998 1.1619997 -0.6300001 c 0 -0.09800005 0 -0.26600003 -0.09800005 -0.6859999 c -0.027999878 -0.07000017 -0.041999817 -0.15400004 -0.041999817 -0.15400004 c 0 -0.11199999 0.08400011 -0.16799998 0.16800022 -0.16799998 c 0.13999987 0 0.13999987 0.041999817 0.20999956 0.2939999 l 0.77000046 3.0379999 c 0.041999817 0.15400028 0.041999817 0.18200016 0.041999817 0.22400045 c 0 0 -0.027999878 0.1539998 -0.16800022 0.1539998 c -0.13999987 0 -0.1539998 -0.07000017 -0.21000004 -0.29400015 c -0.29399967 -1.092 -0.6159997 -1.3439999 -1.8059998 -1.3439999 h -1.2740002 l 0.8959999 3.5559998 c 0.1260004 0.49000072 0.14000034 0.5460005 0.75600004 0.5460005 h 1.848 c 1.7220001 0 2.0440006 -0.4619999 2.0440006 -1.5400004 c 0 -0.32199955 0 -0.37799978 -0.04200077 -0.75599957 c -0.027999878 -0.18200016 -0.027999878 -0.21000004 -0.027999878 -0.25200033 c 0 -0.069999695 0.041999817 -0.16799974 0.16800022 -0.16799974 c 0.15400028 0 0.16800022 0.083999634 0.1960001 0.3499999 Z "/>
        </symbol>
    </defs>
</g></g></g><text x="359" y="27.400000000000002" font-size="18" text-anchor="middle">Mixed text and math</text><g clip-path="url(#kuva-clip-7)"><circle cx="209" cy="449" r="3" fill="#4682b4" /><circle cx="359" cy="314" r="3" fill="#4682b4" /><circle cx="509" cy="89" r="3" fill="#4682b4" /></g></svg>