<svg xmlns="http://www.w3.org/2000/svg" width="673" height="545" font-family="DejaVu Sans, Liberation Sans, Arial, sans-serif" fill="black"><rect width="100%" height="100%" fill="white" /><defs><clipPath id="kuva-clip-5"><rect x="59" y="44" width="600" height="450"/></clipPath></defs><line x1="209" y1="44" x2="209" y2="494" stroke="#cccccc" stroke-width="1" /><line x1="359" y1="44" x2="359" y2="494" stroke="#cccccc" stroke-width="1" /><line x1="509" y1="44" x2="509" y2="494" stroke="#cccccc" stroke-width="1" /><line x1="659" y1="44" x2="659" y2="494" stroke="#cccccc" stroke-width="1" /><line x1="59" y1="404" x2="659" y2="404" stroke="#cccccc" stroke-width="1" /><line x1="59" y1="314" x2="659" y2="314" stroke="#cccccc" stroke-width="1" /><line x1="59" y1="224" x2="659" y2="224" stroke="#cccccc" stroke-width="1" /><line x1="59" y1="134" x2="659" y2="134" stroke="#cccccc" stroke-width="1" /><line x1="59" y1="44" x2="659" y2="44" stroke="#cccccc" stroke-width="1" /><line x1="59" y1="494" x2="659" y2="494" stroke="#000000" stroke-width="1" /><line x1="59" y1="44" x2="59" y2="494" stroke="#000000" stroke-width="1" /><line x1="59" y1="494" x2="59" y2="499" stroke="#000000" stroke-width="1" /><text x="59" y="511" font-size="12" text-anchor="middle">0</text><line x1="209" y1="494" x2="209" y2="499" stroke="#000000" stroke-width="1" /><text x="209" y="511" font-size="12" text-anchor="middle">1</text><line x1="359" y1="494" x2="359" y2="499" stroke="#000000" stroke-width="1" /><text x="359" y="511" font-size="12" text-anchor="middle">2</text><line x1="509" y1="494" x2="509" y2="499" stroke="#000000" stroke-width="1" /><text x="509" y="511" font-size="12" text-anchor="middle">3</text><line x1="659" y1="494" x2="659" y2="499" stroke="#000000" stroke-width="1" /><text x="659" y="511" font-size="12" text-anchor="middle">4</text><line x1="54" y1="494" x2="59" y2="494" stroke="#000000" stroke-width="1" /><text x="51" y="498.2" font-size="12" text-anchor="end">0</text><line x1="54" y1="404" x2="59" y2="404" stroke="#000000" stroke-width="1" /><text x="51" y="408.2" font-size="12" text-anchor="end">2</text><line x1="54" y1="314" x2="59" y2="314" stroke="#000000" stroke-width="1" /><text x="51" y="318.2" font-size="12" text-anchor="end">4</text><line x1="54" y1="224" x2="59" y2="224" stroke="#000000" stroke-width="1" /><text x="51" y="228.20000000000002" font-size="12" text-anchor="end">6</text><line x1="54" y1="134" x2="59" y2="134" stroke="#000000" stroke-width="1" /><text x="51" y="138.20000000000002" font-size="12" text-anchor="end">8</text><line x1="54" y1="44" x2="59" y2="44" stroke="#000000" stroke-width="1" /><text x="51" y="48.2" font-size="12" text-anchor="end">10</text><g transform="translate(308.57651111111113,520.038)">
    <g>
        <g class="typst-text" transform="matrix(1 0 0 -1 4.2 13.761999999999999)">
            <use href="#m0-gC5269AB82F5D93FA1F68837812F3B96E" x="0" y="0" fill="#000000" fill-rule="nonzero"/>
        </g>
        <g class="typst-text" transform="matrix(1 0 0 -1 16.096888888888888 13.761999999999999)">
            <use href="#m0-g29B197486F8EEF21D0A9BF9E1AA6364" x="0" y="0" fill="#000000" fill-rule="nonzero"/>
        </g>
        <g class="typst-group">
            <g>
                <g class="typst-text" transform="matrix(1 0 0 -1 32.27777777777777 8.246000000000002)">
                    <use href="#m0-g3EB8831EF2CFE98BBD6EF85817D3B9E5" x="0" y="0" fill="#000000" fill-rule="nonzero"/>
                </g>
                <g class="typst-text" transform="matrix(1 0 0 -1 39.90217777777778 8.246000000000002)">
                    <use href="#m0-g13DB567E5775BF38246716E7CCA32D46" x="0" y="0" fill="#000000" fill-rule="nonzero"/>
                </g>
                <g class="typst-text" transform="matrix(1 0 0 -1 44.821777777777775 8.246000000000002)">
                    <use href="#m0-g6A7D3E7DEFE90AA49D7957E9DF07C2B5" x="0" y="0" fill="#000000" fill-rule="nonzero"/>
                </g>
                <g class="typst-text" transform="matrix(1 0 0 -1 52.44617777777778 -0.40109999999999835)">
                    <use href="#m0-gB5AB5FCB0C8082447418C4A5A35DB3BD" x="0" y="0" fill="#000000" fill-rule="nonzero"/>
                </g>
                <path class="typst-shape" fill="none" stroke="#000000" stroke-width="0.392" stroke-linecap="butt" stroke-linejoin="miter" stroke-miterlimit="4" transform="matrix(1 0 0 1 60.60957777777778 -0.5970999999999987)" d="M 0 0h 34.6374 "/>
                <g class="typst-group">
                    <g>
                        <g class="typst-text" transform="matrix(1 0 0 -1 60.60957777777778 8.246000000000002)">
                            <use href="#m0-g13DB567E5775BF38246716E7CCA32D46" x="0" y="0" fill="#000000" fill-rule="nonzero"/>
                        </g>
                        <g class="typst-text" transform="matrix(1 0 0 -1 65.52917777777778 5.413800000000001)">
                            <use href="#m0-g4D7F4B29B359C7A390BB189051DB1937" x="0" y="0" fill="#000000" fill-rule="nonzero"/>
                        </g>
                        <g class="typst-text" transform="matrix(1 0 0 -1 70.84497777777777 8.246000000000002)">
                            <use href="#m0-g3EB8831EF2CFE98BBD6EF85817D3B9E5" x="0" y="0" fill="#000000" fill-rule="nonzero"/>
                        </g>
                        <g class="typst-text" transform="matrix(1 0 0 -1 78.46937777777778 8.246000000000002)">
                            <use href="#m0-g5EA1141BBFDF9AA6E48DD10C593E5158" x="0" y="0" fill="#000000" fill-rule="nonzero"/>
                        </g>
                        <g class="typst-text" transform="matrix(1 0 0 -1 84.04557777777777 8.246000000000002)">
                            <use href="#m0-gD7E8A6D7B2C110427059CFA4E5F8B583" x="0" y="0" fill="#000000" fill-rule="nonzero"/>
                        </g>
                        <g class="typst-text" transform="matrix(1 0 0 -1 90.12157777777777 8.246000000000002)">
                            <use href="#m0-gAAA9EFDB59CB74727B26ADC9C4535E7D" x="0" y="0" fill="#000000" fill-rule="nonzero"/>
                        </g>
                    </g>
                </g>
                <g class="typst-text" transform="matrix(1 0 0 -1 57.93627777777778 18.592)">
                    <use href="#m0-gE2884968D2D26D61956A707591E7CEB7" x="0" y="0" fill="#000000" fill-rule="nonzero"/>
                </g>
                <g class="typst-text" transform="matrix(1 0 0 -1 63.51247777777778 18.592)">
                    <use href="#m0-gD7E8A6D7B2C110427059CFA4E5F8B583" x="0" y="0" fill="#000000" fill-rule="nonzero"/>
                </g>
                <path class="typst-shape" fill="none" stroke="#000000" stroke-width="0.56" stroke-linecap="butt" stroke-linejoin="miter" stroke-miterlimit="4" transform="matrix(1 0 0 1 32.27777777777777 10.261999999999999)" d="M 0 0h 62.9692 "/>
            </g>
        </g>
    </g>
    <defs id="m0-glyph">
        <symbol id="m0-gC5269AB82F5D93FA1F68837812F3B96E" overflow="visible">
            <path d="M 0 0m 7.3780003 5.264 c 0 0.72800016 -0.8260002 0.92400026 -1.302 0.92400026 c -0.8120003 0 -1.302 -0.7420001 -1.4700003 -1.0640001 c -0.3499999 0.92400026 -1.106 1.0640001 -1.5119998 1.0640001 c -1.4560001 0 -2.2540002 -1.8060002 -2.2540002 -2.1560001 c 0 -0.13999987 0.16799998 -0.13999987 0.16799998 -0.13999987 c 0.11199999 0 0.15400004 0.027999878 0.18200004 0.1539998 c 0.47599995 1.4840002 1.4000001 1.8340001 1.8759999 1.8340001 c 0.26600003 0 0.75600004 -0.12599993 0.75600004 -0.9379997 c 0 -0.43400002 -0.23799992 -1.3720002 -0.75600004 -3.3320003 c -0.22399998 -0.868 -0.714 -1.456 -1.3299999 -1.456 c -0.08399999 0 -0.40600002 0 -0.70000005 0.18200003 c 0.35000002 0.06999999 0.658 0.36400002 0.658 0.756 c 0 0.37800002 -0.30799997 0.49 -0.518 0.49 c -0.41999996 0 -0.77 -0.36399996 -0.77 -0.812 c 0 -0.64400005 0.70000005 -0.924 1.316 -0.924 c 0.92400014 0 1.4280001 0.98 1.4700001 1.064 c 0.16799998 -0.518 0.67199993 -1.064 1.5119998 -1.064 c 1.4420004 0 2.2400002 1.8060001 2.2400002 2.1560001 c 0 0.13999987 -0.12599993 0.13999987 -0.16800022 0.13999987 c -0.12599993 0 -0.1539998 -0.055999994 -0.18199968 -0.15399992 c -0.46200037 -1.498 -1.414 -1.834 -1.862 -1.834 c -0.546 0 -0.7700002 0.448 -0.7700002 0.9240001 c 0 0.30799997 0.08399987 0.61599994 0.23800015 1.2320001 l 0.47599983 1.918 c 0.08400011 0.36399984 0.40600014 1.652 1.3860002 1.652 c 0.069999695 0 0.40600014 0 0.6999998 -0.18200016 c -0.39199972 -0.069999695 -0.67199993 -0.4199996 -0.67199993 -0.75599957 c 0 -0.22400045 0.1539998 -0.49000025 0.53200006 -0.49000025 c 0.3080001 0 0.75600004 0.25199986 0.75600004 0.8119998 Z "/>
        </symbol>
        <symbol id="m0-g29B197486F8EEF21D0A9BF9E1AA6364" overflow="visible">
            <path d="M 0 0m 10.108001 4.8580003 c 0 0.1539998 -0.1260004 0.27999973 -0.2800007 0.27999973 h -8.764 c -0.15399998 0 -0.27999997 -0.12599993 -0.27999997 -0.27999973 c 0 -0.15400028 0.12599999 -0.2800002 0.27999997 -0.2800002 h 8.764 c 0.15400028 0 0.2800007 0.12599993 0.2800007 0.2800002 Z m 0 -2.7160003 c 0 0.15400004 -0.1260004 0.2800002 -0.2800007 0.2800002 h -8.764 c -0.15399998 0 -0.27999997 -0.12600017 -0.27999997 -0.2800002 c 0 -0.15399992 0.12599999 -0.27999985 0.27999997 -0.27999985 h 8.764 c 0.15400028 0 0.2800007 0.12599993 0.2800007 0.27999985 Z "/>
        </symbol>
        <symbol id="m0-g3EB8831EF2CFE98BBD6EF85817D3B9E5" overflow="visible">
            <path d="M 0 0m 7.0756 2.45 c 0 0.10780001 -0.08820009 0.22539997 -0.21560001 0.22539997 h -6.0956 c -0.12739998 0 -0.21560001 -0.117599964 -0.21560001 -0.22539997 c 0 -0.10780001 0.08820003 -0.22539997 0.21560001 -0.22539997 h 6.0956 c 0.12739992 0 0.21560001 0.117599964 0.21560001 0.22539997 Z "/>
        </symbol>
        <symbol id="m0-g13DB567E5775BF38246716E7CCA32D46" overflow="visible">
            <path d="M 0 0m 4.6158 2.6852 c 0 1.1466 -0.7937999 1.6366003 -1.4699998 1.6366003 c -0.50960016 0 -0.9408002 -0.2842002 -1.2348001 -0.5390003 l 0.6761999 2.7244003 c 0.009800196 0.019599915 0.039200068 0.1567998 0.039200068 0.1567998 c 0 0.049000263 -0.039200068 0.13719988 -0.15680003 0.13719988 c -0.19599986 0 -1.0093999 -0.07839966 -1.2543999 -0.09800005 c -0.078400016 -0.009799957 -0.21560007 -0.019599915 -0.21560007 -0.22539997 c 0 -0.13719988 0.13720006 -0.13719988 0.25480002 -0.13719988 c 0.47039998 0 0.47039998 -0.0685997 0.47039998 -0.14699984 c 0 -0.06860018 -0.09799993 -0.4605999 -0.15679991 -0.68600035 l -0.22540009 -0.9015999 l -0.6468 -2.6068 c -0.049000025 -0.23519993 -0.049000025 -0.36259997 -0.049000025 -0.48019993 c 0 -0.98980004 0.62720007 -1.6170001 1.4405999 -1.6170001 c 1.2250001 0 2.5284 1.3328 2.5284 2.7832 Z m -0.7839999 0.4116001 c 0 -0.40180016 -0.21560001 -1.4014001 -0.5095999 -1.9698001 c -0.23519993 -0.4802 -0.72519994 -0.95059997 -1.2250001 -0.95059997 c -0.48019993 0 -0.7545999 0.4214 -0.7545999 0.9996 c 0 0.36259997 0.08819997 0.69580007 0.3626001 1.8032001 c 0.058799982 0.1861999 0.058799982 0.20579982 0.245 0.42139983 c 0.37240005 0.43120003 0.81340003 0.64680004 1.1661999 0.64680004 c 0.3822 0 0.7154 -0.28419995 0.7154 -0.9505999 Z "/>
        </symbol>
        <symbol id="m0-g6A7D3E7DEFE90AA49D7957E9DF07C2B5" overflow="visible">
            <path d="M 0 0m 7.0756 -0.5978 c 0 0.10780001 -0.08820009 0.2254 -0.22539997 0.2254 h -2.8126001 v 2.5970001 h 2.8126001 c 0.13719988 0 0.22539997 0.117599964 0.22539997 0.22539997 c 0 0.10780001 -0.08820009 0.22539997 -0.22539997 0.22539997 h -2.8126001 v 2.8126 c 0 0.13720036 -0.117599964 0.22539997 -0.22539997 0.22539997 c -0.10780001 0 -0.22539997 -0.088199615 -0.22539997 -0.22539997 v -2.8126 h -2.8126001 c -0.1372 0 -0.22540003 -0.117599964 -0.22540003 -0.22539997 c 0 -0.10780001 0.08820003 -0.22539997 0.22540003 -0.22539997 h 2.8126001 v -2.5970001 h -2.8126001 c -0.1372 0 -0.22540003 -0.117599994 -0.22540003 -0.2254 c 0 -0.10780001 0.08820003 -0.22539997 0.22540003 -0.22539997 h 6.076 c 0.13719988 0 0.22539997 0.117599964 0.22539997 0.22539997 Z "/>
        </symbol>
        <symbol id="m0-gB5AB5FCB0C8082447418C4A5A35DB3BD" overflow="visible">
            <path d="M 0 0m 8.3594 0.19600001 c 0 0.10780001 -0.07839966 0.19600001 -0.1960001 0.19600001 c -0.11759949 0 -0.14699936 -0.06860003 -0.20579958 -0.18620002 l -4.1454 -8.5848 l -1.7444 3.8415995 c -0.039200068 0.078400135 -0.058799982 0.13720036 -0.12740004 0.13720036 c -0.029399991 0 -0.049000025 0 -0.1372 -0.078400135 l -0.9702 -0.73500013 c -0.10780001 -0.08820009 -0.117600024 -0.09800005 -0.117600024 -0.13719988 c 0 -0.06860018 0.039200008 -0.10780001 0.09800005 -0.10780001 c 0.029399991 0 0.048999965 0 0.1372 0.078400135 l 0.50960004 0.38219976 l 1.9403999 -4.2629995 c 0.058799982 -0.13720036 0.078400135 -0.14700031 0.18620014 -0.14700031 c 0.15680003 0 0.17639995 0.03919983 0.24499989 0.18620014 l 4.4688 9.2512 c 0.048999786 0.1078 0.058799744 0.1176 0.058799744 0.1666 Z "/>
        </symbol>
        <symbol id="m0-g4D7F4B29B359C7A390BB189051DB1937" overflow="visible">
            <path d="M 0 0m 4.123 1.3510001 h -0.2939999 c -0.021000147 -0.13300002 -0.09100008 -0.56700003 -0.20300007 -0.637 c -0.055999994 -0.041999996 -0.64400005 -0.041999996 -0.7490001 -0.041999996 h -1.3720001 c 0.462 0.34299994 0.98000014 0.735 1.4 1.015 c 0.6300001 0.43400002 1.2180002 0.84000015 1.2180002 1.582 c 0 0.8959999 -0.8470001 1.3930001 -1.848 1.3930001 c -0.94500005 0 -1.638 -0.546 -1.638 -1.2320001 c 0 -0.36400008 0.30800003 -0.42700005 0.40599996 -0.42700005 c 0.18900001 0 0.4130001 0.12600017 0.4130001 0.4130001 c 0 0.2520001 -0.18200004 0.39199996 -0.39900005 0.4130001 c 0.19599998 0.31499982 0.602 0.52499986 1.071 0.52499986 c 0.67900014 0 1.246 -0.4059999 1.246 -1.092 c 0 -0.58800006 -0.4059999 -1.036 -0.94499993 -1.491 l -1.7080002 -1.449 c -0.06999999 -0.06299999 -0.07700002 -0.06299999 -0.08399999 -0.11199999 v -0.21000001 h 3.255 Z "/>
        </symbol>
        <symbol id="m0-g5EA1141BBFDF9AA6E48DD10C593E5158" overflow="visible">
            <path d="M 0 0m 5.1842003 1.6072 v 0.3528 h -1.0878 v 4.3708 c 0 0.20580006 0 0.27440023 -0.21560025 0.27440023 c -0.117599964 0 -0.15680003 0 -0.25480008 -0.13720036 l -3.2438 -4.508 v -0.3528 h 2.8812 v -0.8036 c 0 -0.3332 0 -0.4508 -0.7938001 -0.4508 h -0.26460004 v -0.3528 l 1.47 0.0392 l 1.4798 -0.0392 v 0.3528 h -0.2645998 c -0.7937999 0 -0.7937999 0.117599994 -0.7937999 0.4508 v 0.8036 Z m -1.8522003 0.3528 h -2.5872 l 2.5872 3.5868 Z "/>
        </symbol>
        <symbol id="m0-gD7E8A6D7B2C110427059CFA4E5F8B583" overflow="visible">
            <path d="M 0 0m 5.5958 1.4014 c 0 0.12740004 -0.12739992 0.12740004 -0.1567998 0.12740004 c -0.13719988 0 -0.14699984 -0.03919995 -0.21560001 -0.3038 c -0.117599964 -0.47040004 -0.3038001 -1.0486 -0.7154002 -1.0486 c -0.25479984 0 -0.32340002 0.21560001 -0.32340002 0.4802 c 0 0.16659999 0.078400135 0.5194 0.14700031 0.77419996 l 0.21560001 0.88199997 c 0.09800005 0.3626001 0.10780001 0.42140007 0.19599962 0.7448001 c 0.05880022 0.25480008 0.17640018 0.7154 0.17640018 0.7644 c 0 0.21560001 -0.17640018 0.31360006 -0.33319998 0.31360006 c -0.16659975 0 -0.3920002 -0.117599964 -0.45079994 -0.39199996 c -0.20580006 0.32339978 -0.53900003 0.5782001 -1.0094001 0.5782001 c -1.2543999 0 -2.5284 -1.3818002 -2.5284 -2.7930002 c 0 -0.9506 0.63699996 -1.6268001 1.4798 -1.6268001 c 0.5292001 0 0.99959993 0.3038 1.3916001 0.686 c 0.1861999 -0.588 0.75460005 -0.686 1.0093999 -0.686 c 0.3527999 0 0.59780025 0.21560001 0.77419996 0.5194 c 0.21560001 0.3822 0.34299994 0.9408 0.34299994 0.97999996 Z m -1.5974 1.7934002 c 0 -0.039200068 -0.019599915 -0.10780001 -0.029399872 -0.13720012 l -0.46060014 -1.8326 c -0.06859994 -0.2744 -0.28419995 -0.47040004 -0.49979997 -0.6566 c -0.088199854 -0.078400016 -0.48020005 -0.39200002 -0.9015999 -0.39200002 c -0.3626001 0 -0.7154001 0.2548 -0.7154001 0.95059997 c 0 0.5194 0.28419995 1.5974001 0.50960004 1.9894 c 0.45079994 0.78400016 0.9505999 0.931 1.2249999 0.931 c 0.6860001 0 0.8722 -0.74479985 0.8722 -0.85259986 Z "/>
        </symbol>
        <symbol id="m0-gAAA9EFDB59CB74727B26ADC9C4535E7D" overflow="visible">
            <path d="M 0 0m 4.851 1.0094 c 0 0.058799982 -0.088199615 0.16659999 -0.16659975 0.16659999 c -0.05880022 0 -0.078400135 -0.019600034 -0.1567998 -0.09799993 c -0.76440024 -0.90160006 -1.9110003 -0.90160006 -2.0874002 -0.90160006 c -0.7056 0 -1.0192001 0.4802 -1.0192001 1.0878 c 0 0.28420007 0.1372 1.3524001 0.64680004 2.0286 c 0.37240005 0.48020005 0.88199997 0.75460005 1.372 0.75460005 c 0.13720012 0 0.6076 -0.019599915 0.85259986 -0.2939999 c -0.3527999 -0.058799982 -0.49979973 -0.33319998 -0.49979973 -0.5488 c 0 -0.26460004 0.20579982 -0.3626001 0.38219976 -0.3626001 c 0.21560001 0 0.55859995 0.15680003 0.55859995 0.6272001 c 0 0.66639996 -0.76439977 0.8526001 -1.2935998 0.8526001 c -1.47 0 -2.8322 -1.3524003 -2.8322 -2.7146 c 0 -0.8428 0.588 -1.7052001 1.813 -1.7052001 c 1.6561999 0 2.4304 0.9702 2.4304 1.1074001 Z "/>
        </symbol>
        <symbol id="m0-gE2884968D2D26D61956A707591E7CEB7" overflow="visible">
            <path d="M 0 0m 4.949 1.7836 h -0.33319998 c -0.029399872 -0.2155999 -0.12739992 -0.79379994 -0.25479984 -0.8918 c -0.078400135 -0.058799982 -0.83299994 -0.058799982 -0.97020006 -0.058799982 h -1.8032 c 1.029 0.9114 1.372 1.1858001 1.96 1.6464 c 0.72519994 0.5782001 1.4013999 1.1858001 1.4013999 2.1168 c 0 1.1858001 -1.0387998 1.9110003 -2.2931998 1.9110003 c -1.2152001 0 -2.0384002 -0.8526001 -2.0384002 -1.7542 c 0 -0.4998002 0.4214 -0.5488 0.51940006 -0.5488 c 0.23519993 0 0.5194 0.16659975 0.5194 0.51939964 c 0 0.17640018 -0.06860006 0.5194001 -0.5782 0.5194001 c 0.3038 0.6957998 0.97020006 0.91139984 1.4308 0.91139984 c 0.98 0 1.4896 -0.7644 1.4896 -1.5581999 c 0 -0.85259986 -0.6076 -1.5288 -0.92120004 -1.8815999 l -2.3618 -2.3324 c -0.09799999 -0.0882 -0.09799999 -0.10780001 -0.09799999 -0.3822 h 4.0376 Z "/>
        </symbol>
    </defs>
</g><text x="15" y="269" font-size="14" text-anchor="middle" transform="rotate(-90,15,269)">roots</text><text x="359" y="27.400000000000002" font-size="18" text-anchor="middle">Quadratic formula</text><g clip-path="url(#kuva-clip-5)"><circle cx="209" cy="449" r="3" fill="#4682b4" /><circle cx="359" cy="314" r="3" fill="#4682b4" /><circle cx="509" cy="89" r="3" fill="#4682b4" /></g></svg>