<svg xmlns="http://www.w3.org/2000/svg" width="673" height="545" font-family="DejaVu Sans, Liberation Sans, Arial, sans-serif" fill="black"><rect width="100%" height="100%" fill="white" /><defs><clipPath id="kuva-clip-3"><rect x="59" y="44" width="600" height="450"/></clipPath></defs><line x1="209" y1="44" x2="209" y2="494" stroke="#cccccc" stroke-width="1" /><line x1="359" y1="44" x2="359" y2="494" stroke="#cccccc" stroke-width="1" /><line x1="509" y1="44" x2="509" y2="494" stroke="#cccccc" stroke-width="1" /><line x1="659" y1="44" x2="659" y2="494" stroke="#cccccc" stroke-width="1" /><line x1="59" y1="404" x2="659" y2="404" stroke="#cccccc" stroke-width="1" /><line x1="59" y1="314" x2="659" y2="314" stroke="#cccccc" stroke-width="1" /><line x1="59" y1="224" x2="659" y2="224" stroke="#cccccc" stroke-width="1" /><line x1="59" y1="134" x2="659" y2="134" stroke="#cccccc" stroke-width="1" /><line x1="59" y1="44" x2="659" y2="44" stroke="#cccccc" stroke-width="1" /><line x1="59" y1="494" x2="659" y2="494" stroke="#000000" stroke-width="1" /><line x1="59" y1="44" x2="59" y2="494" stroke="#000000" stroke-width="1" /><line x1="59" y1="494" x2="59" y2="499" stroke="#000000" stroke-width="1" /><text x="59" y="511" font-size="12" text-anchor="middle">0</text><line x1="209" y1="494" x2="209" y2="499" stroke="#000000" stroke-width="1" /><text x="209" y="511" font-size="12" text-anchor="middle">1</text><line x1="359" y1="494" x2="359" y2="499" stroke="#000000" stroke-width="1" /><text x="359" y="511" font-size="12" text-anchor="middle">2</text><line x1="509" y1="494" x2="509" y2="499" stroke="#000000" stroke-width="1" /><text x="509" y="511" font-size="12" text-anchor="middle">3</text><line x1="659" y1="494" x2="659" y2="499" stroke="#000000" stroke-width="1" /><text x="659" y="511" font-size="12" text-anchor="middle">4</text><line x1="54" y1="494" x2="59" y2="494" stroke="#000000" stroke-width="1" /><text x="51" y="498.2" font-size="12" text-anchor="end">0</text><line x1="54" y1="404" x2="59" y2="404" stroke="#000000" stroke-width="1" /><text x="51" y="408.2" font-size="12" text-anchor="end">2</text><line x1="54" y1="314" x2="59" y2="314" stroke="#000000" stroke-width="1" /><text x="51" y="318.2" font-size="12" text-anchor="end">4</text><line x1="54" y1="224" x2="59" y2="224" stroke="#000000" stroke-width="1" /><text x="51" y="228.20000000000002" font-size="12" text-anchor="end">6</text><line x1="54" y1="134" x2="59" y2="134" stroke="#000000" stroke-width="1" /><text x="51" y="138.20000000000002" font-size="12" text-anchor="end">8</text><line x1="54" y1="44" x2="59" y2="44" stroke="#000000" stroke-width="1" /><text x="51" y="48.2" font-size="12" text-anchor="end">10</text><g transform="translate(325.2526888888889,520.038)">
    <g>
        <g class="typst-group">
            <g>
                <g class="typst-text" transform="matrix(1 0 0 -1 4.2 12.7904)">
                    <use href="#m0-g6AD471B76F68FB0A6237DBFF1F84111F" x="0" y="0" fill="#000000" fill-rule="nonzero"/>
                </g>
                <path class="typst-shape" fill="none" stroke="#000000" stroke-width="0.56" stroke-linecap="butt" stroke-linejoin="miter" stroke-miterlimit="4" transform="matrix(1 0 0 1 18.2 1.1704)" d="M 0 0h 45.094624 "/>
                <g class="typst-text" transform="matrix(1 0 0 -1 18.2 13.761999999999999)">
                    <use href="#m0-gC5269AB82F5D93FA1F68837812F3B96E" x="0" y="0" fill="#000000" fill-rule="nonzero"/>
                </g>
                <g class="typst-text" transform="matrix(1 0 0 -1 26.208000000000002 9.715999999999998)">
                    <use href="#m0-gE2884968D2D26D61956A707591E7CEB7" x="0" y="0" fill="#000000" fill-rule="nonzero"/>
                </g>
                <g class="typst-text" transform="matrix(1 0 0 -1 35.679311111111105 13.761999999999999)">
                    <use href="#m0-g101D9B33099FF0C548EF5D0A474DF0B4" x="0" y="0" fill="#000000" fill-rule="nonzero"/>
                </g>
                <g class="typst-text" transform="matrix(1 0 0 -1 49.682422222222215 13.761999999999999)">
                    <use href="#m0-g3ECBBDEE39DC97D8892E8420F6E49845" x="0" y="0" fill="#000000" fill-rule="nonzero"/>
                </g>
                <g class="typst-text" transform="matrix(1 0 0 -1 56.93442222222222 9.715999999999998)">
                    <use href="#m0-gE2884968D2D26D61956A707591E7CEB7" x="0" y="0" fill="#000000" fill-rule="nonzero"/>
                </g>
            </g>
        </g>
    </g>
    <defs id="m0-glyph">
        <symbol id="m0-g6AD471B76F68FB0A6237DBFF1F84111F" overflow="visible">
            <path d="M 0 0m 14.280001 11.62 c 0 0.15400028 -0.112000465 0.2800007 -0.2800007 0.2800007 c -0.1819992 0 -0.23799992 -0.1260004 -0.3079996 -0.2800007 l -7.224 -15.064 l -2.9820004 6.9440002 l -1.946 -1.4979999 l 0.20999992 -0.2240001 l 0.9940002 0.75600016 l 3.1920002 -7.434 c 0.43400002 0 0.44799995 0.013999939 0.5879998 0.27999973 l 7.658 15.988001 c 0.09800053 0.18200016 0.09800053 0.21000004 0.09800053 0.25199986 Z "/>
        </symbol>
        <symbol id="m0-gC5269AB82F5D93FA1F68837812F3B96E" overflow="visible">
            <path d="M 0 0m 7.3780003 5.264 c 0 0.72800016 -0.8260002 0.92400026 -1.302 0.92400026 c -0.8120003 0 -1.302 -0.7420001 -1.4700003 -1.0640001 c -0.3499999 0.92400026 -1.106 1.0640001 -1.5119998 1.0640001 c -1.4560001 0 -2.2540002 -1.8060002 -2.2540002 -2.1560001 c 0 -0.13999987 0.16799998 -0.13999987 0.16799998 -0.13999987 c 0.11199999 0 0.15400004 0.027999878 0.18200004 0.1539998 c 0.47599995 1.4840002 1.4000001 1.8340001 1.8759999 1.8340001 c 0.26600003 0 0.75600004 -0.12599993 0.75600004 -0.9379997 c 0 -0.43400002 -0.23799992 -1.3720002 -0.75600004 -3.3320003 c -0.22399998 -0.868 -0.714 -1.456 -1.3299999 -1.456 c -0.08399999 0 -0.40600002 0 -0.70000005 0.18200003 c 0.35000002 0.06999999 0.658 0.36400002 0.658 0.756 c 0 0.37800002 -0.30799997 0.49 -0.518 0.49 c -0.41999996 0 -0.77 -0.36399996 -0.77 -0.812 c 0 -0.64400005 0.70000005 -0.924 1.316 -0.924 c 0.92400014 0 1.4280001 0.98 1.4700001 1.064 c 0.16799998 -0.518 0.67199993 -1.064 1.5119998 -1.064 c 1.4420004 0 2.2400002 1.8060001 2.2400002 2.1560001 c 0 0.13999987 -0.12599993 0.13999987 -0.16800022 0.13999987 c -0.12599993 0 -0.1539998 -0.055999994 -0.18199968 -0.15399992 c -0.46200037 -1.498 -1.414 -1.834 -1.862 -1.834 c -0.546 0 -0.7700002 0.448 -0.7700002 0.9240001 c 0 0.30799997 0.08399987 0.61599994 0.23800015 1.2320001 l 0.47599983 1.918 c 0.08400011 0.36399984 0.40600014 1.652 1.3860002 1.652 c 0.069999695 0 0.40600014 0 0.6999998 -0.18200016 c -0.39199972 -0.069999695 -0.67199993 -0.4199996 -0.67199993 -0.75599957 c 0 -0.22400045 0.1539998 -0.49000025 0.53200006 -0.49000025 c 0.3080001 0 0.75600004 0.25199986 0.75600004 0.8119998 Z "/>
        </symbol>
        <symbol id="m0-gE2884968D2D26D61956A707591E7CEB7" overflow="visible">
            <path d="M 0 0m 4.949 1.7836 h -0.33319998 c -0.029399872 -0.2155999 -0.12739992 -0.79379994 -0.25479984 -0.8918 c -0.078400135 -0.058799982 -0.83299994 -0.058799982 -0.97020006 -0.058799982 h -1.8032 c 1.029 0.9114 1.372 1.1858001 1.96 1.6464 c 0.72519994 0.5782001 1.4013999 1.1858001 1.4013999 2.1168 c 0 1.1858001 -1.0387998 1.9110003 -2.2931998 1.9110003 c -1.2152001 0 -2.0384002 -0.8526001 -2.0384002 -1.7542 c 0 -0.4998002 0.4214 -0.5488 0.51940006 -0.5488 c 0.23519993 0 0.5194 0.16659975 0.5194 0.51939964 c 0 0.17640018 -0.06860006 0.5194001 -0.5782 0.5194001 c 0.3038 0.6957998 0.97020006 0.91139984 1.4308 0.91139984 c 0.98 0 1.4896 -0.7644 1.4896 -1.5581999 c 0 -0.85259986 -0.6076 -1.5288 -0.92120004 -1.8815999 l -2.3618 -2.3324 c -0.09799999 -0.0882 -0.09799999 -0.10780001 -0.09799999 -0.3822 h 4.0376 Z "/>
        </symbol>
        <symbol id="m0-g101D9B33099FF0C548EF5D0A474DF0B4" overflow="visible">
            <path d="M 0 0m 10.108001 3.5 c 0 0.15400004 -0.1260004 0.2800002 -0.2800007 0.2800002 h -4.1019998 v 4.102 c 0 0.1539998 -0.12599993 0.2800002 -0.2800002 0.2800002 c -0.1539998 0 -0.27999973 -0.1260004 -0.27999973 -0.2800002 v -4.102 h -4.102 c -0.15399998 0 -0.27999997 -0.12600017 -0.27999997 -0.2800002 c 0 -0.1539998 0.12599999 -0.27999997 0.27999997 -0.27999997 h 4.102 v -4.102 c 0 -0.15399998 0.12599993 -0.28000003 0.27999973 -0.28000003 c 0.15400028 0 0.2800002 0.12600005 0.2800002 0.28000003 v 4.102 h 4.1019998 c 0.15400028 0 0.2800007 0.12600017 0.2800007 0.27999997 Z "/>
        </symbol>
        <symbol id="m0-g3ECBBDEE39DC97D8892E8420F6E49845" overflow="visible">
            <path d="M 0 0m 6.86 5.656 c 0 0.25199986 -0.1960001 0.37800026 -0.40600014 0.37800026 c -0.13999987 0 -0.36399984 -0.08400011 -0.48999977 -0.29400015 c -0.027999878 -0.07000017 -0.13999987 -0.5040002 -0.1960001 -0.75600004 l -0.27999973 -1.1200001 l -0.6300001 -2.52 c -0.056000233 -0.21000004 -0.658 -1.19 -1.5820003 -1.19 c -0.714 0 -0.86800003 0.61600006 -0.86800003 1.134 c 0 0.64400005 0.23800015 1.5120002 0.714 2.744 c 0.22400022 0.5739999 0.2800002 0.72800016 0.2800002 1.0079999 c 0 0.6300001 -0.4480002 1.1480002 -1.148 1.1480002 c -1.3300002 0 -1.8480002 -2.0300002 -1.8480002 -2.1560001 c 0 -0.13999987 0.16799998 -0.13999987 0.16799998 -0.13999987 c 0.14000005 0 0.15400004 0.027999878 0.22400004 0.25199986 c 0.37799996 1.316 0.938 1.7360001 1.414 1.7360001 c 0.11199999 0 0.3499999 0 0.3499999 -0.44799995 c 0 -0.3499999 -0.13999987 -0.7140002 -0.23799992 -0.98 c -0.56000006 -1.484 -0.81200004 -2.282 -0.81200004 -2.94 c 0 -1.246 0.88199997 -1.6660001 1.708 -1.6660001 c 0.546 0 1.0220001 0.238 1.4140003 0.63 c -0.18200016 -0.72800004 -0.35000038 -1.414 -0.9100001 -2.1560001 c -0.36400008 -0.47600007 -0.89600015 -0.88199997 -1.5400002 -0.88199997 c -0.19599998 0 -0.826 0.042000055 -1.064 0.58799994 c 0.2240001 0 0.40600002 0 0.602 0.16799998 c 0.1400001 0.12600005 0.2800001 0.3080001 0.2800001 0.5740001 c 0 0.43399996 -0.37800002 0.48999995 -0.518 0.48999995 c -0.32200003 0 -0.78400004 -0.22399998 -0.78400004 -0.91 c 0 -0.6999999 0.61599994 -1.218 1.484 -1.218 c 1.4420002 0 2.8840003 1.274 3.276 2.8560002 l 1.3440003 5.348 c 0.055999756 0.1960001 0.055999756 0.22399998 0.055999756 0.32200003 Z "/>
        </symbol>
    </defs>
</g><text x="15" y="269" font-size="14" text-anchor="middle" transform="rotate(-90,15,269)">distance</text><text x="359" y="27.400000000000002" font-size="18" text-anchor="middle">Square root</text><g clip-path="url(#kuva-clip-3)"><circle cx="209" cy="449" r="3" fill="#4682b4" /><circle cx="359" cy="314" r="3" fill="#4682b4" /><circle cx="509" cy="89" r="3" fill="#4682b4" /></g></svg>