<svg xmlns="http://www.w3.org/2000/svg" width="681.8000000000001" height="545" font-family="DejaVu Sans, Liberation Sans, Arial, sans-serif" fill="black"><rect width="100%" height="100%" fill="white" /><defs><clipPath id="kuva-clip-9"><rect x="63.800000000000004" y="44" width="600" height="450"/></clipPath></defs><line x1="149.51" y1="44" x2="149.51" y2="494" stroke="#cccccc" stroke-width="1" /><line x1="235.23000000000002" y1="44" x2="235.23000000000002" y2="494" stroke="#cccccc" stroke-width="1" /><line x1="320.94" y1="44" x2="320.94" y2="494" stroke="#cccccc" stroke-width="1" /><line x1="406.66" y1="44" x2="406.66" y2="494" stroke="#cccccc" stroke-width="1" /><line x1="492.37" y1="44" x2="492.37" y2="494" stroke="#cccccc" stroke-width="1" /><line x1="578.09" y1="44" x2="578.09" y2="494" stroke="#cccccc" stroke-width="1" /><line x1="663.8000000000001" y1="44" x2="663.8000000000001" y2="494" stroke="#cccccc" stroke-width="1" /><line x1="63.800000000000004" y1="419" x2="663.8000000000001" y2="419" stroke="#cccccc" stroke-width="1" /><line x1="63.800000000000004" y1="344" x2="663.8000000000001" y2="344" stroke="#cccccc" stroke-width="1" /><line x1="63.800000000000004" y1="269" x2="663.8000000000001" y2="269" stroke="#cccccc" stroke-width="1" /><line x1="63.800000000000004" y1="194" x2="663.8000000000001" y2="194" stroke="#cccccc" stroke-width="1" /><line x1="63.800000000000004" y1="119" x2="663.8000000000001" y2="119" stroke="#cccccc" stroke-width="1" /><line x1="63.800000000000004" y1="44" x2="663.8000000000001" y2="44" stroke="#cccccc" stroke-width="1" /><line x1="63.800000000000004" y1="494" x2="663.8000000000001" y2="494" stroke="#000000" stroke-width="1" /><line x1="63.800000000000004" y1="44" x2="63.800000000000004" y2="494" stroke="#000000" stroke-width="1" /><line x1="63.800000000000004" y1="494" x2="63.800000000000004" y2="499" stroke="#000000" stroke-width="1" /><text x="63.800000000000004" y="511" font-size="12" text-anchor="middle">0</text><line x1="149.51" y1="494" x2="149.51" y2="499" stroke="#000000" stroke-width="1" /><text x="149.51" y="511" font-size="12" text-anchor="middle">1</text><line x1="235.23000000000002" y1="494" x2="235.23000000000002" y2="499" stroke="#000000" stroke-width="1" /><text x="235.23000000000002" y="511" font-size="12" text-anchor="middle">2</text><line x1="320.94" y1="494" x2="320.94" y2="499" stroke="#000000" stroke-width="1" /><text x="320.94" y="511" font-size="12" text-anchor="middle">3</text><line x1="406.66" y1="494" x2="406.66" y2="499" stroke="#000000" stroke-width="1" /><text x="406.66" y="511" font-size="12" text-anchor="middle">4</text><line x1="492.37" y1="494" x2="492.37" y2="499" stroke="#000000" stroke-width="1" /><text x="492.37" y="511" font-size="12" text-anchor="middle">5</text><line x1="578.09" y1="494" x2="578.09" y2="499" stroke="#000000" stroke-width="1" /><text x="578.09" y="511" font-size="12" text-anchor="middle">6</text><line x1="663.8000000000001" y1="494" x2="663.8000000000001" y2="499" stroke="#000000" stroke-width="1" /><text x="663.8000000000001" y="511" font-size="12" text-anchor="middle">7</text><line x1="58.800000000000004" y1="494" x2="63.800000000000004" y2="494" stroke="#000000" stroke-width="1" /><text x="55.800000000000004" y="498.2" font-size="12" text-anchor="end">-1.5</text><line x1="58.800000000000004" y1="419" x2="63.800000000000004" y2="419" stroke="#000000" stroke-width="1" /><text x="55.800000000000004" y="423.2" font-size="12" text-anchor="end">-1</text><line x1="58.800000000000004" y1="344" x2="63.800000000000004" y2="344" stroke="#000000" stroke-width="1" /><text x="55.800000000000004" y="348.2" font-size="12" text-anchor="end">-0.5</text><line x1="58.800000000000004" y1="269" x2="63.800000000000004" y2="269" stroke="#000000" stroke-width="1" /><text x="55.800000000000004" y="273.2" font-size="12" text-anchor="end">0</text><line x1="58.800000000000004" y1="194" x2="63.800000000000004" y2="194" stroke="#000000" stroke-width="1" /><text x="55.800000000000004" y="198.20000000000002" font-size="12" text-anchor="end">0.5</text><line x1="58.800000000000004" y1="119" x2="63.800000000000004" y2="119" stroke="#000000" stroke-width="1" /><text x="55.800000000000004" y="123.2" font-size="12" text-anchor="end">1</text><line x1="58.800000000000004" y1="44" x2="63.800000000000004" y2="44" stroke="#000000" stroke-width="1" /><text x="55.800000000000004" y="48.2" font-size="12" text-anchor="end">1.5</text><text x="363.8" y="538" font-size="14" text-anchor="middle">θ (radians)</text><text x="15" y="269" font-size="14" text-anchor="middle" transform="rotate(-90,15,269)">sin(θ)</text><text x="363.8" y="27.400000000000002" font-size="18" text-anchor="middle">sin(θ)</text><g clip-path="url(#kuva-clip-9)"><path d="M 63.800000000000004 269 L 72.78 253.32 L 81.75 237.81 L 90.73 222.65 L 99.7 207.99 L 108.68 194 L 117.66 180.83 L 126.63000000000001 168.63 L 135.61 157.53 L 144.58 147.65 L 153.56 139.1 L 162.54 131.97 L 171.51 126.34 L 180.49 122.28 L 189.46 119.82000000000001 L 198.44 119 L 207.42000000000002 119.82000000000001 L 216.39000000000001 122.28 L 225.37 126.34 L 234.34 131.97 L 243.32 139.1 L 252.3 147.65 L 261.27 157.53 L 270.25 168.63 L 279.22 180.83 L 288.2 194 L 297.18 207.99 L 306.15000000000003 222.65 L 315.13 237.81 L 324.1 253.32 L 333.08 269 L 342.06 284.68 L 351.03000000000003 300.19 L 360.01 315.35 L 368.98 330.01 L 377.96 344 L 386.94 357.17 L 395.91 369.37 L 404.89 380.47 L 413.86 390.35 L 422.84000000000003 398.90000000000003 L 431.82 406.03000000000003 L 440.79 411.66 L 449.77 415.72 L 458.74 418.18 L 467.72 419 L 476.7 418.18 L 485.67 415.72 L 494.65000000000003 411.66 L 503.62 406.03000000000003 L 512.6 398.90000000000003 L 521.57 390.35 L 530.55 380.47 L 539.53 369.37 L 548.5 357.17 L 557.48 344 L 566.45 330.01 L 575.4300000000001 315.35 L 584.41 300.19 L 593.38 284.68 L 602.36 269 " stroke="#4682b4" stroke-width="2" fill="none" /></g></svg>