<svg xmlns="http://www.w3.org/2000/svg" width="673" height="541" fill="black"><rect width="100%" height="100%" fill="white" /><line x1="59" y1="492" x2="659" y2="492" stroke="black" stroke-width="1" /><line x1="59" y1="42" x2="59" y2="492" stroke="black" stroke-width="1" /><line x1="113.54545454545455" y1="42" x2="113.54545454545455" y2="492" stroke="#ccc" stroke-width="1" /><line x1="168.0909090909091" y1="42" x2="168.0909090909091" y2="492" stroke="#ccc" stroke-width="1" /><line x1="222.63636363636363" y1="42" x2="222.63636363636363" y2="492" stroke="#ccc" stroke-width="1" /><line x1="277.1818181818182" y1="42" x2="277.1818181818182" y2="492" stroke="#ccc" stroke-width="1" /><line x1="331.7272727272727" y1="42" x2="331.7272727272727" y2="492" stroke="#ccc" stroke-width="1" /><line x1="386.27272727272725" y1="42" x2="386.27272727272725" y2="492" stroke="#ccc" stroke-width="1" /><line x1="440.8181818181818" y1="42" x2="440.8181818181818" y2="492" stroke="#ccc" stroke-width="1" /><line x1="495.3636363636364" y1="42" x2="495.3636363636364" y2="492" stroke="#ccc" stroke-width="1" /><line x1="549.909090909091" y1="42" x2="549.909090909091" y2="492" stroke="#ccc" stroke-width="1" /><line x1="604.4545454545454" y1="42" x2="604.4545454545454" y2="492" stroke="#ccc" stroke-width="1" /><line x1="659" y1="42" x2="659" y2="492" stroke="#ccc" stroke-width="1" /><line x1="59" y1="454.5" x2="659" y2="454.5" stroke="#ccc" stroke-width="1" /><line x1="59" y1="417" x2="659" y2="417" stroke="#ccc" stroke-width="1" /><line x1="59" y1="379.5" x2="659" y2="379.5" stroke="#ccc" stroke-width="1" /><line x1="59" y1="342" x2="659" y2="342" stroke="#ccc" stroke-width="1" /><line x1="59" y1="304.5" x2="659" y2="304.5" stroke="#ccc" stroke-width="1" /><line x1="59" y1="267" x2="659" y2="267" stroke="#ccc" stroke-width="1" /><line x1="59" y1="229.5" x2="659" y2="229.5" stroke="#ccc" stroke-width="1" /><line x1="59" y1="192" x2="659" y2="192" stroke="#ccc" stroke-width="1" /><line x1="59" y1="154.5" x2="659" y2="154.5" stroke="#ccc" stroke-width="1" /><line x1="59" y1="117" x2="659" y2="117" stroke="#ccc" stroke-width="1" /><line x1="59" y1="79.5" x2="659" y2="79.5" stroke="#ccc" stroke-width="1" /><line x1="59" y1="42" x2="659" y2="42" stroke="#ccc" stroke-width="1" /><line x1="59" y1="492" x2="59" y2="497" stroke="black" stroke-width="1" /><text x="59" y="507" font-size="10" text-anchor="middle">0</text><line x1="113.54545454545455" y1="492" x2="113.54545454545455" y2="497" stroke="black" stroke-width="1" /><text x="113.54545454545455" y="507" font-size="10" text-anchor="middle">1</text><line x1="168.0909090909091" y1="492" x2="168.0909090909091" y2="497" stroke="black" stroke-width="1" /><text x="168.0909090909091" y="507" font-size="10" text-anchor="middle">2</text><line x1="222.63636363636363" y1="492" x2="222.63636363636363" y2="497" stroke="black" stroke-width="1" /><text x="222.63636363636363" y="507" font-size="10" text-anchor="middle">3</text><line x1="277.1818181818182" y1="492" x2="277.1818181818182" y2="497" stroke="black" stroke-width="1" /><text x="277.1818181818182" y="507" font-size="10" text-anchor="middle">4</text><line x1="331.7272727272727" y1="492" x2="331.7272727272727" y2="497" stroke="black" stroke-width="1" /><text x="331.7272727272727" y="507" font-size="10" text-anchor="middle">5</text><line x1="386.27272727272725" y1="492" x2="386.27272727272725" y2="497" stroke="black" stroke-width="1" /><text x="386.27272727272725" y="507" font-size="10" text-anchor="middle">6</text><line x1="440.8181818181818" y1="492" x2="440.8181818181818" y2="497" stroke="black" stroke-width="1" /><text x="440.8181818181818" y="507" font-size="10" text-anchor="middle">7</text><line x1="495.3636363636364" y1="492" x2="495.3636363636364" y2="497" stroke="black" stroke-width="1" /><text x="495.3636363636364" y="507" font-size="10" text-anchor="middle">8</text><line x1="549.909090909091" y1="492" x2="549.909090909091" y2="497" stroke="black" stroke-width="1" /><text x="549.909090909091" y="507" font-size="10" text-anchor="middle">9</text><line x1="604.4545454545454" y1="492" x2="604.4545454545454" y2="497" stroke="black" stroke-width="1" /><text x="604.4545454545454" y="507" font-size="10" text-anchor="middle">10</text><line x1="659" y1="492" x2="659" y2="497" stroke="black" stroke-width="1" /><text x="659" y="507" font-size="10" text-anchor="middle">11</text><line x1="54" y1="492" x2="59" y2="492" stroke="black" stroke-width="1" /><text x="51" y="495.5" font-size="10" text-anchor="end">-1.5</text><line x1="54" y1="454.5" x2="59" y2="454.5" stroke="black" stroke-width="1" /><text x="51" y="458" font-size="10" text-anchor="end">-1.25</text><line x1="54" y1="417" x2="59" y2="417" stroke="black" stroke-width="1" /><text x="51" y="420.5" font-size="10" text-anchor="end">-1</text><line x1="54" y1="379.5" x2="59" y2="379.5" stroke="black" stroke-width="1" /><text x="51" y="383" font-size="10" text-anchor="end">-0.75</text><line x1="54" y1="342" x2="59" y2="342" stroke="black" stroke-width="1" /><text x="51" y="345.5" font-size="10" text-anchor="end">-0.5</text><line x1="54" y1="304.5" x2="59" y2="304.5" stroke="black" stroke-width="1" /><text x="51" y="308" font-size="10" text-anchor="end">-0.25</text><line x1="54" y1="267" x2="59" y2="267" stroke="black" stroke-width="1" /><text x="51" y="270.5" font-size="10" text-anchor="end">0</text><line x1="54" y1="229.5" x2="59" y2="229.5" stroke="black" stroke-width="1" /><text x="51" y="233" font-size="10" text-anchor="end">0.25</text><line x1="54" y1="192" x2="59" y2="192" stroke="black" stroke-width="1" /><text x="51" y="195.5" font-size="10" text-anchor="end">0.5</text><line x1="54" y1="154.5" x2="59" y2="154.5" stroke="black" stroke-width="1" /><text x="51" y="158" font-size="10" text-anchor="end">0.75</text><line x1="54" y1="117" x2="59" y2="117" stroke="black" stroke-width="1" /><text x="51" y="120.5" font-size="10" text-anchor="end">1</text><line x1="54" y1="79.5" x2="59" y2="79.5" stroke="black" stroke-width="1" /><text x="51" y="83" font-size="10" text-anchor="end">1.25</text><line x1="54" y1="42" x2="59" y2="42" stroke="black" stroke-width="1" /><text x="51" y="45.5" font-size="10" text-anchor="end">1.5</text><text x="336.5" y="534" font-size="14" text-anchor="middle">X</text><text x="14" y="270.5" font-size="14" text-anchor="middle" transform="rotate(-90,14,270.5)">Y</text><text x="336.5" y="21" font-size="16" text-anchor="middle">Confidence Band</text><path d="M 59 222 L 65.81818181818181 203.29878999221586 L 72.63636363636364 184.8894061118216 L 79.45454545454545 167.05912063709286 L 86.27272727272728 150.0861692093696 L 93.0909090909091 134.23540905893066 L 99.9090909090909 119.75418599649981 L 106.72727272727272 106.86847466459591 L 113.54545454545455 95.77935227881551 L 120.36363636363637 86.65986088513574 L 127.18181818181817 79.65230709666201 L 134 74.86604144652665 L 140.8181818181818 72.37575200939187 L 147.63636363636363 72.22029891902525 L 154.45454545454544 74.40210796890943 L 161.27272727272725 78.88713275854593 L 168.0909090909091 85.60538597614772 L 174.9090909090909 94.45203152723218 L 181.72727272727275 105.28902046681185 L 188.54545454545456 117.94724520700925 L 195.36363636363635 132.22917838440657 L 202.1818181818182 147.91195520848663 L 209 164.7508511921502 L 215.8181818181818 182.4831009954869 L 222.63636363636363 200.83199879101988 L 229.45454545454547 219.51121616559783 L 236.27272727272728 238.22927017951628 L 243.0909090909091 256.6940718603033 L 249.9090909090909 274.617484153443 L 256.72727272727275 291.7198182047414 L 263.5454545454545 307.7341978113516 L 270.3636363636364 322.41072393566037 L 277.1818181818182 335.5203742961892 L 284 346.8585771836981 L 290.8181818181818 356.24840373428754 L 297.6363636363636 363.5433288451444 L 304.4545454545455 368.6295176497646 L 311.27272727272725 371.4276018729719 L 318.0909090909091 371.8939183463067 L 324.9090909090909 370.0211903571662 L 331.7272727272727 365.83864119947077 L 338.5454545454545 359.41153815393653 L 345.3636363636364 350.8401740139888 L 352.1818181818182 340.2583020502645 L 359 327.8310488355588 L 365.8181818181818 313.7523374998848 L 372.6363636363636 298.24186162488877 L 379.45454545454544 281.54165699898704 L 386.27272727272725 263.9123247298389 L 393.09090909090907 245.62896465122142 L 399.90909090909093 226.97688248213348 L 406.72727272727275 208.24713772647334 L 413.54545454545456 189.7320017868277 L 420.3636363636364 171.7203971669872 L 427.1818181818182 154.4933889329074 L 434 138.31979878635894 L 440.8181818181818 123.45201019218166 L 447.6363636363636 110.12203001872689 L 454.45454545454544 98.53786814827419 L 461.27272727272725 88.88029155238877 L 468.09090909090907 81.30000348378917 L 474.90909090909093 75.91529180249307 L 481.72727272727275 72.81018313332356 L 488.54545454545456 72.03313165853257 L 495.3636363636364 73.59626300649273 L 502.1818181818182 77.47518503532183 L 509 83.60936846409896 L 515.8181818181818 91.90309141204898 L 522.6363636363636 102.2269331064764 L 529.4545454545455 114.41979345063817 L 536.2727272727273 128.29140693687117 L 543.090909090909 143.62531167620392 L 549.909090909091 160.18222721373655 L 556.7272727272727 177.7037884201094 L 563.5454545454545 195.916577192935 L 570.3636363636364 214.5363890548382 L 577.1818181818182 233.2726680692714 L 584 251.83304086872502 L 590.8181818181818 269.927879043341 L 597.6363636363636 287.27481869537985 L 604.4545454545454 303.60316663340546 L 604.4545454545454 393.60316663340546 L 597.6363636363636 377.27481869537985 L 590.8181818181818 359.927879043341 L 584 341.83304086872505 L 577.1818181818182 323.2726680692714 L 570.3636363636364 304.5363890548382 L 563.5454545454545 285.91657719293494 L 556.7272727272727 267.7037884201094 L 549.909090909091 250.1822272137365 L 543.090909090909 233.62531167620398 L 536.2727272727273 218.29140693687117 L 529.4545454545455 204.4197934506381 L 522.6363636363636 192.2269331064765 L 515.8181818181818 181.90309141204892 L 509 173.6093684640989 L 502.1818181818182 167.47518503532172 L 495.3636363636364 163.5962630064928 L 488.54545454545456 162.03313165853268 L 481.72727272727275 162.81018313332356 L 474.90909090909093 165.91529180249307 L 468.09090909090907 171.30000348378917 L 461.27272727272725 178.8802915523887 L 454.45454545454544 188.53786814827419 L 447.6363636363636 200.1220300187269 L 440.8181818181818 213.45201019218166 L 434 228.319798786359 L 427.1818181818182 244.49338893290735 L 420.3636363636364 261.72039716698714 L 413.54545454545456 279.73200178682765 L 406.72727272727275 298.2471377264733 L 399.90909090909093 316.97688248213353 L 393.09090909090907 335.62896465122145 L 386.27272727272725 353.9123247298389 L 379.45454545454544 371.54165699898704 L 372.6363636363636 388.24186162488877 L 365.8181818181818 403.7523374998848 L 359 417.83104883555876 L 352.1818181818182 430.25830205026443 L 345.3636363636364 440.8401740139888 L 338.5454545454545 449.41153815393653 L 331.7272727272727 455.83864119947077 L 324.9090909090909 460.0211903571662 L 318.0909090909091 461.8939183463067 L 311.27272727272725 461.4276018729719 L 304.4545454545455 458.6295176497646 L 297.6363636363636 453.5433288451444 L 290.8181818181818 446.24840373428754 L 284 436.8585771836981 L 277.1818181818182 425.52037429618923 L 270.3636363636364 412.41072393566037 L 263.5454545454545 397.7341978113516 L 256.72727272727275 381.71981820474133 L 249.9090909090909 364.617484153443 L 243.0909090909091 346.69407186030327 L 236.27272727272728 328.2292701795163 L 229.45454545454547 309.51121616559783 L 222.63636363636363 290.83199879101994 L 215.8181818181818 272.48310099548684 L 209 254.75085119215024 L 202.1818181818182 237.91195520848663 L 195.36363636363635 222.2291783844065 L 188.54545454545456 207.94724520700925 L 181.72727272727275 195.28902046681185 L 174.9090909090909 184.45203152723218 L 168.0909090909091 175.60538597614777 L 161.27272727272725 168.88713275854593 L 154.45454545454544 164.4021079689095 L 147.63636363636363 162.2202989190252 L 140.8181818181818 162.37575200939182 L 134 164.86604144652665 L 127.18181818181817 169.65230709666207 L 120.36363636363637 176.65986088513569 L 113.54545454545455 185.77935227881557 L 106.72727272727272 196.86847466459596 L 99.9090909090909 209.75418599649987 L 93.0909090909091 224.2354090589307 L 86.27272727272728 240.08616920936956 L 79.45454545454545 257.05912063709286 L 72.63636363636364 274.8894061118216 L 65.81818181818181 293.2987899922158 L 59 312 Z" stroke="none" stroke-width="0" fill="steelblue" fill-opacity="0.2" /><path d="M 59 267 L 65.81818181818181 248.2987899922159 L 72.63636363636364 229.88940611182153 L 79.45454545454545 212.05912063709286 L 86.27272727272728 195.0861692093696 L 93.0909090909091 179.23540905893066 L 99.9090909090909 164.75418599649987 L 106.72727272727272 151.86847466459596 L 113.54545454545455 140.7793522788155 L 120.36363636363637 131.65986088513569 L 127.18181818181817 124.65230709666207 L 134 119.86604144652671 L 140.8181818181818 117.37575200939182 L 147.63636363636363 117.22029891902525 L 154.45454545454544 119.40210796890943 L 161.27272727272725 123.88713275854587 L 168.0909090909091 130.60538597614772 L 174.9090909090909 139.45203152723218 L 181.72727272727275 150.28902046681185 L 188.54545454545456 162.94724520700925 L 195.36363636363635 177.2291783844065 L 202.1818181818182 192.91195520848657 L 209 209.75085119215026 L 215.8181818181818 227.4831009954869 L 222.63636363636363 245.83199879101994 L 229.45454545454547 264.51121616559783 L 236.27272727272728 283.2292701795163 L 243.0909090909091 301.69407186030327 L 249.9090909090909 319.617484153443 L 256.72727272727275 336.71981820474133 L 263.5454545454545 352.7341978113516 L 270.3636363636364 367.41072393566037 L 277.1818181818182 380.52037429618923 L 284 391.8585771836981 L 290.8181818181818 401.24840373428754 L 297.6363636363636 408.5433288451444 L 304.4545454545455 413.6295176497646 L 311.27272727272725 416.4276018729719 L 318.0909090909091 416.8939183463067 L 324.9090909090909 415.0211903571662 L 331.7272727272727 410.83864119947077 L 338.5454545454545 404.41153815393653 L 345.3636363636364 395.8401740139888 L 352.1818181818182 385.25830205026443 L 359 372.8310488355588 L 365.8181818181818 358.7523374998848 L 372.6363636363636 343.24186162488877 L 379.45454545454544 326.54165699898704 L 386.27272727272725 308.91232472983893 L 393.09090909090907 290.62896465122145 L 399.90909090909093 271.97688248213353 L 406.72727272727275 253.2471377264733 L 413.54545454545456 234.73200178682765 L 420.3636363636364 216.7203971669872 L 427.1818181818182 199.49338893290735 L 434 183.31979878635894 L 440.8181818181818 168.4520101921816 L 447.6363636363636 155.12203001872695 L 454.45454545454544 143.53786814827419 L 461.27272727272725 133.8802915523887 L 468.09090909090907 126.30000348378917 L 474.90909090909093 120.91529180249302 L 481.72727272727275 117.81018313332356 L 488.54545454545456 117.03313165853262 L 495.3636363636364 118.59626300649273 L 502.1818181818182 122.47518503532177 L 509 128.6093684640989 L 515.8181818181818 136.90309141204898 L 522.6363636363636 147.22693310647645 L 529.4545454545455 159.41979345063817 L 536.2727272727273 173.29140693687117 L 543.090909090909 188.62531167620392 L 549.909090909091 205.1822272137365 L 556.7272727272727 222.7037884201094 L 563.5454545454545 240.91657719293497 L 570.3636363636364 259.5363890548382 L 577.1818181818182 278.2726680692714 L 584 296.833040868725 L 590.8181818181818 314.927879043341 L 597.6363636363636 332.27481869537985 L 604.4545454545454 348.60316663340546 " stroke="steelblue" stroke-width="2" fill="none" /></svg>