<svg xmlns="http://www.w3.org/2000/svg" width="673" height="541" fill="black"><rect width="100%" height="100%" fill="white" /><line x1="59" y1="492" x2="659" y2="492" stroke="black" stroke-width="1" /><line x1="59" y1="42" x2="59" y2="492" stroke="black" stroke-width="1" /><line x1="113.54545454545455" y1="42" x2="113.54545454545455" y2="492" stroke="#ccc" stroke-width="1" /><line x1="168.0909090909091" y1="42" x2="168.0909090909091" y2="492" stroke="#ccc" stroke-width="1" /><line x1="222.63636363636363" y1="42" x2="222.63636363636363" y2="492" stroke="#ccc" stroke-width="1" /><line x1="277.1818181818182" y1="42" x2="277.1818181818182" y2="492" stroke="#ccc" stroke-width="1" /><line x1="331.7272727272727" y1="42" x2="331.7272727272727" y2="492" stroke="#ccc" stroke-width="1" /><line x1="386.27272727272725" y1="42" x2="386.27272727272725" y2="492" stroke="#ccc" stroke-width="1" /><line x1="440.8181818181818" y1="42" x2="440.8181818181818" y2="492" stroke="#ccc" stroke-width="1" /><line x1="495.3636363636364" y1="42" x2="495.3636363636364" y2="492" stroke="#ccc" stroke-width="1" /><line x1="549.909090909091" y1="42" x2="549.909090909091" y2="492" stroke="#ccc" stroke-width="1" /><line x1="604.4545454545454" y1="42" x2="604.4545454545454" y2="492" stroke="#ccc" stroke-width="1" /><line x1="659" y1="42" x2="659" y2="492" stroke="#ccc" stroke-width="1" /><line x1="59" y1="447" x2="659" y2="447" stroke="#ccc" stroke-width="1" /><line x1="59" y1="402" x2="659" y2="402" stroke="#ccc" stroke-width="1" /><line x1="59" y1="357" x2="659" y2="357" stroke="#ccc" stroke-width="1" /><line x1="59" y1="312" x2="659" y2="312" stroke="#ccc" stroke-width="1" /><line x1="59" y1="267" x2="659" y2="267" stroke="#ccc" stroke-width="1" /><line x1="59" y1="222" x2="659" y2="222" stroke="#ccc" stroke-width="1" /><line x1="59" y1="177" x2="659" y2="177" stroke="#ccc" stroke-width="1" /><line x1="59" y1="132" x2="659" y2="132" stroke="#ccc" stroke-width="1" /><line x1="59" y1="87" x2="659" y2="87" stroke="#ccc" stroke-width="1" /><line x1="59" y1="42" x2="659" y2="42" stroke="#ccc" stroke-width="1" /><line x1="59" y1="492" x2="59" y2="497" stroke="black" stroke-width="1" /><text x="59" y="507" font-size="10" text-anchor="middle">0</text><line x1="113.54545454545455" y1="492" x2="113.54545454545455" y2="497" stroke="black" stroke-width="1" /><text x="113.54545454545455" y="507" font-size="10" text-anchor="middle">1</text><line x1="168.0909090909091" y1="492" x2="168.0909090909091" y2="497" stroke="black" stroke-width="1" /><text x="168.0909090909091" y="507" font-size="10" text-anchor="middle">2</text><line x1="222.63636363636363" y1="492" x2="222.63636363636363" y2="497" stroke="black" stroke-width="1" /><text x="222.63636363636363" y="507" font-size="10" text-anchor="middle">3</text><line x1="277.1818181818182" y1="492" x2="277.1818181818182" y2="497" stroke="black" stroke-width="1" /><text x="277.1818181818182" y="507" font-size="10" text-anchor="middle">4</text><line x1="331.7272727272727" y1="492" x2="331.7272727272727" y2="497" stroke="black" stroke-width="1" /><text x="331.7272727272727" y="507" font-size="10" text-anchor="middle">5</text><line x1="386.27272727272725" y1="492" x2="386.27272727272725" y2="497" stroke="black" stroke-width="1" /><text x="386.27272727272725" y="507" font-size="10" text-anchor="middle">6</text><line x1="440.8181818181818" y1="492" x2="440.8181818181818" y2="497" stroke="black" stroke-width="1" /><text x="440.8181818181818" y="507" font-size="10" text-anchor="middle">7</text><line x1="495.3636363636364" y1="492" x2="495.3636363636364" y2="497" stroke="black" stroke-width="1" /><text x="495.3636363636364" y="507" font-size="10" text-anchor="middle">8</text><line x1="549.909090909091" y1="492" x2="549.909090909091" y2="497" stroke="black" stroke-width="1" /><text x="549.909090909091" y="507" font-size="10" text-anchor="middle">9</text><line x1="604.4545454545454" y1="492" x2="604.4545454545454" y2="497" stroke="black" stroke-width="1" /><text x="604.4545454545454" y="507" font-size="10" text-anchor="middle">10</text><line x1="659" y1="492" x2="659" y2="497" stroke="black" stroke-width="1" /><text x="659" y="507" font-size="10" text-anchor="middle">11</text><line x1="54" y1="492" x2="59" y2="492" stroke="black" stroke-width="1" /><text x="51" y="495.5" font-size="10" text-anchor="end">-2.5</text><line x1="54" y1="447" x2="59" y2="447" stroke="black" stroke-width="1" /><text x="51" y="450.5" font-size="10" text-anchor="end">-2</text><line x1="54" y1="402" x2="59" y2="402" stroke="black" stroke-width="1" /><text x="51" y="405.5" font-size="10" text-anchor="end">-1.5</text><line x1="54" y1="357" x2="59" y2="357" stroke="black" stroke-width="1" /><text x="51" y="360.5" font-size="10" text-anchor="end">-1</text><line x1="54" y1="312" x2="59" y2="312" stroke="black" stroke-width="1" /><text x="51" y="315.5" font-size="10" text-anchor="end">-0.5</text><line x1="54" y1="267" x2="59" y2="267" stroke="black" stroke-width="1" /><text x="51" y="270.5" font-size="10" text-anchor="end">0</text><line x1="54" y1="222" x2="59" y2="222" stroke="black" stroke-width="1" /><text x="51" y="225.5" font-size="10" text-anchor="end">0.5</text><line x1="54" y1="177" x2="59" y2="177" stroke="black" stroke-width="1" /><text x="51" y="180.5" font-size="10" text-anchor="end">1</text><line x1="54" y1="132" x2="59" y2="132" stroke="black" stroke-width="1" /><text x="51" y="135.5" font-size="10" text-anchor="end">1.5</text><line x1="54" y1="87" x2="59" y2="87" stroke="black" stroke-width="1" /><text x="51" y="90.5" font-size="10" text-anchor="end">2</text><line x1="54" y1="42" x2="59" y2="42" stroke="black" stroke-width="1" /><text x="51" y="45.5" font-size="10" text-anchor="end">2.5</text><text x="336.5" y="534" font-size="14" text-anchor="middle">X</text><text x="14" y="270.5" font-size="14" text-anchor="middle" transform="rotate(-90,14,270.5)">Y</text><text x="336.5" y="21" font-size="16" text-anchor="middle">Confidence Band</text><path d="M 59 240.00000000000003 L 65.81818181818181 228.7792739953295 L 72.63636363636364 217.7336436670929 L 79.45454545454545 207.0354723822557 L 86.27272727272728 196.85170152562176 L 93.0909090909091 187.34124543535842 L 99.9090909090909 178.6525115978999 L 106.72727272727272 170.9210847987576 L 113.54545454545455 164.2676113672893 L 120.36363636363637 158.79591653108145 L 127.18181818181817 154.59138425799722 L 134 151.71962486791597 L 140.8181818181818 150.22545120563512 L 147.63636363636363 150.13217935141518 L 154.45454545454544 151.4412647813457 L 161.27272727272725 154.13227965512755 L 168.0909090909091 158.16323158568866 L 174.9090909090909 163.4712189163393 L 181.72727272727275 169.97341228008713 L 188.54545454545456 177.5683471242055 L 195.36363636363635 186.13750703064397 L 202.1818181818182 195.547173125092 L 209 205.65051071529012 L 215.8181818181818 216.28986059729215 L 222.63636363636363 227.29919927461196 L 229.45454545454547 238.50672969935866 L 236.27272727272728 249.73756210770975 L 243.0909090909091 260.816443116182 L 249.9090909090909 271.5704904920658 L 256.72727272727275 281.8318909228448 L 263.5454545454545 291.44051868681095 L 270.3636363636364 300.24643436139627 L 277.1818181818182 308.1122245777135 L 284 314.9151463102188 L 290.8181818181818 320.5490422405725 L 297.6363636363636 324.9259973070866 L 304.4545454545455 327.9777105898587 L 311.27272727272725 329.65656112378315 L 318.0909090909091 329.936351007784 L 324.9090909090909 328.8127142142997 L 331.7272727272727 326.30318471968246 L 338.5454545454545 322.4469228923619 L 345.3636363636364 317.3041044083933 L 352.1818181818182 310.95498123015864 L 359 303.49862930133526 L 365.8181818181818 295.0514024999309 L 372.6363636363636 285.74511697493324 L 379.45454545454544 275.72499419939226 L 386.27272727272725 265.14739483790333 L 393.09090909090907 254.17737879073286 L 399.90909090909093 242.9861294892801 L 406.72727272727275 231.74828263588404 L 413.54545454545456 220.63920107209663 L 420.3636363636364 209.83223830019233 L 427.1818181818182 199.49603335974444 L 434 189.7918792718154 L 440.8181818181818 180.871206115309 L 447.6363636363636 172.87321801123613 L 454.45454545454544 165.92272088896453 L 461.27272727272725 160.12817493143325 L 468.09090909090907 155.58000209027352 L 474.90909090909093 152.34917508149584 L 481.72727272727275 150.48610987999416 L 488.54545454545456 150.01987899511954 L 495.3636363636364 150.95775780389567 L 502.1818181818182 153.28511102119307 L 509 156.96562107845938 L 515.8181818181818 161.94185484722937 L 522.6363636363636 168.13615986388584 L 529.4545454545455 175.45187607038292 L 536.2727272727273 183.7748441621227 L 543.090909090909 192.97518700572238 L 549.909090909091 202.90933632824192 L 556.7272727272727 213.42227305206563 L 563.5454545454545 224.34994631576103 L 570.3636363636364 235.52183343290295 L 577.1818181818182 246.76360084156283 L 584 257.899824521235 L 590.8181818181818 268.75672742600466 L 597.6363636363636 279.16489121722793 L 604.4545454545454 288.9618999800433 L 604.4545454545454 342.9618999800433 L 597.6363636363636 333.16489121722793 L 590.8181818181818 322.75672742600466 L 584 311.899824521235 L 577.1818181818182 300.76360084156283 L 570.3636363636364 289.5218334329029 L 563.5454545454545 278.349946315761 L 556.7272727272727 267.42227305206563 L 549.909090909091 256.9093363282419 L 543.090909090909 246.97518700572238 L 536.2727272727273 237.7748441621227 L 529.4545454545455 229.45187607038292 L 522.6363636363636 222.1361598638859 L 515.8181818181818 215.94185484722937 L 509 210.96562107845938 L 502.1818181818182 207.28511102119302 L 495.3636363636364 204.95775780389567 L 488.54545454545456 204.0198789951196 L 481.72727272727275 204.48610987999416 L 474.90909090909093 206.34917508149584 L 468.09090909090907 209.58000209027347 L 461.27272727272725 214.12817493143325 L 454.45454545454544 219.92272088896453 L 447.6363636363636 226.87321801123613 L 440.8181818181818 234.87120611530895 L 434 243.7918792718154 L 427.1818181818182 253.49603335974442 L 420.3636363636364 263.83223830019233 L 413.54545454545456 274.6392010720966 L 406.72727272727275 285.74828263588404 L 399.90909090909093 296.9861294892801 L 393.09090909090907 308.17737879073286 L 386.27272727272725 319.14739483790333 L 379.45454545454544 329.7249941993922 L 372.6363636363636 339.74511697493324 L 365.8181818181818 349.0514024999309 L 359 357.49862930133526 L 352.1818181818182 364.9549812301587 L 345.3636363636364 371.3041044083933 L 338.5454545454545 376.44692289236195 L 331.7272727272727 380.30318471968246 L 324.9090909090909 382.8127142142997 L 318.0909090909091 383.936351007784 L 311.27272727272725 383.65656112378315 L 304.4545454545455 381.9777105898587 L 297.6363636363636 378.9259973070866 L 290.8181818181818 374.54904224057253 L 284 368.91514631021886 L 277.1818181818182 362.1122245777135 L 270.3636363636364 354.2464343613962 L 263.5454545454545 345.44051868681095 L 256.72727272727275 335.8318909228448 L 249.9090909090909 325.5704904920658 L 243.0909090909091 314.816443116182 L 236.27272727272728 303.7375621077098 L 229.45454545454547 292.5067296993587 L 222.63636363636363 281.29919927461196 L 215.8181818181818 270.2898605972921 L 209 259.6505107152902 L 202.1818181818182 249.54717312509197 L 195.36363636363635 240.1375070306439 L 188.54545454545456 231.56834712420556 L 181.72727272727275 223.97341228008708 L 174.9090909090909 217.4712189163393 L 168.0909090909091 212.16323158568866 L 161.27272727272725 208.1322796551276 L 154.45454545454544 205.4412647813457 L 147.63636363636363 204.13217935141512 L 140.8181818181818 204.22545120563512 L 134 205.71962486791597 L 127.18181818181817 208.59138425799728 L 120.36363636363637 212.79591653108145 L 113.54545454545455 218.2676113672893 L 106.72727272727272 224.9210847987576 L 99.9090909090909 232.65251159789995 L 93.0909090909091 241.34124543535842 L 86.27272727272728 250.8517015256217 L 79.45454545454545 261.0354723822557 L 72.63636363636364 271.7336436670929 L 65.81818181818181 282.7792739953295 L 59 294 Z" stroke="none" stroke-width="0" fill="steelblue" fill-opacity="0.2" /><path d="M 59 267 L 65.81818181818181 255.7792739953295 L 72.63636363636364 244.73364366709293 L 79.45454545454545 234.0354723822557 L 86.27272727272728 223.85170152562176 L 93.0909090909091 214.34124543535836 L 99.9090909090909 205.65251159789995 L 106.72727272727272 197.9210847987576 L 113.54545454545455 191.2676113672893 L 120.36363636363637 185.7959165310814 L 127.18181818181817 181.59138425799722 L 134 178.71962486791602 L 140.8181818181818 177.22545120563512 L 147.63636363636363 177.13217935141518 L 154.45454545454544 178.4412647813457 L 161.27272727272725 181.13227965512755 L 168.0909090909091 185.1632315856886 L 174.9090909090909 190.4712189163393 L 181.72727272727275 196.97341228008708 L 188.54545454545456 204.56834712420556 L 195.36363636363635 213.13750703064392 L 202.1818181818182 222.54717312509194 L 209 232.65051071529012 L 215.8181818181818 243.28986059729212 L 222.63636363636363 254.29919927461194 L 229.45454545454547 265.5067296993587 L 236.27272727272728 276.7375621077098 L 243.0909090909091 287.816443116182 L 249.9090909090909 298.5704904920658 L 256.72727272727275 308.8318909228448 L 263.5454545454545 318.44051868681095 L 270.3636363636364 327.24643436139627 L 277.1818181818182 335.11222457771356 L 284 341.91514631021886 L 290.8181818181818 347.5490422405725 L 297.6363636363636 351.9259973070866 L 304.4545454545455 354.9777105898587 L 311.27272727272725 356.65656112378315 L 318.0909090909091 356.936351007784 L 324.9090909090909 355.8127142142997 L 331.7272727272727 353.30318471968246 L 338.5454545454545 349.44692289236195 L 345.3636363636364 344.3041044083933 L 352.1818181818182 337.9549812301587 L 359 330.4986293013353 L 365.8181818181818 322.0514024999309 L 372.6363636363636 312.74511697493324 L 379.45454545454544 302.7249941993922 L 386.27272727272725 292.14739483790333 L 393.09090909090907 281.17737879073286 L 399.90909090909093 269.98612948928013 L 406.72727272727275 258.748282635884 L 413.54545454545456 247.6392010720966 L 420.3636363636364 236.83223830019227 L 427.1818181818182 226.4960333597444 L 434 216.7918792718154 L 440.8181818181818 207.871206115309 L 447.6363636363636 199.87321801123613 L 454.45454545454544 192.92272088896453 L 461.27272727272725 187.1281749314332 L 468.09090909090907 182.58000209027352 L 474.90909090909093 179.34917508149584 L 481.72727272727275 177.4861098799941 L 488.54545454545456 177.0198789951196 L 495.3636363636364 177.95775780389562 L 502.1818181818182 180.28511102119307 L 509 183.96562107845932 L 515.8181818181818 188.94185484722937 L 522.6363636363636 195.13615986388584 L 529.4545454545455 202.45187607038292 L 536.2727272727273 210.77484416212263 L 543.090909090909 219.97518700572232 L 549.909090909091 229.90933632824192 L 556.7272727272727 240.4222730520656 L 563.5454545454545 251.34994631576097 L 570.3636363636364 262.5218334329029 L 577.1818181818182 273.76360084156283 L 584 284.899824521235 L 590.8181818181818 295.75672742600466 L 597.6363636363636 306.16489121722793 L 604.4545454545454 315.9618999800433 " stroke="steelblue" stroke-width="2" fill="none" /></svg>