<svg xmlns="http://www.w3.org/2000/svg" width="673" height="541" fill="black"><rect width="100%" height="100%" fill="white" /><line x1="59" y1="492" x2="659" y2="492" stroke="black" stroke-width="1" /><line x1="59" y1="42" x2="59" y2="492" stroke="black" stroke-width="1" /><line x1="125.66666666666666" y1="42" x2="125.66666666666666" y2="492" stroke="#ccc" stroke-width="1" /><line x1="192.33333333333331" y1="42" x2="192.33333333333331" y2="492" stroke="#ccc" stroke-width="1" /><line x1="259" y1="42" x2="259" y2="492" stroke="#ccc" stroke-width="1" /><line x1="325.66666666666663" y1="42" x2="325.66666666666663" y2="492" stroke="#ccc" stroke-width="1" /><line x1="392.33333333333337" y1="42" x2="392.33333333333337" y2="492" stroke="#ccc" stroke-width="1" /><line x1="459" y1="42" x2="459" y2="492" stroke="#ccc" stroke-width="1" /><line x1="525.6666666666667" y1="42" x2="525.6666666666667" y2="492" stroke="#ccc" stroke-width="1" /><line x1="592.3333333333333" y1="42" x2="592.3333333333333" y2="492" stroke="#ccc" stroke-width="1" /><line x1="659" y1="42" x2="659" y2="492" stroke="#ccc" stroke-width="1" /><line x1="59" y1="435.75" x2="659" y2="435.75" stroke="#ccc" stroke-width="1" /><line x1="59" y1="379.5" x2="659" y2="379.5" stroke="#ccc" stroke-width="1" /><line x1="59" y1="323.25" x2="659" y2="323.25" stroke="#ccc" stroke-width="1" /><line x1="59" y1="267" x2="659" y2="267" stroke="#ccc" stroke-width="1" /><line x1="59" y1="210.75" x2="659" y2="210.75" stroke="#ccc" stroke-width="1" /><line x1="59" y1="154.5" x2="659" y2="154.5" stroke="#ccc" stroke-width="1" /><line x1="59" y1="98.25" x2="659" y2="98.25" stroke="#ccc" stroke-width="1" /><line x1="59" y1="42" x2="659" y2="42" stroke="#ccc" stroke-width="1" /><line x1="59" y1="492" x2="59" y2="497" stroke="black" stroke-width="1" /><text x="59" y="507" font-size="10" text-anchor="middle">0</text><line x1="125.66666666666666" y1="492" x2="125.66666666666666" y2="497" stroke="black" stroke-width="1" /><text x="125.66666666666666" y="507" font-size="10" text-anchor="middle">1</text><line x1="192.33333333333331" y1="492" x2="192.33333333333331" y2="497" stroke="black" stroke-width="1" /><text x="192.33333333333331" y="507" font-size="10" text-anchor="middle">2</text><line x1="259" y1="492" x2="259" y2="497" stroke="black" stroke-width="1" /><text x="259" y="507" font-size="10" text-anchor="middle">3</text><line x1="325.66666666666663" y1="492" x2="325.66666666666663" y2="497" stroke="black" stroke-width="1" /><text x="325.66666666666663" y="507" font-size="10" text-anchor="middle">4</text><line x1="392.33333333333337" y1="492" x2="392.33333333333337" y2="497" stroke="black" stroke-width="1" /><text x="392.33333333333337" y="507" font-size="10" text-anchor="middle">5</text><line x1="459" y1="492" x2="459" y2="497" stroke="black" stroke-width="1" /><text x="459" y="507" font-size="10" text-anchor="middle">6</text><line x1="525.6666666666667" y1="492" x2="525.6666666666667" y2="497" stroke="black" stroke-width="1" /><text x="525.6666666666667" y="507" font-size="10" text-anchor="middle">7</text><line x1="592.3333333333333" y1="492" x2="592.3333333333333" y2="497" stroke="black" stroke-width="1" /><text x="592.3333333333333" y="507" font-size="10" text-anchor="middle">8</text><line x1="659" y1="492" x2="659" y2="497" stroke="black" stroke-width="1" /><text x="659" y="507" font-size="10" text-anchor="middle">9</text><line x1="54" y1="492" x2="59" y2="492" stroke="black" stroke-width="1" /><text x="51" y="495.5" font-size="10" text-anchor="end">-2</text><line x1="54" y1="435.75" x2="59" y2="435.75" stroke="black" stroke-width="1" /><text x="51" y="439.25" font-size="10" text-anchor="end">-1.5</text><line x1="54" y1="379.5" x2="59" y2="379.5" stroke="black" stroke-width="1" /><text x="51" y="383" font-size="10" text-anchor="end">-1</text><line x1="54" y1="323.25" x2="59" y2="323.25" stroke="black" stroke-width="1" /><text x="51" y="326.75" font-size="10" text-anchor="end">-0.5</text><line x1="54" y1="267" x2="59" y2="267" stroke="black" stroke-width="1" /><text x="51" y="270.5" font-size="10" text-anchor="end">0</text><line x1="54" y1="210.75" x2="59" y2="210.75" stroke="black" stroke-width="1" /><text x="51" y="214.25" font-size="10" text-anchor="end">0.5</text><line x1="54" y1="154.5" x2="59" y2="154.5" stroke="black" stroke-width="1" /><text x="51" y="158" font-size="10" text-anchor="end">1</text><line x1="54" y1="98.25" x2="59" y2="98.25" stroke="black" stroke-width="1" /><text x="51" y="101.75" font-size="10" text-anchor="end">1.5</text><line x1="54" y1="42" x2="59" y2="42" stroke="black" stroke-width="1" /><text x="51" y="45.5" font-size="10" text-anchor="end">2</text><text x="336.5" y="534" font-size="14" text-anchor="middle">X</text><text x="14" y="270.5" font-size="14" text-anchor="middle" transform="rotate(-90,14,270.5)">Y</text><text x="336.5" y="21" font-size="16" text-anchor="middle">Error Bars</text><path d="M 59 267 L 125.66666666666666 186.29743977380372 L 192.33333333333331 154.54796965783066 L 259 191.01039218799554 L 325.66666666666663 273.56709113560277 L 392.33333333333337 352.14028072214194 L 459 379.0685184940321 L 525.6666666666667 338.0174967606361 L 592.3333333333333 253.8882144543195 " stroke="steelblue" stroke-width="2" fill="none" /></svg>