<svg xmlns="http://www.w3.org/2000/svg" width="673" height="541" fill="black"><rect width="100%" height="100%" fill="white" /><line x1="59" y1="492" x2="659" y2="492" stroke="black" stroke-width="1" /><line x1="59" y1="42" x2="59" y2="492" stroke="black" stroke-width="1" /><line x1="125.66666666666666" y1="42" x2="125.66666666666666" y2="492" stroke="#ccc" stroke-width="1" /><line x1="192.33333333333331" y1="42" x2="192.33333333333331" y2="492" stroke="#ccc" stroke-width="1" /><line x1="259" y1="42" x2="259" y2="492" stroke="#ccc" stroke-width="1" /><line x1="325.66666666666663" y1="42" x2="325.66666666666663" y2="492" stroke="#ccc" stroke-width="1" /><line x1="392.33333333333337" y1="42" x2="392.33333333333337" y2="492" stroke="#ccc" stroke-width="1" /><line x1="459" y1="42" x2="459" y2="492" stroke="#ccc" stroke-width="1" /><line x1="525.6666666666667" y1="42" x2="525.6666666666667" y2="492" stroke="#ccc" stroke-width="1" /><line x1="592.3333333333333" y1="42" x2="592.3333333333333" y2="492" stroke="#ccc" stroke-width="1" /><line x1="659" y1="42" x2="659" y2="492" stroke="#ccc" stroke-width="1" /><line x1="59" y1="407.625" x2="659" y2="407.625" stroke="#ccc" stroke-width="1" /><line x1="59" y1="360.75" x2="659" y2="360.75" stroke="#ccc" stroke-width="1" /><line x1="59" y1="313.875" x2="659" y2="313.875" stroke="#ccc" stroke-width="1" /><line x1="59" y1="267" x2="659" y2="267" stroke="#ccc" stroke-width="1" /><line x1="59" y1="220.125" x2="659" y2="220.125" stroke="#ccc" stroke-width="1" /><line x1="59" y1="173.25000000000006" x2="659" y2="173.25000000000006" stroke="#ccc" stroke-width="1" /><line x1="59" y1="126.375" x2="659" y2="126.375" stroke="#ccc" stroke-width="1" /><line x1="59" y1="79.5" x2="659" y2="79.5" stroke="#ccc" stroke-width="1" /><line x1="59" y1="492" x2="59" y2="497" stroke="black" stroke-width="1" /><text x="59" y="507" font-size="10" text-anchor="middle">0</text><line x1="125.66666666666666" y1="492" x2="125.66666666666666" y2="497" stroke="black" stroke-width="1" /><text x="125.66666666666666" y="507" font-size="10" text-anchor="middle">1</text><line x1="192.33333333333331" y1="492" x2="192.33333333333331" y2="497" stroke="black" stroke-width="1" /><text x="192.33333333333331" y="507" font-size="10" text-anchor="middle">2</text><line x1="259" y1="492" x2="259" y2="497" stroke="black" stroke-width="1" /><text x="259" y="507" font-size="10" text-anchor="middle">3</text><line x1="325.66666666666663" y1="492" x2="325.66666666666663" y2="497" stroke="black" stroke-width="1" /><text x="325.66666666666663" y="507" font-size="10" text-anchor="middle">4</text><line x1="392.33333333333337" y1="492" x2="392.33333333333337" y2="497" stroke="black" stroke-width="1" /><text x="392.33333333333337" y="507" font-size="10" text-anchor="middle">5</text><line x1="459" y1="492" x2="459" y2="497" stroke="black" stroke-width="1" /><text x="459" y="507" font-size="10" text-anchor="middle">6</text><line x1="525.6666666666667" y1="492" x2="525.6666666666667" y2="497" stroke="black" stroke-width="1" /><text x="525.6666666666667" y="507" font-size="10" text-anchor="middle">7</text><line x1="592.3333333333333" y1="492" x2="592.3333333333333" y2="497" stroke="black" stroke-width="1" /><text x="592.3333333333333" y="507" font-size="10" text-anchor="middle">8</text><line x1="659" y1="492" x2="659" y2="497" stroke="black" stroke-width="1" /><text x="659" y="507" font-size="10" text-anchor="middle">9</text><line x1="54" y1="454.5" x2="59" y2="454.5" stroke="black" stroke-width="1" /><text x="51" y="458" font-size="10" text-anchor="end">-1</text><line x1="54" y1="407.625" x2="59" y2="407.625" stroke="black" stroke-width="1" /><text x="51" y="411.125" font-size="10" text-anchor="end">-0.75</text><line x1="54" y1="360.75" x2="59" y2="360.75" stroke="black" stroke-width="1" /><text x="51" y="364.25" font-size="10" text-anchor="end">-0.5</text><line x1="54" y1="313.875" x2="59" y2="313.875" stroke="black" stroke-width="1" /><text x="51" y="317.375" font-size="10" text-anchor="end">-0.25</text><line x1="54" y1="267" x2="59" y2="267" stroke="black" stroke-width="1" /><text x="51" y="270.5" font-size="10" text-anchor="end">0</text><line x1="54" y1="220.125" x2="59" y2="220.125" stroke="black" stroke-width="1" /><text x="51" y="223.625" font-size="10" text-anchor="end">0.25</text><line x1="54" y1="173.25000000000006" x2="59" y2="173.25000000000006" stroke="black" stroke-width="1" /><text x="51" y="176.75000000000006" font-size="10" text-anchor="end">0.5</text><line x1="54" y1="126.375" x2="59" y2="126.375" stroke="black" stroke-width="1" /><text x="51" y="129.875" font-size="10" text-anchor="end">0.75</text><line x1="54" y1="79.5" x2="59" y2="79.5" stroke="black" stroke-width="1" /><text x="51" y="83" font-size="10" text-anchor="end">1</text><text x="336.5" y="534" font-size="14" text-anchor="middle">X</text><text x="14" y="270.5" font-size="14" text-anchor="middle" transform="rotate(-90,14,270.5)">Y</text><text x="336.5" y="21" font-size="16" text-anchor="middle">Error Bars</text><path d="M 59 267 L 125.66666666666666 132.4957329563395 L 192.33333333333331 79.57994942971783 L 259 140.35065364665928 L 325.66666666666663 277.9451518926713 L 392.33333333333337 408.9004678702365 L 459 453.7808641567201 L 525.6666666666667 385.3624946010601 L 592.3333333333333 245.14702409053245 " stroke="steelblue" stroke-width="2" fill="none" /><line x1="59" y1="295.125" x2="59" y2="238.875" stroke="steelblue" stroke-width="1" /><line x1="54" y1="295.125" x2="64" y2="295.125" stroke="steelblue" stroke-width="1" /><line x1="54" y1="238.875" x2="64" y2="238.875" stroke="steelblue" stroke-width="1" /><line x1="125.66666666666666" y1="169.9957329563395" x2="125.66666666666666" y2="94.99573295633945" stroke="steelblue" stroke-width="1" /><line x1="120.66666666666666" y1="169.9957329563395" x2="130.66666666666666" y2="169.9957329563395" stroke="steelblue" stroke-width="1" /><line x1="120.66666666666666" y1="94.99573295633945" x2="130.66666666666666" y2="94.99573295633945" stroke="steelblue" stroke-width="1" /><line x1="192.33333333333331" y1="102.07994942971777" x2="192.33333333333331" y2="57.07994942971783" stroke="steelblue" stroke-width="1" /><line x1="187.33333333333331" y1="102.07994942971777" x2="197.33333333333331" y2="102.07994942971777" stroke="steelblue" stroke-width="1" /><line x1="187.33333333333331" y1="57.07994942971783" x2="197.33333333333331" y2="57.07994942971783" stroke="steelblue" stroke-width="1" /><line x1="259" y1="174.10065364665928" x2="259" y2="106.60065364665934" stroke="steelblue" stroke-width="1" /><line x1="254" y1="174.10065364665928" x2="264" y2="174.10065364665928" stroke="steelblue" stroke-width="1" /><line x1="254" y1="106.60065364665934" x2="264" y2="106.60065364665934" stroke="steelblue" stroke-width="1" /><line x1="325.66666666666663" y1="319.1951518926713" x2="325.66666666666663" y2="236.69515189267125" stroke="steelblue" stroke-width="1" /><line x1="320.66666666666663" y1="319.1951518926713" x2="330.66666666666663" y2="319.1951518926713" stroke="steelblue" stroke-width="1" /><line x1="320.66666666666663" y1="236.69515189267125" x2="330.66666666666663" y2="236.69515189267125" stroke="steelblue" stroke-width="1" /><line x1="392.33333333333337" y1="435.1504678702365" x2="392.33333333333337" y2="382.6504678702365" stroke="steelblue" stroke-width="1" /><line x1="387.33333333333337" y1="435.1504678702365" x2="397.33333333333337" y2="435.1504678702365" stroke="steelblue" stroke-width="1" /><line x1="387.33333333333337" y1="382.6504678702365" x2="397.33333333333337" y2="382.6504678702365" stroke="steelblue" stroke-width="1" /><line x1="459" y1="489.4058641567201" x2="459" y2="418.1558641567201" stroke="steelblue" stroke-width="1" /><line x1="454" y1="489.4058641567201" x2="464" y2="489.4058641567201" stroke="steelblue" stroke-width="1" /><line x1="454" y1="418.1558641567201" x2="464" y2="418.1558641567201" stroke="steelblue" stroke-width="1" /><line x1="525.6666666666667" y1="415.3624946010601" x2="525.6666666666667" y2="355.3624946010601" stroke="steelblue" stroke-width="1" /><line x1="520.6666666666667" y1="415.3624946010601" x2="530.6666666666667" y2="415.3624946010601" stroke="steelblue" stroke-width="1" /><line x1="520.6666666666667" y1="355.3624946010601" x2="530.6666666666667" y2="355.3624946010601" stroke="steelblue" stroke-width="1" /><line x1="592.3333333333333" y1="284.52202409053245" x2="592.3333333333333" y2="205.77202409053245" stroke="steelblue" stroke-width="1" /><line x1="587.3333333333333" y1="284.52202409053245" x2="597.3333333333333" y2="284.52202409053245" stroke="steelblue" stroke-width="1" /><line x1="587.3333333333333" y1="205.77202409053245" x2="597.3333333333333" y2="205.77202409053245" stroke="steelblue" stroke-width="1" /></svg>