<svg xmlns="http://www.w3.org/2000/svg" width="673" height="541" fill="black"><rect width="100%" height="100%" fill="white" /><line x1="59" y1="492" x2="659" y2="492" stroke="black" stroke-width="1" /><line x1="59" y1="42" x2="59" y2="492" stroke="black" stroke-width="1" /><line x1="113.54545454545455" y1="42" x2="113.54545454545455" y2="492" stroke="#ccc" stroke-width="1" /><line x1="168.0909090909091" y1="42" x2="168.0909090909091" y2="492" stroke="#ccc" stroke-width="1" /><line x1="222.63636363636363" y1="42" x2="222.63636363636363" y2="492" stroke="#ccc" stroke-width="1" /><line x1="277.1818181818182" y1="42" x2="277.1818181818182" y2="492" stroke="#ccc" stroke-width="1" /><line x1="331.7272727272727" y1="42" x2="331.7272727272727" y2="492" stroke="#ccc" stroke-width="1" /><line x1="386.27272727272725" y1="42" x2="386.27272727272725" y2="492" stroke="#ccc" stroke-width="1" /><line x1="440.8181818181818" y1="42" x2="440.8181818181818" y2="492" stroke="#ccc" stroke-width="1" /><line x1="495.3636363636364" y1="42" x2="495.3636363636364" y2="492" stroke="#ccc" stroke-width="1" /><line x1="549.909090909091" y1="42" x2="549.909090909091" y2="492" stroke="#ccc" stroke-width="1" /><line x1="604.4545454545454" y1="42" x2="604.4545454545454" y2="492" stroke="#ccc" stroke-width="1" /><line x1="659" y1="42" x2="659" y2="492" stroke="#ccc" stroke-width="1" /><line x1="59" y1="435.75" x2="659" y2="435.75" stroke="#ccc" stroke-width="1" /><line x1="59" y1="379.5" x2="659" y2="379.5" stroke="#ccc" stroke-width="1" /><line x1="59" y1="323.25" x2="659" y2="323.25" stroke="#ccc" stroke-width="1" /><line x1="59" y1="267" x2="659" y2="267" stroke="#ccc" stroke-width="1" /><line x1="59" y1="210.75" x2="659" y2="210.75" stroke="#ccc" stroke-width="1" /><line x1="59" y1="154.5" x2="659" y2="154.5" stroke="#ccc" stroke-width="1" /><line x1="59" y1="98.25" x2="659" y2="98.25" stroke="#ccc" stroke-width="1" /><line x1="59" y1="42" x2="659" y2="42" stroke="#ccc" stroke-width="1" /><line x1="59" y1="492" x2="59" y2="497" stroke="black" stroke-width="1" /><text x="59" y="507" font-size="10" text-anchor="middle">0</text><line x1="113.54545454545455" y1="492" x2="113.54545454545455" y2="497" stroke="black" stroke-width="1" /><text x="113.54545454545455" y="507" font-size="10" text-anchor="middle">1</text><line x1="168.0909090909091" y1="492" x2="168.0909090909091" y2="497" stroke="black" stroke-width="1" /><text x="168.0909090909091" y="507" font-size="10" text-anchor="middle">2</text><line x1="222.63636363636363" y1="492" x2="222.63636363636363" y2="497" stroke="black" stroke-width="1" /><text x="222.63636363636363" y="507" font-size="10" text-anchor="middle">3</text><line x1="277.1818181818182" y1="492" x2="277.1818181818182" y2="497" stroke="black" stroke-width="1" /><text x="277.1818181818182" y="507" font-size="10" text-anchor="middle">4</text><line x1="331.7272727272727" y1="492" x2="331.7272727272727" y2="497" stroke="black" stroke-width="1" /><text x="331.7272727272727" y="507" font-size="10" text-anchor="middle">5</text><line x1="386.27272727272725" y1="492" x2="386.27272727272725" y2="497" stroke="black" stroke-width="1" /><text x="386.27272727272725" y="507" font-size="10" text-anchor="middle">6</text><line x1="440.8181818181818" y1="492" x2="440.8181818181818" y2="497" stroke="black" stroke-width="1" /><text x="440.8181818181818" y="507" font-size="10" text-anchor="middle">7</text><line x1="495.3636363636364" y1="492" x2="495.3636363636364" y2="497" stroke="black" stroke-width="1" /><text x="495.3636363636364" y="507" font-size="10" text-anchor="middle">8</text><line x1="549.909090909091" y1="492" x2="549.909090909091" y2="497" stroke="black" stroke-width="1" /><text x="549.909090909091" y="507" font-size="10" text-anchor="middle">9</text><line x1="604.4545454545454" y1="492" x2="604.4545454545454" y2="497" stroke="black" stroke-width="1" /><text x="604.4545454545454" y="507" font-size="10" text-anchor="middle">10</text><line x1="659" y1="492" x2="659" y2="497" stroke="black" stroke-width="1" /><text x="659" y="507" font-size="10" text-anchor="middle">11</text><line x1="54" y1="492" x2="59" y2="492" stroke="black" stroke-width="1" /><text x="51" y="495.5" font-size="10" text-anchor="end">-2</text><line x1="54" y1="435.75" x2="59" y2="435.75" stroke="black" stroke-width="1" /><text x="51" y="439.25" font-size="10" text-anchor="end">-1.5</text><line x1="54" y1="379.5" x2="59" y2="379.5" stroke="black" stroke-width="1" /><text x="51" y="383" font-size="10" text-anchor="end">-1</text><line x1="54" y1="323.25" x2="59" y2="323.25" stroke="black" stroke-width="1" /><text x="51" y="326.75" font-size="10" text-anchor="end">-0.5</text><line x1="54" y1="267" x2="59" y2="267" stroke="black" stroke-width="1" /><text x="51" y="270.5" font-size="10" text-anchor="end">0</text><line x1="54" y1="210.75" x2="59" y2="210.75" stroke="black" stroke-width="1" /><text x="51" y="214.25" font-size="10" text-anchor="end">0.5</text><line x1="54" y1="154.5" x2="59" y2="154.5" stroke="black" stroke-width="1" /><text x="51" y="158" font-size="10" text-anchor="end">1</text><line x1="54" y1="98.25" x2="59" y2="98.25" stroke="black" stroke-width="1" /><text x="51" y="101.75" font-size="10" text-anchor="end">1.5</text><line x1="54" y1="42" x2="59" y2="42" stroke="black" stroke-width="1" /><text x="51" y="45.5" font-size="10" text-anchor="end">2</text><text x="336.5" y="534" font-size="14" text-anchor="middle">X</text><text x="14" y="270.5" font-size="14" text-anchor="middle" transform="rotate(-90,14,270.5)">Y</text><text x="336.5" y="21" font-size="16" text-anchor="middle">Area Plot</text><path d="M 59 267 L 64.45454545454545 255.76874062723186 L 69.9090909090909 244.6497002855556 L 75.36363636363637 233.7539767505993 L 80.81818181818181 223.19043649027685 L 86.27272727272728 213.06462690702716 L 91.72727272727273 203.4777217430585 L 97.18181818181819 194.52551018575974 L 102.63636363636364 186.29743977380372 L 108.0909090909091 178.87572266690813 L 113.54545454545455 172.3345142091116 L 119 166.73917199308852 L 124.45454545454547 162.14560282868706 L 129.9090909090909 158.5997041405658 L 135.36363636363637 156.13690537629822 L 140.8181818181818 154.78181400704386 L 146.27272727272728 154.54796965783066 L 151.72727272727275 155.43770882409729 L 157.1818181818182 157.44214152620305 L 162.63636363636363 160.54124013516588 L 168.0909090909091 164.70403948211077 L 173.54545454545456 169.8889462520017 L 179 176.0441545702961 L 184.45454545454547 183.108163630119 L 189.90909090909093 191.01039218799554 L 195.36363636363635 199.6718837883049 L 200.8181818181818 209.00609567008524 L 206.27272727272728 218.9197634736941 L 211.72727272727275 229.3138331074607 L 217.1818181818182 240.08445046342703 L 222.63636363636363 251.12399909326493 L 228.0909090909091 262.3221754762548 L 233.54545454545456 273.56709113560277 L 239.00000000000003 284.74639059111547 L 244.4545454545455 295.74837397801855 L 249.9090909090909 306.46311311508225 L 255.36363636363637 316.78354987067087 L 260.8181818181818 326.6065658522055 L 266.27272727272725 335.8340127310559 L 271.72727272727275 344.3736929081971 L 277.1818181818182 352.14028072214194 L 282.6363636363637 359.05617499474624 L 288.0909090909091 365.0522743965287 L 293.5454545454545 370.06866788431364 L 299 374.0552333125706 L 304.4545454545455 376.9721382373234 L 309.90909090909093 378.79023790876477 L 315.3636363636364 379.49136647596134 L 320.81818181818187 379.0685184940321 L 326.2727272727273 377.5259189202374 L 331.7272727272727 374.8789808996031 L 337.1818181818182 371.15415176186985 L 342.6363636363636 366.3886487685172 L 348.0909090909091 360.63008725018886 L 353.54545454545456 353.93600485004856 L 359 346.37328662666914 L 364.4545454545455 338.0174967606361 L 369.90909090909093 328.95212354223423 L 375.3636363636364 319.2677451840476 L 380.8181818181818 309.0611247934015 L 386.27272727272725 298.4342435473792 L 391.72727272727275 287.4932817306107 L 397.1818181818182 276.34755781696833 L 402.6363636363636 265.10843619551054 L 408.0909090909091 253.8882144543195 L 413.54545454545456 242.79900134012075 L 419.00000000000006 231.9515966047449 L 424.4545454545455 221.45438393063267 L 429.909090909091 211.4122479969065 L 435.3636363636364 201.92552650632746 L 440.8181818181818 193.08900764413625 L 446.2727272727273 184.99098298583885 L 451.72727272727275 177.71236531697025 L 457.1818181818182 171.32588017928646 L 462.6363636363636 165.89533922119193 L 468.09090909090907 161.47500261284188 L 473.54545454545456 158.10903689645772 L 479.00000000000006 155.83107368883748 L 484.45454545454544 154.66387364535694 L 489.90909090909093 154.61909904302564 L 495.3636363636364 155.69719725486954 L 500.8181818181818 157.88739627992777 L 506.27272727272737 161.16781237352558 L 511.7272727272728 165.50566870241698 L 517.1818181818182 170.85762284006847 L 522.6363636363636 177.17019982985732 L 528.090909090909 184.38032648916226 L 533.5454545454546 192.4159616157545 L 539 201.1968157996768 L 544.4545454545455 210.63515364848797 L 549.909090909091 220.63667041030237 L 555.3636363636364 231.10143423569787 L 560.8181818181819 241.9248846637223 L 566.2727272727274 252.9988773554556 L 571.7272727272727 264.21276463649724 L 577.1818181818182 275.45450105195357 L 582.6363636363637 286.6117628875854 L 588.0909090909091 297.57307047123123 L 593.5454545454546 308.22890204084194 L 599 318.47278804972365 L 604.4545454545454 328.2023749750541 L 604.4545454545454 267 L 59 267 Z" stroke="none" stroke-width="0" fill="steelblue" fill-opacity="0.3" /><path d="M 59 267 L 64.45454545454545 255.76874062723186 L 69.9090909090909 244.6497002855556 L 75.36363636363637 233.7539767505993 L 80.81818181818181 223.19043649027685 L 86.27272727272728 213.06462690702716 L 91.72727272727273 203.4777217430585 L 97.18181818181819 194.52551018575974 L 102.63636363636364 186.29743977380372 L 108.0909090909091 178.87572266690813 L 113.54545454545455 172.3345142091116 L 119 166.73917199308852 L 124.45454545454547 162.14560282868706 L 129.9090909090909 158.5997041405658 L 135.36363636363637 156.13690537629822 L 140.8181818181818 154.78181400704386 L 146.27272727272728 154.54796965783066 L 151.72727272727275 155.43770882409729 L 157.1818181818182 157.44214152620305 L 162.63636363636363 160.54124013516588 L 168.0909090909091 164.70403948211077 L 173.54545454545456 169.8889462520017 L 179 176.0441545702961 L 184.45454545454547 183.108163630119 L 189.90909090909093 191.01039218799554 L 195.36363636363635 199.6718837883049 L 200.8181818181818 209.00609567008524 L 206.27272727272728 218.9197634736941 L 211.72727272727275 229.3138331074607 L 217.1818181818182 240.08445046342703 L 222.63636363636363 251.12399909326493 L 228.0909090909091 262.3221754762548 L 233.54545454545456 273.56709113560277 L 239.00000000000003 284.74639059111547 L 244.4545454545455 295.74837397801855 L 249.9090909090909 306.46311311508225 L 255.36363636363637 316.78354987067087 L 260.8181818181818 326.6065658522055 L 266.27272727272725 335.8340127310559 L 271.72727272727275 344.3736929081971 L 277.1818181818182 352.14028072214194 L 282.6363636363637 359.05617499474624 L 288.0909090909091 365.0522743965287 L 293.5454545454545 370.06866788431364 L 299 374.0552333125706 L 304.4545454545455 376.9721382373234 L 309.90909090909093 378.79023790876477 L 315.3636363636364 379.49136647596134 L 320.81818181818187 379.0685184940321 L 326.2727272727273 377.5259189202374 L 331.7272727272727 374.8789808996031 L 337.1818181818182 371.15415176186985 L 342.6363636363636 366.3886487685172 L 348.0909090909091 360.63008725018886 L 353.54545454545456 353.93600485004856 L 359 346.37328662666914 L 364.4545454545455 338.0174967606361 L 369.90909090909093 328.95212354223423 L 375.3636363636364 319.2677451840476 L 380.8181818181818 309.0611247934015 L 386.27272727272725 298.4342435473792 L 391.72727272727275 287.4932817306107 L 397.1818181818182 276.34755781696833 L 402.6363636363636 265.10843619551054 L 408.0909090909091 253.8882144543195 L 413.54545454545456 242.79900134012075 L 419.00000000000006 231.9515966047449 L 424.4545454545455 221.45438393063267 L 429.909090909091 211.4122479969065 L 435.3636363636364 201.92552650632746 L 440.8181818181818 193.08900764413625 L 446.2727272727273 184.99098298583885 L 451.72727272727275 177.71236531697025 L 457.1818181818182 171.32588017928646 L 462.6363636363636 165.89533922119193 L 468.09090909090907 161.47500261284188 L 473.54545454545456 158.10903689645772 L 479.00000000000006 155.83107368883748 L 484.45454545454544 154.66387364535694 L 489.90909090909093 154.61909904302564 L 495.3636363636364 155.69719725486954 L 500.8181818181818 157.88739627992777 L 506.27272727272737 161.16781237352558 L 511.7272727272728 165.50566870241698 L 517.1818181818182 170.85762284006847 L 522.6363636363636 177.17019982985732 L 528.090909090909 184.38032648916226 L 533.5454545454546 192.4159616157545 L 539 201.1968157996768 L 544.4545454545455 210.63515364848797 L 549.909090909091 220.63667041030237 L 555.3636363636364 231.10143423569787 L 560.8181818181819 241.9248846637223 L 566.2727272727274 252.9988773554556 L 571.7272727272727 264.21276463649724 L 577.1818181818182 275.45450105195357 L 582.6363636363637 286.6117628875854 L 588.0909090909091 297.57307047123123 L 593.5454545454546 308.22890204084194 L 599 318.47278804972365 L 604.4545454545454 328.2023749750541 " stroke="steelblue" stroke-width="2" fill="none" /></svg>