<svg xmlns="http://www.w3.org/2000/svg" width="673" height="541" fill="black"><rect width="100%" height="100%" fill="white" /><line x1="59" y1="492" x2="659" y2="492" stroke="black" stroke-width="1" /><line x1="59" y1="42" x2="59" y2="492" stroke="black" stroke-width="1" /><line x1="113.54545454545455" y1="42" x2="113.54545454545455" y2="492" stroke="#ccc" stroke-width="1" /><line x1="168.0909090909091" y1="42" x2="168.0909090909091" y2="492" stroke="#ccc" stroke-width="1" /><line x1="222.63636363636363" y1="42" x2="222.63636363636363" y2="492" stroke="#ccc" stroke-width="1" /><line x1="277.1818181818182" y1="42" x2="277.1818181818182" y2="492" stroke="#ccc" stroke-width="1" /><line x1="331.7272727272727" y1="42" x2="331.7272727272727" y2="492" stroke="#ccc" stroke-width="1" /><line x1="386.27272727272725" y1="42" x2="386.27272727272725" y2="492" stroke="#ccc" stroke-width="1" /><line x1="440.8181818181818" y1="42" x2="440.8181818181818" y2="492" stroke="#ccc" stroke-width="1" /><line x1="495.3636363636364" y1="42" x2="495.3636363636364" y2="492" stroke="#ccc" stroke-width="1" /><line x1="549.909090909091" y1="42" x2="549.909090909091" y2="492" stroke="#ccc" stroke-width="1" /><line x1="604.4545454545454" y1="42" x2="604.4545454545454" y2="492" stroke="#ccc" stroke-width="1" /><line x1="659" y1="42" x2="659" y2="492" stroke="#ccc" stroke-width="1" /><line x1="59" y1="407.625" x2="659" y2="407.625" stroke="#ccc" stroke-width="1" /><line x1="59" y1="360.75" x2="659" y2="360.75" stroke="#ccc" stroke-width="1" /><line x1="59" y1="313.875" x2="659" y2="313.875" stroke="#ccc" stroke-width="1" /><line x1="59" y1="267" x2="659" y2="267" stroke="#ccc" stroke-width="1" /><line x1="59" y1="220.125" x2="659" y2="220.125" stroke="#ccc" stroke-width="1" /><line x1="59" y1="173.25000000000006" x2="659" y2="173.25000000000006" stroke="#ccc" stroke-width="1" /><line x1="59" y1="126.375" x2="659" y2="126.375" stroke="#ccc" stroke-width="1" /><line x1="59" y1="79.5" x2="659" y2="79.5" stroke="#ccc" stroke-width="1" /><line x1="59" y1="492" x2="59" y2="497" stroke="black" stroke-width="1" /><text x="59" y="507" font-size="10" text-anchor="middle">0</text><line x1="113.54545454545455" y1="492" x2="113.54545454545455" y2="497" stroke="black" stroke-width="1" /><text x="113.54545454545455" y="507" font-size="10" text-anchor="middle">1</text><line x1="168.0909090909091" y1="492" x2="168.0909090909091" y2="497" stroke="black" stroke-width="1" /><text x="168.0909090909091" y="507" font-size="10" text-anchor="middle">2</text><line x1="222.63636363636363" y1="492" x2="222.63636363636363" y2="497" stroke="black" stroke-width="1" /><text x="222.63636363636363" y="507" font-size="10" text-anchor="middle">3</text><line x1="277.1818181818182" y1="492" x2="277.1818181818182" y2="497" stroke="black" stroke-width="1" /><text x="277.1818181818182" y="507" font-size="10" text-anchor="middle">4</text><line x1="331.7272727272727" y1="492" x2="331.7272727272727" y2="497" stroke="black" stroke-width="1" /><text x="331.7272727272727" y="507" font-size="10" text-anchor="middle">5</text><line x1="386.27272727272725" y1="492" x2="386.27272727272725" y2="497" stroke="black" stroke-width="1" /><text x="386.27272727272725" y="507" font-size="10" text-anchor="middle">6</text><line x1="440.8181818181818" y1="492" x2="440.8181818181818" y2="497" stroke="black" stroke-width="1" /><text x="440.8181818181818" y="507" font-size="10" text-anchor="middle">7</text><line x1="495.3636363636364" y1="492" x2="495.3636363636364" y2="497" stroke="black" stroke-width="1" /><text x="495.3636363636364" y="507" font-size="10" text-anchor="middle">8</text><line x1="549.909090909091" y1="492" x2="549.909090909091" y2="497" stroke="black" stroke-width="1" /><text x="549.909090909091" y="507" font-size="10" text-anchor="middle">9</text><line x1="604.4545454545454" y1="492" x2="604.4545454545454" y2="497" stroke="black" stroke-width="1" /><text x="604.4545454545454" y="507" font-size="10" text-anchor="middle">10</text><line x1="659" y1="492" x2="659" y2="497" stroke="black" stroke-width="1" /><text x="659" y="507" font-size="10" text-anchor="middle">11</text><line x1="54" y1="454.5" x2="59" y2="454.5" stroke="black" stroke-width="1" /><text x="51" y="458" font-size="10" text-anchor="end">-1</text><line x1="54" y1="407.625" x2="59" y2="407.625" stroke="black" stroke-width="1" /><text x="51" y="411.125" font-size="10" text-anchor="end">-0.75</text><line x1="54" y1="360.75" x2="59" y2="360.75" stroke="black" stroke-width="1" /><text x="51" y="364.25" font-size="10" text-anchor="end">-0.5</text><line x1="54" y1="313.875" x2="59" y2="313.875" stroke="black" stroke-width="1" /><text x="51" y="317.375" font-size="10" text-anchor="end">-0.25</text><line x1="54" y1="267" x2="59" y2="267" stroke="black" stroke-width="1" /><text x="51" y="270.5" font-size="10" text-anchor="end">0</text><line x1="54" y1="220.125" x2="59" y2="220.125" stroke="black" stroke-width="1" /><text x="51" y="223.625" font-size="10" text-anchor="end">0.25</text><line x1="54" y1="173.25000000000006" x2="59" y2="173.25000000000006" stroke="black" stroke-width="1" /><text x="51" y="176.75000000000006" font-size="10" text-anchor="end">0.5</text><line x1="54" y1="126.375" x2="59" y2="126.375" stroke="black" stroke-width="1" /><text x="51" y="129.875" font-size="10" text-anchor="end">0.75</text><line x1="54" y1="79.5" x2="59" y2="79.5" stroke="black" stroke-width="1" /><text x="51" y="83" font-size="10" text-anchor="end">1</text><text x="336.5" y="534" font-size="14" text-anchor="middle">X</text><text x="14" y="270.5" font-size="14" text-anchor="middle" transform="rotate(-90,14,270.5)">Y</text><text x="336.5" y="21" font-size="16" text-anchor="middle">Area Plot</text><path d="M 59 267 L 64.45454545454545 248.28123437871972 L 69.9090909090909 229.74950047592603 L 75.36363636363637 211.58996125099884 L 80.81818181818181 193.984060817128 L 86.27272727272728 177.10771151171195 L 91.72727272727273 161.1295362384309 L 97.18181818181819 146.20918364293294 L 102.63636363636364 132.4957329563395 L 108.0909090909091 120.1262044448469 L 113.54545454545455 109.22419034851941 L 119 99.89861998848085 L 124.45454545454547 92.2426713811451 L 129.9090909090909 86.33284023427632 L 135.36363636363637 82.2281756271637 L 140.8181818181818 79.96969001173977 L 146.27272727272728 79.57994942971783 L 151.72727272727275 81.06284804016212 L 157.1818181818182 84.40356921033845 L 162.63636363636363 89.56873355860978 L 168.0909090909091 96.50673247018466 L 173.54545454545456 105.1482437533362 L 179 115.40692428382687 L 184.45454545454547 127.18027271686503 L 189.90909090909093 140.35065364665928 L 195.36363636363635 154.78647298050817 L 200.8181818181818 170.34349278347543 L 206.27272727272728 186.86627245615693 L 211.72727272727275 204.1897218457679 L 217.1818181818182 222.1407507723784 L 222.63636363636363 240.53999848877493 L 228.0909090909091 259.2036257937581 L 233.54545454545456 277.9451518926713 L 239.00000000000003 296.5773176518591 L 244.4545454545455 314.91395663003095 L 249.9090909090909 332.77185519180375 L 255.36363636363637 349.9725831177848 L 260.8181818181818 366.3442764203425 L 266.27272727272725 381.7233545517598 L 271.72727272727275 395.9561548469951 L 277.1818181818182 408.9004678702365 L 282.6363636363637 420.426958324577 L 288.0909090909091 430.42045732754775 L 293.5454545454545 438.7811131405228 L 299 445.4253888542842 L 304.4545454545455 450.28689706220564 L 309.90909090909093 453.3170631812746 L 315.3636363636364 454.48561079326885 L 320.81818181818187 453.7808641567201 L 326.2727272727273 451.2098648670623 L 331.7272727272727 446.79830149933844 L 337.1818181818182 440.59025293644976 L 342.6363636363636 432.64774794752867 L 348.0909090909091 423.05014541698137 L 353.54545454545456 411.8933414167476 L 359 399.2888110444485 L 364.4545454545455 385.3624946010601 L 369.90909090909093 370.253539237057 L 375.3636363636364 354.11290864007935 L 380.8181818181818 337.10187465566923 L 386.27272727272725 319.3904059122986 L 391.72727272727275 301.15546955101786 L 397.1818181818182 282.5792630282806 L 402.6363636363636 263.84739365918426 L 408.0909090909091 245.14702409053245 L 413.54545454545456 226.66500223353455 L 419.00000000000006 208.58599434124153 L 424.4545454545455 191.09063988438783 L 429.909090909091 174.35374666151085 L 435.3636363636364 158.5425441772125 L 440.8181818181818 143.81501274022708 L 446.2727272727273 130.3183049763981 L 451.72727272727275 118.1872755282838 L 457.1818181818182 107.54313363214413 L 462.6363636363636 98.49223203531994 L 468.09090909090907 91.12500435473652 L 473.54545454545456 85.51506149409624 L 479.00000000000006 81.7184561480625 L 484.45454545454544 79.77312274226153 L 489.90909090909093 79.69849840504281 L 495.3636363636364 81.49532875811593 L 500.8181818181818 85.14566046654636 L 506.27272727272737 90.61302062254265 L 511.7272727272728 97.84278117069499 L 517.1818181818182 106.76270473344744 L 522.6363636363636 117.28366638309558 L 528.090909090909 129.30054414860382 L 533.5454545454546 142.6932693595909 L 539 157.32802633279476 L 544.4545454545455 173.05858941414664 L 549.909090909091 189.72778401717068 L 555.3636363636364 207.16905705949648 L 560.8181818181819 225.20814110620393 L 566.2727272727274 243.66479559242595 L 571.7272727272727 262.3546077274954 L 577.1818181818182 281.09083508658927 L 582.6363636363637 299.68627147930897 L 588.0909090909091 317.95511745205204 L 593.5454545454546 335.71483673473654 L 599 352.78798008287276 L 604.4545454545454 369.0039582917568 L 604.4545454545454 267 L 59 267 Z" stroke="none" stroke-width="0" fill="steelblue" fill-opacity="0.3" /><path d="M 59 267 L 64.45454545454545 248.28123437871972 L 69.9090909090909 229.74950047592603 L 75.36363636363637 211.58996125099884 L 80.81818181818181 193.984060817128 L 86.27272727272728 177.10771151171195 L 91.72727272727273 161.1295362384309 L 97.18181818181819 146.20918364293294 L 102.63636363636364 132.4957329563395 L 108.0909090909091 120.1262044448469 L 113.54545454545455 109.22419034851941 L 119 99.89861998848085 L 124.45454545454547 92.2426713811451 L 129.9090909090909 86.33284023427632 L 135.36363636363637 82.2281756271637 L 140.8181818181818 79.96969001173977 L 146.27272727272728 79.57994942971783 L 151.72727272727275 81.06284804016212 L 157.1818181818182 84.40356921033845 L 162.63636363636363 89.56873355860978 L 168.0909090909091 96.50673247018466 L 173.54545454545456 105.1482437533362 L 179 115.40692428382687 L 184.45454545454547 127.18027271686503 L 189.90909090909093 140.35065364665928 L 195.36363636363635 154.78647298050817 L 200.8181818181818 170.34349278347543 L 206.27272727272728 186.86627245615693 L 211.72727272727275 204.1897218457679 L 217.1818181818182 222.1407507723784 L 222.63636363636363 240.53999848877493 L 228.0909090909091 259.2036257937581 L 233.54545454545456 277.9451518926713 L 239.00000000000003 296.5773176518591 L 244.4545454545455 314.91395663003095 L 249.9090909090909 332.77185519180375 L 255.36363636363637 349.9725831177848 L 260.8181818181818 366.3442764203425 L 266.27272727272725 381.7233545517598 L 271.72727272727275 395.9561548469951 L 277.1818181818182 408.9004678702365 L 282.6363636363637 420.426958324577 L 288.0909090909091 430.42045732754775 L 293.5454545454545 438.7811131405228 L 299 445.4253888542842 L 304.4545454545455 450.28689706220564 L 309.90909090909093 453.3170631812746 L 315.3636363636364 454.48561079326885 L 320.81818181818187 453.7808641567201 L 326.2727272727273 451.2098648670623 L 331.7272727272727 446.79830149933844 L 337.1818181818182 440.59025293644976 L 342.6363636363636 432.64774794752867 L 348.0909090909091 423.05014541698137 L 353.54545454545456 411.8933414167476 L 359 399.2888110444485 L 364.4545454545455 385.3624946010601 L 369.90909090909093 370.253539237057 L 375.3636363636364 354.11290864007935 L 380.8181818181818 337.10187465566923 L 386.27272727272725 319.3904059122986 L 391.72727272727275 301.15546955101786 L 397.1818181818182 282.5792630282806 L 402.6363636363636 263.84739365918426 L 408.0909090909091 245.14702409053245 L 413.54545454545456 226.66500223353455 L 419.00000000000006 208.58599434124153 L 424.4545454545455 191.09063988438783 L 429.909090909091 174.35374666151085 L 435.3636363636364 158.5425441772125 L 440.8181818181818 143.81501274022708 L 446.2727272727273 130.3183049763981 L 451.72727272727275 118.1872755282838 L 457.1818181818182 107.54313363214413 L 462.6363636363636 98.49223203531994 L 468.09090909090907 91.12500435473652 L 473.54545454545456 85.51506149409624 L 479.00000000000006 81.7184561480625 L 484.45454545454544 79.77312274226153 L 489.90909090909093 79.69849840504281 L 495.3636363636364 81.49532875811593 L 500.8181818181818 85.14566046654636 L 506.27272727272737 90.61302062254265 L 511.7272727272728 97.84278117069499 L 517.1818181818182 106.76270473344744 L 522.6363636363636 117.28366638309558 L 528.090909090909 129.30054414860382 L 533.5454545454546 142.6932693595909 L 539 157.32802633279476 L 544.4545454545455 173.05858941414664 L 549.909090909091 189.72778401717068 L 555.3636363636364 207.16905705949648 L 560.8181818181819 225.20814110620393 L 566.2727272727274 243.66479559242595 L 571.7272727272727 262.3546077274954 L 577.1818181818182 281.09083508658927 L 582.6363636363637 299.68627147930897 L 588.0909090909091 317.95511745205204 L 593.5454545454546 335.71483673473654 L 599 352.78798008287276 L 604.4545454545454 369.0039582917568 " stroke="steelblue" stroke-width="2" fill="none" /></svg>