<svg xmlns="http://www.w3.org/2000/svg" width="764" height="541" fill="black"><rect width="100%" height="100%" fill="white" /><line x1="59" y1="492" x2="659" y2="492" stroke="black" stroke-width="1" /><line x1="59" y1="42" x2="59" y2="492" stroke="black" stroke-width="1" /><line x1="113.54545454545455" y1="42" x2="113.54545454545455" y2="492" stroke="#ccc" stroke-width="1" /><line x1="168.0909090909091" y1="42" x2="168.0909090909091" y2="492" stroke="#ccc" stroke-width="1" /><line x1="222.63636363636363" y1="42" x2="222.63636363636363" y2="492" stroke="#ccc" stroke-width="1" /><line x1="277.1818181818182" y1="42" x2="277.1818181818182" y2="492" stroke="#ccc" stroke-width="1" /><line x1="331.7272727272727" y1="42" x2="331.7272727272727" y2="492" stroke="#ccc" stroke-width="1" /><line x1="386.27272727272725" y1="42" x2="386.27272727272725" y2="492" stroke="#ccc" stroke-width="1" /><line x1="440.8181818181818" y1="42" x2="440.8181818181818" y2="492" stroke="#ccc" stroke-width="1" /><line x1="495.3636363636364" y1="42" x2="495.3636363636364" y2="492" stroke="#ccc" stroke-width="1" /><line x1="549.909090909091" y1="42" x2="549.909090909091" y2="492" stroke="#ccc" stroke-width="1" /><line x1="604.4545454545454" y1="42" x2="604.4545454545454" y2="492" stroke="#ccc" stroke-width="1" /><line x1="659" y1="42" x2="659" y2="492" stroke="#ccc" stroke-width="1" /><line x1="59" y1="407.625" x2="659" y2="407.625" stroke="#ccc" stroke-width="1" /><line x1="59" y1="360.75" x2="659" y2="360.75" stroke="#ccc" stroke-width="1" /><line x1="59" y1="313.875" x2="659" y2="313.875" stroke="#ccc" stroke-width="1" /><line x1="59" y1="267" x2="659" y2="267" stroke="#ccc" stroke-width="1" /><line x1="59" y1="220.125" x2="659" y2="220.125" stroke="#ccc" stroke-width="1" /><line x1="59" y1="173.25000000000006" x2="659" y2="173.25000000000006" stroke="#ccc" stroke-width="1" /><line x1="59" y1="126.375" x2="659" y2="126.375" stroke="#ccc" stroke-width="1" /><line x1="59" y1="79.5" x2="659" y2="79.5" stroke="#ccc" stroke-width="1" /><line x1="59" y1="492" x2="59" y2="497" stroke="black" stroke-width="1" /><text x="59" y="507" font-size="10" text-anchor="middle">0</text><line x1="113.54545454545455" y1="492" x2="113.54545454545455" y2="497" stroke="black" stroke-width="1" /><text x="113.54545454545455" y="507" font-size="10" text-anchor="middle">1</text><line x1="168.0909090909091" y1="492" x2="168.0909090909091" y2="497" stroke="black" stroke-width="1" /><text x="168.0909090909091" y="507" font-size="10" text-anchor="middle">2</text><line x1="222.63636363636363" y1="492" x2="222.63636363636363" y2="497" stroke="black" stroke-width="1" /><text x="222.63636363636363" y="507" font-size="10" text-anchor="middle">3</text><line x1="277.1818181818182" y1="492" x2="277.1818181818182" y2="497" stroke="black" stroke-width="1" /><text x="277.1818181818182" y="507" font-size="10" text-anchor="middle">4</text><line x1="331.7272727272727" y1="492" x2="331.7272727272727" y2="497" stroke="black" stroke-width="1" /><text x="331.7272727272727" y="507" font-size="10" text-anchor="middle">5</text><line x1="386.27272727272725" y1="492" x2="386.27272727272725" y2="497" stroke="black" stroke-width="1" /><text x="386.27272727272725" y="507" font-size="10" text-anchor="middle">6</text><line x1="440.8181818181818" y1="492" x2="440.8181818181818" y2="497" stroke="black" stroke-width="1" /><text x="440.8181818181818" y="507" font-size="10" text-anchor="middle">7</text><line x1="495.3636363636364" y1="492" x2="495.3636363636364" y2="497" stroke="black" stroke-width="1" /><text x="495.3636363636364" y="507" font-size="10" text-anchor="middle">8</text><line x1="549.909090909091" y1="492" x2="549.909090909091" y2="497" stroke="black" stroke-width="1" /><text x="549.909090909091" y="507" font-size="10" text-anchor="middle">9</text><line x1="604.4545454545454" y1="492" x2="604.4545454545454" y2="497" stroke="black" stroke-width="1" /><text x="604.4545454545454" y="507" font-size="10" text-anchor="middle">10</text><line x1="659" y1="492" x2="659" y2="497" stroke="black" stroke-width="1" /><text x="659" y="507" font-size="10" text-anchor="middle">11</text><line x1="54" y1="454.5" x2="59" y2="454.5" stroke="black" stroke-width="1" /><text x="51" y="458" font-size="10" text-anchor="end">-1</text><line x1="54" y1="407.625" x2="59" y2="407.625" stroke="black" stroke-width="1" /><text x="51" y="411.125" font-size="10" text-anchor="end">-0.75</text><line x1="54" y1="360.75" x2="59" y2="360.75" stroke="black" stroke-width="1" /><text x="51" y="364.25" font-size="10" text-anchor="end">-0.5</text><line x1="54" y1="313.875" x2="59" y2="313.875" stroke="black" stroke-width="1" /><text x="51" y="317.375" font-size="10" text-anchor="end">-0.25</text><line x1="54" y1="267" x2="59" y2="267" stroke="black" stroke-width="1" /><text x="51" y="270.5" font-size="10" text-anchor="end">0</text><line x1="54" y1="220.125" x2="59" y2="220.125" stroke="black" stroke-width="1" /><text x="51" y="223.625" font-size="10" text-anchor="end">0.25</text><line x1="54" y1="173.25000000000006" x2="59" y2="173.25000000000006" stroke="black" stroke-width="1" /><text x="51" y="176.75000000000006" font-size="10" text-anchor="end">0.5</text><line x1="54" y1="126.375" x2="59" y2="126.375" stroke="black" stroke-width="1" /><text x="51" y="129.875" font-size="10" text-anchor="end">0.75</text><line x1="54" y1="79.5" x2="59" y2="79.5" stroke="black" stroke-width="1" /><text x="51" y="83" font-size="10" text-anchor="end">1</text><text x="382" y="534" font-size="14" text-anchor="middle">X</text><text x="14" y="270.5" font-size="14" text-anchor="middle" transform="rotate(-90,14,270.5)">Y</text><text x="382" y="21" font-size="16" text-anchor="middle">Line Styles</text><path d="M 59 267 L 65.81818181818181 243.62348749026984 L 72.63636363636364 220.61175763977695 L 79.45454545454545 198.32390079636605 L 86.27272727272728 177.10771151171195 L 93.0909090909091 157.2942613236633 L 99.9090909090909 139.1927324956249 L 106.72727272727272 123.08559333074498 L 113.54545454545455 109.22419034851941 L 120.36363636363637 97.82482610641961 L 127.18181818181817 89.06538387082759 L 134 83.08255180815837 L 140.8181818181818 79.96969001173977 L 147.63636363636363 79.77537364878157 L 154.45454545454544 82.50263496113683 L 161.27272727272725 88.10891594818241 L 168.0909090909091 96.50673247018466 L 174.9090909090909 107.5650394090402 L 181.72727272727275 121.11127558351478 L 188.54545454545456 136.93405650876156 L 195.36363636363635 154.78647298050817 L 202.1818181818182 174.3899440106083 L 209 195.4385639901878 L 215.8181818181818 217.60387624435862 L 222.63636363636363 240.53999848877493 L 229.45454545454547 263.8890202069973 L 236.27272727272728 287.2865877243953 L 243.0909090909091 310.3675898253791 L 249.9090909090909 332.77185519180375 L 256.72727272727275 354.1497727559266 L 263.5454545454545 374.1677472641894 L 270.3636363636364 392.51340491957546 L 277.1818181818182 408.9004678702365 L 284 423.0732214796226 L 290.8181818181818 434.8105046678594 L 297.6363636363636 443.9291610564304 L 304.4545454545455 450.28689706220564 L 311.27272727272725 453.7845023412148 L 318.0909090909091 454.36739793288336 L 324.9090909090909 452.0264879464577 L 331.7272727272727 446.79830149933844 L 338.5454545454545 438.7644226924207 L 345.3636363636364 428.050217517486 L 352.1818181818182 414.82287756283057 L 359 399.2888110444485 L 365.8181818181818 381.69042187485593 L 372.6363636363636 362.30232703111096 L 379.45454545454544 341.4270712487338 L 386.27272727272725 319.3904059122986 L 393.09090909090907 296.5362058140268 L 399.90909090909093 273.2211031026669 L 406.72727272727275 249.80892215809166 L 413.54545454545456 226.66500223353455 L 420.3636363636364 204.15049645873398 L 427.1818181818182 182.61673616613422 L 434 162.39974848294872 L 440.8181818181818 143.81501274022708 L 447.6363636363636 127.15253752340863 L 454.45454545454544 112.67233518534272 L 461.27272727272725 100.60036444048592 L 468.09090909090907 91.12500435473652 L 474.90909090909093 84.3941147531163 L 481.72727272727275 80.51272891665451 L 488.54545454545456 79.54141457316581 L 495.3636363636364 81.49532875811593 L 502.1818181818182 86.34398129415223 L 509 94.01171058012369 L 515.8181818181818 104.37886426506117 L 522.6363636363636 117.28366638309558 L 529.4545454545455 132.52474181329774 L 536.2727272727273 149.86425867108898 L 543.090909090909 169.03163959525494 L 549.909090909091 189.72778401717068 L 556.7272727272727 211.6297355251367 L 563.5454545454545 234.39572149116867 L 570.3636363636364 257.6704863185478 L 577.1818181818182 281.09083508658927 L 584 304.2913010859063 L 590.8181818181818 326.9098488041763 L 597.6363636363636 348.5935233692247 L 604.4545454545454 369.0039582917568 " stroke="steelblue" stroke-width="2" fill="none" /><path d="M 59 79.5 L 65.81818181818181 80.96293739450084 L 72.63636363636364 85.3289209292542 L 79.45454545454545 92.52982089144115 L 86.27272727272728 102.45326964555517 L 93.0909090909091 114.94441509277164 L 99.9090909090909 129.8083370861586 L 106.72727272727272 146.81308909437655 L 113.54545454545455 165.69331764972384 L 120.36363636363637 186.15440310025008 L 127.18181818181817 207.87705705088717 L 134 230.52230475206494 L 140.8181818181818 253.73677468730574 L 147.63636363636363 277.1582128175505 L 154.45454545454544 300.42113543427973 L 161.27272727272725 323.1625324105451 L 168.0909090909091 345.02753185258916 L 174.9090909090909 365.6749377570572 L 181.72727272727275 384.78255426051356 L 188.54545454545456 402.0522133981297 L 195.36363636363635 417.21442791505007 L 202.1818181818182 430.032596524872 L 209 440.3066959935869 L 215.8181818181818 447.8764024352468 L 222.63636363636363 452.6235931125835 L 229.45454545454547 454.4741897028162 L 236.27272727272728 453.39931426510236 L 243.0909090909091 449.4157398711462 L 249.9090909090909 442.5856288670243 L 256.72727272727275 433.0155628505663 L 263.5454545454545 420.8548795011676 L 270.3636363636364 406.2933422152497 L 277.1818181818182 389.5581789119272 L 284 370.9105362173281 L 290.8181818181818 350.6414043588361 L 297.6363636363636 329.06707635991637 L 304.4545454545455 306.52421239327117 L 311.27272727272725 283.3645863114441 L 318.0909090909091 259.94959633350436 L 324.9090909090909 236.64462554671186 L 331.7272727272727 213.8133402256451 L 338.5454545454545 191.81201494161826 L 345.3636363636364 170.98397301715494 L 352.1818181818182 151.65422908036732 L 359 134.12441732038877 L 365.8181818181818 118.66808458673648 L 372.6363636363636 105.52642178221487 L 379.45454545454544 94.90450015954548 L 386.27272727272725 86.96807125305645 L 393.09090909090907 81.8409803814261 L 399.90909090909093 79.6032340829064 L 406.72727272727275 80.28975164005209 L 413.54545454545456 83.88982017599562 L 420.3636363636364 90.34726182530767 L 427.1818181818182 99.56131037079814 L 434 111.38818366663281 L 440.8181818181818 125.64332731063041 L 447.6363636363636 142.10429455398253 L 454.45454545454544 160.51421750836977 L 461.27272727272725 180.58581548344688 L 468.09090909090907 202.00587790593266 L 474.90909090909093 224.4401518658495 L 481.72727272727275 247.53855802139003 L 488.54545454545456 270.94065346995905 L 495.3636363636364 294.28125633911503 L 502.1818181818182 317.19614432755145 L 509 339.3277382722916 L 515.8181818181818 360.3306820519308 L 522.6363636363636 379.87723175340443 L 529.4545454545455 397.66237000613353 L 536.2727272727273 413.40856567607796 L 543.090909090909 426.8701046462595 L 549.909090909091 437.8369241033769 L 556.7272727272727 446.1378904977495 L 563.5454545454545 451.6434700251232 L 570.3636363636364 454.267749958362 L 577.1818181818182 453.96977928682094 L 584 450.7542077431705 L 590.8181818181818 444.67121324587373 L 597.6363636363636 435.81571888955057 L 604.4545454545454 424.3259117018348 " stroke="crimson" stroke-width="2" fill="none" stroke-dasharray="8 4" /><path d="M 59 267 L 65.81818181818181 250.6146770458524 L 72.63636363636364 234.35472420120078 L 79.45454545454545 218.34455232289775 L 86.27272727272728 202.70666110210288 L 93.0909090909091 187.5607017742616 L 99.9090909090909 173.02256162366297 L 106.72727272727272 159.20347728736596 L 113.54545454545455 146.20918364293294 L 120.36363636363637 134.13910479213996 L 127.18181818181817 123.08559333074498 L 134 113.13322372493991 L 140.8181818181818 104.35814520112189 L 147.63636363636363 96.8274991002607 L 154.45454545454544 90.59890515489906 L 161.27272727272725 85.72002061946625 L 168.0909090909091 82.22817562716381 L 174.9090909090909 80.15008756343775 L 181.72727272727275 79.50165664147448 L 188.54545454545456 80.2878442438423 L 195.36363636363635 82.50263496113683 L 202.1818181818182 86.12908261808207 L 209 91.13943993492603 L 215.8181818181818 97.4953708320453 L 222.63636363636363 105.1482437533362 L 229.45454545454547 114.03950376406925 L 236.27272727272728 124.10112057614958 L 243.0909090909091 135.25610907277655 L 249.9090909090909 147.4191183497805 L 256.72727272727275 160.49708476666297 L 263.5454545454545 174.3899440106083 L 270.3636363636364 188.99139672520454 L 277.1818181818182 204.1897218457678 L 284 219.86863141814223 L 290.8181818181818 235.90816036044527 L 297.6363636363636 252.18558435986446 L 304.4545454545455 268.57635888134035 L 311.27272727272725 284.9550721034381 L 318.0909090909091 301.1964044901434 L 324.9090909090909 317.1760876565498 L 331.7272727272727 332.77185519180375 L 338.5454545454545 347.86437816421164 L 345.3636363636364 362.3381781506192 L 352.1818181818182 376.08251080413777 L 359 388.9922131997188 L 365.8181818181818 400.96850847422553 L 372.6363636363636 411.9197616044044 L 379.45454545454544 421.76218054002305 L 386.27272727272725 430.4204573275477 L 393.09090909090907 437.8283443188891 L 399.90909090909093 443.9291610564304 L 406.72727272727275 448.67622795597674 L 413.54545454545456 452.0332234693568 L 420.3636363636364 453.97446199389634 L 427.1818181818182 454.4850904023753 L 434 453.5612016897464 L 440.8181818181818 451.2098648670623 L 447.6363636363636 447.449070873882 L 454.45454545454544 442.30759492300035 L 461.27272727272725 435.82477633075143 L 468.09090909090907 428.050217517486 L 474.90909090909093 419.04340448127874 L 481.72727272727275 408.8732516487611 L 488.54545454545456 397.6175745855935 L 495.3636363636364 385.3624946010603 L 502.1818181818182 372.2017798023781 L 509 358.2361276405509 L 515.8181818181818 343.5723944372761 L 522.6363636363636 328.3227777880765 L 529.4545454545455 312.60395809738645 L 536.2727272727273 296.5362058140268 L 543.090909090909 280.24246119793384 L 549.909090909091 263.84739365918443 L 556.7272727272727 247.47644786666208 L 563.5454545454545 231.25488392493105 L 570.3636363636364 215.30681896328218 L 577.1818181818182 199.75427747010008 L 584 184.71625763879166 L 590.8181818181818 170.30782086900928 L 597.6363636363636 156.63921138972188 L 604.4545454545454 143.81501274022708 " stroke="seagreen" stroke-width="2" fill="none" stroke-dasharray="2 4" /><path d="M 59 79.5 L 65.81818181818181 80.21731559995106 L 72.63636363636364 82.36377395532503 L 79.45454545454545 85.9229517267836 L 86.27272727272728 90.8676163411165 L 93.0909090909091 97.15993435763698 L 99.9090909090909 104.75176094569849 L 106.72727272727272 113.5850082584347 L 113.54545454545455 123.59208988415844 L 120.36363636363637 134.69643797476192 L 127.18181818181817 146.81308909437655 L 134 159.84933430575148 L 140.8181818181818 173.70542852030115 L 147.63636363636363 188.2753536843244 L 154.45454545454544 203.447629961978 L 161.27272727272725 219.1061687083478 L 168.0909090909091 235.13116070620487 L 174.9090909090909 251.3999928702247 L 181.72727272727275 267.7881864046291 L 188.54545454545456 284.1703492360605 L 195.36363636363635 300.42113543427973 L 202.1818181818182 316.4162042798048 L 209 332.03317164031364 L 215.8181818181818 347.1525463764822 L 222.63636363636363 361.65864461247315 L 229.45454545454547 375.44047487565626 L 236.27272727272728 388.3925873330322 L 243.0909090909091 400.4158806265425 L 249.9090909090909 411.41836013387007 L 256.72727272727275 421.31584185300164 L 263.5454545454545 430.032596524872 L 270.3636363636364 437.50192906567236 L 277.1818181818182 443.6666888753734 L 284 448.47970711790634 L 290.8181818181818 451.9041576272102 L 297.6363636363636 453.9138386777215 L 304.4545454545455 454.4933734633766 L 311.27272727272725 453.6383277511892 L 318.0909090909091 451.3552438091916 L 324.9090909090909 447.66159034914483 L 331.7272727272727 442.5856288670243 L 338.5454545454545 436.1661974039594 L 345.3636363636364 428.4524133821504 L 352.1818181818182 419.5032977894746 L 359 409.38732358828275 L 365.8181818181818 398.18189180367597 L 372.6363636363636 385.97273929990257 L 379.45454545454544 372.853282776196 L 386.27272727272725 358.9239040013813 L 393.09090909090907 344.29118175618146 L 399.90909090909093 329.06707635991637 L 406.72727272727275 313.3680730210774 L 413.54545454545456 297.31429056631623 L 420.3636363636364 281.02856236729207 L 427.1818181818182 264.6354964975377 L 434 248.26052231043354 L 440.8181818181818 232.0289307332672 L 447.6363636363636 216.06491562044204 L 454.45454545454544 200.4906235007934 L 461.27272727272725 185.42521898974076 L 468.09090909090907 170.98397301715494 L 474.90909090909093 157.27738084723705 L 481.72727272727275 144.4103166387672 L 488.54545454545456 132.4812310144904 L 495.3636363636364 121.5813977793282 L 502.1818181818182 111.79421555105648 L 509 103.19456964692193 L 515.8181818181818 95.84825910864299 L 522.6363636363636 89.81149324983238 L 529.4545454545455 85.13046157794372 L 536.2727272727273 81.8409803814261 L 543.090909090909 79.96821868617837 L 549.909090909091 79.52650567810974 L 556.7272727272727 80.51922106528832 L 563.5454545454545 82.93876921855639 L 570.3636363636364 86.76663728847228 L 577.1818181818182 91.97353685390402 L 584 98.51962801847128 L 590.8181818181818 106.35482424018954 L 597.6363636363636 115.41917556195477 L 604.4545454545454 125.64332731063041 " stroke="darkorange" stroke-width="2" fill="none" stroke-dasharray="8 4 2 4" /><rect x="664" y="32" width="91" height="92" fill="white" /><rect x="664" y="32" width="91" height="92" fill="none" stroke="black" stroke-width="1" /><text x="694" y="47" font-size="12" text-anchor="start">Solid</text><line x1="674" y1="44" x2="686" y2="44" stroke="steelblue" stroke-width="2" /><text x="694" y="65" font-size="12" text-anchor="start">Dashed</text><line x1="674" y1="62" x2="686" y2="62" stroke="crimson" stroke-width="2" stroke-dasharray="8 4" /><text x="694" y="83" font-size="12" text-anchor="start">Dotted</text><line x1="674" y1="80" x2="686" y2="80" stroke="seagreen" stroke-width="2" stroke-dasharray="2 4" /><text x="694" y="101" font-size="12" text-anchor="start">Dash-dot</text><line x1="674" y1="98" x2="686" y2="98" stroke="darkorange" stroke-width="2" stroke-dasharray="8 4 2 4" /></svg>