<svg xmlns="http://www.w3.org/2000/svg" width="764" height="541" fill="black"><rect width="100%" height="100%" fill="white" /><line x1="59" y1="492" x2="659" y2="492" stroke="black" stroke-width="1" /><line x1="59" y1="42" x2="59" y2="492" stroke="black" stroke-width="1" /><line x1="113.54545454545455" y1="42" x2="113.54545454545455" y2="492" stroke="#ccc" stroke-width="1" /><line x1="168.0909090909091" y1="42" x2="168.0909090909091" y2="492" stroke="#ccc" stroke-width="1" /><line x1="222.63636363636363" y1="42" x2="222.63636363636363" y2="492" stroke="#ccc" stroke-width="1" /><line x1="277.1818181818182" y1="42" x2="277.1818181818182" y2="492" stroke="#ccc" stroke-width="1" /><line x1="331.7272727272727" y1="42" x2="331.7272727272727" y2="492" stroke="#ccc" stroke-width="1" /><line x1="386.27272727272725" y1="42" x2="386.27272727272725" y2="492" stroke="#ccc" stroke-width="1" /><line x1="440.8181818181818" y1="42" x2="440.8181818181818" y2="492" stroke="#ccc" stroke-width="1" /><line x1="495.3636363636364" y1="42" x2="495.3636363636364" y2="492" stroke="#ccc" stroke-width="1" /><line x1="549.909090909091" y1="42" x2="549.909090909091" y2="492" stroke="#ccc" stroke-width="1" /><line x1="604.4545454545454" y1="42" x2="604.4545454545454" y2="492" stroke="#ccc" stroke-width="1" /><line x1="659" y1="42" x2="659" y2="492" stroke="#ccc" stroke-width="1" /><line x1="59" y1="435.75" x2="659" y2="435.75" stroke="#ccc" stroke-width="1" /><line x1="59" y1="379.5" x2="659" y2="379.5" stroke="#ccc" stroke-width="1" /><line x1="59" y1="323.25" x2="659" y2="323.25" stroke="#ccc" stroke-width="1" /><line x1="59" y1="267" x2="659" y2="267" stroke="#ccc" stroke-width="1" /><line x1="59" y1="210.75" x2="659" y2="210.75" stroke="#ccc" stroke-width="1" /><line x1="59" y1="154.5" x2="659" y2="154.5" stroke="#ccc" stroke-width="1" /><line x1="59" y1="98.25" x2="659" y2="98.25" stroke="#ccc" stroke-width="1" /><line x1="59" y1="42" x2="659" y2="42" stroke="#ccc" stroke-width="1" /><line x1="59" y1="492" x2="59" y2="497" stroke="black" stroke-width="1" /><text x="59" y="507" font-size="10" text-anchor="middle">0</text><line x1="113.54545454545455" y1="492" x2="113.54545454545455" y2="497" stroke="black" stroke-width="1" /><text x="113.54545454545455" y="507" font-size="10" text-anchor="middle">1</text><line x1="168.0909090909091" y1="492" x2="168.0909090909091" y2="497" stroke="black" stroke-width="1" /><text x="168.0909090909091" y="507" font-size="10" text-anchor="middle">2</text><line x1="222.63636363636363" y1="492" x2="222.63636363636363" y2="497" stroke="black" stroke-width="1" /><text x="222.63636363636363" y="507" font-size="10" text-anchor="middle">3</text><line x1="277.1818181818182" y1="492" x2="277.1818181818182" y2="497" stroke="black" stroke-width="1" /><text x="277.1818181818182" y="507" font-size="10" text-anchor="middle">4</text><line x1="331.7272727272727" y1="492" x2="331.7272727272727" y2="497" stroke="black" stroke-width="1" /><text x="331.7272727272727" y="507" font-size="10" text-anchor="middle">5</text><line x1="386.27272727272725" y1="492" x2="386.27272727272725" y2="497" stroke="black" stroke-width="1" /><text x="386.27272727272725" y="507" font-size="10" text-anchor="middle">6</text><line x1="440.8181818181818" y1="492" x2="440.8181818181818" y2="497" stroke="black" stroke-width="1" /><text x="440.8181818181818" y="507" font-size="10" text-anchor="middle">7</text><line x1="495.3636363636364" y1="492" x2="495.3636363636364" y2="497" stroke="black" stroke-width="1" /><text x="495.3636363636364" y="507" font-size="10" text-anchor="middle">8</text><line x1="549.909090909091" y1="492" x2="549.909090909091" y2="497" stroke="black" stroke-width="1" /><text x="549.909090909091" y="507" font-size="10" text-anchor="middle">9</text><line x1="604.4545454545454" y1="492" x2="604.4545454545454" y2="497" stroke="black" stroke-width="1" /><text x="604.4545454545454" y="507" font-size="10" text-anchor="middle">10</text><line x1="659" y1="492" x2="659" y2="497" stroke="black" stroke-width="1" /><text x="659" y="507" font-size="10" text-anchor="middle">11</text><line x1="54" y1="492" x2="59" y2="492" stroke="black" stroke-width="1" /><text x="51" y="495.5" font-size="10" text-anchor="end">-2</text><line x1="54" y1="435.75" x2="59" y2="435.75" stroke="black" stroke-width="1" /><text x="51" y="439.25" font-size="10" text-anchor="end">-1.5</text><line x1="54" y1="379.5" x2="59" y2="379.5" stroke="black" stroke-width="1" /><text x="51" y="383" font-size="10" text-anchor="end">-1</text><line x1="54" y1="323.25" x2="59" y2="323.25" stroke="black" stroke-width="1" /><text x="51" y="326.75" font-size="10" text-anchor="end">-0.5</text><line x1="54" y1="267" x2="59" y2="267" stroke="black" stroke-width="1" /><text x="51" y="270.5" font-size="10" text-anchor="end">0</text><line x1="54" y1="210.75" x2="59" y2="210.75" stroke="black" stroke-width="1" /><text x="51" y="214.25" font-size="10" text-anchor="end">0.5</text><line x1="54" y1="154.5" x2="59" y2="154.5" stroke="black" stroke-width="1" /><text x="51" y="158" font-size="10" text-anchor="end">1</text><line x1="54" y1="98.25" x2="59" y2="98.25" stroke="black" stroke-width="1" /><text x="51" y="101.75" font-size="10" text-anchor="end">1.5</text><line x1="54" y1="42" x2="59" y2="42" stroke="black" stroke-width="1" /><text x="51" y="45.5" font-size="10" text-anchor="end">2</text><text x="382" y="534" font-size="14" text-anchor="middle">X</text><text x="14" y="270.5" font-size="14" text-anchor="middle" transform="rotate(-90,14,270.5)">Y</text><text x="382" y="21" font-size="16" text-anchor="middle">Line Styles</text><path d="M 59 267 L 65.81818181818181 252.97409249416188 L 72.63636363636364 239.1670545838662 L 79.45454545454545 225.79434047781967 L 86.27272727272728 213.06462690702716 L 93.0909090909091 201.17655679419795 L 99.9090909090909 190.31563949737495 L 106.72727272727272 180.651355998447 L 113.54545454545455 172.3345142091116 L 120.36363636363637 165.49489566385176 L 127.18181818181817 160.23923032249655 L 134 156.649531084895 L 140.8181818181818 154.78181400704386 L 147.63636363636363 154.66522418926894 L 154.45454545454544 156.3015809766821 L 161.27272727272725 159.66534956890945 L 168.0909090909091 164.70403948211077 L 174.9090909090909 171.3390236454241 L 181.72727272727275 179.46676535010886 L 188.54545454545456 188.96043390525693 L 195.36363636363635 199.6718837883049 L 202.1818181818182 211.43396640636496 L 209 224.06313839411268 L 215.8181818181818 237.36232574661517 L 222.63636363636363 251.12399909326493 L 229.45454545454547 265.13341212419834 L 236.27272727272728 279.1719526346372 L 243.0909090909091 293.02055389522747 L 249.9090909090909 306.46311311508225 L 256.72727272727275 319.28986365355604 L 263.5454545454545 331.3006483585136 L 270.3636363636364 342.3080429517453 L 277.1818181818182 352.14028072214194 L 284 360.64393288777353 L 290.8181818181818 367.6863028007156 L 297.6363636363636 373.1574966338583 L 304.4545454545455 376.9721382373234 L 311.27272727272725 379.07070140472894 L 318.0909090909091 379.42043875973 L 324.9090909090909 378.0158927678747 L 331.7272727272727 374.8789808996031 L 338.5454545454545 370.0586536154524 L 345.3636363636364 363.63013051049165 L 352.1818181818182 355.69372653769835 L 359 346.37328662666914 L 365.8181818181818 335.8142531249136 L 372.6363636363636 324.1813962186666 L 379.45454545454544 311.6562427492403 L 386.27272727272725 298.4342435473792 L 393.09090909090907 284.72172348841605 L 399.90909090909093 270.73266186160015 L 406.72727272727275 256.68535329485496 L 413.54545454545456 242.79900134012075 L 420.3636363636364 229.29029787524036 L 427.1818181818182 216.37004169968048 L 434 204.23984908976922 L 440.8181818181818 193.08900764413625 L 447.6363636363636 183.0915225140452 L 454.45454545454544 174.40340111120565 L 461.27272727272725 167.1602186642915 L 468.09090909090907 161.47500261284188 L 474.90909090909093 157.4364688518698 L 481.72727272727275 155.10763734999267 L 488.54545454545456 154.5248487438995 L 495.3636363636364 155.69719725486954 L 502.1818181818182 158.60638877649131 L 509 163.20702634807424 L 515.8181818181818 169.42731855903673 L 522.6363636363636 177.17019982985732 L 529.4545454545455 186.31484508797865 L 536.2727272727273 196.71855520265336 L 543.090909090909 208.21898375715296 L 549.909090909091 220.63667041030237 L 556.7272727272727 233.77784131508201 L 563.5454545454545 247.43743289470123 L 570.3636363636364 261.4022917911286 L 577.1818181818182 275.45450105195357 L 584 289.3747806515438 L 590.8181818181818 302.9459092825058 L 597.6363636363636 315.95611402153486 L 604.4545454545454 328.2023749750541 " stroke="steelblue" stroke-width="2" fill="none" /><path d="M 59 154.5 L 65.81818181818181 155.3777624367005 L 72.63636363636364 157.99735255755246 L 79.45454545454545 162.31789253486465 L 86.27272727272728 168.27196178733305 L 93.0909090909091 175.76664905566298 L 99.9090909090909 184.68500225169515 L 106.72727272727272 194.88785345662592 L 113.54545454545455 206.2159905898343 L 120.36363636363637 218.49264186015006 L 127.18181818181817 231.52623423053228 L 134 245.11338285123895 L 140.8181818181818 259.04206481238344 L 147.63636363636363 273.0949276905303 L 154.45454545454544 287.05268126056785 L 161.27272727272725 300.6975194463271 L 168.0909090909091 313.8165191115535 L 174.9090909090909 326.20496265423435 L 181.72727272727275 337.6695325563081 L 188.54545454545456 348.03132803887786 L 195.36363636363635 357.12865674903003 L 202.1818181818182 364.8195579149233 L 209 370.98401759615217 L 215.8181818181818 375.5258414611481 L 222.63636363636363 378.37415586755014 L 229.45454545454547 379.48451382168975 L 236.27272727272728 378.83958855906144 L 243.0909090909091 376.4494439226877 L 249.9090909090909 372.3513773202146 L 256.72727272727275 366.6093377103398 L 263.5454545454545 359.3129277007006 L 270.3636363636364 350.5760053291499 L 277.1818181818182 340.5349073471563 L 284 329.3463217303969 L 290.8181818181818 317.1848426153017 L 297.6363636363636 304.24024581594983 L 304.4545454545455 290.71452743596274 L 311.27272727272725 276.8187517868664 L 318.0909090909091 262.76975780010264 L 324.9090909090909 248.78677532802712 L 331.7272727272727 235.08800413538705 L 338.5454545454545 221.88720896497097 L 345.3636363636364 209.39038381029292 L 352.1818181818182 197.79253744822034 L 359 187.27465039223324 L 365.8181818181818 178.0008507520419 L 372.6363636363636 170.11585306932892 L 379.45454545454544 163.7427000957273 L 386.27272727272725 158.98084275183385 L 393.09090909090907 155.90458822885563 L 399.90909090909093 154.56194044974382 L 406.72727272727275 154.97385098403123 L 413.54545454545456 157.13389210559734 L 420.3636363636364 161.00835709518458 L 427.1818181818182 166.5367862224789 L 434 173.63291019997968 L 440.8181818181818 182.18599638637824 L 447.6363636363636 192.06257673238952 L 454.45454545454544 203.1085305050218 L 461.27272727272725 215.15148929006813 L 468.09090909090907 228.00352674355958 L 474.90909090909093 241.4640911195097 L 481.72727272727275 255.32313481283404 L 488.54545454545456 269.36439208197544 L 495.3636363636364 283.368753803469 L 502.1818181818182 297.1176865965309 L 509 310.396642963375 L 515.8181818181818 322.9984092311585 L 522.6363636363636 334.72633905204265 L 529.4545454545455 345.39742200368016 L 536.2727272727273 354.8451394056468 L 543.090909090909 362.92206278775575 L 549.909090909091 369.50215446202617 L 556.7272727272727 374.4827342986497 L 563.5454545454545 377.78608201507393 L 570.3636363636364 379.36064997501717 L 577.1818181818182 379.1818675720926 L 584 377.2525246459023 L 590.8181818181818 373.6027279475243 L 597.6363636363636 368.28943133373036 L 604.4545454545454 361.3955470211009 " stroke="crimson" stroke-width="2" fill="none" stroke-dasharray="8 4" /><path d="M 59 267 L 65.81818181818181 257.1688062275114 L 72.63636363636364 247.41283452072045 L 79.45454545454545 237.80673139373866 L 86.27272727272728 228.42399666126175 L 93.0909090909091 219.336421064557 L 99.9090909090909 210.61353697419776 L 106.72727272727272 202.32208637241956 L 113.54545454545455 194.52551018575974 L 120.36363636363637 187.28346287528393 L 127.18181818181817 180.651355998447 L 134 174.67993423496392 L 140.8181818181818 169.4148871206731 L 147.63636363636363 164.8964994601564 L 154.45454545454544 161.15934309293942 L 161.27272727272725 158.23201237167973 L 168.0909090909091 156.13690537629827 L 174.9090909090909 154.89005253806266 L 181.72727272727275 154.50099398488464 L 188.54545454545456 154.97270654630535 L 195.36363636363635 156.3015809766821 L 202.1818181818182 158.47744957084922 L 209 161.4836639609556 L 215.8181818181818 165.29722249922713 L 222.63636363636363 169.8889462520017 L 229.45454545454547 175.22370225844156 L 236.27272727272728 181.26067234568973 L 243.0909090909091 187.9536654436659 L 249.9090909090909 195.25147100986828 L 256.72727272727275 203.09825085999773 L 263.5454545454545 211.43396640636496 L 270.3636363636364 220.1948380351227 L 277.1818181818182 229.31383310746065 L 284 238.72117885088534 L 290.8181818181818 248.34489621626713 L 297.6363636363636 258.1113506159187 L 304.4545454545455 267.9458153288042 L 311.27272727272725 277.77304326206286 L 318.0909090909091 287.517842694086 L 324.9090909090909 297.1056525939299 L 331.7272727272727 306.46311311508225 L 338.5454545454545 315.51862689852703 L 345.3636363636364 324.20290689037154 L 352.1818181818182 332.44950648248266 L 359 340.1953279198313 L 365.8181818181818 347.3811050845353 L 372.6363636363636 353.95185696264264 L 379.45454545454544 359.85730832401384 L 386.27272727272725 365.0522743965286 L 393.09090909090907 369.49700659133345 L 399.90909090909093 373.1574966338583 L 406.72727272727275 376.0057367735861 L 413.54545454545456 378.0199340816141 L 420.3636363636364 379.1846771963378 L 427.1818181818182 379.4910542414252 L 434 378.9367210138479 L 440.8181818181818 377.5259189202374 L 447.6363636363636 375.26944252432924 L 454.45454545454544 372.1845569538002 L 461.27272727272725 368.29486579845087 L 468.09090909090907 363.63013051049165 L 474.90909090909093 358.2260426887673 L 481.72727272727275 352.1239509892566 L 488.54545454545456 345.3705447513561 L 495.3636363636364 338.01749676063616 L 502.1818181818182 330.1210678814269 L 509 321.74167658433055 L 515.8181818181818 312.9434366623657 L 522.6363636363636 303.7936666728459 L 529.4545454545455 294.36237485843185 L 536.2727272727273 284.72172348841605 L 543.090909090909 274.94547671876035 L 549.909090909091 265.10843619551065 L 556.7272727272727 255.28586871999724 L 563.5454545454545 245.55293035495865 L 570.3636363636364 235.98409137796932 L 577.1818181818182 226.65256648206008 L 584 217.62975458327503 L 590.8181818181818 208.98469252140552 L 597.6363636363636 200.7835268338331 L 604.4545454545454 193.08900764413625 " stroke="seagreen" stroke-width="2" fill="none" stroke-dasharray="2 4" /><path d="M 59 154.5 L 65.81818181818181 154.93038935997066 L 72.63636363636364 156.21826437319498 L 79.45454545454545 158.35377103607016 L 86.27272727272728 161.32056980466984 L 93.0909090909091 165.09596061458217 L 99.9090909090909 169.65105656741906 L 106.72727272727272 174.9510049550608 L 113.54545454545455 180.95525393049502 L 120.36363636363637 187.61786278485715 L 127.18181818181817 194.88785345662592 L 134 202.70960058345088 L 140.8181818181818 211.02325711218066 L 147.63636363636363 219.7652122105946 L 154.45454545454544 228.86857797718682 L 161.27272727272725 238.2637012250087 L 168.0909090909091 247.87869642372286 L 174.9090909090909 257.6399957221348 L 181.72727272727275 267.4729118427774 L 188.54545454545456 277.3022095416363 L 195.36363636363635 287.05268126056785 L 202.1818181818182 296.64972256788286 L 209 306.01990298418815 L 215.8181818181818 315.09152782588933 L 222.63636363636363 323.7951867674839 L 229.45454545454547 332.06428492539374 L 236.27272727272728 339.83555239981933 L 243.0909090909091 347.0495283759255 L 249.9090909090909 353.65101608032205 L 256.72727272727275 359.58950511180103 L 263.5454545454545 364.8195579149233 L 270.3636363636364 369.3011574394034 L 277.1818181818182 373.000013325224 L 284 375.8878242707438 L 290.8181818181818 377.9424945763261 L 297.6363636363636 379.14830320663293 L 304.4545454545455 379.496024078026 L 311.27272727272725 378.9829966507136 L 318.0909090909091 377.613146285515 L 324.9090909090909 375.3969542094869 L 331.7272727272727 372.3513773202146 L 338.5454545454545 368.49971844237564 L 345.3636363636364 363.87144802929026 L 352.1818181818182 358.5019786736848 L 359 352.43239415296966 L 365.8181818181818 345.70913508220553 L 372.6363636363636 338.3836435799416 L 379.45454545454544 330.5119696657176 L 386.27272727272725 322.1543424008288 L 393.09090909090907 313.3747090537089 L 399.90909090909093 304.24024581594983 L 406.72727272727275 294.82084381264644 L 413.54545454545456 285.18857433978974 L 420.3636363636364 275.41713742037524 L 427.1818181818182 265.5812978985226 L 434 255.75631338626013 L 440.8181818181818 246.01735843996033 L 447.6363636363636 236.43894937226523 L 454.45454545454544 227.094374100476 L 461.27272727272725 218.05513139384448 L 468.09090909090907 209.39038381029292 L 474.90909090909093 201.16642850834222 L 481.72727272727275 193.4461899832603 L 488.54545454545456 186.28873860869425 L 495.3636363636364 179.74883866759689 L 502.1818181818182 173.87652933063384 L 509 168.71674178815317 L 515.8181818181818 164.30895546518576 L 522.6363636363636 160.68689594989945 L 529.4545454545455 157.87827694676622 L 536.2727272727273 155.90458822885563 L 543.090909090909 154.78093121170696 L 549.909090909091 154.5159034068658 L 556.7272727272727 155.111532639173 L 563.5454545454545 156.56326153113383 L 570.3636363636364 158.85998237308337 L 577.1818181818182 161.9841221123424 L 584 165.9117768110828 L 590.8181818181818 170.61289454411371 L 597.6363636363636 176.05150533717284 L 604.4545454545454 182.18599638637824 " stroke="darkorange" stroke-width="2" fill="none" stroke-dasharray="8 4 2 4" /><rect x="664" y="32" width="91" height="92" fill="white" /><rect x="664" y="32" width="91" height="92" fill="none" stroke="black" stroke-width="1" /><text x="694" y="47" font-size="12" text-anchor="start">Solid</text><line x1="674" y1="44" x2="686" y2="44" stroke="steelblue" stroke-width="2" /><text x="694" y="65" font-size="12" text-anchor="start">Dashed</text><line x1="674" y1="62" x2="686" y2="62" stroke="crimson" stroke-width="2" stroke-dasharray="8 4" /><text x="694" y="83" font-size="12" text-anchor="start">Dotted</text><line x1="674" y1="80" x2="686" y2="80" stroke="seagreen" stroke-width="2" stroke-dasharray="2 4" /><text x="694" y="101" font-size="12" text-anchor="start">Dash-dot</text><line x1="674" y1="98" x2="686" y2="98" stroke="darkorange" stroke-width="2" stroke-dasharray="8 4 2 4" /></svg>