<svg xmlns="http://www.w3.org/2000/svg" width="717.8000000000001" height="545" font-family="DejaVu Sans, Liberation Sans, Arial, sans-serif" fill="black"><rect width="100%" height="100%" fill="white" /><defs><clipPath id="kuva-clip-9"><rect x="99.8" y="44" width="600" height="450"/></clipPath></defs><line x1="99.8" y1="494" x2="699.8000000000001" y2="494" stroke="#000000" stroke-width="1" /><line x1="99.8" y1="44" x2="99.8" y2="494" stroke="#000000" stroke-width="1" /><text x="91.8" y="423.2" font-size="12" text-anchor="end">Control</text><line x1="94.8" y1="419" x2="99.8" y2="419" stroke="#000000" stroke-width="1" /><text x="91.8" y="273.2" font-size="12" text-anchor="end">Low dose</text><line x1="94.8" y1="269" x2="99.8" y2="269" stroke="#000000" stroke-width="1" /><text x="91.8" y="123.2" font-size="12" text-anchor="end">High dose</text><line x1="94.8" y1="119" x2="99.8" y2="119" stroke="#000000" stroke-width="1" /><line x1="99.8" y1="494" x2="99.8" y2="499" stroke="#000000" stroke-width="1" /><text x="99.8" y="511" font-size="12" text-anchor="middle">0</text><line x1="224.8" y1="494" x2="224.8" y2="499" stroke="#000000" stroke-width="1" /><text x="224.8" y="511" font-size="12" text-anchor="middle">2.5</text><line x1="349.8" y1="494" x2="349.8" y2="499" stroke="#000000" stroke-width="1" /><text x="349.8" y="511" font-size="12" text-anchor="middle">5</text><line x1="474.8" y1="494" x2="474.8" y2="499" stroke="#000000" stroke-width="1" /><text x="474.8" y="511" font-size="12" text-anchor="middle">7.5</text><line x1="599.8000000000001" y1="494" x2="599.8000000000001" y2="499" stroke="#000000" stroke-width="1" /><text x="599.8000000000001" y="511" font-size="12" text-anchor="middle">10</text><text x="399.8" y="538" font-size="14" text-anchor="middle">Value</text><text x="15" y="269" font-size="14" text-anchor="middle" transform="rotate(-90,15,269)">Treatment</text><text x="399.8" y="27.400000000000002" font-size="18" text-anchor="middle">Horizontal Raincloud Plot</text><g clip-path="url(#kuva-clip-9)"><path d="M 206.77 394.74 L 208.68 394.64 L 210.59 394.56 L 212.49 394.5 L 214.4 394.45 L 216.31 394.42 L 218.22 394.40000000000003 L 220.13 394.40000000000003 L 222.03 394.42 L 223.94 394.45 L 225.85 394.49 L 227.76 394.54 L 229.66 394.59000000000003 L 231.57 394.65000000000003 L 233.48000000000002 394.71000000000004 L 235.39000000000001 394.76 L 237.3 394.8 L 239.20000000000002 394.84000000000003 L 241.11 394.85 L 243.02 394.85 L 244.93 394.82 L 246.83 394.77 L 248.74 394.69 L 250.65 394.58 L 252.56 394.43 L 254.47 394.25 L 256.37 394.03000000000003 L 258.28000000000003 393.77 L 260.19 393.46000000000004 L 262.1 393.11 L 264.0 392.71000000000004 L 265.91 392.26 L 267.82 391.76 L 269.73 391.19 L 271.64 390.57 L 273.54 389.89 L 275.45 389.14 L 277.36 388.34000000000003 L 279.27 387.48 L 281.18 386.56 L 283.08 385.61 L 284.99 384.62 L 286.90000000000003 383.6 L 288.81 382.57 L 290.71 381.53000000000003 L 292.62 380.51 L 294.53000000000003 379.51 L 296.44 378.55 L 298.35 377.63 L 300.25 376.76 L 302.16 375.95 L 304.07 375.21 L 305.98 374.53000000000003 L 307.88 373.91 L 309.79 373.36 L 311.7 372.86 L 313.61 372.41 L 315.52 372.01 L 317.42 371.63 L 319.33 371.29 L 321.24 370.96 L 323.15000000000003 370.64 L 325.06 370.32 L 326.96 370.0 L 328.87 369.68 L 330.78000000000003 369.36 L 332.69 369.03000000000003 L 334.59000000000003 368.7 L 336.5 368.37 L 338.41 368.04 L 340.32 367.74 L 342.23 367.45 L 344.13 367.19 L 346.04 366.96 L 347.95 366.78000000000003 L 349.86 366.64 L 351.76 366.54 L 353.67 366.5 L 355.58 366.51 L 357.49 366.58 L 359.40000000000003 366.7 L 361.3 366.87 L 363.21 367.09000000000003 L 365.12 367.37 L 367.03000000000003 367.69 L 368.94 368.06 L 370.84000000000003 368.47 L 372.75 368.92 L 374.66 369.40000000000003 L 376.57 369.92 L 378.47 370.46 L 380.38 371.02 L 382.29 371.6 L 384.2 372.19 L 386.11 372.79 L 388.01 373.39 L 389.92 373.99 L 391.83 374.57 L 393.74 375.14 L 395.64 375.7 L 397.55 376.24 L 399.46000000000004 376.76 L 401.37 377.26 L 403.28000000000003 377.76 L 405.18 378.25 L 407.09000000000003 378.73 L 409.0 379.22 L 410.91 379.71 L 412.82 380.22 L 414.72 380.75 L 416.63 381.31 L 418.54 381.88 L 420.45 382.49 L 422.35 383.11 L 424.26 383.76 L 426.17 384.43 L 428.08 385.11 L 429.99 385.79 L 431.89 386.47 L 433.8 387.15000000000003 L 435.71000000000004 387.82 L 437.62 388.46000000000004 L 439.52 389.09000000000003 L 441.43 389.69 L 443.34000000000003 390.26 L 445.25 390.8 L 447.16 391.3 L 449.06 391.77 L 450.97 392.21000000000004 L 452.88 392.61 L 454.79 392.97 L 456.7 393.3 L 458.6 393.6 L 460.51 393.87 L 462.42 394.11 L 464.33 394.33 L 466.23 394.51 L 468.14 394.68 L 470.05 394.82 L 471.96000000000004 394.94 L 473.87 395.05 L 475.77 395.14 L 477.68 395.23 L 479.59000000000003 395.3 L 481.5 395.37 L 483.40000000000003 395.43 L 485.31 395.49 L 487.22 395.55 L 487.22 396.5 L 485.31 396.5 L 483.40000000000003 396.5 L 481.5 396.5 L 479.59000000000003 396.5 L 477.68 396.5 L 475.77 396.5 L 473.87 396.5 L 471.96000000000004 396.5 L 470.05 396.5 L 468.14 396.5 L 466.23 396.5 L 464.33 396.5 L 462.42 396.5 L 460.51 396.5 L 458.6 396.5 L 456.7 396.5 L 454.79 396.5 L 452.88 396.5 L 450.97 396.5 L 449.06 396.5 L 447.16 396.5 L 445.25 396.5 L 443.34000000000003 396.5 L 441.43 396.5 L 439.52 396.5 L 437.62 396.5 L 435.71000000000004 396.5 L 433.8 396.5 L 431.89 396.5 L 429.99 396.5 L 428.08 396.5 L 426.17 396.5 L 424.26 396.5 L 422.35 396.5 L 420.45 396.5 L 418.54 396.5 L 416.63 396.5 L 414.72 396.5 L 412.82 396.5 L 410.91 396.5 L 409.0 396.5 L 407.09000000000003 396.5 L 405.18 396.5 L 403.28000000000003 396.5 L 401.37 396.5 L 399.46000000000004 396.5 L 397.55 396.5 L 395.64 396.5 L 393.74 396.5 L 391.83 396.5 L 389.92 396.5 L 388.01 396.5 L 386.11 396.5 L 384.2 396.5 L 382.29 396.5 L 380.38 396.5 L 378.47 396.5 L 376.57 396.5 L 374.66 396.5 L 372.75 396.5 L 370.84000000000003 396.5 L 368.94 396.5 L 367.03000000000003 396.5 L 365.12 396.5 L 363.21 396.5 L 361.3 396.5 L 359.40000000000003 396.5 L 357.49 396.5 L 355.58 396.5 L 353.67 396.5 L 351.76 396.5 L 349.86 396.5 L 347.95 396.5 L 346.04 396.5 L 344.13 396.5 L 342.23 396.5 L 340.32 396.5 L 338.41 396.5 L 336.5 396.5 L 334.59000000000003 396.5 L 332.69 396.5 L 330.78000000000003 396.5 L 328.87 396.5 L 326.96 396.5 L 325.06 396.5 L 323.15000000000003 396.5 L 321.24 396.5 L 319.33 396.5 L 317.42 396.5 L 315.52 396.5 L 313.61 396.5 L 311.7 396.5 L 309.79 396.5 L 307.88 396.5 L 305.98 396.5 L 304.07 396.5 L 302.16 396.5 L 300.25 396.5 L 298.35 396.5 L 296.44 396.5 L 294.53000000000003 396.5 L 292.62 396.5 L 290.71 396.5 L 288.81 396.5 L 286.90000000000003 396.5 L 284.99 396.5 L 283.08 396.5 L 281.18 396.5 L 279.27 396.5 L 277.36 396.5 L 275.45 396.5 L 273.54 396.5 L 271.64 396.5 L 269.73 396.5 L 267.82 396.5 L 265.91 396.5 L 264.0 396.5 L 262.1 396.5 L 260.19 396.5 L 258.28000000000003 396.5 L 256.37 396.5 L 254.47 396.5 L 252.56 396.5 L 250.65 396.5 L 248.74 396.5 L 246.83 396.5 L 244.93 396.5 L 243.02 396.5 L 241.11 396.5 L 239.20000000000002 396.5 L 237.3 396.5 L 235.39000000000001 396.5 L 233.48000000000002 396.5 L 231.57 396.5 L 229.66 396.5 L 227.76 396.5 L 225.85 396.5 L 223.94 396.5 L 222.03 396.5 L 220.13 396.5 L 218.22 396.5 L 216.31 396.5 L 214.4 396.5 L 212.49 396.5 L 210.59 396.5 L 208.68 396.5 L 206.77 396.5 Z" stroke="#4878d0" stroke-width="0.5" fill="#4878d0" fill-opacity="0.7000000000000001" /><rect x="319.39" y="413" width="65.47" height="12" fill="#4878d0" /><line x1="352.24" y1="413" x2="352.24" y2="425" stroke="#ffffff" stroke-width="1.5" /><line x1="223.18" y1="419" x2="319.39" y2="419" stroke="#4878d0" stroke-width="1" /><line x1="384.86" y1="419" x2="465.14" y2="419" stroke="#4878d0" stroke-width="1" /><line x1="223.18" y1="416" x2="223.18" y2="422" stroke="#4878d0" stroke-width="1" /><line x1="465.14" y1="416" x2="465.14" y2="422" stroke="#4878d0" stroke-width="1" /><circle cx="312.40000000000003" cy="446.3" r="3" fill="#4878d0" fill-opacity="0.7000000000000001" /><circle cx="371.81" cy="446.98" r="3" fill="#4878d0" fill-opacity="0.7000000000000001" /><circle cx="279.91" cy="445.72" r="3" fill="#4878d0" fill-opacity="0.7000000000000001" /><circle cx="419.95" cy="452.04" r="3" fill="#4878d0" fill-opacity="0.7000000000000001" /><circle cx="379.29" cy="449.86" r="3" fill="#4878d0" fill-opacity="0.7000000000000001" /><circle cx="313.05" cy="451.96000000000004" r="3" fill="#4878d0" fill-opacity="0.7000000000000001" /><circle cx="385.39" cy="452.63" r="3" fill="#4878d0" fill-opacity="0.7000000000000001" /><circle cx="263.88" cy="450.56" r="3" fill="#4878d0" fill-opacity="0.7000000000000001" /><circle cx="329.46" cy="449.23" r="3" fill="#4878d0" fill-opacity="0.7000000000000001" /><circle cx="322.96" cy="446.42" r="3" fill="#4878d0" fill-opacity="0.7000000000000001" /><circle cx="296.21" cy="452.15000000000003" r="3" fill="#4878d0" fill-opacity="0.7000000000000001" /><circle cx="334.09000000000003" cy="446.14" r="3" fill="#4878d0" fill-opacity="0.7000000000000001" /><circle cx="352.75" cy="452.56" r="3" fill="#4878d0" fill-opacity="0.7000000000000001" /><circle cx="329.2" cy="450.19" r="3" fill="#4878d0" fill-opacity="0.7000000000000001" /><circle cx="223.18" cy="449.12" r="3" fill="#4878d0" fill-opacity="0.7000000000000001" /><circle cx="391.75" cy="448.59000000000003" r="3" fill="#4878d0" fill-opacity="0.7000000000000001" /><circle cx="332.88" cy="449.33" r="3" fill="#4878d0" fill-opacity="0.7000000000000001" /><circle cx="323.07" cy="446.14" r="3" fill="#4878d0" fill-opacity="0.7000000000000001" /><circle cx="377.79" cy="448.28000000000003" r="3" fill="#4878d0" fill-opacity="0.7000000000000001" /><circle cx="319.06" cy="446.12" r="3" fill="#4878d0" fill-opacity="0.7000000000000001" /><circle cx="389.67" cy="450.72" r="3" fill="#4878d0" fill-opacity="0.7000000000000001" /><circle cx="212.8" cy="451.2" r="3" fill="#4878d0" fill-opacity="0.7000000000000001" /><circle cx="346.21" cy="446.24" r="3" fill="#4878d0" fill-opacity="0.7000000000000001" /><circle cx="310.29" cy="452.63" r="3" fill="#4878d0" fill-opacity="0.7000000000000001" /><circle cx="396.43" cy="448.91" r="3" fill="#4878d0" fill-opacity="0.7000000000000001" /><circle cx="277.13" cy="448.24" r="3" fill="#4878d0" fill-opacity="0.7000000000000001" /><circle cx="308.53000000000003" cy="448.43" r="3" fill="#4878d0" fill-opacity="0.7000000000000001" /><circle cx="391.6" cy="450.01" r="3" fill="#4878d0" fill-opacity="0.7000000000000001" /><circle cx="351.3" cy="449.03000000000003" r="3" fill="#4878d0" fill-opacity="0.7000000000000001" /><circle cx="299.53000000000003" cy="449.18" r="3" fill="#4878d0" fill-opacity="0.7000000000000001" /><circle cx="359.6" cy="452.11" r="3" fill="#4878d0" fill-opacity="0.7000000000000001" /><circle cx="299.8" cy="449.89" r="3" fill="#4878d0" fill-opacity="0.7000000000000001" /><circle cx="205.6" cy="452.52" r="3" fill="#4878d0" fill-opacity="0.7000000000000001" /><circle cx="381.85" cy="450.6" r="3" fill="#4878d0" fill-opacity="0.7000000000000001" /><circle cx="364.74" cy="447.37" r="3" fill="#4878d0" fill-opacity="0.7000000000000001" /><circle cx="309.82" cy="449.24" r="3" fill="#4878d0" fill-opacity="0.7000000000000001" /><circle cx="357.81" cy="448.06" r="3" fill="#4878d0" fill-opacity="0.7000000000000001" /><circle cx="426.98" cy="445.97" r="3" fill="#4878d0" fill-opacity="0.7000000000000001" /><circle cx="355.1" cy="450.64" r="3" fill="#4878d0" fill-opacity="0.7000000000000001" /><circle cx="296.86" cy="452.11" r="3" fill="#4878d0" fill-opacity="0.7000000000000001" /><circle cx="314.47" cy="450.57" r="3" fill="#4878d0" fill-opacity="0.7000000000000001" /><circle cx="415.75" cy="448.04" r="3" fill="#4878d0" fill-opacity="0.7000000000000001" /><circle cx="415.18" cy="450.38" r="3" fill="#4878d0" fill-opacity="0.7000000000000001" /><circle cx="348.11" cy="446.56" r="3" fill="#4878d0" fill-opacity="0.7000000000000001" /><circle cx="309.22" cy="450.52" r="3" fill="#4878d0" fill-opacity="0.7000000000000001" /><circle cx="341.73" cy="449.39" r="3" fill="#4878d0" fill-opacity="0.7000000000000001" /><circle cx="380.51" cy="450.22" r="3" fill="#4878d0" fill-opacity="0.7000000000000001" /><circle cx="338.32" cy="450.77" r="3" fill="#4878d0" fill-opacity="0.7000000000000001" /><circle cx="347.04" cy="451.33" r="3" fill="#4878d0" fill-opacity="0.7000000000000001" /><circle cx="412.67" cy="451.06" r="3" fill="#4878d0" fill-opacity="0.7000000000000001" /><circle cx="372.58" cy="450.38" r="3" fill="#4878d0" fill-opacity="0.7000000000000001" /><circle cx="316.88" cy="446.61" r="3" fill="#4878d0" fill-opacity="0.7000000000000001" /><circle cx="383.28000000000003" cy="452.16" r="3" fill="#4878d0" fill-opacity="0.7000000000000001" /><circle cx="369.90000000000003" cy="448.58" r="3" fill="#4878d0" fill-opacity="0.7000000000000001" /><circle cx="339.98" cy="450.66" r="3" fill="#4878d0" fill-opacity="0.7000000000000001" /><circle cx="465.14" cy="448.05" r="3" fill="#4878d0" fill-opacity="0.7000000000000001" /><circle cx="359.09000000000003" cy="452.48" r="3" fill="#4878d0" fill-opacity="0.7000000000000001" /><circle cx="409.97" cy="449.29" r="3" fill="#4878d0" fill-opacity="0.7000000000000001" /><circle cx="395.43" cy="445.66" r="3" fill="#4878d0" fill-opacity="0.7000000000000001" /><circle cx="344.40000000000003" cy="449.38" r="3" fill="#4878d0" fill-opacity="0.7000000000000001" /><circle cx="361.36" cy="452.65000000000003" r="3" fill="#4878d0" fill-opacity="0.7000000000000001" /><circle cx="367.19" cy="449.05" r="3" fill="#4878d0" fill-opacity="0.7000000000000001" /><circle cx="345.85" cy="452.26" r="3" fill="#4878d0" fill-opacity="0.7000000000000001" /><circle cx="320.38" cy="445.95" r="3" fill="#4878d0" fill-opacity="0.7000000000000001" /><circle cx="366.54" cy="446.87" r="3" fill="#4878d0" fill-opacity="0.7000000000000001" /><circle cx="394.18" cy="447.1" r="3" fill="#4878d0" fill-opacity="0.7000000000000001" /><circle cx="326.21" cy="449.48" r="3" fill="#4878d0" fill-opacity="0.7000000000000001" /><circle cx="376.56" cy="450.89" r="3" fill="#4878d0" fill-opacity="0.7000000000000001" /><circle cx="350.46" cy="451.42" r="3" fill="#4878d0" fill-opacity="0.7000000000000001" /><circle cx="380.89" cy="446.1" r="3" fill="#4878d0" fill-opacity="0.7000000000000001" /><circle cx="382.04" cy="446.32" r="3" fill="#4878d0" fill-opacity="0.7000000000000001" /><circle cx="437.02" cy="448.88" r="3" fill="#4878d0" fill-opacity="0.7000000000000001" /><circle cx="411.18" cy="446.39" r="3" fill="#4878d0" fill-opacity="0.7000000000000001" /><circle cx="396.32" cy="450.31" r="3" fill="#4878d0" fill-opacity="0.7000000000000001" /><circle cx="305.68" cy="450.7" r="3" fill="#4878d0" fill-opacity="0.7000000000000001" /><circle cx="406.04" cy="449.12" r="3" fill="#4878d0" fill-opacity="0.7000000000000001" /><circle cx="438.02" cy="448.45" r="3" fill="#4878d0" fill-opacity="0.7000000000000001" /><circle cx="339.76" cy="448.32" r="3" fill="#4878d0" fill-opacity="0.7000000000000001" /><circle cx="292.8" cy="445.93" r="3" fill="#4878d0" fill-opacity="0.7000000000000001" /><circle cx="449.73" cy="451.26" r="3" fill="#4878d0" fill-opacity="0.7000000000000001" /><circle cx="297.86" cy="451.09000000000003" r="3" fill="#4878d0" fill-opacity="0.7000000000000001" /><circle cx="392.74" cy="448.21000000000004" r="3" fill="#4878d0" fill-opacity="0.7000000000000001" /><circle cx="350.04" cy="450.32" r="3" fill="#4878d0" fill-opacity="0.7000000000000001" /><circle cx="424.22" cy="446.43" r="3" fill="#4878d0" fill-opacity="0.7000000000000001" /><circle cx="303.39" cy="446.3" r="3" fill="#4878d0" fill-opacity="0.7000000000000001" /><circle cx="344.07" cy="452.47" r="3" fill="#4878d0" fill-opacity="0.7000000000000001" /><circle cx="351.78000000000003" cy="451.02" r="3" fill="#4878d0" fill-opacity="0.7000000000000001" /><circle cx="339.57" cy="451.65000000000003" r="3" fill="#4878d0" fill-opacity="0.7000000000000001" /><circle cx="354.33" cy="445.92" r="3" fill="#4878d0" fill-opacity="0.7000000000000001" /><circle cx="441.99" cy="446.97" r="3" fill="#4878d0" fill-opacity="0.7000000000000001" /><circle cx="385.43" cy="449.64" r="3" fill="#4878d0" fill-opacity="0.7000000000000001" /><circle cx="317.26" cy="449.78000000000003" r="3" fill="#4878d0" fill-opacity="0.7000000000000001" /><circle cx="416.42" cy="452.49" r="3" fill="#4878d0" fill-opacity="0.7000000000000001" /><circle cx="424.56" cy="447.76" r="3" fill="#4878d0" fill-opacity="0.7000000000000001" /><circle cx="413.76" cy="451.86" r="3" fill="#4878d0" fill-opacity="0.7000000000000001" /><circle cx="326.64" cy="447.1" r="3" fill="#4878d0" fill-opacity="0.7000000000000001" /><circle cx="316.27" cy="451.01" r="3" fill="#4878d0" fill-opacity="0.7000000000000001" /><circle cx="320.7" cy="445.62" r="3" fill="#4878d0" fill-opacity="0.7000000000000001" /><circle cx="346.57" cy="448.08" r="3" fill="#4878d0" fill-opacity="0.7000000000000001" /><circle cx="362.42" cy="450.22" r="3" fill="#4878d0" fill-opacity="0.7000000000000001" /><circle cx="327.24" cy="449.11" r="3" fill="#4878d0" fill-opacity="0.7000000000000001" /><circle cx="419.82" cy="447.73" r="3" fill="#4878d0" fill-opacity="0.7000000000000001" /><circle cx="351.65000000000003" cy="446.39" r="3" fill="#4878d0" fill-opacity="0.7000000000000001" /><circle cx="336.58" cy="451.67" r="3" fill="#4878d0" fill-opacity="0.7000000000000001" /><circle cx="365.07" cy="451.52" r="3" fill="#4878d0" fill-opacity="0.7000000000000001" /><circle cx="363.14" cy="451.59000000000003" r="3" fill="#4878d0" fill-opacity="0.7000000000000001" /><circle cx="338.13" cy="449.04" r="3" fill="#4878d0" fill-opacity="0.7000000000000001" /><circle cx="293.67" cy="449" r="3" fill="#4878d0" fill-opacity="0.7000000000000001" /><circle cx="370.43" cy="452.58" r="3" fill="#4878d0" fill-opacity="0.7000000000000001" /><circle cx="297.21" cy="448.59000000000003" r="3" fill="#4878d0" fill-opacity="0.7000000000000001" /><circle cx="420.33" cy="450.31" r="3" fill="#4878d0" fill-opacity="0.7000000000000001" /><circle cx="405.46000000000004" cy="450.90000000000003" r="3" fill="#4878d0" fill-opacity="0.7000000000000001" /><circle cx="364.56" cy="447.7" r="3" fill="#4878d0" fill-opacity="0.7000000000000001" /><circle cx="365.59000000000003" cy="447.87" r="3" fill="#4878d0" fill-opacity="0.7000000000000001" /><circle cx="488.39" cy="447.01" r="3" fill="#4878d0" fill-opacity="0.7000000000000001" /><circle cx="332.02" cy="450.87" r="3" fill="#4878d0" fill-opacity="0.7000000000000001" /><circle cx="413.07" cy="449.27" r="3" fill="#4878d0" fill-opacity="0.7000000000000001" /><circle cx="357.48" cy="451.37" r="3" fill="#4878d0" fill-opacity="0.7000000000000001" /><circle cx="382" cy="446.93" r="3" fill="#4878d0" fill-opacity="0.7000000000000001" /><circle cx="437.11" cy="451.61" r="3" fill="#4878d0" fill-opacity="0.7000000000000001" /><circle cx="352.7" cy="445.87" r="3" fill="#4878d0" fill-opacity="0.7000000000000001" /><circle cx="339.91" cy="446.49" r="3" fill="#4878d0" fill-opacity="0.7000000000000001" /><circle cx="302.90000000000003" cy="450.42" r="3" fill="#4878d0" fill-opacity="0.7000000000000001" /><circle cx="399.6" cy="446.51" r="3" fill="#4878d0" fill-opacity="0.7000000000000001" /><circle cx="304.08" cy="451.68" r="3" fill="#4878d0" fill-opacity="0.7000000000000001" /><circle cx="416.45" cy="449.41" r="3" fill="#4878d0" fill-opacity="0.7000000000000001" /><circle cx="266.37" cy="451.28000000000003" r="3" fill="#4878d0" fill-opacity="0.7000000000000001" /><circle cx="324.96" cy="450.01" r="3" fill="#4878d0" fill-opacity="0.7000000000000001" /><circle cx="312.67" cy="445.88" r="3" fill="#4878d0" fill-opacity="0.7000000000000001" /><circle cx="293.13" cy="451.56" r="3" fill="#4878d0" fill-opacity="0.7000000000000001" /><circle cx="389.16" cy="446.73" r="3" fill="#4878d0" fill-opacity="0.7000000000000001" /><circle cx="365.98" cy="450.88" r="3" fill="#4878d0" fill-opacity="0.7000000000000001" /><circle cx="396.27" cy="445.54" r="3" fill="#4878d0" fill-opacity="0.7000000000000001" /><circle cx="321.44" cy="446.22" r="3" fill="#4878d0" fill-opacity="0.7000000000000001" /><circle cx="312.06" cy="445.68" r="3" fill="#4878d0" fill-opacity="0.7000000000000001" /><circle cx="381.09000000000003" cy="452.67" r="3" fill="#4878d0" fill-opacity="0.7000000000000001" /><circle cx="299.40000000000003" cy="450" r="3" fill="#4878d0" fill-opacity="0.7000000000000001" /><circle cx="291.17" cy="450.71000000000004" r="3" fill="#4878d0" fill-opacity="0.7000000000000001" /><circle cx="404.56" cy="448.2" r="3" fill="#4878d0" fill-opacity="0.7000000000000001" /><circle cx="295.99" cy="451.87" r="3" fill="#4878d0" fill-opacity="0.7000000000000001" /><circle cx="376.46" cy="450.35" r="3" fill="#4878d0" fill-opacity="0.7000000000000001" /><circle cx="345.28000000000003" cy="449.04" r="3" fill="#4878d0" fill-opacity="0.7000000000000001" /><circle cx="370.29" cy="446.31" r="3" fill="#4878d0" fill-opacity="0.7000000000000001" /><circle cx="373.46" cy="451.45" r="3" fill="#4878d0" fill-opacity="0.7000000000000001" /><circle cx="358.51" cy="450.83" r="3" fill="#4878d0" fill-opacity="0.7000000000000001" /><circle cx="334" cy="447.44" r="3" fill="#4878d0" fill-opacity="0.7000000000000001" /><circle cx="233.46" cy="451.73" r="3" fill="#4878d0" fill-opacity="0.7000000000000001" /><circle cx="344.13" cy="451.78000000000003" r="3" fill="#4878d0" fill-opacity="0.7000000000000001" /><circle cx="370.57" cy="451.42" r="3" fill="#4878d0" fill-opacity="0.7000000000000001" /><circle cx="286.92" cy="448.67" r="3" fill="#4878d0" fill-opacity="0.7000000000000001" /><path d="M 274.19 245.07 L 276.0 244.93 L 277.81 244.78 L 279.62 244.62 L 281.42 244.45000000000002 L 283.23 244.28 L 285.04 244.09 L 286.85 243.9 L 288.66 243.70000000000002 L 290.46 243.49 L 292.27 243.28 L 294.08 243.06 L 295.89 242.84 L 297.7 242.62 L 299.5 242.39000000000001 L 301.31 242.17000000000002 L 303.12 241.94 L 304.93 241.70000000000002 L 306.74 241.46 L 308.54 241.22 L 310.35 240.96 L 312.16 240.70000000000002 L 313.97 240.42000000000002 L 315.78000000000003 240.12 L 317.58 239.8 L 319.39 239.46 L 321.2 239.1 L 323.01 238.72 L 324.82 238.3 L 326.62 237.86 L 328.43 237.4 L 330.24 236.91 L 332.05 236.39000000000001 L 333.86 235.85 L 335.66 235.29 L 337.47 234.71 L 339.28000000000003 234.11 L 341.09000000000003 233.49 L 342.90000000000003 232.86 L 344.7 232.21 L 346.51 231.56 L 348.32 230.9 L 350.13 230.24 L 351.94 229.57 L 353.74 228.91 L 355.55 228.25 L 357.36 227.59 L 359.17 226.94 L 360.98 226.29 L 362.78000000000003 225.65 L 364.59000000000003 225.02 L 366.40000000000003 224.4 L 368.21 223.78 L 370.02 223.17000000000002 L 371.82 222.57 L 373.63 221.98000000000002 L 375.44 221.41 L 377.25 220.84 L 379.06 220.29 L 380.87 219.76 L 382.67 219.26 L 384.48 218.78 L 386.29 218.33 L 388.1 217.93 L 389.91 217.56 L 391.71000000000004 217.24 L 393.52 216.98000000000002 L 395.33 216.77 L 397.14 216.62 L 398.95 216.53 L 400.75 216.5 L 402.56 216.53 L 404.37 216.62 L 406.18 216.76 L 407.99 216.96 L 409.79 217.20000000000002 L 411.6 217.49 L 413.41 217.81 L 415.22 218.16 L 417.03000000000003 218.53 L 418.83 218.93 L 420.64 219.34 L 422.45 219.77 L 424.26 220.20000000000002 L 426.07 220.65 L 427.87 221.1 L 429.68 221.56 L 431.49 222.02 L 433.3 222.48000000000002 L 435.11 222.95000000000002 L 436.91 223.43 L 438.72 223.9 L 440.53000000000003 224.38 L 442.34000000000003 224.85 L 444.15000000000003 225.32 L 445.95 225.79 L 447.76 226.25 L 449.57 226.70000000000002 L 451.38 227.14000000000001 L 453.19 227.57 L 454.99 227.99 L 456.8 228.41 L 458.61 228.81 L 460.42 229.22 L 462.23 229.62 L 464.03000000000003 230.03 L 465.84000000000003 230.44 L 467.65000000000003 230.86 L 469.46000000000004 231.29 L 471.27 231.73000000000002 L 473.07 232.17000000000002 L 474.88 232.63 L 476.69 233.08 L 478.5 233.54 L 480.31 234.0 L 482.11 234.46 L 483.92 234.91 L 485.73 235.34 L 487.54 235.76 L 489.35 236.17000000000002 L 491.15000000000003 236.56 L 492.96000000000004 236.93 L 494.77000000000004 237.28 L 496.58 237.61 L 498.39 237.92000000000002 L 500.19 238.21 L 502.0 238.49 L 503.81 238.75 L 505.62 239.01 L 507.43 239.25 L 509.23 239.49 L 511.04 239.73000000000002 L 512.85 239.96 L 514.66 240.20000000000002 L 516.47 240.44 L 518.28 240.69 L 520.08 240.95000000000002 L 521.89 241.21 L 523.7 241.49 L 525.51 241.77 L 527.32 242.06 L 529.12 242.36 L 530.9300000000001 242.66 L 532.74 242.97 L 532.74 246.5 L 530.9300000000001 246.5 L 529.12 246.5 L 527.32 246.5 L 525.51 246.5 L 523.7 246.5 L 521.89 246.5 L 520.08 246.5 L 518.28 246.5 L 516.47 246.5 L 514.66 246.5 L 512.85 246.5 L 511.04 246.5 L 509.23 246.5 L 507.43 246.5 L 505.62 246.5 L 503.81 246.5 L 502.0 246.5 L 500.19 246.5 L 498.39 246.5 L 496.58 246.5 L 494.77000000000004 246.5 L 492.96000000000004 246.5 L 491.15000000000003 246.5 L 489.35 246.5 L 487.54 246.5 L 485.73 246.5 L 483.92 246.5 L 482.11 246.5 L 480.31 246.5 L 478.5 246.5 L 476.69 246.5 L 474.88 246.5 L 473.07 246.5 L 471.27 246.5 L 469.46000000000004 246.5 L 467.65000000000003 246.5 L 465.84000000000003 246.5 L 464.03000000000003 246.5 L 462.23 246.5 L 460.42 246.5 L 458.61 246.5 L 456.8 246.5 L 454.99 246.5 L 453.19 246.5 L 451.38 246.5 L 449.57 246.5 L 447.76 246.5 L 445.95 246.5 L 444.15000000000003 246.5 L 442.34000000000003 246.5 L 440.53000000000003 246.5 L 438.72 246.5 L 436.91 246.5 L 435.11 246.5 L 433.3 246.5 L 431.49 246.5 L 429.68 246.5 L 427.87 246.5 L 426.07 246.5 L 424.26 246.5 L 422.45 246.5 L 420.64 246.5 L 418.83 246.5 L 417.03000000000003 246.5 L 415.22 246.5 L 413.41 246.5 L 411.6 246.5 L 409.79 246.5 L 407.99 246.5 L 406.18 246.5 L 404.37 246.5 L 402.56 246.5 L 400.75 246.5 L 398.95 246.5 L 397.14 246.5 L 395.33 246.5 L 393.52 246.5 L 391.71000000000004 246.5 L 389.91 246.5 L 388.1 246.5 L 386.29 246.5 L 384.48 246.5 L 382.67 246.5 L 380.87 246.5 L 379.06 246.5 L 377.25 246.5 L 375.44 246.5 L 373.63 246.5 L 371.82 246.5 L 370.02 246.5 L 368.21 246.5 L 366.40000000000003 246.5 L 364.59000000000003 246.5 L 362.78000000000003 246.5 L 360.98 246.5 L 359.17 246.5 L 357.36 246.5 L 355.55 246.5 L 353.74 246.5 L 351.94 246.5 L 350.13 246.5 L 348.32 246.5 L 346.51 246.5 L 344.7 246.5 L 342.90000000000003 246.5 L 341.09000000000003 246.5 L 339.28000000000003 246.5 L 337.47 246.5 L 335.66 246.5 L 333.86 246.5 L 332.05 246.5 L 330.24 246.5 L 328.43 246.5 L 326.62 246.5 L 324.82 246.5 L 323.01 246.5 L 321.2 246.5 L 319.39 246.5 L 317.58 246.5 L 315.78000000000003 246.5 L 313.97 246.5 L 312.16 246.5 L 310.35 246.5 L 308.54 246.5 L 306.74 246.5 L 304.93 246.5 L 303.12 246.5 L 301.31 246.5 L 299.5 246.5 L 297.7 246.5 L 295.89 246.5 L 294.08 246.5 L 292.27 246.5 L 290.46 246.5 L 288.66 246.5 L 286.85 246.5 L 285.04 246.5 L 283.23 246.5 L 281.42 246.5 L 279.62 246.5 L 277.81 246.5 L 276.0 246.5 L 274.19 246.5 Z" stroke="#ee854a" stroke-width="0.5" fill="#ee854a" fill-opacity="0.7000000000000001" /><rect x="373.92" y="263" width="67.55" height="12" fill="#ee854a" /><line x1="407.99" y1="263" x2="407.99" y2="275" stroke="#ffffff" stroke-width="1.5" /><line x1="273.53000000000003" y1="269" x2="373.92" y2="269" stroke="#ee854a" stroke-width="1" /><line x1="441.47" y1="269" x2="533.4" y2="269" stroke="#ee854a" stroke-width="1" /><line x1="273.53000000000003" y1="266" x2="273.53000000000003" y2="272" stroke="#ee854a" stroke-width="1" /><line x1="533.4" y1="266" x2="533.4" y2="272" stroke="#ee854a" stroke-width="1" /><circle cx="470.56" cy="296.3" r="3" fill="#ee854a" fill-opacity="0.7000000000000001" /><circle cx="456.81" cy="300.7" r="3" fill="#ee854a" fill-opacity="0.7000000000000001" /><circle cx="516.69" cy="296.96" r="3" fill="#ee854a" fill-opacity="0.7000000000000001" /><circle cx="441.49" cy="302" r="3" fill="#ee854a" fill-opacity="0.7000000000000001" /><circle cx="340.37" cy="297.49" r="3" fill="#ee854a" fill-opacity="0.7000000000000001" /><circle cx="440.77" cy="297.23" r="3" fill="#ee854a" fill-opacity="0.7000000000000001" /><circle cx="336.92" cy="302.48" r="3" fill="#ee854a" fill-opacity="0.7000000000000001" /><circle cx="380.84000000000003" cy="296.53000000000003" r="3" fill="#ee854a" fill-opacity="0.7000000000000001" /><circle cx="423.71000000000004" cy="297.16" r="3" fill="#ee854a" fill-opacity="0.7000000000000001" /><circle cx="395" cy="301.14" r="3" fill="#ee854a" fill-opacity="0.7000000000000001" /><circle cx="453.07" cy="297.26" r="3" fill="#ee854a" fill-opacity="0.7000000000000001" /><circle cx="393.25" cy="296.72" r="3" fill="#ee854a" fill-opacity="0.7000000000000001" /><circle cx="391.31" cy="299.2" r="3" fill="#ee854a" fill-opacity="0.7000000000000001" /><circle cx="382.91" cy="298.89" r="3" fill="#ee854a" fill-opacity="0.7000000000000001" /><circle cx="373.72" cy="302.28000000000003" r="3" fill="#ee854a" fill-opacity="0.7000000000000001" /><circle cx="469.51" cy="299.44" r="3" fill="#ee854a" fill-opacity="0.7000000000000001" /><circle cx="297.83" cy="300.7" r="3" fill="#ee854a" fill-opacity="0.7000000000000001" /><circle cx="428.97" cy="302.08" r="3" fill="#ee854a" fill-opacity="0.7000000000000001" /><circle cx="468.33" cy="296.33" r="3" fill="#ee854a" fill-opacity="0.7000000000000001" /><circle cx="397.73" cy="297.16" r="3" fill="#ee854a" fill-opacity="0.7000000000000001" /><circle cx="343.05" cy="301.21" r="3" fill="#ee854a" fill-opacity="0.7000000000000001" /><circle cx="402.62" cy="297.3" r="3" fill="#ee854a" fill-opacity="0.7000000000000001" /><circle cx="497.06" cy="301.33" r="3" fill="#ee854a" fill-opacity="0.7000000000000001" /><circle cx="434.19" cy="296.23" r="3" fill="#ee854a" fill-opacity="0.7000000000000001" /><circle cx="482.31" cy="296.63" r="3" fill="#ee854a" fill-opacity="0.7000000000000001" /><circle cx="466.7" cy="295.55" r="3" fill="#ee854a" fill-opacity="0.7000000000000001" /><circle cx="407.94" cy="296.16" r="3" fill="#ee854a" fill-opacity="0.7000000000000001" /><circle cx="385.64" cy="298.7" r="3" fill="#ee854a" fill-opacity="0.7000000000000001" /><circle cx="372.31" cy="298.86" r="3" fill="#ee854a" fill-opacity="0.7000000000000001" /><circle cx="360.57" cy="301.05" r="3" fill="#ee854a" fill-opacity="0.7000000000000001" /><circle cx="429.7" cy="300.07" r="3" fill="#ee854a" fill-opacity="0.7000000000000001" /><circle cx="367.61" cy="299.1" r="3" fill="#ee854a" fill-opacity="0.7000000000000001" /><circle cx="416.03000000000003" cy="297.63" r="3" fill="#ee854a" fill-opacity="0.7000000000000001" /><circle cx="437.42" cy="300.78000000000003" r="3" fill="#ee854a" fill-opacity="0.7000000000000001" /><circle cx="313.61" cy="301.6" r="3" fill="#ee854a" fill-opacity="0.7000000000000001" /><circle cx="472.68" cy="296.2" r="3" fill="#ee854a" fill-opacity="0.7000000000000001" /><circle cx="385.67" cy="298.7" r="3" fill="#ee854a" fill-opacity="0.7000000000000001" /><circle cx="479.26" cy="295.63" r="3" fill="#ee854a" fill-opacity="0.7000000000000001" /><circle cx="333.25" cy="300.05" r="3" fill="#ee854a" fill-opacity="0.7000000000000001" /><circle cx="412.16" cy="295.38" r="3" fill="#ee854a" fill-opacity="0.7000000000000001" /><circle cx="353.71" cy="301.04" r="3" fill="#ee854a" fill-opacity="0.7000000000000001" /><circle cx="379.63" cy="301.25" r="3" fill="#ee854a" fill-opacity="0.7000000000000001" /><circle cx="394.55" cy="302.52" r="3" fill="#ee854a" fill-opacity="0.7000000000000001" /><circle cx="359.55" cy="296.16" r="3" fill="#ee854a" fill-opacity="0.7000000000000001" /><circle cx="355.82" cy="296.12" r="3" fill="#ee854a" fill-opacity="0.7000000000000001" /><circle cx="425.88" cy="300.22" r="3" fill="#ee854a" fill-opacity="0.7000000000000001" /><circle cx="295.49" cy="295.97" r="3" fill="#ee854a" fill-opacity="0.7000000000000001" /><circle cx="365.07" cy="302.39" r="3" fill="#ee854a" fill-opacity="0.7000000000000001" /><circle cx="463.2" cy="301.86" r="3" fill="#ee854a" fill-opacity="0.7000000000000001" /><circle cx="412.09000000000003" cy="302.36" r="3" fill="#ee854a" fill-opacity="0.7000000000000001" /><circle cx="468.18" cy="300.37" r="3" fill="#ee854a" fill-opacity="0.7000000000000001" /><circle cx="400.54" cy="296.08" r="3" fill="#ee854a" fill-opacity="0.7000000000000001" /><circle cx="452.44" cy="300.5" r="3" fill="#ee854a" fill-opacity="0.7000000000000001" /><circle cx="437.45" cy="299.59000000000003" r="3" fill="#ee854a" fill-opacity="0.7000000000000001" /><circle cx="408.78000000000003" cy="297.74" r="3" fill="#ee854a" fill-opacity="0.7000000000000001" /><circle cx="423.52" cy="297.23" r="3" fill="#ee854a" fill-opacity="0.7000000000000001" /><circle cx="400.46000000000004" cy="297.90000000000003" r="3" fill="#ee854a" fill-opacity="0.7000000000000001" /><circle cx="413.71000000000004" cy="297.23" r="3" fill="#ee854a" fill-opacity="0.7000000000000001" /><circle cx="358.54" cy="301.78000000000003" r="3" fill="#ee854a" fill-opacity="0.7000000000000001" /><circle cx="338.79" cy="300.7" r="3" fill="#ee854a" fill-opacity="0.7000000000000001" /><circle cx="502.05" cy="301.66" r="3" fill="#ee854a" fill-opacity="0.7000000000000001" /><circle cx="445.23" cy="296.56" r="3" fill="#ee854a" fill-opacity="0.7000000000000001" /><circle cx="329.68" cy="296.58" r="3" fill="#ee854a" fill-opacity="0.7000000000000001" /><circle cx="437.6" cy="302.40000000000003" r="3" fill="#ee854a" fill-opacity="0.7000000000000001" /><circle cx="430.99" cy="300.89" r="3" fill="#ee854a" fill-opacity="0.7000000000000001" /><circle cx="455.04" cy="295.87" r="3" fill="#ee854a" fill-opacity="0.7000000000000001" /><circle cx="420.51" cy="299.35" r="3" fill="#ee854a" fill-opacity="0.7000000000000001" /><circle cx="478.96000000000004" cy="302.38" r="3" fill="#ee854a" fill-opacity="0.7000000000000001" /><circle cx="354.91" cy="300.08" r="3" fill="#ee854a" fill-opacity="0.7000000000000001" /><circle cx="392.51" cy="298.17" r="3" fill="#ee854a" fill-opacity="0.7000000000000001" /><circle cx="494.18" cy="299.36" r="3" fill="#ee854a" fill-opacity="0.7000000000000001" /><circle cx="400.8" cy="297.96" r="3" fill="#ee854a" fill-opacity="0.7000000000000001" /><circle cx="408.03000000000003" cy="300.48" r="3" fill="#ee854a" fill-opacity="0.7000000000000001" /><circle cx="397.49" cy="299.42" r="3" fill="#ee854a" fill-opacity="0.7000000000000001" /><circle cx="401.21000000000004" cy="299" r="3" fill="#ee854a" fill-opacity="0.7000000000000001" /><circle cx="412.2" cy="297.6" r="3" fill="#ee854a" fill-opacity="0.7000000000000001" /><circle cx="392.82" cy="299.78000000000003" r="3" fill="#ee854a" fill-opacity="0.7000000000000001" /><circle cx="459.97" cy="298.37" r="3" fill="#ee854a" fill-opacity="0.7000000000000001" /><circle cx="417.3" cy="301.6" r="3" fill="#ee854a" fill-opacity="0.7000000000000001" /><circle cx="382.82" cy="297.15000000000003" r="3" fill="#ee854a" fill-opacity="0.7000000000000001" /><circle cx="400.90000000000003" cy="301.16" r="3" fill="#ee854a" fill-opacity="0.7000000000000001" /><circle cx="426.64" cy="295.90000000000003" r="3" fill="#ee854a" fill-opacity="0.7000000000000001" /><circle cx="405.54" cy="298.22" r="3" fill="#ee854a" fill-opacity="0.7000000000000001" /><circle cx="468.19" cy="297.43" r="3" fill="#ee854a" fill-opacity="0.7000000000000001" /><circle cx="438.86" cy="297.77" r="3" fill="#ee854a" fill-opacity="0.7000000000000001" /><circle cx="502.42" cy="296.39" r="3" fill="#ee854a" fill-opacity="0.7000000000000001" /><circle cx="497.29" cy="301.18" r="3" fill="#ee854a" fill-opacity="0.7000000000000001" /><circle cx="410.77" cy="301.39" r="3" fill="#ee854a" fill-opacity="0.7000000000000001" /><circle cx="522.9" cy="298.16" r="3" fill="#ee854a" fill-opacity="0.7000000000000001" /><circle cx="441.41" cy="298.93" r="3" fill="#ee854a" fill-opacity="0.7000000000000001" /><circle cx="303.14" cy="296.32" r="3" fill="#ee854a" fill-opacity="0.7000000000000001" /><circle cx="533.4" cy="296.2" r="3" fill="#ee854a" fill-opacity="0.7000000000000001" /><circle cx="419.40000000000003" cy="301.72" r="3" fill="#ee854a" fill-opacity="0.7000000000000001" /><circle cx="446.15000000000003" cy="301.45" r="3" fill="#ee854a" fill-opacity="0.7000000000000001" /><circle cx="436.38" cy="301.47" r="3" fill="#ee854a" fill-opacity="0.7000000000000001" /><circle cx="409.16" cy="297.40000000000003" r="3" fill="#ee854a" fill-opacity="0.7000000000000001" /><circle cx="399.93" cy="296.88" r="3" fill="#ee854a" fill-opacity="0.7000000000000001" /><circle cx="519.55" cy="301.34000000000003" r="3" fill="#ee854a" fill-opacity="0.7000000000000001" /><circle cx="329.3" cy="299.92" r="3" fill="#ee854a" fill-opacity="0.7000000000000001" /><circle cx="273.53000000000003" cy="298.57" r="3" fill="#ee854a" fill-opacity="0.7000000000000001" /><circle cx="404.32" cy="295.37" r="3" fill="#ee854a" fill-opacity="0.7000000000000001" /><circle cx="350.38" cy="296.61" r="3" fill="#ee854a" fill-opacity="0.7000000000000001" /><circle cx="386.39" cy="300.37" r="3" fill="#ee854a" fill-opacity="0.7000000000000001" /><circle cx="366.15000000000003" cy="302.23" r="3" fill="#ee854a" fill-opacity="0.7000000000000001" /><circle cx="341.1" cy="296.91" r="3" fill="#ee854a" fill-opacity="0.7000000000000001" /><circle cx="400.79" cy="297.33" r="3" fill="#ee854a" fill-opacity="0.7000000000000001" /><circle cx="330.39" cy="298.09000000000003" r="3" fill="#ee854a" fill-opacity="0.7000000000000001" /><circle cx="476.93" cy="301.28000000000003" r="3" fill="#ee854a" fill-opacity="0.7000000000000001" /><circle cx="456.39" cy="300.06" r="3" fill="#ee854a" fill-opacity="0.7000000000000001" /><circle cx="426.81" cy="298.37" r="3" fill="#ee854a" fill-opacity="0.7000000000000001" /><circle cx="368.25" cy="296.31" r="3" fill="#ee854a" fill-opacity="0.7000000000000001" /><circle cx="362.85" cy="297.48" r="3" fill="#ee854a" fill-opacity="0.7000000000000001" /><circle cx="519.04" cy="302.73" r="3" fill="#ee854a" fill-opacity="0.7000000000000001" /><circle cx="467.40000000000003" cy="301.72" r="3" fill="#ee854a" fill-opacity="0.7000000000000001" /><circle cx="313.22" cy="301.11" r="3" fill="#ee854a" fill-opacity="0.7000000000000001" /><circle cx="369.71" cy="297.90000000000003" r="3" fill="#ee854a" fill-opacity="0.7000000000000001" /><circle cx="384.43" cy="299.34000000000003" r="3" fill="#ee854a" fill-opacity="0.7000000000000001" /><circle cx="433.54" cy="302.22" r="3" fill="#ee854a" fill-opacity="0.7000000000000001" /><circle cx="418.27" cy="302.1" r="3" fill="#ee854a" fill-opacity="0.7000000000000001" /><circle cx="387.63" cy="297.39" r="3" fill="#ee854a" fill-opacity="0.7000000000000001" /><circle cx="443.94" cy="297.5" r="3" fill="#ee854a" fill-opacity="0.7000000000000001" /><circle cx="376.78000000000003" cy="302.58" r="3" fill="#ee854a" fill-opacity="0.7000000000000001" /><circle cx="459.63" cy="301.15000000000003" r="3" fill="#ee854a" fill-opacity="0.7000000000000001" /><circle cx="368.59000000000003" cy="300.34000000000003" r="3" fill="#ee854a" fill-opacity="0.7000000000000001" /><circle cx="379.19" cy="301.46" r="3" fill="#ee854a" fill-opacity="0.7000000000000001" /><circle cx="387.58" cy="299.35" r="3" fill="#ee854a" fill-opacity="0.7000000000000001" /><circle cx="440.3" cy="302.71" r="3" fill="#ee854a" fill-opacity="0.7000000000000001" /><circle cx="357.58" cy="295.27" r="3" fill="#ee854a" fill-opacity="0.7000000000000001" /><circle cx="422.25" cy="301.51" r="3" fill="#ee854a" fill-opacity="0.7000000000000001" /><circle cx="412.83" cy="295.38" r="3" fill="#ee854a" fill-opacity="0.7000000000000001" /><circle cx="346.86" cy="302.14" r="3" fill="#ee854a" fill-opacity="0.7000000000000001" /><circle cx="385.89" cy="301.13" r="3" fill="#ee854a" fill-opacity="0.7000000000000001" /><circle cx="311.12" cy="301.76" r="3" fill="#ee854a" fill-opacity="0.7000000000000001" /><circle cx="437.23" cy="298.35" r="3" fill="#ee854a" fill-opacity="0.7000000000000001" /><circle cx="398.31" cy="300.11" r="3" fill="#ee854a" fill-opacity="0.7000000000000001" /><circle cx="415.88" cy="297.22" r="3" fill="#ee854a" fill-opacity="0.7000000000000001" /><circle cx="380.81" cy="300.23" r="3" fill="#ee854a" fill-opacity="0.7000000000000001" /><circle cx="496.13" cy="296.44" r="3" fill="#ee854a" fill-opacity="0.7000000000000001" /><circle cx="522.8100000000001" cy="297.86" r="3" fill="#ee854a" fill-opacity="0.7000000000000001" /><circle cx="363.43" cy="301.28000000000003" r="3" fill="#ee854a" fill-opacity="0.7000000000000001" /><circle cx="409.96000000000004" cy="299.11" r="3" fill="#ee854a" fill-opacity="0.7000000000000001" /><circle cx="357.90000000000003" cy="301.1" r="3" fill="#ee854a" fill-opacity="0.7000000000000001" /><circle cx="353.17" cy="297.26" r="3" fill="#ee854a" fill-opacity="0.7000000000000001" /><circle cx="437.94" cy="302.21" r="3" fill="#ee854a" fill-opacity="0.7000000000000001" /><circle cx="490.01" cy="299.32" r="3" fill="#ee854a" fill-opacity="0.7000000000000001" /><circle cx="470.13" cy="301.21" r="3" fill="#ee854a" fill-opacity="0.7000000000000001" /><circle cx="388.65000000000003" cy="302.62" r="3" fill="#ee854a" fill-opacity="0.7000000000000001" /><circle cx="374.53000000000003" cy="297.85" r="3" fill="#ee854a" fill-opacity="0.7000000000000001" /><circle cx="373.37" cy="300.87" r="3" fill="#ee854a" fill-opacity="0.7000000000000001" /><circle cx="395.89" cy="295.96" r="3" fill="#ee854a" fill-opacity="0.7000000000000001" /><path d="M 344.11 95.83 L 345.72 95.83 L 347.34000000000003 95.85000000000001 L 348.95 95.87 L 350.57 95.9 L 352.18 95.93 L 353.79 95.96000000000001 L 355.41 96.0 L 357.02 96.03 L 358.64 96.06 L 360.25 96.08 L 361.87 96.09 L 363.48 96.10000000000001 L 365.09000000000003 96.09 L 366.71 96.07000000000001 L 368.32 96.04 L 369.94 95.99000000000001 L 371.55 95.94 L 373.17 95.87 L 374.78000000000003 95.79 L 376.39 95.69 L 378.01 95.59 L 379.62 95.47 L 381.24 95.35000000000001 L 382.85 95.2 L 384.47 95.05 L 386.08 94.89 L 387.7 94.71000000000001 L 389.31 94.51 L 390.92 94.3 L 392.54 94.06 L 394.15000000000003 93.81 L 395.77 93.54 L 397.38 93.24 L 399.0 92.92 L 400.61 92.57000000000001 L 402.22 92.19 L 403.84000000000003 91.79 L 405.45 91.35000000000001 L 407.07 90.89 L 408.68 90.4 L 410.3 89.88 L 411.91 89.32000000000001 L 413.52 88.75 L 415.14 88.15 L 416.75 87.52 L 418.37 86.88 L 419.98 86.22 L 421.6 85.57000000000001 L 423.21000000000004 84.91 L 424.82 84.26 L 426.44 83.63 L 428.05 83.03 L 429.67 82.47 L 431.28000000000003 81.95 L 432.90000000000003 81.47 L 434.51 81.05 L 436.12 80.67 L 437.74 80.35000000000001 L 439.35 80.07000000000001 L 440.97 79.82000000000001 L 442.58 79.60000000000001 L 444.2 79.4 L 445.81 79.2 L 447.42 78.98 L 449.04 78.74 L 450.65000000000003 78.46000000000001 L 452.27 78.13 L 453.88 77.73 L 455.5 77.27 L 457.11 76.73 L 458.72 76.13 L 460.34000000000003 75.45 L 461.95 74.72 L 463.57 73.94 L 465.18 73.13 L 466.8 72.3 L 468.41 71.48 L 470.03000000000003 70.67 L 471.64 69.9 L 473.25 69.19 L 474.87 68.55 L 476.48 68.0 L 478.1 67.53 L 479.71000000000004 67.15 L 481.33 66.87 L 482.94 66.67 L 484.55 66.55 L 486.17 66.5 L 487.78000000000003 66.5 L 489.40000000000003 66.55 L 491.01 66.62 L 492.63 66.7 L 494.24 66.78 L 495.85 66.86 L 497.47 66.93 L 499.08 66.99 L 500.7 67.04 L 502.31 67.09 L 503.93 67.14 L 505.54 67.22 L 507.15000000000003 67.33 L 508.77000000000004 67.49 L 510.38 67.71000000000001 L 512.0 67.99 L 513.61 68.36 L 515.23 68.81 L 516.84 69.35000000000001 L 518.45 69.98 L 520.07 70.68 L 521.6800000000001 71.46000000000001 L 523.3 72.31 L 524.91 73.21000000000001 L 526.53 74.13 L 528.14 75.08 L 529.75 76.04 L 531.37 76.98 L 532.98 77.9 L 534.6 78.78 L 536.21 79.61 L 537.83 80.39 L 539.44 81.12 L 541.05 81.79 L 542.67 82.4 L 544.28 82.96000000000001 L 545.9 83.47 L 547.51 83.94 L 549.13 84.38 L 550.74 84.79 L 552.36 85.2 L 553.97 85.60000000000001 L 555.58 86.0 L 557.2 86.42 L 558.8100000000001 86.84 L 560.4300000000001 87.29 L 562.04 87.76 L 563.66 88.24 L 565.27 88.74 L 566.88 89.26 L 568.5 89.78 L 570.11 90.3 L 571.73 90.82000000000001 L 573.34 91.33 L 574.96 91.82000000000001 L 576.57 92.3 L 578.1800000000001 92.74 L 579.8000000000001 93.16 L 581.41 93.55 L 583.03 93.91 L 584.64 94.23 L 584.64 96.5 L 583.03 96.5 L 581.41 96.5 L 579.8000000000001 96.5 L 578.1800000000001 96.5 L 576.57 96.5 L 574.96 96.5 L 573.34 96.5 L 571.73 96.5 L 570.11 96.5 L 568.5 96.5 L 566.88 96.5 L 565.27 96.5 L 563.66 96.5 L 562.04 96.5 L 560.4300000000001 96.5 L 558.8100000000001 96.5 L 557.2 96.5 L 555.58 96.5 L 553.97 96.5 L 552.36 96.5 L 550.74 96.5 L 549.13 96.5 L 547.51 96.5 L 545.9 96.5 L 544.28 96.5 L 542.67 96.5 L 541.05 96.5 L 539.44 96.5 L 537.83 96.5 L 536.21 96.5 L 534.6 96.5 L 532.98 96.5 L 531.37 96.5 L 529.75 96.5 L 528.14 96.5 L 526.53 96.5 L 524.91 96.5 L 523.3 96.5 L 521.6800000000001 96.5 L 520.07 96.5 L 518.45 96.5 L 516.84 96.5 L 515.23 96.5 L 513.61 96.5 L 512.0 96.5 L 510.38 96.5 L 508.77000000000004 96.5 L 507.15000000000003 96.5 L 505.54 96.5 L 503.93 96.5 L 502.31 96.5 L 500.7 96.5 L 499.08 96.5 L 497.47 96.5 L 495.85 96.5 L 494.24 96.5 L 492.63 96.5 L 491.01 96.5 L 489.40000000000003 96.5 L 487.78000000000003 96.5 L 486.17 96.5 L 484.55 96.5 L 482.94 96.5 L 481.33 96.5 L 479.71000000000004 96.5 L 478.1 96.5 L 476.48 96.5 L 474.87 96.5 L 473.25 96.5 L 471.64 96.5 L 470.03000000000003 96.5 L 468.41 96.5 L 466.8 96.5 L 465.18 96.5 L 463.57 96.5 L 461.95 96.5 L 460.34000000000003 96.5 L 458.72 96.5 L 457.11 96.5 L 455.5 96.5 L 453.88 96.5 L 452.27 96.5 L 450.65000000000003 96.5 L 449.04 96.5 L 447.42 96.5 L 445.81 96.5 L 444.2 96.5 L 442.58 96.5 L 440.97 96.5 L 439.35 96.5 L 437.74 96.5 L 436.12 96.5 L 434.51 96.5 L 432.90000000000003 96.5 L 431.28000000000003 96.5 L 429.67 96.5 L 428.05 96.5 L 426.44 96.5 L 424.82 96.5 L 423.21000000000004 96.5 L 421.6 96.5 L 419.98 96.5 L 418.37 96.5 L 416.75 96.5 L 415.14 96.5 L 413.52 96.5 L 411.91 96.5 L 410.3 96.5 L 408.68 96.5 L 407.07 96.5 L 405.45 96.5 L 403.84000000000003 96.5 L 402.22 96.5 L 400.61 96.5 L 399.0 96.5 L 397.38 96.5 L 395.77 96.5 L 394.15000000000003 96.5 L 392.54 96.5 L 390.92 96.5 L 389.31 96.5 L 387.7 96.5 L 386.08 96.5 L 384.47 96.5 L 382.85 96.5 L 381.24 96.5 L 379.62 96.5 L 378.01 96.5 L 376.39 96.5 L 374.78000000000003 96.5 L 373.17 96.5 L 371.55 96.5 L 369.94 96.5 L 368.32 96.5 L 366.71 96.5 L 365.09000000000003 96.5 L 363.48 96.5 L 361.87 96.5 L 360.25 96.5 L 358.64 96.5 L 357.02 96.5 L 355.41 96.5 L 353.79 96.5 L 352.18 96.5 L 350.57 96.5 L 348.95 96.5 L 347.34000000000003 96.5 L 345.72 96.5 L 344.11 96.5 Z" stroke="#6acc65" stroke-width="0.5" fill="#6acc65" fill-opacity="0.7000000000000001" /><rect x="461.76" y="113" width="53.9" height="12" fill="#6acc65" /><line x1="488.14" y1="113" x2="488.14" y2="125" stroke="#ffffff" stroke-width="1.5" /><line x1="385.84000000000003" y1="119" x2="461.76" y2="119" stroke="#6acc65" stroke-width="1" /><line x1="515.67" y1="119" x2="585.13" y2="119" stroke="#6acc65" stroke-width="1" /><line x1="385.84000000000003" y1="116" x2="385.84000000000003" y2="122" stroke="#6acc65" stroke-width="1" /><line x1="585.13" y1="116" x2="585.13" y2="122" stroke="#6acc65" stroke-width="1" /><circle cx="497.29" cy="146.3" r="3" fill="#6acc65" fill-opacity="0.7000000000000001" /><circle cx="513.4" cy="146.98" r="3" fill="#6acc65" fill-opacity="0.7000000000000001" /><circle cx="511.8" cy="147.86" r="3" fill="#6acc65" fill-opacity="0.7000000000000001" /><circle cx="444.76" cy="148.81" r="3" fill="#6acc65" fill-opacity="0.7000000000000001" /><circle cx="568.74" cy="149.83" r="3" fill="#6acc65" fill-opacity="0.7000000000000001" /><circle cx="434.41" cy="152.16" r="3" fill="#6acc65" fill-opacity="0.7000000000000001" /><circle cx="515.67" cy="145.98" r="3" fill="#6acc65" fill-opacity="0.7000000000000001" /><circle cx="501.01" cy="151.86" r="3" fill="#6acc65" fill-opacity="0.7000000000000001" /><circle cx="510.11" cy="146.83" r="3" fill="#6acc65" fill-opacity="0.7000000000000001" /><circle cx="529.7" cy="145.93" r="3" fill="#6acc65" fill-opacity="0.7000000000000001" /><circle cx="438.11" cy="146.24" r="3" fill="#6acc65" fill-opacity="0.7000000000000001" /><circle cx="498.14" cy="145.38" r="3" fill="#6acc65" fill-opacity="0.7000000000000001" /><circle cx="512.17" cy="146.58" r="3" fill="#6acc65" fill-opacity="0.7000000000000001" /><circle cx="478.42" cy="147.83" r="3" fill="#6acc65" fill-opacity="0.7000000000000001" /><circle cx="479.12" cy="148.45000000000002" r="3" fill="#6acc65" fill-opacity="0.7000000000000001" /><circle cx="479.77" cy="147.45000000000002" r="3" fill="#6acc65" fill-opacity="0.7000000000000001" /><circle cx="427.72" cy="147.19" r="3" fill="#6acc65" fill-opacity="0.7000000000000001" /><circle cx="429.07" cy="146.98" r="3" fill="#6acc65" fill-opacity="0.7000000000000001" /><circle cx="506.71000000000004" cy="152.22" r="3" fill="#6acc65" fill-opacity="0.7000000000000001" /><circle cx="509.87" cy="150.96" r="3" fill="#6acc65" fill-opacity="0.7000000000000001" /><circle cx="522.42" cy="149.12" r="3" fill="#6acc65" fill-opacity="0.7000000000000001" /><circle cx="493.94" cy="150.47" r="3" fill="#6acc65" fill-opacity="0.7000000000000001" /><circle cx="526.22" cy="151.95000000000002" r="3" fill="#6acc65" fill-opacity="0.7000000000000001" /><circle cx="514" cy="148.23" r="3" fill="#6acc65" fill-opacity="0.7000000000000001" /><circle cx="477.59000000000003" cy="150.06" r="3" fill="#6acc65" fill-opacity="0.7000000000000001" /><circle cx="547.19" cy="150.4" r="3" fill="#6acc65" fill-opacity="0.7000000000000001" /><circle cx="425.18" cy="146.6" r="3" fill="#6acc65" fill-opacity="0.7000000000000001" /><circle cx="427.58" cy="151.68" r="3" fill="#6acc65" fill-opacity="0.7000000000000001" /><circle cx="496.11" cy="150.29" r="3" fill="#6acc65" fill-opacity="0.7000000000000001" /><circle cx="515.95" cy="152.20000000000002" r="3" fill="#6acc65" fill-opacity="0.7000000000000001" /><circle cx="524.28" cy="148.95000000000002" r="3" fill="#6acc65" fill-opacity="0.7000000000000001" /><circle cx="555.97" cy="152.5" r="3" fill="#6acc65" fill-opacity="0.7000000000000001" /><circle cx="448.86" cy="149.12" r="3" fill="#6acc65" fill-opacity="0.7000000000000001" /><circle cx="471.15000000000003" cy="145.45000000000002" r="3" fill="#6acc65" fill-opacity="0.7000000000000001" /><circle cx="558.57" cy="150.44" r="3" fill="#6acc65" fill-opacity="0.7000000000000001" /><circle cx="488.46000000000004" cy="150.04" r="3" fill="#6acc65" fill-opacity="0.7000000000000001" /><circle cx="487.83" cy="147.13" r="3" fill="#6acc65" fill-opacity="0.7000000000000001" /><circle cx="436.02" cy="150.93" r="3" fill="#6acc65" fill-opacity="0.7000000000000001" /><circle cx="434.84000000000003" cy="150.09" r="3" fill="#6acc65" fill-opacity="0.7000000000000001" /><circle cx="514.49" cy="149.70000000000002" r="3" fill="#6acc65" fill-opacity="0.7000000000000001" /><circle cx="511.49" cy="152.05" r="3" fill="#6acc65" fill-opacity="0.7000000000000001" /><circle cx="477.79" cy="147.19" r="3" fill="#6acc65" fill-opacity="0.7000000000000001" /><circle cx="450.09000000000003" cy="150.93" r="3" fill="#6acc65" fill-opacity="0.7000000000000001" /><circle cx="476.19" cy="148.1" r="3" fill="#6acc65" fill-opacity="0.7000000000000001" /><circle cx="548.07" cy="150.31" r="3" fill="#6acc65" fill-opacity="0.7000000000000001" /><circle cx="433.49" cy="151.97" r="3" fill="#6acc65" fill-opacity="0.7000000000000001" /><circle cx="488.79" cy="147.08" r="3" fill="#6acc65" fill-opacity="0.7000000000000001" /><circle cx="545.96" cy="148.69" r="3" fill="#6acc65" fill-opacity="0.7000000000000001" /><circle cx="438.29" cy="151.53" r="3" fill="#6acc65" fill-opacity="0.7000000000000001" /><circle cx="418.88" cy="145.97" r="3" fill="#6acc65" fill-opacity="0.7000000000000001" /><circle cx="473.56" cy="150.51" r="3" fill="#6acc65" fill-opacity="0.7000000000000001" /><circle cx="523.11" cy="149.13" r="3" fill="#6acc65" fill-opacity="0.7000000000000001" /><circle cx="512.07" cy="150.3" r="3" fill="#6acc65" fill-opacity="0.7000000000000001" /><circle cx="512.22" cy="145.6" r="3" fill="#6acc65" fill-opacity="0.7000000000000001" /><circle cx="453.43" cy="149.31" r="3" fill="#6acc65" fill-opacity="0.7000000000000001" /><circle cx="535.05" cy="150.33" r="3" fill="#6acc65" fill-opacity="0.7000000000000001" /><circle cx="471.68" cy="146.15" r="3" fill="#6acc65" fill-opacity="0.7000000000000001" /><circle cx="539.3100000000001" cy="152.54" r="3" fill="#6acc65" fill-opacity="0.7000000000000001" /><circle cx="474.6" cy="148.16" r="3" fill="#6acc65" fill-opacity="0.7000000000000001" /><circle cx="470.04" cy="146.56" r="3" fill="#6acc65" fill-opacity="0.7000000000000001" /><circle cx="445.59000000000003" cy="147.18" r="3" fill="#6acc65" fill-opacity="0.7000000000000001" /><circle cx="523.92" cy="149.6" r="3" fill="#6acc65" fill-opacity="0.7000000000000001" /><circle cx="490.17" cy="148.25" r="3" fill="#6acc65" fill-opacity="0.7000000000000001" /><circle cx="456.71000000000004" cy="148.12" r="3" fill="#6acc65" fill-opacity="0.7000000000000001" /><circle cx="522.08" cy="148.99" r="3" fill="#6acc65" fill-opacity="0.7000000000000001" /><circle cx="478.23" cy="148.66" r="3" fill="#6acc65" fill-opacity="0.7000000000000001" /><circle cx="547.73" cy="151.09" r="3" fill="#6acc65" fill-opacity="0.7000000000000001" /><circle cx="537.73" cy="152.04" r="3" fill="#6acc65" fill-opacity="0.7000000000000001" /><circle cx="470.55" cy="149.38" r="3" fill="#6acc65" fill-opacity="0.7000000000000001" /><circle cx="442.62" cy="147.25" r="3" fill="#6acc65" fill-opacity="0.7000000000000001" /><circle cx="481.17" cy="147.44" r="3" fill="#6acc65" fill-opacity="0.7000000000000001" /><circle cx="514.09" cy="148.88" r="3" fill="#6acc65" fill-opacity="0.7000000000000001" /><circle cx="461.1" cy="148.17000000000002" r="3" fill="#6acc65" fill-opacity="0.7000000000000001" /><circle cx="469.06" cy="147.68" r="3" fill="#6acc65" fill-opacity="0.7000000000000001" /><circle cx="505.37" cy="148.54" r="3" fill="#6acc65" fill-opacity="0.7000000000000001" /><circle cx="460.01" cy="149.02" r="3" fill="#6acc65" fill-opacity="0.7000000000000001" /><circle cx="515.66" cy="147.39000000000001" r="3" fill="#6acc65" fill-opacity="0.7000000000000001" /><circle cx="408.09000000000003" cy="151.42000000000002" r="3" fill="#6acc65" fill-opacity="0.7000000000000001" /><circle cx="481.02" cy="147.5" r="3" fill="#6acc65" fill-opacity="0.7000000000000001" /><circle cx="485.02" cy="150.28" r="3" fill="#6acc65" fill-opacity="0.7000000000000001" /><circle cx="486.79" cy="147.52" r="3" fill="#6acc65" fill-opacity="0.7000000000000001" /><circle cx="461.63" cy="145.28" r="3" fill="#6acc65" fill-opacity="0.7000000000000001" /><circle cx="496.23" cy="147.04" r="3" fill="#6acc65" fill-opacity="0.7000000000000001" /><circle cx="435.08" cy="147.31" r="3" fill="#6acc65" fill-opacity="0.7000000000000001" /><circle cx="399.1" cy="149.39000000000001" r="3" fill="#6acc65" fill-opacity="0.7000000000000001" /><circle cx="507.35" cy="149.79" r="3" fill="#6acc65" fill-opacity="0.7000000000000001" /><circle cx="480.78000000000003" cy="148.29" r="3" fill="#6acc65" fill-opacity="0.7000000000000001" /><circle cx="557.77" cy="146.56" r="3" fill="#6acc65" fill-opacity="0.7000000000000001" /><circle cx="520.09" cy="147.79" r="3" fill="#6acc65" fill-opacity="0.7000000000000001" /><circle cx="385.84000000000003" cy="152.02" r="3" fill="#6acc65" fill-opacity="0.7000000000000001" /><circle cx="508.63" cy="147.87" r="3" fill="#6acc65" fill-opacity="0.7000000000000001" /><circle cx="459.65000000000003" cy="151.47" r="3" fill="#6acc65" fill-opacity="0.7000000000000001" /><circle cx="557.96" cy="148.9" r="3" fill="#6acc65" fill-opacity="0.7000000000000001" /><circle cx="536.35" cy="152.65" r="3" fill="#6acc65" fill-opacity="0.7000000000000001" /><circle cx="443.93" cy="146.66" r="3" fill="#6acc65" fill-opacity="0.7000000000000001" /><circle cx="528.94" cy="149.4" r="3" fill="#6acc65" fill-opacity="0.7000000000000001" /><circle cx="434.33" cy="148.83" r="3" fill="#6acc65" fill-opacity="0.7000000000000001" /><circle cx="487.83" cy="149.78" r="3" fill="#6acc65" fill-opacity="0.7000000000000001" /><circle cx="483.65000000000003" cy="146.55" r="3" fill="#6acc65" fill-opacity="0.7000000000000001" /><circle cx="527.78" cy="149.34" r="3" fill="#6acc65" fill-opacity="0.7000000000000001" /><circle cx="497.92" cy="150.31" r="3" fill="#6acc65" fill-opacity="0.7000000000000001" /><circle cx="415.13" cy="152.66" r="3" fill="#6acc65" fill-opacity="0.7000000000000001" /><circle cx="544.78" cy="148.79" r="3" fill="#6acc65" fill-opacity="0.7000000000000001" /><circle cx="533.52" cy="148.74" r="3" fill="#6acc65" fill-opacity="0.7000000000000001" /><circle cx="462.41" cy="149.67000000000002" r="3" fill="#6acc65" fill-opacity="0.7000000000000001" /><circle cx="484.24" cy="145.55" r="3" fill="#6acc65" fill-opacity="0.7000000000000001" /><circle cx="343.62" cy="147.28" r="3" fill="#6acc65" fill-opacity="0.7000000000000001" /><circle cx="464.83" cy="145.73" r="3" fill="#6acc65" fill-opacity="0.7000000000000001" /><circle cx="549.24" cy="148.22" r="3" fill="#6acc65" fill-opacity="0.7000000000000001" /><circle cx="450.76" cy="145.92000000000002" r="3" fill="#6acc65" fill-opacity="0.7000000000000001" /><circle cx="565.5600000000001" cy="150.24" r="3" fill="#6acc65" fill-opacity="0.7000000000000001" /><circle cx="507.71000000000004" cy="148.84" r="3" fill="#6acc65" fill-opacity="0.7000000000000001" /><circle cx="527.01" cy="149.68" r="3" fill="#6acc65" fill-opacity="0.7000000000000001" /><circle cx="492.85" cy="147.19" r="3" fill="#6acc65" fill-opacity="0.7000000000000001" /><circle cx="504.13" cy="151.96" r="3" fill="#6acc65" fill-opacity="0.7000000000000001" /><circle cx="486.06" cy="152.31" r="3" fill="#6acc65" fill-opacity="0.7000000000000001" /><circle cx="470.26" cy="150.75" r="3" fill="#6acc65" fill-opacity="0.7000000000000001" /><circle cx="431.04" cy="147.96" r="3" fill="#6acc65" fill-opacity="0.7000000000000001" /><circle cx="563.83" cy="146.16" r="3" fill="#6acc65" fill-opacity="0.7000000000000001" /><circle cx="462.16" cy="148.17000000000002" r="3" fill="#6acc65" fill-opacity="0.7000000000000001" /><circle cx="476.26" cy="149.13" r="3" fill="#6acc65" fill-opacity="0.7000000000000001" /><circle cx="511.98" cy="149.59" r="3" fill="#6acc65" fill-opacity="0.7000000000000001" /><circle cx="585.13" cy="148.05" r="3" fill="#6acc65" fill-opacity="0.7000000000000001" /><circle cx="503.6" cy="145.4" r="3" fill="#6acc65" fill-opacity="0.7000000000000001" /><circle cx="524.3" cy="146.44" r="3" fill="#6acc65" fill-opacity="0.7000000000000001" /><circle cx="501.25" cy="150.91" r="3" fill="#6acc65" fill-opacity="0.7000000000000001" /><circle cx="475.68" cy="152.36" r="3" fill="#6acc65" fill-opacity="0.7000000000000001" /><circle cx="446.95" cy="147.61" r="3" fill="#6acc65" fill-opacity="0.7000000000000001" /><circle cx="528.55" cy="149.56" r="3" fill="#6acc65" fill-opacity="0.7000000000000001" /><circle cx="423.90000000000003" cy="148.49" r="3" fill="#6acc65" fill-opacity="0.7000000000000001" /><circle cx="438.58" cy="149.99" r="3" fill="#6acc65" fill-opacity="0.7000000000000001" /><circle cx="465.33" cy="149.20000000000002" r="3" fill="#6acc65" fill-opacity="0.7000000000000001" /><circle cx="520.9" cy="147.21" r="3" fill="#6acc65" fill-opacity="0.7000000000000001" /><circle cx="518.85" cy="149.12" r="3" fill="#6acc65" fill-opacity="0.7000000000000001" /><circle cx="478.85" cy="152.61" r="3" fill="#6acc65" fill-opacity="0.7000000000000001" /><circle cx="472.03000000000003" cy="148.87" r="3" fill="#6acc65" fill-opacity="0.7000000000000001" /><circle cx="495.63" cy="145.87" r="3" fill="#6acc65" fill-opacity="0.7000000000000001" /><circle cx="483.69" cy="147.02" r="3" fill="#6acc65" fill-opacity="0.7000000000000001" /><circle cx="496.41" cy="147.76" r="3" fill="#6acc65" fill-opacity="0.7000000000000001" /><circle cx="559.84" cy="147.76" r="3" fill="#6acc65" fill-opacity="0.7000000000000001" /><circle cx="472.83" cy="148.32" r="3" fill="#6acc65" fill-opacity="0.7000000000000001" /><circle cx="499.03000000000003" cy="152.34" r="3" fill="#6acc65" fill-opacity="0.7000000000000001" /><circle cx="482.82" cy="151.99" r="3" fill="#6acc65" fill-opacity="0.7000000000000001" /><circle cx="499.13" cy="149.9" r="3" fill="#6acc65" fill-opacity="0.7000000000000001" /><circle cx="448.12" cy="145.71" r="3" fill="#6acc65" fill-opacity="0.7000000000000001" /><circle cx="486.64" cy="149.42000000000002" r="3" fill="#6acc65" fill-opacity="0.7000000000000001" /><circle cx="409.51" cy="149.47" r="3" fill="#6acc65" fill-opacity="0.7000000000000001" /><circle cx="567.9" cy="151.38" r="3" fill="#6acc65" fill-opacity="0.7000000000000001" /><circle cx="513.28" cy="146.92000000000002" r="3" fill="#6acc65" fill-opacity="0.7000000000000001" /><circle cx="413.2" cy="149.69" r="3" fill="#6acc65" fill-opacity="0.7000000000000001" /></g></svg>