<svg xmlns="http://www.w3.org/2000/svg" width="673" height="541" fill="black"><rect width="100%" height="100%" fill="white" /><text x="336.5" y="21" font-size="16" text-anchor="middle">Energy Flow</text><rect x="149" y="42" width="20" height="450" fill="#1f77b4" /><text x="143" y="271.2" font-size="12" text-anchor="end">Input</text><rect x="349" y="42" width="20" height="276.25" fill="#ff7f0e" /><text x="375" y="184.325" font-size="12" text-anchor="start">Process A</text><rect x="349" y="326.25" width="20" height="165.75" fill="#2ca02c" /><text x="375" y="413.325" font-size="12" text-anchor="start">Process B</text><rect x="549" y="42" width="20" height="276.25" fill="#d62728" /><text x="575" y="184.325" font-size="12" text-anchor="start">Output X</text><rect x="549" y="326.25" width="20" height="165.75" fill="#9467bd" /><text x="575" y="413.325" font-size="12" text-anchor="start">Output Y</text><path d="M 169 42 C 259 42 259 42 349 42 L 349 318.25 C 259 318.25 259 323.25 169 323.25 Z" stroke="none" stroke-width="0" fill="#1f77b4" fill-opacity="0.5" /><path d="M 169 323.25 C 259 323.25 259 326.25 349 326.25 L 349 492 C 259 492 259 492 169 492 Z" stroke="none" stroke-width="0" fill="#1f77b4" fill-opacity="0.5" /><path d="M 369 42 C 459 42 459 42 549 42 L 549 263 C 459 263 459 263 369 263 Z" stroke="none" stroke-width="0" fill="#ff7f0e" fill-opacity="0.5" /><path d="M 369 326.25 C 459 326.25 459 263 549 263 L 549 318.25 C 459 318.25 459 381.5 369 381.5 Z" stroke="none" stroke-width="0" fill="#2ca02c" fill-opacity="0.5" /><path d="M 369 263 C 459 263 459 326.25 549 326.25 L 549 381.5 C 459 381.5 459 318.25 369 318.25 Z" stroke="none" stroke-width="0" fill="#ff7f0e" fill-opacity="0.5" /><path d="M 369 381.5 C 459 381.5 459 381.5 549 381.5 L 549 492 C 459 492 459 492 369 492 Z" stroke="none" stroke-width="0" fill="#2ca02c" fill-opacity="0.5" /></svg>