<svg xmlns="http://www.w3.org/2000/svg" width="673" height="541" fill="black"><rect width="100%" height="100%" fill="white" /><defs><linearGradient id="grad_0" x1="0%" y1="0%" x2="100%" y2="0%"><stop offset="0%" stop-color="#e41a1c"/><stop offset="100%" stop-color="#377eb8"/></linearGradient><linearGradient id="grad_1" x1="0%" y1="0%" x2="100%" y2="0%"><stop offset="0%" stop-color="#e41a1c"/><stop offset="100%" stop-color="#4daf4a"/></linearGradient><linearGradient id="grad_2" x1="0%" y1="0%" x2="100%" y2="0%"><stop offset="0%" stop-color="#e41a1c"/><stop offset="100%" stop-color="#ff7f00"/></linearGradient><linearGradient id="grad_3" x1="0%" y1="0%" x2="100%" y2="0%"><stop offset="0%" stop-color="#377eb8"/><stop offset="100%" stop-color="#984ea3"/></linearGradient><linearGradient id="grad_4" x1="0%" y1="0%" x2="100%" y2="0%"><stop offset="0%" stop-color="#4daf4a"/><stop offset="100%" stop-color="#984ea3"/></linearGradient><linearGradient id="grad_5" x1="0%" y1="0%" x2="100%" y2="0%"><stop offset="0%" stop-color="#ff7f00"/><stop offset="100%" stop-color="#984ea3"/></linearGradient><linearGradient id="grad_6" x1="0%" y1="0%" x2="100%" y2="0%"><stop offset="0%" stop-color="#377eb8"/><stop offset="100%" stop-color="#a65628"/></linearGradient><linearGradient id="grad_7" x1="0%" y1="0%" x2="100%" y2="0%"><stop offset="0%" stop-color="#4daf4a"/><stop offset="100%" stop-color="#a65628"/></linearGradient><linearGradient id="grad_8" x1="0%" y1="0%" x2="100%" y2="0%"><stop offset="0%" stop-color="#ff7f00"/><stop offset="100%" stop-color="#a65628"/></linearGradient></defs><text x="336.5" y="21" font-size="16" text-anchor="middle">Budget Allocation — Gradient Ribbons</text><rect x="149" y="42" width="20" height="450" fill="#e41a1c" /><text x="143" y="271.2" font-size="12" text-anchor="end">Budget</text><rect x="349" y="42" width="20" height="173.60000000000002" fill="#377eb8" /><text x="375" y="133" font-size="12" text-anchor="start">R&amp;D</text><rect x="349" y="223.60000000000002" width="20" height="108.5" fill="#4daf4a" /><text x="375" y="282.05" font-size="12" text-anchor="start">Marketing</text><rect x="349" y="340.1" width="20" height="151.89999999999998" fill="#ff7f00" /><text x="375" y="420.25" font-size="12" text-anchor="start">Ops</text><rect x="549" y="42" width="20" height="265.2" fill="#984ea3" /><text x="575" y="178.79999999999998" font-size="12" text-anchor="start">Product A</text><rect x="549" y="315.2" width="20" height="176.8" fill="#a65628" /><text x="575" y="407.8" font-size="12" text-anchor="start">Product B</text><path d="M 169 42 C 259 42 259 42 349 42 L 349 215.60000000000002 C 259 215.60000000000002 259 222 169 222 Z" stroke="none" stroke-width="0" fill="url(#grad_0)" fill-opacity="0.6" /><path d="M 169 222 C 259 222 259 223.60000000000002 349 223.60000000000002 L 349 332.1 C 259 332.1 259 334.5 169 334.5 Z" stroke="none" stroke-width="0" fill="url(#grad_1)" fill-opacity="0.6" /><path d="M 169 334.5 C 259 334.5 259 340.1 349 340.1 L 349 492 C 259 492 259 492 169 492 Z" stroke="none" stroke-width="0" fill="url(#grad_2)" fill-opacity="0.6" /><path d="M 369 42 C 459 42 459 42 549 42 L 549 152.5 C 459 152.5 459 150.5 369 150.5 Z" stroke="none" stroke-width="0" fill="url(#grad_3)" fill-opacity="0.6" /><path d="M 369 223.60000000000002 C 459 223.60000000000002 459 152.5 549 152.5 L 549 218.8 C 459 218.8 459 288.70000000000005 369 288.70000000000005 Z" stroke="none" stroke-width="0" fill="url(#grad_4)" fill-opacity="0.6" /><path d="M 369 340.1 C 459 340.1 459 218.8 549 218.8 L 549 307.2 C 459 307.2 459 426.9 369 426.9 Z" stroke="none" stroke-width="0" fill="url(#grad_5)" fill-opacity="0.6" /><path d="M 369 150.5 C 459 150.5 459 315.2 549 315.2 L 549 381.5 C 459 381.5 459 215.60000000000002 369 215.60000000000002 Z" stroke="none" stroke-width="0" fill="url(#grad_6)" fill-opacity="0.6" /><path d="M 369 288.70000000000005 C 459 288.70000000000005 459 381.5 549 381.5 L 549 425.7 C 459 425.7 459 332.1 369 332.1 Z" stroke="none" stroke-width="0" fill="url(#grad_7)" fill-opacity="0.6" /><path d="M 369 426.9 C 459 426.9 459 425.7 549 425.7 L 549 492 C 459 492 459 491.99999999999994 369 491.99999999999994 Z" stroke="none" stroke-width="0" fill="url(#grad_8)" fill-opacity="0.6" /></svg>