<svg xmlns="http://www.w3.org/2000/svg" width="771" height="541" fill="black"><rect width="100%" height="100%" fill="white" /><text x="385.5" y="21" font-size="16" text-anchor="middle">Node Colors &amp; Legend</text><rect x="147" y="42" width="24" height="450" fill="#888888" /><text x="141" y="271.2" font-size="12" text-anchor="end">Input</text><rect x="347" y="42" width="24" height="252.57142857142856" fill="#377eb8" /><text x="377" y="172.48571428571427" font-size="12" text-anchor="start">Process A</text><rect x="347" y="302.57142857142856" width="24" height="189.42857142857142" fill="#4daf4a" /><text x="377" y="401.48571428571427" font-size="12" text-anchor="start">Process B</text><rect x="547" y="42" width="24" height="450" fill="#984ea3" /><text x="577" y="271.2" font-size="12" text-anchor="start">Output</text><path d="M 171 42 C 259 42 259 42 347 42 L 347 294.57142857142856 C 259 294.57142857142856 259 299.1428571428571 171 299.1428571428571 Z" stroke="none" stroke-width="0" fill="#888888" fill-opacity="0.5" /><path d="M 171 299.1428571428571 C 259 299.1428571428571 259 302.57142857142856 347 302.57142857142856 L 347 492 C 259 492 259 491.99999999999994 171 491.99999999999994 Z" stroke="none" stroke-width="0" fill="#888888" fill-opacity="0.5" /><path d="M 371 42 C 459 42 459 42 547 42 L 547 304.5 C 459 304.5 459 294.57142857142856 371 294.57142857142856 Z" stroke="none" stroke-width="0" fill="#377eb8" fill-opacity="0.5" /><path d="M 371 302.57142857142856 C 459 302.57142857142856 459 304.5 547 304.5 L 547 492 C 459 492 459 492 371 492 Z" stroke="none" stroke-width="0" fill="#4daf4a" fill-opacity="0.5" /><rect x="664" y="32" width="98" height="92" fill="white" /><rect x="664" y="32" width="98" height="92" fill="none" stroke="black" stroke-width="1" /><text x="694" y="47" font-size="12" text-anchor="start">Input</text><rect x="674" y="37" width="12" height="12" fill="#888888" /><text x="694" y="65" font-size="12" text-anchor="start">Process A</text><rect x="674" y="55" width="12" height="12" fill="#377eb8" /><text x="694" y="83" font-size="12" text-anchor="start">Process B</text><rect x="674" y="73" width="12" height="12" fill="#4daf4a" /><text x="694" y="101" font-size="12" text-anchor="start">Output</text><rect x="674" y="91" width="12" height="12" fill="#984ea3" /></svg>