<svg xmlns="http://www.w3.org/2000/svg" width="792" height="541" fill="black"><rect width="100%" height="100%" fill="white" /><text x="396" y="21" font-size="16" text-anchor="middle">Variant Filtering Pipeline</text><rect x="124" y="42" width="20" height="450" fill="#888888" /><text x="118" y="271.2" font-size="12" text-anchor="end">Raw Variants</text><rect x="274" y="42" width="20" height="353.6" fill="#4daf4a" /><text x="300" y="223" font-size="12" text-anchor="start">QC Pass</text><rect x="274" y="403.6" width="20" height="88.4" fill="#e41a1c" /><text x="300" y="452" font-size="12" text-anchor="start">QC Fail</text><rect x="424" y="42" width="20" height="331.5" fill="#377eb8" /><text x="450" y="211.95" font-size="12" text-anchor="start">High Conf</text><rect x="424" y="381.5" width="20" height="110.5" fill="#ff7f00" /><text x="450" y="440.95" font-size="12" text-anchor="start">Low Conf</text><rect x="574" y="42" width="20" height="287.525" fill="#984ea3" /><text x="600" y="189.96249999999998" font-size="12" text-anchor="start">SNP</text><rect x="574" y="337.525" width="20" height="65.1" fill="#a65628" /><text x="600" y="374.275" font-size="12" text-anchor="start">Indel</text><rect x="574" y="410.625" width="20" height="81.375" fill="#cccccc" /><text x="600" y="455.5125" font-size="12" text-anchor="start">Filtered Out</text><path d="M 144 42 C 209 42 209 42 274 42 L 274 395.6 C 209 395.6 209 402 144 402 Z" stroke="none" stroke-width="0" fill="#888888" fill-opacity="0.45" /><path d="M 144 402 C 209 402 209 403.6 274 403.6 L 274 492 C 209 492 209 492 144 492 Z" stroke="none" stroke-width="0" fill="#888888" fill-opacity="0.45" /><path d="M 294 42 C 359 42 359 42 424 42 L 424 373.5 C 359 373.5 359 307.20000000000005 294 307.20000000000005 Z" stroke="none" stroke-width="0" fill="#4daf4a" fill-opacity="0.45" /><path d="M 294 307.20000000000005 C 359 307.20000000000005 359 381.5 424 381.5 L 424 492 C 359 492 359 395.6 294 395.6 Z" stroke="none" stroke-width="0" fill="#4daf4a" fill-opacity="0.45" /><path d="M 444 42 C 509 42 509 42 574 42 L 574 286.125 C 509 286.125 509 290.625 444 290.625 Z" stroke="none" stroke-width="0" fill="#377eb8" fill-opacity="0.45" /><path d="M 444 381.5 C 509 381.5 509 286.125 574 286.125 L 574 329.525 C 509 329.525 509 425.7 444 425.7 Z" stroke="none" stroke-width="0" fill="#ff7f00" fill-opacity="0.45" /><path d="M 444 290.625 C 509 290.625 509 337.525 574 337.525 L 574 402.625 C 509 402.625 509 356.925 444 356.925 Z" stroke="none" stroke-width="0" fill="#377eb8" fill-opacity="0.45" /><path d="M 444 356.925 C 509 356.925 509 410.625 574 410.625 L 574 426.9 C 509 426.9 509 373.5 444 373.5 Z" stroke="none" stroke-width="0" fill="#377eb8" fill-opacity="0.45" /><path d="M 444 425.7 C 509 425.7 509 426.9 574 426.9 L 574 492 C 509 492 509 492 444 492 Z" stroke="none" stroke-width="0" fill="#ff7f00" fill-opacity="0.45" /><rect x="664" y="32" width="119" height="164" fill="white" /><rect x="664" y="32" width="119" height="164" fill="none" stroke="black" stroke-width="1" /><text x="694" y="47" font-size="12" text-anchor="start">Raw Variants</text><rect x="674" y="37" width="12" height="12" fill="#888888" /><text x="694" y="65" font-size="12" text-anchor="start">QC Pass</text><rect x="674" y="55" width="12" height="12" fill="#4daf4a" /><text x="694" y="83" font-size="12" text-anchor="start">QC Fail</text><rect x="674" y="73" width="12" height="12" fill="#e41a1c" /><text x="694" y="101" font-size="12" text-anchor="start">High Conf</text><rect x="674" y="91" width="12" height="12" fill="#377eb8" /><text x="694" y="119" font-size="12" text-anchor="start">Low Conf</text><rect x="674" y="109" width="12" height="12" fill="#ff7f00" /><text x="694" y="137" font-size="12" text-anchor="start">SNP</text><rect x="674" y="127" width="12" height="12" fill="#984ea3" /><text x="694" y="155" font-size="12" text-anchor="start">Indel</text><rect x="674" y="145" width="12" height="12" fill="#a65628" /><text x="694" y="173" font-size="12" text-anchor="start">Filtered Out</text><rect x="674" y="163" width="12" height="12" fill="#cccccc" /></svg>