<svg xmlns="http://www.w3.org/2000/svg" width="792" height="517" fill="black"><rect width="100%" height="100%" fill="white" /><line x1="59" y1="492" x2="659" y2="492" stroke="black" stroke-width="1" /><line x1="59" y1="42" x2="59" y2="492" stroke="black" stroke-width="1" /><line x1="54" y1="492" x2="59" y2="492" stroke="black" stroke-width="1" /><text x="51" y="495.5" font-size="10" text-anchor="end">0</text><line x1="54" y1="451.09090909090907" x2="59" y2="451.09090909090907" stroke="black" stroke-width="1" /><text x="51" y="454.59090909090907" font-size="10" text-anchor="end">1</text><line x1="54" y1="410.1818181818182" x2="59" y2="410.1818181818182" stroke="black" stroke-width="1" /><text x="51" y="413.6818181818182" font-size="10" text-anchor="end">2</text><line x1="54" y1="369.27272727272725" x2="59" y2="369.27272727272725" stroke="black" stroke-width="1" /><text x="51" y="372.77272727272725" font-size="10" text-anchor="end">3</text><line x1="54" y1="328.3636363636364" x2="59" y2="328.3636363636364" stroke="black" stroke-width="1" /><text x="51" y="331.8636363636364" font-size="10" text-anchor="end">4</text><line x1="54" y1="287.4545454545455" x2="59" y2="287.4545454545455" stroke="black" stroke-width="1" /><text x="51" y="290.9545454545455" font-size="10" text-anchor="end">5</text><line x1="54" y1="246.54545454545456" x2="59" y2="246.54545454545456" stroke="black" stroke-width="1" /><text x="51" y="250.04545454545456" font-size="10" text-anchor="end">6</text><line x1="54" y1="205.63636363636363" x2="59" y2="205.63636363636363" stroke="black" stroke-width="1" /><text x="51" y="209.13636363636363" font-size="10" text-anchor="end">7</text><line x1="54" y1="164.7272727272727" x2="59" y2="164.7272727272727" stroke="black" stroke-width="1" /><text x="51" y="168.2272727272727" font-size="10" text-anchor="end">8</text><line x1="54" y1="123.81818181818181" x2="59" y2="123.81818181818181" stroke="black" stroke-width="1" /><text x="51" y="127.31818181818181" font-size="10" text-anchor="end">9</text><line x1="54" y1="82.90909090909093" x2="59" y2="82.90909090909093" stroke="black" stroke-width="1" /><text x="51" y="86.40909090909093" font-size="10" text-anchor="end">10</text><line x1="54" y1="42" x2="59" y2="42" stroke="black" stroke-width="1" /><text x="51" y="45.5" font-size="10" text-anchor="end">11</text><text x="14" y="258.5" font-size="14" text-anchor="middle" transform="rotate(-90,14,258.5)">−log₁₀(p-value)</text><text x="396" y="21" font-size="16" text-anchor="middle">Manhattan — Custom Genome Build</text><line x1="59" y1="193.32150017738257" x2="659" y2="193.32150017738257" stroke="#cc3333" stroke-width="1" stroke-dasharray="4 4" /><line x1="59" y1="287.4545454545455" x2="659" y2="287.4545454545455" stroke="#888888" stroke-width="1" stroke-dasharray="4 4" /><line x1="239" y1="42" x2="239" y2="492" stroke="#ccc" stroke-width="0.5" /><line x1="381.5" y1="42" x2="381.5" y2="492" stroke="#ccc" stroke-width="0.5" /><line x1="501.5" y1="42" x2="501.5" y2="492" stroke="#ccc" stroke-width="0.5" /><circle cx="60.5" cy="463.5860457438785" r="2.5" fill="#4477AA" /><circle cx="63.5" cy="473.0379038863158" r="2.5" fill="#4477AA" /><circle cx="66.5" cy="463.14135855927304" r="2.5" fill="#4477AA" /><circle cx="69.5" cy="474.3637286364505" r="2.5" fill="#4477AA" /><circle cx="72.5" cy="467.87870892266983" r="2.5" fill="#4477AA" /><circle cx="75.5" cy="462.20928378098" r="2.5" fill="#4477AA" /><circle cx="78.5" cy="445.29076738149416" r="2.5" fill="#4477AA" /><circle cx="81.5" cy="470.824282378099" r="2.5" fill="#4477AA" /><circle cx="84.5" cy="477.6464377815911" r="2.5" fill="#4477AA" /><circle cx="87.5" cy="466.1324824958015" r="2.5" fill="#4477AA" /><circle cx="90.5" cy="473.6882069987155" r="2.5" fill="#4477AA" /><circle cx="93.5" cy="463.9477398969265" r="2.5" fill="#4477AA" /><circle cx="96.5" cy="468.40564069022815" r="2.5" fill="#4477AA" /><circle cx="99.5" cy="466.7744079079333" r="2.5" fill="#4477AA" /><circle cx="102.5" cy="476.31578127407295" r="2.5" fill="#4477AA" /><circle cx="105.5" cy="467.57589365220406" r="2.5" fill="#4477AA" /><circle cx="108.5" cy="441.03614098179787" r="2.5" fill="#4477AA" /><circle cx="111.5" cy="473.9439967764044" r="2.5" fill="#4477AA" /><circle cx="114.5" cy="473.8439466336108" r="2.5" fill="#4477AA" /><circle cx="117.5" cy="469.87163542794394" r="2.5" fill="#4477AA" /><circle cx="120.5" cy="467.56551529603837" r="2.5" fill="#4477AA" /><circle cx="123.5" cy="475.36256825049963" r="2.5" fill="#4477AA" /><circle cx="126.5" cy="453.0271558635078" r="2.5" fill="#4477AA" /><circle cx="129.5" cy="473.20514294843275" r="2.5" fill="#4477AA" /><circle cx="132.5" cy="466.99953079915815" r="2.5" fill="#4477AA" /><circle cx="135.5" cy="453.4835843945648" r="2.5" fill="#4477AA" /><circle cx="138.5" cy="458.7996077121744" r="2.5" fill="#4477AA" /><circle cx="141.5" cy="462.73269175885264" r="2.5" fill="#4477AA" /><circle cx="144.5" cy="473.8058499928441" r="2.5" fill="#4477AA" /><circle cx="147.5" cy="476.59724976822366" r="2.5" fill="#4477AA" /><circle cx="150.5" cy="459.71503086692394" r="2.5" fill="#4477AA" /><circle cx="153.5" cy="468.43656046346064" r="2.5" fill="#4477AA" /><circle cx="156.5" cy="474.28469147301234" r="2.5" fill="#4477AA" /><circle cx="159.5" cy="472.6102013321258" r="2.5" fill="#4477AA" /><circle cx="162.5" cy="461.9646067444485" r="2.5" fill="#4477AA" /><circle cx="165.5" cy="443.7481347766607" r="2.5" fill="#4477AA" /><circle cx="168.5" cy="473.6897324378125" r="2.5" fill="#4477AA" /><circle cx="171.5" cy="472.7706369721453" r="2.5" fill="#4477AA" /><circle cx="174.5" cy="471.92223628266646" r="2.5" fill="#4477AA" /><circle cx="177.5" cy="449.47396171115463" r="2.5" fill="#4477AA" /><circle cx="180.5" cy="466.51368307645043" r="2.5" fill="#4477AA" /><circle cx="183.5" cy="445.7726753407447" r="2.5" fill="#4477AA" /><circle cx="186.5" cy="476.1195199296616" r="2.5" fill="#4477AA" /><circle cx="189.5" cy="475.2216227595173" r="2.5" fill="#4477AA" /><circle cx="192.5" cy="463.07654798196023" r="2.5" fill="#4477AA" /><circle cx="195.5" cy="463.6963701544014" r="2.5" fill="#4477AA" /><circle cx="198.5" cy="459.82214520968387" r="2.5" fill="#4477AA" /><circle cx="201.5" cy="472.922019264263" r="2.5" fill="#4477AA" /><circle cx="204.5" cy="466.7025434097432" r="2.5" fill="#4477AA" /><circle cx="207.5" cy="469.1482116436737" r="2.5" fill="#4477AA" /><circle cx="210.5" cy="466.37571395853683" r="2.5" fill="#4477AA" /><circle cx="213.5" cy="456.3796952344413" r="2.5" fill="#4477AA" /><circle cx="216.5" cy="476.914684821004" r="2.5" fill="#4477AA" /><circle cx="219.5" cy="473.4475045981449" r="2.5" fill="#4477AA" /><circle cx="222.5" cy="467.16354590296265" r="2.5" fill="#4477AA" /><circle cx="225.50000000000003" cy="439.3477077033742" r="2.5" fill="#4477AA" /><circle cx="228.49999999999997" cy="470.8366954647243" r="2.5" fill="#4477AA" /><circle cx="231.5" cy="475.60291997379016" r="2.5" fill="#4477AA" /><circle cx="234.5" cy="476.7831389609543" r="2.5" fill="#4477AA" /><circle cx="237.5" cy="473.40915678131034" r="2.5" fill="#4477AA" /><circle cx="240.187499" cy="452.58197334191266" r="2.5" fill="#EE6677" /><circle cx="242.5624985" cy="459.44302804065654" r="2.5" fill="#EE6677" /><circle cx="244.93749799999998" cy="447.3082971862405" r="2.5" fill="#EE6677" /><circle cx="247.31249749999998" cy="477.77684958735347" r="2.5" fill="#EE6677" /><circle cx="249.68749699999998" cy="449.7143790627318" r="2.5" fill="#EE6677" /><circle cx="252.0624965" cy="472.17211251659626" r="2.5" fill="#EE6677" /><circle cx="254.437496" cy="440.7542981661331" r="2.5" fill="#EE6677" /><circle cx="256.8124955" cy="474.05216756582064" r="2.5" fill="#EE6677" /><circle cx="259.187495" cy="457.45125120500376" r="2.5" fill="#EE6677" /><circle cx="261.5624945" cy="477.29642337874674" r="2.5" fill="#EE6677" /><circle cx="263.937494" cy="454.7449738798285" r="2.5" fill="#EE6677" /><circle cx="266.31249349999996" cy="474.83248455533607" r="2.5" fill="#EE6677" /><circle cx="268.687493" cy="476.9462878091735" r="2.5" fill="#EE6677" /><circle cx="271.06249249999996" cy="473.5644998785515" r="2.5" fill="#EE6677" /><circle cx="273.437492" cy="477.5877003139996" r="2.5" fill="#EE6677" /><circle cx="275.8124915" cy="471.6896562772494" r="2.5" fill="#EE6677" /><circle cx="278.187491" cy="474.0100457195548" r="2.5" fill="#EE6677" /><circle cx="280.56249049999997" cy="454.9817530442692" r="2.5" fill="#EE6677" /><circle cx="282.93749" cy="467.29253852657934" r="2.5" fill="#EE6677" /><circle cx="285.31248949999997" cy="445.18977531441885" r="2.5" fill="#EE6677" /><circle cx="287.687489" cy="453.44567987828646" r="2.5" fill="#EE6677" /><circle cx="290.0624885" cy="460.15258954729507" r="2.5" fill="#EE6677" /><circle cx="292.43748800000003" cy="454.55852658353336" r="2.5" fill="#EE6677" /><circle cx="294.8124875" cy="460.7163302127653" r="2.5" fill="#EE6677" /><circle cx="297.187487" cy="133.98332818773213" r="2.5" fill="#EE6677" /><circle cx="299.5624865" cy="126.53201939735055" r="2.5" fill="#EE6677" /><circle cx="301.93748600000004" cy="139.93761750202026" r="2.5" fill="#EE6677" /><circle cx="304.3124855" cy="132.17074682546712" r="2.5" fill="#EE6677" /><circle cx="306.68748500000004" cy="113.0822061970087" r="2.5" fill="#EE6677" /><circle cx="309.0624845" cy="125.28949303775164" r="2.5" fill="#EE6677" /><circle cx="311.43748400000004" cy="132.81273799203802" r="2.5" fill="#EE6677" /><circle cx="313.8124835" cy="134.80717957122692" r="2.5" fill="#EE6677" /><circle cx="316.187483" cy="120.60049742982198" r="2.5" fill="#EE6677" /><circle cx="318.5624825" cy="462.38219495369304" r="2.5" fill="#EE6677" /><circle cx="320.937482" cy="469.1378860363448" r="2.5" fill="#EE6677" /><circle cx="323.3124815" cy="461.96958103320446" r="2.5" fill="#EE6677" /><circle cx="325.687481" cy="457.2619431466113" r="2.5" fill="#EE6677" /><circle cx="328.0624805" cy="442.1204278967015" r="2.5" fill="#EE6677" /><circle cx="330.43748" cy="466.88629878498676" r="2.5" fill="#EE6677" /><circle cx="332.8124795" cy="458.85956153768615" r="2.5" fill="#EE6677" /><circle cx="335.187479" cy="476.96130182512593" r="2.5" fill="#EE6677" /><circle cx="337.5624785" cy="477.1258280072988" r="2.5" fill="#EE6677" /><circle cx="339.937478" cy="473.5314391399929" r="2.5" fill="#EE6677" /><circle cx="342.3124775" cy="458.0182003537549" r="2.5" fill="#EE6677" /><circle cx="344.687477" cy="475.87706361028194" r="2.5" fill="#EE6677" /><circle cx="347.0624765" cy="475.9376089878443" r="2.5" fill="#EE6677" /><circle cx="349.437476" cy="474.19799019865917" r="2.5" fill="#EE6677" /><circle cx="351.8124755" cy="446.4387465984848" r="2.5" fill="#EE6677" /><circle cx="354.187475" cy="458.02941799820985" r="2.5" fill="#EE6677" /><circle cx="356.5624745" cy="444.1000450386092" r="2.5" fill="#EE6677" /><circle cx="358.937474" cy="469.70322709257385" r="2.5" fill="#EE6677" /><circle cx="361.31247349999995" cy="455.62517868256737" r="2.5" fill="#EE6677" /><circle cx="363.687473" cy="476.06379026589013" r="2.5" fill="#EE6677" /><circle cx="366.0624725" cy="476.3225772221295" r="2.5" fill="#EE6677" /><circle cx="368.437472" cy="474.7389527076617" r="2.5" fill="#EE6677" /><circle cx="370.8124715" cy="442.3715339470502" r="2.5" fill="#EE6677" /><circle cx="373.187471" cy="452.3145700051255" r="2.5" fill="#EE6677" /><circle cx="375.5624705" cy="476.7021154049744" r="2.5" fill="#EE6677" /><circle cx="377.93747" cy="446.6749813443495" r="2.5" fill="#EE6677" /><circle cx="380.3124695" cy="454.0067954008156" r="2.5" fill="#EE6677" /><circle cx="382.499999" cy="474.06497329401435" r="2.5" fill="#228833" /><circle cx="384.4999985" cy="459.5154235104364" r="2.5" fill="#228833" /><circle cx="386.499998" cy="465.9664655614716" r="2.5" fill="#228833" /><circle cx="388.4999975" cy="466.2573839409494" r="2.5" fill="#228833" /><circle cx="390.499997" cy="477.70303356897153" r="2.5" fill="#228833" /><circle cx="392.4999965" cy="447.15632636766736" r="2.5" fill="#228833" /><circle cx="394.499996" cy="474.1148761649691" r="2.5" fill="#228833" /><circle cx="396.4999955" cy="457.27271625591277" r="2.5" fill="#228833" /><circle cx="398.499995" cy="467.5894371856839" r="2.5" fill="#228833" /><circle cx="400.49999449999996" cy="471.4565799101947" r="2.5" fill="#228833" /><circle cx="402.49999399999996" cy="473.5724718883852" r="2.5" fill="#228833" /><circle cx="404.49999349999996" cy="477.21520013447144" r="2.5" fill="#228833" /><circle cx="406.49999299999996" cy="475.281878406282" r="2.5" fill="#228833" /><circle cx="408.49999249999996" cy="477.2460310853941" r="2.5" fill="#228833" /><circle cx="410.499992" cy="461.8650386189916" r="2.5" fill="#228833" /><circle cx="412.4999915" cy="470.13090477016414" r="2.5" fill="#228833" /><circle cx="414.499991" cy="473.2736820805262" r="2.5" fill="#228833" /><circle cx="416.4999905" cy="471.1137573608876" r="2.5" fill="#228833" /><circle cx="418.49999" cy="445.1616607856281" r="2.5" fill="#228833" /><circle cx="420.4999895" cy="475.53467398539556" r="2.5" fill="#228833" /><circle cx="422.499989" cy="443.90203798659394" r="2.5" fill="#228833" /><circle cx="424.49998850000003" cy="476.90645937552796" r="2.5" fill="#228833" /><circle cx="426.49998800000003" cy="447.7647291405946" r="2.5" fill="#228833" /><circle cx="428.4999875" cy="475.82676238045036" r="2.5" fill="#228833" /><circle cx="430.499987" cy="462.1414691425183" r="2.5" fill="#228833" /><circle cx="432.4999865" cy="458.96499173784144" r="2.5" fill="#228833" /><circle cx="434.499986" cy="464.87570513255423" r="2.5" fill="#228833" /><circle cx="436.4999855" cy="458.9153510963629" r="2.5" fill="#228833" /><circle cx="438.499985" cy="440.6043407028438" r="2.5" fill="#228833" /><circle cx="440.4999845" cy="464.60488310037516" r="2.5" fill="#228833" /><circle cx="442.499984" cy="477.04266200325173" r="2.5" fill="#228833" /><circle cx="444.4999835" cy="467.35835208093346" r="2.5" fill="#228833" /><circle cx="446.49998300000004" cy="463.2954650965831" r="2.5" fill="#228833" /><circle cx="448.49998250000004" cy="451.20595176162556" r="2.5" fill="#228833" /><circle cx="450.49998200000005" cy="472.54683424150005" r="2.5" fill="#228833" /><circle cx="452.49998150000005" cy="467.45257576594645" r="2.5" fill="#228833" /><circle cx="454.499981" cy="449.30459499718785" r="2.5" fill="#228833" /><circle cx="456.4999805" cy="457.6685657039804" r="2.5" fill="#228833" /><circle cx="458.49998" cy="468.7263210641643" r="2.5" fill="#228833" /><circle cx="460.4999795" cy="470.1244245928754" r="2.5" fill="#228833" /><circle cx="462.499979" cy="466.49278271529346" r="2.5" fill="#228833" /><circle cx="464.4999785" cy="471.071314171179" r="2.5" fill="#228833" /><circle cx="466.499978" cy="454.8801465459301" r="2.5" fill="#228833" /><circle cx="468.4999775" cy="476.75490097422943" r="2.5" fill="#228833" /><circle cx="470.499977" cy="475.3395888316701" r="2.5" fill="#228833" /><circle cx="472.4999765" cy="474.60943394958036" r="2.5" fill="#228833" /><circle cx="474.499976" cy="454.6613495502893" r="2.5" fill="#228833" /><circle cx="476.4999755" cy="456.66776817908953" r="2.5" fill="#228833" /><circle cx="478.499975" cy="476.82193539472684" r="2.5" fill="#228833" /><circle cx="480.4999745" cy="467.8221590811714" r="2.5" fill="#228833" /><circle cx="482.49997399999995" cy="444.9492747034027" r="2.5" fill="#228833" /><circle cx="484.49997349999995" cy="439.1098351583806" r="2.5" fill="#228833" /><circle cx="486.49997299999995" cy="448.05619435884853" r="2.5" fill="#228833" /><circle cx="488.49997249999996" cy="477.2260298920684" r="2.5" fill="#228833" /><circle cx="490.499972" cy="455.9438201246085" r="2.5" fill="#228833" /><circle cx="492.4999715" cy="476.44831738515336" r="2.5" fill="#228833" /><circle cx="494.499971" cy="447.2142614835661" r="2.5" fill="#228833" /><circle cx="496.4999705" cy="445.364686829218" r="2.5" fill="#228833" /><circle cx="498.49997" cy="467.44149796766203" r="2.5" fill="#228833" /><circle cx="500.4999695" cy="465.1363989315344" r="2.5" fill="#228833" /><circle cx="502.1874995" cy="448.7423526722624" r="2.5" fill="#CCBB44" /><circle cx="503.5624985" cy="467.6030321604226" r="2.5" fill="#CCBB44" /><circle cx="504.9374975" cy="445.2598516645874" r="2.5" fill="#CCBB44" /><circle cx="506.3124965" cy="440.9916386109691" r="2.5" fill="#CCBB44" /><circle cx="507.6874955" cy="448.85967362018715" r="2.5" fill="#CCBB44" /><circle cx="509.0624945" cy="442.00721864060614" r="2.5" fill="#CCBB44" /><circle cx="510.4374935" cy="474.05315074837216" r="2.5" fill="#CCBB44" /><circle cx="511.8124925" cy="458.5895130540196" r="2.5" fill="#CCBB44" /><circle cx="513.1874915000001" cy="472.3486434638362" r="2.5" fill="#CCBB44" /><circle cx="514.5624905" cy="473.7125641679579" r="2.5" fill="#CCBB44" /><circle cx="515.9374895000001" cy="466.7052746212269" r="2.5" fill="#CCBB44" /><circle cx="517.3124885" cy="470.6150380068702" r="2.5" fill="#CCBB44" /><circle cx="518.6874875000001" cy="445.20596448394707" r="2.5" fill="#CCBB44" /><circle cx="520.0624865" cy="462.0495957742309" r="2.5" fill="#CCBB44" /><circle cx="521.4374855000001" cy="472.09323065425076" r="2.5" fill="#CCBB44" /><circle cx="522.8124845" cy="470.9655325388695" r="2.5" fill="#CCBB44" /><circle cx="524.1874835" cy="466.86729054838725" r="2.5" fill="#CCBB44" /><circle cx="525.5624825" cy="475.37327318291426" r="2.5" fill="#CCBB44" /><circle cx="526.9374815" cy="451.8541196210982" r="2.5" fill="#CCBB44" /><circle cx="528.3124805" cy="458.3110871375559" r="2.5" fill="#CCBB44" /><circle cx="529.6874795" cy="466.7494392230691" r="2.5" fill="#CCBB44" /><circle cx="531.0624785" cy="465.5943616637293" r="2.5" fill="#CCBB44" /><circle cx="532.4374775" cy="461.48909301939705" r="2.5" fill="#CCBB44" /><circle cx="533.8124765" cy="458.9617781625596" r="2.5" fill="#CCBB44" /><circle cx="535.1874755" cy="466.65807899680306" r="2.5" fill="#CCBB44" /><circle cx="536.5624745" cy="460.27779612810656" r="2.5" fill="#CCBB44" /><circle cx="537.9374735" cy="460.5399868154493" r="2.5" fill="#CCBB44" /><circle cx="539.3124725" cy="463.0047309580875" r="2.5" fill="#CCBB44" /><circle cx="540.6874715" cy="460.50914143389986" r="2.5" fill="#CCBB44" /><circle cx="542.0624705" cy="463.93559831921175" r="2.5" fill="#CCBB44" /><circle cx="543.4374695" cy="469.67124252120743" r="2.5" fill="#CCBB44" /><circle cx="544.8124685" cy="476.68051849559134" r="2.5" fill="#CCBB44" /><circle cx="546.1874674999999" cy="463.0806996784489" r="2.5" fill="#CCBB44" /><circle cx="547.5624665" cy="464.26818975642107" r="2.5" fill="#CCBB44" /><circle cx="548.9374654999999" cy="440.13744645259527" r="2.5" fill="#CCBB44" /><circle cx="550.3124645" cy="466.87372139672607" r="2.5" fill="#CCBB44" /><circle cx="551.6874634999999" cy="441.2999188128289" r="2.5" fill="#CCBB44" /><circle cx="553.0624625" cy="455.83568216838165" r="2.5" fill="#CCBB44" /><circle cx="554.4374614999999" cy="444.14754185178424" r="2.5" fill="#CCBB44" /><circle cx="555.8124605" cy="466.77126651496405" r="2.5" fill="#CCBB44" /><circle cx="557.1874594999999" cy="462.74630699814867" r="2.5" fill="#CCBB44" /><circle cx="558.5624585" cy="474.8754975200715" r="2.5" fill="#CCBB44" /><circle cx="559.9374574999999" cy="465.4480269591722" r="2.5" fill="#CCBB44" /><circle cx="561.3124565" cy="441.01708833598565" r="2.5" fill="#CCBB44" /><circle cx="562.6874554999999" cy="451.9026361710918" r="2.5" fill="#CCBB44" /><circle cx="564.0624545000001" cy="466.7059469768184" r="2.5" fill="#CCBB44" /><circle cx="565.4374535" cy="467.3478030585885" r="2.5" fill="#CCBB44" /><circle cx="566.8124525" cy="440.47682145563664" r="2.5" fill="#CCBB44" /><circle cx="568.1874515" cy="472.897072231079" r="2.5" fill="#CCBB44" /><circle cx="569.5624505" cy="465.71602225967376" r="2.5" fill="#CCBB44" /><circle cx="570.9374495" cy="474.79594720133275" r="2.5" fill="#CCBB44" /><circle cx="572.3124485" cy="471.5227717974215" r="2.5" fill="#CCBB44" /><circle cx="573.6874475" cy="470.1542222820678" r="2.5" fill="#CCBB44" /><circle cx="575.0624465" cy="475.48916182001284" r="2.5" fill="#CCBB44" /><circle cx="576.4374455" cy="476.5345132080164" r="2.5" fill="#CCBB44" /><circle cx="577.8124445" cy="472.06275550511043" r="2.5" fill="#CCBB44" /><circle cx="579.1874435" cy="477.43770382934815" r="2.5" fill="#CCBB44" /><circle cx="580.5624425" cy="446.5894372740926" r="2.5" fill="#CCBB44" /><circle cx="581.9374415" cy="471.22831460899584" r="2.5" fill="#CCBB44" /><circle cx="583.3124405" cy="444.1660363030121" r="2.5" fill="#CCBB44" /><text x="149" y="507" font-size="10" text-anchor="middle">1</text><text x="310.25" y="507" font-size="10" text-anchor="middle">2</text><text x="441.5" y="507" font-size="10" text-anchor="middle">3</text><text x="542.75" y="507" font-size="10" text-anchor="middle">X</text><text x="299.5624865" y="122.03201939735055" font-size="12" text-anchor="middle">2</text><text x="304.3124855" y="108.03201939735055" font-size="12" text-anchor="middle">2</text><text x="306.68748500000004" y="94.03201939735055" font-size="12" text-anchor="middle">2</text><text x="309.0624845" y="120.78949303775164" font-size="12" text-anchor="middle">2</text><text x="311.43748400000004" y="106.78949303775164" font-size="12" text-anchor="middle">2</text><text x="316.187483" y="92.78949303775164" font-size="12" text-anchor="middle">2</text><rect x="664" y="32" width="119" height="56" fill="white" /><rect x="664" y="32" width="119" height="56" fill="none" stroke="black" stroke-width="1" /><text x="694" y="47" font-size="12" text-anchor="start">Genome-wide</text><line x1="674" y1="44" x2="686" y2="44" stroke="#cc3333" stroke-width="2" stroke-dasharray="4 4" /><text x="694" y="65" font-size="12" text-anchor="start">Suggestive</text><line x1="674" y1="62" x2="686" y2="62" stroke="#888888" stroke-width="2" stroke-dasharray="4 4" /></svg>