<svg xmlns="http://www.w3.org/2000/svg" width="673" height="517" fill="black"><rect width="100%" height="100%" fill="white" /><line x1="59" y1="492" x2="659" y2="492" stroke="black" stroke-width="1" /><line x1="59" y1="42" x2="59" y2="492" stroke="black" stroke-width="1" /><line x1="54" y1="492" x2="59" y2="492" stroke="black" stroke-width="1" /><text x="51" y="495.5" font-size="10" text-anchor="end">0</text><line x1="54" y1="447" x2="59" y2="447" stroke="black" stroke-width="1" /><text x="51" y="450.5" font-size="10" text-anchor="end">1</text><line x1="54" y1="402" x2="59" y2="402" stroke="black" stroke-width="1" /><text x="51" y="405.5" font-size="10" text-anchor="end">2</text><line x1="54" y1="357" x2="59" y2="357" stroke="black" stroke-width="1" /><text x="51" y="360.5" font-size="10" text-anchor="end">3</text><line x1="54" y1="312" x2="59" y2="312" stroke="black" stroke-width="1" /><text x="51" y="315.5" font-size="10" text-anchor="end">4</text><line x1="54" y1="267" x2="59" y2="267" stroke="black" stroke-width="1" /><text x="51" y="270.5" font-size="10" text-anchor="end">5</text><line x1="54" y1="222" x2="59" y2="222" stroke="black" stroke-width="1" /><text x="51" y="225.5" font-size="10" text-anchor="end">6</text><line x1="54" y1="177" x2="59" y2="177" stroke="black" stroke-width="1" /><text x="51" y="180.5" font-size="10" text-anchor="end">7</text><line x1="54" y1="132" x2="59" y2="132" stroke="black" stroke-width="1" /><text x="51" y="135.5" font-size="10" text-anchor="end">8</text><line x1="54" y1="87" x2="59" y2="87" stroke="black" stroke-width="1" /><text x="51" y="90.5" font-size="10" text-anchor="end">9</text><line x1="54" y1="42" x2="59" y2="42" stroke="black" stroke-width="1" /><text x="51" y="45.5" font-size="10" text-anchor="end">10</text><text x="14" y="258.5" font-size="14" text-anchor="middle" transform="rotate(-90,14,258.5)">−log₁₀(p-value)</text><text x="336.5" y="21" font-size="16" text-anchor="middle">Manhattan — Gene-name Labels</text><line x1="59" y1="163.45365019512087" x2="659" y2="163.45365019512087" stroke="#cc3333" stroke-width="1" stroke-dasharray="4 4" /><line x1="59" y1="267" x2="659" y2="267" stroke="#888888" stroke-width="1" stroke-dasharray="4 4" /><line x1="320.8181818181818" y1="42" x2="320.8181818181818" y2="492" stroke="#ccc" stroke-width="0.5" /><line x1="539" y1="42" x2="539" y2="492" stroke="#ccc" stroke-width="0.5" /><circle cx="80.81818181818181" cy="475.0462180679055" r="2.5" fill="steelblue" /><circle cx="102.63636363636363" cy="458.48726272964876" r="2.5" fill="steelblue" /><circle cx="124.45454545454545" cy="482.3398425754845" r="2.5" fill="steelblue" /><circle cx="146.27272727272725" cy="55.546349804879185" r="2.5" fill="steelblue" /><circle cx="168.0909090909091" cy="153.47045646238485" r="2.5" fill="steelblue" /><circle cx="189.9090909090909" cy="444.94091292476963" r="2.5" fill="steelblue" /><circle cx="211.72727272727272" cy="480.316321027241" r="2.5" fill="steelblue" /><circle cx="233.54545454545453" cy="470.33312729450495" r="2.5" fill="steelblue" /><circle cx="320.8181818181818" cy="485.3066256923584" r="2.5" fill="#5aadcb" /><circle cx="342.6363636363636" cy="464.9073003902417" r="2.5" fill="#5aadcb" /><circle cx="364.45454545454544" cy="118.45365019512087" r="2.5" fill="#5aadcb" /><circle cx="386.27272727272725" cy="159.0926996097583" r="2.5" fill="#5aadcb" /><circle cx="408.09090909090907" cy="452.12745085380766" r="2.5" fill="#5aadcb" /><circle cx="429.9090909090909" cy="477.6558556819014" r="2.5" fill="#5aadcb" /><circle cx="539" cy="482.65762602742143" r="2.5" fill="steelblue" /><circle cx="560.8181818181818" cy="473.09026184775644" r="2.5" fill="steelblue" /><circle cx="582.6363636363636" cy="153.47045646238485" r="2.5" fill="steelblue" /><circle cx="604.4545454545454" cy="87" r="2.5" fill="steelblue" /><circle cx="626.2727272727273" cy="440.0294118006416" r="2.5" fill="steelblue" /><circle cx="648.0909090909091" cy="478.84065792440714" r="2.5" fill="steelblue" /><text x="157.1818181818182" y="507" font-size="10" text-anchor="middle">1</text><text x="375.3636363636363" y="507" font-size="10" text-anchor="middle">2</text><text x="593.5454545454545" y="507" font-size="10" text-anchor="middle">3</text><line x1="156.27272727272725" y1="41.546349804879185" x2="149.46953733818228" y2="51.07081571324214" stroke="#666666" stroke-width="0.8" /><text x="156.27272727272725" y="41.546349804879185" font-size="12" text-anchor="start">BRCA2</text><line x1="614.4545454545454" y1="73" x2="607.6513555200004" y2="82.52446590836296" stroke="#666666" stroke-width="0.8" /><text x="614.4545454545454" y="73" font-size="12" text-anchor="start">EGFR</text><line x1="374.45454545454544" y1="104.45365019512087" x2="367.6513555200005" y2="113.97811610348383" stroke="#666666" stroke-width="0.8" /><text x="374.45454545454544" y="104.45365019512087" font-size="12" text-anchor="start">TP53</text><line x1="178.0909090909091" y1="139.47045646238485" x2="171.28771915636412" y2="148.99492237074782" stroke="#666666" stroke-width="0.8" /><text x="178.0909090909091" y="139.47045646238485" font-size="12" text-anchor="start">1</text><line x1="592.6363636363636" y1="139.47045646238485" x2="585.8331737018186" y2="148.99492237074782" stroke="#666666" stroke-width="0.8" /><text x="592.6363636363636" y="139.47045646238485" font-size="12" text-anchor="start">3</text></svg>