<svg xmlns="http://www.w3.org/2000/svg" width="673" height="517" fill="black"><rect width="100%" height="100%" fill="white" /><line x1="59" y1="492" x2="659" y2="492" stroke="black" stroke-width="1" /><line x1="59" y1="42" x2="59" y2="492" stroke="black" stroke-width="1" /><line x1="54" y1="492" x2="59" y2="492" stroke="black" stroke-width="1" /><text x="51" y="495.5" font-size="10" text-anchor="end">0</text><line x1="54" y1="451.09090909090907" x2="59" y2="451.09090909090907" stroke="black" stroke-width="1" /><text x="51" y="454.59090909090907" font-size="10" text-anchor="end">1</text><line x1="54" y1="410.1818181818182" x2="59" y2="410.1818181818182" stroke="black" stroke-width="1" /><text x="51" y="413.6818181818182" font-size="10" text-anchor="end">2</text><line x1="54" y1="369.27272727272725" x2="59" y2="369.27272727272725" stroke="black" stroke-width="1" /><text x="51" y="372.77272727272725" font-size="10" text-anchor="end">3</text><line x1="54" y1="328.3636363636364" x2="59" y2="328.3636363636364" stroke="black" stroke-width="1" /><text x="51" y="331.8636363636364" font-size="10" text-anchor="end">4</text><line x1="54" y1="287.4545454545455" x2="59" y2="287.4545454545455" stroke="black" stroke-width="1" /><text x="51" y="290.9545454545455" font-size="10" text-anchor="end">5</text><line x1="54" y1="246.54545454545456" x2="59" y2="246.54545454545456" stroke="black" stroke-width="1" /><text x="51" y="250.04545454545456" font-size="10" text-anchor="end">6</text><line x1="54" y1="205.63636363636363" x2="59" y2="205.63636363636363" stroke="black" stroke-width="1" /><text x="51" y="209.13636363636363" font-size="10" text-anchor="end">7</text><line x1="54" y1="164.7272727272727" x2="59" y2="164.7272727272727" stroke="black" stroke-width="1" /><text x="51" y="168.2272727272727" font-size="10" text-anchor="end">8</text><line x1="54" y1="123.81818181818181" x2="59" y2="123.81818181818181" stroke="black" stroke-width="1" /><text x="51" y="127.31818181818181" font-size="10" text-anchor="end">9</text><line x1="54" y1="82.90909090909093" x2="59" y2="82.90909090909093" stroke="black" stroke-width="1" /><text x="51" y="86.40909090909093" font-size="10" text-anchor="end">10</text><line x1="54" y1="42" x2="59" y2="42" stroke="black" stroke-width="1" /><text x="51" y="45.5" font-size="10" text-anchor="end">11</text><text x="14" y="258.5" font-size="14" text-anchor="middle" transform="rotate(-90,14,258.5)">−log₁₀(p-value)</text><text x="336.5" y="21" font-size="16" text-anchor="middle">Manhattan — Gene-name Labels</text><line x1="59" y1="193.32150017738257" x2="659" y2="193.32150017738257" stroke="#cc3333" stroke-width="1" stroke-dasharray="4 4" /><line x1="59" y1="287.4545454545455" x2="659" y2="287.4545454545455" stroke="#888888" stroke-width="1" stroke-dasharray="4 4" /><line x1="299" y1="42" x2="299" y2="492" stroke="#ccc" stroke-width="0.5" /><line x1="498.99999999999994" y1="42" x2="498.99999999999994" y2="492" stroke="#ccc" stroke-width="0.5" /><circle cx="79" cy="476.5874709708232" r="2.5" fill="steelblue" /><circle cx="99" cy="461.53387520877163" r="2.5" fill="steelblue" /><circle cx="119" cy="483.21803870498593" r="2.5" fill="steelblue" /><circle cx="139" cy="95.22395436807199" r="2.5" fill="steelblue" /><circle cx="159" cy="184.2458695112589" r="2.5" fill="steelblue" /><circle cx="179" cy="449.2190117497905" r="2.5" fill="steelblue" /><circle cx="199" cy="481.37847366112817" r="2.5" fill="steelblue" /><circle cx="219" cy="472.3028429950045" r="2.5" fill="steelblue" /><circle cx="299" cy="485.91511426578035" r="2.5" fill="#5aadcb" /><circle cx="319" cy="467.3702730820379" r="2.5" fill="#5aadcb" /><circle cx="339" cy="152.41240926829164" r="2.5" fill="#5aadcb" /><circle cx="359" cy="189.3569996452348" r="2.5" fill="#5aadcb" /><circle cx="379" cy="455.75222804891604" r="2.5" fill="#5aadcb" /><circle cx="399" cy="478.9598688017286" r="2.5" fill="#5aadcb" /><circle cx="498.99999999999994" cy="483.5069327522013" r="2.5" fill="steelblue" /><circle cx="519" cy="474.8093289525059" r="2.5" fill="steelblue" /><circle cx="539" cy="184.2458695112589" r="2.5" fill="steelblue" /><circle cx="559" cy="123.81818181818181" r="2.5" fill="steelblue" /><circle cx="579" cy="444.754010727856" r="2.5" fill="steelblue" /><circle cx="599" cy="480.03696174946106" r="2.5" fill="steelblue" /><text x="149" y="507" font-size="10" text-anchor="middle">1</text><text x="349" y="507" font-size="10" text-anchor="middle">2</text><text x="549" y="507" font-size="10" text-anchor="middle">3</text><line x1="149" y1="81.22395436807199" x2="142.19681006545503" y2="90.74842027643494" stroke="#666666" stroke-width="0.8" /><text x="149" y="81.22395436807199" font-size="12" text-anchor="start">BRCA2</text><line x1="569" y1="109.81818181818181" x2="562.196810065455" y2="119.34264772654477" stroke="#666666" stroke-width="0.8" /><text x="569" y="109.81818181818181" font-size="12" text-anchor="start">EGFR</text><line x1="349" y1="138.41240926829164" x2="342.19681006545505" y2="147.9368751766546" stroke="#666666" stroke-width="0.8" /><text x="349" y="138.41240926829164" font-size="12" text-anchor="start">TP53</text><line x1="169" y1="170.2458695112589" x2="162.19681006545503" y2="179.77033541962186" stroke="#666666" stroke-width="0.8" /><text x="169" y="170.2458695112589" font-size="12" text-anchor="start">1</text><line x1="549" y1="170.2458695112589" x2="542.196810065455" y2="179.77033541962186" stroke="#666666" stroke-width="0.8" /><text x="549" y="170.2458695112589" font-size="12" text-anchor="start">3</text></svg>